<svg width="82" height="110" viewBox="0 0 82 110" fill="none" xmlns="http://www.w3.org/2000/svg">
<circle cx="41" cy="41" r="41" fill="#F1F1F0"/>
<path fill-rule="evenodd" clip-rule="evenodd" d="M32.43 22.5524C32.8823 23.0205 33.3195 23.5046 33.7414 24.0044C34.2391 24.3685 34.7699 24.6808 35.3339 24.9412C35.5056 25.222 35.7241 25.4562 35.9896 25.6437C36.1742 25.2624 36.0648 24.9813 35.6618 24.8006C35.4483 24.8784 35.2766 24.8004 35.1465 24.5665C35.1894 24.5277 35.2206 24.4808 35.2402 24.4259C35.0513 24.1279 34.8171 23.878 34.5377 23.6765C34.4122 24.0267 34.2092 24.1047 33.9288 23.9107C34.0892 23.7817 34.2142 23.6255 34.3035 23.4424C34.0243 23.194 33.7745 22.913 33.5541 22.5993C33.433 22.5534 33.308 22.5377 33.1794 22.5524C33.2039 22.414 33.1727 22.2891 33.0857 22.1777C33.0027 22.255 32.9715 22.3487 32.992 22.4588C32.7933 22.4424 32.606 22.4737 32.43 22.5524Z" fill="#171717"/>
<path fill-rule="evenodd" clip-rule="evenodd" d="M32.4362 22.5525C32.6122 22.4737 32.7996 22.4424 32.9982 22.4588C32.9777 22.3487 33.0089 22.2551 33.0919 22.1778C33.1789 22.2892 33.2101 22.414 33.1856 22.5525C33.3142 22.5378 33.4392 22.5534 33.5603 22.5993C33.7807 22.913 34.0305 23.1941 34.3097 23.4424C34.2204 23.6255 34.0955 23.7817 33.935 23.9108C34.2155 24.1048 34.4184 24.0267 34.5439 23.6766C34.8233 23.8781 35.0575 24.1279 35.2464 24.426C35.2269 24.4809 35.1956 24.5277 35.1528 24.5665C35.2828 24.8004 35.4545 24.8784 35.668 24.8007C36.0711 24.9814 36.1804 25.2624 35.9958 25.6437C36.3079 26.1402 36.6669 26.6086 37.0731 27.0489C37.9914 28.0609 38.9438 29.0445 39.9302 29.9996C40.2587 30.2108 40.6021 30.3981 40.9606 30.5617C41.5735 31.1728 42.2761 31.6568 43.0683 32.0136C43.846 33.822 44.9545 35.3989 46.3937 36.7442C47.3149 37.2827 48.2205 37.8448 49.1103 38.4304C49.5007 38.9456 49.9534 39.3983 50.4686 39.7886C50.785 40.4066 50.8787 41.0623 50.7496 41.7558C48.2538 44.4984 48.082 47.3867 50.2344 50.4207C49.9218 51.3415 49.7345 52.2939 49.6724 53.2778C48.6731 52.6221 47.674 51.9664 46.6748 51.3106C46.5688 51.1632 46.5532 51.007 46.6279 50.8423C47.7029 49.4355 47.4063 48.4831 45.738 47.9852C45.2491 48.0607 44.7496 48.0919 44.2392 48.0789C43.3467 47.6483 42.4411 47.2423 41.5227 46.8611C40.201 46.614 39.0144 46.895 37.963 47.7042C37.2149 48.3327 37.2149 48.9572 37.963 49.5777C38.6499 49.7338 39.3369 49.8899 40.0239 50.046C40.8947 50.6982 41.6753 51.4476 42.3657 52.2942C42.6316 52.4928 42.8813 52.4772 43.1151 52.2474C44.1582 52.9178 45.0793 53.7297 45.8785 54.6829C46.9355 56.328 48.1064 57.8892 49.3913 59.3667C49.0772 59.6543 48.7025 59.8261 48.2672 59.8819C47.1158 60.0401 45.9604 60.1651 44.8013 60.2566C43.5285 60.5298 42.4981 61.1856 41.71 62.2238C40.4133 62.9591 39.1174 63.6929 37.8225 64.4251C37.1516 63.7537 36.3554 63.2853 35.4338 63.02C35.2991 63.0405 35.1742 63.0874 35.0591 63.1605C33.9704 64.687 32.9556 66.2639 32.0147 67.8911C31.4352 69.2089 31.1542 70.5828 31.1716 72.0128C31.5477 72.5322 32.0004 72.6102 32.5299 72.247C32.8925 71.7873 33.2203 71.3033 33.5135 70.795C34.2052 70.0398 35.0014 69.4309 35.9022 68.9684C36.423 68.8381 36.9227 68.6508 37.401 68.4063C37.5952 68.1907 37.7202 67.9409 37.7757 67.6569C39.1655 67.0271 40.5706 66.4338 41.991 65.8771C43.4845 65.5497 44.9833 65.2375 46.4874 64.9403C47.3803 64.6157 48.2859 64.3346 49.204 64.0973C50.2032 64.0661 51.2024 64.0348 52.2016 64.0036C52.4555 63.9312 52.6897 63.8219 52.9041 63.6757C54.1105 64.4195 55.2034 64.2946 56.1828 63.301C56.3334 63.0311 56.4583 62.75 56.5575 62.458C56.8863 60.9865 57.2298 59.519 57.5879 58.0552C57.9953 55.7897 58.1046 53.5103 57.9158 51.217C57.8233 50.7655 57.7609 50.2971 57.7284 49.8118C57.5272 49.0142 57.4022 48.2023 57.3537 47.3763C57.4557 46.2163 57.5962 45.061 57.7752 43.9103C57.8377 43.442 57.8377 42.9736 57.7752 42.5052C57.5982 41.7656 57.4732 41.0162 57.4005 40.257C56.9857 39.0034 56.6734 37.7232 56.4638 36.4163C56.1737 35.5238 55.7366 34.712 55.1523 33.9808C54.9303 33.3208 54.5556 32.7587 54.0282 32.2947C53.435 31.4516 52.8417 30.6085 52.2484 29.7654C51.1572 28.65 49.8302 28.0256 48.2672 27.8919C48.0021 27.6898 47.9397 27.4401 48.0799 27.1425C48.656 27.0083 49.1712 26.7586 49.6255 26.3931C49.6987 26.278 49.7455 26.1531 49.766 26.0184C49.6832 25.7754 49.5896 25.5413 49.485 25.3159C49.5702 24.955 49.5702 24.6114 49.485 24.2855C49.4047 24.2209 49.3424 24.1429 49.2977 24.0513C49.4255 23.9163 49.566 23.7914 49.7192 23.6766C49.7817 23.5204 49.7817 23.3644 49.7192 23.2082C49.4234 22.9665 49.1111 22.748 48.7825 22.5525C48.2231 20.0785 46.6775 18.9701 44.1456 19.227C42.7244 19.5864 41.6159 20.3826 40.8201 21.6157C40.642 22.4592 40.6576 23.3022 40.8669 24.1449C40.8642 24.4287 40.7705 24.6785 40.5859 24.8943C39.7563 24.2052 38.9132 23.5339 38.0567 22.8803C37.5763 22.6665 37.0767 22.5104 36.5579 22.412C35.9683 21.6661 35.3439 20.9479 34.6844 20.2574C33.2439 19.2235 31.8856 18.0837 30.6095 16.8383C30.2605 16.3954 29.9483 15.927 29.6728 15.4332C29.6607 14.6468 29.5982 13.8662 29.4854 13.0913C29.0706 12.0854 28.4773 11.2111 27.7056 10.4684C27.5128 10.5207 27.4035 10.6456 27.3778 10.8431C27.5208 11.3477 27.7393 11.8161 28.0335 12.2482C28.0023 12.2795 27.971 12.3107 27.9398 12.3419C27.5183 12.053 27.0811 11.7876 26.6284 11.5457C26.1484 11.1764 25.8986 10.6924 25.879 10.0937C25.7853 10.0625 25.6916 10.0313 25.5979 10C24.977 10.1369 24.4618 10.4491 24.0523 10.9368C24.0367 11.0305 24.0211 11.1241 24.0055 11.2178C24.4407 12.1117 24.8622 13.0173 25.2701 13.9344C25.2944 14.2857 25.3569 14.6291 25.4574 14.9648C26.4112 15.5124 27.2855 16.1682 28.0803 16.932C29.094 18.2101 30.062 19.5215 30.9842 20.8663C31.4878 21.4164 31.9719 21.9784 32.4362 22.5525Z" fill="#020202"/>
<path d="M6.952 106V96.116H9.15V106H6.952ZM8.646 106V104.068H13.532V106H8.646ZM17.7703 106.154C17.0703 106.154 16.4356 106 15.8663 105.692C15.3063 105.375 14.8629 104.945 14.5363 104.404C14.2096 103.863 14.0463 103.256 14.0463 102.584C14.0463 101.912 14.2096 101.31 14.5363 100.778C14.8629 100.246 15.3063 99.826 15.8663 99.518C16.4263 99.2007 17.0609 99.042 17.7703 99.042C18.4796 99.042 19.1143 99.196 19.6743 99.504C20.2343 99.812 20.6776 100.237 21.0043 100.778C21.3309 101.31 21.4943 101.912 21.4943 102.584C21.4943 103.256 21.3309 103.863 21.0043 104.404C20.6776 104.945 20.2343 105.375 19.6743 105.692C19.1143 106 18.4796 106.154 17.7703 106.154ZM17.7703 104.208C18.0783 104.208 18.3489 104.143 18.5823 104.012C18.8156 103.872 18.9929 103.681 19.1143 103.438C19.2449 103.186 19.3103 102.901 19.3103 102.584C19.3103 102.267 19.2449 101.991 19.1143 101.758C18.9836 101.515 18.8016 101.329 18.5683 101.198C18.3443 101.058 18.0783 100.988 17.7703 100.988C17.4716 100.988 17.2056 101.058 16.9723 101.198C16.7389 101.329 16.5569 101.515 16.4263 101.758C16.2956 102.001 16.2303 102.281 16.2303 102.598C16.2303 102.906 16.2956 103.186 16.4263 103.438C16.5569 103.681 16.7389 103.872 16.9723 104.012C17.2056 104.143 17.4716 104.208 17.7703 104.208ZM27.0547 106V102.122C27.0547 101.767 26.9427 101.483 26.7187 101.268C26.504 101.044 26.2287 100.932 25.8927 100.932C25.6594 100.932 25.454 100.983 25.2767 101.086C25.0994 101.179 24.9594 101.319 24.8567 101.506C24.754 101.683 24.7027 101.889 24.7027 102.122L23.8767 101.716C23.8767 101.184 23.9934 100.717 24.2267 100.316C24.46 99.9147 24.782 99.6067 25.1927 99.392C25.6127 99.168 26.084 99.056 26.6067 99.056C27.1107 99.056 27.554 99.1773 27.9367 99.42C28.3287 99.6533 28.6367 99.966 28.8607 100.358C29.0847 100.75 29.1967 101.179 29.1967 101.646V106H27.0547ZM22.5607 106V99.196H24.7027V106H22.5607ZM33.4564 109.052C32.7097 109.052 32.0517 108.921 31.4824 108.66C30.9224 108.408 30.4791 108.049 30.1524 107.582L31.4684 106.266C31.7111 106.555 31.9817 106.775 32.2804 106.924C32.5884 107.073 32.9571 107.148 33.3864 107.148C33.9184 107.148 34.3337 107.017 34.6324 106.756C34.9404 106.495 35.0944 106.126 35.0944 105.65V103.914L35.4584 102.43L35.1364 100.946V99.196H37.2364V105.594C37.2364 106.294 37.0731 106.901 36.7464 107.414C36.4197 107.927 35.9717 108.329 35.4024 108.618C34.8331 108.907 34.1844 109.052 33.4564 109.052ZM33.3584 105.79C32.7331 105.79 32.1777 105.641 31.6924 105.342C31.2071 105.043 30.8244 104.637 30.5444 104.124C30.2644 103.611 30.1244 103.041 30.1244 102.416C30.1244 101.781 30.2644 101.212 30.5444 100.708C30.8244 100.195 31.2071 99.7933 31.6924 99.504C32.1777 99.2053 32.7331 99.056 33.3584 99.056C33.8251 99.056 34.2404 99.1447 34.6044 99.322C34.9777 99.49 35.2764 99.7327 35.5004 100.05C35.7337 100.358 35.8644 100.717 35.8924 101.128V103.718C35.8644 104.119 35.7337 104.479 35.5004 104.796C35.2764 105.104 34.9777 105.347 34.6044 105.524C34.2311 105.701 33.8157 105.79 33.3584 105.79ZM33.7644 103.886C34.0631 103.886 34.3197 103.821 34.5344 103.69C34.7584 103.559 34.9264 103.387 35.0384 103.172C35.1597 102.948 35.2204 102.696 35.2204 102.416C35.2204 102.136 35.1597 101.884 35.0384 101.66C34.9264 101.436 34.7584 101.259 34.5344 101.128C34.3197 100.997 34.0631 100.932 33.7644 100.932C33.4751 100.932 33.2184 100.997 32.9944 101.128C32.7704 101.259 32.5977 101.436 32.4764 101.66C32.3551 101.884 32.2944 102.136 32.2944 102.416C32.2944 102.677 32.3551 102.925 32.4764 103.158C32.5977 103.382 32.7657 103.559 32.9804 103.69C33.2044 103.821 33.4657 103.886 33.7644 103.886ZM43.2717 106.154C42.6464 106.154 42.1004 106.042 41.6337 105.818C41.1764 105.585 40.7844 105.263 40.4577 104.852L41.9277 103.438C42.0957 103.671 42.2917 103.849 42.5157 103.97C42.7491 104.091 43.0104 104.152 43.2997 104.152C43.5797 104.152 43.8224 104.096 44.0277 103.984C44.2331 103.863 44.3964 103.695 44.5177 103.48C44.6391 103.256 44.6997 102.981 44.6997 102.654V96.116H46.9117V102.528C46.9117 103.265 46.7624 103.905 46.4637 104.446C46.1651 104.987 45.7451 105.407 45.2037 105.706C44.6624 106.005 44.0184 106.154 43.2717 106.154ZM51.4929 106.154C50.8676 106.154 50.3122 106.028 49.8269 105.776C49.3509 105.515 48.9776 105.16 48.7069 104.712C48.4362 104.255 48.3009 103.732 48.3009 103.144V99.196H50.4429V103.116C50.4429 103.349 50.4802 103.55 50.5549 103.718C50.6389 103.886 50.7602 104.017 50.9189 104.11C51.0776 104.203 51.2689 104.25 51.4929 104.25C51.8102 104.25 52.0622 104.152 52.2489 103.956C52.4356 103.751 52.5289 103.471 52.5289 103.116V99.196H54.6709V103.13C54.6709 103.727 54.5356 104.255 54.2649 104.712C53.9942 105.16 53.6209 105.515 53.1449 105.776C52.6689 106.028 52.1182 106.154 51.4929 106.154ZM56.0158 106V99.196H58.1578V106H56.0158ZM60.3698 106V102.024C60.3698 101.679 60.2624 101.413 60.0478 101.226C59.8424 101.03 59.5858 100.932 59.2778 100.932C59.0631 100.932 58.8718 100.979 58.7038 101.072C58.5358 101.156 58.4004 101.277 58.2978 101.436C58.2044 101.595 58.1578 101.791 58.1578 102.024L57.3318 101.66C57.3318 101.119 57.4484 100.657 57.6818 100.274C57.9151 99.882 58.2324 99.5833 58.6338 99.378C59.0351 99.1633 59.4878 99.056 59.9918 99.056C60.4678 99.056 60.8924 99.1633 61.2658 99.378C61.6484 99.5927 61.9518 99.8913 62.1758 100.274C62.3998 100.657 62.5118 101.114 62.5118 101.646V106H60.3698ZM64.7238 106V102.024C64.7238 101.679 64.6164 101.413 64.4018 101.226C64.1964 101.03 63.9398 100.932 63.6318 100.932C63.4171 100.932 63.2258 100.979 63.0578 101.072C62.8898 101.156 62.7544 101.277 62.6518 101.436C62.5584 101.595 62.5118 101.791 62.5118 102.024L61.2798 101.856C61.2984 101.277 61.4338 100.783 61.6858 100.372C61.9471 99.952 62.2878 99.63 62.7078 99.406C63.1371 99.1727 63.6178 99.056 64.1498 99.056C64.6724 99.056 65.1344 99.168 65.5358 99.392C65.9464 99.6067 66.2684 99.9193 66.5018 100.33C66.7444 100.731 66.8658 101.217 66.8658 101.786V106H64.7238ZM72.1584 106.14C71.7011 106.14 71.2811 106.051 70.8984 105.874C70.5158 105.697 70.2031 105.454 69.9604 105.146C69.7178 104.829 69.5778 104.469 69.5404 104.068V101.198C69.5778 100.797 69.7178 100.433 69.9604 100.106C70.2031 99.7793 70.5158 99.5227 70.8984 99.336C71.2811 99.1493 71.7011 99.056 72.1584 99.056C72.8024 99.056 73.3718 99.21 73.8664 99.518C74.3704 99.826 74.7624 100.246 75.0424 100.778C75.3318 101.31 75.4764 101.917 75.4764 102.598C75.4764 103.279 75.3318 103.886 75.0424 104.418C74.7624 104.95 74.3704 105.37 73.8664 105.678C73.3718 105.986 72.8024 106.14 72.1584 106.14ZM71.7664 104.208C72.0744 104.208 72.3404 104.138 72.5644 103.998C72.7978 103.858 72.9798 103.667 73.1104 103.424C73.2411 103.181 73.3064 102.906 73.3064 102.598C73.3064 102.281 73.2411 102.001 73.1104 101.758C72.9798 101.515 72.7978 101.329 72.5644 101.198C72.3404 101.058 72.0791 100.988 71.7804 100.988C71.4818 100.988 71.2158 101.058 70.9824 101.198C70.7584 101.329 70.5811 101.515 70.4504 101.758C70.3198 102.001 70.2544 102.281 70.2544 102.598C70.2544 102.906 70.3151 103.181 70.4364 103.424C70.5671 103.667 70.7491 103.858 70.9824 103.998C71.2158 104.138 71.4771 104.208 71.7664 104.208ZM68.2384 108.87V99.196H70.3804V100.946L70.0304 102.598L70.3524 104.25V108.87H68.2384Z" fill="white"/>
</svg>
