<svg width="82" height="110" viewBox="0 0 82 110" fill="none" xmlns="http://www.w3.org/2000/svg">
<circle cx="41" cy="41" r="41" fill="#F1F1F0"/>
<g clip-path="url(#clip0_1_2724)">
<path d="M17 43.6278V41.5795C17.0419 40.1079 17.0635 38.6364 17.0648 37.1648C17.0648 37.1128 17.0652 37.0583 17.0661 37.0011C17.1032 34.0427 17.1095 31.2578 17.0851 28.6463C17.0838 28.4728 17.0439 28.3105 17.0465 28.1357C17.0587 27.3894 17.0432 26.644 17 25.8995V23.7288C17.0205 23.5595 17.0412 23.3904 17.0622 23.2215C17.0792 23.0849 17.0903 22.9154 17.0956 22.7129C17.1028 22.417 17.1421 22.127 17.1466 21.8403C17.1558 21.1957 17.2213 20.5745 17.343 19.9766C17.3921 19.7337 17.5734 19.5982 17.8071 19.5485C17.8338 19.5428 17.8538 19.5284 17.8674 19.5053C19.167 17.3088 20.4993 15.0447 21.8644 12.713C21.9731 12.5277 22.1125 12.1965 22.0229 12.0001C21.8913 11.7114 21.7924 11.5484 21.924 11.2054C22.0294 10.9298 22.3927 10.6693 22.6978 10.8218C23.0569 11.002 23.2119 11.2929 23.1625 11.6944C23.1481 11.8155 23.0879 11.9045 23.029 12.006C23.0174 12.0253 23.0115 12.0475 23.012 12.0701C23.012 12.1077 23.0174 12.143 23.0283 12.1762C23.1313 12.4943 23.2459 12.8033 23.372 13.1031C23.839 14.2099 24.4019 15.4704 25.0609 16.8848C25.517 17.8637 25.9481 18.7027 26.3544 19.4018C26.368 19.4245 26.3876 19.4374 26.4134 19.4404C26.558 19.4601 26.7014 19.4483 26.8441 19.4882C27.1518 19.574 27.6545 19.8679 27.6506 20.2332C27.6414 21.0807 27.6449 21.974 27.661 22.9132C27.6643 23.1017 27.684 23.2824 27.6859 23.4775C27.6981 24.6222 27.6946 25.8788 27.6754 27.2474C27.6737 27.3512 27.6715 27.4549 27.6689 27.5583C27.6475 28.3766 27.6133 29.1925 27.5661 30.0059C27.5524 30.2377 27.5622 30.4668 27.5327 30.6913C27.4987 30.9466 27.5098 31.1954 27.4889 31.4526C27.4579 31.8345 27.433 32.2166 27.4143 32.5988C27.4047 32.7961 27.3909 32.9921 27.373 33.1867C27.3494 33.4413 27.3691 33.7025 27.3416 33.9604C27.2925 34.4259 27.3259 34.9214 27.2774 35.4084C27.2473 35.7122 27.2715 36.0395 27.2513 36.3596C27.2273 36.7471 27.2181 37.1528 27.2238 37.5765C27.2277 37.8691 27.1714 38.2109 27.176 38.4609C27.1873 39.0453 27.1799 39.6375 27.1537 40.2375C27.1105 41.2188 27.1504 42.1961 27.1033 43.1741C27.0745 43.7692 27.0987 44.3544 27.0536 44.9586C27.0348 45.2091 27.008 45.4638 26.973 45.7225C26.8644 46.529 26.3865 47.5057 25.6638 47.9535C25.1473 48.2742 24.57 48.5511 23.9546 48.6559C22.9072 48.8344 21.9046 48.8769 20.9467 48.7835C19.081 48.6015 17.3679 47.5168 17.1198 45.5517C17.0956 45.3586 17.1047 45.1629 17.0694 44.9691C17.0563 44.8953 17.0487 44.8203 17.0465 44.7439C17.0373 44.3712 17.0218 43.9992 17 43.6278ZM25.1729 19.3285L22.5924 12.7673C22.5806 12.7368 22.5705 12.7374 22.5623 12.7693L20.9179 19.1969C20.9118 19.2214 20.9214 19.2336 20.9467 19.2336C21.2596 19.2362 21.5758 19.2244 21.8867 19.2441C22.3083 19.2707 22.7493 19.2822 23.2097 19.2788C23.6967 19.2748 24.1661 19.3383 24.6623 19.3207C24.8253 19.3148 24.9732 19.3855 25.146 19.3711C25.1509 19.3707 25.1556 19.3691 25.1598 19.3666C25.1639 19.3641 25.1675 19.3606 25.1701 19.3565C25.1727 19.3524 25.1743 19.3477 25.1748 19.3428C25.1753 19.338 25.1746 19.3331 25.1729 19.3285ZM19.5936 19.2761C19.7398 19.2639 19.8875 19.2473 20.0368 19.2264C20.0608 19.2233 20.076 19.21 20.0826 19.1865L21.3093 14.8477C21.3194 14.8115 21.3102 14.8058 21.2818 14.8307C21.2613 14.8485 21.2452 14.8684 21.2334 14.8902C20.423 16.3779 19.6243 17.8432 18.8375 19.286C18.7908 19.3719 18.8135 19.3988 18.9056 19.3665C18.9606 19.3468 19.0142 19.3246 19.0738 19.3265C19.2532 19.3305 19.4175 19.2905 19.5936 19.2761Z" fill="black"/>
<path d="M44.8011 27.3109C44.6447 27.3187 44.2598 27.2723 44.3246 27.0183C44.411 26.6805 44.4705 26.3593 44.5033 26.0547C44.5275 25.8243 44.1622 25.5388 43.9966 25.4289C43.9669 25.4092 43.9512 25.3815 43.9495 25.3457C43.9277 24.846 43.929 24.3344 43.9534 23.8107C43.9709 23.4288 44.0276 23.1183 44.1236 22.8791C44.3597 22.2904 44.7597 21.8379 45.3235 21.5215C45.6386 21.3447 45.9428 21.2249 46.236 21.1621C47.2036 20.9539 48.1888 21.0704 49.0319 21.5562C49.7101 21.9468 50.1341 22.5003 50.3038 23.2169C50.4125 23.6732 50.387 24.1458 50.4459 24.6086C50.4603 24.7265 50.4963 24.8515 50.5454 24.9602C50.6876 25.2783 50.8183 25.6106 50.9375 25.9571C51.0911 26.4058 51.3695 26.7538 51.7728 27.0012C52.7514 27.6015 53.8826 27.7802 54.8914 28.2797C55.4694 28.5658 55.7207 29.0868 56.0749 29.6033C56.4919 30.2115 56.6647 30.7869 56.5744 31.5587C56.4952 32.2395 56.3721 32.8895 56.359 33.586C56.3485 34.1656 56.304 34.7261 56.2255 35.2677C56.0775 36.2863 55.8789 37.3647 55.6298 38.5028C55.3673 39.7008 55.3149 40.9897 55.2939 42.2138C55.29 42.4501 55.3679 42.6779 55.5427 42.8462C55.6845 42.9819 55.776 43.1224 55.817 43.2677C55.9217 43.6409 56.0223 44.0646 56.1188 44.539C56.1489 44.6865 56.1672 44.8356 56.1737 44.9861C56.1822 45.1786 56.2169 45.3599 56.2189 45.5524C56.2261 46.0832 56.1934 46.6096 56.2732 47.1391C56.4258 48.1531 56.5894 49.1599 56.9468 50.1255C57.018 50.3179 57.1009 50.6509 57.1956 51.1244C57.553 52.9155 57.8801 54.5956 58.1769 56.165C58.2772 56.6952 58.4034 57.2294 58.5552 57.7674C58.5866 57.88 58.6482 57.9337 58.7568 57.9704C58.9572 58.038 59.1682 58.1118 59.3899 58.1916C59.9402 58.3889 60.4447 58.6641 60.9033 59.0171C61.1743 59.2253 61.3786 59.5617 61.5121 59.836C62.0912 61.0266 62.6361 62.0632 63.1467 62.9461C63.2754 63.1687 63.4406 63.4024 63.6422 63.6472C63.6562 63.6642 63.6737 63.6769 63.6946 63.6852C63.8281 63.7371 63.9314 63.8052 64.0042 63.8894C64.27 64.1962 64.5183 64.5748 64.7492 65.0252C64.8539 65.2298 64.9253 65.4513 64.9632 65.6896C65.0064 65.9619 65.0298 66.2183 65.0333 66.4588C65.0366 66.7429 65.0798 67.0054 65.083 67.277C65.0918 67.8972 65.0977 68.5446 65.1007 69.2193C65.102 69.5156 65.071 69.77 65.0078 69.9825C64.8987 70.3491 64.7298 70.6985 64.5011 71.0306C64.3198 71.2937 64.0389 71.4076 63.7411 71.4489C63.227 71.5191 62.7537 71.4284 62.3212 71.1766C62.1896 71.1 62.0738 70.9684 62.0299 70.8133C61.846 70.158 61.9429 69.3194 62.1373 68.5797C62.2795 68.0368 62.3889 67.4638 62.4652 66.8607C62.4927 66.6401 62.5156 66.4025 62.4076 66.2015C62.0869 65.6051 61.7982 65.0468 61.6391 64.398C61.6138 64.2964 61.5376 64.1868 61.4107 64.0694C60.8215 63.5261 60.058 62.9121 59.1202 62.2273C58.3477 61.6631 57.6625 61.2301 57.0647 60.9286C56.6274 60.7086 56.2143 60.4383 55.8648 60.1083C55.3201 59.5945 54.9188 58.9595 54.4901 58.3573C54.4547 58.3071 54.4224 58.2534 54.3932 58.1962C54.3832 58.1766 54.3672 58.1665 54.3454 58.1661C53.9814 58.1587 53.6111 58.1401 53.2345 58.1105C52.9858 58.0913 52.7529 58.047 52.536 57.9776C52.4117 57.9383 52.0844 57.8133 52.0523 57.6732C51.8369 56.7318 51.5122 55.8363 51.2353 54.9166C50.8901 53.7715 50.5585 52.6263 50.2403 51.4812C50.2341 51.4588 50.2223 51.4384 50.2059 51.422C50.1895 51.4056 50.1691 51.3938 50.1467 51.3876C50.0586 51.3627 49.985 51.3865 49.9261 51.4589C49.3828 52.1286 48.9723 52.814 48.5521 53.5661C48.2959 54.0257 48.0271 54.4357 47.7456 54.7962C47.5379 55.0624 47.2579 55.1726 46.9057 55.1267C46.4759 55.0709 46.0525 55.0231 45.6358 54.9834C45.5206 54.9723 45.442 54.9886 45.3615 55.077C44.8688 55.6181 44.4367 56.1032 44.0653 56.5322C43.7865 56.8556 43.4814 57.213 43.304 57.6149C43.2844 57.6599 43.2785 57.7064 43.2864 57.7544C43.4003 58.4421 43.4775 59.1448 43.5181 59.8622C43.5593 60.5888 43.1083 61.0183 42.8595 61.6428C42.7408 61.94 42.6494 62.2341 42.5853 62.5252C42.3129 63.7541 42.3084 65.0195 42.5715 66.3213C42.6976 66.9458 42.4716 67.3887 41.8933 67.6502C40.8394 68.1263 39.8239 68.5985 38.8468 69.0667C38.5448 69.2116 38.2096 69.3236 37.8413 69.4026C37.3804 69.5014 36.8764 69.3345 36.496 69.0916C36.1753 68.8874 36.246 68.3958 36.4149 68.1287C36.5104 67.9786 36.6418 67.8276 36.8089 67.6757C37.1205 67.3929 37.4433 67.114 37.7385 66.8136C38.1801 66.3645 38.6229 65.9466 39.0667 65.56C39.2821 65.3721 39.4955 65.1639 39.684 64.9531C39.7927 64.832 39.832 64.6501 39.8313 64.4871C39.8304 64.0271 39.9352 63.6018 40.1455 63.2112C40.2201 63.072 40.2644 62.9555 40.2784 62.8617C40.2985 62.7303 40.302 62.6037 40.2889 62.482C40.2214 61.8529 40.103 61.1832 40.0506 60.5679C40.0074 60.0656 40.0089 59.4444 40.0552 58.7042C40.0923 58.105 40.1355 57.5488 40.1848 57.0356C40.1988 56.889 40.2066 56.7432 40.2084 56.5983C40.2118 56.3299 40.2891 56.0609 40.4401 55.7912C40.7654 55.2099 41.204 54.7052 41.4894 54.1016C41.5974 53.8738 41.5922 53.6264 41.6623 53.3887C42.0009 52.244 42.3963 51.1585 42.8484 50.132C42.9833 49.8257 43.1345 49.5409 43.3368 49.266C43.833 48.593 44.337 47.8769 44.8109 47.1365C44.8821 47.0257 44.9279 46.9078 44.9484 46.783C44.9929 46.5107 45.0396 46.2465 45.0885 45.9903C45.1889 45.4622 45.3154 44.9431 45.4682 44.433C45.5644 44.1102 45.6796 43.8072 45.8786 43.5309C46.1889 43.0989 46.5365 42.5575 46.9129 42.2524C47.0107 42.1739 47.084 42.0942 47.1329 42.0135C47.4274 41.5324 47.4608 41.0113 47.4432 40.4503C47.4366 40.2408 47.4667 40.0353 47.4949 39.8297C47.4992 39.7992 47.511 39.7715 47.5302 39.7466C47.5429 39.73 47.5427 39.7136 47.5296 39.6975L46.4324 38.332C46.427 38.3253 46.4195 38.3206 46.4109 38.3187C46.4024 38.3168 46.3934 38.3178 46.3853 38.3215C46.094 38.459 45.7857 38.5427 45.5022 38.7129C44.9253 39.059 44.3344 39.3761 43.7295 39.6641C43.2857 39.8758 42.8744 39.986 42.4956 39.9947C42.163 40.003 41.7978 39.9011 41.3998 39.689C40.6764 39.3034 39.9871 38.9041 39.2114 38.5434C38.2548 38.0983 37.3361 37.5676 36.4555 36.9514C36.3136 36.8519 36.191 36.755 36.0876 36.6607C36.0801 36.654 36.071 36.6491 36.0613 36.6466C36.0515 36.644 36.0413 36.6438 36.0314 36.646C36.0216 36.6481 36.0124 36.6526 36.0046 36.6591C35.9968 36.6655 35.9907 36.6737 35.9868 36.683C35.8951 36.8977 35.7524 37.1995 35.4611 37.0961C35.2811 37.0326 35.1862 36.8264 35.05 36.6961C34.8412 36.4958 34.5898 36.3518 34.307 36.5102C34.0249 36.6686 33.7159 36.8807 33.3912 36.9141C32.5664 36.9992 31.9777 36.6911 31.6251 35.9898C31.5133 35.7681 31.4324 35.5263 31.3822 35.2644C31.3451 35.0715 31.3482 34.8782 31.3914 34.6845C31.6388 33.5749 32.2875 31.649 33.8435 32.2768C34.1647 32.4064 34.496 32.6043 34.8372 32.8705C35.2335 33.1795 35.5848 33.4904 35.8912 33.8033C36.1007 34.0167 36.3226 34.1267 36.6191 34.1248C36.7195 34.1243 36.8109 34.1464 36.8934 34.1909C36.9209 34.2061 36.9368 34.2291 36.9412 34.2596C36.9578 34.3857 36.9412 34.5105 36.8914 34.634C36.8731 34.6786 36.8868 34.708 36.9327 34.7224C37.7719 34.9873 38.5963 35.2413 39.4058 35.4844C39.7702 35.5935 40.2073 35.7657 40.717 36.0009C41.2743 36.2579 41.7709 36.5826 42.2069 36.9749C42.2409 37.0059 42.2772 37.0092 42.3156 36.9848C42.4556 36.8966 42.5992 36.7842 42.7463 36.6476C43.153 36.2701 43.5166 35.8715 43.8369 35.4517C43.8495 35.4351 43.8556 35.4145 43.854 35.3938C43.8524 35.373 43.8433 35.3535 43.8284 35.3391L43.3616 34.888C43.3189 34.8466 43.2776 34.8479 43.2379 34.892C43.2095 34.9234 43.1764 34.9467 43.1384 34.962C43.1196 34.9699 43.1018 34.9686 43.0847 34.9581C42.9499 34.8773 42.8397 34.7794 42.7542 34.6642C42.5826 34.4342 42.4004 34.2341 42.2075 34.0639C41.8859 33.7811 41.5785 33.5343 41.2852 33.3235C41.1726 33.2423 41.0266 33.2011 40.8885 33.1775C40.6546 33.1378 40.4591 33.0525 40.302 32.9216C39.9969 32.6672 39.7074 32.3968 39.4333 32.1105C39.2762 31.9462 39.2219 31.7033 39.3089 31.4912C39.3508 31.3898 39.3705 31.289 39.4261 31.1927C39.7818 30.5796 40.1662 30.0358 40.5795 29.5614C40.7222 29.3978 40.9284 29.1811 41.1301 29.1091C41.3775 29.021 41.6459 29.0072 41.9352 29.0679C42.0635 29.0947 42.2154 29.0967 42.3339 29.0338C42.4995 28.9468 42.6815 28.8368 42.8726 28.8446C43.2949 28.8623 43.5665 29.1602 43.6071 29.5686C43.6209 29.7041 43.6686 29.8344 43.6614 29.968C43.6326 30.5257 43.8657 30.9878 44.0699 31.4939C44.2722 31.994 44.4633 32.5399 44.7684 32.9936C44.7811 33.0128 44.7874 33.034 44.7874 33.0571C44.7883 33.1317 44.7586 33.1935 44.6984 33.2423C44.6735 33.2624 44.6722 33.2842 44.6944 33.3078C44.8088 33.4291 44.8668 33.4907 44.8686 33.4924C44.8727 33.4968 44.8777 33.5003 44.8833 33.5026C44.8889 33.5049 44.8949 33.5059 44.9009 33.5057C44.9069 33.5054 44.9128 33.5039 44.9182 33.5011C44.9236 33.4984 44.9283 33.4945 44.9321 33.4898C45.2375 33.1057 45.6 32.8157 46.0194 32.6198C46.0408 32.6098 46.0464 32.5941 46.0364 32.5727C45.6829 31.8124 45.7113 31.0867 46.1215 30.3954C46.1743 30.3064 46.2439 30.2123 46.3303 30.1133C46.4337 29.9941 46.5215 29.8809 46.6504 29.7781C47.0868 29.4294 47.5771 29.1647 48.1213 28.9841C48.1293 28.9815 48.1363 28.9767 48.1415 28.9702C48.1466 28.9637 48.1498 28.9557 48.1505 28.9474C48.1512 28.939 48.1494 28.9306 48.1454 28.9231C48.1414 28.9157 48.1353 28.9096 48.1279 28.9055C47.8667 28.7635 47.4811 28.8662 47.2258 28.9769C47.0107 29.0703 46.7667 29.1584 46.494 29.2413C46.4106 29.2666 46.3273 29.2721 46.2439 29.2577C46.0785 29.2289 45.9194 29.204 45.7667 29.1831C45.2934 29.1189 45.5048 28.5769 45.1252 28.3844C45.0217 28.3321 44.972 28.2319 44.9713 28.1187C44.9709 28.0938 44.9648 28.0705 44.953 28.0486C44.9052 27.9576 44.8391 27.8824 44.8273 27.7757C44.812 27.6303 44.8131 27.4859 44.8306 27.3423C44.8311 27.3383 44.8306 27.3342 44.8294 27.3304C44.8281 27.3265 44.826 27.323 44.8232 27.32C44.8204 27.317 44.817 27.3147 44.8132 27.3131C44.8094 27.3115 44.8053 27.3108 44.8011 27.3109Z" fill="black"/>
<path d="M17 25.8995C17.0432 26.644 17.0587 27.3894 17.0465 28.1357C17.0439 28.3104 17.0838 28.4728 17.0851 28.6463C17.1095 31.2577 17.1032 34.0427 17.0661 37.0011C17.0652 37.0583 17.0648 37.1128 17.0648 37.1648C17.0635 38.6363 17.0419 40.1079 17 41.5795V25.8995Z" fill="white"/>
</g>
<path d="M21.132 106V104.292H23.456C23.8853 104.292 24.2213 104.166 24.464 103.914C24.7067 103.662 24.828 103.354 24.828 102.99C24.828 102.738 24.772 102.514 24.66 102.318C24.548 102.122 24.3893 101.968 24.184 101.856C23.988 101.744 23.7453 101.688 23.456 101.688H21.132V100.022H23.274C23.638 100.022 23.932 99.9333 24.156 99.756C24.38 99.5693 24.492 99.2893 24.492 98.916C24.492 98.552 24.38 98.2813 24.156 98.104C23.932 97.9173 23.638 97.824 23.274 97.824H21.132V96.116H23.694C24.3287 96.116 24.8653 96.2327 25.304 96.466C25.752 96.6993 26.0927 97.012 26.326 97.404C26.5593 97.796 26.676 98.23 26.676 98.706C26.676 99.3127 26.48 99.826 26.088 100.246C25.696 100.666 25.1173 100.955 24.352 101.114L24.408 100.372C25.2387 100.531 25.878 100.853 26.326 101.338C26.7833 101.823 27.012 102.421 27.012 103.13C27.012 103.671 26.8767 104.161 26.606 104.6C26.3447 105.029 25.962 105.37 25.458 105.622C24.9633 105.874 24.366 106 23.666 106H21.132ZM19.452 106V96.116H21.622V106H19.452ZM31.5008 106.154C30.8008 106.154 30.1661 106 29.5968 105.692C29.0368 105.375 28.5934 104.945 28.2668 104.404C27.9401 103.863 27.7768 103.256 27.7768 102.584C27.7768 101.912 27.9401 101.31 28.2668 100.778C28.5934 100.246 29.0368 99.826 29.5968 99.518C30.1568 99.2007 30.7914 99.042 31.5008 99.042C32.2101 99.042 32.8448 99.196 33.4048 99.504C33.9648 99.812 34.4081 100.237 34.7348 100.778C35.0614 101.31 35.2248 101.912 35.2248 102.584C35.2248 103.256 35.0614 103.863 34.7348 104.404C34.4081 104.945 33.9648 105.375 33.4048 105.692C32.8448 106 32.2101 106.154 31.5008 106.154ZM31.5008 104.208C31.8088 104.208 32.0794 104.143 32.3128 104.012C32.5461 103.872 32.7234 103.681 32.8448 103.438C32.9754 103.186 33.0408 102.901 33.0408 102.584C33.0408 102.267 32.9754 101.991 32.8448 101.758C32.7141 101.515 32.5321 101.329 32.2988 101.198C32.0748 101.058 31.8088 100.988 31.5008 100.988C31.2021 100.988 30.9361 101.058 30.7028 101.198C30.4694 101.329 30.2874 101.515 30.1568 101.758C30.0261 102.001 29.9608 102.281 29.9608 102.598C29.9608 102.906 30.0261 103.186 30.1568 103.438C30.2874 103.681 30.4694 103.872 30.7028 104.012C30.9361 104.143 31.2021 104.208 31.5008 104.208ZM40.3274 106L38.6894 103.354L38.2274 103.06L35.5534 99.196H38.0594L39.5854 101.674L40.0334 101.954L42.8054 106H40.3274ZM35.4274 106L38.2134 102.038L39.4314 103.41L37.7654 106H35.4274ZM40.0194 103.046L38.8014 101.674L40.3414 99.196H42.6654L40.0194 103.046ZM43.6193 106V99.196H45.7613V106H43.6193ZM44.6973 98.258C44.3613 98.258 44.0813 98.146 43.8573 97.922C43.6426 97.6887 43.5353 97.4087 43.5353 97.082C43.5353 96.746 43.6426 96.466 43.8573 96.242C44.0813 96.018 44.3613 95.906 44.6973 95.906C45.0333 95.906 45.3086 96.018 45.5233 96.242C45.7379 96.466 45.8453 96.746 45.8453 97.082C45.8453 97.4087 45.7379 97.6887 45.5233 97.922C45.3086 98.146 45.0333 98.258 44.6973 98.258ZM51.7637 106V102.122C51.7637 101.767 51.6517 101.483 51.4277 101.268C51.213 101.044 50.9377 100.932 50.6017 100.932C50.3683 100.932 50.163 100.983 49.9857 101.086C49.8083 101.179 49.6683 101.319 49.5657 101.506C49.463 101.683 49.4117 101.889 49.4117 102.122L48.5857 101.716C48.5857 101.184 48.7023 100.717 48.9357 100.316C49.169 99.9147 49.491 99.6067 49.9017 99.392C50.3217 99.168 50.793 99.056 51.3157 99.056C51.8197 99.056 52.263 99.1773 52.6457 99.42C53.0377 99.6533 53.3457 99.966 53.5697 100.358C53.7937 100.75 53.9057 101.179 53.9057 101.646V106H51.7637ZM47.2697 106V99.196H49.4117V106H47.2697ZM58.1654 109.052C57.4187 109.052 56.7607 108.921 56.1914 108.66C55.6314 108.408 55.1881 108.049 54.8614 107.582L56.1774 106.266C56.4201 106.555 56.6907 106.775 56.9894 106.924C57.2974 107.073 57.6661 107.148 58.0954 107.148C58.6274 107.148 59.0427 107.017 59.3414 106.756C59.6494 106.495 59.8034 106.126 59.8034 105.65V103.914L60.1674 102.43L59.8454 100.946V99.196H61.9454V105.594C61.9454 106.294 61.7821 106.901 61.4554 107.414C61.1287 107.927 60.6807 108.329 60.1114 108.618C59.5421 108.907 58.8934 109.052 58.1654 109.052ZM58.0674 105.79C57.4421 105.79 56.8867 105.641 56.4014 105.342C55.9161 105.043 55.5334 104.637 55.2534 104.124C54.9734 103.611 54.8334 103.041 54.8334 102.416C54.8334 101.781 54.9734 101.212 55.2534 100.708C55.5334 100.195 55.9161 99.7933 56.4014 99.504C56.8867 99.2053 57.4421 99.056 58.0674 99.056C58.5341 99.056 58.9494 99.1447 59.3134 99.322C59.6867 99.49 59.9854 99.7327 60.2094 100.05C60.4427 100.358 60.5734 100.717 60.6014 101.128V103.718C60.5734 104.119 60.4427 104.479 60.2094 104.796C59.9854 105.104 59.6867 105.347 59.3134 105.524C58.9401 105.701 58.5247 105.79 58.0674 105.79ZM58.4734 103.886C58.7721 103.886 59.0287 103.821 59.2434 103.69C59.4674 103.559 59.6354 103.387 59.7474 103.172C59.8687 102.948 59.9294 102.696 59.9294 102.416C59.9294 102.136 59.8687 101.884 59.7474 101.66C59.6354 101.436 59.4674 101.259 59.2434 101.128C59.0287 100.997 58.7721 100.932 58.4734 100.932C58.1841 100.932 57.9274 100.997 57.7034 101.128C57.4794 101.259 57.3067 101.436 57.1854 101.66C57.0641 101.884 57.0034 102.136 57.0034 102.416C57.0034 102.677 57.0641 102.925 57.1854 103.158C57.3067 103.382 57.4747 103.559 57.6894 103.69C57.9134 103.821 58.1747 103.886 58.4734 103.886Z" fill="white"/>
<defs>
<clipPath id="clip0_1_2724">
<rect width="48.1796" height="64.1522" fill="white" transform="translate(17 9)"/>
</clipPath>
</defs>
</svg>
