<svg width="99" height="108" viewBox="0 0 99 108" fill="none" xmlns="http://www.w3.org/2000/svg">
<circle cx="49.5" cy="41" r="41" fill="#F1F1F0"/>
<path d="M51.0725 20.7494C51.1628 19.9369 51.2144 15.3064 53.6521 15.0355C56.1028 14.7647 57.5474 16.0803 57.7279 17.6668C57.9085 19.2532 57.586 19.1114 58.0891 19.5757C58.5921 20.0271 57.5474 19.7176 57.4055 19.8079C57.2636 19.8982 57.2636 20.2593 57.4055 20.7623C57.5474 21.2654 57.5474 21.7168 57.0443 21.9361C56.5413 22.1682 55.2773 21.6652 55.5094 22.2585C55.7416 22.8518 57.0959 22.3488 58.231 22.9808C59.366 23.6128 63.4031 29.3267 64.2157 29.5073C65.0283 29.6879 67.8014 29.8297 69.6071 30.049C71.4258 30.2812 72.9607 30.049 73.5927 29.6363C74.2247 29.2235 76.5335 29.043 77.3976 30.1393C78.2618 31.2227 78.0812 31.9579 77.7588 31.9063C77.4363 31.8548 77.2558 31.313 76.6237 31.1841C75.9917 31.0422 77.9393 32.2288 77.4363 32.3578C76.9333 32.4868 76.4819 31.6355 75.708 31.6742C74.9341 31.7258 73.0767 32.2675 71.6708 31.9063C70.2649 31.5452 68.8461 33.2994 64.5253 32.8608C61.8295 32.59 59.5466 29.2751 58.2052 28.6947C57.8053 28.5141 56.7735 29.5331 56.3478 30.2296C55.5352 31.5839 52.4913 36.5755 52.3494 37.2978C52.2204 38.0201 51.3175 37.5686 51.0338 37.7105C50.7629 37.8524 51.8464 38.794 52.1172 39.1164C52.3881 39.4389 55.6126 42.5215 57.3797 43.3728C59.1467 44.237 61.9069 45.8751 60.1399 51.1633C59.869 51.9759 58.7856 57.2383 59.0564 58.3734C59.3273 59.5084 60.9138 63.7648 61.4555 64.4871C61.9972 65.2094 63.2225 66.4347 62.5389 66.7959C61.8553 67.157 58.7727 66.9765 57.7408 66.7959C56.6961 66.6153 56.6961 65.261 55.6126 64.5258C54.5292 63.8035 55.6126 61.8559 55.7029 61.1207C55.7932 60.3984 56.6058 58.3089 56.3349 56.6321C56.0641 54.9554 54.5163 51.8727 56.0641 48.9706C56.0641 48.9706 54.2841 47.152 52.3494 46.4297C50.4018 45.7074 46.5581 43.6179 44.0559 41.58C44.0559 41.58 41.6052 43.0246 40.0703 44.1209C38.5355 45.2044 37.581 46.3394 36.5749 46.8811C35.5689 47.4228 35.0401 48.7385 33.402 50.0928C31.7768 51.4471 28.3717 54.0783 27.8687 54.8909C27.3657 55.7035 25.6889 58.928 25.418 59.8309C25.1472 60.7337 23.4833 66.525 21.2906 65.6351C19.846 65.0417 20.7876 60.6693 20.9682 60.1017C21.3293 59.0183 22.6836 58.2831 23.4188 56.9804C24.1411 55.6648 24.9537 54.1299 25.9082 53.8074C26.8626 53.485 27.9074 50.312 28.4491 49.1899C28.9908 48.0549 30.358 44.0693 33.6599 43.7985C33.6599 43.7985 37.4262 36.8205 40.0445 34.4602C40.0445 34.4602 38.7031 32.8995 43.7205 27.895C44.0817 27.5339 44.7137 26.2698 43.8108 26.4891C42.9079 26.7213 41.3601 26.6697 40.5476 27.1727C39.735 27.6757 38.2775 28.398 35.93 28.7076C33.5697 29.0301 32.1638 28.2562 31.4415 28.3851C30.7192 28.5141 27.9074 29.4686 27.3141 29.5202C26.7207 29.5718 26.2306 28.8882 26.5015 28.4754C26.7723 28.0627 24.4636 26.6568 26.1403 26.257C27.8171 25.8442 31.3125 26.7987 32.3959 26.6181C33.4794 26.4375 34.5241 25.0316 38.9224 24.9929C39.5544 24.98 41.2312 23.3162 42.134 23.1356C43.0369 22.955 44.043 20.3238 45.1264 20.2851C46.5323 20.2206 46.8806 20.0142 48.0801 20.4657C49.3183 20.93 51.0725 20.7494 51.0725 20.7494Z" fill="#1D1D1B"/>
<path d="M29.0943 30.0619C30.7754 30.0619 32.1383 28.699 32.1383 27.0179C32.1383 25.3368 30.7754 23.9739 29.0943 23.9739C27.4132 23.9739 26.0503 25.3368 26.0503 27.0179C26.0503 28.699 27.4132 30.0619 29.0943 30.0619Z" fill="#1D1D1B"/>
<path d="M3.92 106.154C3.108 106.154 2.408 106.023 1.82 105.762C1.24133 105.491 0.709333 105.085 0.224 104.544L1.652 103.13C1.96933 103.494 2.31933 103.779 2.702 103.984C3.094 104.18 3.54667 104.278 4.06 104.278C4.52667 104.278 4.886 104.194 5.138 104.026C5.39933 103.858 5.53 103.625 5.53 103.326C5.53 103.055 5.446 102.836 5.278 102.668C5.11 102.5 4.886 102.355 4.606 102.234C4.33533 102.113 4.032 101.996 3.696 101.884C3.36933 101.772 3.04267 101.646 2.716 101.506C2.38933 101.357 2.086 101.175 1.806 100.96C1.53533 100.736 1.316 100.461 1.148 100.134C0.98 99.798 0.896 99.378 0.896 98.874C0.896 98.2673 1.04067 97.7447 1.33 97.306C1.62867 96.8673 2.03933 96.536 2.562 96.312C3.08467 96.0787 3.68667 95.962 4.368 95.962C5.05867 95.962 5.68867 96.0833 6.258 96.326C6.83667 96.5687 7.31267 96.9 7.686 97.32L6.258 98.734C5.95933 98.426 5.656 98.1973 5.348 98.048C5.04933 97.8987 4.70867 97.824 4.326 97.824C3.94333 97.824 3.64 97.8987 3.416 98.048C3.192 98.188 3.08 98.3933 3.08 98.664C3.08 98.916 3.164 99.1213 3.332 99.28C3.5 99.4293 3.71933 99.56 3.99 99.672C4.27 99.784 4.57333 99.896 4.9 100.008C5.236 100.12 5.56733 100.251 5.894 100.4C6.22067 100.549 6.51933 100.741 6.79 100.974C7.07 101.198 7.294 101.487 7.462 101.842C7.63 102.187 7.714 102.617 7.714 103.13C7.714 104.073 7.378 104.815 6.706 105.356C6.034 105.888 5.10533 106.154 3.92 106.154ZM13.4121 106V102.122C13.4121 101.767 13.3001 101.483 13.0761 101.268C12.8614 101.044 12.5861 100.932 12.2501 100.932C12.0168 100.932 11.8114 100.983 11.6341 101.086C11.4568 101.179 11.3168 101.319 11.2141 101.506C11.1114 101.683 11.0601 101.889 11.0601 102.122L10.2341 101.716C10.2341 101.184 10.3461 100.717 10.5701 100.316C10.7941 99.9147 11.1068 99.6067 11.5081 99.392C11.9094 99.168 12.3714 99.056 12.8941 99.056C13.4261 99.056 13.8928 99.168 14.2941 99.392C14.6954 99.6067 15.0034 99.91 15.2181 100.302C15.4421 100.685 15.5541 101.133 15.5541 101.646V106H13.4121ZM8.91811 106V95.836H11.0601V106H8.91811ZM20.2058 106.154C19.5058 106.154 18.8712 106 18.3018 105.692C17.7418 105.375 17.2985 104.945 16.9718 104.404C16.6452 103.863 16.4818 103.256 16.4818 102.584C16.4818 101.912 16.6452 101.31 16.9718 100.778C17.2985 100.246 17.7418 99.826 18.3018 99.518C18.8618 99.2007 19.4965 99.042 20.2058 99.042C20.9152 99.042 21.5498 99.196 22.1098 99.504C22.6698 99.812 23.1132 100.237 23.4398 100.778C23.7665 101.31 23.9298 101.912 23.9298 102.584C23.9298 103.256 23.7665 103.863 23.4398 104.404C23.1132 104.945 22.6698 105.375 22.1098 105.692C21.5498 106 20.9152 106.154 20.2058 106.154ZM20.2058 104.208C20.5138 104.208 20.7845 104.143 21.0178 104.012C21.2512 103.872 21.4285 103.681 21.5498 103.438C21.6805 103.186 21.7458 102.901 21.7458 102.584C21.7458 102.267 21.6805 101.991 21.5498 101.758C21.4192 101.515 21.2372 101.329 21.0038 101.198C20.7798 101.058 20.5138 100.988 20.2058 100.988C19.9072 100.988 19.6412 101.058 19.4078 101.198C19.1745 101.329 18.9925 101.515 18.8618 101.758C18.7312 102.001 18.6658 102.281 18.6658 102.598C18.6658 102.906 18.7312 103.186 18.8618 103.438C18.9925 103.681 19.1745 103.872 19.4078 104.012C19.6412 104.143 19.9072 104.208 20.2058 104.208ZM25.8255 106V96.382H27.9675V106H25.8255ZM24.2855 101.016V99.196H29.5075V101.016H24.2855ZM34.9933 102.402V100.694H37.1213C37.392 100.694 37.6393 100.638 37.8633 100.526C38.0873 100.414 38.2647 100.251 38.3953 100.036C38.526 99.8213 38.5913 99.56 38.5913 99.252C38.5913 98.9533 38.526 98.6967 38.3953 98.482C38.2647 98.2673 38.0873 98.104 37.8633 97.992C37.6393 97.88 37.392 97.824 37.1213 97.824H34.9933V96.116H37.4433C38.0687 96.116 38.6333 96.242 39.1373 96.494C39.6413 96.746 40.038 97.11 40.3273 97.586C40.626 98.0527 40.7753 98.608 40.7753 99.252C40.7753 99.896 40.626 100.456 40.3273 100.932C40.038 101.399 39.6413 101.763 39.1373 102.024C38.6333 102.276 38.0687 102.402 37.4433 102.402H34.9933ZM33.3133 106V96.116H35.5113V106H33.3133ZM44.9323 106.154C44.307 106.154 43.7517 106.028 43.2663 105.776C42.7903 105.515 42.417 105.16 42.1463 104.712C41.8757 104.255 41.7403 103.732 41.7403 103.144V99.196H43.8823V103.116C43.8823 103.349 43.9197 103.55 43.9943 103.718C44.0783 103.886 44.1997 104.017 44.3583 104.11C44.517 104.203 44.7083 104.25 44.9323 104.25C45.2497 104.25 45.5017 104.152 45.6883 103.956C45.875 103.751 45.9683 103.471 45.9683 103.116V99.196H48.1103V103.13C48.1103 103.727 47.975 104.255 47.7043 104.712C47.4337 105.16 47.0603 105.515 46.5843 105.776C46.1083 106.028 45.5577 106.154 44.9323 106.154ZM50.4212 106V96.382H52.5632V106H50.4212ZM48.8812 101.016V99.196H54.1032V101.016H48.8812ZM60.1123 106V96.256H62.3103V106H60.1123ZM57.0183 98.034V96.116H65.4043V98.034H57.0183ZM70.9297 106V102.122C70.9297 101.767 70.8177 101.483 70.5937 101.268C70.379 101.044 70.1037 100.932 69.7677 100.932C69.5344 100.932 69.329 100.983 69.1517 101.086C68.9744 101.179 68.8344 101.319 68.7317 101.506C68.629 101.683 68.5777 101.889 68.5777 102.122L67.7517 101.716C67.7517 101.184 67.8637 100.717 68.0877 100.316C68.3117 99.9147 68.6244 99.6067 69.0257 99.392C69.427 99.168 69.889 99.056 70.4117 99.056C70.9437 99.056 71.4104 99.168 71.8117 99.392C72.213 99.6067 72.521 99.91 72.7357 100.302C72.9597 100.685 73.0717 101.133 73.0717 101.646V106H70.9297ZM66.4357 106V95.836H68.5777V106H66.4357ZM74.4474 106V99.196H76.5894V106H74.4474ZM76.5894 102.262L75.6934 101.562C75.8707 100.769 76.1694 100.153 76.5894 99.714C77.0094 99.2753 77.5927 99.056 78.3394 99.056C78.6661 99.056 78.9507 99.1073 79.1934 99.21C79.4454 99.3033 79.6647 99.4527 79.8514 99.658L78.5774 101.268C78.4841 101.165 78.3674 101.086 78.2274 101.03C78.0874 100.974 77.9287 100.946 77.7514 100.946C77.3967 100.946 77.1121 101.058 76.8974 101.282C76.6921 101.497 76.5894 101.823 76.5894 102.262ZM83.5066 106.154C82.8066 106.154 82.1719 106 81.6026 105.692C81.0426 105.375 80.5993 104.945 80.2726 104.404C79.9459 103.863 79.7826 103.256 79.7826 102.584C79.7826 101.912 79.9459 101.31 80.2726 100.778C80.5993 100.246 81.0426 99.826 81.6026 99.518C82.1626 99.2007 82.7973 99.042 83.5066 99.042C84.2159 99.042 84.8506 99.196 85.4106 99.504C85.9706 99.812 86.4139 100.237 86.7406 100.778C87.0673 101.31 87.2306 101.912 87.2306 102.584C87.2306 103.256 87.0673 103.863 86.7406 104.404C86.4139 104.945 85.9706 105.375 85.4106 105.692C84.8506 106 84.2159 106.154 83.5066 106.154ZM83.5066 104.208C83.8146 104.208 84.0853 104.143 84.3186 104.012C84.5519 103.872 84.7293 103.681 84.8506 103.438C84.9813 103.186 85.0466 102.901 85.0466 102.584C85.0466 102.267 84.9813 101.991 84.8506 101.758C84.7199 101.515 84.5379 101.329 84.3046 101.198C84.0806 101.058 83.8146 100.988 83.5066 100.988C83.2079 100.988 82.9419 101.058 82.7086 101.198C82.4753 101.329 82.2933 101.515 82.1626 101.758C82.0319 102.001 81.9666 102.281 81.9666 102.598C81.9666 102.906 82.0319 103.186 82.1626 103.438C82.2933 103.681 82.4753 103.872 82.7086 104.012C82.9419 104.143 83.2079 104.208 83.5066 104.208ZM89.8263 106L87.4743 99.196H89.5743L91.0303 104.138L90.4143 104.152L92.0243 99.196H93.7603L95.3843 104.152L94.7543 104.138L96.2243 99.196H98.3243L95.9723 106H94.2223L92.6403 101.296H93.1723L91.5623 106H89.8263Z" fill="white"/>
</svg>
