<svg width="101" height="108" viewBox="0 0 101 108" fill="none" xmlns="http://www.w3.org/2000/svg">
<circle cx="50.5" cy="41" r="41" fill="#F1F1F0"/>
<path d="M66.6261 27.94C66.1506 27.435 65.4609 27.0884 65.8545 26.2385C65.9997 25.925 66.1674 25.608 66.3579 25.2875C66.3869 25.2376 66.3921 25.1848 66.3735 25.129C66.355 25.0791 66.319 25.0501 66.2656 25.0419C66.0345 25.0083 65.9997 24.9067 66.1611 24.7372C66.2551 24.6396 66.3399 24.5363 66.4153 24.4271C66.4329 24.4018 66.4451 24.3729 66.4511 24.3424C66.4571 24.3118 66.4568 24.2802 66.4502 24.2495C66.3631 23.8385 66.647 23.734 66.8577 23.4762C67.1004 23.179 67.3396 22.8701 67.5753 22.5496C67.6159 22.4951 67.6293 22.4347 67.6153 22.3685C67.5991 22.293 67.5973 22.2187 67.6101 22.1456C67.6217 22.0782 67.66 22.0335 67.7251 22.0115C68.8328 21.6544 70.0746 21.9523 71.0551 22.4835C72.0293 23.0106 72.4322 23.8205 72.2638 24.9131C72.1314 25.7792 71.8685 26.4178 71.4748 26.8289C71.1857 27.1337 71.1317 27.6004 71.0046 27.9923C70.9849 28.0538 71.0075 28.0892 71.0725 28.0985C71.6763 28.1833 72.2388 28.4097 72.7602 28.7778C74.2406 29.821 74.514 31.709 74.3834 33.4106C74.3555 33.767 74.3886 34.1264 74.4827 34.4887C74.7973 35.7043 75.0923 36.9217 75.3674 38.1409C75.5311 38.8677 75.7663 39.5888 76.0728 40.304C76.5547 41.4349 77.029 42.5815 77.4957 43.7438C77.4988 43.7513 77.5002 43.7594 77.5 43.7675C77.4998 43.7756 77.4979 43.7836 77.4944 43.7909C77.491 43.7983 77.4861 43.8048 77.48 43.8102C77.474 43.8156 77.4669 43.8196 77.4592 43.8222L73.8923 44.949C73.8787 44.9533 73.8664 44.9609 73.8565 44.9712C73.8467 44.9814 73.8396 44.9939 73.8359 45.0075C73.8322 45.0212 73.8321 45.0354 73.8356 45.0489C73.8391 45.0625 73.846 45.0748 73.8557 45.0849C75.1863 46.5008 76.0223 48.6727 73.8435 49.9162C73.7599 49.9638 73.7222 50.0358 73.7303 50.1322C73.8104 50.9978 72.9709 51.5621 72.2238 51.7745C72.1564 51.7943 72.1193 51.839 72.1123 51.9086L71.9068 54.0509C71.9055 54.0636 71.9014 54.076 71.8948 54.087C71.8883 54.098 71.8793 54.1074 71.8687 54.1146C71.858 54.1217 71.8459 54.1265 71.8332 54.1284C71.8206 54.1303 71.8076 54.1294 71.7953 54.1258L68.5785 53.2131C68.5482 53.205 68.5164 53.2039 68.4856 53.2099C68.4548 53.216 68.4258 53.229 68.4008 53.248L64.9454 55.9423C64.92 55.9623 64.8999 55.9881 64.8865 56.0175C64.8732 56.0469 64.8671 56.079 64.8688 56.1113C64.9297 57.2189 64.8531 58.4729 63.9823 59.2358C63.8487 59.3542 63.8708 59.4059 64.0484 59.3908C64.8479 59.3246 66.1419 59.6015 66.5251 60.4288C66.618 60.6308 66.6481 60.9339 66.6156 61.3379C66.503 62.6953 66.4455 64.0352 66.4432 65.3577C66.442 65.598 66.3886 65.8703 66.283 66.1745C65.9323 67.1812 65.2101 67.5272 64.1164 67.2125C64.0757 67.2006 64.0393 67.1774 64.0112 67.1457C63.9832 67.114 63.9647 67.0749 63.9579 67.0331C63.8139 66.1298 63.6786 65.2689 63.5521 64.4503C63.4075 63.5063 63.0888 62.5519 62.7561 61.6741C62.6807 61.4721 62.5251 61.2967 62.2894 61.1481C62.2418 61.1168 62.1982 61.122 62.1587 61.1638L58.7294 64.8178C58.6818 64.87 58.6888 64.9136 58.7503 64.9484L58.9628 65.0668C58.989 65.0818 59.009 65.1057 59.0192 65.1341C59.0294 65.1625 59.0292 65.1936 59.0186 65.2218C58.8502 65.6549 58.7637 66.1159 58.759 66.6047C58.7503 67.2561 58.1146 67.6828 57.5294 67.7524C56.6046 67.8604 54.283 67.9667 53.6281 67.122C53.5904 67.0728 53.5652 67.0153 53.5548 66.9541C53.5444 66.893 53.5491 66.8303 53.5685 66.7713C53.5879 66.7123 53.6213 66.6588 53.666 66.6155C53.7107 66.5723 53.7653 66.5404 53.8249 66.5228C54.4601 66.3394 54.9849 66.0387 55.3994 65.6207C55.9323 65.0808 56.1953 64.2848 56.5785 63.63C56.6017 63.5916 56.6337 63.5812 56.6743 63.5986L57.3257 63.8808C57.4011 63.9133 57.454 63.8912 57.4842 63.8146L59.4069 58.8352C59.4278 58.7795 59.4156 58.7324 59.3704 58.6941C57.3291 56.9403 55.3088 53.9464 56.5506 51.1754C56.7585 50.7145 57.0969 50.1624 57.566 49.5191C58.5797 48.1293 59.5788 46.9397 60.5634 45.9505C61.2902 45.219 62.0426 44.6924 62.8206 44.3708C63.1004 44.2547 63.3239 44.102 63.4911 43.9127C63.8476 43.5098 64.2104 43.0988 64.5796 42.6796C64.638 42.6133 64.6702 42.5285 64.6702 42.441C64.6615 41.039 64.7852 39.6126 64.4821 38.2402C64.15 36.7412 63.8423 35.2747 63.559 33.8408C63.553 33.8107 63.5405 33.7823 63.5225 33.7577C63.5044 33.733 63.4812 33.7126 63.4545 33.6979C62.8519 33.3682 62.2458 33.0408 61.6362 32.7157C61.3959 32.5868 61.1254 32.5078 60.8246 32.4788C59.447 32.3429 58.0328 31.7003 57.4807 30.408C57.454 30.3464 57.4087 30.3075 57.3448 30.2913C55.9132 29.9203 54.3631 29.2027 53.4662 27.9575C53.3292 27.767 53.1271 27.5882 52.8601 27.421C52.2662 27.0466 51.6287 27.4454 51.0609 26.848C51.0165 26.8012 50.9606 26.767 50.899 26.7488C50.2012 26.5305 49.728 26.0498 49.4795 25.3067C49.4687 25.2748 49.4504 25.2458 49.4262 25.2222C49.402 25.1986 49.3726 25.181 49.3402 25.1708L26.5629 18.0144C26.4897 17.9912 26.434 18.0121 26.3957 18.0771C25.6607 19.284 24.135 19.554 23.1214 18.5508C21.9963 17.4379 22.4683 15.6074 23.98 15.1058C25.49 14.6025 26.859 15.9801 26.6134 17.4536C26.6018 17.5279 26.632 17.5766 26.704 17.5999L49.483 24.8869C49.5073 24.8946 49.5334 24.8949 49.5579 24.8878C49.5824 24.8807 49.6042 24.8664 49.6206 24.8469C50.117 24.2443 50.8502 23.5737 51.6305 23.3996C52.2017 23.2707 52.456 23.7305 52.8653 23.8681C53.6403 24.1293 54.5791 24.3784 55.1904 24.9061C55.6067 25.2666 56.1187 25.8013 56.6813 25.8779C58.7643 26.1601 60.7741 26.4875 62.831 26.9177C63.4476 27.0477 64.0519 27.226 64.6441 27.4524C65.2432 27.6823 65.8865 27.875 66.5738 28.0306C66.6899 28.0562 66.7074 28.026 66.6261 27.94ZM51.1968 25.6655L51.4424 25.5017C51.5051 25.4599 51.5115 25.4106 51.4615 25.3537C51.2699 25.1342 51.3036 24.934 51.5625 24.7528C51.6357 24.7017 51.6519 24.6361 51.6113 24.556L51.573 24.4811C51.5393 24.4161 51.5474 24.3569 51.5974 24.3035L51.9353 23.9342C51.9829 23.882 51.9718 23.8489 51.9022 23.835C51.0209 23.6608 50.2859 24.4707 49.8261 25.1917C49.7901 25.2486 49.782 25.3096 49.8017 25.3746C49.9968 25.9958 50.4641 26.3853 51.2038 26.5432C51.2885 26.5618 51.2996 26.5403 51.2369 26.4788C51.1742 26.4184 51.166 26.3522 51.2125 26.2803C51.2601 26.2083 51.2589 26.1363 51.209 26.0643C51.166 26.0028 51.1358 25.9348 51.1184 25.8605C51.0998 25.7781 51.126 25.7131 51.1968 25.6655ZM61.7338 55.5121C61.7444 55.5251 61.7582 55.5352 61.7739 55.5411C61.7896 55.5471 61.8066 55.5489 61.8232 55.5463C61.8398 55.5436 61.8554 55.5366 61.8684 55.5261C61.8814 55.5155 61.8915 55.5017 61.8975 55.486L62.2894 54.4602C62.2978 54.4377 62.2975 54.4128 62.2884 54.3906C62.2794 54.3683 62.2623 54.3503 62.2406 54.34L61.3855 53.9516C61.371 53.9452 61.3551 53.9425 61.3393 53.9437C61.3235 53.9449 61.3082 53.95 61.2949 53.9586L60.8421 54.2494C60.8307 54.2567 60.821 54.2663 60.8136 54.2776C60.8062 54.2889 60.8013 54.3016 60.7992 54.3149C60.797 54.3282 60.7977 54.3418 60.8012 54.3549C60.8047 54.3679 60.8109 54.38 60.8194 54.3905L61.7338 55.5121Z" fill="black"/>
<path d="M0.952 104V94.116H3.15V104H0.952ZM7.07 104V94.116H9.282V104H7.07ZM2.268 99.87V97.966H7.798V99.87H2.268ZM13.8246 104.14C13.1992 104.14 12.6392 103.986 12.1446 103.678C11.6592 103.37 11.2719 102.95 10.9826 102.418C10.7026 101.886 10.5626 101.279 10.5626 100.598C10.5626 99.9167 10.7026 99.31 10.9826 98.778C11.2719 98.246 11.6592 97.826 12.1446 97.518C12.6392 97.21 13.1992 97.056 13.8246 97.056C14.2819 97.056 14.6926 97.1447 15.0566 97.322C15.4299 97.4993 15.7332 97.7467 15.9666 98.064C16.1999 98.372 16.3306 98.7267 16.3586 99.128V102.068C16.3306 102.469 16.1999 102.829 15.9666 103.146C15.7426 103.454 15.4439 103.697 15.0706 103.874C14.6972 104.051 14.2819 104.14 13.8246 104.14ZM14.2586 102.208C14.7159 102.208 15.0846 102.059 15.3646 101.76C15.6446 101.452 15.7846 101.065 15.7846 100.598C15.7846 100.281 15.7192 100.001 15.5886 99.758C15.4672 99.5153 15.2899 99.3287 15.0566 99.198C14.8326 99.058 14.5712 98.988 14.2726 98.988C13.9739 98.988 13.7079 99.058 13.4746 99.198C13.2506 99.3287 13.0686 99.5153 12.9286 99.758C12.7979 100.001 12.7326 100.281 12.7326 100.598C12.7326 100.906 12.7979 101.181 12.9286 101.424C13.0592 101.667 13.2412 101.858 13.4746 101.998C13.7079 102.138 13.9692 102.208 14.2586 102.208ZM15.7006 104V102.166L16.0226 100.514L15.7006 98.862V97.196H17.8006V104H15.7006ZM19.3087 104V97.196H21.4507V104H19.3087ZM23.6627 104V100.024C23.6627 99.6787 23.5554 99.4127 23.3407 99.226C23.1354 99.03 22.8787 98.932 22.5707 98.932C22.3561 98.932 22.1647 98.9787 21.9967 99.072C21.8287 99.156 21.6934 99.2773 21.5907 99.436C21.4974 99.5947 21.4507 99.7907 21.4507 100.024L20.6247 99.66C20.6247 99.1187 20.7414 98.6567 20.9747 98.274C21.2081 97.882 21.5254 97.5833 21.9267 97.378C22.3281 97.1633 22.7807 97.056 23.2847 97.056C23.7607 97.056 24.1854 97.1633 24.5587 97.378C24.9414 97.5927 25.2447 97.8913 25.4687 98.274C25.6927 98.6567 25.8047 99.114 25.8047 99.646V104H23.6627ZM28.0167 104V100.024C28.0167 99.6787 27.9094 99.4127 27.6947 99.226C27.4894 99.03 27.2327 98.932 26.9247 98.932C26.7101 98.932 26.5187 98.9787 26.3507 99.072C26.1827 99.156 26.0474 99.2773 25.9447 99.436C25.8514 99.5947 25.8047 99.7907 25.8047 100.024L24.5727 99.856C24.5914 99.2773 24.7267 98.7827 24.9787 98.372C25.2401 97.952 25.5807 97.63 26.0007 97.406C26.4301 97.1727 26.9107 97.056 27.4427 97.056C27.9654 97.056 28.4274 97.168 28.8287 97.392C29.2394 97.6067 29.5614 97.9193 29.7947 98.33C30.0374 98.7313 30.1587 99.2167 30.1587 99.786V104H28.0167ZM31.5314 104V97.196H33.6734V104H31.5314ZM35.8854 104V100.024C35.8854 99.6787 35.7781 99.4127 35.5634 99.226C35.3581 99.03 35.1014 98.932 34.7934 98.932C34.5787 98.932 34.3874 98.9787 34.2194 99.072C34.0514 99.156 33.9161 99.2773 33.8134 99.436C33.7201 99.5947 33.6734 99.7907 33.6734 100.024L32.8474 99.66C32.8474 99.1187 32.9641 98.6567 33.1974 98.274C33.4307 97.882 33.7481 97.5833 34.1494 97.378C34.5507 97.1633 35.0034 97.056 35.5074 97.056C35.9834 97.056 36.4081 97.1633 36.7814 97.378C37.1641 97.5927 37.4674 97.8913 37.6914 98.274C37.9154 98.6567 38.0274 99.114 38.0274 99.646V104H35.8854ZM40.2394 104V100.024C40.2394 99.6787 40.1321 99.4127 39.9174 99.226C39.7121 99.03 39.4554 98.932 39.1474 98.932C38.9327 98.932 38.7414 98.9787 38.5734 99.072C38.4054 99.156 38.2701 99.2773 38.1674 99.436C38.0741 99.5947 38.0274 99.7907 38.0274 100.024L36.7954 99.856C36.8141 99.2773 36.9494 98.7827 37.2014 98.372C37.4627 97.952 37.8034 97.63 38.2234 97.406C38.6527 97.1727 39.1334 97.056 39.6654 97.056C40.1881 97.056 40.6501 97.168 41.0514 97.392C41.4621 97.6067 41.7841 97.9193 42.0174 98.33C42.2601 98.7313 42.3814 99.2167 42.3814 99.786V104H40.2394ZM47.114 104.154C46.3767 104.154 45.7187 104.005 45.14 103.706C44.5707 103.398 44.1227 102.973 43.796 102.432C43.4694 101.891 43.306 101.279 43.306 100.598C43.306 99.9167 43.4647 99.31 43.782 98.778C44.1087 98.2367 44.5474 97.812 45.098 97.504C45.6487 97.196 46.2694 97.042 46.96 97.042C47.632 97.042 48.2247 97.1867 48.738 97.476C49.2514 97.7653 49.6527 98.1667 49.942 98.68C50.2407 99.1933 50.39 99.7813 50.39 100.444C50.39 100.565 50.3807 100.696 50.362 100.836C50.3527 100.967 50.3294 101.121 50.292 101.298L44.426 101.312V99.842L49.382 99.828L48.458 100.444C48.4487 100.052 48.388 99.73 48.276 99.478C48.164 99.2167 47.996 99.0207 47.772 98.89C47.5574 98.75 47.2914 98.68 46.974 98.68C46.638 98.68 46.344 98.7593 46.092 98.918C45.8494 99.0673 45.658 99.282 45.518 99.562C45.3874 99.842 45.322 100.183 45.322 100.584C45.322 100.985 45.392 101.331 45.532 101.62C45.6814 101.9 45.8867 102.119 46.148 102.278C46.4187 102.427 46.736 102.502 47.1 102.502C47.436 102.502 47.7394 102.446 48.01 102.334C48.2807 102.213 48.5187 102.035 48.724 101.802L49.9 102.978C49.564 103.37 49.158 103.664 48.682 103.86C48.206 104.056 47.6834 104.154 47.114 104.154ZM51.424 104V97.196H53.566V104H51.424ZM53.566 100.262L52.67 99.562C52.8473 98.7687 53.146 98.1527 53.566 97.714C53.986 97.2753 54.5693 97.056 55.316 97.056C55.6426 97.056 55.9273 97.1073 56.17 97.21C56.422 97.3033 56.6413 97.4527 56.828 97.658L55.554 99.268C55.4606 99.1653 55.344 99.086 55.204 99.03C55.064 98.974 54.9053 98.946 54.728 98.946C54.3733 98.946 54.0886 99.058 53.874 99.282C53.6686 99.4967 53.566 99.8233 53.566 100.262ZM62.7099 104V94.256H64.9079V104H62.7099ZM59.6159 96.034V94.116H68.0019V96.034H59.6159ZM73.5273 104V100.122C73.5273 99.7673 73.4153 99.4827 73.1913 99.268C72.9767 99.044 72.7013 98.932 72.3653 98.932C72.132 98.932 71.9267 98.9833 71.7493 99.086C71.572 99.1793 71.432 99.3193 71.3293 99.506C71.2267 99.6833 71.1753 99.8887 71.1753 100.122L70.3493 99.716C70.3493 99.184 70.4613 98.7173 70.6853 98.316C70.9093 97.9147 71.222 97.6067 71.6233 97.392C72.0247 97.168 72.4867 97.056 73.0093 97.056C73.5413 97.056 74.008 97.168 74.4093 97.392C74.8107 97.6067 75.1187 97.91 75.3333 98.302C75.5573 98.6847 75.6693 99.1327 75.6693 99.646V104H73.5273ZM69.0333 104V93.836H71.1753V104H69.0333ZM77.0451 104V97.196H79.1871V104H77.0451ZM79.1871 100.262L78.2911 99.562C78.4684 98.7687 78.7671 98.1527 79.1871 97.714C79.6071 97.2753 80.1904 97.056 80.9371 97.056C81.2637 97.056 81.5484 97.1073 81.7911 97.21C82.0431 97.3033 82.2624 97.4527 82.4491 97.658L81.1751 99.268C81.0817 99.1653 80.9651 99.086 80.8251 99.03C80.6851 98.974 80.5264 98.946 80.3491 98.946C79.9944 98.946 79.7097 99.058 79.4951 99.282C79.2897 99.4967 79.1871 99.8233 79.1871 100.262ZM86.1043 104.154C85.4043 104.154 84.7696 104 84.2003 103.692C83.6403 103.375 83.1969 102.945 82.8703 102.404C82.5436 101.863 82.3803 101.256 82.3803 100.584C82.3803 99.912 82.5436 99.31 82.8703 98.778C83.1969 98.246 83.6403 97.826 84.2003 97.518C84.7603 97.2007 85.3949 97.042 86.1043 97.042C86.8136 97.042 87.4483 97.196 88.0083 97.504C88.5683 97.812 89.0116 98.2367 89.3383 98.778C89.6649 99.31 89.8283 99.912 89.8283 100.584C89.8283 101.256 89.6649 101.863 89.3383 102.404C89.0116 102.945 88.5683 103.375 88.0083 103.692C87.4483 104 86.8136 104.154 86.1043 104.154ZM86.1043 102.208C86.4123 102.208 86.6829 102.143 86.9163 102.012C87.1496 101.872 87.3269 101.681 87.4483 101.438C87.5789 101.186 87.6443 100.901 87.6443 100.584C87.6443 100.267 87.5789 99.9913 87.4483 99.758C87.3176 99.5153 87.1356 99.3287 86.9023 99.198C86.6783 99.058 86.4123 98.988 86.1043 98.988C85.8056 98.988 85.5396 99.058 85.3063 99.198C85.0729 99.3287 84.8909 99.5153 84.7603 99.758C84.6296 100.001 84.5643 100.281 84.5643 100.598C84.5643 100.906 84.6296 101.186 84.7603 101.438C84.8909 101.681 85.0729 101.872 85.3063 102.012C85.5396 102.143 85.8056 102.208 86.1043 102.208ZM92.424 104L90.072 97.196H92.172L93.628 102.138L93.012 102.152L94.622 97.196H96.358L97.982 102.152L97.352 102.138L98.822 97.196H100.922L98.57 104H96.82L95.238 99.296H95.77L94.16 104H92.424Z" fill="white"/>
</svg>
