<svg width="91" height="108" viewBox="0 0 91 108" fill="none" xmlns="http://www.w3.org/2000/svg">
<circle cx="45.5" cy="41" r="41" fill="#F1F1F0"/>
<path d="M33.4155 30.8888L33.3309 30.6473C33.3114 30.5932 33.3106 30.5341 33.3284 30.4793C33.3462 30.4244 33.3817 30.3769 33.4294 30.3442C34.0325 29.9278 34.5853 29.4216 35.0879 28.8257C35.3125 28.5595 35.6095 28.498 35.9356 28.5426C35.9637 28.5464 35.9922 28.5435 36.0187 28.5341C36.0452 28.5248 36.0689 28.5092 36.0879 28.4887C36.5695 27.978 37.1434 27.6056 37.6588 27.1256C44.3739 20.8803 48.6489 16.9386 50.4838 15.3006C52.9937 13.0605 55.5804 10.7507 58.2441 8.37109C58.439 8.19673 58.659 8.07416 58.9042 8.00339C58.9176 7.99943 58.9318 7.999 58.9455 8.00213C58.9591 8.00527 58.9717 8.01188 58.9821 8.02131C58.9925 8.03074 59.0002 8.04268 59.0046 8.05598C59.009 8.06928 59.0099 8.08349 59.0072 8.09724C58.9621 8.31263 58.8498 8.507 58.6703 8.68034C57.1605 10.1368 55.7594 11.4666 54.4671 12.6697C49.1079 17.6566 43.62 22.7721 38.0034 28.0164C37.6665 28.3318 37.5218 28.7195 37.1372 28.9749C37.0562 29.0293 37.0613 29.0734 37.1526 29.1072C37.2993 29.1626 37.45 29.1719 37.6049 29.1349C38.2311 28.9857 38.948 28.9703 39.5004 28.8165C39.9204 28.698 40.3435 28.5288 40.7789 28.518C41.5184 28.4995 42.3056 28.4395 43.1405 28.338C43.2098 28.3298 43.28 28.3335 43.3482 28.3487L44.8452 28.6841C44.8965 28.6954 44.9457 28.6908 44.9929 28.6703C46.236 28.1287 47.5212 27.9318 48.8484 28.0795C48.9208 28.0875 48.9936 28.0689 49.053 28.0272C49.5587 27.6815 50.1269 27.4461 50.7577 27.321C50.8295 27.3067 50.85 27.2667 50.8192 27.201C50.5715 26.6764 50.4054 25.9471 50.5654 25.4009C50.8751 24.3496 51.4931 23.586 52.4193 23.1101C52.7916 22.9178 53.1732 22.9701 53.5393 22.7778C53.6211 22.7353 53.7121 22.7139 53.804 22.7155C53.8959 22.7171 53.9858 22.7417 54.0655 22.787C54.3435 22.945 54.6358 23.0742 54.9425 23.1747C55.1138 23.2311 55.2045 23.348 55.2148 23.5255C55.2179 23.5819 55.2394 23.6301 55.2794 23.6701C55.4312 23.8229 55.6086 23.926 55.8117 23.9794C56.2933 24.104 56.5702 24.9071 56.7718 25.3179C56.8015 25.3804 56.8502 25.4184 56.9179 25.4317C57.281 25.504 57.6826 25.4548 57.6918 25.964C57.6923 25.9893 57.6876 26.0145 57.6781 26.038C57.6686 26.0616 57.6544 26.083 57.6364 26.101L57.4887 26.2471C57.4579 26.2779 57.4379 26.3138 57.4287 26.3548C57.3072 26.9056 57.2456 27.5041 56.7071 27.8287C56.4815 27.9662 56.2743 28.1175 56.0856 28.2826C56.0497 28.3144 56.0328 28.3544 56.0348 28.4026C56.044 28.6816 56.1564 28.9041 56.3718 29.0703C58.6349 30.8258 59.2919 33.2997 60.0827 35.9752C60.1842 36.3157 60.2473 36.6532 60.2719 36.9875C60.2773 37.0627 60.305 37.1347 60.3515 37.1944C60.3981 37.2541 60.4614 37.2988 60.5334 37.3229C61.0796 37.5045 61.6304 37.6629 62.1366 37.9291C62.6156 38.1804 63.0874 38.4117 63.552 38.623C64.0166 38.8353 64.5321 38.8537 65.0121 38.9861C66.1029 39.2861 67.0968 39.6615 68.0091 38.943C68.1547 38.8281 68.3009 38.723 68.4476 38.6276C68.5009 38.5927 68.5563 38.5891 68.6137 38.6168L68.8953 38.7553C68.9558 38.785 69.0184 38.7896 69.083 38.7691C69.3999 38.6696 69.7158 38.5404 70.0307 38.3814C70.523 38.1306 71.2538 38.3537 71.4554 38.9276C71.4738 38.9809 71.4677 39.0307 71.4369 39.0768C71.399 39.1343 71.3451 39.1604 71.2754 39.1553C71.22 39.1512 71.1728 39.1312 71.1338 39.0953C70.7205 38.7086 70.3174 38.7732 69.9246 39.2891C69.9151 39.3018 69.9092 39.3168 69.9076 39.3325C69.9059 39.3482 69.9086 39.364 69.9152 39.3784C69.9218 39.3927 69.9322 39.405 69.9452 39.4139C69.9582 39.4229 69.9734 39.4281 69.9892 39.4291C70.6984 39.4707 71.1677 40.2723 70.6877 40.8738C70.6559 40.9138 70.6405 40.9595 70.6415 41.0107L70.6477 41.2261C70.6538 41.4569 70.5748 41.4918 70.4107 41.3308C70.0876 41.0138 69.6507 40.8984 69.2184 41.0507C68.5214 41.2954 67.8645 41.3938 67.166 41.0815C66.4783 40.7754 65.7475 40.9492 65.0167 40.9015C64.1705 40.8471 63.291 40.8107 62.3781 40.7923C61.9884 40.7841 61.614 40.721 61.255 40.603C60.3904 40.3189 59.5042 40.0281 58.5965 39.7307C58.4211 39.6733 58.2857 39.5661 58.1903 39.4091C58.1845 39.3993 58.1764 39.3911 58.1667 39.3851C58.157 39.3792 58.1459 39.3757 58.1345 39.3749C58.123 39.3742 58.1115 39.3762 58.1008 39.3808C58.0902 39.3854 58.0808 39.3925 58.0734 39.4015C57.3364 40.32 56.5918 41.6154 56.4025 42.8154C56.3697 43.0206 56.4425 43.1872 56.621 43.3154C57.6487 44.0524 58.6565 44.4463 59.6549 45.334C60.7104 46.2725 61.636 47.0546 62.432 47.6802C62.712 47.9007 62.9592 48.1407 63.1735 48.4002C63.4064 48.6813 63.71 48.93 64.0843 49.1464C64.7597 49.5372 65.109 50.6065 65.4413 51.3373C65.747 52.0122 66.1377 52.6609 66.6137 53.2835C67.5983 54.5728 68.5809 55.8887 69.5615 57.2313C70.142 58.0283 70.9184 58.7878 71.8908 59.5099C71.9121 59.5252 71.9375 59.5337 71.9636 59.5342C71.9898 59.5348 72.0153 59.5274 72.0369 59.513L72.2308 59.3837C72.2749 59.355 72.3175 59.3571 72.3585 59.3899C72.539 59.5314 72.7062 59.6919 72.86 59.8714C73.0631 60.1068 73.3078 60.1299 73.5262 60.3315C73.8832 60.6638 74.377 60.6992 74.7401 61.0315C75.3719 61.61 76.1766 62.07 77.154 62.4115C77.3182 62.469 77.4238 62.6095 77.471 62.8331C77.5879 63.3962 77.3515 63.6813 76.7617 63.6885C75.2694 63.708 73.7903 63.7721 72.3246 63.8808C71.1431 63.9685 70.3461 63.827 69.4061 63.1654C69.3595 63.1323 69.324 63.0861 69.3043 63.0328C69.2845 62.9795 69.2814 62.9217 69.2953 62.8669C69.4199 62.3684 69.6661 61.69 70.1507 61.4592C70.1703 61.45 70.1875 61.4364 70.2009 61.4194C70.2143 61.4024 70.2236 61.3826 70.2281 61.3614C70.2326 61.3403 70.2321 61.3183 70.2267 61.2974C70.2213 61.2765 70.2111 61.257 70.1969 61.2407C69.8728 60.8735 69.5271 60.5161 69.1599 60.1684C67.8029 58.8863 66.4716 57.759 65.1659 56.7867C64.1843 56.0559 63.432 55.2343 62.9289 54.1481C62.3412 52.8743 61.6304 51.7081 60.2827 51.2388C59.058 50.8111 57.8072 50.3403 56.5302 49.8264C55.6225 49.4603 54.7902 48.9464 53.9255 48.5279C53.6681 48.4038 53.3998 48.2977 53.1209 48.2095C53.0675 48.192 53.0239 48.2059 52.9901 48.251C51.3429 50.4131 49.5577 52.5071 47.6345 54.5328C47.3776 54.8036 47.1314 55.0174 46.8068 55.202C46.4129 55.4246 46.0355 55.6887 45.6744 55.9944C45.3626 56.258 44.9508 56.4236 44.439 56.4913C43.359 56.6359 42.4436 56.7559 41.3727 57.1713C40.3625 57.5621 39.4065 57.9267 38.505 58.2652C36.6003 58.9791 35.5664 59.3345 34.4002 60.5576C34.1838 60.7843 33.9366 60.9858 33.6586 61.1623C33.6114 61.192 33.5935 61.234 33.6048 61.2884L33.6679 61.6084C33.6815 61.6796 33.6674 61.7533 33.6285 61.8145C33.5896 61.8757 33.5289 61.9197 33.4586 61.9377C33.0678 62.0377 32.6555 62.1207 32.3216 62.3654C32.0663 62.552 31.7991 62.7254 31.5201 62.8854C31.2955 63.0131 31.0493 62.9531 30.8385 63.1023C30.4647 63.3685 30.1123 63.6885 29.6785 63.8439C29.1523 64.0347 28.6846 64.3808 28.1476 64.487C27.7815 64.5608 26.9045 64.6839 26.7691 64.1547C26.383 62.6408 27.5584 61.1392 28.7892 60.3791C29.4046 59.9976 29.9277 59.8714 30.3723 59.1776C30.7293 58.6237 31.3278 58.0252 31.9986 57.9452C32.454 57.8898 32.9801 58.1468 33.4125 58.2837C33.4587 58.2985 33.509 58.2946 33.5525 58.2729C34.9925 57.5406 36.1864 56.4867 37.4895 55.559C37.8372 55.3108 38.2014 55.0215 38.5819 54.6912C39.5973 53.8112 40.9866 53.4435 42.2851 53.0373C43.2267 52.7435 43.8898 52.2958 44.3175 51.3727C44.5534 50.8639 44.7842 50.3793 45.0098 49.9188C45.5185 48.8756 46.1781 47.8438 46.9883 46.8233C47.8653 45.7201 47.5314 44.1939 47.8653 42.9308C48.1576 41.819 48.8222 40.8964 49.8592 40.163C51.1023 39.283 52.5101 38.3491 52.3008 36.5614C52.2085 35.7665 52.0793 35.0398 51.9131 34.3813C51.7224 33.6274 51.0531 32.9412 50.5438 32.3581C50.5057 32.3159 50.4566 32.2855 50.4023 32.2704C50.0679 32.1812 49.7382 32.0638 49.413 31.9181C49.1905 31.8186 48.9551 31.7668 48.7069 31.7627C48.2566 31.7566 47.8089 31.7273 47.3637 31.675C46.8822 31.6181 46.4575 31.7258 45.9929 31.4935C45.4683 31.2319 44.8836 31.0165 44.3021 31.2442C43.8528 31.4196 43.4267 31.5699 43.0236 31.695C42.679 31.8027 42.3097 31.6889 41.9866 31.5566C40.7394 31.0447 39.5399 30.7524 38.388 30.6796C37.8172 30.6427 37.1864 30.6919 36.688 30.9981C36.4008 31.1755 36.1151 31.3468 35.831 31.5119C35.3633 31.7843 34.8294 31.7689 34.3371 32.0335C34.2694 32.0694 34.1971 32.0802 34.1202 32.0658L33.8909 32.0196C33.8222 32.0063 33.7617 32.0243 33.7094 32.0735C29.8621 35.7064 26.045 39.3102 22.2582 42.8847C20.7751 44.2847 19.1658 45.7155 17.6488 47.1479C14.6908 49.9449 11.7045 52.7522 8.69002 55.5697C8.65104 55.6067 8.61309 55.6056 8.57617 55.5667L8.54232 55.5297C8.48488 55.4682 8.48591 55.4077 8.5454 55.3482C13.0676 50.8321 16.7647 47.1633 19.6366 44.3416C23.2439 40.7979 27.7025 36.5219 33.0124 31.5135C33.0617 31.4673 33.0781 31.4119 33.0617 31.3473L32.9863 31.0504C32.9719 30.9909 32.9899 30.9447 33.0401 30.9119C33.1407 30.8473 33.2417 30.856 33.3432 30.9381C33.4273 31.0068 33.4514 30.9904 33.4155 30.8888Z" fill="#010101"/>
<path d="M3.01 105.154C2.38467 105.154 1.83867 105.042 1.372 104.818C0.914667 104.585 0.522667 104.263 0.196 103.852L1.666 102.438C1.834 102.671 2.03 102.849 2.254 102.97C2.48733 103.091 2.74867 103.152 3.038 103.152C3.318 103.152 3.56067 103.096 3.766 102.984C3.97133 102.863 4.13467 102.695 4.256 102.48C4.37733 102.256 4.438 101.981 4.438 101.654V95.116H6.65V101.528C6.65 102.265 6.50067 102.905 6.202 103.446C5.90333 103.987 5.48333 104.407 4.942 104.706C4.40067 105.005 3.75667 105.154 3.01 105.154ZM11.0492 105.14C10.4238 105.14 9.86384 104.986 9.36917 104.678C8.88384 104.37 8.49651 103.95 8.20717 103.418C7.92717 102.886 7.78717 102.279 7.78717 101.598C7.78717 100.917 7.92717 100.31 8.20717 99.778C8.49651 99.246 8.88384 98.826 9.36917 98.518C9.86384 98.21 10.4238 98.056 11.0492 98.056C11.5065 98.056 11.9172 98.1447 12.2812 98.322C12.6545 98.4993 12.9578 98.7467 13.1912 99.064C13.4245 99.372 13.5552 99.7267 13.5832 100.128V103.068C13.5552 103.469 13.4245 103.829 13.1912 104.146C12.9672 104.454 12.6685 104.697 12.2952 104.874C11.9218 105.051 11.5065 105.14 11.0492 105.14ZM11.4832 103.208C11.9405 103.208 12.3092 103.059 12.5892 102.76C12.8692 102.452 13.0092 102.065 13.0092 101.598C13.0092 101.281 12.9438 101.001 12.8132 100.758C12.6918 100.515 12.5145 100.329 12.2812 100.198C12.0572 100.058 11.7958 99.988 11.4972 99.988C11.1985 99.988 10.9325 100.058 10.6992 100.198C10.4752 100.329 10.2932 100.515 10.1532 100.758C10.0225 101.001 9.95717 101.281 9.95717 101.598C9.95717 101.906 10.0225 102.181 10.1532 102.424C10.2838 102.667 10.4658 102.858 10.6992 102.998C10.9325 103.138 11.1938 103.208 11.4832 103.208ZM12.9252 105V103.166L13.2472 101.514L12.9252 99.862V98.196H15.0252V105H12.9252ZM18.6753 105L15.7913 98.196H18.1013L20.0613 103.866H19.0533L21.0133 98.196H23.2813L20.3973 104.986L18.6753 105ZM27.2215 105.154C26.4841 105.154 25.8261 105.005 25.2475 104.706C24.6781 104.398 24.2301 103.973 23.9035 103.432C23.5768 102.891 23.4135 102.279 23.4135 101.598C23.4135 100.917 23.5721 100.31 23.8895 99.778C24.2161 99.2367 24.6548 98.812 25.2055 98.504C25.7561 98.196 26.3768 98.042 27.0675 98.042C27.7395 98.042 28.3321 98.1867 28.8455 98.476C29.3588 98.7653 29.7601 99.1667 30.0495 99.68C30.3481 100.193 30.4975 100.781 30.4975 101.444C30.4975 101.565 30.4881 101.696 30.4695 101.836C30.4601 101.967 30.4368 102.121 30.3995 102.298L24.5335 102.312V100.842L29.4895 100.828L28.5655 101.444C28.5561 101.052 28.4955 100.73 28.3835 100.478C28.2715 100.217 28.1035 100.021 27.8795 99.89C27.6648 99.75 27.3988 99.68 27.0815 99.68C26.7455 99.68 26.4515 99.7593 26.1995 99.918C25.9568 100.067 25.7655 100.282 25.6255 100.562C25.4948 100.842 25.4295 101.183 25.4295 101.584C25.4295 101.985 25.4995 102.331 25.6395 102.62C25.7888 102.9 25.9941 103.119 26.2555 103.278C26.5261 103.427 26.8435 103.502 27.2075 103.502C27.5435 103.502 27.8468 103.446 28.1175 103.334C28.3881 103.213 28.6261 103.035 28.8315 102.802L30.0075 103.978C29.6715 104.37 29.2655 104.664 28.7895 104.86C28.3135 105.056 27.7908 105.154 27.2215 105.154ZM31.5314 105V94.836H33.6734V105H31.5314ZM35.1818 105V98.196H37.3238V105H35.1818ZM36.2598 97.258C35.9238 97.258 35.6438 97.146 35.4198 96.922C35.2051 96.6887 35.0978 96.4087 35.0978 96.082C35.0978 95.746 35.2051 95.466 35.4198 95.242C35.6438 95.018 35.9238 94.906 36.2598 94.906C36.5958 94.906 36.8711 95.018 37.0858 95.242C37.3004 95.466 37.4078 95.746 37.4078 96.082C37.4078 96.4087 37.3004 96.6887 37.0858 96.922C36.8711 97.146 36.5958 97.258 36.2598 97.258ZM43.3262 105V101.122C43.3262 100.767 43.2142 100.483 42.9902 100.268C42.7755 100.044 42.5002 99.932 42.1642 99.932C41.9308 99.932 41.7255 99.9833 41.5482 100.086C41.3708 100.179 41.2308 100.319 41.1282 100.506C41.0255 100.683 40.9742 100.889 40.9742 101.122L40.1482 100.716C40.1482 100.184 40.2648 99.7173 40.4982 99.316C40.7315 98.9147 41.0535 98.6067 41.4642 98.392C41.8842 98.168 42.3555 98.056 42.8782 98.056C43.3822 98.056 43.8255 98.1773 44.2082 98.42C44.6002 98.6533 44.9082 98.966 45.1322 99.358C45.3562 99.75 45.4682 100.179 45.4682 100.646V105H43.3262ZM38.8322 105V98.196H40.9742V105H38.8322ZM51.9092 105V95.256H54.1072V105H51.9092ZM48.8152 97.034V95.116H57.2012V97.034H48.8152ZM62.7266 105V101.122C62.7266 100.767 62.6146 100.483 62.3906 100.268C62.1759 100.044 61.9006 99.932 61.5646 99.932C61.3312 99.932 61.1259 99.9833 60.9486 100.086C60.7712 100.179 60.6312 100.319 60.5286 100.506C60.4259 100.683 60.3746 100.889 60.3746 101.122L59.5486 100.716C59.5486 100.184 59.6606 99.7173 59.8846 99.316C60.1086 98.9147 60.4212 98.6067 60.8226 98.392C61.2239 98.168 61.6859 98.056 62.2086 98.056C62.7406 98.056 63.2072 98.168 63.6086 98.392C64.0099 98.6067 64.3179 98.91 64.5326 99.302C64.7566 99.6847 64.8686 100.133 64.8686 100.646V105H62.7266ZM58.2326 105V94.836H60.3746V105H58.2326ZM66.2443 105V98.196H68.3863V105H66.2443ZM68.3863 101.262L67.4903 100.562C67.6676 99.7687 67.9663 99.1527 68.3863 98.714C68.8063 98.2753 69.3896 98.056 70.1363 98.056C70.4629 98.056 70.7476 98.1073 70.9903 98.21C71.2423 98.3033 71.4616 98.4527 71.6483 98.658L70.3743 100.268C70.2809 100.165 70.1643 100.086 70.0243 100.03C69.8843 99.974 69.7256 99.946 69.5483 99.946C69.1936 99.946 68.9089 100.058 68.6943 100.282C68.4889 100.497 68.3863 100.823 68.3863 101.262ZM75.3035 105.154C74.6035 105.154 73.9688 105 73.3995 104.692C72.8395 104.375 72.3962 103.945 72.0695 103.404C71.7428 102.863 71.5795 102.256 71.5795 101.584C71.5795 100.912 71.7428 100.31 72.0695 99.778C72.3962 99.246 72.8395 98.826 73.3995 98.518C73.9595 98.2007 74.5942 98.042 75.3035 98.042C76.0128 98.042 76.6475 98.196 77.2075 98.504C77.7675 98.812 78.2108 99.2367 78.5375 99.778C78.8642 100.31 79.0275 100.912 79.0275 101.584C79.0275 102.256 78.8642 102.863 78.5375 103.404C78.2108 103.945 77.7675 104.375 77.2075 104.692C76.6475 105 76.0128 105.154 75.3035 105.154ZM75.3035 103.208C75.6115 103.208 75.8822 103.143 76.1155 103.012C76.3488 102.872 76.5262 102.681 76.6475 102.438C76.7782 102.186 76.8435 101.901 76.8435 101.584C76.8435 101.267 76.7782 100.991 76.6475 100.758C76.5168 100.515 76.3348 100.329 76.1015 100.198C75.8775 100.058 75.6115 99.988 75.3035 99.988C75.0048 99.988 74.7388 100.058 74.5055 100.198C74.2722 100.329 74.0902 100.515 73.9595 100.758C73.8288 101.001 73.7635 101.281 73.7635 101.598C73.7635 101.906 73.8288 102.186 73.9595 102.438C74.0902 102.681 74.2722 102.872 74.5055 103.012C74.7388 103.143 75.0048 103.208 75.3035 103.208ZM81.6232 105L79.2712 98.196H81.3712L82.8272 103.138L82.2112 103.152L83.8212 98.196H85.5572L87.1812 103.152L86.5512 103.138L88.0212 98.196H90.1212L87.7692 105H86.0192L84.4372 100.296H84.9692L83.3592 105H81.6232Z" fill="white"/>
</svg>
