<svg width="103" height="108" viewBox="0 0 103 108" fill="none" xmlns="http://www.w3.org/2000/svg">
<circle cx="51.5" cy="41" r="41" fill="#F1F1F0"/>
<path d="M54.469 13.0357C57.4005 12.611 58.8252 16.0631 57.6608 19.7206C57.6608 19.7206 58.88 19.8987 59.5238 20.7069C60.5649 20.7069 63.7293 20.433 65.154 22.7343C65.4965 23.296 66.7841 23.8987 68.1129 24.1316C69.4554 24.3645 76.3595 27.5563 77.702 27.9124C79.0445 28.2549 80.7842 28.7207 81.4828 29.0768C82.1815 29.4193 84.9075 29.9535 84.387 30.4193C83.8664 30.885 81.1267 29.7207 80.7294 30.0083C80.3184 30.296 82.1267 31.1179 81.6609 31.4604C81.1952 31.8029 80.6746 30.9946 79.6883 30.8166C78.702 30.6385 77.7157 30.0631 77.8253 29.3097C77.8253 29.3097 74.1129 29.5974 70.7979 28.8987C67.4828 28.2001 67.3732 27.2138 66.154 27.2138C64.9348 27.2138 63.8937 27.8576 62.7293 28.1453C61.5649 28.433 59.8252 28.433 59.3047 29.8303C58.7841 31.2275 56.9211 35.8166 54.8937 37.1454C54.8937 37.1454 55.5923 38.4878 58.0855 40.5152C60.5786 42.5426 61.4006 45.8029 61.6334 46.7892C61.8663 47.7755 62.3732 49.2824 60.291 51.1454C59.7156 51.666 59.9485 52.3646 59.1814 53.4057C58.428 54.4468 51.332 60.2687 50.7019 61.4194C50.0581 62.5838 50.6471 65.7208 51.9211 66.2414C53.1951 66.7619 54.9485 66.4742 54.2499 68.3372C54.2499 68.3372 48.5512 68.4468 47.1539 68.3372C45.7567 68.2277 43.3183 67.2962 43.606 66.3646C43.8937 65.4331 44.4827 62.529 46.2224 62.3509C46.2224 62.3509 51.5649 56.1317 51.9759 54.6797C52.3868 53.2276 52.6471 50.5975 54.8252 49.5016C55.291 49.2687 55.291 48.6933 53.8937 48.0495C52.4964 47.4057 48.9485 44.1591 46.7978 41.8303C46.7978 41.8303 39.9347 46.3646 38.6608 47.0632C37.3868 47.7618 35.7566 49.6796 34.3046 50.0906C32.8525 50.5016 29.2498 53.4605 28.2087 54.9673C27.1676 56.4742 27.4552 57.3509 26.6333 58.2276C25.8251 59.1043 24.7155 60.7208 24.0717 62.0085C23.4278 63.2824 21.921 65.7893 20.4141 65.2687C18.9073 64.7482 19.5374 61.4331 20.4141 59.6386C21.2908 57.8441 24.3593 54.7619 25.1265 54.1728C25.8799 53.5975 26.0032 54.0632 26.8662 52.8303C27.7429 51.6112 29.1265 49.2276 30.0032 47.6522C30.8799 46.0769 32.332 43.8714 34.4142 43.8714C35.058 43.8714 35.6881 42.3645 36.332 41.5426C36.9758 40.7344 41.4416 35.0905 44.3457 33.4604C44.3457 33.4604 45.0443 32.4193 45.2224 31.7207C45.4005 31.022 46.4964 30.0905 47.0169 29.3371C47.5375 28.5837 47.1265 27.4741 46.9622 27.0768C46.9622 27.0768 45.4553 28.1864 44.058 28.5289C42.6608 28.8713 38.5375 28.4741 37.9621 28.7618C37.3868 29.0494 34.8799 30.5015 34.5922 30.7892C34.3046 31.0768 34.5922 31.8988 34.3046 31.9535C34.0169 32.0083 34.0717 30.9125 33.9621 30.6796C33.8525 30.4467 33.2635 30.3371 32.9758 30.3371C32.6881 30.3371 32.9758 31.3234 32.6881 31.3782C32.4005 31.433 32.2224 30.6796 32.2772 30.4467C32.332 30.2138 32.4415 29.8577 31.7429 29.9672C31.0443 30.0768 31.2224 29.2275 31.9895 29.3371C31.9895 29.3371 35.8799 26.8987 37.0443 26.8439C38.2087 26.7891 40.1265 25.8028 41.1128 25.4467C42.0991 25.1042 42.4553 25.4467 43.5512 24.8713C44.6608 24.296 45.3457 23.6522 46.0443 22.0768C46.743 20.5015 49.4142 20.3371 50.7567 20.2138C52.0992 20.1042 52.1266 19.8713 51.9896 18.7069C51.8526 17.5699 50.4005 13.611 54.469 13.0357Z" fill="#1D1D1B"/>
<path d="M34.8939 31.5835C36.7399 31.5835 38.2364 30.406 38.2364 28.9534C38.2364 27.5008 36.7399 26.3233 34.8939 26.3233C33.0479 26.3233 31.5514 27.5008 31.5514 28.9534C31.5514 30.406 33.0479 31.5835 34.8939 31.5835Z" fill="#1D1D1B"/>
<path d="M2.632 100.402V98.694H4.76C5.03067 98.694 5.278 98.638 5.502 98.526C5.726 98.414 5.90333 98.2507 6.034 98.036C6.16467 97.8213 6.23 97.56 6.23 97.252C6.23 96.9533 6.16467 96.6967 6.034 96.482C5.90333 96.2673 5.726 96.104 5.502 95.992C5.278 95.88 5.03067 95.824 4.76 95.824H2.632V94.116H5.082C5.70733 94.116 6.272 94.242 6.776 94.494C7.28 94.746 7.67667 95.11 7.966 95.586C8.26467 96.0527 8.414 96.608 8.414 97.252C8.414 97.896 8.26467 98.456 7.966 98.932C7.67667 99.3987 7.28 99.7627 6.776 100.024C6.272 100.276 5.70733 100.402 5.082 100.402H2.632ZM0.952 104V94.116H3.15V104H0.952ZM12.5359 104.154C11.8359 104.154 11.2012 104 10.6319 103.692C10.0719 103.375 9.62857 102.945 9.30191 102.404C8.97524 101.863 8.81191 101.256 8.81191 100.584C8.81191 99.912 8.97524 99.31 9.30191 98.778C9.62857 98.246 10.0719 97.826 10.6319 97.518C11.1919 97.2007 11.8266 97.042 12.5359 97.042C13.2452 97.042 13.8799 97.196 14.4399 97.504C14.9999 97.812 15.4432 98.2367 15.7699 98.778C16.0966 99.31 16.2599 99.912 16.2599 100.584C16.2599 101.256 16.0966 101.863 15.7699 102.404C15.4432 102.945 14.9999 103.375 14.4399 103.692C13.8799 104 13.2452 104.154 12.5359 104.154ZM12.5359 102.208C12.8439 102.208 13.1146 102.143 13.3479 102.012C13.5812 101.872 13.7586 101.681 13.8799 101.438C14.0106 101.186 14.0759 100.901 14.0759 100.584C14.0759 100.267 14.0106 99.9913 13.8799 99.758C13.7492 99.5153 13.5672 99.3287 13.3339 99.198C13.1099 99.058 12.8439 98.988 12.5359 98.988C12.2372 98.988 11.9712 99.058 11.7379 99.198C11.5046 99.3287 11.3226 99.5153 11.1919 99.758C11.0612 100.001 10.9959 100.281 10.9959 100.598C10.9959 100.906 11.0612 101.186 11.1919 101.438C11.3226 101.681 11.5046 101.872 11.7379 102.012C11.9712 102.143 12.2372 102.208 12.5359 102.208ZM17.3263 104V93.836H19.4683V104H17.3263ZM24.3367 104.154C23.5994 104.154 22.9414 104.005 22.3627 103.706C21.7934 103.398 21.3454 102.973 21.0187 102.432C20.692 101.891 20.5287 101.279 20.5287 100.598C20.5287 99.9167 20.6874 99.31 21.0047 98.778C21.3314 98.2367 21.77 97.812 22.3207 97.504C22.8714 97.196 23.492 97.042 24.1827 97.042C24.8547 97.042 25.4474 97.1867 25.9607 97.476C26.474 97.7653 26.8754 98.1667 27.1647 98.68C27.4634 99.1933 27.6127 99.7813 27.6127 100.444C27.6127 100.565 27.6034 100.696 27.5847 100.836C27.5754 100.967 27.552 101.121 27.5147 101.298L21.6487 101.312V99.842L26.6047 99.828L25.6807 100.444C25.6714 100.052 25.6107 99.73 25.4987 99.478C25.3867 99.2167 25.2187 99.0207 24.9947 98.89C24.78 98.75 24.514 98.68 24.1967 98.68C23.8607 98.68 23.5667 98.7593 23.3147 98.918C23.072 99.0673 22.8807 99.282 22.7407 99.562C22.61 99.842 22.5447 100.183 22.5447 100.584C22.5447 100.985 22.6147 101.331 22.7547 101.62C22.904 101.9 23.1094 102.119 23.3707 102.278C23.6414 102.427 23.9587 102.502 24.3227 102.502C24.6587 102.502 24.962 102.446 25.2327 102.334C25.5034 102.213 25.7414 102.035 25.9467 101.802L27.1227 102.978C26.7867 103.37 26.3807 103.664 25.9047 103.86C25.4287 104.056 24.906 104.154 24.3367 104.154ZM34.5886 104L30.7806 94.116H33.1326L36.0306 102.11H35.0646L38.0046 94.116H40.3286L36.4786 104H34.5886ZM42.85 104.14C42.2246 104.14 41.6646 103.986 41.17 103.678C40.6846 103.37 40.2973 102.95 40.008 102.418C39.728 101.886 39.588 101.279 39.588 100.598C39.588 99.9167 39.728 99.31 40.008 98.778C40.2973 98.246 40.6846 97.826 41.17 97.518C41.6646 97.21 42.2246 97.056 42.85 97.056C43.3073 97.056 43.718 97.1447 44.082 97.322C44.4553 97.4993 44.7586 97.7467 44.992 98.064C45.2253 98.372 45.356 98.7267 45.384 99.128V102.068C45.356 102.469 45.2253 102.829 44.992 103.146C44.768 103.454 44.4693 103.697 44.096 103.874C43.7226 104.051 43.3073 104.14 42.85 104.14ZM43.284 102.208C43.7413 102.208 44.11 102.059 44.39 101.76C44.67 101.452 44.81 101.065 44.81 100.598C44.81 100.281 44.7446 100.001 44.614 99.758C44.4926 99.5153 44.3153 99.3287 44.082 99.198C43.858 99.058 43.5966 98.988 43.298 98.988C42.9993 98.988 42.7333 99.058 42.5 99.198C42.276 99.3287 42.094 99.5153 41.954 99.758C41.8233 100.001 41.758 100.281 41.758 100.598C41.758 100.906 41.8233 101.181 41.954 101.424C42.0846 101.667 42.2666 101.858 42.5 101.998C42.7333 102.138 42.9946 102.208 43.284 102.208ZM44.726 104V102.166L45.048 100.514L44.726 98.862V97.196H46.826V104H44.726ZM51.3581 104.154C50.7328 104.154 50.1775 104.028 49.6921 103.776C49.2161 103.515 48.8428 103.16 48.5721 102.712C48.3015 102.255 48.1661 101.732 48.1661 101.144V97.196H50.3081V101.116C50.3081 101.349 50.3455 101.55 50.4201 101.718C50.5041 101.886 50.6255 102.017 50.7841 102.11C50.9428 102.203 51.1341 102.25 51.3581 102.25C51.6755 102.25 51.9275 102.152 52.1141 101.956C52.3008 101.751 52.3941 101.471 52.3941 101.116V97.196H54.5361V101.13C54.5361 101.727 54.4008 102.255 54.1301 102.712C53.8595 103.16 53.4861 103.515 53.0101 103.776C52.5341 104.028 51.9835 104.154 51.3581 104.154ZM55.881 104V93.836H58.023V104H55.881ZM60.4974 104V94.382H62.6394V104H60.4974ZM58.9574 99.016V97.196H64.1794V99.016H58.9574ZM69.6467 104.154C69.0214 104.154 68.4754 104.042 68.0087 103.818C67.5514 103.585 67.1594 103.263 66.8327 102.852L68.3027 101.438C68.4707 101.671 68.6667 101.849 68.8907 101.97C69.1241 102.091 69.3854 102.152 69.6747 102.152C69.9547 102.152 70.1974 102.096 70.4027 101.984C70.6081 101.863 70.7714 101.695 70.8927 101.48C71.0141 101.256 71.0747 100.981 71.0747 100.654V94.116H73.2867V100.528C73.2867 101.265 73.1374 101.905 72.8387 102.446C72.5401 102.987 72.1201 103.407 71.5787 103.706C71.0374 104.005 70.3934 104.154 69.6467 104.154ZM77.8679 104.154C77.2426 104.154 76.6872 104.028 76.2019 103.776C75.7259 103.515 75.3526 103.16 75.0819 102.712C74.8112 102.255 74.6759 101.732 74.6759 101.144V97.196H76.8179V101.116C76.8179 101.349 76.8552 101.55 76.9299 101.718C77.0139 101.886 77.1352 102.017 77.2939 102.11C77.4526 102.203 77.6439 102.25 77.8679 102.25C78.1852 102.25 78.4372 102.152 78.6239 101.956C78.8106 101.751 78.9039 101.471 78.9039 101.116V97.196H81.0459V101.13C81.0459 101.727 80.9106 102.255 80.6399 102.712C80.3692 103.16 79.9959 103.515 79.5199 103.776C79.0439 104.028 78.4932 104.154 77.8679 104.154ZM82.3908 104V97.196H84.5328V104H82.3908ZM86.7448 104V100.024C86.7448 99.6787 86.6374 99.4127 86.4228 99.226C86.2174 99.03 85.9608 98.932 85.6528 98.932C85.4381 98.932 85.2468 98.9787 85.0788 99.072C84.9108 99.156 84.7754 99.2773 84.6728 99.436C84.5794 99.5947 84.5328 99.7907 84.5328 100.024L83.7068 99.66C83.7068 99.1187 83.8234 98.6567 84.0568 98.274C84.2901 97.882 84.6074 97.5833 85.0088 97.378C85.4101 97.1633 85.8628 97.056 86.3668 97.056C86.8428 97.056 87.2674 97.1633 87.6408 97.378C88.0234 97.5927 88.3268 97.8913 88.5508 98.274C88.7748 98.6567 88.8868 99.114 88.8868 99.646V104H86.7448ZM91.0988 104V100.024C91.0988 99.6787 90.9914 99.4127 90.7768 99.226C90.5714 99.03 90.3148 98.932 90.0068 98.932C89.7921 98.932 89.6008 98.9787 89.4328 99.072C89.2648 99.156 89.1294 99.2773 89.0268 99.436C88.9334 99.5947 88.8868 99.7907 88.8868 100.024L87.6548 99.856C87.6734 99.2773 87.8088 98.7827 88.0608 98.372C88.3221 97.952 88.6628 97.63 89.0828 97.406C89.5121 97.1727 89.9928 97.056 90.5248 97.056C91.0474 97.056 91.5094 97.168 91.9108 97.392C92.3214 97.6067 92.6434 97.9193 92.8768 98.33C93.1194 98.7313 93.2408 99.2167 93.2408 99.786V104H91.0988ZM98.5334 104.14C98.0761 104.14 97.6561 104.051 97.2734 103.874C96.8908 103.697 96.5781 103.454 96.3354 103.146C96.0928 102.829 95.9528 102.469 95.9154 102.068V99.198C95.9528 98.7967 96.0928 98.4327 96.3354 98.106C96.5781 97.7793 96.8908 97.5227 97.2734 97.336C97.6561 97.1493 98.0761 97.056 98.5334 97.056C99.1774 97.056 99.7468 97.21 100.241 97.518C100.745 97.826 101.137 98.246 101.417 98.778C101.707 99.31 101.851 99.9167 101.851 100.598C101.851 101.279 101.707 101.886 101.417 102.418C101.137 102.95 100.745 103.37 100.241 103.678C99.7468 103.986 99.1774 104.14 98.5334 104.14ZM98.1414 102.208C98.4494 102.208 98.7154 102.138 98.9394 101.998C99.1728 101.858 99.3548 101.667 99.4854 101.424C99.6161 101.181 99.6814 100.906 99.6814 100.598C99.6814 100.281 99.6161 100.001 99.4854 99.758C99.3548 99.5153 99.1728 99.3287 98.9394 99.198C98.7154 99.058 98.4541 98.988 98.1554 98.988C97.8568 98.988 97.5908 99.058 97.3574 99.198C97.1334 99.3287 96.9561 99.5153 96.8254 99.758C96.6948 100.001 96.6294 100.281 96.6294 100.598C96.6294 100.906 96.6901 101.181 96.8114 101.424C96.9421 101.667 97.1241 101.858 97.3574 101.998C97.5908 102.138 97.8521 102.208 98.1414 102.208ZM94.6134 106.87V97.196H96.7554V98.946L96.4054 100.598L96.7274 102.25V106.87H94.6134Z" fill="white"/>
</svg>
