<svg width="82" height="110" viewBox="0 0 82 110" fill="none" xmlns="http://www.w3.org/2000/svg">
<circle cx="41" cy="41" r="41" fill="#F1F1F0"/>
<path d="M15.7364 62.6088C15.2344 60.84 14.8276 59.0437 14.516 57.2199C14.3808 56.4303 14.2857 55.7951 14.2305 55.3146C14.1262 54.4116 14.1153 53.4879 14.1978 52.5434C14.2341 52.1201 14.3742 51.7668 14.5415 51.3877C14.7252 50.973 14.6779 50.2656 14.6479 49.8173C14.6455 49.7744 14.6245 49.7472 14.5851 49.7357C14.3487 49.6666 14.1617 49.5309 14.0241 49.3287C14.0059 49.3025 13.998 49.2733 14.0004 49.2414C14.0198 48.9815 14.0723 48.7297 14.1577 48.4859C14.5809 47.2777 14.894 46.0366 15.0971 44.7625C15.2202 43.9876 15.3544 43.2459 15.4999 42.5375C15.6673 41.7225 15.9382 41.0429 16.2347 40.1618C16.2365 40.1579 16.3329 39.8421 16.5238 39.2144C16.8367 38.1863 17.4014 37.1592 18.057 36.3798C18.391 35.9824 18.833 35.6794 19.3828 35.4708C20.5895 35.012 21.6789 34.3064 22.8265 33.5529C23.055 33.4026 23.3033 33.3171 23.5712 33.2966C23.6009 33.2941 23.617 33.2771 23.6194 33.2458C23.6322 33.064 23.7055 32.9079 23.8395 32.7773C24.128 32.4958 24.3772 32.2056 24.587 31.9067C24.7879 31.6216 24.8952 31.2655 25.0189 30.9363C25.1408 30.6118 25.6745 30.5149 25.9419 30.5255C26.0959 30.5312 26.1113 30.4851 25.9883 30.3872C25.7864 30.2266 25.6933 30.0189 25.7091 29.7643C25.7212 29.5819 25.747 29.4177 25.7864 29.2718C25.7973 29.2302 25.8234 29.2072 25.8646 29.2027C26.1992 29.1682 27.0304 29.0117 27.235 28.7113C27.3326 28.5692 27.3038 28.5295 27.1486 28.5922C26.8291 28.7221 26.4426 28.8408 25.9892 28.9484C25.8897 28.972 25.8173 28.9372 25.7718 28.8437C25.6991 28.693 25.4599 28.4991 25.3326 28.382C25.0562 28.1276 24.9343 27.7303 24.8625 27.3713C24.7685 26.9028 24.717 26.3842 24.7079 25.8153C24.6624 23.1439 25.7873 20.8949 28.3671 20.2172C29.1952 19.9996 30.0997 19.9456 31.0806 20.055C31.1103 20.0588 31.1251 20.0764 31.1251 20.1078L31.1342 24.3735C31.1342 24.4446 31.1679 24.4788 31.2351 24.4762C31.2843 24.4743 31.3337 24.4842 31.3834 24.506C31.6434 24.6186 31.9096 24.728 32.1818 24.8343C32.2511 24.8614 32.311 24.9103 32.3533 24.9745C32.3955 25.0386 32.4182 25.115 32.4182 25.1933L32.4127 26.9009C32.4127 26.9553 32.4033 26.9569 32.3846 26.9057C32.2336 26.4939 32.0326 26.1455 31.7071 25.8556C31.5143 25.6841 31.2533 25.5555 30.9242 25.4697C30.4386 25.343 29.9769 25.3731 29.5392 25.5599C28.8045 25.8758 28.1952 26.3787 28.0997 27.2465C28.0852 27.3777 28.1094 27.386 28.1725 27.2714C28.2192 27.1857 28.2655 27.097 28.3116 27.0055C28.9509 25.726 30.695 24.9293 31.7062 26.2885C32.1548 26.8913 32.3564 27.6288 32.3109 28.501C32.2818 29.0578 32.203 29.5841 32.0745 30.0801C31.869 30.8729 31.2379 31.2828 30.4977 31.3817C29.291 31.542 28.2562 30.7376 27.9952 29.4945C27.9224 29.1477 27.9039 28.8216 27.9397 28.5164C27.9603 28.3391 27.9361 28.3321 27.867 28.4953C27.8118 28.6258 27.7824 28.7737 27.7787 28.9388C27.7351 30.9766 29.6684 32.2628 31.3888 31.3634C31.8878 31.1023 32.2151 30.688 32.3709 30.1204C32.5085 29.62 32.5858 29.1135 32.6028 28.6009C32.627 27.847 32.6313 27.0641 32.6155 26.252C32.6149 26.2136 32.6325 26.1925 32.6683 26.1887C32.8726 26.1663 33.0869 26.116 33.3112 26.038C34.2539 25.711 35.1386 25.4284 35.9655 25.1904C36.0577 25.1642 36.1492 25.1242 36.2402 25.0704C36.2699 25.0531 36.3005 25.0512 36.332 25.0646C36.5211 25.1453 36.6766 25.3469 36.5666 25.5676C36.3202 26.0658 36.4184 26.7934 36.432 27.3626C36.4351 27.4989 36.3832 27.5924 36.2765 27.6429C36.2675 27.6473 36.2594 27.6537 36.2529 27.6616C36.2463 27.6696 36.2415 27.6789 36.2387 27.689C36.2358 27.6991 36.235 27.7097 36.2364 27.7201C36.2378 27.7305 36.2412 27.7405 36.2465 27.7495C36.3423 27.912 36.4217 28.0896 36.4848 28.2822C36.5266 28.4108 36.4775 28.5404 36.4129 28.6489C36.3229 28.8024 36.1274 28.8572 35.9837 28.9474C35.9504 28.9685 35.9449 28.9957 35.9674 29.029C36.0556 29.1605 36.2156 29.5588 36.0419 29.6971C35.9728 29.7527 35.8928 29.7959 35.8019 29.8267C35.6679 29.8714 35.6682 29.9146 35.8028 29.9562C36.0237 30.0234 36.0592 30.3546 36.071 30.5677C36.0728 30.5965 36.0628 30.6195 36.041 30.6368C35.9749 30.6893 35.9152 30.7488 35.8619 30.8153C35.6127 31.1302 35.8519 31.8367 35.9337 32.1717C36.1392 33.0087 35.3217 33.3331 34.6788 33.1939C34.4909 33.1536 34.3172 33.1879 34.1578 33.2966C33.6704 33.6288 33.2702 33.792 32.6692 33.5664C32.3236 33.4378 31.9508 33.2237 31.5652 33.2563C31.3688 33.273 31.3673 33.3018 31.5607 33.3427C31.8274 33.3997 32.0966 33.496 32.3682 33.6316C32.3991 33.6464 32.4088 33.6707 32.3973 33.7046C32.3445 33.8543 32.3063 33.9753 32.2009 34.0991C32.0172 34.3141 31.8368 34.5288 31.6598 34.7432C31.0645 35.4644 30.3191 35.6999 29.4237 35.4497C28.9279 35.3108 28.4071 35.1377 27.8615 34.9304C27.6354 34.844 27.6217 34.8721 27.8206 35.0148C28.5881 35.5668 29.8684 36.0237 30.775 35.6311C30.9775 35.5428 31.2351 35.3562 31.548 35.0715C31.805 34.8373 32.066 34.6027 32.3309 34.3679C32.4788 34.2367 32.5785 34.0466 32.6301 33.7977C32.6313 33.7922 32.6335 33.7869 32.6366 33.7823C32.6397 33.7776 32.6436 33.7736 32.6482 33.7706C32.6528 33.7676 32.6578 33.7655 32.6632 33.7646C32.6685 33.7636 32.6739 33.7638 32.6792 33.7651C32.7186 33.7747 32.7568 33.7878 32.7938 33.8044C33.1648 33.9753 33.6985 33.8918 34.0305 33.6576C34.2742 33.4848 34.5333 33.3667 34.8352 33.4205C35.6191 33.5597 36.3802 32.9338 36.1319 32.0277C36.0401 31.6936 35.9483 31.3788 35.9683 31.0313C35.9701 30.9929 35.9892 30.975 36.0255 30.9776C36.7185 31.0268 37.4084 31.0294 38.0952 30.9852C38.2298 30.9763 38.3623 31.0057 38.4926 31.0735C38.6681 31.1647 38.8845 31.1446 39.0664 31.0899C39.2767 31.0272 39.4804 31.0454 39.6775 31.1446C40.0412 31.326 40.1885 31.0102 40.4977 30.9872C40.6786 30.9737 40.8805 31.04 41.0233 30.8816C41.0851 30.8125 41.1406 30.7401 41.1897 30.6646C41.3252 30.4554 41.5862 30.4055 41.8071 30.4592C41.9951 30.5047 42.1745 30.5267 42.3455 30.5255C43.0899 30.5229 43.878 30.4816 44.7097 30.4016C45.2844 30.3472 45.8013 30.2186 46.2602 30.0158C46.8361 29.7617 47.2962 29.5739 47.6405 29.4523C48.3122 29.2155 49.0261 29.0936 49.782 29.0866C50.4786 29.0799 51.177 29.0808 51.8572 29.1394C52.8265 29.2226 53.8041 29.2626 54.7898 29.2594C55.1062 29.2587 55.413 29.2462 55.71 29.2219C56.0004 29.1976 56.3078 29.1758 56.6321 29.1566C57.5905 29.0991 58.7293 28.9787 60.0485 28.7957C60.6323 28.7151 61.2497 28.5356 61.7726 28.2179C62.0133 28.072 62.3231 27.9497 62.7019 27.8512C62.8902 27.8022 63.1657 27.8483 63.3485 27.9069C63.9014 28.0841 64.4542 28.1939 65.0071 28.2361C65.067 28.2405 65.1243 28.2635 65.1717 28.3023L66.0156 28.9858C66.0393 29.0052 66.0579 29.0307 66.0699 29.0599C66.0818 29.0891 66.0866 29.121 66.0838 29.1528C66.0638 29.3697 66.1165 29.6011 65.8619 29.6836C65.5327 29.7899 65.2169 29.7294 64.9144 29.5022C64.5906 29.2594 64.0496 28.8476 63.6959 29.2306C63.4012 29.5492 63.5304 30.0541 63.0384 30.2384C63.0202 30.2455 63.0108 30.2589 63.0102 30.2788C63.0102 30.2826 63.0111 30.2861 63.0129 30.2893C63.0275 30.3175 63.0499 30.3296 63.0802 30.3258C63.3994 30.2836 63.6304 30.0167 63.6822 29.6865C63.7331 29.3563 64.0669 29.2114 64.3433 29.3361C64.4706 29.3937 64.5876 29.4661 64.6943 29.5531C65.1808 29.9495 65.8337 30.1492 66.2793 29.556C66.4657 29.3074 66.362 28.9925 66.1402 28.8226C65.9116 28.6479 65.6646 28.4563 65.399 28.2476C65.1099 28.0211 64.7343 27.9549 64.3924 27.928C64.1633 27.9094 63.9162 27.865 63.6513 27.7946C63.4021 27.728 63.1421 27.6714 62.8711 27.6247C62.5992 27.5776 62.4391 27.6707 62.2027 27.7591C62.1669 27.7731 62.13 27.7757 62.0918 27.7667C61.9305 27.7303 61.7726 27.7303 61.618 27.7667C61.5859 27.7744 61.5665 27.7616 61.5598 27.7283C61.4919 27.4065 61.4619 27.1089 61.4698 26.8356C61.471 26.7902 61.4928 26.764 61.5353 26.7569C61.5819 26.7492 61.6286 26.7454 61.6753 26.7454C63.5116 26.7601 65.3151 26.7944 67.0859 26.8481C68.1389 26.8808 69.1974 26.8136 70.1813 26.8356C70.8578 26.851 71.7941 26.9192 72.9902 27.0401C73.0302 27.0446 73.0611 27.0286 73.083 26.9921C73.1875 26.8174 73.3894 26.755 73.5767 26.8088C73.8095 26.876 74.0441 26.8929 74.2806 26.8596C74.293 26.8579 74.3057 26.8595 74.3174 26.8643C74.3291 26.8691 74.3394 26.8769 74.3475 26.887C74.3556 26.8972 74.3611 26.9093 74.3635 26.9223C74.366 26.9353 74.3653 26.9488 74.3615 26.9614C74.3476 27.0055 74.3412 27.0503 74.3424 27.0958C74.3436 27.1271 74.3588 27.1447 74.3879 27.1486L75.1954 27.257C75.2269 27.2615 75.2433 27.2804 75.2445 27.3137C75.2687 28.0496 75.2132 28.7637 75.0781 29.4561C75.0714 29.4894 75.052 29.5061 75.0199 29.5061C73.8408 29.5163 72.5916 29.5336 71.2725 29.5579C70.7287 29.5684 70.1913 29.5425 69.6457 29.5147C69.634 29.514 69.6224 29.517 69.6124 29.5233C69.6024 29.5297 69.5945 29.539 69.5896 29.5502C69.5847 29.5614 69.583 29.5739 69.5849 29.586C69.5868 29.5982 69.5922 29.6094 69.6002 29.6184L69.9667 30.0273C69.9719 30.0332 69.9758 30.0404 69.9778 30.0483C69.9798 30.0562 69.98 30.0645 69.9783 30.0724C69.9766 30.0804 69.9731 30.0878 69.968 30.094C69.963 30.1001 69.9566 30.1049 69.9494 30.1079C69.9348 30.1143 69.9194 30.1172 69.903 30.1165C69.8685 30.1153 69.8378 30.1034 69.8112 30.081L69.6384 29.9418C69.602 29.9124 69.5859 29.9217 69.5902 29.9697C69.6254 30.3664 69.6326 30.8009 69.612 31.2732C69.592 31.7243 69.3701 32.0363 68.9755 32.2062C68.3408 32.4788 67.2205 32.5844 66.8949 31.78C66.8897 31.7673 66.8881 31.7534 66.8903 31.7398C66.8925 31.7262 66.8984 31.7135 66.9073 31.7033C66.9163 31.6931 66.9278 31.6858 66.9406 31.6822C66.9534 31.6786 66.9669 31.6789 66.9795 31.6831C67.1219 31.7311 67.2511 31.7858 67.3669 31.8472C67.787 32.0728 68.2025 32.1169 68.6181 31.828C68.9103 31.6245 69.0079 31.3343 68.9109 30.9574C68.8291 30.6374 68.6766 30.2759 68.4535 29.8727C68.4311 29.833 68.4087 29.8327 68.3862 29.8718C68.2929 30.0324 68.1719 30.0529 68.0234 29.9332C67.6542 29.6356 67.1786 29.7153 66.7458 29.6913C66.6973 29.6887 66.6885 29.7073 66.7194 29.747C66.7637 29.8039 66.807 29.8638 66.8494 29.9265C67.2014 30.4439 66.8558 31.1235 66.2547 30.9766C66.2256 30.9696 66.1971 30.9712 66.1693 30.9814C65.9901 31.0496 65.7955 30.8672 65.6591 30.7597C65.3981 30.5523 65.0799 30.6349 64.8562 30.8681C64.5306 31.2079 64.1839 31.4581 63.8159 31.6188C63.8033 31.6242 63.7918 31.6323 63.7822 31.6425C63.7726 31.6526 63.7651 31.6648 63.76 31.6781C63.7549 31.6914 63.7524 31.7057 63.7526 31.7201C63.7529 31.7345 63.7558 31.7486 63.7613 31.7618C63.9026 32.0977 63.8468 32.404 63.594 32.6804C63.4421 32.8465 63.2357 32.9559 63.2294 33.2199C63.2251 33.4074 63.2224 33.6022 63.2212 33.8044C63.2211 33.8245 63.2172 33.8443 63.2097 33.8627C63.2023 33.8811 63.1914 33.8978 63.1778 33.9117C63.1641 33.9257 63.148 33.9366 63.1303 33.9439C63.1126 33.9512 63.0937 33.9547 63.0748 33.9542C62.8402 33.9471 62.5992 33.9692 62.3518 34.0204C62.0945 34.0732 61.7681 33.9667 61.7435 33.6537C61.7189 33.337 61.7962 32.9962 61.8172 32.6881C61.8202 32.6503 61.8393 32.6327 61.8744 32.6353C62.2188 32.6551 62.5443 32.6561 62.8511 32.6382C62.9347 32.633 63.0102 32.5959 63.0775 32.5268C63.0872 32.5172 63.089 32.5038 63.083 32.4865C63.0636 32.4276 63.0242 32.3985 62.9647 32.3992C62.6065 32.4036 62.2915 32.3899 62.0199 32.3579C61.9817 32.354 61.9272 32.3665 61.8917 32.3819C61.8541 32.3972 61.8356 32.3835 61.8363 32.3406C61.8423 32.0846 61.862 31.8389 61.8954 31.6034C61.9093 31.5042 61.9129 31.4373 61.9063 31.4028C61.8808 31.2633 61.849 31.2614 61.8108 31.397C61.7217 31.7109 61.6198 32.02 61.6198 32.3569C61.6198 32.7076 61.5941 33.0848 61.5425 33.4886C61.5098 33.744 61.571 33.9593 61.7262 34.1346C61.7499 34.1615 61.7787 34.1759 61.8126 34.1778C62.3103 34.2111 62.8126 34.1957 63.3194 34.1317C63.3367 34.1294 63.3526 34.1204 63.3641 34.1065C63.3757 34.0925 63.3821 34.0746 63.3821 34.0559C63.3803 33.846 63.3806 33.6345 63.383 33.4214C63.3867 33.1277 63.5467 32.978 63.7395 32.7994C64.005 32.5537 64.0841 32.2072 64.0068 31.8367C63.9978 31.7931 64.0123 31.7621 64.0505 31.7435C64.3748 31.5855 64.6707 31.3622 64.938 31.0735C65.2726 30.7117 65.6182 30.9968 65.9519 31.1532C65.9668 31.1602 65.9795 31.1713 65.9888 31.1853C65.9981 31.1993 66.0036 31.2158 66.0047 31.2329C66.0435 31.7359 65.8386 32.0395 65.39 32.1438C65.3615 32.1502 65.3496 32.1685 65.3545 32.1985C65.4175 32.635 65.2563 32.8753 64.8707 32.9194C64.8368 32.9233 64.8219 32.9431 64.8262 32.9789C64.8559 33.2176 64.811 33.4141 64.6916 33.5683C64.6576 33.6125 64.6664 33.6422 64.718 33.6576C64.7361 33.6633 64.7525 33.6723 64.7671 33.6844C64.7955 33.7094 64.8131 33.7411 64.8198 33.7795C64.8816 34.1711 64.667 34.3026 64.356 34.3036C63.1642 34.3081 62.0005 34.3177 60.8651 34.3324C60.5038 34.3368 60.2883 34.1845 60.2185 33.8755C60.1415 33.5325 60.093 33.0356 60.073 32.3848C60.0718 32.3412 60.0509 32.323 60.0103 32.33C59.6078 32.4011 59.2061 32.4651 58.8054 32.522C57.436 32.7169 56.1711 33.1738 54.8598 33.6528C53.3473 34.2044 51.7817 34.4572 50.1631 34.4111C49.8933 34.4034 49.6153 34.3823 49.3292 34.3477C48.997 34.308 48.609 34.3141 48.1652 34.366C46.8485 34.5189 45.5936 34.8146 44.4006 35.2529C44.2357 35.3137 44.0605 35.3966 43.875 35.5015C43.8483 35.5169 43.8371 35.5402 43.8413 35.5716C43.9013 36.0662 43.8929 36.5932 43.8159 37.1525C43.7113 37.9118 43.3075 38.0078 42.7028 38.2122C42.6861 38.2177 42.6707 38.2268 42.6574 38.2388C42.6441 38.2509 42.6333 38.2657 42.6255 38.2823C42.4855 38.5847 42.0263 38.7421 41.7508 38.8448C41.1021 39.0873 40.4034 39.3254 39.6547 39.559C38.9654 39.773 38.5135 40.2635 38.4653 41.065C38.4471 41.3664 38.4483 41.6749 38.4689 41.9904C38.5429 43.1134 38.5966 44.862 38.6299 47.2361C38.6481 48.5589 38.7327 50.2022 38.8836 52.1661C38.9024 52.4151 38.9345 52.6432 38.98 52.8505C39.0321 53.0905 39.0618 53.3234 39.0691 53.5493C39.0952 54.4164 39.0946 55.2291 39.0673 55.9874C39.0518 56.4348 38.9845 56.8705 38.9391 57.3227C38.8615 58.095 38.733 58.9087 38.5535 59.7636C38.4053 60.4672 38.358 61.0489 38.82 61.6469C39.0427 61.9349 39.2883 62.2075 39.2182 62.6088" stroke="#808080" stroke-width="0.188589"/>
<path d="M35.6489 24.7528L35.7117 25.0245C35.7195 25.0603 35.7068 25.0827 35.6735 25.0917C34.8199 25.331 34.0145 25.5642 33.2573 25.7914C33.0555 25.8516 32.8588 25.9325 32.6672 26.0343C32.6338 26.0522 32.6181 26.0413 32.6199 26.0016C32.6344 25.7252 32.6408 25.4305 32.639 25.1176C32.6378 24.8923 32.5302 24.7301 32.3162 24.6309C31.9967 24.4831 31.6936 24.3669 31.4068 24.2825C31.3904 24.2778 31.3758 24.2675 31.3655 24.2531C31.3551 24.2387 31.3495 24.221 31.3495 24.2028C31.3459 22.9793 31.342 21.79 31.3377 20.6349C31.3371 20.4653 31.3259 20.2903 31.3041 20.1098C31.3011 20.0836 31.3117 20.0724 31.3359 20.0762C31.6602 20.1319 31.98 20.1985 32.2953 20.2759C33.4907 20.5696 34.4974 21.1907 35.3152 22.139C35.332 22.1584 35.342 22.1834 35.3433 22.2096C35.3447 22.2359 35.3373 22.2619 35.3225 22.283C34.7187 23.1594 34.1776 23.7977 33.3383 24.772C33.3225 24.7906 33.3228 24.8085 33.3392 24.8258L33.3556 24.843C33.3592 24.8475 33.3631 24.8478 33.3674 24.844C33.7669 24.478 34.157 24.1177 34.5377 23.7632C35.0024 23.3312 35.4379 22.8369 35.6289 22.2293C35.6392 22.1953 35.6613 22.1781 35.6953 22.1774C36.7307 22.1499 37.8034 22.1515 38.9134 22.1822C38.9292 22.1826 38.9448 22.1867 38.9589 22.194C38.9731 22.2014 38.9856 22.2119 38.9955 22.2249C39.0055 22.2378 39.0126 22.2529 39.0165 22.2691C39.0204 22.2853 39.0209 22.3021 39.018 22.3185C38.9853 22.5048 38.9571 22.6785 38.8698 22.8484C38.2123 24.1241 36.9393 24.5167 35.6816 24.7029C35.6532 24.7067 35.6422 24.7234 35.6489 24.7528Z" stroke="#808080" stroke-width="0.188589"/>
<path d="M19.0495 62.6081C19.0532 62.2731 19.0623 61.9602 19.0195 61.6175C18.9607 61.1433 18.9158 60.6205 18.8849 60.049C18.7964 58.4108 18.761 56.8398 18.7785 55.336C18.7858 54.7485 18.7394 54.1477 18.6485 53.5698C18.5558 52.9824 18.5512 52.4055 18.7613 51.9198C18.8134 51.7982 18.8595 51.6779 18.8995 51.5588C18.9134 51.5166 18.9404 51.5025 18.9804 51.5166C19.1877 51.5857 19.3951 51.5992 19.6024 51.5176C19.6351 51.5048 19.6548 51.4804 19.6615 51.4446C19.7046 51.2072 19.7561 50.972 19.8161 50.7391C19.8961 50.4271 19.8852 50.1104 19.9125 49.7936C19.9155 49.7642 19.9304 49.7462 19.957 49.7398L19.9843 49.7341C20.0025 49.7296 20.0119 49.7373 20.0125 49.7571C20.0295 50.2268 20.048 50.6908 20.068 51.149C20.0862 51.5668 20.1225 52.0244 20.1771 52.5216C20.3111 53.7432 20.3759 54.4823 20.3717 54.7389C20.3559 55.6828 20.3496 56.6661 20.3526 57.6887C20.355 58.5494 20.502 59.3592 20.7936 60.1182C20.8112 60.1642 20.7997 60.1991 20.7591 60.2228C20.3972 60.4292 20.0389 60.8141 20.0725 61.2844C20.0725 61.2863 20.1028 61.4146 20.1635 61.6693C20.2362 61.9746 20.1689 62.2875 19.9616 62.6081" stroke="#808080" stroke-width="0.188589"/>
<path d="M29.2456 24.147L30.495 24.1364C30.5429 24.1364 30.5735 24.1604 30.5869 24.2084L30.6142 24.3082C30.6275 24.3543 30.6111 24.3761 30.5651 24.3735C30.1692 24.3518 29.757 24.3636 29.3284 24.409C28.9255 24.4503 28.5381 24.6346 28.1508 24.7594C28.1112 24.772 28.0762 24.7972 28.0506 24.8315C28.0249 24.8658 28.0097 24.9076 28.0071 24.9514L27.908 26.5217C27.9068 26.5403 27.8974 26.5493 27.8798 26.5486H27.857C27.8528 26.5486 27.8507 26.5464 27.8507 26.5419C27.8179 25.9877 27.7758 25.4575 27.7243 24.9514C27.7142 24.8551 27.7365 24.7582 27.7871 24.6774C27.8378 24.5966 27.9137 24.537 28.0016 24.5089L28.8455 24.241C28.8764 24.2314 28.8897 24.2097 28.8855 24.1758C28.8437 23.8302 28.9001 23.4933 28.8928 23.1458C28.8825 22.598 28.8758 22.0589 28.8728 21.5284C28.8716 21.25 28.9001 20.9781 28.9583 20.7125C28.9916 20.5602 29.0252 20.5602 29.0592 20.7125C29.0768 20.7886 29.0859 20.8683 29.0865 20.9515C29.0956 21.976 29.1316 23.0245 29.1947 24.0971C29.1971 24.131 29.2141 24.1476 29.2456 24.147Z" stroke="#808080" stroke-width="0.188589"/>
<path d="M35.4082 25.5148C35.447 25.5046 35.4536 25.5155 35.4282 25.5475C35.3797 25.6089 35.3197 25.6543 35.2481 25.6838C34.5219 25.9833 33.7835 26.252 33.033 26.4901C33.0045 26.499 32.976 26.501 32.9475 26.4958C32.9287 26.4926 32.9111 26.4856 32.8947 26.4747C32.8858 26.4691 32.8785 26.4611 32.8736 26.4514C32.8687 26.4418 32.8663 26.4309 32.8668 26.42C32.8672 26.4091 32.8705 26.3985 32.8762 26.3893C32.882 26.3802 32.8899 26.3729 32.8993 26.3682C33.0363 26.2984 33.1936 26.2341 33.3712 26.1752C33.9296 25.9903 34.4834 25.807 35.0326 25.6252C35.1502 25.5862 35.2754 25.5494 35.4082 25.5148Z" stroke="#808080" stroke-width="0.188589"/>
<path d="M69.4449 27.9989C69.4625 28.18 69.4598 28.3579 69.4367 28.5326C69.4222 28.6452 69.3655 28.7053 69.2667 28.713C69.1467 28.7226 69.0012 28.7313 68.9111 28.6314C68.8832 28.6001 68.8699 28.563 68.8711 28.5201L68.8884 28.0545C68.8886 28.0484 68.8901 28.0423 68.8928 28.0368C68.8956 28.0314 68.8995 28.0267 68.9042 28.023C68.909 28.0194 68.9144 28.017 68.9202 28.016C68.926 28.0149 68.9319 28.0153 68.9375 28.0171L68.9621 28.0248C69.0075 28.0389 69.0281 28.0709 69.0239 28.1208L68.9948 28.4682C68.9881 28.5431 69.0203 28.578 69.0912 28.5729L69.1594 28.5681C69.1899 28.5661 69.2184 28.5515 69.2386 28.5273C69.2589 28.5032 69.2693 28.4716 69.2676 28.4395C69.2585 28.2756 69.2731 28.116 69.3112 27.9605C69.3121 27.9571 69.3122 27.9535 69.3115 27.9501C69.3108 27.9467 69.3094 27.9435 69.3074 27.9407C69.3054 27.9379 69.3028 27.9357 69.2999 27.9341C69.2969 27.9325 69.2936 27.9317 69.2903 27.9317L68.6702 27.9365C68.6671 27.9365 68.6641 27.9371 68.6612 27.9384C68.6584 27.9396 68.6559 27.9415 68.6538 27.9438C68.6516 27.9462 68.65 27.9489 68.6489 27.9519C68.6478 27.955 68.6473 27.9582 68.6474 27.9614L68.6702 28.7274C68.6714 28.7805 68.6471 28.81 68.5974 28.8157L68.572 28.8196C68.5447 28.8228 68.5274 28.8103 68.5201 28.7821C68.4516 28.5198 68.4404 28.2564 68.4865 27.9921C68.4937 27.9518 68.478 27.9323 68.4392 27.9336C67.6996 27.9547 66.9661 27.9525 66.2386 27.9269C66.0003 27.9186 65.7603 27.8747 65.5184 27.7954C65.3486 27.7391 65.3526 27.708 65.5302 27.7023C65.944 27.6879 66.3632 27.7138 66.7815 27.66C67.1798 27.6091 67.5944 27.6898 68.0036 27.6946C69.5028 27.7144 71.1502 27.7074 72.9459 27.6735C73.1071 27.6709 73.2781 27.6789 73.4587 27.6975C73.4647 27.6981 73.4703 27.7009 73.4746 27.7054C73.4788 27.71 73.4816 27.716 73.4824 27.7224L73.4851 27.7493C73.49 27.7909 73.4724 27.813 73.4324 27.8155C72.0823 27.9006 70.7732 27.9387 69.5049 27.9298C69.4601 27.9291 69.4401 27.9521 69.4449 27.9989Z" stroke="#808080" stroke-width="0.188589"/>
<path d="M15.7364 62.6087H19.0473C19.0509 62.2737 19.06 61.9608 19.0173 61.6181C18.9585 61.1439 18.9136 60.6211 18.8827 60.0496C18.7942 58.4114 18.7587 56.8404 18.7763 55.3366C18.7836 54.7491 18.7372 54.1482 18.6462 53.5704C18.5535 52.9829 18.5489 52.406 18.759 51.9203C18.8111 51.7988 18.8572 51.6784 18.8972 51.5594C18.9112 51.5172 18.9381 51.5031 18.9782 51.5172C19.1855 51.5863 19.3928 51.5997 19.6001 51.5181C19.6329 51.5054 19.6526 51.481 19.6593 51.4452C19.7023 51.2078 19.7538 50.9726 19.8138 50.7397C19.8939 50.4277 19.8829 50.111 19.9102 49.7942C19.9133 49.7647 19.9281 49.7468 19.9548 49.7404L19.9821 49.7347C20.0003 49.7302 20.0097 49.7379 20.0103 49.7577C20.0272 50.2274 20.0457 50.6914 20.0657 51.1495C20.0839 51.5674 20.1203 52.025 20.1748 52.5222C20.3088 53.7438 20.3737 54.4829 20.3694 54.7395C20.3537 55.6834 20.3473 56.6667 20.3503 57.6893C20.3528 58.55 20.4998 59.3598 20.7914 60.1187C20.809 60.1648 20.7974 60.1997 20.7568 60.2234C20.3949 60.4298 20.0366 60.8147 20.0703 61.285C20.0703 61.2869 20.1006 61.4152 20.1612 61.6699C20.234 61.9752 20.1667 62.2881 19.9593 62.6087H39.2182C39.2883 62.2075 39.0427 61.9349 38.82 61.6469C38.358 61.0489 38.4053 60.4672 38.5535 59.7636C38.733 58.9086 38.8615 58.095 38.9391 57.3226C38.9845 56.8705 39.0518 56.4347 39.0673 55.9874C39.0946 55.2291 39.0952 54.4164 39.0691 53.5493C39.0618 53.3234 39.0321 53.0904 38.98 52.8505C38.9345 52.6431 38.9024 52.415 38.8836 52.1661C38.7327 50.2021 38.6481 48.5588 38.6299 47.2361C38.5966 44.862 38.5429 43.1134 38.4689 41.9903C38.4483 41.6748 38.4471 41.3664 38.4653 41.065C38.5135 40.2635 38.9654 39.773 39.6547 39.5589C40.4034 39.3253 41.1021 39.0873 41.7508 38.8447C42.0263 38.742 42.4855 38.5846 42.6255 38.2822C42.6333 38.2656 42.6441 38.2508 42.6574 38.2387C42.6707 38.2267 42.6861 38.2177 42.7028 38.2122C43.3075 38.0077 43.7113 37.9117 43.8159 37.1525C43.8929 36.5932 43.9013 36.0662 43.8413 35.5715C43.8371 35.5402 43.8483 35.5168 43.875 35.5015C44.0605 35.3965 44.2357 35.3136 44.4006 35.2528C45.5936 34.8145 46.8485 34.5188 48.1652 34.3659C48.609 34.3141 48.997 34.308 49.3292 34.3477C49.6153 34.3822 49.8933 34.4033 50.1631 34.411C51.7817 34.4571 53.3473 34.2043 54.8598 33.6527C56.1711 33.1737 57.436 32.7168 58.8054 32.522C59.2061 32.465 59.6078 32.401 60.0103 32.33C60.0509 32.3229 60.0718 32.3412 60.073 32.3847C60.093 33.0355 60.1415 33.5324 60.2185 33.8754C60.2883 34.1845 60.5038 34.3368 60.8651 34.3323C62.0005 34.3176 63.1642 34.308 64.356 34.3035C64.667 34.3025 64.8816 34.171 64.8198 33.7794C64.8131 33.741 64.7955 33.7093 64.7671 33.6844C64.7525 33.6722 64.7361 33.6633 64.7179 33.6575C64.6664 33.6421 64.6576 33.6124 64.6916 33.5682C64.811 33.414 64.8559 33.2176 64.8262 32.9789C64.8219 32.943 64.8368 32.9232 64.8707 32.9194C65.2563 32.8752 65.4175 32.6349 65.3545 32.1985C65.3496 32.1684 65.3615 32.1502 65.39 32.1438C65.8386 32.0395 66.0435 31.7358 66.0047 31.2328C66.0036 31.2157 65.9981 31.1993 65.9888 31.1852C65.9795 31.1712 65.9668 31.1601 65.9519 31.1532C65.6182 30.9967 65.2726 30.7116 64.938 31.0735C64.6707 31.3621 64.3748 31.5854 64.0505 31.7435C64.0123 31.762 63.9978 31.7931 64.0068 31.8366C64.0841 32.2071 64.005 32.5536 63.7395 32.7994C63.5467 32.9779 63.3867 33.1276 63.383 33.4214C63.3806 33.6345 63.3803 33.846 63.3821 34.0559C63.3821 34.0745 63.3757 34.0925 63.3641 34.1064C63.3526 34.1204 63.3367 34.1294 63.3194 34.1317C62.8126 34.1957 62.3103 34.211 61.8126 34.1778C61.7787 34.1758 61.7499 34.1614 61.7262 34.1346C61.571 33.9592 61.5098 33.7439 61.5425 33.4886C61.5941 33.0848 61.6198 32.7075 61.6198 32.3569C61.6198 32.0199 61.7217 31.7109 61.8108 31.397C61.849 31.2613 61.8808 31.2632 61.9063 31.4027C61.9129 31.4373 61.9093 31.5042 61.8954 31.6033C61.862 31.8388 61.8423 32.0846 61.8363 32.3405C61.8356 32.3834 61.8541 32.3972 61.8917 32.3818C61.9272 32.3665 61.9817 32.354 62.0199 32.3578C62.2915 32.3898 62.6065 32.4036 62.9647 32.3991C63.0242 32.3985 63.0636 32.4276 63.083 32.4864C63.089 32.5037 63.0872 32.5172 63.0775 32.5268C63.0102 32.5959 62.9347 32.633 62.8511 32.6381C62.5443 32.656 62.2188 32.6551 61.8744 32.6352C61.8393 32.6327 61.8202 32.6503 61.8172 32.688C61.7962 32.9961 61.7189 33.3369 61.7435 33.6537C61.7681 33.9666 62.0945 34.0731 62.3518 34.0203C62.5992 33.9692 62.8402 33.9471 63.0748 33.9541C63.0937 33.9546 63.1126 33.9511 63.1303 33.9438C63.148 33.9366 63.1641 33.9256 63.1778 33.9117C63.1914 33.8977 63.2023 33.8811 63.2097 33.8626C63.2172 33.8442 63.2211 33.8244 63.2212 33.8044C63.2224 33.6022 63.2251 33.4073 63.2294 33.2198C63.2357 32.9558 63.4421 32.8464 63.594 32.6803C63.8468 32.4039 63.9026 32.0977 63.7613 31.7617C63.7558 31.7486 63.7529 31.7344 63.7526 31.72C63.7524 31.7057 63.7549 31.6914 63.76 31.678C63.7651 31.6647 63.7726 31.6526 63.7822 31.6424C63.7918 31.6322 63.8033 31.6241 63.8159 31.6187C64.1839 31.4581 64.5306 31.2079 64.8562 30.8681C65.0799 30.6348 65.3981 30.5523 65.6591 30.7596C65.7955 30.8671 65.9901 31.0495 66.1693 30.9813C66.1971 30.9711 66.2256 30.9695 66.2547 30.9765C66.8558 31.1234 67.2014 30.4438 66.8494 29.9264C66.807 29.8637 66.7637 29.8039 66.7194 29.7469C66.6885 29.7072 66.6973 29.6887 66.7458 29.6912C67.1786 29.7152 67.6542 29.6356 68.0234 29.9331C68.1719 30.0528 68.2929 30.0323 68.3862 29.8717C68.4087 29.8327 68.4311 29.833 68.4535 29.8727C68.6766 30.2758 68.8291 30.6374 68.9109 30.9573C69.0079 31.3343 68.9103 31.6245 68.6181 31.828C68.2025 32.1169 67.787 32.0727 67.3669 31.8472C67.2511 31.7857 67.1219 31.731 66.9795 31.683C66.9669 31.6788 66.9534 31.6785 66.9406 31.6821C66.9278 31.6857 66.9163 31.693 66.9073 31.7032C66.8984 31.7135 66.8925 31.7261 66.8903 31.7397C66.8881 31.7533 66.8897 31.7673 66.8949 31.78C67.2205 32.5843 68.3408 32.4788 68.9755 32.2062C69.3701 32.0363 69.592 31.7243 69.612 31.2731C69.6326 30.8009 69.6254 30.3664 69.5902 29.9696C69.5859 29.9216 69.602 29.9123 69.6384 29.9418L69.8112 30.081C69.8378 30.1034 69.8685 30.1152 69.903 30.1165C69.9194 30.1171 69.9348 30.1142 69.9494 30.1078C69.9566 30.1049 69.963 30.1001 69.968 30.0939C69.9731 30.0877 69.9766 30.0803 69.9783 30.0724C69.98 30.0644 69.9798 30.0561 69.9778 30.0483C69.9758 30.0404 69.9719 30.0332 69.9667 30.0272L69.6002 29.6183C69.5922 29.6094 69.5868 29.5981 69.5849 29.586C69.583 29.5738 69.5847 29.5613 69.5896 29.5502C69.5945 29.539 69.6024 29.5296 69.6124 29.5233C69.6224 29.5169 69.634 29.5139 69.6457 29.5146C70.1913 29.5425 70.7287 29.5684 71.2725 29.5578C72.5916 29.5335 73.8408 29.5162 75.0199 29.506C75.052 29.506 75.0714 29.4893 75.0781 29.4561C75.2132 28.7637 75.2687 28.0495 75.2445 27.3136C75.2433 27.2803 75.2269 27.2614 75.1954 27.257L74.3879 27.1485C74.3588 27.1447 74.3436 27.1271 74.3424 27.0957C74.3412 27.0503 74.3476 27.0055 74.3615 26.9613C74.3653 26.9487 74.366 26.9353 74.3635 26.9223C74.3611 26.9093 74.3556 26.8971 74.3475 26.887C74.3394 26.8768 74.3291 26.869 74.3174 26.8642C74.3057 26.8594 74.293 26.8578 74.2806 26.8596C74.0441 26.8929 73.8095 26.8759 73.5767 26.8087C73.3894 26.7549 73.1875 26.8173 73.083 26.992C73.0611 27.0285 73.0302 27.0445 72.9902 27.04C71.7941 26.9191 70.8578 26.8509 70.1813 26.8356C69.1974 26.8135 68.1389 26.8807 67.0859 26.8481C65.3151 26.7943 63.5116 26.7601 61.6753 26.7453C61.6286 26.7453 61.5819 26.7492 61.5353 26.7569C61.4928 26.7639 61.471 26.7901 61.4698 26.8356C61.4619 27.1088 61.4919 27.4064 61.5598 27.7283C61.5665 27.7616 61.5859 27.7743 61.618 27.7667C61.7726 27.7302 61.9305 27.7302 62.0918 27.7667C62.13 27.7756 62.1669 27.7731 62.2027 27.759C62.4391 27.6707 62.5992 27.5776 62.8711 27.6246C63.1421 27.6713 63.4021 27.728 63.6513 27.7945C63.9162 27.8649 64.1633 27.9094 64.3924 27.9279C64.7343 27.9548 65.1099 28.021 65.399 28.2476C65.6646 28.4562 65.9116 28.6478 66.1402 28.8225C66.362 28.9924 66.4657 29.3073 66.2793 29.5559C65.8337 30.1491 65.1808 29.9495 64.6943 29.553C64.5876 29.466 64.4706 29.3937 64.3433 29.3361C64.0669 29.2113 63.7331 29.3562 63.6822 29.6864C63.6304 30.0166 63.3994 30.2835 63.0802 30.3257C63.0499 30.3296 63.0275 30.3174 63.0129 30.2893C63.0111 30.2861 63.0102 30.2825 63.0102 30.2787C63.0108 30.2589 63.0202 30.2454 63.0384 30.2384C63.5304 30.0541 63.4012 29.5492 63.6959 29.2305C64.0496 28.8475 64.5906 29.2593 64.9144 29.5021C65.2169 29.7293 65.5327 29.7898 65.8619 29.6836C66.1165 29.601 66.0638 29.3697 66.0838 29.1527C66.0866 29.121 66.0818 29.089 66.0699 29.0598C66.0579 29.0306 66.0393 29.0051 66.0156 28.9857L65.1717 28.3023C65.1243 28.2635 65.067 28.2404 65.0071 28.2361C64.4542 28.1938 63.9014 28.0841 63.3485 27.9068C63.1657 27.8483 62.8902 27.8022 62.7019 27.8511C62.3231 27.9497 62.0133 28.0719 61.7726 28.2178C61.2497 28.5355 60.6323 28.715 60.0485 28.7957C58.7293 28.9787 57.5905 29.099 56.6321 29.1566C56.3078 29.1758 56.0004 29.1975 55.71 29.2219C55.413 29.2462 55.1062 29.2587 54.7898 29.2593C53.8041 29.2625 52.8265 29.2225 51.8572 29.1393C51.177 29.0808 50.4786 29.0798 49.782 29.0865C49.0261 29.0936 48.3122 29.2155 47.6405 29.4522C47.2962 29.5738 46.8361 29.7616 46.2602 30.0157C45.8013 30.2185 45.2844 30.3472 44.7097 30.4016C43.878 30.4816 43.0899 30.5228 42.3455 30.5254C42.1745 30.5267 41.9951 30.5046 41.8071 30.4592C41.5862 30.4054 41.3252 30.4553 41.1897 30.6646C41.1406 30.7401 41.0851 30.8124 41.0233 30.8815C40.8805 31.0399 40.6786 30.9737 40.4977 30.9871C40.1885 31.0101 40.0412 31.3259 39.6775 31.1445C39.4804 31.0453 39.2767 31.0271 39.0664 31.0898C38.8845 31.1445 38.6681 31.1647 38.4926 31.0735C38.3623 31.0057 38.2298 30.9762 38.0952 30.9852C37.4084 31.0293 36.7185 31.0268 36.0256 30.9775C35.9892 30.9749 35.9701 30.9929 35.9683 31.0312C35.9483 31.3787 36.0401 31.6936 36.1319 32.0276C36.3802 32.9337 35.6191 33.5596 34.8352 33.4204C34.5333 33.3667 34.2742 33.4847 34.0305 33.6575C33.6985 33.8917 33.1648 33.9752 32.7938 33.8044C32.7568 33.7877 32.7186 33.7746 32.6792 33.765C32.6739 33.7637 32.6685 33.7636 32.6632 33.7645C32.6578 33.7655 32.6528 33.7675 32.6482 33.7706C32.6436 33.7736 32.6397 33.7775 32.6366 33.7822C32.6335 33.7868 32.6313 33.7921 32.6301 33.7976C32.5785 34.0466 32.4788 34.2366 32.3309 34.3678C32.066 34.6027 31.805 34.8372 31.548 35.0714C31.2351 35.3562 30.9775 35.5427 30.775 35.631C29.8684 36.0236 28.5881 35.5667 27.8206 35.0148C27.6217 34.8721 27.6354 34.8439 27.8615 34.9303C28.4071 35.1377 28.9279 35.3108 29.4237 35.4496C30.3191 35.6998 31.0645 35.4643 31.6598 34.7431C31.8368 34.5288 32.0172 34.3141 32.2009 34.0991C32.3064 33.9752 32.3445 33.8543 32.3973 33.7045C32.4088 33.6706 32.3991 33.6463 32.3682 33.6316C32.0966 33.4959 31.8274 33.3996 31.5607 33.3427C31.3673 33.3017 31.3688 33.2729 31.5652 33.2563C31.9508 33.2236 32.3236 33.4377 32.6692 33.5663C33.2702 33.7919 33.6704 33.6287 34.1578 33.2966C34.3172 33.1878 34.4909 33.1536 34.6788 33.1939C35.3217 33.3331 36.1392 33.0086 35.9337 32.1716C35.8519 31.8366 35.6127 31.1301 35.8619 30.8153C35.9152 30.7487 35.9749 30.6892 36.041 30.6367C36.0628 30.6195 36.0728 30.5964 36.071 30.5676C36.0592 30.3545 36.0237 30.0234 35.8028 29.9562C35.6682 29.9146 35.6679 29.8714 35.8019 29.8266C35.8928 29.7959 35.9728 29.7527 36.0419 29.697C36.2156 29.5588 36.0556 29.1604 35.9674 29.0289C35.9449 28.9956 35.9504 28.9685 35.9837 28.9473C36.1274 28.8571 36.3229 28.8024 36.4129 28.6488C36.4775 28.5403 36.5266 28.4108 36.4848 28.2821C36.4217 28.0895 36.3423 27.9119 36.2465 27.7494C36.2412 27.7405 36.2378 27.7305 36.2364 27.7201C36.235 27.7096 36.2358 27.699 36.2387 27.6889C36.2415 27.6789 36.2463 27.6695 36.2529 27.6616C36.2594 27.6536 36.2675 27.6472 36.2765 27.6428C36.3832 27.5923 36.4351 27.4989 36.432 27.3626C36.4184 26.7933 36.3202 26.0657 36.5666 25.5676C36.6766 25.3468 36.5211 25.1452 36.332 25.0646C36.3005 25.0511 36.2699 25.0531 36.2402 25.0703C36.1492 25.1241 36.0577 25.1641 35.9655 25.1903C35.1386 25.4284 34.2539 25.7109 33.3112 26.0379C33.0869 26.116 32.8726 26.1662 32.6683 26.1886C32.6325 26.1925 32.6149 26.2136 32.6155 26.252C32.6313 27.064 32.627 27.847 32.6028 28.6008C32.5858 29.1134 32.5085 29.6199 32.3709 30.1203C32.2151 30.6879 31.8878 31.1023 31.3888 31.3634C29.6684 32.2628 27.7351 30.9765 27.7787 28.9387C27.7824 28.7736 27.8118 28.6258 27.867 28.4952C27.9361 28.332 27.9603 28.3391 27.9397 28.5163C27.9039 28.8216 27.9224 29.1476 27.9952 29.4945C28.2561 30.7375 29.291 31.5419 30.4977 31.3816C31.2379 31.2827 31.869 30.8729 32.0745 30.08C32.203 29.5841 32.2818 29.0577 32.3109 28.501C32.3564 27.6288 32.1548 26.8913 31.7062 26.2884C30.695 24.9292 28.9509 25.7259 28.3116 27.0055C28.2655 27.097 28.2192 27.1856 28.1725 27.2714C28.1094 27.3859 28.0852 27.3776 28.0997 27.2464C28.1952 26.3787 28.8045 25.8757 29.5392 25.5599C29.9769 25.373 30.4386 25.343 30.9242 25.4697C31.2533 25.5554 31.5143 25.684 31.7071 25.8555C32.0326 26.1454 32.2336 26.4939 32.3846 26.9056C32.4033 26.9568 32.4127 26.9552 32.4127 26.9009L32.4182 25.1932C32.4182 25.1149 32.3955 25.0386 32.3533 24.9744C32.311 24.9102 32.2511 24.8613 32.1818 24.8342C31.9096 24.728 31.6434 24.6186 31.3834 24.5059C31.3337 24.4842 31.2843 24.4743 31.2351 24.4762C31.1679 24.4787 31.1342 24.4445 31.1342 24.3735L31.1251 20.1077C31.1251 20.0764 31.1103 20.0588 31.0806 20.0549C30.0997 19.9455 29.1952 19.9996 28.3671 20.2171C25.7873 20.8948 24.6624 23.1438 24.7079 25.8152C24.717 26.3841 24.7685 26.9028 24.8625 27.3712C24.9343 27.7302 25.0562 28.1276 25.3326 28.382C25.4599 28.4991 25.6991 28.693 25.7718 28.8437C25.8173 28.9371 25.8897 28.972 25.9892 28.9483C26.4426 28.8408 26.8291 28.7221 27.1486 28.5922C27.3038 28.5295 27.3326 28.5691 27.235 28.7112C27.0304 29.0116 26.1992 29.1681 25.8646 29.2027C25.8234 29.2071 25.7973 29.2302 25.7864 29.2718C25.747 29.4177 25.7212 29.5818 25.7091 29.7642C25.6933 30.0189 25.7864 30.2265 25.9883 30.3872C26.1113 30.4851 26.0959 30.5311 25.9419 30.5254C25.6745 30.5148 25.1408 30.6118 25.0189 30.9362C24.8952 31.2655 24.7879 31.6216 24.587 31.9067C24.3772 32.2055 24.128 32.4957 23.8395 32.7773C23.7055 32.9078 23.6322 33.064 23.6194 33.2457C23.617 33.2771 23.6009 33.294 23.5712 33.2966C23.3033 33.3171 23.055 33.4025 22.8265 33.5529C21.6789 34.3064 20.5895 35.0119 19.3828 35.4707C18.833 35.6793 18.391 35.9824 18.057 36.3797C17.4014 37.1592 16.8367 38.1863 16.5238 39.2143C16.3329 39.8421 16.2365 40.1579 16.2347 40.1617C15.9382 41.0429 15.6673 41.7225 15.4999 42.5374C15.3544 43.2458 15.2202 43.9875 15.0971 44.7625C14.894 46.0365 14.5809 47.2777 14.1577 48.4859C14.0723 48.7297 14.0198 48.9815 14.0004 49.2413C13.998 49.2733 14.0059 49.3024 14.0241 49.3286C14.1617 49.5309 14.3487 49.6665 14.5851 49.7356C14.6245 49.7472 14.6455 49.7743 14.6479 49.8172C14.6779 50.2655 14.7252 50.9729 14.5415 51.3876C14.3742 51.7668 14.2341 52.12 14.1978 52.5433C14.1153 53.4878 14.1262 54.4116 14.2305 55.3145C14.2857 55.7951 14.3808 56.4302 14.516 57.2199C14.8276 59.0437 15.2344 60.8399 15.7364 62.6087ZM29.2473 24.146L30.4968 24.1354C30.5447 24.1354 30.5753 24.1594 30.5886 24.2074L30.6159 24.3072C30.6292 24.3533 30.6129 24.3751 30.5668 24.3725C30.1709 24.3507 29.7587 24.3626 29.3301 24.408C28.9272 24.4493 28.5399 24.6336 28.1525 24.7584C28.1129 24.771 28.078 24.7962 28.0523 24.8305C28.0266 24.8648 28.0114 24.9066 28.0088 24.9504L27.9097 26.5207C27.9085 26.5393 27.8991 26.5483 27.8815 26.5476H27.8588C27.8545 26.5476 27.8524 26.5454 27.8524 26.5409C27.8197 25.9867 27.7775 25.4565 27.726 24.9504C27.716 24.8541 27.7382 24.7572 27.7889 24.6764C27.8395 24.5956 27.9154 24.536 28.0034 24.5079L28.8472 24.24C28.8781 24.2304 28.8915 24.2087 28.8872 24.1748C28.8454 23.8292 28.9018 23.4923 28.8945 23.1448C28.8842 22.597 28.8775 22.0579 28.8745 21.5274C28.8733 21.249 28.9018 20.9771 28.96 20.7115C28.9933 20.5592 29.027 20.5592 29.0609 20.7115C29.0785 20.7876 29.0876 20.8673 29.0882 20.9505C29.0973 21.975 29.1334 23.0235 29.1964 24.0961C29.1988 24.13 29.2158 24.1466 29.2473 24.146ZM35.4063 25.5148C35.4451 25.5045 35.4518 25.5154 35.4263 25.5474C35.3778 25.6088 35.3178 25.6543 35.2462 25.6837C34.52 25.9832 33.7816 26.252 33.0311 26.49C33.0026 26.499 32.9741 26.5009 32.9456 26.4958C32.9268 26.4926 32.9092 26.4855 32.8929 26.4747C32.884 26.4691 32.8766 26.461 32.8717 26.4514C32.8668 26.4418 32.8644 26.4309 32.8649 26.4199C32.8654 26.409 32.8686 26.3984 32.8744 26.3893C32.8801 26.3802 32.8881 26.3728 32.8974 26.3681C33.0344 26.2984 33.1917 26.234 33.3694 26.1752C33.9277 25.9902 34.4815 25.8069 35.0307 25.6252C35.1483 25.5861 35.2735 25.5493 35.4063 25.5148ZM69.4474 27.999C69.465 28.1801 69.4623 28.358 69.4392 28.5327C69.4247 28.6453 69.368 28.7054 69.2692 28.7131C69.1492 28.7227 69.0037 28.7314 68.9136 28.6315C68.8858 28.6002 68.8724 28.5631 68.8736 28.5202L68.8909 28.0546C68.8911 28.0485 68.8926 28.0424 68.8953 28.0369C68.8981 28.0315 68.902 28.0268 68.9067 28.0231C68.9115 28.0195 68.9169 28.0171 68.9227 28.0161C68.9285 28.015 68.9344 28.0154 68.94 28.0172L68.9646 28.0249C69.01 28.039 69.0306 28.071 69.0264 28.1209L68.9973 28.4683C68.9906 28.5432 69.0228 28.5781 69.0937 28.573L69.1619 28.5682C69.1924 28.5662 69.2209 28.5516 69.2412 28.5274C69.2614 28.5033 69.2718 28.4717 69.2701 28.4396C69.261 28.2757 69.2756 28.1161 69.3138 27.9606C69.3146 27.9572 69.3147 27.9536 69.314 27.9502C69.3133 27.9468 69.312 27.9436 69.3099 27.9408C69.3079 27.938 69.3053 27.9358 69.3024 27.9342C69.2994 27.9326 69.2962 27.9318 69.2928 27.9318L68.6727 27.9366C68.6696 27.9366 68.6666 27.9372 68.6638 27.9385C68.6609 27.9397 68.6584 27.9416 68.6563 27.9439C68.6541 27.9463 68.6525 27.949 68.6514 27.9521C68.6503 27.9551 68.6498 27.9583 68.6499 27.9615L68.6727 28.7275C68.6739 28.7806 68.6496 28.8101 68.5999 28.8158L68.5745 28.8197C68.5472 28.8229 68.5299 28.8104 68.5226 28.7822C68.4541 28.5199 68.4429 28.2565 68.489 27.9922C68.4963 27.9519 68.4805 27.9324 68.4417 27.9337C67.7021 27.9548 66.9686 27.9526 66.2411 27.927C66.0028 27.9187 65.7628 27.8748 65.5209 27.7955C65.3512 27.7392 65.3551 27.7081 65.5327 27.7024C65.9465 27.688 66.3657 27.7139 66.784 27.6601C67.1823 27.6092 67.5969 27.6899 68.0061 27.6947C69.5053 27.7145 71.1527 27.7075 72.9484 27.6736C73.1096 27.671 73.2806 27.679 73.4613 27.6976C73.4672 27.6982 73.4728 27.701 73.4771 27.7055C73.4814 27.7101 73.4841 27.7161 73.4849 27.7225L73.4876 27.7494C73.4925 27.791 73.4749 27.8131 73.4349 27.8156C72.0848 27.9007 70.7757 27.9388 69.5074 27.9299C69.4626 27.9292 69.4426 27.9522 69.4474 27.999Z" fill="black"/>
<path d="M35.6816 24.7028C36.9393 24.5166 38.2123 24.124 38.8698 22.8483C38.9571 22.6784 38.9853 22.5047 39.018 22.3185C39.0209 22.3021 39.0204 22.2852 39.0165 22.269C39.0126 22.2529 39.0055 22.2378 38.9955 22.2248C38.9856 22.2119 38.9731 22.2013 38.9589 22.194C38.9448 22.1866 38.9292 22.1826 38.9134 22.1822C37.8034 22.1515 36.7307 22.1499 35.6953 22.1774C35.6613 22.178 35.6392 22.1953 35.6289 22.2292C35.4379 22.8368 35.0024 23.3312 34.5377 23.7631C34.157 24.1176 33.7669 24.4779 33.3674 24.8439C33.3631 24.8478 33.3592 24.8475 33.3556 24.843L33.3392 24.8257C33.3228 24.8084 33.3225 24.7905 33.3383 24.7719C34.1776 23.7977 34.7187 23.1593 35.3225 22.283C35.3373 22.2618 35.3447 22.2359 35.3433 22.2096C35.342 22.1833 35.332 22.1583 35.3152 22.139C34.4974 21.1906 33.4907 20.5696 32.2953 20.2758C31.98 20.1984 31.6602 20.1318 31.3359 20.0762C31.3117 20.0723 31.3011 20.0835 31.3041 20.1098C31.3259 20.2902 31.3371 20.4653 31.3377 20.6348C31.342 21.7899 31.3459 22.9792 31.3495 24.2027C31.3495 24.2209 31.3551 24.2386 31.3655 24.253C31.3758 24.2674 31.3904 24.2777 31.4068 24.2824C31.6936 24.3669 31.9967 24.483 32.3162 24.6308C32.5302 24.73 32.6378 24.8923 32.639 25.1175C32.6408 25.4304 32.6344 25.7251 32.6199 26.0016C32.6181 26.0412 32.6338 26.0521 32.6672 26.0342C32.8588 25.9325 33.0555 25.8515 33.2573 25.7913C34.0145 25.5642 34.8199 25.3309 35.6735 25.0916C35.7068 25.0826 35.7195 25.0602 35.7117 25.0244L35.6489 24.7527C35.6422 24.7233 35.6532 24.7067 35.6816 24.7028Z" fill="black"/>
<path d="M15.42 106.154C14.608 106.154 13.908 106.023 13.32 105.762C12.7413 105.491 12.2093 105.085 11.724 104.544L13.152 103.13C13.4693 103.494 13.8193 103.779 14.202 103.984C14.594 104.18 15.0467 104.278 15.56 104.278C16.0267 104.278 16.386 104.194 16.638 104.026C16.8993 103.858 17.03 103.625 17.03 103.326C17.03 103.055 16.946 102.836 16.778 102.668C16.61 102.5 16.386 102.355 16.106 102.234C15.8353 102.113 15.532 101.996 15.196 101.884C14.8693 101.772 14.5427 101.646 14.216 101.506C13.8893 101.357 13.586 101.175 13.306 100.96C13.0353 100.736 12.816 100.461 12.648 100.134C12.48 99.798 12.396 99.378 12.396 98.874C12.396 98.2673 12.5407 97.7447 12.83 97.306C13.1287 96.8673 13.5393 96.536 14.062 96.312C14.5847 96.0787 15.1867 95.962 15.868 95.962C16.5587 95.962 17.1887 96.0833 17.758 96.326C18.3367 96.5687 18.8127 96.9 19.186 97.32L17.758 98.734C17.4593 98.426 17.156 98.1973 16.848 98.048C16.5493 97.8987 16.2087 97.824 15.826 97.824C15.4433 97.824 15.14 97.8987 14.916 98.048C14.692 98.188 14.58 98.3933 14.58 98.664C14.58 98.916 14.664 99.1213 14.832 99.28C15 99.4293 15.2193 99.56 15.49 99.672C15.77 99.784 16.0733 99.896 16.4 100.008C16.736 100.12 17.0673 100.251 17.394 100.4C17.7207 100.549 18.0193 100.741 18.29 100.974C18.57 101.198 18.794 101.487 18.962 101.842C19.13 102.187 19.214 102.617 19.214 103.13C19.214 104.073 18.878 104.815 18.206 105.356C17.534 105.888 16.6053 106.154 15.42 106.154ZM24.9121 106V102.122C24.9121 101.767 24.8001 101.483 24.5761 101.268C24.3614 101.044 24.0861 100.932 23.7501 100.932C23.5168 100.932 23.3114 100.983 23.1341 101.086C22.9568 101.179 22.8168 101.319 22.7141 101.506C22.6114 101.683 22.5601 101.889 22.5601 102.122L21.7341 101.716C21.7341 101.184 21.8461 100.717 22.0701 100.316C22.2941 99.9147 22.6068 99.6067 23.0081 99.392C23.4094 99.168 23.8714 99.056 24.3941 99.056C24.9261 99.056 25.3928 99.168 25.7941 99.392C26.1954 99.6067 26.5034 99.91 26.7181 100.302C26.9421 100.685 27.0541 101.133 27.0541 101.646V106H24.9121ZM20.4181 106V95.836H22.5601V106H20.4181ZM31.7058 106.154C31.0058 106.154 30.3712 106 29.8018 105.692C29.2418 105.375 28.7985 104.945 28.4718 104.404C28.1452 103.863 27.9818 103.256 27.9818 102.584C27.9818 101.912 28.1452 101.31 28.4718 100.778C28.7985 100.246 29.2418 99.826 29.8018 99.518C30.3618 99.2007 30.9965 99.042 31.7058 99.042C32.4152 99.042 33.0498 99.196 33.6098 99.504C34.1698 99.812 34.6132 100.237 34.9398 100.778C35.2665 101.31 35.4298 101.912 35.4298 102.584C35.4298 103.256 35.2665 103.863 34.9398 104.404C34.6132 104.945 34.1698 105.375 33.6098 105.692C33.0498 106 32.4152 106.154 31.7058 106.154ZM31.7058 104.208C32.0138 104.208 32.2845 104.143 32.5178 104.012C32.7512 103.872 32.9285 103.681 33.0498 103.438C33.1805 103.186 33.2458 102.901 33.2458 102.584C33.2458 102.267 33.1805 101.991 33.0498 101.758C32.9192 101.515 32.7372 101.329 32.5038 101.198C32.2798 101.058 32.0138 100.988 31.7058 100.988C31.4072 100.988 31.1412 101.058 30.9078 101.198C30.6745 101.329 30.4925 101.515 30.3618 101.758C30.2312 102.001 30.1658 102.281 30.1658 102.598C30.1658 102.906 30.2312 103.186 30.3618 103.438C30.4925 103.681 30.6745 103.872 30.9078 104.012C31.1412 104.143 31.4072 104.208 31.7058 104.208ZM39.7722 106.154C39.0722 106.154 38.4376 106 37.8682 105.692C37.3082 105.375 36.8649 104.945 36.5382 104.404C36.2116 103.863 36.0482 103.256 36.0482 102.584C36.0482 101.912 36.2116 101.31 36.5382 100.778C36.8649 100.246 37.3082 99.826 37.8682 99.518C38.4282 99.2007 39.0629 99.042 39.7722 99.042C40.4816 99.042 41.1162 99.196 41.6762 99.504C42.2362 99.812 42.6796 100.237 43.0062 100.778C43.3329 101.31 43.4962 101.912 43.4962 102.584C43.4962 103.256 43.3329 103.863 43.0062 104.404C42.6796 104.945 42.2362 105.375 41.6762 105.692C41.1162 106 40.4816 106.154 39.7722 106.154ZM39.7722 104.208C40.0802 104.208 40.3509 104.143 40.5842 104.012C40.8176 103.872 40.9949 103.681 41.1162 103.438C41.2469 103.186 41.3122 102.901 41.3122 102.584C41.3122 102.267 41.2469 101.991 41.1162 101.758C40.9856 101.515 40.8036 101.329 40.5702 101.198C40.3462 101.058 40.0802 100.988 39.7722 100.988C39.4736 100.988 39.2076 101.058 38.9742 101.198C38.7409 101.329 38.5589 101.515 38.4282 101.758C38.2976 102.001 38.2322 102.281 38.2322 102.598C38.2322 102.906 38.2976 103.186 38.4282 103.438C38.5589 103.681 38.7409 103.872 38.9742 104.012C39.2076 104.143 39.4736 104.208 39.7722 104.208ZM45.3919 106V96.382H47.5339V106H45.3919ZM43.8519 101.016V99.196H49.0739V101.016H43.8519ZM50.0177 106V99.196H52.1597V106H50.0177ZM51.0957 98.258C50.7597 98.258 50.4797 98.146 50.2557 97.922C50.0411 97.6887 49.9337 97.4087 49.9337 97.082C49.9337 96.746 50.0411 96.466 50.2557 96.242C50.4797 96.018 50.7597 95.906 51.0957 95.906C51.4317 95.906 51.7071 96.018 51.9217 96.242C52.1364 96.466 52.2437 96.746 52.2437 97.082C52.2437 97.4087 52.1364 97.6887 51.9217 97.922C51.7071 98.146 51.4317 98.258 51.0957 98.258ZM58.1621 106V102.122C58.1621 101.767 58.0501 101.483 57.8261 101.268C57.6114 101.044 57.3361 100.932 57.0001 100.932C56.7668 100.932 56.5614 100.983 56.3841 101.086C56.2068 101.179 56.0668 101.319 55.9641 101.506C55.8614 101.683 55.8101 101.889 55.8101 102.122L54.9841 101.716C54.9841 101.184 55.1008 100.717 55.3341 100.316C55.5674 99.9147 55.8894 99.6067 56.3001 99.392C56.7201 99.168 57.1914 99.056 57.7141 99.056C58.2181 99.056 58.6614 99.1773 59.0441 99.42C59.4361 99.6533 59.7441 99.966 59.9681 100.358C60.1921 100.75 60.3041 101.179 60.3041 101.646V106H58.1621ZM53.6681 106V99.196H55.8101V106H53.6681ZM64.5638 109.052C63.8172 109.052 63.1592 108.921 62.5898 108.66C62.0298 108.408 61.5865 108.049 61.2598 107.582L62.5758 106.266C62.8185 106.555 63.0892 106.775 63.3878 106.924C63.6958 107.073 64.0645 107.148 64.4938 107.148C65.0258 107.148 65.4412 107.017 65.7398 106.756C66.0478 106.495 66.2018 106.126 66.2018 105.65V103.914L66.5658 102.43L66.2438 100.946V99.196H68.3438V105.594C68.3438 106.294 68.1805 106.901 67.8538 107.414C67.5272 107.927 67.0792 108.329 66.5098 108.618C65.9405 108.907 65.2918 109.052 64.5638 109.052ZM64.4658 105.79C63.8405 105.79 63.2852 105.641 62.7998 105.342C62.3145 105.043 61.9318 104.637 61.6518 104.124C61.3718 103.611 61.2318 103.041 61.2318 102.416C61.2318 101.781 61.3718 101.212 61.6518 100.708C61.9318 100.195 62.3145 99.7933 62.7998 99.504C63.2852 99.2053 63.8405 99.056 64.4658 99.056C64.9325 99.056 65.3478 99.1447 65.7118 99.322C66.0852 99.49 66.3838 99.7327 66.6078 100.05C66.8412 100.358 66.9718 100.717 66.9998 101.128V103.718C66.9718 104.119 66.8412 104.479 66.6078 104.796C66.3838 105.104 66.0852 105.347 65.7118 105.524C65.3385 105.701 64.9232 105.79 64.4658 105.79ZM64.8718 103.886C65.1705 103.886 65.4272 103.821 65.6418 103.69C65.8658 103.559 66.0338 103.387 66.1458 103.172C66.2672 102.948 66.3278 102.696 66.3278 102.416C66.3278 102.136 66.2672 101.884 66.1458 101.66C66.0338 101.436 65.8658 101.259 65.6418 101.128C65.4272 100.997 65.1705 100.932 64.8718 100.932C64.5825 100.932 64.3258 100.997 64.1018 101.128C63.8778 101.259 63.7052 101.436 63.5838 101.66C63.4625 101.884 63.4018 102.136 63.4018 102.416C63.4018 102.677 63.4625 102.925 63.5838 103.158C63.7052 103.382 63.8732 103.559 64.0878 103.69C64.3118 103.821 64.5732 103.886 64.8718 103.886Z" fill="white"/>
</svg>
