<svg width="82" height="107" viewBox="0 0 82 107" fill="none" xmlns="http://www.w3.org/2000/svg">
<circle cx="41" cy="41" r="41" fill="#F1F1F0"/>
<path d="M58.9209 11.8609C59.2444 11.7245 59.5098 11.7048 59.7172 11.8017C60.1094 11.9832 60.0937 12.1156 59.6699 12.199C59.272 12.2768 58.9277 12.4442 58.6369 12.7011C58.4318 12.8803 58.4549 12.917 58.7062 12.811C59.05 12.6656 59.3802 12.6611 59.6969 12.7975C60.0643 12.9564 60.0514 13.0731 59.658 13.1475C59.25 13.2241 58.8978 13.3633 58.6014 13.565C58.5113 13.6259 58.5203 13.6484 58.6285 13.6327C58.9869 13.5831 59.2551 13.6411 59.4332 13.8068C59.6654 14.0209 59.6237 14.1286 59.3081 14.1297C58.8533 14.1314 58.4341 14.1009 58.1822 14.5811C57.8948 15.1254 57.7612 15.6647 57.1137 15.8997C56.4758 16.1296 55.9855 16.572 55.6429 17.2268C54.6843 19.0645 53.6937 20.7635 52.5136 22.3764C52.1338 22.8937 51.5956 23.3969 50.8991 23.8861C50.4156 24.2242 50.0876 24.622 49.9152 25.0796C49.6312 25.8285 49.0885 26.5014 48.6236 27.154C48.45 27.3963 48.361 27.6702 48.3565 27.9756C48.352 28.1818 48.2641 28.3515 48.0927 28.4845C46.3802 29.8048 44.999 31.0575 44.48 33.2688C44.1678 34.5965 43.8871 35.8633 43.638 37.0693C43.5084 37.697 43.5011 38.3727 43.6161 39.0963C43.775 40.1123 43.19 40.819 42.8469 41.6913C42.6034 42.3067 42.8435 42.8832 42.8029 43.5087C42.7522 44.2712 42.3769 45.1198 42.7217 45.8637C42.9348 46.3252 43.1934 46.8645 42.7995 47.3142C42.7578 47.3627 42.7477 47.4173 42.7691 47.4782C43.3089 48.9535 43.2836 50.4424 42.693 51.9447C42.4969 52.4418 42.4614 52.9422 42.5476 53.4781C42.9071 55.6995 43.2571 58.0021 43.5975 60.3858C43.6011 60.4118 43.5989 60.4382 43.5909 60.4632C43.5829 60.4881 43.5694 60.511 43.5514 60.53C43.5333 60.549 43.5112 60.5637 43.4867 60.573C43.4622 60.5823 43.4359 60.5859 43.4098 60.5836C43.2227 60.569 43.1202 60.6518 43.1021 60.8321C42.9962 61.9164 42.866 62.9978 42.7116 64.0764C42.6102 64.7847 42.316 65.9107 41.5028 66.0544C40.9466 66.1524 40.3414 66.1879 39.841 65.8921C38.2665 64.9634 36.6165 64.4584 34.891 64.3773C34.8166 64.3739 34.7653 64.4072 34.7371 64.477C34.665 64.6529 34.5404 64.7864 34.3635 64.8777C34.306 64.907 34.2852 64.9538 34.3009 65.018C34.5968 66.2116 34.8301 68.2589 34.0659 69.1938C33.4573 69.9376 32.7642 69.4203 32.3246 68.8371C31.556 67.8205 31.2528 66.6996 31.4151 65.4745C31.4275 65.3854 31.3886 65.337 31.2985 65.3291C30.7654 65.2829 30.2695 65.2812 29.8107 65.324C29.3329 65.368 28.9536 65.5585 28.673 65.8954C28.6396 65.9357 28.6229 65.9873 28.6264 66.0395C28.6298 66.0917 28.6532 66.1405 28.6916 66.1761C28.7558 66.2369 28.7699 66.3012 28.7338 66.3688C28.7057 66.4229 28.6645 66.4663 28.6104 66.499C28.1788 66.7616 27.8361 67.0907 27.5825 67.4863C27.5476 67.5404 27.5003 67.5804 27.4405 67.6063C27.2123 67.7044 27.0027 67.8075 26.8353 67.9985C26.3129 68.5936 25.9292 69.3121 25.635 70.0661C25.1853 71.2208 24.0763 71.2073 23.5167 70.1709C23.1042 69.409 22.8968 68.6663 22.8946 67.9427C22.8912 66.6494 24.2724 66.215 24.5632 65.0163C24.8083 64.0037 25.094 63.2497 25.9816 62.5734C26.2701 62.3537 26.5834 62.2956 26.9215 62.3993C27.2642 62.503 27.6006 62.5723 27.9308 62.6073C27.9939 62.6129 28.0424 62.5892 28.0762 62.5362C28.74 61.4948 29.6575 61.0029 30.8285 61.0604C30.8893 61.0626 30.9277 61.0344 30.9434 60.9758C31.0313 60.6242 31.0663 60.2179 31.0482 59.7569C31.046 59.6882 31.0116 59.6465 30.9451 59.6318L30.4768 59.5253C30.4545 59.5203 30.4336 59.5103 30.4157 59.496C30.3978 59.4817 30.3834 59.4635 30.3736 59.4427C30.3639 59.422 30.3589 59.3994 30.3592 59.3765C30.3595 59.3536 30.3651 59.331 30.3754 59.3106C30.8504 58.3571 30.6848 57.5355 30.3889 56.5803C30.3214 56.3667 30.3127 56.1384 30.3636 55.9193C30.4233 55.6634 30.4875 55.4127 30.5563 55.167C30.8031 54.2845 30.6966 53.2972 30.394 52.4232C30.2509 52.0095 30.3145 51.6483 30.585 51.3395C30.6301 51.2876 30.6425 51.229 30.6222 51.1637C30.5366 50.8842 30.5371 50.6137 30.6239 50.3522C30.6355 50.3174 30.6391 50.2804 30.6344 50.2438C30.6297 50.2072 30.6169 50.1721 30.5969 50.1409C30.394 49.8309 30.3838 49.5277 30.5664 49.2313C30.8471 48.7732 30.4396 47.9583 30.186 47.5509C30.1608 47.5112 30.1484 47.4646 30.1505 47.4175C30.1526 47.3703 30.1692 47.3248 30.1979 47.2872C30.7439 46.572 31.4303 46.0175 31.055 45.0116C30.8978 44.5873 31.3661 44.1579 31.5892 43.8485C31.8293 43.516 31.8806 43.1035 31.7431 42.611C31.5605 41.9517 31.334 41.2687 31.5487 40.5874C31.6118 40.3901 31.6259 40.1726 31.5909 39.9348C31.4219 38.7503 31.2675 37.6125 31.1277 36.5215C31.1202 36.4629 31.1012 36.4063 31.0716 36.3552C31.042 36.304 31.0026 36.2593 30.9555 36.2235C30.9084 36.1878 30.8547 36.1618 30.7975 36.1471C30.7403 36.1324 30.6807 36.1292 30.6222 36.1377C29.4602 36.3079 28.2892 36.495 27.1092 36.699C26.7423 36.7616 26.5851 36.5147 26.2487 36.5435C25.2873 36.6235 24.2211 36.6477 23.0501 36.6162C22.3637 36.5993 22.1152 35.3516 22.1642 34.8427C22.4178 32.2088 22.6844 29.4385 22.9639 26.5318C22.9718 26.4473 22.9374 26.4236 22.8607 26.4608L22.6832 26.547C22.6224 26.5752 22.5615 26.5752 22.5006 26.547C21.7771 26.2039 21.9377 25.6138 22.3553 25.1422C22.4037 25.0881 22.4161 25.0272 22.3924 24.9596L22.2792 24.6333C22.2566 24.5668 22.2673 24.5059 22.3113 24.4507C22.4353 24.2963 22.5029 24.1256 22.5142 23.9385C22.5168 23.8988 22.5282 23.8602 22.5475 23.8254C22.5668 23.7907 22.5935 23.7606 22.6257 23.7373C22.7531 23.6449 22.8568 23.5316 22.9368 23.3975C22.9785 23.3276 23.0399 23.2876 23.1211 23.2774C23.3195 23.2527 23.4784 23.1614 23.5978 23.0036C23.6217 22.9722 23.6544 22.9487 23.6918 22.936C23.7291 22.9234 23.7694 22.9222 23.8075 22.9326L24.0526 23.0002C24.0771 23.0064 24.1028 23.0066 24.1276 23.0007C24.1523 22.9948 24.1753 22.983 24.1946 22.9664C24.3231 22.8537 24.4448 22.7286 24.5598 22.5911C24.8506 22.2411 25.2918 22.2259 25.542 21.9199C26.7063 20.5077 27.839 19.0994 28.9401 17.6951C28.9852 17.6377 28.9818 17.5836 28.9299 17.5328C27.5927 16.2345 28.2114 14.0452 29.2545 12.713C30.0626 11.6834 31.3593 10.8635 32.6915 11.019C34.1403 11.1898 34.7878 12.5219 34.6424 13.8812C34.4666 15.5379 33.3356 17.0814 31.8597 17.7763C30.9446 18.2068 30.0931 18.2192 29.3053 17.8135C29.2523 17.7864 29.2072 17.7966 29.17 17.8439L25.7297 22.138C25.6914 22.1851 25.6699 22.244 25.6688 22.3054C25.662 22.9123 25.2884 23.5074 24.9199 23.9824C24.8692 24.0478 24.8646 24.116 24.9063 24.187C25.165 24.6198 25.6164 24.99 25.1819 25.5225C24.7035 26.1109 24.7271 26.6519 24.7508 27.3518C24.7835 28.3492 24.7886 29.3264 24.766 30.2832C24.7441 31.1674 24.9283 31.8589 25.2884 32.6737C25.4259 32.9859 25.471 33.2914 25.4237 33.59C25.4101 33.6824 25.4428 33.7044 25.5217 33.656C25.8181 33.4779 26.0875 33.3663 26.3298 33.3212C26.4222 33.3032 26.4775 33.248 26.4955 33.1555L26.5581 32.8462C26.5716 32.7763 26.6138 32.7419 26.6848 32.743C27.2343 32.7481 28.5022 32.8174 28.9046 32.4049C29.2765 32.0212 29.2207 31.7033 29.8868 31.6459C30.9485 31.5546 32.1285 31.5579 33.055 31.1573C33.348 31.0299 33.6461 30.8716 33.9493 30.6822C34.1268 30.5706 34.3517 30.5504 34.5596 30.5182C34.6261 30.5081 34.67 30.4715 34.6915 30.4083C34.9231 29.7186 35.4472 29.9096 35.9865 29.8589C36.0496 29.8521 36.089 29.8178 36.1048 29.7558C36.2107 29.3421 36.2913 28.9392 36.3465 28.547C36.4091 28.0889 36.1132 27.7152 36.0169 27.2808C35.9577 27.0103 35.907 26.5538 35.7058 26.3594C35.2815 25.952 34.8977 25.1608 35.2916 24.6248C35.3378 24.5629 35.3508 24.4947 35.3305 24.4203C35.1953 23.9317 35.0482 23.4905 35.2341 22.985C35.3502 22.6694 35.5683 22.3634 35.8884 22.067C36.2637 21.7187 36.6362 21.3784 37.0059 21.0459C37.0566 20.9997 37.1062 21.0008 37.1546 21.0493C37.1817 21.0763 37.2133 21.0848 37.2493 21.0746C37.335 21.0521 37.3801 20.9957 37.3846 20.9056C37.3868 20.8436 37.4037 20.7867 37.4353 20.7348C37.4411 20.725 37.4488 20.7165 37.4581 20.7098C37.4673 20.7031 37.4778 20.6984 37.489 20.6958C37.5002 20.6933 37.5119 20.6931 37.5233 20.6951C37.5347 20.6972 37.5456 20.7015 37.5553 20.7078L37.9205 20.9495C37.9813 20.9901 38.0411 20.9884 38.0997 20.9444C38.1515 20.905 38.2084 20.8763 38.2704 20.8582C38.329 20.8402 38.3865 20.843 38.4429 20.8667L38.8368 21.0323C38.9213 21.0684 38.9517 21.0414 38.9281 20.9512L38.8672 20.7247C38.8617 20.7033 38.8624 20.6809 38.8693 20.6599C38.8762 20.639 38.8889 20.6205 38.906 20.6066C38.9231 20.5927 38.9438 20.584 38.9657 20.5816C38.9876 20.5791 39.0098 20.583 39.0295 20.5928L39.7379 20.9461C39.792 20.9743 39.8354 20.9619 39.868 20.9089C39.9221 20.8222 39.9982 20.7568 40.0963 20.7128C40.1729 20.679 40.2281 20.7004 40.2619 20.7771C40.3205 20.9067 40.4175 20.9642 40.5527 20.9495C40.5938 20.9449 40.6353 20.9505 40.6737 20.9658C40.712 20.9812 40.746 21.0058 40.7725 21.0374C40.9055 21.1963 41.0638 21.331 41.2476 21.4415C41.3017 21.4742 41.3411 21.5192 41.3659 21.5767C41.4256 21.7153 41.535 21.788 41.6939 21.7948C41.7435 21.7959 41.7778 21.8196 41.797 21.8658C42.0078 22.3764 41.9407 22.852 41.5958 23.2927C41.4425 23.4888 41.4177 23.6961 41.5214 23.9148C41.6888 24.2681 41.5299 24.6029 41.3321 24.8953C41.1878 25.1106 41.1309 25.3535 41.1613 25.624C41.2509 26.4338 40.6001 26.7432 40.5088 27.4414C40.4524 27.8674 40.2507 28.2258 39.9035 28.5166C39.695 28.6913 39.6319 28.8958 39.7142 29.1303C39.739 29.2013 39.788 29.2441 39.8613 29.2587C40.4699 29.3822 40.6001 28.8919 40.8249 28.4895C40.8609 28.4264 40.9115 28.3729 40.9724 28.3334C41.0333 28.294 41.1027 28.2698 41.1749 28.263C41.5062 28.2314 41.8122 28.1306 42.0928 27.9604C42.5166 27.7023 42.9466 27.4893 43.3828 27.3213C43.4369 27.2999 43.4718 27.2622 43.4876 27.2081C43.7327 26.3695 44.5459 26.072 45.0666 25.4397C45.3641 25.0779 45.7107 24.4203 46.2787 24.6248C46.3351 24.6451 46.3768 24.6288 46.4038 24.5758C46.7014 23.9824 47.2069 23.4533 47.8172 23.1693C48.126 23.0261 48.3424 22.8571 48.4664 22.6621C49.1291 21.6291 49.8662 20.608 50.7656 19.8439C51.4367 19.2758 52.1451 18.7315 52.6658 18.04C53.342 17.1451 54.0554 16.1821 54.8061 15.1508C54.9391 14.9671 55.0405 14.7518 55.1104 14.505C55.2332 14.0666 55.4502 13.693 55.7612 13.3841C56.2121 12.9378 56.6663 12.4836 57.1239 12.0215C57.1354 12.0098 57.1499 12.0014 57.1659 11.9974C57.1819 11.9934 57.1987 11.9939 57.2144 11.9988C57.2301 12.0037 57.2442 12.0128 57.255 12.0252C57.2659 12.0375 57.2732 12.0526 57.276 12.0689L57.3217 12.3258C57.3374 12.4182 57.3746 12.4273 57.4332 12.3529C57.538 12.2159 57.6209 12.0689 57.7477 11.9471C58.2368 11.4726 58.8156 11.1858 59.4839 11.0866C59.5538 11.0765 59.5899 11.1069 59.5921 11.1779C59.5944 11.2805 59.5476 11.3599 59.4518 11.4163C59.2354 11.5425 59.0477 11.6744 58.8888 11.8119C58.7964 11.893 58.8071 11.9094 58.9209 11.8609ZM29.3014 17.4228C29.8391 17.8193 30.578 17.8967 31.3556 17.6381C32.1332 17.3795 32.8857 16.806 33.4477 16.0438C34.0096 15.2815 34.3349 14.3931 34.3521 13.5738C34.3692 12.7545 34.0767 12.0715 33.539 11.6751C33.0013 11.2786 32.2623 11.2012 31.4847 11.4598C30.7072 11.7185 29.9546 12.2919 29.3927 13.0542C28.8307 13.8164 28.5054 14.7048 28.4883 15.5241C28.4712 16.3434 28.7636 17.0264 29.3014 17.4228ZM37.3643 60.0883C37.3558 59.7282 37.3389 59.3647 37.2426 59.0181C36.9946 58.121 36.8323 57.2098 36.7557 56.2845C36.7538 56.2622 36.7458 56.2409 36.7323 56.2231C36.7189 56.2052 36.7008 56.1915 36.6799 56.1836C36.659 56.1756 36.6363 56.1737 36.6145 56.1781C36.5926 56.1825 36.5724 56.193 36.5562 56.2084C36.4728 56.2873 36.4204 56.3938 36.399 56.5279C36.2671 57.336 36.1583 58.0906 36.0727 58.7916C36.0355 59.0959 36.098 59.4171 36.1504 59.7214C36.1617 59.7936 36.1403 59.8538 36.0862 59.9023C35.7836 60.1728 35.8072 60.6648 35.7565 61.0536C35.743 61.1483 35.7746 61.1663 35.8512 61.1077C36.4395 60.6535 37.0876 60.5729 37.7954 60.8659C37.9024 60.911 37.9515 60.8755 37.9425 60.7594L37.9323 60.6445C37.9281 60.5955 37.9119 60.5484 37.8851 60.5071C37.8582 60.4658 37.8216 60.4317 37.7785 60.4078L37.4488 60.2269C37.4237 60.2136 37.4026 60.1937 37.3877 60.1693C37.3729 60.1449 37.3648 60.117 37.3643 60.0883Z" fill="#080808"/>
<path d="M8.132 105V103.292H10.456C10.8853 103.292 11.2213 103.166 11.464 102.914C11.7067 102.662 11.828 102.354 11.828 101.99C11.828 101.738 11.772 101.514 11.66 101.318C11.548 101.122 11.3893 100.968 11.184 100.856C10.988 100.744 10.7453 100.688 10.456 100.688H8.132V99.022H10.274C10.638 99.022 10.932 98.9333 11.156 98.756C11.38 98.5693 11.492 98.2893 11.492 97.916C11.492 97.552 11.38 97.2813 11.156 97.104C10.932 96.9173 10.638 96.824 10.274 96.824H8.132V95.116H10.694C11.3287 95.116 11.8653 95.2327 12.304 95.466C12.752 95.6993 13.0927 96.012 13.326 96.404C13.5593 96.796 13.676 97.23 13.676 97.706C13.676 98.3127 13.48 98.826 13.088 99.246C12.696 99.666 12.1173 99.9553 11.352 100.114L11.408 99.372C12.2387 99.5307 12.878 99.8527 13.326 100.338C13.7833 100.823 14.012 101.421 14.012 102.13C14.012 102.671 13.8767 103.161 13.606 103.6C13.3447 104.029 12.962 104.37 12.458 104.622C11.9633 104.874 11.366 105 10.666 105H8.132ZM6.452 105V95.116H8.622V105H6.452ZM18.0667 105.14C17.4414 105.14 16.8814 104.986 16.3868 104.678C15.9014 104.37 15.5141 103.95 15.2248 103.418C14.9448 102.886 14.8048 102.279 14.8048 101.598C14.8048 100.917 14.9448 100.31 15.2248 99.778C15.5141 99.246 15.9014 98.826 16.3868 98.518C16.8814 98.21 17.4414 98.056 18.0667 98.056C18.5241 98.056 18.9348 98.1447 19.2988 98.322C19.6721 98.4993 19.9754 98.7467 20.2088 99.064C20.4421 99.372 20.5728 99.7267 20.6008 100.128V103.068C20.5728 103.469 20.4421 103.829 20.2088 104.146C19.9848 104.454 19.6861 104.697 19.3128 104.874C18.9394 105.051 18.5241 105.14 18.0667 105.14ZM18.5008 103.208C18.9581 103.208 19.3268 103.059 19.6068 102.76C19.8868 102.452 20.0268 102.065 20.0268 101.598C20.0268 101.281 19.9614 101.001 19.8308 100.758C19.7094 100.515 19.5321 100.329 19.2988 100.198C19.0748 100.058 18.8134 99.988 18.5148 99.988C18.2161 99.988 17.9501 100.058 17.7168 100.198C17.4928 100.329 17.3108 100.515 17.1708 100.758C17.0401 101.001 16.9748 101.281 16.9748 101.598C16.9748 101.906 17.0401 102.181 17.1708 102.424C17.3014 102.667 17.4834 102.858 17.7168 102.998C17.9501 103.138 18.2114 103.208 18.5008 103.208ZM19.9428 105V103.166L20.2648 101.514L19.9428 99.862V98.196H22.0428V105H19.9428ZM26.4489 105.14C25.8049 105.14 25.2309 104.986 24.7269 104.678C24.2323 104.37 23.8403 103.95 23.5509 103.418C23.2709 102.886 23.1309 102.279 23.1309 101.598C23.1309 100.917 23.2709 100.31 23.5509 99.778C23.8403 99.246 24.2323 98.826 24.7269 98.518C25.2309 98.21 25.8049 98.056 26.4489 98.056C26.9156 98.056 27.3356 98.1447 27.7089 98.322C28.0916 98.4993 28.4043 98.7467 28.6469 99.064C28.8989 99.372 29.0389 99.7267 29.0669 100.128V102.998C29.0389 103.399 28.9036 103.763 28.6609 104.09C28.4183 104.407 28.1056 104.664 27.7229 104.86C27.3403 105.047 26.9156 105.14 26.4489 105.14ZM26.8269 103.208C27.1349 103.208 27.4009 103.143 27.6249 103.012C27.8489 102.872 28.0263 102.681 28.1569 102.438C28.2876 102.195 28.3529 101.915 28.3529 101.598C28.3529 101.281 28.2876 101.005 28.1569 100.772C28.0356 100.529 27.8583 100.338 27.6249 100.198C27.4009 100.058 27.1396 99.988 26.8409 99.988C26.5423 99.988 26.2763 100.058 26.0429 100.198C25.8189 100.338 25.6369 100.529 25.4969 100.772C25.3663 101.015 25.3009 101.29 25.3009 101.598C25.3009 101.906 25.3663 102.181 25.4969 102.424C25.6276 102.667 25.8096 102.858 26.0429 102.998C26.2763 103.138 26.5376 103.208 26.8269 103.208ZM30.3689 105H28.2689V103.166L28.5909 101.514L28.2269 99.862V94.836H30.3689V105ZM31.8771 105V98.196H34.0191V105H31.8771ZM36.2311 105V101.024C36.2311 100.679 36.1238 100.413 35.9091 100.226C35.7038 100.03 35.4471 99.932 35.1391 99.932C34.9244 99.932 34.7331 99.9787 34.5651 100.072C34.3971 100.156 34.2618 100.277 34.1591 100.436C34.0658 100.595 34.0191 100.791 34.0191 101.024L33.1931 100.66C33.1931 100.119 33.3098 99.6567 33.5431 99.274C33.7764 98.882 34.0938 98.5833 34.4951 98.378C34.8964 98.1633 35.3491 98.056 35.8531 98.056C36.3291 98.056 36.7538 98.1633 37.1271 98.378C37.5098 98.5927 37.8131 98.8913 38.0371 99.274C38.2611 99.6567 38.3731 100.114 38.3731 100.646V105H36.2311ZM40.5851 105V101.024C40.5851 100.679 40.4778 100.413 40.2631 100.226C40.0578 100.03 39.8011 99.932 39.4931 99.932C39.2784 99.932 39.0871 99.9787 38.9191 100.072C38.7511 100.156 38.6158 100.277 38.5131 100.436C38.4198 100.595 38.3731 100.791 38.3731 101.024L37.1411 100.856C37.1598 100.277 37.2951 99.7827 37.5471 99.372C37.8084 98.952 38.1491 98.63 38.5691 98.406C38.9984 98.1727 39.4791 98.056 40.0111 98.056C40.5338 98.056 40.9958 98.168 41.3971 98.392C41.8078 98.6067 42.1298 98.9193 42.3631 99.33C42.6058 99.7313 42.7271 100.217 42.7271 100.786V105H40.5851ZM44.0998 105V98.196H46.2418V105H44.0998ZM45.1778 97.258C44.8418 97.258 44.5618 97.146 44.3378 96.922C44.1231 96.6887 44.0158 96.4087 44.0158 96.082C44.0158 95.746 44.1231 95.466 44.3378 95.242C44.5618 95.018 44.8418 94.906 45.1778 94.906C45.5138 94.906 45.7891 95.018 46.0038 95.242C46.2184 95.466 46.3258 95.746 46.3258 96.082C46.3258 96.4087 46.2184 96.6887 46.0038 96.922C45.7891 97.146 45.5138 97.258 45.1778 97.258ZM52.2441 105V101.122C52.2441 100.767 52.1321 100.483 51.9081 100.268C51.6935 100.044 51.4181 99.932 51.0821 99.932C50.8488 99.932 50.6435 99.9833 50.4661 100.086C50.2888 100.179 50.1488 100.319 50.0461 100.506C49.9435 100.683 49.8921 100.889 49.8921 101.122L49.0661 100.716C49.0661 100.184 49.1828 99.7173 49.4161 99.316C49.6495 98.9147 49.9715 98.6067 50.3821 98.392C50.8021 98.168 51.2735 98.056 51.7961 98.056C52.3001 98.056 52.7435 98.1773 53.1261 98.42C53.5181 98.6533 53.8261 98.966 54.0501 99.358C54.2741 99.75 54.3861 100.179 54.3861 100.646V105H52.2441ZM47.7501 105V98.196H49.8921V105H47.7501ZM56.6458 105V95.382H58.7878V105H56.6458ZM55.1058 100.016V98.196H60.3278V100.016H55.1058ZM64.4109 105.154C63.7109 105.154 63.0762 105 62.5069 104.692C61.9469 104.375 61.5036 103.945 61.1769 103.404C60.8502 102.863 60.6869 102.256 60.6869 101.584C60.6869 100.912 60.8502 100.31 61.1769 99.778C61.5036 99.246 61.9469 98.826 62.5069 98.518C63.0669 98.2007 63.7016 98.042 64.4109 98.042C65.1202 98.042 65.7549 98.196 66.3149 98.504C66.8749 98.812 67.3182 99.2367 67.6449 99.778C67.9716 100.31 68.1349 100.912 68.1349 101.584C68.1349 102.256 67.9716 102.863 67.6449 103.404C67.3182 103.945 66.8749 104.375 66.3149 104.692C65.7549 105 65.1202 105.154 64.4109 105.154ZM64.4109 103.208C64.7189 103.208 64.9896 103.143 65.2229 103.012C65.4562 102.872 65.6336 102.681 65.7549 102.438C65.8856 102.186 65.9509 101.901 65.9509 101.584C65.9509 101.267 65.8856 100.991 65.7549 100.758C65.6242 100.515 65.4422 100.329 65.2089 100.198C64.9849 100.058 64.7189 99.988 64.4109 99.988C64.1122 99.988 63.8462 100.058 63.6129 100.198C63.3796 100.329 63.1976 100.515 63.0669 100.758C62.9362 101.001 62.8709 101.281 62.8709 101.598C62.8709 101.906 62.9362 102.186 63.0669 102.438C63.1976 102.681 63.3796 102.872 63.6129 103.012C63.8462 103.143 64.1122 103.208 64.4109 103.208ZM73.6953 105V101.122C73.6953 100.767 73.5833 100.483 73.3593 100.268C73.1446 100.044 72.8693 99.932 72.5333 99.932C72.3 99.932 72.0946 99.9833 71.9173 100.086C71.74 100.179 71.6 100.319 71.4973 100.506C71.3946 100.683 71.3433 100.889 71.3433 101.122L70.5173 100.716C70.5173 100.184 70.634 99.7173 70.8673 99.316C71.1006 98.9147 71.4226 98.6067 71.8333 98.392C72.2533 98.168 72.7246 98.056 73.2473 98.056C73.7513 98.056 74.1946 98.1773 74.5773 98.42C74.9693 98.6533 75.2773 98.966 75.5013 99.358C75.7253 99.75 75.8373 100.179 75.8373 100.646V105H73.6953ZM69.2013 105V98.196H71.3433V105H69.2013Z" fill="white"/>
</svg>
