<svg width="88" height="110" viewBox="0 0 88 110" fill="none" xmlns="http://www.w3.org/2000/svg">
<circle cx="44" cy="41" r="41" fill="#F1F1F0"/>
<g clip-path="url(#clip0_1_2566)">
<path d="M21.699 22H21.7897C22.036 22.0463 22.2619 22.0594 22.4674 22.0393C22.5374 22.0322 22.5911 22.0509 22.6284 22.0952C22.648 22.1187 22.6748 22.1349 22.7047 22.1413C22.9306 22.1889 23.0364 22.4926 23.0772 22.6989C23.2434 23.5285 23.3451 24.3661 23.3824 25.2119C23.4202 26.0737 23.4517 26.9237 23.4768 27.7619C23.4779 27.7891 23.4917 27.8054 23.5184 27.811C23.5854 27.8246 23.6536 27.8389 23.7232 27.854C23.9498 27.9039 23.9188 28.1789 23.9324 28.3444C23.935 28.3721 23.9493 28.3907 23.9755 28.4003C24.039 28.423 24.1027 28.4358 24.1667 28.4388C24.4558 28.4535 24.7492 28.4514 25.0469 28.4328C25.077 28.4309 25.1055 28.4185 25.1274 28.3978C25.1494 28.3771 25.1634 28.3494 25.167 28.3195C25.1947 28.0963 25.3164 27.9571 25.532 27.9016C25.5446 27.8987 25.558 27.9006 25.5697 27.9069L25.77 28.0157C25.7835 28.0228 25.7991 28.0252 25.8141 28.0224C25.8292 28.0197 25.8429 28.012 25.8531 28.0006C26.0042 27.8291 26.0714 27.6795 26.3442 27.7913C26.3699 27.8019 26.3945 27.8007 26.4182 27.7876C26.6396 27.6659 26.7756 27.5616 27.0302 27.6931C27.0499 27.7032 27.07 27.7044 27.0907 27.6969C27.1957 27.6576 27.2886 27.5926 27.4012 27.5768C27.8727 27.5103 28.1182 27.9908 28.2444 28.3693C28.251 28.3892 28.2636 28.4065 28.2804 28.4188C28.2972 28.4311 28.3173 28.4379 28.3381 28.4381C30.0864 28.4728 31.8507 28.4638 33.6104 28.488C36.9524 28.5338 40.2519 28.5585 43.5089 28.562C44.0262 28.5625 44.5296 28.5653 45.0192 28.5703C48.9209 28.6096 53.0546 28.6343 57.4202 28.6444C58.0722 28.6459 58.75 28.6836 59.4186 28.6693C59.4423 28.6689 59.4652 28.6608 59.4838 28.6462C59.5024 28.6315 59.5156 28.6113 59.5214 28.5884C59.6544 28.0664 60.0284 27.6448 60.6071 27.8646C60.6358 27.8757 60.6648 27.8772 60.694 27.8692C60.8381 27.8309 60.9786 27.8286 61.1156 27.8624C61.2267 27.8896 61.2796 27.9651 61.3574 28.0384C61.3805 28.0601 61.4077 28.0699 61.439 28.0679C61.6468 28.0565 61.6823 28.1804 61.7835 28.3172C61.7964 28.3344 61.8147 28.3469 61.8354 28.3525C61.856 28.3581 61.878 28.3566 61.8976 28.3482C61.945 28.3285 61.99 28.3051 62.0328 28.2779C62.2527 28.1389 62.4469 28.4721 62.4756 28.6406C62.4822 28.6809 62.5061 28.702 62.5474 28.704C63.0138 28.7222 63.482 28.7355 63.952 28.7441C64.0766 28.7464 64.1658 28.763 64.2081 28.6202C64.3406 28.1754 64.4161 27.6984 64.4348 27.1892C64.473 26.1581 64.5655 25.1638 64.712 24.2062C64.776 23.7856 64.8697 23.3618 64.9931 22.9346C65.0853 22.615 65.2455 22.337 65.6059 22.3483C65.8441 22.3554 66.0935 22.3584 66.3539 22.3574C66.7588 22.3559 66.9696 23.0064 67.0437 23.326C67.159 23.8287 67.2361 24.35 67.2749 24.89C67.3504 25.9432 67.3844 27.0076 67.3769 28.083C67.3764 28.1686 67.4189 28.2255 67.5046 28.2537C67.6852 28.3119 67.8627 28.3255 68.041 28.3965C68.1926 28.457 68.3392 28.4857 68.4808 28.4827C69.0353 28.4716 69.8345 28.4807 70.8781 28.5099C71.8876 28.5381 73.7198 28.5565 76.3748 28.565C76.8228 28.5665 77.2701 28.5915 77.7325 28.6088C77.8791 28.6144 77.9595 28.693 77.9736 28.8446C78 29.1317 78.0453 29.7512 77.8451 30.0006C77.8345 30.014 77.821 30.0248 77.8055 30.0323C77.7901 30.0397 77.7731 30.0436 77.756 30.0436C76.1003 30.0447 74.2164 30.024 72.1044 29.9817C70.697 29.954 69.3915 29.9429 68.1876 29.9484C68.1736 29.9484 68.1598 29.9517 68.1473 29.958C68.1348 29.9643 68.124 29.9735 68.1158 29.9847C67.9753 30.1736 67.6731 30.1449 67.4638 30.1472C67.4407 30.1473 67.4184 30.1558 67.401 30.1711C67.3837 30.1863 67.3724 30.2074 67.3693 30.2303C67.3316 30.5189 67.3041 30.8219 67.287 31.1392C67.2557 31.7265 67.1998 32.4352 67.1192 33.2653C67.0533 33.9433 66.9457 34.5636 66.7966 35.1263C66.7097 35.4557 66.5027 36.0647 66.0766 36.0707C65.8222 36.0737 65.5892 36.0692 65.3777 36.0571C65.0664 36.039 64.8659 35.8745 64.7763 35.5637C64.6176 35.0142 64.5176 34.5092 64.4763 34.0488C64.4355 33.5925 64.3887 33.1293 64.3826 32.676C64.3705 31.7376 64.3323 30.9536 64.2678 30.324C64.2466 30.1149 64.2182 29.9001 64.1824 29.6795C64.1708 29.6069 64.1285 29.5707 64.0555 29.5707L62.5867 29.5646C62.5761 29.5646 62.5656 29.567 62.5561 29.5717C62.5466 29.5764 62.5383 29.5832 62.5319 29.5916C62.5255 29.6 62.5211 29.6098 62.519 29.6202C62.517 29.6306 62.5174 29.6413 62.5202 29.6515C62.5433 29.7366 62.5665 29.8187 62.5897 29.8978C62.6547 30.123 62.6343 30.4229 62.5292 30.6345C62.4386 30.8181 62.3351 30.9949 62.2761 31.1944C62.0351 32.0172 61.5742 32.7448 61.2093 33.4852C60.8617 34.1901 60.5761 34.9865 60.2346 35.7096C60.0875 36.0208 59.9102 36.3482 59.7027 36.6918C59.4481 37.1134 59.0537 37.4216 58.7303 37.7949C58.4548 38.1132 58.1767 38.4107 57.8962 38.6872C57.5101 39.0688 56.9449 39.034 56.6064 39.4722C56.138 40.0782 55.489 40.4446 54.8792 40.904C54.6095 41.1072 54.3028 41.2757 53.9922 41.3974C53.1656 41.7215 52.3383 42.057 51.4332 42.1952C51.3259 42.2114 51.2191 42.2743 51.1128 42.3841C50.7965 42.71 50.5852 43.0656 50.4789 43.451C50.3308 43.9882 50.2288 44.4936 49.9817 45.0089C49.6652 45.6693 49.5458 46.4936 49.4007 47.2318C49.2655 47.9216 49.0176 48.5782 48.8242 49.2597C48.7693 49.4546 48.7285 49.6556 48.7018 49.8626C48.6429 50.3165 48.5802 50.764 48.5137 51.2052C48.4749 51.4606 48.4631 51.75 48.4782 52.0734C48.4797 52.1061 48.4953 52.1288 48.525 52.1414L49.1385 52.4051C49.1704 52.4188 49.2049 52.4252 49.2396 52.4239C49.2742 52.4226 49.3081 52.4136 49.3388 52.3975C50.0278 52.0394 50.7154 51.8293 51.4981 51.9268C51.6659 51.9474 51.9167 51.9963 52.2507 52.0734C52.7085 52.1784 53.1611 52.3099 53.5986 52.5327C53.8368 52.6546 54.0716 52.7466 54.3028 52.8085C54.5249 52.8685 54.7138 52.9569 54.8694 53.0737C55.3749 53.4523 55.659 54.1995 55.7572 54.8115C55.801 55.086 55.8003 55.4225 55.7549 55.8209C55.7061 56.2491 55.6784 56.684 55.6718 57.1258C55.6688 57.3539 55.5766 57.5375 55.5691 57.7703C55.5577 58.1012 55.3726 58.3671 55.2608 58.6731C54.9878 59.4196 54.5929 60.2309 54.0761 61.1068C53.7648 61.6334 53.4157 62.1434 53.1332 62.6746C52.8999 63.1118 52.6506 63.553 52.3852 63.9983C52.2975 64.1449 52.2235 64.3081 52.163 64.4879C52.1227 64.6078 52.1116 64.7224 52.1298 64.8317C52.1504 64.9596 52.1547 65.0923 52.1426 65.2299C52.0663 66.1086 53.0984 66.8263 53.7127 67.2638C53.9363 67.4232 54.1146 67.7088 54.0217 67.9967C54.0136 68.0214 54.0131 68.0461 54.0202 68.0707C54.069 68.2455 54.0877 68.4201 54.0761 68.5943C54.0754 68.6063 54.0711 68.6177 54.0637 68.6271C54.0562 68.6364 54.046 68.6432 54.0345 68.6465C53.4805 68.8117 52.8944 68.8764 52.2764 68.8407C51.9328 68.821 51.5891 68.7986 51.245 68.7734C51.1362 68.7654 51.0309 68.7382 50.9292 68.6918C50.6678 68.5732 50.5348 68.3012 50.225 68.3012C49.8855 68.3007 49.5543 68.2576 49.2315 68.172C49.2088 68.1659 49.1937 68.1516 49.1861 68.1289C49.0788 67.8101 49.2133 67.2147 49.307 66.8709C49.3836 66.5899 49.4219 66.201 49.4219 65.7043C49.4219 65.5381 49.6168 65.4195 49.7264 65.3228C49.7495 65.3026 49.7646 65.2775 49.7717 65.2472C49.7959 65.1407 49.811 65.0447 49.8631 64.945C49.9921 64.6972 50.0638 64.5184 50.0784 64.4086C50.1807 63.6198 50.3681 62.8385 50.6406 62.0648C50.7108 61.8646 50.7562 61.6515 50.8068 61.4453C50.9096 61.0305 50.8589 60.556 50.8892 60.1321C50.9594 59.1408 51.3742 58.1783 51.7664 57.2754C51.7691 57.2691 51.7704 57.2622 51.7702 57.2554C51.77 57.2485 51.7682 57.2418 51.7652 57.2357C51.7621 57.2295 51.7576 57.2242 51.7522 57.2199C51.7468 57.2157 51.7406 57.2127 51.7339 57.2111C51.7157 57.2071 51.6999 57.2114 51.6863 57.224C50.6156 58.2508 49.2624 58.7721 47.802 58.6376C47.2509 58.5873 46.4891 58.4336 45.5164 58.1767C45.4484 58.1591 45.3814 58.1397 45.3154 58.1186C45.1165 58.0546 44.9245 58.0367 44.7397 58.0649C44.5652 58.0921 44.3974 58.1322 44.2176 58.1299C43.8418 58.1259 43.4734 58.1284 43.1122 58.1375C42.9042 58.143 42.6707 58.2017 42.4118 58.3135C42.1983 58.4062 41.9575 58.4802 41.6895 58.5356C41.0654 58.6641 40.4776 58.8635 39.8845 59.0192C39.6704 59.0756 39.3969 59.1099 39.064 59.1219C38.6884 59.1348 38.3447 58.955 37.985 58.8696C37.8974 58.8492 37.815 58.7857 37.7319 58.754C37.5173 58.6709 37.4602 58.7331 37.5604 58.9406C37.8651 59.5702 38.0253 60.246 38.0409 60.9678C38.0576 61.7241 38.2192 62.4381 38.3711 63.171C38.4308 63.4558 38.4361 63.7399 38.4595 64.0255C38.4852 64.33 38.5827 64.6065 38.7451 64.8831C38.9058 65.1586 39.072 65.4764 39.2438 65.8366C39.2735 65.8979 39.2862 65.966 39.2808 66.0338C39.2528 66.3738 39.2105 66.784 39.314 67.1135C39.4052 67.4041 39.4354 67.7194 39.4047 68.0594C39.3961 68.1591 39.3458 68.2287 39.2536 68.2679C39.0844 68.3405 38.9023 68.3964 38.7073 68.4357C38.421 68.4931 38.1596 68.8051 37.8286 68.852C37.3914 68.9139 36.9524 68.9618 36.5117 68.9955H36.2125C35.802 68.9678 35.3945 68.9197 34.99 68.8512C34.926 68.8407 34.8618 68.8253 34.7973 68.8051C34.7047 68.7764 34.6674 68.7142 34.6855 68.6185C34.7273 68.4055 34.7636 68.1848 34.7943 67.9567C34.8155 67.7995 34.8638 67.67 34.9394 67.5683C35.0764 67.3834 35.2325 67.2442 35.4078 67.1505C35.6446 67.0241 35.8171 66.8739 35.9254 66.7002C36.0818 66.4486 36.3137 66.305 36.5487 66.1448C36.6643 66.0663 36.7285 65.8993 36.6915 65.764C36.6527 65.6235 36.6525 65.4865 36.6908 65.353C36.7054 65.3026 36.7061 65.25 36.693 65.1951C36.6568 65.0417 36.6666 64.9087 36.5993 64.7561C36.5072 64.5476 36.4059 64.3524 36.2956 64.1706C35.9677 63.6281 35.6813 63.0599 35.2854 62.5582C35.2028 62.4544 35.12 62.32 35.0368 62.1548C34.6913 61.4697 34.4384 60.9081 34.2783 60.4699C34.106 59.9964 33.9227 59.5216 33.7282 59.0456C33.6942 58.961 33.6927 58.8719 33.6821 58.7827C33.6625 58.624 33.5839 58.4767 33.5235 58.3294C33.4615 58.179 33.4774 58.0067 33.4849 57.8511C33.5129 57.2436 33.5091 56.5531 33.624 55.9887C33.7841 55.2014 34.1871 54.545 34.8328 54.0197C35.809 53.2248 36.7776 52.5048 38.1006 52.6536C38.1354 52.6577 38.1681 52.6509 38.1988 52.6332C38.6693 52.3617 38.9317 52.0114 38.9861 51.5823C39.0118 51.382 39.1048 51.206 39.1667 51.0163C39.1939 50.9337 39.2279 50.8519 39.2687 50.7708C39.3538 50.601 39.381 50.3845 39.3503 50.121C39.303 49.7145 39.246 49.3287 39.1796 48.9635C39.1418 48.7542 39.1652 48.5404 39.0768 48.3492C38.9892 48.1596 39.0065 47.9715 38.9453 47.7758C38.9098 47.6617 38.9378 47.5574 38.9242 47.4433C38.8214 46.5981 38.6879 45.9083 38.5237 45.3739C38.4482 45.1276 38.2537 44.6206 37.9404 43.8529C37.7584 43.4064 37.5415 43.0173 37.234 42.6388C37.1015 42.4766 36.9162 42.3758 36.6779 42.3365C36.2765 42.271 35.8297 42.1169 35.3376 41.8741C34.5573 41.4888 33.9196 41.0989 33.4245 40.7045C32.7936 40.2021 32.0018 39.856 31.5371 39.1677C31.2168 38.6932 30.675 38.7023 30.2821 38.3396C30.0555 38.1304 29.8364 37.909 29.6414 37.6732C29.4812 37.4793 29.3211 37.3088 29.1609 37.1617C29.0138 37.0267 28.874 36.861 28.7416 36.6646C28.3799 36.1296 28.1104 35.6992 27.9331 35.3733C27.7699 35.0731 27.609 34.7467 27.4503 34.3941C27.1118 33.6408 26.7068 32.9352 26.3374 32.203C26.0948 31.724 25.9445 31.1981 25.5743 30.8136C25.1972 30.4229 25.2139 29.9522 25.2879 29.4528C25.306 29.3309 25.2532 29.2697 25.1292 29.2692L24.0571 29.2684C24.0352 29.2685 24.0139 29.2759 23.9966 29.2894C23.9794 29.303 23.9671 29.3219 23.9619 29.3432L23.8236 29.9114C23.8171 29.9386 23.8 29.9532 23.7723 29.9552L23.5781 29.9719C23.4698 29.9809 23.4144 30.0399 23.4119 30.1487C23.3816 31.3188 23.3197 32.4309 23.226 33.4852C23.1905 33.8856 23.0129 35.6899 22.4644 35.7141C22.0987 35.7297 21.8068 35.7252 21.5887 35.7005C21.2253 35.6589 21.0772 35.2925 21.0168 34.9804C20.8677 34.2098 20.7709 33.4361 20.7266 32.6594C20.6773 31.791 20.6417 30.9329 20.6201 30.0852C20.6181 30.0071 20.578 29.9681 20.5 29.9681L19.8283 29.9673C19.802 29.9674 19.7764 29.9592 19.7549 29.9439C19.7334 29.9286 19.717 29.907 19.7081 29.882L19.628 29.6606C19.6192 29.6356 19.6028 29.614 19.5811 29.5987C19.5595 29.5834 19.5337 29.5752 19.5072 29.5752L10.2486 29.5692C10.2023 29.5691 10.1575 29.5522 10.1228 29.5214C10.088 29.4907 10.0656 29.4483 10.0597 29.4022L10 28.9247V28.5839L10.0642 28.2484C10.0725 28.2059 10.0953 28.1676 10.1288 28.1401C10.1623 28.1125 10.2044 28.0974 10.2478 28.0973C13.3224 28.1009 16.4064 28.1046 19.4996 28.1087C19.5877 28.1087 19.6714 28.0903 19.7504 28.0535C19.9157 27.9764 20.1375 27.9613 20.4161 28.0082C20.5501 28.0308 20.6188 27.9752 20.6224 27.8412C20.6322 27.4876 20.6798 27.1264 20.6934 26.7721C20.7171 26.1687 20.7468 25.5728 20.7825 24.9844C20.8299 24.2097 20.9425 23.4461 21.1203 22.6936C21.1981 22.3627 21.3386 22.0854 21.699 22ZM41.5346 36.4848L41.6804 36.4674C41.696 36.4656 41.711 36.4605 41.7244 36.4524C41.7379 36.4444 41.7494 36.4337 41.7584 36.4209C41.7673 36.4081 41.7734 36.3935 41.7762 36.3782C41.7791 36.3629 41.7786 36.3472 41.7749 36.3321C41.7064 36.0475 41.6621 35.7544 41.6419 35.4527C41.5777 34.4946 42.201 33.6809 43.0352 33.2676C43.9804 32.7999 45.3147 32.8687 46.1035 33.6174C46.6029 34.0912 46.8016 34.6661 46.8575 35.3567C46.8832 35.6816 46.828 36.0156 46.7978 36.3382C46.7969 36.3473 46.798 36.3565 46.801 36.3652C46.8041 36.3738 46.809 36.3817 46.8154 36.3883C46.8218 36.3948 46.8296 36.3999 46.8382 36.4031C46.8467 36.4063 46.8559 36.4076 46.8651 36.4069C47.0479 36.3926 47.1288 36.5316 47.128 36.6956C47.127 37.0053 47.089 37.2932 47.0139 37.5592C46.9504 37.7838 46.816 37.979 46.6104 38.1447C46.5888 38.1618 46.58 38.1842 46.584 38.212C46.6298 38.5227 46.6115 38.7957 46.5288 39.031C46.5214 39.0518 46.5221 39.0746 46.5308 39.095C46.5394 39.1155 46.5555 39.132 46.5757 39.1413L47.5058 39.5689C47.5305 39.58 47.5551 39.5798 47.5798 39.5682C47.9803 39.3798 48.2704 39.2675 48.4502 39.2312C48.6996 39.1808 48.9109 39.1158 49.0841 39.0363C49.2675 38.9516 49.4385 38.8945 49.5972 38.8648C50.3172 38.7288 51.0584 38.7084 51.7732 38.7529C51.8606 38.7588 51.9476 38.7366 52.0217 38.6895C52.7516 38.224 53.5165 37.7438 54.3164 37.2486C54.7644 36.9713 55.1354 36.6759 55.5056 36.3019C56.2586 35.5413 57.0384 34.8097 57.8448 34.107C58.3306 33.6824 58.6812 33.3484 59.0129 32.8906C59.3227 32.4619 59.6941 31.901 60.1273 31.208C60.3374 30.8725 60.5452 30.5604 60.0586 30.2786C59.6748 30.0565 59.4156 29.816 59.2811 29.5571C59.268 29.5319 59.2471 29.5183 59.2184 29.5163C59.0945 29.5087 58.9643 29.5049 58.8278 29.5049C57.6355 29.5034 56.4077 29.4918 55.1444 29.4702C52.9541 29.4324 50.763 29.4384 48.5711 29.4097C44.8382 29.3619 40.9909 29.3364 37.0292 29.3334C36.582 29.3329 36.0785 29.3291 35.5189 29.3221C33.2366 29.2924 30.9339 29.282 28.6108 29.2911C28.5836 29.2911 28.5605 29.3012 28.5413 29.3213L27.6717 30.2446C27.6369 30.2816 27.6169 30.33 27.6157 30.3806C27.6144 30.4313 27.632 30.4805 27.6649 30.5189C27.8606 30.7471 27.9868 31.0153 28.1651 31.2601C28.4582 31.6636 28.7383 32.0713 29.0052 32.4833C29.2652 32.8845 29.5953 33.2888 29.9776 33.5623C31.1498 34.4014 32.1599 35.3701 33.0082 36.4681C33.1623 36.6676 33.3424 36.8144 33.5484 36.9086C34.1826 37.1982 34.8449 37.5609 35.5355 37.9966C35.6695 38.0812 35.7914 38.1676 35.9012 38.2558C36.1294 38.4409 36.3742 38.6887 36.6794 38.7295C37.3045 38.8141 37.9112 38.9033 38.4996 38.997C39.109 39.0947 39.7105 39.2745 40.3038 39.5364C40.7012 39.7117 41.0261 39.4556 41.3805 39.3763C41.6187 39.3229 41.853 39.2665 42.0832 39.207C42.1849 39.1803 42.2164 39.1184 42.1776 39.0212C42.0799 38.7718 42.0237 38.5331 42.0091 38.3049C42.0076 38.2812 41.9978 38.2618 41.9796 38.2467C41.6331 37.9576 41.445 37.5602 41.4152 37.0544C41.4037 36.8499 41.4278 36.6721 41.4878 36.521C41.4963 36.4994 41.512 36.4873 41.5346 36.4848Z" fill="black"/>
</g>
<path d="M2.632 102.402V100.694H4.76C5.03067 100.694 5.278 100.638 5.502 100.526C5.726 100.414 5.90333 100.251 6.034 100.036C6.16467 99.8213 6.23 99.56 6.23 99.252C6.23 98.9533 6.16467 98.6967 6.034 98.482C5.90333 98.2673 5.726 98.104 5.502 97.992C5.278 97.88 5.03067 97.824 4.76 97.824H2.632V96.116H5.082C5.70733 96.116 6.272 96.242 6.776 96.494C7.28 96.746 7.67667 97.11 7.966 97.586C8.26467 98.0527 8.414 98.608 8.414 99.252C8.414 99.896 8.26467 100.456 7.966 100.932C7.67667 101.399 7.28 101.763 6.776 102.024C6.272 102.276 5.70733 102.402 5.082 102.402H2.632ZM0.952 106V96.116H3.15V106H0.952ZM12.5359 106.154C11.8359 106.154 11.2012 106 10.6319 105.692C10.0719 105.375 9.62857 104.945 9.30191 104.404C8.97524 103.863 8.81191 103.256 8.81191 102.584C8.81191 101.912 8.97524 101.31 9.30191 100.778C9.62857 100.246 10.0719 99.826 10.6319 99.518C11.1919 99.2007 11.8266 99.042 12.5359 99.042C13.2452 99.042 13.8799 99.196 14.4399 99.504C14.9999 99.812 15.4432 100.237 15.7699 100.778C16.0966 101.31 16.2599 101.912 16.2599 102.584C16.2599 103.256 16.0966 103.863 15.7699 104.404C15.4432 104.945 14.9999 105.375 14.4399 105.692C13.8799 106 13.2452 106.154 12.5359 106.154ZM12.5359 104.208C12.8439 104.208 13.1146 104.143 13.3479 104.012C13.5812 103.872 13.7586 103.681 13.8799 103.438C14.0106 103.186 14.0759 102.901 14.0759 102.584C14.0759 102.267 14.0106 101.991 13.8799 101.758C13.7492 101.515 13.5672 101.329 13.3339 101.198C13.1099 101.058 12.8439 100.988 12.5359 100.988C12.2372 100.988 11.9712 101.058 11.7379 101.198C11.5046 101.329 11.3226 101.515 11.1919 101.758C11.0612 102.001 10.9959 102.281 10.9959 102.598C10.9959 102.906 11.0612 103.186 11.1919 103.438C11.3226 103.681 11.5046 103.872 11.7379 104.012C11.9712 104.143 12.2372 104.208 12.5359 104.208ZM18.8556 106L16.5036 99.196H18.6036L20.0596 104.138L19.4436 104.152L21.0536 99.196H22.7896L24.4136 104.152L23.7836 104.138L25.2536 99.196H27.3536L25.0016 106H23.2516L21.6696 101.296H22.2016L20.5916 106H18.8556ZM31.4051 106.154C30.6677 106.154 30.0097 106.005 29.4311 105.706C28.8617 105.398 28.4137 104.973 28.0871 104.432C27.7604 103.891 27.5971 103.279 27.5971 102.598C27.5971 101.917 27.7557 101.31 28.0731 100.778C28.3997 100.237 28.8384 99.812 29.3891 99.504C29.9397 99.196 30.5604 99.042 31.2511 99.042C31.9231 99.042 32.5157 99.1867 33.0291 99.476C33.5424 99.7653 33.9437 100.167 34.2331 100.68C34.5317 101.193 34.6811 101.781 34.6811 102.444C34.6811 102.565 34.6717 102.696 34.6531 102.836C34.6437 102.967 34.6204 103.121 34.5831 103.298L28.7171 103.312V101.842L33.6731 101.828L32.7491 102.444C32.7397 102.052 32.6791 101.73 32.5671 101.478C32.4551 101.217 32.2871 101.021 32.0631 100.89C31.8484 100.75 31.5824 100.68 31.2651 100.68C30.9291 100.68 30.6351 100.759 30.3831 100.918C30.1404 101.067 29.9491 101.282 29.8091 101.562C29.6784 101.842 29.6131 102.183 29.6131 102.584C29.6131 102.985 29.6831 103.331 29.8231 103.62C29.9724 103.9 30.1777 104.119 30.4391 104.278C30.7097 104.427 31.0271 104.502 31.3911 104.502C31.7271 104.502 32.0304 104.446 32.3011 104.334C32.5717 104.213 32.8097 104.035 33.0151 103.802L34.1911 104.978C33.8551 105.37 33.4491 105.664 32.9731 105.86C32.4971 106.056 31.9744 106.154 31.4051 106.154ZM35.715 106V99.196H37.857V106H35.715ZM37.857 102.262L36.961 101.562C37.1383 100.769 37.437 100.153 37.857 99.714C38.277 99.2753 38.8603 99.056 39.607 99.056C39.9337 99.056 40.2183 99.1073 40.461 99.21C40.713 99.3033 40.9323 99.4527 41.119 99.658L39.845 101.268C39.7517 101.165 39.635 101.086 39.495 101.03C39.355 100.974 39.1963 100.946 39.019 100.946C38.6643 100.946 38.3797 101.058 38.165 101.282C37.9597 101.497 37.857 101.823 37.857 102.262ZM44.7977 106V96.116H46.9957V106H44.7977ZM46.4917 106V104.068H51.3777V106H46.4917ZM52.4494 106V99.196H54.5914V106H52.4494ZM53.5274 98.258C53.1914 98.258 52.9114 98.146 52.6874 97.922C52.4727 97.6887 52.3654 97.4087 52.3654 97.082C52.3654 96.746 52.4727 96.466 52.6874 96.242C52.9114 96.018 53.1914 95.906 53.5274 95.906C53.8634 95.906 54.1387 96.018 54.3534 96.242C54.568 96.466 54.6754 96.746 54.6754 97.082C54.6754 97.4087 54.568 97.6887 54.3534 97.922C54.1387 98.146 53.8634 98.258 53.5274 98.258ZM56.9678 106V98.608C56.9678 98.0573 57.0891 97.5627 57.3318 97.124C57.5838 96.676 57.9338 96.326 58.3818 96.074C58.8298 95.8127 59.3618 95.682 59.9778 95.682C60.4444 95.682 60.8504 95.7613 61.1958 95.92C61.5504 96.0693 61.8584 96.2793 62.1198 96.55L60.7758 97.894C60.6824 97.8007 60.5751 97.7307 60.4538 97.684C60.3418 97.628 60.2064 97.6 60.0478 97.6C59.7584 97.6 59.5298 97.684 59.3618 97.852C59.1938 98.02 59.1098 98.2487 59.1098 98.538V106H56.9678ZM55.4698 101.016V99.196H61.0698V101.016H55.4698ZM62.7669 106V96.382H64.9089V106H62.7669ZM61.2269 101.016V99.196H66.4489V101.016H61.2269ZM67.3927 106V99.196H69.5347V106H67.3927ZM68.4707 98.258C68.1347 98.258 67.8547 98.146 67.6307 97.922C67.4161 97.6887 67.3087 97.4087 67.3087 97.082C67.3087 96.746 67.4161 96.466 67.6307 96.242C67.8547 96.018 68.1347 95.906 68.4707 95.906C68.8067 95.906 69.0821 96.018 69.2967 96.242C69.5114 96.466 69.6187 96.746 69.6187 97.082C69.6187 97.4087 69.5114 97.6887 69.2967 97.922C69.0821 98.146 68.8067 98.258 68.4707 98.258ZM75.5371 106V102.122C75.5371 101.767 75.4251 101.483 75.2011 101.268C74.9864 101.044 74.7111 100.932 74.3751 100.932C74.1418 100.932 73.9364 100.983 73.7591 101.086C73.5818 101.179 73.4418 101.319 73.3391 101.506C73.2364 101.683 73.1851 101.889 73.1851 102.122L72.3591 101.716C72.3591 101.184 72.4758 100.717 72.7091 100.316C72.9424 99.9147 73.2644 99.6067 73.6751 99.392C74.0951 99.168 74.5664 99.056 75.0891 99.056C75.5931 99.056 76.0364 99.1773 76.4191 99.42C76.8111 99.6533 77.1191 99.966 77.3431 100.358C77.5671 100.75 77.6791 101.179 77.6791 101.646V106H75.5371ZM71.0431 106V99.196H73.1851V106H71.0431ZM81.9388 109.052C81.1922 109.052 80.5342 108.921 79.9648 108.66C79.4048 108.408 78.9615 108.049 78.6348 107.582L79.9508 106.266C80.1935 106.555 80.4642 106.775 80.7628 106.924C81.0708 107.073 81.4395 107.148 81.8688 107.148C82.4008 107.148 82.8162 107.017 83.1148 106.756C83.4228 106.495 83.5768 106.126 83.5768 105.65V103.914L83.9408 102.43L83.6188 100.946V99.196H85.7188V105.594C85.7188 106.294 85.5555 106.901 85.2288 107.414C84.9022 107.927 84.4542 108.329 83.8848 108.618C83.3155 108.907 82.6668 109.052 81.9388 109.052ZM81.8408 105.79C81.2155 105.79 80.6602 105.641 80.1748 105.342C79.6895 105.043 79.3068 104.637 79.0268 104.124C78.7468 103.611 78.6068 103.041 78.6068 102.416C78.6068 101.781 78.7468 101.212 79.0268 100.708C79.3068 100.195 79.6895 99.7933 80.1748 99.504C80.6602 99.2053 81.2155 99.056 81.8408 99.056C82.3075 99.056 82.7228 99.1447 83.0868 99.322C83.4602 99.49 83.7588 99.7327 83.9828 100.05C84.2162 100.358 84.3468 100.717 84.3748 101.128V103.718C84.3468 104.119 84.2162 104.479 83.9828 104.796C83.7588 105.104 83.4602 105.347 83.0868 105.524C82.7135 105.701 82.2982 105.79 81.8408 105.79ZM82.2468 103.886C82.5455 103.886 82.8022 103.821 83.0168 103.69C83.2408 103.559 83.4088 103.387 83.5208 103.172C83.6422 102.948 83.7028 102.696 83.7028 102.416C83.7028 102.136 83.6422 101.884 83.5208 101.66C83.4088 101.436 83.2408 101.259 83.0168 101.128C82.8022 100.997 82.5455 100.932 82.2468 100.932C81.9575 100.932 81.7008 100.997 81.4768 101.128C81.2528 101.259 81.0802 101.436 80.9588 101.66C80.8375 101.884 80.7768 102.136 80.7768 102.416C80.7768 102.677 80.8375 102.925 80.9588 103.158C81.0802 103.382 81.2482 103.559 81.4628 103.69C81.6868 103.821 81.9482 103.886 82.2468 103.886Z" fill="white"/>
<defs>
<clipPath id="clip0_1_2566">
<rect width="68" height="46.9955" fill="white" transform="translate(10 22)"/>
</clipPath>
</defs>
</svg>
