<svg width="82" height="109" viewBox="0 0 82 109" fill="none" xmlns="http://www.w3.org/2000/svg">
<circle cx="41" cy="41" r="41" fill="#F1F1F0"/>
<path fill-rule="evenodd" clip-rule="evenodd" d="M48.7304 19C48.8293 19 48.9283 19 49.0272 19C49.3588 19.1238 49.668 19.2969 49.9545 19.5193C50.3445 20.2428 50.4187 20.9846 50.177 21.7448C50.1111 23.1042 50.0617 24.4642 50.0286 25.8248C49.9421 26.0102 49.8061 26.1462 49.6206 26.2328C49.0661 26.4012 48.5221 26.599 47.9886 26.8263C47.0684 27.18 46.1287 27.4149 45.1697 27.531C45.3316 27.9337 45.4058 28.354 45.3922 28.7921C45.2849 30.3022 45.1612 31.8107 45.0213 33.3172C46.1922 33.2559 47.3544 33.1322 48.5079 32.9463C49.3732 32.9855 50.2387 33.0226 51.1043 33.0576C51.3548 33.0911 51.6021 33.1405 51.8461 33.206C52.0127 33.4932 52.1239 33.8022 52.1799 34.1332C52.3559 36.3626 52.5661 38.588 52.8105 40.8097C52.9825 40.7602 53.1557 40.7478 53.3298 40.7726C53.5468 41.2069 53.8188 41.6025 54.1458 41.9595C54.7064 42.0939 55.2751 42.1681 55.852 42.182C56.0647 42.383 56.1142 42.6179 56.0003 42.8868C55.6856 42.9794 55.3642 43.0413 55.036 43.0722C54.393 43.0969 53.7502 43.1217 53.1072 43.1464C52.5668 43.394 52.0104 43.4805 51.4381 43.406C51.3357 42.9892 51.2491 42.5688 51.1785 42.1449C51.1578 41.959 51.2196 41.8107 51.3639 41.6998C51.4134 41.2795 51.4134 40.8591 51.3639 40.4387C51.1581 39.829 50.9107 39.2356 50.6221 38.6584C50.3278 37.9121 50.1177 37.1455 49.9916 36.3587C50.0151 36.1308 49.9904 35.9083 49.9174 35.6911C49.8723 35.7003 49.8476 35.725 49.8432 35.7652C49.3203 35.8529 48.801 35.9641 48.2854 36.0991C47.634 36.3904 46.9664 36.6376 46.2824 36.8409C45.2411 37.0249 44.2025 37.2228 43.1668 37.4344C42.7681 38.1205 42.3601 38.8005 41.9427 39.4744C41.0173 41.1663 39.7191 42.4892 38.0482 43.4431C37.8256 43.4926 37.6031 43.4926 37.3805 43.4431C35.2577 42.9575 33.1312 42.4876 31.0008 42.0337C30.6307 41.9967 30.2598 41.9843 29.8881 41.9966C29.9064 42.2195 29.8322 42.405 29.6655 42.5529C28.563 42.4753 27.611 42.8091 26.8095 43.5544C26.5836 43.4398 26.4228 43.2667 26.3273 43.0351C26.5086 42.4748 26.7682 41.9556 27.1062 41.4773C27.3942 41.327 27.6786 41.1663 27.9593 40.9951C28.2283 40.5934 28.4879 40.1854 28.7383 39.7711C28.8751 39.5721 29.0606 39.4484 29.2946 39.4002C29.8997 39.715 30.4932 40.0488 31.075 40.4017C32.8309 40.383 34.5866 40.3583 36.342 40.3275C36.5506 40.4741 36.7483 40.6349 36.9354 40.8097C37.5445 40.237 38.0267 39.5694 38.382 38.8067C38.8024 38.2875 39.2227 37.7682 39.6431 37.2489C39.6678 36.6554 39.6926 36.062 39.7173 35.4685C39.8046 34.3544 40.2497 33.4148 41.0526 32.6496C41.2981 32.1578 41.3723 31.6385 41.2751 31.0917C41.0688 29.9645 40.9575 28.8271 40.9413 27.6794C40.9413 27.4073 40.9413 27.1354 40.9413 26.8633C40.8455 26.8458 40.7713 26.8705 40.7187 26.9375C39.6286 27.0826 38.5405 27.231 37.4547 27.3826C37.253 28.0746 37.0428 28.7669 36.8242 29.4597C36.8509 30.1267 36.9621 30.782 37.158 31.4256C37.1655 31.6704 37.0665 31.8558 36.8612 31.9819C36.8334 31.7688 36.8334 31.5463 36.8612 31.3143C36.6824 31.2874 36.5711 31.3616 36.5274 31.5368C36.4534 31.871 36.3916 32.2048 36.342 32.5383C36.1507 32.5024 35.9529 32.4529 35.7485 32.3899C35.6525 32.2351 35.5659 32.0744 35.4889 31.9078C35.4394 31.4874 35.4394 31.067 35.4889 30.6467C35.652 30.303 35.7633 29.9444 35.8227 29.571C35.7486 29.0158 35.7362 28.4595 35.7856 27.9019C35.9216 27.3716 36.107 26.8646 36.342 26.3812C37.1161 26.1055 37.8826 25.8087 38.6416 25.491C39.0748 25.3218 39.5199 25.1982 39.9769 25.1201C40.6662 24.635 41.4327 24.4372 42.2766 24.5266C42.3707 24.368 42.3707 24.2072 42.2766 24.0444C42.1554 24.0097 42.0689 23.9355 42.0169 23.8219C41.7293 23.2068 41.6304 22.5639 41.7202 21.8931C42.4585 20.9508 43.4104 20.6417 44.5762 20.9658C44.8894 21.042 45.1491 21.2027 45.3551 21.448C45.3867 21.8242 45.4485 22.1951 45.5406 22.5608C45.5278 22.6748 45.5031 22.7861 45.4664 22.8946C45.6091 23.1304 45.7327 23.3776 45.8373 23.6364C45.7723 23.7749 45.661 23.8615 45.5035 23.896C45.3596 24.2257 45.2854 24.5719 45.281 24.9346C44.9812 24.9737 44.6968 25.0603 44.4279 25.1942C44.7695 25.2168 45.1033 25.2786 45.4293 25.3797C45.7264 25.3333 46.0107 25.2467 46.2824 25.1201C46.9254 25.0953 47.5682 25.0706 48.2112 25.0459C48.4681 24.7178 48.6783 24.3593 48.8417 23.9702C49.0663 23.1197 49.1405 22.2543 49.0643 21.3738C48.7813 21.061 48.6577 20.6901 48.6934 20.2611C48.5777 20.1338 48.5159 19.9854 48.5079 19.816C48.5859 19.8049 48.6601 19.8173 48.7304 19.8531C48.8399 20.0244 48.9635 20.1851 49.1014 20.3353C49.1585 20.0463 49.0967 19.7743 48.9159 19.5193C48.6813 19.3965 48.6195 19.2234 48.7304 19Z" fill="#1E1E1C"/>
<path fill-rule="evenodd" clip-rule="evenodd" d="M23.4329 31.3885C23.4523 31.4981 23.4276 31.597 23.3587 31.6852C23.3517 31.5562 23.3393 31.4078 23.3216 31.2401C23.1526 31.4969 23.0784 31.4969 23.0991 31.2401C23.1741 31.178 23.2606 31.1533 23.3587 31.1659C23.3587 31.067 23.3587 30.9681 23.3587 30.8692C23.1659 30.8728 23.0052 30.947 22.8765 31.0917C22.7752 31.319 22.7381 31.5416 22.7652 31.7594C22.4807 31.6336 22.2334 31.6831 22.0234 31.9078C21.9024 31.8486 21.7911 31.7744 21.6896 31.6852C21.5273 31.7267 21.4779 31.8256 21.5412 31.9819C21.7143 32.155 21.8874 32.3281 22.0605 32.5012C22.1115 32.5629 22.0992 32.6123 22.0234 32.6496C21.8071 32.4776 21.5846 32.4653 21.3558 32.6125C21.2101 32.8427 21.0865 33.0777 20.9849 33.3172C20.8289 33.1488 20.6435 33.0252 20.4285 32.9463C20.3335 32.9547 20.2717 33.0042 20.243 33.0947C20.3329 33.1966 20.4071 33.3079 20.4656 33.4285C20.1302 34.1542 20.3528 34.5004 21.1332 34.467C21.3217 34.3035 21.4824 34.118 21.6154 33.9107C21.6786 33.9901 21.7404 34.0643 21.8009 34.1332C22.1907 34.4912 22.4503 34.9363 22.5798 35.4685C22.9667 35.6682 23.35 35.8784 23.7296 36.0991C23.9163 36.2733 24.0894 36.4588 24.2489 36.6554C24.9004 35.9005 25.1354 35.0351 24.9536 34.059C24.7431 33.7866 24.57 33.4899 24.4344 33.1689C24.355 32.8987 24.4168 32.6761 24.6198 32.5012C24.6693 32.6743 24.7187 32.8474 24.7682 33.0205C24.8995 33.3111 25.0355 33.3111 25.1762 33.0205C25.2718 32.606 25.3089 32.1856 25.2875 31.7594C25.9187 31.7354 26.302 32.0321 26.4373 32.6496C26.4868 33.1194 26.4868 33.5892 26.4373 34.059C26.2822 34.544 26.1585 35.0385 26.0664 35.5427C25.8531 36.6491 25.68 37.7619 25.5471 38.8809C25.4093 39.3021 25.1249 39.4629 24.694 39.3631C24.2358 39.1466 23.8154 38.8745 23.4329 38.5471C22.9696 38.3216 22.5121 38.0867 22.0605 37.8424C21.2983 39.5153 20.6183 41.2215 20.0205 42.9609C19.9802 42.9654 19.9555 42.9901 19.9463 43.0351C20.9342 43.1092 21.9233 43.134 22.9136 43.1093C23.2865 43.1549 23.6574 43.2168 24.0263 43.2948C24.67 43.5425 25.3129 43.7898 25.9551 44.0366C26.3782 44.2779 26.6255 44.6364 26.6969 45.1122C26.6075 45.665 26.422 46.1842 26.1405 46.6701C25.1972 47.8358 24.2824 49.0228 23.3958 50.2308C23.1145 50.9006 22.9414 51.593 22.8765 52.3079C23.0215 52.3786 23.1452 52.4776 23.2474 52.6047C23.3891 53.3178 23.5128 54.0349 23.6183 54.756C23.8904 54.9538 24.1623 55.1516 24.4344 55.3494C24.4867 55.5953 24.4002 55.7808 24.1747 55.9058C23.8353 56.0153 23.489 56.0401 23.1362 55.98C22.2089 55.745 21.6278 55.164 21.3929 54.2367C21.1504 54.073 20.8908 53.9371 20.614 53.8287C20.3543 53.569 20.0947 53.3094 19.835 53.0498C19.6296 52.8464 19.6048 52.6238 19.7609 52.3821C19.9834 52.1101 20.2059 51.8381 20.4285 51.5661C20.572 51.3534 20.7575 51.2916 20.9849 51.3807C21.5323 50.3722 21.9897 49.3212 22.3572 48.2279C22.3819 47.9312 22.4067 47.6344 22.4314 47.3377C22.5492 47.0282 22.6852 46.7315 22.8394 46.4475C22.8797 46.4431 22.9044 46.4184 22.9136 46.3733C22.6555 46.2765 22.4082 46.2765 22.1718 46.3733C20.8498 46.5039 19.5392 46.7141 18.2401 47.0039C17.5755 48.1976 16.8461 49.3475 16.0517 50.4534C15.5325 50.9232 15.0132 51.393 14.4939 51.8628C14.34 52.2319 14.1051 52.541 13.7892 52.7901C13.2687 53.0998 12.7741 53.446 12.3055 53.8287C11.9247 54.2838 11.5167 54.7166 11.0815 55.1269C10.2467 56.0486 9.54193 57.0624 8.9673 58.1684C9.08078 58.2964 9.15497 58.4448 9.18985 58.6135C8.95378 59.1971 8.70651 59.7782 8.44802 60.3567C8.68361 60.7293 8.90616 61.1126 9.11567 61.5066C9.08779 61.6463 9.01361 61.7575 8.89312 61.8404C8.71321 61.9304 8.54012 62.0169 8.37384 62.1C8.27493 62.1 8.17602 62.1 8.07711 62.1C7.79376 61.8797 7.49703 61.6695 7.18692 61.4695C6.99848 61.3059 6.83776 61.1205 6.70473 60.9131C6.64323 59.85 6.40832 58.8362 6 57.8716C6 57.6986 6 57.5254 6 57.3524C6.52982 57.1219 7.07383 56.9117 7.63202 56.7218C7.80008 56.5914 7.92372 56.4306 8.00293 56.2396C8.09265 56.2076 8.16683 56.1581 8.22548 56.0912C8.31411 55.9243 8.38829 55.7511 8.44802 55.572C8.84043 54.6388 9.27315 53.7239 9.74622 52.8272C10.3475 52.127 11.0398 51.5336 11.8233 51.0468C12.5954 49.5267 13.4608 48.0677 14.4197 46.6701C14.3452 45.904 14.2958 45.1375 14.2713 44.3704C14.4552 43.9531 14.6778 43.5575 14.939 43.1835C15.2357 42.8373 15.5325 42.4911 15.8292 42.1449C15.9901 40.9073 16.1632 39.6709 16.3485 38.4358C16.6505 37.4184 16.9596 36.4045 17.2757 35.3943C16.278 35.226 15.2765 35.0776 14.2713 34.9492C13.7809 35.0347 13.2864 35.0841 12.7877 35.0976C12.1081 35.0371 11.4281 35.0248 10.7477 35.0605C10.5826 35.1021 10.4342 35.1763 10.3026 35.2831C9.95136 35.8968 9.43208 36.1565 8.74475 36.062C8.86914 35.8943 9.02987 35.7707 9.22694 35.6911C9.30332 35.5362 9.36513 35.3754 9.4124 35.2089C9.33015 35.0708 9.20652 35.009 9.04148 35.0234C8.5493 35.1001 8.05475 35.1495 7.55783 35.1718C7.57115 34.9897 7.52169 34.829 7.40947 34.6896C7.43933 34.4937 7.51352 34.3206 7.63202 34.1703C8.47818 33.7506 9.34364 33.6888 10.2284 33.9849C12.4326 33.5518 14.6581 33.3663 16.9048 33.4285C17.8051 33.0778 18.6953 33.0901 19.5754 33.4656C19.9702 33.1181 19.9579 32.7967 19.5383 32.5012C19.4813 32.0552 19.4194 31.6101 19.3529 31.1659C19.3566 30.8454 19.4432 30.5487 19.6125 30.2757C20.3737 29.594 21.2516 29.3838 22.246 29.6452C22.7614 29.7476 23.1694 30.0073 23.47 30.4241C23.4895 30.7457 23.4772 31.0671 23.4329 31.3885Z" fill="#1D1D1B"/>
<path fill-rule="evenodd" clip-rule="evenodd" d="M23.4326 31.3885C23.5206 31.5994 23.5206 31.822 23.4326 32.0562C23.5659 32.3679 23.6277 32.6894 23.618 33.0205C23.4943 33.07 23.3708 33.1194 23.2471 33.1689C23.0668 33.444 22.9308 33.7408 22.8391 34.0591C22.5361 34.1467 22.2394 34.1219 21.9489 33.9849C21.8589 34.0032 21.8094 34.0527 21.8005 34.1333C21.7401 34.0643 21.6783 33.9902 21.6151 33.9107C21.4821 34.1181 21.3213 34.3035 21.1329 34.4671C20.3524 34.5004 20.1299 34.1543 20.4653 33.4285C20.4067 33.3079 20.3325 33.1966 20.2427 33.0947C20.2714 33.0042 20.3332 32.9547 20.4282 32.9463C20.6431 33.0252 20.8286 33.1489 20.9845 33.3173C21.0862 33.0777 21.2097 32.8428 21.3554 32.6125C21.5842 32.4653 21.8068 32.4777 22.0231 32.6496C22.0988 32.6124 22.1112 32.563 22.0602 32.5012C21.8871 32.3282 21.6769 32.1179 21.5038 31.9449C21.4405 31.7886 21.527 31.6896 21.6893 31.6481C21.7907 31.7374 21.902 31.8487 22.0231 31.9078C22.233 31.6832 22.4803 31.6337 22.7649 31.7594C22.7378 31.5416 22.7749 31.3191 22.8762 31.0918C23.0048 30.947 23.1656 30.8729 23.3584 30.8692C23.3584 30.9681 23.3584 31.0671 23.3584 31.166C23.2603 31.1534 23.2108 31.1781 23.1358 31.2401C23.1151 31.4969 23.1358 31.4627 23.3213 31.2401C23.339 31.4079 23.3514 31.5562 23.3584 31.6852C23.4273 31.597 23.452 31.4982 23.4326 31.3885Z" fill="#1D1D1B"/>
<path fill-rule="evenodd" clip-rule="evenodd" d="M80.1826 38.9551C80.1826 39.1776 80.1826 39.4002 80.1826 39.6227C80.1292 39.8126 80.0055 39.9486 79.8117 40.0307C79.513 40.1299 79.2905 40.0433 79.144 39.7711C78.9824 39.8643 78.834 39.9756 78.6989 40.1049C78.0313 40.1296 77.3637 40.1544 76.696 40.1791C75.9261 40.3901 75.1596 40.6127 74.3964 40.8467C73.5062 40.8962 72.616 40.8962 71.7258 40.8467C70.5763 40.7675 69.4265 40.6809 68.2763 40.5871C67.3983 40.7375 66.5328 40.9353 65.6799 41.1805C65.0049 42.3785 64.5475 43.6396 64.3075 44.9639C65.0976 44.5892 65.9136 44.2801 66.7556 44.0366C67.4699 43.9319 68.1871 43.9072 68.9069 43.9624C69.2978 44.0323 69.5822 44.2425 69.76 44.5929C70.3624 46.6496 70.7333 48.7514 70.8727 50.8985C70.9402 51.2806 71.0886 51.6268 71.3178 51.937C71.4064 51.868 71.5052 51.8185 71.6145 51.7886C72.024 51.9501 72.4073 52.1603 72.7643 52.4192C73.5367 52.4573 74.3032 52.4326 75.064 52.345C75.2875 52.4696 75.4606 52.6427 75.5833 52.8643C75.5469 53.0113 75.4728 53.135 75.3607 53.2352C74.4293 54.0567 73.3413 54.4028 72.0967 54.2738C71.8868 54.4835 71.6395 54.6318 71.3549 54.7189C71.0264 54.7624 70.705 54.8366 70.3905 54.9414C71.3416 55.4564 72.3555 55.7284 73.432 55.7574C73.6985 55.9778 73.7232 56.2251 73.5062 56.4992C72.9456 56.9745 72.3026 57.1971 71.5774 57.1669C71.1969 57.0647 70.8136 56.9782 70.4276 56.9072C69.5303 57.1235 68.6524 57.0617 67.7941 56.7218C67.6319 56.0044 67.5577 55.275 67.5716 54.5334C67.6458 54.5334 67.7199 54.5334 67.7941 54.5334C67.8064 53.9888 67.7941 53.4448 67.757 52.9014C67.4652 52.199 67.2179 51.4818 67.0152 50.7501C66.9657 50.4039 66.9657 50.0577 67.0152 49.7115C67.1133 49.4439 67.1628 49.1719 67.1636 48.8955C66.6622 49.14 66.1554 49.3749 65.6428 49.6003C64.6088 50.3646 63.4714 50.9333 62.2304 51.3065C61.8348 51.3559 61.4391 51.3559 61.0435 51.3065C59.8222 51.074 59.0186 50.3693 58.6326 49.1923C58.5322 48.2553 58.6311 47.3404 58.9293 46.4475C58.8713 43.4784 59.8975 40.9685 62.0079 38.918C62.7134 38.4718 63.4181 38.0144 64.1221 37.5456C64.194 37.414 64.2559 37.278 64.3075 37.1376C64.1945 37.049 64.108 36.9378 64.0479 36.8038C63.7848 34.3227 64.8604 33.4202 67.2748 34.0961C67.9774 34.3417 68.472 34.7991 68.7585 35.4685C68.592 35.9538 68.4559 36.4484 68.3505 36.9521C68.3397 37.3485 68.3397 37.7441 68.3505 38.1391C68.1912 38.1845 68.0305 38.2339 67.8683 38.2874C68.0359 38.4391 68.2213 38.5627 68.4247 38.6583C69.0799 38.4234 69.7353 38.1885 70.3905 37.9536C71.9308 37.7179 73.464 37.4458 74.9898 37.1376C75.1506 36.9768 75.3113 36.8162 75.472 36.6554C75.6317 36.3204 75.8667 36.0608 76.1767 35.8765C76.7491 35.737 77.3178 35.737 77.8829 35.8765C77.9818 35.9507 77.9818 36.0249 77.8829 36.099C77.4967 36.2039 77.1258 36.3399 76.7702 36.5071C76.7455 36.5318 76.7207 36.5565 76.696 36.5812C76.8106 36.6519 76.9343 36.6766 77.0669 36.6554C77.0832 36.7426 77.0585 36.8168 76.9928 36.878C76.5926 37.0922 76.2465 37.3766 75.9542 37.7311C75.2116 37.8798 74.544 38.1889 73.9513 38.6583C74.549 38.7456 75.1425 38.8569 75.7316 38.9922C76.424 39.0416 77.1164 39.0416 77.8088 38.9922C78.1669 38.7265 78.5378 38.4792 78.9215 38.2503C79.1722 38.1808 79.3948 38.2302 79.5891 38.3987C79.7773 38.5994 79.9751 38.7848 80.1826 38.9551Z" fill="#1E1E1C"/>
<path d="M6.874 106V96.256H9.072V106H6.874ZM3.78 98.034V96.116H12.166V98.034H3.78ZM11.8439 106V99.196H13.9859V106H11.8439ZM13.9859 102.262L13.0899 101.562C13.2672 100.769 13.5659 100.153 13.9859 99.714C14.4059 99.2753 14.9892 99.056 15.7359 99.056C16.0626 99.056 16.3472 99.1073 16.5899 99.21C16.8419 99.3033 17.0612 99.4527 17.2479 99.658L15.9739 101.268C15.8806 101.165 15.7639 101.086 15.6239 101.03C15.4839 100.974 15.3252 100.946 15.1479 100.946C14.7932 100.946 14.5086 101.058 14.2939 101.282C14.0886 101.497 13.9859 101.823 13.9859 102.262ZM17.8185 106V99.196H19.9605V106H17.8185ZM18.8965 98.258C18.5605 98.258 18.2805 98.146 18.0565 97.922C17.8418 97.6887 17.7345 97.4087 17.7345 97.082C17.7345 96.746 17.8418 96.466 18.0565 96.242C18.2805 96.018 18.5605 95.906 18.8965 95.906C19.2325 95.906 19.5078 96.018 19.7225 96.242C19.9372 96.466 20.0445 96.746 20.0445 97.082C20.0445 97.4087 19.9372 97.6887 19.7225 97.922C19.5078 98.146 19.2325 98.258 18.8965 98.258ZM25.3889 106.14C24.9316 106.14 24.5116 106.051 24.1289 105.874C23.7462 105.697 23.4336 105.454 23.1909 105.146C22.9482 104.829 22.8082 104.469 22.7709 104.068V101.198C22.8082 100.797 22.9482 100.433 23.1909 100.106C23.4336 99.7793 23.7462 99.5227 24.1289 99.336C24.5116 99.1493 24.9316 99.056 25.3889 99.056C26.0329 99.056 26.6022 99.21 27.0969 99.518C27.6009 99.826 27.9929 100.246 28.2729 100.778C28.5622 101.31 28.7069 101.917 28.7069 102.598C28.7069 103.279 28.5622 103.886 28.2729 104.418C27.9929 104.95 27.6009 105.37 27.0969 105.678C26.6022 105.986 26.0329 106.14 25.3889 106.14ZM24.9969 104.208C25.3049 104.208 25.5709 104.138 25.7949 103.998C26.0282 103.858 26.2102 103.667 26.3409 103.424C26.4716 103.181 26.5369 102.906 26.5369 102.598C26.5369 102.281 26.4716 102.001 26.3409 101.758C26.2102 101.515 26.0282 101.329 25.7949 101.198C25.5709 101.058 25.3096 100.988 25.0109 100.988C24.7122 100.988 24.4462 101.058 24.2129 101.198C23.9889 101.329 23.8116 101.515 23.6809 101.758C23.5502 102.001 23.4849 102.281 23.4849 102.598C23.4849 102.906 23.5456 103.181 23.6669 103.424C23.7976 103.667 23.9796 103.858 24.2129 103.998C24.4462 104.138 24.7076 104.208 24.9969 104.208ZM21.4689 108.87V99.196H23.6109V100.946L23.2609 102.598L23.5829 104.25V108.87H21.4689ZM29.7951 106V95.836H31.9371V106H29.7951ZM36.8055 106.154C36.0681 106.154 35.4101 106.005 34.8315 105.706C34.2621 105.398 33.8141 104.973 33.4875 104.432C33.1608 103.891 32.9975 103.279 32.9975 102.598C32.9975 101.917 33.1561 101.31 33.4735 100.778C33.8001 100.237 34.2388 99.812 34.7895 99.504C35.3401 99.196 35.9608 99.042 36.6515 99.042C37.3235 99.042 37.9161 99.1867 38.4295 99.476C38.9428 99.7653 39.3441 100.167 39.6335 100.68C39.9321 101.193 40.0815 101.781 40.0815 102.444C40.0815 102.565 40.0721 102.696 40.0535 102.836C40.0441 102.967 40.0208 103.121 39.9835 103.298L34.1175 103.312V101.842L39.0735 101.828L38.1495 102.444C38.1401 102.052 38.0795 101.73 37.9675 101.478C37.8555 101.217 37.6875 101.021 37.4635 100.89C37.2488 100.75 36.9828 100.68 36.6655 100.68C36.3295 100.68 36.0355 100.759 35.7835 100.918C35.5408 101.067 35.3495 101.282 35.2095 101.562C35.0788 101.842 35.0135 102.183 35.0135 102.584C35.0135 102.985 35.0835 103.331 35.2235 103.62C35.3728 103.9 35.5781 104.119 35.8395 104.278C36.1101 104.427 36.4275 104.502 36.7915 104.502C37.1275 104.502 37.4308 104.446 37.7015 104.334C37.9721 104.213 38.2101 104.035 38.4155 103.802L39.5915 104.978C39.2555 105.37 38.8495 105.664 38.3735 105.86C37.8975 106.056 37.3748 106.154 36.8055 106.154ZM45.6389 106.154C45.0136 106.154 44.4676 106.042 44.0009 105.818C43.5436 105.585 43.1516 105.263 42.8249 104.852L44.2949 103.438C44.4629 103.671 44.6589 103.849 44.8829 103.97C45.1162 104.091 45.3776 104.152 45.6669 104.152C45.9469 104.152 46.1896 104.096 46.3949 103.984C46.6002 103.863 46.7636 103.695 46.8849 103.48C47.0062 103.256 47.0669 102.981 47.0669 102.654V96.116H49.2789V102.528C49.2789 103.265 49.1296 103.905 48.8309 104.446C48.5322 104.987 48.1122 105.407 47.5709 105.706C47.0296 106.005 46.3856 106.154 45.6389 106.154ZM53.8601 106.154C53.2347 106.154 52.6794 106.028 52.1941 105.776C51.7181 105.515 51.3447 105.16 51.0741 104.712C50.8034 104.255 50.6681 103.732 50.6681 103.144V99.196H52.8101V103.116C52.8101 103.349 52.8474 103.55 52.9221 103.718C53.0061 103.886 53.1274 104.017 53.2861 104.11C53.4447 104.203 53.6361 104.25 53.8601 104.25C54.1774 104.25 54.4294 104.152 54.6161 103.956C54.8027 103.751 54.8961 103.471 54.8961 103.116V99.196H57.0381V103.13C57.0381 103.727 56.9027 104.255 56.6321 104.712C56.3614 105.16 55.9881 105.515 55.5121 105.776C55.0361 106.028 54.4854 106.154 53.8601 106.154ZM58.383 106V99.196H60.525V106H58.383ZM62.737 106V102.024C62.737 101.679 62.6296 101.413 62.415 101.226C62.2096 101.03 61.953 100.932 61.645 100.932C61.4303 100.932 61.239 100.979 61.071 101.072C60.903 101.156 60.7676 101.277 60.665 101.436C60.5716 101.595 60.525 101.791 60.525 102.024L59.699 101.66C59.699 101.119 59.8156 100.657 60.049 100.274C60.2823 99.882 60.5996 99.5833 61.001 99.378C61.4023 99.1633 61.855 99.056 62.359 99.056C62.835 99.056 63.2596 99.1633 63.633 99.378C64.0156 99.5927 64.319 99.8913 64.543 100.274C64.767 100.657 64.879 101.114 64.879 101.646V106H62.737ZM67.091 106V102.024C67.091 101.679 66.9836 101.413 66.769 101.226C66.5636 101.03 66.307 100.932 65.999 100.932C65.7843 100.932 65.593 100.979 65.425 101.072C65.257 101.156 65.1216 101.277 65.019 101.436C64.9256 101.595 64.879 101.791 64.879 102.024L63.647 101.856C63.6656 101.277 63.801 100.783 64.053 100.372C64.3143 99.952 64.655 99.63 65.075 99.406C65.5043 99.1727 65.985 99.056 66.517 99.056C67.0396 99.056 67.5016 99.168 67.903 99.392C68.3136 99.6067 68.6356 99.9193 68.869 100.33C69.1116 100.731 69.233 101.217 69.233 101.786V106H67.091ZM74.5256 106.14C74.0683 106.14 73.6483 106.051 73.2656 105.874C72.8829 105.697 72.5703 105.454 72.3276 105.146C72.0849 104.829 71.9449 104.469 71.9076 104.068V101.198C71.9449 100.797 72.0849 100.433 72.3276 100.106C72.5703 99.7793 72.8829 99.5227 73.2656 99.336C73.6483 99.1493 74.0683 99.056 74.5256 99.056C75.1696 99.056 75.7389 99.21 76.2336 99.518C76.7376 99.826 77.1296 100.246 77.4096 100.778C77.6989 101.31 77.8436 101.917 77.8436 102.598C77.8436 103.279 77.6989 103.886 77.4096 104.418C77.1296 104.95 76.7376 105.37 76.2336 105.678C75.7389 105.986 75.1696 106.14 74.5256 106.14ZM74.1336 104.208C74.4416 104.208 74.7076 104.138 74.9316 103.998C75.1649 103.858 75.3469 103.667 75.4776 103.424C75.6083 103.181 75.6736 102.906 75.6736 102.598C75.6736 102.281 75.6083 102.001 75.4776 101.758C75.3469 101.515 75.1649 101.329 74.9316 101.198C74.7076 101.058 74.4463 100.988 74.1476 100.988C73.8489 100.988 73.5829 101.058 73.3496 101.198C73.1256 101.329 72.9483 101.515 72.8176 101.758C72.6869 102.001 72.6216 102.281 72.6216 102.598C72.6216 102.906 72.6823 103.181 72.8036 103.424C72.9343 103.667 73.1163 103.858 73.3496 103.998C73.5829 104.138 73.8443 104.208 74.1336 104.208ZM70.6056 108.87V99.196H72.7476V100.946L72.3976 102.598L72.7196 104.25V108.87H70.6056Z" fill="white"/>
</svg>
