<svg width="82" height="110" viewBox="0 0 82 110" fill="none" xmlns="http://www.w3.org/2000/svg">
<circle cx="41" cy="41" r="41" fill="#F1F1F0"/>
<path d="M51.1249 43.0146C49.8174 42.487 49.264 41.3004 49.1559 39.9619C49.0907 39.1571 48.817 38.391 48.3348 37.6634C48.2009 37.4609 48.2215 37.2756 48.3966 37.1074C48.6437 36.8681 48.8161 36.5875 48.8161 36.2297C48.8213 35.0732 48.3605 34.3979 47.4339 34.204C47.3361 34.1852 47.2846 34.126 47.2795 34.0264C47.0839 30.3946 48.2756 26.7139 52.6487 27.0176C55.5727 27.2209 56.6383 29.154 56.924 31.733C56.9961 32.3834 57.1025 33.0089 57.2432 33.6094C57.6576 35.3906 57.1685 37.3725 56.3964 39.2953C56.2488 39.6625 56.03 39.9679 55.74 40.2116C55.2939 40.584 54.9584 41.0404 54.7336 41.5809C54.5483 42.0288 54.2806 42.4046 53.9305 42.7083C53.1772 43.3621 52.242 43.4642 51.1249 43.0146Z" fill="black"/>
<path d="M7.93594 33.1539C7.95745 33.1479 7.97619 33.1346 7.9889 33.1163C8.0016 33.0979 8.00745 33.0757 8.00544 33.0535L7.99 32.881C7.98885 32.8668 7.98468 32.853 7.97776 32.8405C7.97085 32.828 7.96135 32.8171 7.9499 32.8086C7.93845 32.8001 7.92531 32.7941 7.91137 32.791C7.89742 32.788 7.88298 32.788 7.86902 32.7909C7.04022 32.9677 6.1565 33.0621 5.21787 33.0741C5.1252 33.0758 5.06686 33.0329 5.04284 32.9454C5.02739 32.8939 5.02997 32.8441 5.05056 32.7961C5.08488 32.7189 5.14236 32.67 5.22301 32.6494C5.59881 32.549 6.46365 32.3765 6.72619 32.1397C6.99388 31.8961 6.94669 31.7785 6.58463 31.7871C6.21055 31.794 5.95487 31.6258 5.81759 31.2826C5.79968 31.2366 5.79347 31.1868 5.79952 31.1378C5.80557 31.0887 5.82369 31.042 5.85226 31.0017C5.88083 30.9614 5.91896 30.9288 5.96322 30.9068C6.00748 30.8849 6.0565 30.8743 6.10587 30.8759C7.31562 30.9205 8.52452 30.7052 9.73255 30.2299C10.9646 29.7442 12.1392 29.8103 13.2563 30.4281C13.3404 30.4761 13.4304 30.495 13.5265 30.4847C13.9504 30.4469 14.3862 30.3646 14.8341 30.2376C17.4561 29.4929 19.8378 28.6949 21.9794 27.8438C22.7206 27.547 23.4353 27.3754 24.1234 27.329C25.8866 27.2132 27.763 27.3445 29.346 28.127C31.6145 29.2492 33.7731 30.374 35.822 31.5014C36.3368 31.7845 36.8335 32.0153 37.3123 32.1938C38.5092 32.6391 39.7395 32.9068 40.7459 33.7201C41.7472 34.5309 42.6455 35.3082 43.8707 35.805C44.733 36.1551 45.7497 35.9981 46.6608 36.0006C46.7208 36.0014 46.7795 35.9834 46.8284 35.9492C46.8774 35.915 46.9142 35.8664 46.9337 35.8102L47.2529 34.8835C47.273 34.8248 47.3131 34.7747 47.3666 34.7419C47.42 34.7091 47.4835 34.6955 47.5463 34.7034C48.1125 34.7754 48.3133 35.805 48.3828 36.258C48.3912 36.3158 48.3826 36.3749 48.3579 36.4283C48.3333 36.4817 48.2937 36.5271 48.2438 36.5592C48.0345 36.6913 47.8766 36.6373 47.7702 36.397C47.6999 36.2374 47.6561 36.0718 47.6389 35.9002C47.6235 35.7458 47.554 35.7166 47.4305 35.8127C46.8076 36.3044 47.5694 37.2696 47.9272 37.6505C48.5527 38.312 48.6454 39.0842 48.6479 39.9516C48.6479 41.2026 49.2271 42.348 50.1743 43.1536C50.8469 43.7267 51.6629 43.973 52.6221 43.8923C54.2823 43.7533 55.142 42.3222 55.752 40.9271C55.8618 40.6766 56.0068 40.6535 56.187 40.8577C57.4714 42.3171 58.6116 43.9026 60.0402 45.2231C61.1504 46.2509 62.1302 47.2041 62.9796 48.0827C63.2713 48.383 63.2207 48.4602 62.8278 48.3143C60.724 47.5302 58.5258 46.8566 56.2333 46.2938C55.7563 46.1771 55.3007 46.1179 54.8666 46.1162C53.8988 46.1136 52.9413 46.0853 51.9966 46.2166C51.5076 46.2852 51.0057 46.3307 50.4909 46.353C50.0379 46.3736 49.6466 46.5203 49.2065 46.5924C49.004 46.6267 48.8101 46.6799 48.6248 46.752C45.4357 47.9746 42.0689 49.102 38.7202 47.9797C36.6019 47.2719 34.3214 46.3479 32.1052 46.093C31.9731 46.0776 31.9628 46.0338 32.0743 45.9618C33.5998 44.9734 35.0936 44.0021 36.5556 43.0481C37.2454 42.5976 37.0523 40.4072 36.656 39.8487C36.4946 39.6187 36.2501 39.418 35.9224 39.2464C33.5775 38.0083 31.3459 36.6004 29.4953 34.8372C28.7076 34.0856 28.0976 33.2053 27.3177 32.4537C27.1307 32.2736 26.9102 32.1946 26.6562 32.2169C24.4598 32.416 22.3723 32.5044 20.3938 32.4821C19.8601 32.4752 19.3557 32.543 18.8803 32.6854C16.4145 33.4267 14.2841 34.2624 12.4892 35.1924C11.6862 35.6094 10.9372 35.6274 10.0646 35.6686C9.54122 35.6943 9.13111 35.896 8.83425 36.2735C8.77762 36.3455 8.70298 36.3927 8.61032 36.415C8.54511 36.4322 8.48934 36.415 8.44301 36.3636C8.38982 36.3052 8.35893 36.2366 8.35035 36.1576L8.31431 35.7844C8.30059 35.6523 8.23881 35.624 8.12899 35.6995C7.52926 36.1087 6.56146 36.6724 5.81759 36.5926C5.76914 36.5875 5.72325 36.5683 5.68558 36.5374C5.64792 36.5064 5.62012 36.4652 5.60562 36.4187C5.59111 36.3722 5.59054 36.3224 5.60397 36.2756C5.61739 36.2287 5.64423 36.1868 5.68118 36.1551C6.56318 35.3897 7.50524 34.8003 8.50736 34.3868C9.01014 34.1809 8.99555 34.0453 8.4636 33.9801C8.41384 33.9732 8.26283 34.0118 8.01059 34.0959C7.32077 34.3259 6.62753 34.5481 5.93085 34.7626C5.65801 34.8466 5.42721 34.8492 5.23846 34.7703C4.93302 34.645 4.92101 34.4949 5.20242 34.3198C5.99863 33.8222 6.9098 33.4336 7.93594 33.1539Z" fill="black"/>
<path d="M33.1636 48.4533C30.7209 47.9874 28.3168 48.0595 26.0698 48.8239C24.7502 49.2718 23.5181 49.6682 22.3736 50.0131C19.6109 50.8471 16.8568 50.7072 14.1113 49.5936C11.8694 48.685 9.81021 47.7583 7.58118 47.6657C7.53999 47.664 7.52026 47.6417 7.52198 47.5988V47.5962C7.52198 47.567 7.53742 47.5524 7.56831 47.5524C8.6262 47.5576 9.73299 47.6683 10.7445 47.9745C12.8938 48.6232 15.3313 49.5781 17.4445 49.7403C19.9181 49.9282 22.4277 49.0582 24.7596 48.0904C27.6116 46.9064 30.654 46.6413 33.7015 47.2358C35.5367 47.5962 37.3771 48.4893 39.2175 49.0633C40.6812 49.5215 42.3088 49.4975 44.1002 48.9913C45.5588 48.5794 46.9247 48.165 48.1979 47.748C49.6342 47.2779 50.9023 47.005 52.0022 46.9295C53.9498 46.7957 55.6735 46.9793 57.1733 47.4804C58.4087 47.8939 59.6365 48.3152 60.8566 48.7442C63.6639 49.7274 66.3219 49.8836 68.8306 49.2126C71.5461 48.4868 74.0068 47.5215 76.9643 47.6271C76.9866 47.6288 76.9977 47.6408 76.9977 47.6631V47.6657C76.9995 47.7 76.9823 47.718 76.9463 47.7197C75.9235 47.7523 74.9257 47.8965 73.9528 48.1522C71.8447 48.7055 69.9554 49.6296 67.8319 50.1289C65.6492 50.6403 63.3052 50.5296 60.7999 49.7969C58.8643 49.2306 56.8464 48.4095 54.8747 48.1779C53.1708 47.9771 51.4909 48.1281 49.835 48.6309C47.4824 49.3439 45.2636 50.165 42.875 50.6283C39.2947 51.3232 36.5457 49.0994 33.1636 48.4533Z" fill="black"/>
<path d="M57.1618 52.3606C55.0323 51.676 53.0023 51.5593 51.0718 52.0106C48.6652 52.5743 46.1736 53.5704 43.6434 54.165C41.7181 54.6162 39.7877 54.4618 37.8521 53.7016C36.1739 53.0401 34.4133 52.2963 32.6321 52.0363C30.8578 51.7789 29.2019 51.7961 27.6644 52.0878C25.8318 52.4353 24.1536 53.1946 22.3724 53.6991C19.572 54.4936 16.8891 54.3786 14.3237 53.3542C12.1075 52.4687 9.8399 51.4392 7.51049 51.3053C7.48475 51.3036 7.47188 51.289 7.47188 51.2616V51.259C7.47359 51.2332 7.48818 51.2204 7.51563 51.2204C8.80604 51.2101 10.0741 51.4083 11.3199 51.8149C12.5314 52.2113 13.724 52.5803 14.8977 52.9217C17.4459 53.663 19.8886 53.5343 22.4265 52.6515C24.1459 52.0517 25.8138 51.2718 27.6078 50.8909C30.4674 50.2809 33.5304 50.6026 36.3154 51.6965C38.0812 52.3889 40.1892 53.2641 42.0476 53.053C42.7237 52.9775 43.392 52.848 44.0527 52.6643C45.5404 52.2525 47.1088 51.7849 48.7579 51.2616C51.1962 50.4894 53.5291 50.3341 55.7564 50.7957C57.8464 51.2307 59.8258 52.1315 61.9261 52.7467C64.4434 53.4811 66.9178 53.4854 69.3494 52.7596C71.8615 52.008 74.2218 51.2152 76.9039 51.2873C76.9142 51.2873 76.9236 51.289 76.9322 51.2924C76.9391 51.2976 76.9476 51.301 76.9579 51.3027C77.0043 51.3079 77.0043 51.3122 76.9579 51.3156C75.3055 51.4735 73.7594 51.8132 72.3197 52.3349C71.2215 52.733 70.1147 53.1156 68.9993 53.4829C66.633 54.2619 64.1706 54.322 61.6121 53.663C60.2582 53.313 58.7748 52.8788 57.1618 52.3606Z" fill="black"/>
<path d="M11.42 106.154C10.608 106.154 9.908 106.023 9.32 105.762C8.74133 105.491 8.20933 105.085 7.724 104.544L9.152 103.13C9.46933 103.494 9.81933 103.779 10.202 103.984C10.594 104.18 11.0467 104.278 11.56 104.278C12.0267 104.278 12.386 104.194 12.638 104.026C12.8993 103.858 13.03 103.625 13.03 103.326C13.03 103.055 12.946 102.836 12.778 102.668C12.61 102.5 12.386 102.355 12.106 102.234C11.8353 102.113 11.532 101.996 11.196 101.884C10.8693 101.772 10.5427 101.646 10.216 101.506C9.88933 101.357 9.586 101.175 9.306 100.96C9.03533 100.736 8.816 100.461 8.648 100.134C8.48 99.798 8.396 99.378 8.396 98.874C8.396 98.2673 8.54067 97.7447 8.83 97.306C9.12867 96.8673 9.53933 96.536 10.062 96.312C10.5847 96.0787 11.1867 95.962 11.868 95.962C12.5587 95.962 13.1887 96.0833 13.758 96.326C14.3367 96.5687 14.8127 96.9 15.186 97.32L13.758 98.734C13.4593 98.426 13.156 98.1973 12.848 98.048C12.5493 97.8987 12.2087 97.824 11.826 97.824C11.4433 97.824 11.14 97.8987 10.916 98.048C10.692 98.188 10.58 98.3933 10.58 98.664C10.58 98.916 10.664 99.1213 10.832 99.28C11 99.4293 11.2193 99.56 11.49 99.672C11.77 99.784 12.0733 99.896 12.4 100.008C12.736 100.12 13.0673 100.251 13.394 100.4C13.7207 100.549 14.0193 100.741 14.29 100.974C14.57 101.198 14.794 101.487 14.962 101.842C15.13 102.187 15.214 102.617 15.214 103.13C15.214 104.073 14.878 104.815 14.206 105.356C13.534 105.888 12.6053 106.154 11.42 106.154ZM17.9747 106L15.6227 99.196H17.7227L19.1787 104.138L18.5627 104.152L20.1727 99.196H21.9087L23.5327 104.152L22.9027 104.138L24.3727 99.196H26.4727L24.1207 106H22.3707L20.7887 101.296H21.3207L19.7107 106H17.9747ZM27.1915 106V99.196H29.3335V106H27.1915ZM28.2695 98.258C27.9335 98.258 27.6535 98.146 27.4295 97.922C27.2149 97.6887 27.1075 97.4087 27.1075 97.082C27.1075 96.746 27.2149 96.466 27.4295 96.242C27.6535 96.018 27.9335 95.906 28.2695 95.906C28.6055 95.906 28.8809 96.018 29.0955 96.242C29.3102 96.466 29.4175 96.746 29.4175 97.082C29.4175 97.4087 29.3102 97.6887 29.0955 97.922C28.8809 98.146 28.6055 98.258 28.2695 98.258ZM30.8419 106V99.196H32.9839V106H30.8419ZM35.1959 106V102.024C35.1959 101.679 35.0886 101.413 34.8739 101.226C34.6686 101.03 34.4119 100.932 34.1039 100.932C33.8893 100.932 33.6979 100.979 33.5299 101.072C33.3619 101.156 33.2266 101.277 33.1239 101.436C33.0306 101.595 32.9839 101.791 32.9839 102.024L32.1579 101.66C32.1579 101.119 32.2746 100.657 32.5079 100.274C32.7413 99.882 33.0586 99.5833 33.4599 99.378C33.8613 99.1633 34.3139 99.056 34.8179 99.056C35.2939 99.056 35.7186 99.1633 36.0919 99.378C36.4746 99.5927 36.7779 99.8913 37.0019 100.274C37.2259 100.657 37.3379 101.114 37.3379 101.646V106H35.1959ZM39.5499 106V102.024C39.5499 101.679 39.4426 101.413 39.2279 101.226C39.0226 101.03 38.7659 100.932 38.4579 100.932C38.2433 100.932 38.0519 100.979 37.8839 101.072C37.7159 101.156 37.5806 101.277 37.4779 101.436C37.3846 101.595 37.3379 101.791 37.3379 102.024L36.1059 101.856C36.1246 101.277 36.2599 100.783 36.5119 100.372C36.7733 99.952 37.1139 99.63 37.5339 99.406C37.9633 99.1727 38.4439 99.056 38.9759 99.056C39.4986 99.056 39.9606 99.168 40.3619 99.392C40.7726 99.6067 41.0946 99.9193 41.3279 100.33C41.5706 100.731 41.6919 101.217 41.6919 101.786V106H39.5499ZM43.0646 106V99.196H45.2066V106H43.0646ZM47.4186 106V102.024C47.4186 101.679 47.3113 101.413 47.0966 101.226C46.8913 101.03 46.6346 100.932 46.3266 100.932C46.1119 100.932 45.9206 100.979 45.7526 101.072C45.5846 101.156 45.4493 101.277 45.3466 101.436C45.2533 101.595 45.2066 101.791 45.2066 102.024L44.3806 101.66C44.3806 101.119 44.4973 100.657 44.7306 100.274C44.9639 99.882 45.2813 99.5833 45.6826 99.378C46.0839 99.1633 46.5366 99.056 47.0406 99.056C47.5166 99.056 47.9413 99.1633 48.3146 99.378C48.6973 99.5927 49.0006 99.8913 49.2246 100.274C49.4486 100.657 49.5606 101.114 49.5606 101.646V106H47.4186ZM51.7726 106V102.024C51.7726 101.679 51.6653 101.413 51.4506 101.226C51.2453 101.03 50.9886 100.932 50.6806 100.932C50.4659 100.932 50.2746 100.979 50.1066 101.072C49.9386 101.156 49.8033 101.277 49.7006 101.436C49.6073 101.595 49.5606 101.791 49.5606 102.024L48.3286 101.856C48.3473 101.277 48.4826 100.783 48.7346 100.372C48.9959 99.952 49.3366 99.63 49.7566 99.406C50.1859 99.1727 50.6666 99.056 51.1986 99.056C51.7213 99.056 52.1833 99.168 52.5846 99.392C52.9953 99.6067 53.3173 99.9193 53.5506 100.33C53.7933 100.731 53.9146 101.217 53.9146 101.786V106H51.7726ZM55.2873 106V99.196H57.4293V106H55.2873ZM56.3653 98.258C56.0293 98.258 55.7493 98.146 55.5253 97.922C55.3106 97.6887 55.2033 97.4087 55.2033 97.082C55.2033 96.746 55.3106 96.466 55.5253 96.242C55.7493 96.018 56.0293 95.906 56.3653 95.906C56.7013 95.906 56.9766 96.018 57.1913 96.242C57.4059 96.466 57.5133 96.746 57.5133 97.082C57.5133 97.4087 57.4059 97.6887 57.1913 97.922C56.9766 98.146 56.7013 98.258 56.3653 98.258ZM63.4316 106V102.122C63.4316 101.767 63.3196 101.483 63.0956 101.268C62.881 101.044 62.6056 100.932 62.2696 100.932C62.0363 100.932 61.831 100.983 61.6536 101.086C61.4763 101.179 61.3363 101.319 61.2336 101.506C61.131 101.683 61.0796 101.889 61.0796 102.122L60.2536 101.716C60.2536 101.184 60.3703 100.717 60.6036 100.316C60.837 99.9147 61.159 99.6067 61.5696 99.392C61.9896 99.168 62.461 99.056 62.9836 99.056C63.4876 99.056 63.931 99.1773 64.3136 99.42C64.7056 99.6533 65.0136 99.966 65.2376 100.358C65.4616 100.75 65.5736 101.179 65.5736 101.646V106H63.4316ZM58.9376 106V99.196H61.0796V106H58.9376ZM69.8334 109.052C69.0867 109.052 68.4287 108.921 67.8594 108.66C67.2994 108.408 66.856 108.049 66.5294 107.582L67.8454 106.266C68.088 106.555 68.3587 106.775 68.6574 106.924C68.9654 107.073 69.334 107.148 69.7634 107.148C70.2954 107.148 70.7107 107.017 71.0094 106.756C71.3174 106.495 71.4714 106.126 71.4714 105.65V103.914L71.8354 102.43L71.5134 100.946V99.196H73.6134V105.594C73.6134 106.294 73.45 106.901 73.1234 107.414C72.7967 107.927 72.3487 108.329 71.7794 108.618C71.21 108.907 70.5614 109.052 69.8334 109.052ZM69.7354 105.79C69.11 105.79 68.5547 105.641 68.0694 105.342C67.584 105.043 67.2014 104.637 66.9214 104.124C66.6414 103.611 66.5014 103.041 66.5014 102.416C66.5014 101.781 66.6414 101.212 66.9214 100.708C67.2014 100.195 67.584 99.7933 68.0694 99.504C68.5547 99.2053 69.11 99.056 69.7354 99.056C70.202 99.056 70.6174 99.1447 70.9814 99.322C71.3547 99.49 71.6534 99.7327 71.8774 100.05C72.1107 100.358 72.2414 100.717 72.2694 101.128V103.718C72.2414 104.119 72.1107 104.479 71.8774 104.796C71.6534 105.104 71.3547 105.347 70.9814 105.524C70.608 105.701 70.1927 105.79 69.7354 105.79ZM70.1414 103.886C70.44 103.886 70.6967 103.821 70.9114 103.69C71.1354 103.559 71.3034 103.387 71.4154 103.172C71.5367 102.948 71.5974 102.696 71.5974 102.416C71.5974 102.136 71.5367 101.884 71.4154 101.66C71.3034 101.436 71.1354 101.259 70.9114 101.128C70.6967 100.997 70.44 100.932 70.1414 100.932C69.852 100.932 69.5954 100.997 69.3714 101.128C69.1474 101.259 68.9747 101.436 68.8534 101.66C68.732 101.884 68.6714 102.136 68.6714 102.416C68.6714 102.677 68.732 102.925 68.8534 103.158C68.9747 103.382 69.1427 103.559 69.3574 103.69C69.5814 103.821 69.8427 103.886 70.1414 103.886Z" fill="white"/>
</svg>
