<svg width="82" height="109" viewBox="0 0 82 109" fill="none" xmlns="http://www.w3.org/2000/svg">
<circle cx="41" cy="41" r="41" fill="#F1F1F0"/>
<path d="M39.062 20.6619C39.137 20.6836 39.2141 20.6922 39.2931 20.6876C40.1656 20.6902 41.0338 20.6922 41.8977 20.6935C42.5358 20.6955 43.1887 20.737 43.8426 20.7636C43.944 20.7886 44.0411 20.7946 44.1339 20.7814C44.9037 20.8354 45.6369 20.9638 46.3336 21.1666C47.2937 21.4465 48.1527 21.9341 48.9106 22.6294C48.9376 22.6755 48.982 22.7055 49.0439 22.7193C49.1776 22.7997 49.3248 22.851 49.4855 22.8734C49.8568 22.9248 50.2302 22.9758 50.6055 23.0265C51.185 23.1042 51.6815 23.3442 52.095 23.7466C52.1592 23.8098 52.2728 23.8394 52.3597 23.8335C54.3332 23.6932 56.12 24.0992 57.9226 24.8222C59.6857 25.5294 61.4024 26.3354 63.2988 26.7651C63.8131 26.8816 64.3475 26.9442 64.9019 26.9527L65.4293 26.9754C66.1945 26.9531 66.7108 26.9241 66.9781 26.8885C67.1915 26.8602 67.4065 26.7697 67.6231 26.6169C67.7436 26.5787 67.8355 26.5303 67.8987 26.4717C68.0903 26.3874 68.271 26.3552 68.4409 26.3749C68.4752 26.3782 68.5032 26.393 68.5249 26.4194C68.756 26.69 68.5743 27.3686 68.432 27.5918C68.4143 27.6194 68.4097 27.6494 68.4182 27.6817C68.4373 27.7482 68.4636 27.8114 68.4972 27.8713C68.9002 28.5845 69.2851 29.262 69.6519 29.9041C69.694 29.9785 69.7293 30.0595 69.7576 30.147C69.7688 30.1806 69.7661 30.2132 69.7497 30.2448C69.6064 30.5224 69.1057 30.4424 68.9121 30.314C68.8995 30.3058 68.8849 30.3013 68.8698 30.3009C68.8548 30.3004 68.84 30.3042 68.8269 30.3116C68.8139 30.319 68.8032 30.3299 68.7959 30.343C68.7886 30.3562 68.785 30.3711 68.7856 30.3861L68.8706 32.0277C68.6395 32.2463 68.4551 32.3141 68.3175 32.2311C68.222 32.1666 68.1624 32.0902 68.1387 32.002C68.0807 31.7873 68.0198 31.5733 67.956 31.36C67.9197 31.2388 67.8743 31.1591 67.8196 31.1209C67.713 31.0452 67.6517 31.0722 67.6359 31.2019L67.55 31.9072C67.5289 31.948 67.5141 31.9974 67.5056 32.0553C67.4252 32.2417 67.2985 32.3273 67.1253 32.3121C66.6986 32.2766 66.661 31.5822 66.6729 31.2474C66.6788 31.0923 66.6186 30.6636 66.4388 30.5905C66.4294 30.5866 66.4193 30.585 66.4092 30.5857C66.399 30.5864 66.3892 30.5895 66.3805 30.5946C66.3718 30.5998 66.3644 30.607 66.3589 30.6155C66.3534 30.6241 66.35 30.6338 66.3489 30.6439C66.2956 31.1298 66.3242 31.7323 65.9558 32.0978C65.9241 32.1289 65.8824 32.1478 65.8381 32.1511C65.7938 32.1543 65.7497 32.1417 65.7138 32.1156C64.8545 31.4913 65.6457 30.1836 64.6767 29.7233C64.6372 29.7049 64.5967 29.7026 64.5552 29.7164C64.333 29.7885 64.1196 29.8991 63.8905 29.9367C63.4546 30.0078 63.0269 29.9617 62.6074 29.7984C62.1155 29.6068 61.6302 29.4135 61.1515 29.2186C60.9961 29.1554 60.7999 29.1129 60.5628 29.0912C59.015 28.9489 57.2727 28.8699 55.5955 28.7306C54.486 28.6385 53.4044 28.4346 52.3508 28.1192C52.1118 28.0475 51.8297 27.9385 51.5044 27.7923C51.4695 27.7772 51.4359 27.7795 51.4036 27.7992C50.8525 28.1449 50.489 28.2832 49.842 28.1459C49.4153 28.0557 48.986 27.9836 48.554 27.9296C48.4552 27.9151 48.369 27.9158 48.2952 27.9316C48.0786 27.9065 47.885 27.9368 47.7145 28.0224C47.6842 28.0376 47.6749 28.061 47.6868 28.0926C47.8804 28.591 48.0141 29.1056 48.0878 29.6364C48.18 30.3001 48.3101 30.9188 48.478 31.4923C48.6607 32.1166 49.0449 32.6529 49.6247 32.9314C49.7995 33.0154 50.0119 33.1033 50.162 33.2327C50.6055 33.6169 50.6826 34.2994 50.7497 34.8763C50.755 34.9243 50.7777 34.9619 50.8179 34.9889C51.8287 35.6744 52.6732 36.5393 53.3514 37.5836C53.7149 38.1434 54.0484 38.7281 54.352 39.3378C55.1639 40.9686 55.9472 42.5005 57.247 43.6947C57.8485 44.2469 58.056 44.8553 58.2002 45.6425C58.2226 45.7656 58.2891 45.8865 58.3997 46.005C59.396 47.0698 60.2155 48.3196 60.8581 49.7544C61.2671 50.6671 61.6697 51.5643 62.0661 52.446C62.3012 52.9714 62.5877 53.4722 62.8257 54.0016C62.9166 54.2031 62.9791 54.4195 63.0134 54.6506C63.2563 56.3031 64.7755 57.3708 64.7656 59.0983C64.7597 60.0969 64.7814 61.0046 65.4521 61.7958C65.7023 62.0895 66.0141 62.3749 66.3874 62.6522C67.3465 63.3633 68.3955 64.0014 69.2054 64.8755C69.941 65.671 70.1658 66.6294 69.8801 67.7508C69.7181 68.3859 68.9121 68.8798 68.3303 69.0042C67.3811 69.2077 66.3094 68.4383 65.6654 67.8279C65.3651 67.5434 64.8147 66.985 64.0139 66.1527C63.6024 65.724 63.1293 65.3533 62.5946 65.0405C62.1017 64.7531 61.8627 64.4469 61.7431 63.9293C61.6529 63.5362 61.5775 63.1329 61.517 62.7193C61.4765 62.4398 61.3273 62.18 61.0972 61.9716C59.904 60.8881 59.3588 59.6317 58.777 58.1037C58.6565 57.7866 58.4728 57.4923 58.2743 57.2216C56.8144 55.2432 54.8676 53.7903 52.8605 52.361C51.6917 51.5294 50.5696 50.6457 49.4943 49.71C49.3017 49.5421 49.039 49.5154 48.8118 49.4216C48.5972 49.3333 48.3897 49.1684 48.1896 48.9267C47.8643 48.5336 47.5449 48.1105 47.2315 47.6575C46.7534 46.9661 46.1133 46.8525 45.4279 47.2436C45.1474 47.4036 44.8579 47.5567 44.5508 47.6466C44.1432 47.7665 43.7356 47.884 43.328 47.9992C43.0448 48.0796 42.7715 48.2185 42.5081 48.416C42.2711 48.5938 42.0153 48.6817 41.714 48.6422C41.6205 48.6304 41.5609 48.5794 41.5352 48.4891L41.4681 48.258C41.4586 48.2254 41.4383 48.197 41.4104 48.1775C41.3825 48.1581 41.3488 48.1489 41.315 48.1513C40.9844 48.1731 40.6413 48.1747 40.2858 48.1563C39.4258 48.1102 38.5836 48.0483 37.7591 47.9706L36.3921 47.9834C35.9411 48.0256 35.4755 48.1313 34.9955 48.3005C34.9736 48.308 34.9551 48.3228 34.9428 48.3424C34.9306 48.362 34.9255 48.3852 34.9283 48.4081L35.1061 49.9806L35.1288 50.1772L35.4133 52.6949C35.3995 52.7324 35.4005 52.7719 35.4163 52.8134C35.5121 54.2002 35.436 55.7213 35.0508 56.8917C35.0399 56.9231 35.0399 56.9572 35.0508 56.9885C35.4291 58.1294 35.5071 59.2623 35.6187 60.4229C35.6754 61.0109 35.789 61.5871 35.9595 62.1514C36.0003 62.2844 36.0566 62.4135 36.1284 62.5386C36.1765 62.6235 36.2713 62.723 36.4129 62.8369C36.7902 63.1418 36.9831 63.5556 36.9917 64.0784C37.0016 64.6915 36.9779 65.3101 36.9206 65.9344C36.8962 66.0812 36.8807 66.3183 36.8741 66.6455C36.8715 66.7838 36.8165 66.9218 36.7092 67.0594C36.3846 67.3557 35.9957 67.5118 35.5427 67.5276C35.2095 67.5388 34.7983 67.5332 34.309 67.5108C33.9824 67.4963 33.5959 67.5697 33.1494 67.7311C31.3192 68.3948 29.7042 68.9746 27.8592 69.0803C27.3989 69.1073 26.9475 69.077 26.505 68.9894C26.3305 68.9552 26.2235 68.8488 26.184 68.6704C26.1049 68.3135 26.1102 67.9431 26.1998 67.5592C26.2327 67.4176 26.2999 67.3044 26.4013 67.2194C26.5448 67.1002 26.6884 66.9922 26.8319 66.8954C27.6557 66.3417 28.4798 65.776 29.3042 65.1985C30.0476 64.6783 30.7216 64.0689 31.3261 63.3702C31.4202 63.3037 31.4887 63.2129 31.5315 63.0976C31.9088 62.7539 32.0771 62.3404 32.0363 61.857C31.9638 61.0037 31.8288 60.1657 31.6313 59.3433C31.4851 58.7335 31.2569 57.9667 30.9468 57.0429C30.2781 55.0506 29.644 53.331 29.3378 51.5116C29.2074 50.7303 29.1521 49.9697 29.1541 49.1707C29.159 47.618 29.242 46.0366 29.2825 44.5422C29.2993 43.9199 29.9482 43.4043 30.4421 43.024C30.8589 42.7027 31.4262 42.3399 32.1439 41.9356L32.3602 41.817C34.1948 40.8214 36.082 39.9407 38.0219 39.1749C38.1279 39.1327 38.175 39.0491 38.1631 38.924C38.1263 38.5421 37.9159 38.3238 37.532 38.2691C37.2126 38.2237 36.8857 38.1822 36.5512 38.1447C36.401 38.1282 36.2608 38.0594 36.1304 37.9382C35.4186 37.2745 34.7183 36.7378 34.0295 36.3282C33.4006 35.9542 32.753 35.5588 32.0866 35.142C31.1433 34.5503 30.443 35.4818 30.0776 36.2127C29.7865 36.7954 29.4487 37.3505 29.0642 37.878C28.9417 38.0459 28.8133 38.3185 28.7422 38.5161C28.3599 39.5769 28.1357 40.5557 27.3199 41.4427C27.1724 41.5434 27.067 41.6613 27.0038 41.7963C26.4612 43.4642 25.6384 44.9995 24.5354 46.4021C23.9099 47.1969 23.4559 47.7493 23.1734 48.0595C22.0072 49.3402 20.8535 50.6184 19.7124 51.8938C19.501 52.1289 19.1494 52.4687 19.101 52.8124C19.0371 53.2628 18.8751 53.6563 18.615 53.9928C18.2456 54.4718 19.2067 55.022 18.9765 55.6452C18.9449 55.7302 18.8465 55.822 18.6812 55.9208C18.5376 56.0064 18.4023 56.1035 18.2752 56.2122L18.0945 56.3771C17.7323 56.8769 17.3632 57.3665 16.9872 57.8459C16.7969 58.0889 16.5987 58.2568 16.3926 58.3496C16.1911 58.4415 16.0232 58.5531 15.9235 58.7595C15.5718 59.4944 15.2123 60.2243 14.6809 60.8239C14.293 61.2611 13.7877 61.5522 13.1647 61.697C12.0328 61.9608 10.4021 62.0022 9.3847 61.3335C7.97027 60.4051 7.01711 58.9907 7.00032 57.2888C6.99308 56.5467 7.10798 55.8382 7.34504 55.1632C7.45567 54.8485 7.65716 54.5271 7.94953 54.1992C8.84342 53.1967 10.0356 52.6702 11.3957 52.4835C12.096 52.3877 12.6679 52.3847 13.3159 52.6603C13.705 52.8243 14.1613 53.0791 14.5584 53.1404C14.5907 53.145 14.6203 53.138 14.6473 53.1196C15.1115 52.797 15.5333 52.4259 15.9126 52.0064L16.5339 51.2518C17.0034 50.6098 17.3214 50.1337 17.488 49.8236C18.1261 48.6343 18.803 47.4675 19.5188 46.3231C19.555 46.2645 19.5889 46.168 19.6205 46.0336C20.0894 44.0029 20.9872 42.1848 22.314 40.5794C22.3601 40.5379 22.3921 40.4958 22.4099 40.453L23.6811 39.0998C23.7028 39.0768 23.7071 39.0511 23.6939 39.0228L23.5161 38.6366L23.5349 38.3353C23.6844 38.0693 23.8477 37.8312 24.0248 37.6212C24.1275 37.4997 24.2144 37.3199 24.251 37.1648C24.8861 34.4753 25.8402 31.9348 26.983 29.4319L27.2161 28.9144C27.6725 27.9612 27.9125 27.3231 28.5348 26.6999C29.5804 25.6535 30.5902 24.6497 31.5641 23.6883C31.6286 23.6251 31.6833 23.554 31.7281 23.4749C31.7445 23.446 31.7492 23.4153 31.7419 23.3831C31.6234 22.8112 31.1888 22.3855 30.6732 22.1277C30.2238 21.9025 29.9176 21.3414 29.7339 20.8762C29.4099 20.0525 29.1462 19.3067 28.6069 18.5412C28.5877 18.5137 28.5779 18.4807 28.5792 18.4474C28.5996 18.0049 28.573 17.5825 28.4992 17.1802C28.3303 16.2665 27.6853 15.098 28.4607 14.2851C29.5156 13.1815 30.7614 12.4318 32.1982 12.0361C32.3918 11.9827 32.6233 11.9887 32.8926 12.0538C33.8152 12.2784 34.7548 12.4753 35.7116 12.6445C35.7709 12.655 35.814 12.687 35.841 12.7403C36.0227 13.1038 36.5235 13.1186 36.8732 13.1907C37.1912 13.2559 37.3196 13.4633 37.4846 13.7389C37.9488 14.5133 38.3261 15.2946 38.0663 16.1974C38.0235 16.3462 38.0054 16.4937 38.012 16.6399C38.0469 17.4063 38.0561 18.1738 38.0397 18.9423C38.0278 19.4855 38.1078 20.172 38.4693 20.576C38.4943 20.6043 38.5253 20.6197 38.5622 20.6224L39.062 20.6619Z" fill="black"/>
<path d="M63.6696 22.5688C63.7051 22.6182 63.744 22.6564 63.7861 22.6834C64.2573 23.195 64.118 24.0484 63.6923 24.5216C63.6581 24.5393 63.6347 24.5607 63.6222 24.5858C63.153 24.9907 62.5248 24.885 62.0191 24.5937C61.4531 24.2667 61.4304 23.441 61.6635 22.9155C62.0112 22.1313 63.0493 22.149 63.6696 22.5688Z" fill="black"/>
<path d="M3.374 106V96.256H5.572V106H3.374ZM0.28 98.034V96.116H8.666V98.034H0.28ZM10.9125 106.14C10.2871 106.14 9.72712 105.986 9.23245 105.678C8.74712 105.37 8.35979 104.95 8.07045 104.418C7.79045 103.886 7.65045 103.279 7.65045 102.598C7.65045 101.917 7.79045 101.31 8.07045 100.778C8.35979 100.246 8.74712 99.826 9.23245 99.518C9.72712 99.21 10.2871 99.056 10.9125 99.056C11.3698 99.056 11.7805 99.1447 12.1445 99.322C12.5178 99.4993 12.8211 99.7467 13.0545 100.064C13.2878 100.372 13.4185 100.727 13.4465 101.128V104.068C13.4185 104.469 13.2878 104.829 13.0545 105.146C12.8305 105.454 12.5318 105.697 12.1585 105.874C11.7851 106.051 11.3698 106.14 10.9125 106.14ZM11.3465 104.208C11.8038 104.208 12.1725 104.059 12.4525 103.76C12.7325 103.452 12.8725 103.065 12.8725 102.598C12.8725 102.281 12.8071 102.001 12.6765 101.758C12.5551 101.515 12.3778 101.329 12.1445 101.198C11.9205 101.058 11.6591 100.988 11.3605 100.988C11.0618 100.988 10.7958 101.058 10.5625 101.198C10.3385 101.329 10.1565 101.515 10.0165 101.758C9.88579 102.001 9.82045 102.281 9.82045 102.598C9.82045 102.906 9.88579 103.181 10.0165 103.424C10.1471 103.667 10.3291 103.858 10.5625 103.998C10.7958 104.138 11.0571 104.208 11.3465 104.208ZM12.7885 106V104.166L13.1105 102.514L12.7885 100.862V99.196H14.8885V106H12.7885ZM20.3166 106.14C19.8593 106.14 19.4393 106.047 19.0566 105.86C18.674 105.664 18.3613 105.407 18.1186 105.09C17.876 104.763 17.736 104.399 17.6986 103.998V101.128C17.736 100.727 17.876 100.372 18.1186 100.064C18.3613 99.7467 18.674 99.4993 19.0566 99.322C19.4393 99.1447 19.8593 99.056 20.3166 99.056C20.9606 99.056 21.53 99.21 22.0246 99.518C22.5286 99.826 22.9206 100.246 23.2006 100.778C23.49 101.31 23.6346 101.917 23.6346 102.598C23.6346 103.279 23.49 103.886 23.2006 104.418C22.9206 104.95 22.5286 105.37 22.0246 105.678C21.53 105.986 20.9606 106.14 20.3166 106.14ZM19.9386 104.208C20.2373 104.208 20.4986 104.138 20.7226 103.998C20.956 103.858 21.138 103.667 21.2686 103.424C21.3993 103.181 21.4646 102.906 21.4646 102.598C21.4646 102.281 21.3993 102.001 21.2686 101.758C21.138 101.515 20.956 101.329 20.7226 101.198C20.4986 101.058 20.2373 100.988 19.9386 100.988C19.64 100.988 19.374 101.058 19.1406 101.198C18.9073 101.329 18.7253 101.515 18.5946 101.758C18.4733 102.001 18.4126 102.281 18.4126 102.598C18.4126 102.915 18.478 103.195 18.6086 103.438C18.7393 103.681 18.9166 103.872 19.1406 104.012C19.374 104.143 19.64 104.208 19.9386 104.208ZM16.3966 106V95.836H18.5386V100.862L18.1886 102.514L18.5106 104.166V106H16.3966ZM24.7228 106V95.836H26.8648V106H24.7228ZM31.7332 106.154C30.9959 106.154 30.3379 106.005 29.7592 105.706C29.1899 105.398 28.7419 104.973 28.4152 104.432C28.0885 103.891 27.9252 103.279 27.9252 102.598C27.9252 101.917 28.0839 101.31 28.4012 100.778C28.7279 100.237 29.1665 99.812 29.7172 99.504C30.2679 99.196 30.8885 99.042 31.5792 99.042C32.2512 99.042 32.8439 99.1867 33.3572 99.476C33.8705 99.7653 34.2719 100.167 34.5612 100.68C34.8599 101.193 35.0092 101.781 35.0092 102.444C35.0092 102.565 34.9999 102.696 34.9812 102.836C34.9719 102.967 34.9485 103.121 34.9112 103.298L29.0452 103.312V101.842L34.0012 101.828L33.0772 102.444C33.0679 102.052 33.0072 101.73 32.8952 101.478C32.7832 101.217 32.6152 101.021 32.3912 100.89C32.1765 100.75 31.9105 100.68 31.5932 100.68C31.2572 100.68 30.9632 100.759 30.7112 100.918C30.4685 101.067 30.2772 101.282 30.1372 101.562C30.0065 101.842 29.9412 102.183 29.9412 102.584C29.9412 102.985 30.0112 103.331 30.1512 103.62C30.3005 103.9 30.5059 104.119 30.7672 104.278C31.0379 104.427 31.3552 104.502 31.7192 104.502C32.0552 104.502 32.3585 104.446 32.6292 104.334C32.8999 104.213 33.1379 104.035 33.3432 103.802L34.5192 104.978C34.1832 105.37 33.7772 105.664 33.3012 105.86C32.8252 106.056 32.3025 106.154 31.7332 106.154ZM41.1084 106V96.256H43.3064V106H41.1084ZM38.0144 98.034V96.116H46.4004V98.034H38.0144ZM49.1648 106.154C48.4275 106.154 47.7695 106.005 47.1908 105.706C46.6215 105.398 46.1735 104.973 45.8468 104.432C45.5202 103.891 45.3568 103.279 45.3568 102.598C45.3568 101.917 45.5155 101.31 45.8328 100.778C46.1595 100.237 46.5982 99.812 47.1488 99.504C47.6995 99.196 48.3202 99.042 49.0108 99.042C49.6828 99.042 50.2755 99.1867 50.7888 99.476C51.3022 99.7653 51.7035 100.167 51.9928 100.68C52.2915 101.193 52.4408 101.781 52.4408 102.444C52.4408 102.565 52.4315 102.696 52.4128 102.836C52.4035 102.967 52.3802 103.121 52.3428 103.298L46.4768 103.312V101.842L51.4328 101.828L50.5088 102.444C50.4995 102.052 50.4388 101.73 50.3268 101.478C50.2148 101.217 50.0468 101.021 49.8228 100.89C49.6082 100.75 49.3422 100.68 49.0248 100.68C48.6888 100.68 48.3948 100.759 48.1428 100.918C47.9002 101.067 47.7088 101.282 47.5688 101.562C47.4382 101.842 47.3728 102.183 47.3728 102.584C47.3728 102.985 47.4428 103.331 47.5828 103.62C47.7322 103.9 47.9375 104.119 48.1988 104.278C48.4695 104.427 48.7868 104.502 49.1508 104.502C49.4868 104.502 49.7902 104.446 50.0608 104.334C50.3315 104.213 50.5695 104.035 50.7748 103.802L51.9508 104.978C51.6148 105.37 51.2088 105.664 50.7328 105.86C50.2568 106.056 49.7342 106.154 49.1648 106.154ZM57.9688 106V102.122C57.9688 101.767 57.8568 101.483 57.6328 101.268C57.4181 101.044 57.1428 100.932 56.8068 100.932C56.5734 100.932 56.3681 100.983 56.1908 101.086C56.0134 101.179 55.8734 101.319 55.7708 101.506C55.6681 101.683 55.6168 101.889 55.6168 102.122L54.7908 101.716C54.7908 101.184 54.9074 100.717 55.1408 100.316C55.3741 99.9147 55.6961 99.6067 56.1068 99.392C56.5268 99.168 56.9981 99.056 57.5208 99.056C58.0248 99.056 58.4681 99.1773 58.8508 99.42C59.2428 99.6533 59.5508 99.966 59.7748 100.358C59.9988 100.75 60.1107 101.179 60.1107 101.646V106H57.9688ZM53.4748 106V99.196H55.6168V106H53.4748ZM65.9805 106V102.122C65.9805 101.767 65.8685 101.483 65.6445 101.268C65.4298 101.044 65.1545 100.932 64.8185 100.932C64.5851 100.932 64.3798 100.983 64.2025 101.086C64.0251 101.179 63.8851 101.319 63.7825 101.506C63.6798 101.683 63.6285 101.889 63.6285 102.122L62.8025 101.716C62.8025 101.184 62.9191 100.717 63.1525 100.316C63.3858 99.9147 63.7078 99.6067 64.1185 99.392C64.5385 99.168 65.0098 99.056 65.5325 99.056C66.0365 99.056 66.4798 99.1773 66.8625 99.42C67.2545 99.6533 67.5625 99.966 67.7865 100.358C68.0105 100.75 68.1225 101.179 68.1225 101.646V106H65.9805ZM61.4865 106V99.196H63.6285V106H61.4865ZM69.4982 106V99.196H71.6402V106H69.4982ZM70.5762 98.258C70.2402 98.258 69.9602 98.146 69.7362 97.922C69.5215 97.6887 69.4142 97.4087 69.4142 97.082C69.4142 96.746 69.5215 96.466 69.7362 96.242C69.9602 96.018 70.2402 95.906 70.5762 95.906C70.9122 95.906 71.1875 96.018 71.4022 96.242C71.6169 96.466 71.7242 96.746 71.7242 97.082C71.7242 97.4087 71.6169 97.6887 71.4022 97.922C71.1875 98.146 70.9122 98.258 70.5762 98.258ZM75.6266 106.168C75.2252 106.168 74.8286 106.117 74.4366 106.014C74.0539 105.911 73.6946 105.767 73.3586 105.58C73.0319 105.384 72.7519 105.16 72.5186 104.908L73.7366 103.676C73.9606 103.919 74.2266 104.11 74.5346 104.25C74.8426 104.381 75.1786 104.446 75.5426 104.446C75.7946 104.446 75.9859 104.409 76.1166 104.334C76.2566 104.259 76.3266 104.157 76.3266 104.026C76.3266 103.858 76.2426 103.732 76.0746 103.648C75.9159 103.555 75.7106 103.475 75.4586 103.41C75.2066 103.335 74.9406 103.256 74.6606 103.172C74.3806 103.088 74.1146 102.971 73.8626 102.822C73.6106 102.673 73.4052 102.467 73.2466 102.206C73.0879 101.935 73.0086 101.595 73.0086 101.184C73.0086 100.745 73.1206 100.367 73.3446 100.05C73.5686 99.7233 73.8859 99.4667 74.2966 99.28C74.7072 99.0933 75.1879 99 75.7386 99C76.3172 99 76.8492 99.1027 77.3346 99.308C77.8292 99.504 78.2306 99.798 78.5386 100.19L77.3206 101.422C77.1059 101.17 76.8632 100.993 76.5926 100.89C76.3312 100.787 76.0746 100.736 75.8226 100.736C75.5799 100.736 75.3979 100.773 75.2766 100.848C75.1552 100.913 75.0946 101.011 75.0946 101.142C75.0946 101.282 75.1739 101.394 75.3326 101.478C75.4912 101.562 75.6966 101.637 75.9486 101.702C76.2006 101.767 76.4666 101.847 76.7466 101.94C77.0266 102.033 77.2926 102.159 77.5446 102.318C77.7966 102.477 78.0019 102.691 78.1606 102.962C78.3192 103.223 78.3986 103.569 78.3986 103.998C78.3986 104.661 78.1466 105.188 77.6426 105.58C77.1479 105.972 76.4759 106.168 75.6266 106.168Z" fill="white"/>
</svg>
