<svg width="82" height="109" viewBox="0 0 82 109" fill="none" xmlns="http://www.w3.org/2000/svg">
<circle cx="41" cy="41" r="41" fill="#F1F1F0"/>
<path d="M32.4175 52.6758C32.4126 52.6716 32.4082 52.6721 32.4043 52.6773C31.7964 53.4069 31.2233 54.0593 30.6848 54.6346C30.6525 54.669 30.6144 54.6799 30.5704 54.6674C30.5588 54.6639 30.5482 54.6576 30.5392 54.649C30.5303 54.6404 30.5233 54.6298 30.5189 54.618C30.5145 54.6062 30.5128 54.5935 30.5138 54.5809C30.5149 54.5683 30.5187 54.5562 30.525 54.5455C31.1583 53.4387 31.8795 52.3928 32.4761 51.2704C32.527 51.1734 32.5104 51.113 32.4263 51.089C32.4153 51.0861 32.404 51.0857 32.3931 51.0879C32.3822 51.09 32.372 51.0947 32.3633 51.1015C31.9831 51.385 31.6127 51.7211 31.2521 52.1099C31.1671 52.2005 31.0703 52.2704 30.9618 52.3193C30.8133 52.386 30.7038 52.3423 30.6335 52.188C30.6123 52.1419 30.6005 52.0916 30.599 52.0404C30.5975 51.9892 30.6062 51.9382 30.6247 51.891C30.9779 50.9874 31.8561 50.4231 32.5788 49.8681C32.9277 49.6002 33.2907 49.3089 33.668 48.9942C34.1322 48.6065 34.7063 48.2297 35.3905 47.8639C35.4989 47.8056 35.5727 47.7138 35.6118 47.5888C36.1884 45.7482 36.8764 43.8702 37.6759 41.9546C37.6993 41.8983 37.6852 41.8567 37.6334 41.8296C36.8965 41.4398 35.4618 40.6076 33.3293 39.3329C31.3591 38.1553 29.75 36.9291 28.502 35.6545C27.511 34.6415 26.4115 33.5987 25.529 32.4528C25.1743 31.9932 24.9001 31.5617 25.035 31.0208C25.2998 29.9672 25.6697 28.7587 26.1447 27.3955C27.1093 24.6264 28.0016 21.9797 28.8215 19.4555C29.2916 18.0037 29.6288 16.6322 29.833 15.3409C29.9611 14.5248 30.05 13.4878 30.0998 12.2299C30.1687 10.468 30.2494 8.64523 30.4986 6.8865C30.5396 6.59677 30.6496 6.32319 30.8284 6.06577C31.3982 5.24034 31.9992 4.57177 32.6315 4.06005C32.6631 4.03442 32.6994 4.01639 32.7381 4.00719C32.7768 3.99799 32.8168 3.99785 32.8556 4.00676C32.8943 4.01568 32.9308 4.03344 32.9625 4.05884C32.9941 4.08423 33.0203 4.11664 33.0391 4.15384C33.4144 4.89172 33.6357 5.70777 33.6108 6.56134C33.5785 7.69474 33.5771 9.07045 33.9817 10.0475C34.3965 11.048 35.1149 12.0235 35.282 13.1147C35.4198 14.0042 34.5593 14.5264 33.8644 14.7327C33.8107 14.7494 33.7676 14.7817 33.7354 14.8297C33.5077 15.1778 33.3987 15.4472 33.4085 15.6379C33.5111 17.6754 33.5351 19.6499 33.4803 21.5613C33.4378 23.0183 33.2941 24.2986 32.74 25.5399C32.1097 26.95 31.2838 28.3262 30.2626 29.6686C30.2511 29.6835 30.2455 29.7025 30.2469 29.7217C30.2483 29.7409 30.2565 29.7589 30.2699 29.7718C30.823 30.3179 31.3948 30.7947 31.9851 31.2022C32.6477 31.6602 33.363 31.8416 34.0608 32.1746C35.3274 32.7822 36.5705 33.4382 37.7902 34.1428C37.8132 34.1562 37.8402 34.1595 37.8657 34.1519C37.8911 34.1444 37.9129 34.1265 37.9265 34.1021C39.0192 32.1449 40.1641 30.2095 41.3613 28.296C41.9965 27.2819 42.6454 26.3721 43.308 25.5665C43.3735 25.4862 43.3598 25.4648 43.267 25.5024C42.7529 25.7087 42.2061 25.7994 41.6266 25.7744C41.5758 25.7723 41.5386 25.7952 41.5152 25.8432C40.8643 27.1704 39.0641 27.4581 38.2403 26.1527C37.6724 25.2512 37.7482 24.3523 38.4675 23.456C38.4997 23.4154 38.5061 23.37 38.4865 23.32C38.08 22.2945 37.9847 21.185 38.2007 19.9917C38.3458 19.196 38.6859 18.3784 39.4555 18.0876C40.492 17.6952 40.7807 16.7166 41.2059 15.7661C41.4478 15.2236 41.848 15.5394 42.1543 15.7473C42.2413 15.8057 42.3078 15.7859 42.3537 15.6879C42.4534 15.4743 42.6 15.3966 42.7935 15.455C42.8599 15.4748 42.9113 15.4534 42.9474 15.3909C43.0647 15.1892 43.3593 15.0016 43.547 15.197C43.5832 15.2356 43.6262 15.258 43.676 15.2643C43.724 15.2713 43.7724 15.2584 43.8109 15.2283C44.2477 14.8948 44.6284 14.9688 44.9528 15.4503C45.3574 16.0537 45.8778 16.8073 46.4891 17.1402C47.5505 17.7202 48.7702 18.3971 49.5955 19.2992C50.0773 19.8265 50.5361 20.3607 50.972 20.9016C51.1264 21.0933 51.3151 21.2439 51.5379 21.3534C53.8907 22.5165 57.0029 25.3836 57 28.4242C56.9971 30.7358 56.8602 32.742 56.5895 34.4429C56.5201 34.8754 56.3701 35.2512 56.1395 35.5701C55.7075 36.1662 55.2076 36.778 54.6398 37.4054C52.609 39.6545 50.2918 41.6534 47.6883 43.4022C47.6589 43.4218 47.635 43.4492 47.619 43.4816C47.603 43.5141 47.5956 43.5504 47.5974 43.5867C47.6639 45.0573 47.6863 46.6128 47.6648 48.2532C47.6453 49.6737 47.5226 50.9765 47.2969 52.1615C47.0262 53.5778 46.7315 55.0348 46.4129 56.5325C46.2971 57.0765 46.171 57.8706 46.1476 58.5194C46.1256 59.1322 46.1256 60.1171 45.8485 60.6799C45.6765 61.0322 45.5837 61.4246 45.57 61.8571C45.5407 62.7617 45.5387 63.7331 45.5641 64.7711C45.6052 66.521 45.6584 68.2541 45.7239 69.9706C45.7928 71.795 46.281 74.3463 47.9243 75.214C48.9798 75.7716 50.1467 76.2202 51.425 76.56C52.0187 76.7179 53.2003 77.4448 52.2533 78.1671C51.425 78.7986 50.4897 78.758 49.5295 78.45C48.0738 77.9826 46.2531 78.1342 44.6289 78.364C43.9369 78.461 42.8741 78.2921 42.751 77.4042C42.7178 77.1666 42.7324 76.8857 42.795 76.5616C42.8702 76.1739 42.9122 75.7752 42.921 75.3656C42.9484 74.1744 42.8741 73.0509 42.6982 71.9951C42.5927 71.3615 42.3791 70.5011 42.0576 69.4141C41.4683 67.4178 40.7705 65.0056 41.0915 62.9295C41.2078 62.177 41.3388 61.3917 41.4844 60.5736C41.6271 59.7669 41.6593 59.0822 41.5812 58.5194C41.1336 55.2917 40.8711 53.2578 40.7939 52.4178C40.5496 49.7342 40.4006 46.9124 40.3468 43.9525C40.3439 43.792 40.3102 43.7842 40.2457 43.9291C39.6476 45.2819 38.9884 46.7258 38.2681 48.261C37.8884 49.0692 37.4589 49.7243 36.8579 50.3214C35.559 51.6148 34.2333 53.0181 32.8807 54.5314C32.6139 54.83 31.944 55.4882 31.5423 55.3537C31.3884 55.3021 31.236 55.3443 31.0835 55.3631C31.0427 55.3679 31.0014 55.3613 30.9638 55.3439C30.9261 55.3265 30.8934 55.2989 30.8689 55.2639C30.8444 55.229 30.829 55.1878 30.8242 55.1446C30.8194 55.1014 30.8254 55.0576 30.8416 55.0176C30.8817 54.9186 30.9349 54.8269 31.0014 54.7425C31.5252 54.0817 32.0105 53.4256 32.4571 52.7743C32.4757 52.7472 32.4727 52.7232 32.4483 52.7024L32.4175 52.6758Z" stroke="#8E8E8E" stroke-width="0.312661"/>
<path d="M46.8682 30.7766C47.1423 31.4254 47.3827 32.0648 47.5293 32.7745C47.6095 33.1654 47.478 33.4421 47.135 33.6047C46.3932 33.9559 45.628 34.242 44.8393 34.4629C44.767 34.4827 44.7499 34.4582 44.788 34.3894L46.7876 30.772C46.7918 30.7643 46.7979 30.758 46.8053 30.7538C46.8126 30.7496 46.8209 30.7476 46.8292 30.7481C46.8375 30.7486 46.8456 30.7515 46.8524 30.7566C46.8593 30.7616 46.8648 30.7685 46.8682 30.7766Z" stroke="#8E8E8E" stroke-width="0.312661"/>
<path d="M42.0881 32.2131L41.5897 33.6763C41.5721 33.7274 41.5374 33.7534 41.4856 33.7545L41.0077 33.7623C40.9393 33.7633 40.9256 33.7347 40.9666 33.6763L42.0133 32.1708C42.1306 32.002 42.1555 32.0161 42.0881 32.2131Z" stroke="#8E8E8E" stroke-width="0.312661"/>
<path d="M32.4175 52.6757L32.4483 52.7023C32.4727 52.7231 32.4757 52.7471 32.4571 52.7742C32.0105 53.4256 31.5252 54.0816 31.0014 54.7424C30.9349 54.8268 30.8817 54.9185 30.8416 55.0176C30.8254 55.0575 30.8194 55.1013 30.8242 55.1445C30.829 55.1878 30.8444 55.2289 30.8689 55.2639C30.8934 55.2989 30.9261 55.3264 30.9638 55.3438C31.0014 55.3612 31.0427 55.3679 31.0835 55.363C31.236 55.3443 31.3884 55.3021 31.5423 55.3537C31.944 55.4881 32.6139 54.83 32.8807 54.5314C34.2333 53.0181 35.559 51.6147 36.8579 50.3214C37.4589 49.7242 37.8884 49.0692 38.2681 48.2609C38.9884 46.7258 39.6476 45.2818 40.2457 43.929C40.3102 43.7841 40.3439 43.792 40.3468 43.9525C40.4006 46.9123 40.5496 49.7341 40.7939 52.4178C40.8711 53.2578 41.1336 55.2916 41.5812 58.5194C41.6593 59.0821 41.6271 59.7669 41.4844 60.5735C41.3388 61.3917 41.2078 62.177 41.0915 62.9294C40.7705 65.0055 41.4683 67.4177 42.0576 69.414C42.3791 70.5011 42.5927 71.3614 42.6982 71.9951C42.8741 73.0508 42.9484 74.1743 42.921 75.3656C42.9122 75.7751 42.8702 76.1738 42.795 76.5615C42.7324 76.8856 42.7178 77.1665 42.751 77.4041C42.8741 78.2921 43.9369 78.4609 44.6289 78.364C46.2531 78.1342 48.0738 77.9825 49.5295 78.45C50.4897 78.7579 51.425 78.7986 52.2533 78.167C53.2003 77.4448 52.0187 76.7178 51.425 76.5599C50.1467 76.2202 48.9798 75.7715 47.9243 75.2139C46.281 74.3463 45.7928 71.795 45.7239 69.9706C45.6584 68.2541 45.6052 66.5209 45.5641 64.771C45.5387 63.733 45.5407 62.7617 45.57 61.857C45.5837 61.4245 45.6765 61.0321 45.8485 60.6799C46.1256 60.1171 46.1256 59.1322 46.1476 58.5194C46.171 57.8706 46.2971 57.0764 46.4129 56.5324C46.7315 55.0347 47.0262 53.5777 47.2969 52.1614C47.5226 50.9764 47.6453 49.6736 47.6648 48.2531C47.6863 46.6127 47.6639 45.0572 47.5974 43.5866C47.5956 43.5503 47.603 43.514 47.619 43.4815C47.635 43.4491 47.6589 43.4217 47.6883 43.4022C50.2918 41.6534 52.609 39.6544 54.6398 37.4053C55.2076 36.7779 55.7075 36.1661 56.1395 35.57C56.3701 35.2511 56.5201 34.8754 56.5895 34.4429C56.8602 32.742 56.9971 30.7357 57 28.4241C57.0029 25.3835 53.8907 22.5164 51.5379 21.3533C51.3151 21.2439 51.1264 21.0933 50.972 20.9015C50.5361 20.3606 50.0773 19.8265 49.5955 19.2991C48.7702 18.3971 47.5505 17.7202 46.4891 17.1402C45.8778 16.8072 45.3574 16.0537 44.9528 15.4502C44.6284 14.9687 44.2477 14.8947 43.8109 15.2283C43.7724 15.2583 43.724 15.2712 43.676 15.2642C43.6262 15.258 43.5832 15.2355 43.547 15.197C43.3594 15.0016 43.0647 15.1892 42.9474 15.3908C42.9113 15.4534 42.8599 15.4747 42.7935 15.4549C42.6 15.3966 42.4534 15.4742 42.3537 15.6879C42.3078 15.7858 42.2413 15.8056 42.1543 15.7473C41.848 15.5394 41.4478 15.2236 41.2059 15.766C40.7807 16.7165 40.492 17.6952 39.4555 18.0875C38.6859 18.3783 38.3458 19.1959 38.2007 19.9916C37.9847 21.185 38.08 22.2944 38.4865 23.3199C38.5061 23.37 38.4997 23.4153 38.4675 23.4559C37.7482 24.3522 37.6724 25.2511 38.2403 26.1526C39.0641 27.458 40.8643 27.1704 41.5152 25.8431C41.5386 25.7952 41.5758 25.7722 41.6266 25.7743C42.2061 25.7993 42.7529 25.7087 43.267 25.5023C43.3598 25.4648 43.3735 25.4862 43.308 25.5664C42.6454 26.372 41.9965 27.2819 41.3613 28.2959C40.1641 30.2094 39.0192 32.1448 37.9265 34.1021C37.9129 34.1264 37.8911 34.1443 37.8657 34.1519C37.8403 34.1595 37.8132 34.1562 37.7902 34.1427C36.5705 33.4382 35.3274 32.7821 34.0608 32.1745C33.363 31.8415 32.6477 31.6602 31.9851 31.2021C31.3948 30.7946 30.823 30.3178 30.2699 29.7717C30.2565 29.7588 30.2483 29.7409 30.2469 29.7217C30.2455 29.7025 30.2511 29.6834 30.2626 29.6685C31.2838 28.3262 32.1097 26.9499 32.74 25.5398C33.2941 24.2986 33.4378 23.0182 33.4803 21.5612C33.5351 19.6498 33.5111 17.6753 33.4085 15.6378C33.3987 15.4471 33.5077 15.1777 33.7354 14.8296C33.7676 14.7817 33.8106 14.7494 33.8644 14.7327C34.5593 14.5263 35.4198 14.0042 35.282 13.1147C35.1149 12.0235 34.3965 11.048 33.9817 10.0475C33.5771 9.07038 33.5785 7.69467 33.6108 6.56128C33.6357 5.70771 33.4144 4.89166 33.0391 4.15378C33.0203 4.11658 32.9941 4.08417 32.9625 4.05877C32.9308 4.03338 32.8943 4.01562 32.8556 4.0067C32.8168 3.99779 32.7768 3.99793 32.7381 4.00713C32.6994 4.01633 32.6631 4.03436 32.6315 4.05998C31.9992 4.57171 31.3982 5.24028 30.8284 6.06571C30.6496 6.32313 30.5396 6.59671 30.4986 6.88644C30.2494 8.64516 30.1687 10.468 30.0998 12.2298C30.05 13.4878 29.9611 14.5248 29.833 15.3408C29.6288 16.6321 29.2916 18.0036 28.8215 19.4554C28.0016 21.9797 27.1093 24.6263 26.1447 27.3955C25.6697 28.7587 25.2998 29.9671 25.035 31.0208C24.9001 31.5617 25.1743 31.9932 25.529 32.4528C26.4115 33.5987 27.511 34.6414 28.502 35.6544C29.75 36.929 31.3591 38.1552 33.3293 39.3329C35.4618 40.6075 36.8965 41.4397 37.6334 41.8295C37.6852 41.8566 37.6993 41.8983 37.6759 41.9546C36.8764 43.8701 36.1884 45.7482 35.6118 47.5887C35.5727 47.7138 35.4989 47.8055 35.3905 47.8639C34.7063 48.2297 34.1322 48.6064 33.668 48.9941C33.2907 49.3089 32.9277 49.6002 32.5788 49.868C31.8561 50.423 30.9779 50.9873 30.6247 51.8909C30.6062 51.9382 30.5975 51.9891 30.599 52.0403C30.6005 52.0915 30.6123 52.1419 30.6334 52.188C30.7038 52.3422 30.8133 52.386 30.9618 52.3193C31.0703 52.2703 31.1671 52.2005 31.2521 52.1098C31.6127 51.7211 31.9831 51.3849 32.3633 51.1015C32.372 51.0946 32.3822 51.09 32.3931 51.0878C32.404 51.0857 32.4153 51.086 32.4263 51.089C32.5104 51.1129 32.527 51.1734 32.4761 51.2703C31.8795 52.3928 31.1583 53.4386 30.525 54.5454C30.5187 54.5561 30.5149 54.5682 30.5138 54.5808C30.5128 54.5934 30.5145 54.6061 30.5189 54.6179C30.5233 54.6297 30.5303 54.6404 30.5392 54.649C30.5482 54.6575 30.5588 54.6638 30.5704 54.6674C30.6144 54.6799 30.6525 54.6689 30.6848 54.6345C31.2233 54.0592 31.7964 53.4068 32.4043 52.6773C32.4082 52.6721 32.4126 52.6715 32.4175 52.6757ZM46.8659 30.7769C47.14 31.4257 47.3804 32.0651 47.527 32.7748C47.6072 33.1656 47.4757 33.4423 47.1327 33.6049C46.3909 33.9562 45.6257 34.2422 44.837 34.4632C44.7647 34.483 44.7476 34.4585 44.7857 34.3897L46.7853 30.7722C46.7895 30.7646 46.7956 30.7583 46.803 30.7541C46.8103 30.7499 46.8186 30.7479 46.8269 30.7484C46.8352 30.7489 46.8433 30.7518 46.8502 30.7568C46.857 30.7618 46.8625 30.7688 46.8659 30.7769ZM42.0869 32.2136L41.5885 33.6768C41.5709 33.7279 41.5362 33.754 41.4844 33.755L41.0065 33.7628C40.9381 33.7639 40.9244 33.7352 40.9655 33.6768L42.0121 32.1714C42.1294 32.0025 42.1543 32.0166 42.0869 32.2136Z" fill="#1C1C1C"/>
<path d="M8.614 106.154C7.89533 106.154 7.21867 106.023 6.584 105.762C5.95867 105.501 5.41267 105.141 4.946 104.684C4.47933 104.217 4.11067 103.676 3.84 103.06C3.57867 102.435 3.448 101.763 3.448 101.044C3.448 100.325 3.58333 99.658 3.854 99.042C4.12467 98.426 4.498 97.8893 4.974 97.432C5.45933 96.9653 6.024 96.606 6.668 96.354C7.312 96.0927 8.00267 95.962 8.74 95.962C9.58933 95.962 10.3593 96.116 11.05 96.424C11.75 96.732 12.3287 97.1567 12.786 97.698L11.288 99.196C10.9707 98.7853 10.5973 98.4773 10.168 98.272C9.73867 98.0667 9.25333 97.964 8.712 97.964C8.13333 97.964 7.61533 98.0947 7.158 98.356C6.70067 98.608 6.34133 98.9673 6.08 99.434C5.828 99.8913 5.702 100.428 5.702 101.044C5.702 101.66 5.828 102.201 6.08 102.668C6.332 103.135 6.67733 103.499 7.116 103.76C7.55467 104.021 8.05867 104.152 8.628 104.152C9.20667 104.152 9.69667 104.045 10.098 103.83C10.5087 103.606 10.8213 103.289 11.036 102.878C11.26 102.458 11.372 101.949 11.372 101.352L12.828 102.332L8.418 102.262V100.4H13.612V100.722C13.612 101.907 13.3973 102.906 12.968 103.718C12.548 104.521 11.96 105.127 11.204 105.538C10.4573 105.949 9.594 106.154 8.614 106.154ZM16.8482 106.028L14.0482 99.196H16.3582L18.1362 104.614H17.2822L19.1022 99.196H21.4122L18.5002 106.028H16.8482ZM15.0982 108.87L17.1422 104.46L18.5002 106.028L17.2962 108.87H15.0982ZM22.0626 106V99.196H24.2046V106H22.0626ZM26.4166 106V102.024C26.4166 101.679 26.3093 101.413 26.0946 101.226C25.8893 101.03 25.6326 100.932 25.3246 100.932C25.11 100.932 24.9186 100.979 24.7506 101.072C24.5826 101.156 24.4473 101.277 24.3446 101.436C24.2513 101.595 24.2046 101.791 24.2046 102.024L23.3786 101.66C23.3786 101.119 23.4953 100.657 23.7286 100.274C23.962 99.882 24.2793 99.5833 24.6806 99.378C25.082 99.1633 25.5346 99.056 26.0386 99.056C26.5146 99.056 26.9393 99.1633 27.3126 99.378C27.6953 99.5927 27.9986 99.8913 28.2226 100.274C28.4466 100.657 28.5586 101.114 28.5586 101.646V106H26.4166ZM30.7706 106V102.024C30.7706 101.679 30.6633 101.413 30.4486 101.226C30.2433 101.03 29.9866 100.932 29.6786 100.932C29.464 100.932 29.2726 100.979 29.1046 101.072C28.9366 101.156 28.8013 101.277 28.6986 101.436C28.6053 101.595 28.5586 101.791 28.5586 102.024L27.3266 101.856C27.3453 101.277 27.4806 100.783 27.7326 100.372C27.994 99.952 28.3346 99.63 28.7546 99.406C29.184 99.1727 29.6646 99.056 30.1966 99.056C30.7193 99.056 31.1813 99.168 31.5826 99.392C31.9933 99.6067 32.3153 99.9193 32.5486 100.33C32.7913 100.731 32.9126 101.217 32.9126 101.786V106H30.7706ZM38.7793 106V102.122C38.7793 101.767 38.6673 101.483 38.4433 101.268C38.2286 101.044 37.9533 100.932 37.6173 100.932C37.384 100.932 37.1786 100.983 37.0013 101.086C36.824 101.179 36.684 101.319 36.5813 101.506C36.4786 101.683 36.4273 101.889 36.4273 102.122L35.6013 101.716C35.6013 101.184 35.718 100.717 35.9513 100.316C36.1846 99.9147 36.5066 99.6067 36.9173 99.392C37.3373 99.168 37.8086 99.056 38.3313 99.056C38.8353 99.056 39.2786 99.1773 39.6613 99.42C40.0533 99.6533 40.3613 99.966 40.5853 100.358C40.8093 100.75 40.9213 101.179 40.9213 101.646V106H38.7793ZM34.2853 106V99.196H36.4273V106H34.2853ZM45.139 106.14C44.5137 106.14 43.9537 105.986 43.459 105.678C42.9737 105.37 42.5863 104.95 42.297 104.418C42.017 103.886 41.877 103.279 41.877 102.598C41.877 101.917 42.017 101.31 42.297 100.778C42.5863 100.246 42.9737 99.826 43.459 99.518C43.9537 99.21 44.5137 99.056 45.139 99.056C45.5963 99.056 46.007 99.1447 46.371 99.322C46.7443 99.4993 47.0477 99.7467 47.281 100.064C47.5143 100.372 47.645 100.727 47.673 101.128V104.068C47.645 104.469 47.5143 104.829 47.281 105.146C47.057 105.454 46.7583 105.697 46.385 105.874C46.0117 106.051 45.5963 106.14 45.139 106.14ZM45.573 104.208C46.0303 104.208 46.399 104.059 46.679 103.76C46.959 103.452 47.099 103.065 47.099 102.598C47.099 102.281 47.0337 102.001 46.903 101.758C46.7817 101.515 46.6043 101.329 46.371 101.198C46.147 101.058 45.8857 100.988 45.587 100.988C45.2883 100.988 45.0223 101.058 44.789 101.198C44.565 101.329 44.383 101.515 44.243 101.758C44.1123 102.001 44.047 102.281 44.047 102.598C44.047 102.906 44.1123 103.181 44.243 103.424C44.3737 103.667 44.5557 103.858 44.789 103.998C45.0223 104.138 45.2837 104.208 45.573 104.208ZM47.015 106V104.166L47.337 102.514L47.015 100.862V99.196H49.115V106H47.015ZM53.1012 106.168C52.6999 106.168 52.3032 106.117 51.9112 106.014C51.5285 105.911 51.1692 105.767 50.8332 105.58C50.5065 105.384 50.2265 105.16 49.9932 104.908L51.2112 103.676C51.4352 103.919 51.7012 104.11 52.0092 104.25C52.3172 104.381 52.6532 104.446 53.0172 104.446C53.2692 104.446 53.4605 104.409 53.5912 104.334C53.7312 104.259 53.8012 104.157 53.8012 104.026C53.8012 103.858 53.7172 103.732 53.5492 103.648C53.3905 103.555 53.1852 103.475 52.9332 103.41C52.6812 103.335 52.4152 103.256 52.1352 103.172C51.8552 103.088 51.5892 102.971 51.3372 102.822C51.0852 102.673 50.8799 102.467 50.7212 102.206C50.5625 101.935 50.4832 101.595 50.4832 101.184C50.4832 100.745 50.5952 100.367 50.8192 100.05C51.0432 99.7233 51.3605 99.4667 51.7712 99.28C52.1819 99.0933 52.6625 99 53.2132 99C53.7919 99 54.3239 99.1027 54.8092 99.308C55.3039 99.504 55.7052 99.798 56.0132 100.19L54.7952 101.422C54.5805 101.17 54.3379 100.993 54.0672 100.89C53.8059 100.787 53.5492 100.736 53.2972 100.736C53.0545 100.736 52.8725 100.773 52.7512 100.848C52.6299 100.913 52.5692 101.011 52.5692 101.142C52.5692 101.282 52.6485 101.394 52.8072 101.478C52.9659 101.562 53.1712 101.637 53.4232 101.702C53.6752 101.767 53.9412 101.847 54.2212 101.94C54.5012 102.033 54.7672 102.159 55.0192 102.318C55.2712 102.477 55.4765 102.691 55.6352 102.962C55.7939 103.223 55.8732 103.569 55.8732 103.998C55.8732 104.661 55.6212 105.188 55.1172 105.58C54.6225 105.972 53.9505 106.168 53.1012 106.168ZM58.0013 106V96.382H60.1433V106H58.0013ZM56.4613 101.016V99.196H61.6833V101.016H56.4613ZM62.6271 106V99.196H64.7691V106H62.6271ZM63.7051 98.258C63.3691 98.258 63.0891 98.146 62.8651 97.922C62.6504 97.6887 62.5431 97.4087 62.5431 97.082C62.5431 96.746 62.6504 96.466 62.8651 96.242C63.0891 96.018 63.3691 95.906 63.7051 95.906C64.0411 95.906 64.3164 96.018 64.5311 96.242C64.7458 96.466 64.8531 96.746 64.8531 97.082C64.8531 97.4087 64.7458 97.6887 64.5311 97.922C64.3164 98.146 64.0411 98.258 63.7051 98.258ZM69.5675 106.154C68.8675 106.154 68.2328 106 67.6635 105.692C67.0942 105.384 66.6462 104.959 66.3195 104.418C65.9928 103.877 65.8295 103.27 65.8295 102.598C65.8295 101.917 65.9928 101.31 66.3195 100.778C66.6555 100.237 67.1082 99.812 67.6775 99.504C68.2468 99.196 68.8862 99.042 69.5955 99.042C70.1275 99.042 70.6128 99.1353 71.0515 99.322C71.4995 99.4993 71.8962 99.77 72.2415 100.134L70.8695 101.506C70.7108 101.329 70.5242 101.198 70.3095 101.114C70.1042 101.03 69.8662 100.988 69.5955 100.988C69.2875 100.988 69.0122 101.058 68.7695 101.198C68.5362 101.329 68.3495 101.515 68.2095 101.758C68.0788 101.991 68.0135 102.267 68.0135 102.584C68.0135 102.901 68.0788 103.181 68.2095 103.424C68.3495 103.667 68.5408 103.858 68.7835 103.998C69.0262 104.138 69.2968 104.208 69.5955 104.208C69.8755 104.208 70.1228 104.161 70.3375 104.068C70.5615 103.965 70.7528 103.825 70.9115 103.648L72.2695 105.02C71.9148 105.393 71.5135 105.678 71.0655 105.874C70.6175 106.061 70.1182 106.154 69.5675 106.154ZM75.7008 106.168C75.2995 106.168 74.9028 106.117 74.5108 106.014C74.1281 105.911 73.7688 105.767 73.4328 105.58C73.1061 105.384 72.8261 105.16 72.5928 104.908L73.8108 103.676C74.0348 103.919 74.3008 104.11 74.6088 104.25C74.9168 104.381 75.2528 104.446 75.6168 104.446C75.8688 104.446 76.0601 104.409 76.1908 104.334C76.3308 104.259 76.4008 104.157 76.4008 104.026C76.4008 103.858 76.3168 103.732 76.1488 103.648C75.9901 103.555 75.7848 103.475 75.5328 103.41C75.2808 103.335 75.0148 103.256 74.7348 103.172C74.4548 103.088 74.1888 102.971 73.9368 102.822C73.6848 102.673 73.4795 102.467 73.3208 102.206C73.1621 101.935 73.0828 101.595 73.0828 101.184C73.0828 100.745 73.1948 100.367 73.4188 100.05C73.6428 99.7233 73.9601 99.4667 74.3708 99.28C74.7815 99.0933 75.2621 99 75.8128 99C76.3915 99 76.9235 99.1027 77.4088 99.308C77.9035 99.504 78.3048 99.798 78.6128 100.19L77.3948 101.422C77.1801 101.17 76.9375 100.993 76.6668 100.89C76.4055 100.787 76.1488 100.736 75.8968 100.736C75.6541 100.736 75.4721 100.773 75.3508 100.848C75.2295 100.913 75.1688 101.011 75.1688 101.142C75.1688 101.282 75.2481 101.394 75.4068 101.478C75.5655 101.562 75.7708 101.637 76.0228 101.702C76.2748 101.767 76.5408 101.847 76.8208 101.94C77.1008 102.033 77.3668 102.159 77.6188 102.318C77.8708 102.477 78.0761 102.691 78.2348 102.962C78.3935 103.223 78.4728 103.569 78.4728 103.998C78.4728 104.661 78.2208 105.188 77.7168 105.58C77.2221 105.972 76.5501 106.168 75.7008 106.168Z" fill="white"/>
</svg>
