<svg width="82" height="112" viewBox="0 0 82 112" fill="none" xmlns="http://www.w3.org/2000/svg">
<circle cx="41" cy="41" r="41" fill="#F1F1F0"/>
<path d="M75.7204 25.4557C75.909 25.1446 76.0952 24.8372 76.2789 24.5335C76.5557 24.0827 76.7284 24.1207 76.797 24.6474C76.8141 24.7846 76.8778 24.8886 76.988 24.9597C77.1154 25.0405 77.1534 25.1508 77.102 25.2904L76.6537 26.5323C76.6022 26.6695 76.6414 26.7724 76.7713 26.841C76.8374 26.8777 76.8631 26.9389 76.8484 27.0247C76.8337 27.1129 76.7994 27.1961 76.7455 27.2745C75.9004 28.4675 75.0357 29.4559 74.1514 30.2397C71.4067 32.6611 71.5243 36.8572 68.8788 39.0729C68.2578 39.5909 67.3613 38.9406 66.8689 38.5327C65.8878 37.7133 65.8584 36.3208 64.8958 35.4904C63.7383 34.4873 62.9851 33.3703 62.6618 31.8344C62.625 31.6605 62.5393 31.6311 62.4046 31.7462C61.6476 32.388 60.8809 32.8669 60.1044 33.1829C58.5073 33.8296 56.484 34.4309 54.0344 34.987C52.4618 35.3446 50.9798 35.9056 49.5884 36.6698C49.1892 36.8903 49.1206 37.1879 49.3827 37.5627C49.6521 37.9424 49.924 38.2706 50.1984 38.5474C51.4575 39.8139 52.6418 41.0007 53.7515 42.1079C54.8134 43.1661 55.3204 45.0253 56.2317 46.3848C57.7528 48.6482 58.3371 50.5001 55.3314 51.8412C54.9518 52.0102 54.5488 52.1388 54.1226 52.227C52.8145 52.494 51.433 52.8443 49.9779 53.2779C48.567 53.6968 47.0678 53.7947 45.4805 53.5718C44.2459 53.3991 42.9562 53.5314 41.7988 53.8548C41.1178 54.0483 40.6965 54.5651 40.5348 55.4053C40.1233 57.5561 40.2899 59.4275 41.0346 61.0197C41.0607 61.0757 41.0713 61.1377 41.0653 61.1992C41.0594 61.2606 41.037 61.3194 41.0006 61.3693C40.9642 61.4192 40.9151 61.4584 40.8584 61.4829C40.8017 61.5074 40.7394 61.5162 40.6781 61.5084C38.7859 61.2659 37.4851 59.1274 37.2169 57.4152C37.0332 56.2431 36.2836 55.6809 35.3944 55.0746C35.0882 54.864 34.8641 54.6019 34.722 54.2883C34.1672 53.0501 35.3614 52.3079 36.3314 51.8816C36.6131 51.7592 36.9658 51.6967 37.3896 51.6942C39.5183 51.6771 41.549 51.2006 43.4817 50.2649C45.249 49.4088 47.2515 48.0125 49.2908 47.9133C49.891 47.8839 49.9142 47.7529 49.3606 47.5202C47.0066 46.5306 44.7554 45.0424 42.6072 43.0558C42.5435 42.9967 42.4616 42.9611 42.3752 42.9551C42.2889 42.9491 42.2034 42.973 42.1332 43.0228C39.1864 45.1025 36.2248 47.1711 32.8702 48.6592C32.439 48.8503 32.0434 49.0683 31.6833 49.3133C31.1726 49.6623 30.7096 50.0628 30.0593 50.129C29.1235 50.2245 28.1045 50.6936 27.0022 51.5362C25.5619 52.6386 24.173 53.7298 22.6371 54.5933C21.3437 55.3208 20.2892 55.9553 19.4735 56.4966C17.139 58.0447 15.6044 60.1808 14.8695 62.9047C14.5511 64.0878 14.7238 65.2158 15.3876 66.2888C15.4141 66.3302 15.4288 66.378 15.4299 66.4271C15.4311 66.4763 15.4188 66.5249 15.3943 66.5679C15.3698 66.6108 15.3341 66.6465 15.2908 66.6711C15.2476 66.6957 15.1985 66.7083 15.1488 66.7076C13.9914 66.6966 12.9331 66.0573 12.0697 65.3334C11.1633 64.5741 10.9086 63.5244 11.3054 62.1845C11.7365 60.7246 11.7451 59.4385 11.3311 58.3264C10.9563 57.3197 11.6802 56.3643 12.6833 56.177C13.2197 56.0765 13.7819 56.0594 14.3698 56.1255C14.5266 56.1427 14.6772 56.1182 14.8218 56.052C15.2039 55.8781 15.5517 55.6527 15.8653 55.3759C17.3816 54.0385 18.719 52.6508 19.8777 51.2129C20.9016 49.9416 22.1153 48.8638 23.5189 47.9795C23.6855 47.8741 24.6445 47.4381 26.396 46.6714C28.1082 45.9218 29.4395 44.9151 30.39 43.6511C31.3453 42.3773 32.2712 41.2946 33.1678 40.403C34.4832 39.0912 36.324 38.6723 37.0957 36.578C38.1281 33.7855 39.6199 32.2386 42.5778 31.5441C44.5546 31.0836 46.5093 29.9764 48.442 28.2225C50.3649 26.4833 52.4128 25.1336 54.5855 24.1734C54.9677 24.0044 55.2861 23.7227 55.5409 23.3283C55.6168 23.2107 55.6193 23.0931 55.5482 22.9755C54.9995 22.0496 54.5549 21.0318 54.2144 19.9222C53.9903 19.1873 53.384 18.8088 52.6381 18.7794C49.6301 18.6545 46.7751 19.0709 44.0732 20.0287C43.9042 20.09 43.7707 20.1965 43.6727 20.3484L41.6298 23.5083C41.615 23.5308 41.5959 23.5501 41.5735 23.5649C41.551 23.5798 41.5258 23.5899 41.4994 23.5947C41.4729 23.5995 41.4457 23.5989 41.4195 23.5929C41.3933 23.5869 41.3686 23.5756 41.3469 23.5598L41.244 23.4863C41.0897 23.376 41.0505 23.234 41.1264 23.0601L41.7143 21.7336C41.749 21.6546 41.7581 21.5665 41.7403 21.4819C41.7226 21.3974 41.6789 21.3205 41.6154 21.2624C41.552 21.2042 41.472 21.1677 41.3869 21.158C41.3017 21.1482 41.2158 21.1658 41.1411 21.2082L38.3486 22.7808C38.2433 22.842 38.1563 22.8224 38.0877 22.722L38.0253 22.6338C38.01 22.6123 38.0031 22.586 38.0058 22.5602C38.0085 22.5345 38.0207 22.5109 38.04 22.4942C38.6303 21.9651 39.2304 21.5034 39.8404 21.109C40.0535 20.9743 40.2005 20.7881 40.2813 20.5505C40.3401 20.379 40.2899 20.3374 40.1307 20.4255C39.484 20.7758 38.803 21.0747 38.0877 21.3221C37.8844 21.3931 37.6688 21.4139 37.441 21.3846C37.3602 21.3748 37.3002 21.3258 37.261 21.2376C37.2437 21.1998 37.2413 21.1569 37.2543 21.1174C37.2672 21.0779 37.2945 21.0447 37.3308 21.0245L39.6016 19.7274C40.0694 19.4629 40.0364 19.2987 39.5023 19.2351L37.3418 18.9778C37.316 18.9748 37.2911 18.9665 37.2687 18.9533C37.2463 18.9401 37.2269 18.9224 37.2117 18.9014C37.1965 18.8803 37.1858 18.8563 37.1804 18.8309C37.175 18.8054 37.1749 18.7792 37.1802 18.7537L37.2132 18.6104C37.2549 18.4169 37.3749 18.3263 37.5733 18.3385L40.0462 18.4781C40.2005 18.4879 40.2605 18.4169 40.2262 18.265C40.187 18.0936 40.0902 17.976 39.9359 17.9123C39.7547 17.8364 39.3223 17.7102 38.6389 17.5338C38.5612 17.5137 38.4919 17.4694 38.4411 17.4073C38.3902 17.3452 38.3604 17.2686 38.356 17.1884L38.3486 17.0782C38.3467 17.051 38.3517 17.0237 38.3632 16.999C38.3747 16.9742 38.3923 16.9528 38.4143 16.9366C38.4363 16.9205 38.462 16.9102 38.4891 16.9067C38.5162 16.9032 38.5437 16.9066 38.5691 16.9165C39.909 17.431 41.3065 17.6588 42.7615 17.6C45.0396 17.5081 46.8731 15.8951 49.1549 15.4946C50.3111 15.2913 51.4611 15.1308 52.6051 15.0132C53.4502 14.925 54.3908 15.2888 55.0595 15.7738C56.8992 17.1162 57.9414 17.9625 58.1864 18.3128C58.789 19.1799 59.4063 20.0851 60.0383 21.0281C60.4253 21.6087 61.0855 22.019 62.0187 22.259C62.1559 22.2958 62.2368 22.2431 62.2613 22.101C62.6213 20.0324 64.4401 18.9338 66.1965 18.0262C69.0955 16.5307 71.5022 20.5946 71.9358 22.7367C72.0583 23.3344 71.8146 23.7398 71.2046 23.9529C71.0944 23.9897 71.0331 24.0668 71.0209 24.1844C70.9548 24.9413 70.5383 25.4753 69.7716 25.7864C69.6736 25.8256 69.5953 25.8893 69.5365 25.9775C69.2842 26.3376 69.1678 26.7124 69.1874 27.1018C69.1895 27.155 69.1729 27.2071 69.1406 27.2489C69.1083 27.2906 69.0623 27.3192 69.011 27.3296C68.8788 27.3566 68.7465 27.359 68.6142 27.337C68.4917 27.3198 68.3864 27.3541 68.2982 27.4399C67.7201 28.0008 67.0648 28.3585 66.3324 28.5128C66.1977 28.5422 66.1536 28.623 66.2002 28.7553C66.4059 29.3432 66.4757 29.9139 66.4096 30.4675C66.3924 30.5974 66.4304 30.7088 66.5235 30.8019C67.3931 31.6715 67.8806 32.7334 67.9859 33.9876C68.0128 34.3109 68.1267 34.3452 68.3276 34.0904C69.8488 32.1541 71.7117 30.5447 72.5458 28.1894C72.9499 27.0455 73.43 26.04 73.9861 25.1728C74.2898 24.7025 74.4123 24.7454 74.3535 25.3014C74.3045 25.7766 74.1735 26.2825 73.9604 26.8189C73.9016 26.9732 73.9506 27.0283 74.1074 26.9843C74.2127 26.9524 74.3131 26.9059 74.4086 26.8446C74.5899 26.7295 74.7087 26.5691 74.7651 26.3633L75.3015 24.3608C75.3383 24.2285 75.4252 24.1611 75.5624 24.1587L75.6836 24.155C75.7522 24.1526 75.7816 24.1856 75.7718 24.2542L75.6138 25.419C75.5893 25.6051 75.6249 25.6174 75.7204 25.4557Z" fill="black"/>
<path d="M24.92 107.154C24.108 107.154 23.408 107.023 22.82 106.762C22.2413 106.491 21.7093 106.085 21.224 105.544L22.652 104.13C22.9693 104.494 23.3193 104.779 23.702 104.984C24.094 105.18 24.5467 105.278 25.06 105.278C25.5267 105.278 25.886 105.194 26.138 105.026C26.3993 104.858 26.53 104.625 26.53 104.326C26.53 104.055 26.446 103.836 26.278 103.668C26.11 103.5 25.886 103.355 25.606 103.234C25.3353 103.113 25.032 102.996 24.696 102.884C24.3693 102.772 24.0427 102.646 23.716 102.506C23.3893 102.357 23.086 102.175 22.806 101.96C22.5353 101.736 22.316 101.461 22.148 101.134C21.98 100.798 21.896 100.378 21.896 99.874C21.896 99.2673 22.0407 98.7447 22.33 98.306C22.6287 97.8673 23.0393 97.536 23.562 97.312C24.0847 97.0787 24.6867 96.962 25.368 96.962C26.0587 96.962 26.6887 97.0833 27.258 97.326C27.8367 97.5687 28.3127 97.9 28.686 98.32L27.258 99.734C26.9593 99.426 26.656 99.1973 26.348 99.048C26.0493 98.8987 25.7087 98.824 25.326 98.824C24.9433 98.824 24.64 98.8987 24.416 99.048C24.192 99.188 24.08 99.3933 24.08 99.664C24.08 99.916 24.164 100.121 24.332 100.28C24.5 100.429 24.7193 100.56 24.99 100.672C25.27 100.784 25.5733 100.896 25.9 101.008C26.236 101.12 26.5673 101.251 26.894 101.4C27.2207 101.549 27.5193 101.741 27.79 101.974C28.07 102.198 28.294 102.487 28.462 102.842C28.63 103.187 28.714 103.617 28.714 104.13C28.714 105.073 28.378 105.815 27.706 106.356C27.034 106.888 26.1053 107.154 24.92 107.154ZM33.8381 107.14C33.3808 107.14 32.9608 107.051 32.5781 106.874C32.1954 106.697 31.8828 106.454 31.6401 106.146C31.3974 105.829 31.2574 105.469 31.2201 105.068V102.198C31.2574 101.797 31.3974 101.433 31.6401 101.106C31.8828 100.779 32.1954 100.523 32.5781 100.336C32.9608 100.149 33.3808 100.056 33.8381 100.056C34.4821 100.056 35.0514 100.21 35.5461 100.518C36.0501 100.826 36.4421 101.246 36.7221 101.778C37.0114 102.31 37.1561 102.917 37.1561 103.598C37.1561 104.279 37.0114 104.886 36.7221 105.418C36.4421 105.95 36.0501 106.37 35.5461 106.678C35.0514 106.986 34.4821 107.14 33.8381 107.14ZM33.4461 105.208C33.7541 105.208 34.0201 105.138 34.2441 104.998C34.4774 104.858 34.6594 104.667 34.7901 104.424C34.9208 104.181 34.9861 103.906 34.9861 103.598C34.9861 103.281 34.9208 103.001 34.7901 102.758C34.6594 102.515 34.4774 102.329 34.2441 102.198C34.0201 102.058 33.7588 101.988 33.4601 101.988C33.1614 101.988 32.8954 102.058 32.6621 102.198C32.4381 102.329 32.2608 102.515 32.1301 102.758C31.9994 103.001 31.9341 103.281 31.9341 103.598C31.9341 103.906 31.9948 104.181 32.1161 104.424C32.2468 104.667 32.4288 104.858 32.6621 104.998C32.8954 105.138 33.1568 105.208 33.4461 105.208ZM29.9181 109.87V100.196H32.0601V101.946L31.7101 103.598L32.0321 105.25V109.87H29.9181ZM38.2443 107V100.196H40.3863V107H38.2443ZM40.3863 103.262L39.4903 102.562C39.6676 101.769 39.9663 101.153 40.3863 100.714C40.8063 100.275 41.3896 100.056 42.1363 100.056C42.4629 100.056 42.7476 100.107 42.9903 100.21C43.2423 100.303 43.4616 100.453 43.6483 100.658L42.3743 102.268C42.2809 102.165 42.1643 102.086 42.0243 102.03C41.8843 101.974 41.7256 101.946 41.5483 101.946C41.1936 101.946 40.9089 102.058 40.6943 102.282C40.4889 102.497 40.3863 102.823 40.3863 103.262ZM44.2189 107V100.196H46.3609V107H44.2189ZM45.2969 99.258C44.9609 99.258 44.6809 99.146 44.4569 98.922C44.2422 98.6887 44.1349 98.4087 44.1349 98.082C44.1349 97.746 44.2422 97.466 44.4569 97.242C44.6809 97.018 44.9609 96.906 45.2969 96.906C45.6329 96.906 45.9082 97.018 46.1229 97.242C46.3376 97.466 46.4449 97.746 46.4449 98.082C46.4449 98.4087 46.3376 98.6887 46.1229 98.922C45.9082 99.146 45.6329 99.258 45.2969 99.258ZM52.3633 107V103.122C52.3633 102.767 52.2513 102.483 52.0273 102.268C51.8126 102.044 51.5373 101.932 51.2013 101.932C50.9679 101.932 50.7626 101.983 50.5853 102.086C50.4079 102.179 50.2679 102.319 50.1653 102.506C50.0626 102.683 50.0113 102.889 50.0113 103.122L49.1853 102.716C49.1853 102.184 49.3019 101.717 49.5353 101.316C49.7686 100.915 50.0906 100.607 50.5013 100.392C50.9213 100.168 51.3926 100.056 51.9153 100.056C52.4193 100.056 52.8626 100.177 53.2453 100.42C53.6373 100.653 53.9453 100.966 54.1693 101.358C54.3933 101.75 54.5053 102.179 54.5053 102.646V107H52.3633ZM47.8693 107V100.196H50.0113V107H47.8693ZM56.765 107V97.382H58.907V107H56.765ZM55.225 102.016V100.196H60.447V102.016H55.225Z" fill="white"/>
</svg>
