<svg width="102" height="129" viewBox="0 0 102 129" fill="none" xmlns="http://www.w3.org/2000/svg">
<circle cx="51" cy="51" r="41" fill="#F1F1F0"/>
<path d="M48.8602 88.8898L48.858 69.4769C48.858 69.3947 48.8986 69.3614 48.98 69.377C49.0629 69.3925 49.1457 69.3896 49.2286 69.3681C49.2996 69.3489 49.3351 69.3762 49.3351 69.4502C49.3359 69.5553 49.347 69.6585 49.3684 69.7598C49.4916 70.3314 50.6025 70.1705 51.0098 70.004C51.1955 69.9285 51.2902 69.7502 51.2939 69.4691C51.3153 67.7771 51.3209 66.3529 51.3105 65.1965C51.3027 64.231 51.1518 63.3055 49.9633 63.2001C49.7347 63.1801 49.5127 63.1868 49.2974 63.2201C49.1347 63.2452 48.9711 63.2452 48.8069 63.2201C48.3127 63.1431 47.7944 63.1313 47.2521 63.1845C47.0613 63.2034 46.9558 63.3821 46.968 63.5619C46.9947 63.9503 47.0146 64.3343 47.028 64.7138C47.0294 64.7552 47.0095 64.7774 46.968 64.7804L46.8449 64.7881C46.7938 64.7911 46.7672 64.7671 46.765 64.716L46.7405 64.1922C46.7368 64.1197 46.6987 64.0834 46.6262 64.0834L45.7728 64.0857C45.7077 64.0857 45.6763 64.1182 45.6785 64.1833L45.6907 64.5618C45.6913 64.5802 45.6847 64.5982 45.6723 64.6119C45.6598 64.6256 45.6426 64.6338 45.6241 64.635C45.421 64.6483 45.1347 64.6328 44.9461 64.7127C44.8558 64.7511 44.854 64.7933 44.9405 64.8392C45.0937 64.9191 45.4399 64.8614 45.6186 64.8703C45.6637 64.8725 45.6866 64.8962 45.6874 64.9413L45.7074 66.1875C45.7077 66.2056 45.7008 66.2231 45.6884 66.2361C45.6759 66.2492 45.6588 66.2569 45.6408 66.2575L45.0448 66.2741C44.9842 66.2763 44.9575 66.3074 44.9649 66.3673L44.9727 66.4295C44.9746 66.4444 44.9819 66.4582 44.9932 66.468C45.0045 66.4779 45.0189 66.4831 45.0337 66.4827L45.6619 66.4772C45.6679 66.477 45.674 66.4781 45.6796 66.4803C45.6853 66.4825 45.6904 66.4859 45.6947 66.4901C45.6991 66.4944 45.7025 66.4994 45.7049 66.505C45.7073 66.5106 45.7085 66.5166 45.7085 66.5227L45.9926 88.8898" stroke="#808080" stroke-width="0.221951"/>
<path d="M49.2772 20.1826C49.7322 19.5978 49.8321 18.9042 50.2116 18.286C50.4424 17.9109 50.7132 17.5247 50.883 17.1208C51.0051 16.8311 50.9995 16.5548 51.0406 16.2718C51.0709 16.0639 51.0117 16.034 50.863 16.1819L50.7476 16.2974C50.6988 16.3454 50.6821 16.3358 50.6977 16.2685C50.8064 15.7928 50.7876 15.2982 50.6411 14.7848C50.5841 14.585 50.5216 14.5831 50.4535 14.7792C50.4247 14.8628 50.3869 14.9427 50.3403 15.0189C50.3041 15.0781 50.2908 15.0733 50.3004 15.0045C50.3899 14.3653 50.3777 13.7183 50.2638 13.0635C50.2586 13.0332 50.2412 13.0128 50.2116 13.0025C50.1924 12.9966 50.1753 13.0003 50.1605 13.0136C50.1435 13.0291 50.1332 13.0484 50.1295 13.0713C49.963 13.9935 49.5912 14.9967 48.9764 15.6959C48.6923 16.0188 48.4315 16.4294 48.0487 16.6392C46.6537 17.4027 45.8414 19.5312 45.7892 20.9805C45.7877 21.019 45.7733 21.0523 45.7459 21.0804C45.5314 21.3001 45.2865 21.4044 45.0113 21.3933C44.3055 21.3645 43.714 21.39 43.0514 21.713C42.3553 22.0518 41.6576 22.5005 40.9584 23.0591C40.4147 23.4952 40.5245 23.9314 40.63 24.5284C40.6366 24.5691 40.6318 24.6083 40.6155 24.646C40.5201 24.8687 40.4838 25.0792 40.5068 25.2775C40.5445 25.6067 40.5808 25.943 40.6155 26.2863C40.6355 26.486 40.7043 26.6854 40.822 26.8844C40.8397 26.914 40.8471 26.9455 40.8441 26.9787C40.7968 27.4915 40.745 27.9927 40.6888 28.4825C40.6588 28.7421 40.8541 28.842 41.0716 28.872C41.1264 28.8794 41.1645 28.9082 41.186 28.9586C41.2559 29.1261 41.3413 29.3647 41.5155 29.448C41.5337 29.4563 41.5498 29.4685 41.5628 29.4836C41.5758 29.4987 41.5854 29.5165 41.591 29.5356C41.6287 29.6632 41.6698 29.7798 41.7652 29.8752C41.9583 30.0698 42.1189 30.2891 42.2469 30.5333C42.5842 31.1792 43.3822 30.8529 43.7883 30.51C44.2533 30.1171 45.2343 30.3169 45.8048 30.5333C46.7673 30.898 47.5589 31.3638 48.1796 31.9305C48.2174 31.9653 48.22 32.0026 48.1874 32.0426C48.0328 32.2305 47.9717 32.4443 48.0043 32.684C48.0109 32.7351 47.998 32.7809 47.9654 32.8216C47.4298 33.4778 46.903 34.1208 46.3852 34.7504C45.7474 35.5242 45.4134 36.3961 45.383 37.3661C45.3631 37.9675 45.2932 38.5957 44.9902 39.1062C44.503 39.9263 43.9548 40.712 43.4154 41.5254C43.2542 41.7681 43.0204 42.2937 42.7141 43.1024C42.666 43.2304 42.575 43.3724 42.4411 43.5285C42.4167 43.5559 42.3863 43.5689 42.3501 43.5674C41.2936 43.5074 40.2615 43.4705 39.2539 43.4564C37.6392 43.4342 35.8525 43.0802 34.4753 42.3023C34.4603 42.2938 34.4478 42.2817 34.4389 42.2671C34.4299 42.2526 34.4249 42.236 34.4242 42.219C34.3843 41.3068 34.129 40.4523 33.4387 39.8397C33.4077 39.8123 33.3873 39.7783 33.3777 39.7376C33.3122 39.4546 33.0448 39.2482 32.7562 39.4014C32.225 39.6847 31.8485 40.0546 31.6265 40.5111C31.5422 40.6857 31.4453 40.8529 31.3358 41.0127C31.1704 41.2535 30.8719 41.8439 31.0605 42.1325C31.52 42.8338 32.1337 43.9891 33.017 44.2177C33.2641 44.2821 33.5235 44.3202 33.795 44.332C34.6872 44.3708 35.5262 44.9357 36.2664 45.4196C36.3101 45.4477 36.3563 45.4532 36.4051 45.4362C38.5292 44.6705 40.7665 44.2022 42.9871 43.8348C43.5741 43.7383 44.1557 43.2922 44.6673 43.0192C45.2277 42.7206 46.1488 42.4021 46.8002 42.5753C46.8927 42.5989 46.8916 42.6167 46.7969 42.6285C46.4617 42.6692 46.1447 42.7129 45.8458 42.7595C45.3176 42.8416 44.5063 43.22 43.9737 43.5829C43.5586 43.8648 43.0992 43.998 42.6042 44.0745C41.8548 44.1899 41.0887 44.3446 40.3059 44.5384C36.3918 45.5061 32.6253 46.8367 28.8899 48.0807C28.1996 48.3108 27.4294 48.4403 26.5793 48.4692C26.56 48.4697 26.5412 48.4632 26.5265 48.4509C26.5118 48.4386 26.5022 48.4214 26.4994 48.4026C26.4795 48.2761 26.4384 48.1285 26.2775 48.134C24.4634 48.1954 22.75 47.8803 21.1371 47.1885C20.7143 47.0076 20.3703 46.7379 20.0063 46.4649C19.7769 46.2926 19.5246 46.2093 19.2494 46.2152C19.2124 46.216 19.1873 46.2337 19.1739 46.2685C18.9727 46.7864 18.9461 47.3036 19.094 47.82C19.3326 48.6512 19.8032 49.438 20.2149 50.1959C20.55 50.8141 21.0206 51.4333 21.7419 51.5621C21.7961 51.5714 21.8458 51.5974 21.884 51.6364C22.7918 52.5442 23.5612 53.4235 24.1923 54.2743C24.284 54.3978 24.405 54.4796 24.5552 54.5195C25.0568 54.6527 25.5994 54.575 25.8647 54.1012C26.3197 53.291 26.9323 52.6252 27.7291 52.1913C27.8489 52.1262 27.9677 52.06 28.0853 51.9926C28.1223 51.9712 28.1456 51.9394 28.1552 51.8972L28.1885 51.7474C28.1981 51.7037 28.2247 51.6771 28.2684 51.6675C31.0457 51.0505 33.4658 50.6598 35.5284 50.4956C36.7699 50.3972 38.052 50.3102 39.3748 50.2348C40.3729 50.1771 41.3025 49.9007 42.1636 49.4058C42.6394 49.1321 43.128 48.825 43.6296 48.4847C45.2366 47.3949 46.98 48.2616 48.6968 47.7634C48.8891 47.7071 49.0896 47.6849 49.2983 47.6968C50.4413 47.7619 51.5873 47.82 52.7363 47.871C54.8537 47.965 56.9297 48.0101 58.9642 48.0064C59.488 48.0057 60.0322 47.9716 60.5967 47.9043C62.1514 47.7201 63.7473 47.7489 65.3054 47.7578C67.0177 47.7667 69.1196 47.3716 70.1073 45.8346C70.1095 45.8309 70.1125 45.8305 70.1162 45.8335L70.1417 45.8557C70.1484 45.8623 70.1495 45.8697 70.145 45.8779C69.3149 47.2118 67.7657 47.7745 66.2464 47.8832C64.7205 47.9931 63.1957 47.8766 61.6998 47.9664C61.6236 47.9714 61.5521 48.0056 61.5 48.0619C61.0398 48.5583 60.6041 49.0736 60.1927 49.6078C58.9298 51.248 57.6603 52.9548 56.7714 54.7604C56.195 55.9308 55.6257 57.3283 55.0634 58.953C54.9491 59.2826 54.8937 59.6333 54.7805 59.964C54.5197 60.7253 54.9403 61.6797 55.2654 62.36C55.639 63.142 56.2505 63.5726 57.0998 63.6517C58.2777 63.7612 59.3615 63.5881 60.3514 63.1324C60.4657 63.0791 60.6366 63.0858 60.7088 63.0114C60.9263 62.7872 61.2892 62.674 61.5588 62.5176C62.8868 61.7466 64.2075 60.9709 65.5207 60.1904C67.9799 58.73 70.6355 58.0175 73.451 57.3594C73.8849 57.2584 74.2844 57.1097 74.705 56.9754C75.1178 56.8434 75.473 56.6003 75.827 56.3662C75.8662 56.3403 75.9076 56.3362 75.9513 56.354C76.3056 56.4982 76.6386 56.4875 76.95 56.3218C77.465 56.0477 77.9122 55.6149 78.2451 55.1432C78.6202 54.6128 79.002 54.0446 79.568 53.7305C80.4913 53.2171 81.399 52.8612 82.2913 52.6629C82.7263 52.5664 83.1758 52.3877 82.9305 51.8584C82.3912 50.6887 80.3881 50.6853 79.3793 50.8951C78.5854 51.0601 77.8142 51.1988 77.0654 51.3112C75.5998 51.5317 74.1568 51.5632 72.7363 51.4056C71.9916 51.3223 71.7031 51.7995 71.3191 52.3156C70.9973 52.7473 71.3147 53.7727 71.4257 54.2554C71.4678 54.4389 71.4778 54.6276 71.4556 54.8214C71.4512 54.8606 71.4294 54.8795 71.3902 54.878C70.0285 54.838 68.7012 55.1255 67.374 55.3164C66.7725 55.4037 66.218 55.5102 65.7104 55.636C65.6157 55.6596 65.6021 55.636 65.6694 55.5649C66.0001 55.2187 66.3197 54.8421 66.6282 54.4352C67.4694 53.3255 68.1556 52.3352 68.6868 51.4644C69.3194 50.4271 69.8754 49.607 70.3548 49.0041C70.667 48.6112 70.957 48.2369 71.2248 47.881C71.7575 47.1719 71.9284 46.2252 72.0039 45.2997C72.1048 44.0601 71.8751 42.9037 71.4812 41.7263C71.1135 40.6276 70.687 39.4247 70.2016 38.1174C69.8539 37.1822 69.2487 36.5726 68.3861 36.2885C68.133 36.2041 67.8722 36.1986 67.6747 36.0077C65.3642 33.769 63.2497 31.7943 61.3313 30.0838C61.0324 29.8175 60.8072 29.5993 60.6555 29.4291C60.1839 28.8997 59.5835 28.4325 59.215 27.8721C58.8518 27.3209 58.4623 26.8311 58.0465 26.4028C58.0139 26.3688 58.0198 26.3443 58.0642 26.3295C59.5565 25.8302 60.5771 25.475 61.126 25.2642C62.0715 24.9002 62.9767 24.4108 63.8416 23.796C63.8927 23.7597 63.9485 23.749 64.0092 23.7638C64.3673 23.8548 64.6876 23.9757 64.9702 24.1267C67.7098 25.5842 70.1243 27.3801 72.2136 29.5145C72.2957 29.5981 72.3767 29.6843 72.4566 29.7731C72.5351 29.8597 72.5798 29.9629 72.5909 30.0827C72.6338 30.5303 72.5025 30.911 72.197 31.2247C71.8078 31.6242 71.409 32.0289 71.0006 32.4387C70.7669 32.6725 70.741 32.9307 70.923 33.2134C71.1982 33.6402 71.5037 34.0068 71.8396 34.3131C72.0582 34.5129 72.642 34.9301 72.7962 34.4241C72.8103 34.3782 72.8401 34.3387 72.8803 34.3127C72.9205 34.2867 72.9686 34.2758 73.016 34.282C73.2002 34.3065 73.3814 34.3401 73.5597 34.383C73.9226 34.4718 74.1723 34.1655 74.0425 33.8259C74.0181 33.7608 74.0399 33.7224 74.108 33.7105C74.3203 33.6728 74.476 33.5629 74.5752 33.3809C74.654 33.2355 74.5962 33.0868 74.7094 32.9537C75.3583 32.1872 75.682 31.2617 75.6805 30.1771C75.6797 29.7095 75.548 29.3251 75.2854 29.024C74.7283 28.3859 74.1124 27.7656 73.6063 27.0875C73.0655 26.3625 72.5106 25.6319 71.9417 24.8957C70.9799 23.6521 69.7596 22.5138 68.2806 21.481C67.7184 21.0882 67.0876 20.6587 66.3885 20.1926C66.1947 20.0639 65.989 19.9484 65.7715 19.8463C65.281 19.6166 64.9048 19.8774 64.4364 19.9762C61.7286 20.5499 58.7279 21.2646 56.0511 22.158C55.17 22.4517 54.3243 22.8538 53.5142 23.3643C52.4699 24.0212 51.54 24.9534 50.59 25.748C50.5634 25.7702 50.5331 25.778 50.499 25.7713C50.3281 25.7347 50.1783 25.6737 50.0096 25.748C49.619 25.9189 49.4414 26.5515 48.9376 26.4882C48.9269 26.4869 48.9167 26.483 48.9077 26.4771C48.8988 26.4711 48.8914 26.4631 48.8861 26.4539C48.8808 26.4446 48.8778 26.4342 48.8773 26.4236C48.8768 26.413 48.8788 26.4024 48.8832 26.3928C49.2639 25.5239 49.6179 24.4518 48.729 23.7372C48.6239 23.6528 48.5218 23.5674 48.4227 23.4808C48.0753 23.1756 48.2817 22.6185 47.7158 22.4543C47.2755 22.3263 46.8642 22.1302 46.4817 21.8661C46.384 21.7988 46.3704 21.7178 46.4406 21.6231C46.454 21.6053 46.4713 21.5946 46.4928 21.5909C46.6141 21.5702 46.7221 21.5898 46.8168 21.6497C47.0869 21.8206 47.2855 21.895 47.4128 21.8728C48.0387 21.7651 48.3772 21.4244 48.8799 21.1081C49.491 20.7234 50.003 20.2122 50.4158 19.5745C50.424 19.5616 50.4273 19.5463 50.4251 19.5314C50.4228 19.5164 50.4152 19.5029 50.4036 19.4934C50.3681 19.4646 50.3326 19.4646 50.297 19.4934C49.9723 19.7561 49.6412 19.9958 49.3038 20.2126C49.2387 20.254 49.2298 20.244 49.2772 20.1826Z" stroke="#808080" stroke-width="0.221951"/>
<path d="M56.1711 39.752C55.7505 39.4923 55.25 39.3702 54.8471 39.0861C54.8124 39.0625 54.7739 39.0528 54.7317 39.0573C54.3078 39.1039 53.976 38.8154 53.6775 38.7998C52.5655 38.7388 51.5878 38.5934 50.8198 37.7333C50.6275 37.5173 50.4244 37.3065 50.2106 37.1008C50.2052 37.0957 50.1988 37.0919 50.1917 37.0898C50.1846 37.0876 50.1771 37.0871 50.1697 37.0883C50.1624 37.0894 50.1553 37.0923 50.1491 37.0966C50.1429 37.1008 50.1378 37.1065 50.134 37.113C49.9949 37.366 49.8188 37.5754 49.6058 37.7411C49.5558 37.7803 49.518 37.8326 49.497 37.892C48.8955 39.5685 48.0832 41.0748 47.06 42.411C47.04 42.4369 47.0463 42.4472 47.0788 42.442C47.9067 42.3044 48.7612 42.2168 49.598 42.0436C51.0666 41.7403 52.4682 41.3005 53.8029 40.7241C54.9015 40.2492 56.0856 39.9018 57.2142 39.8108C57.8135 39.7635 58.3492 39.6954 58.8212 39.6066C59.3949 39.499 59.9687 39.1383 60.4736 38.8819C61.2005 38.5135 61.9973 38.8187 62.7086 38.4081C63.413 38.0012 64.1469 37.7751 64.9104 37.73C65.233 37.7115 65.233 37.6897 64.9104 37.6645C64.2789 37.6146 63.4733 37.8765 62.9239 38.1384C62.3569 38.4092 61.924 38.4813 61.3303 38.5091C60.9464 38.5276 60.5661 38.6396 60.1895 38.8453C59.527 39.206 58.8323 39.5556 58.0743 39.5866C57.4676 39.6118 56.8717 39.6747 56.2865 39.7753C56.2451 39.782 56.2066 39.7742 56.1711 39.752Z" stroke="#808080" stroke-width="0.221951"/>
<path d="M49.3038 20.2126C49.6412 19.9958 49.9723 19.7561 50.297 19.4934C50.3326 19.4646 50.3681 19.4646 50.4036 19.4934C50.4152 19.5029 50.4228 19.5164 50.4251 19.5314C50.4273 19.5463 50.424 19.5616 50.4158 19.5745C50.003 20.2122 49.491 20.7234 48.8799 21.1081C48.3772 21.4244 48.0387 21.7651 47.4128 21.8728C47.2855 21.895 47.0869 21.8206 46.8168 21.6497C46.7221 21.5898 46.6141 21.5702 46.4928 21.5909C46.4713 21.5946 46.454 21.6053 46.4406 21.6231C46.3704 21.7178 46.384 21.7988 46.4817 21.8661C46.8642 22.1302 47.2756 22.3263 47.7158 22.4543C48.2817 22.6185 48.0753 23.1756 48.4227 23.4808C48.5218 23.5674 48.6239 23.6528 48.729 23.7372C49.6179 24.4518 49.2639 25.5239 48.8832 26.3928C48.8788 26.4024 48.8768 26.413 48.8773 26.4236C48.8778 26.4342 48.8808 26.4446 48.8861 26.4539C48.8914 26.4631 48.8988 26.4711 48.9077 26.4771C48.9167 26.483 48.9269 26.4869 48.9376 26.4882C49.4414 26.5515 49.619 25.9189 50.0096 25.748C50.1783 25.6737 50.3281 25.7347 50.499 25.7713C50.5331 25.778 50.5634 25.7702 50.59 25.748C51.54 24.9534 52.4699 24.0212 53.5142 23.3643C54.3243 22.8538 55.17 22.4517 56.0511 22.158C58.7279 21.2646 61.7286 20.5499 64.4364 19.9762C64.9048 19.8774 65.281 19.6166 65.7715 19.8463C65.989 19.9484 66.1947 20.0639 66.3885 20.1926C67.0876 20.6587 67.7184 21.0882 68.2806 21.481C69.7596 22.5138 70.9799 23.6521 71.9417 24.8957C72.5106 25.6319 73.0655 26.3625 73.6063 27.0875C74.1124 27.7656 74.7283 28.3859 75.2854 29.024C75.548 29.3251 75.6797 29.7095 75.6805 30.1771C75.682 31.2617 75.3583 32.1872 74.7094 32.9537C74.5962 33.0868 74.654 33.2355 74.5752 33.3809C74.476 33.5629 74.3203 33.6728 74.108 33.7105C74.0399 33.7224 74.0181 33.7608 74.0425 33.8259C74.1723 34.1655 73.9226 34.4718 73.5597 34.383C73.3814 34.3401 73.2002 34.3065 73.016 34.282C72.9686 34.2758 72.9205 34.2867 72.8803 34.3127C72.8401 34.3387 72.8103 34.3782 72.7962 34.4241C72.642 34.9301 72.0582 34.5129 71.8396 34.3131C71.5037 34.0068 71.1982 33.6402 70.923 33.2134C70.741 32.9307 70.7669 32.6725 71.0006 32.4387C71.409 32.0289 71.8078 31.6242 72.197 31.2247C72.5025 30.911 72.6338 30.5303 72.5909 30.0827C72.5798 29.9629 72.5351 29.8597 72.4566 29.7731C72.3767 29.6843 72.2957 29.5981 72.2136 29.5145C70.1243 27.3801 67.7098 25.5842 64.9702 24.1267C64.6876 23.9757 64.3673 23.8548 64.0092 23.7638C63.9485 23.749 63.8927 23.7597 63.8416 23.796C62.9767 24.4108 62.0715 24.9002 61.126 25.2642C60.5771 25.475 59.5565 25.8302 58.0642 26.3295C58.0198 26.3443 58.0139 26.3688 58.0465 26.4028C58.4623 26.8311 58.8518 27.3209 59.215 27.8721C59.5835 28.4325 60.1839 28.8997 60.6555 29.4291C60.8072 29.5993 61.0324 29.8175 61.3313 30.0838C63.2497 31.7943 65.3642 33.769 67.6747 36.0077C67.8722 36.1986 68.133 36.2041 68.3861 36.2885C69.2487 36.5726 69.8539 37.1822 70.2016 38.1174C70.687 39.4247 71.1135 40.6276 71.4812 41.7263C71.8751 42.9037 72.1048 44.0601 72.0039 45.2997C71.9284 46.2252 71.7575 47.1719 71.2248 47.881C70.957 48.2369 70.667 48.6112 70.3548 49.0041C69.8754 49.607 69.3194 50.4271 68.6868 51.4644C68.1556 52.3352 67.4694 53.3255 66.6282 54.4352C66.3197 54.8421 66.0001 55.2187 65.6694 55.5649C65.6021 55.636 65.6157 55.6596 65.7104 55.636C66.218 55.5102 66.7725 55.4037 67.374 55.3164C68.7012 55.1255 70.0285 54.838 71.3902 54.878C71.4294 54.8795 71.4512 54.8606 71.4556 54.8214C71.4778 54.6276 71.4678 54.4389 71.4257 54.2554C71.3147 53.7727 70.9973 52.7473 71.3191 52.3156C71.7031 51.7995 71.9916 51.3223 72.7363 51.4056C74.1568 51.5632 75.5998 51.5317 77.0654 51.3112C77.8142 51.1988 78.5854 51.0601 79.3793 50.8951C80.3881 50.6853 82.3912 50.6887 82.9305 51.8584C83.1758 52.3877 82.7263 52.5664 82.2913 52.6629C81.399 52.8612 80.4913 53.2171 79.568 53.7305C79.002 54.0446 78.6202 54.6128 78.2451 55.1432C77.9122 55.6149 77.465 56.0477 76.95 56.3218C76.6386 56.4875 76.3056 56.4982 75.9513 56.354C75.9076 56.3362 75.8662 56.3403 75.827 56.3662C75.473 56.6003 75.1178 56.8434 74.705 56.9754C74.2844 57.1097 73.8849 57.2584 73.451 57.3594C70.6355 58.0175 67.9799 58.73 65.5207 60.1904C64.2075 60.9709 62.8868 61.7466 61.5588 62.5176C61.2892 62.674 60.9263 62.7872 60.7088 63.0114C60.6366 63.0858 60.4657 63.0791 60.3514 63.1324C59.3615 63.5881 58.2777 63.7612 57.0998 63.6517C56.2505 63.5726 55.639 63.142 55.2654 62.36C54.9403 61.6797 54.5197 60.7253 54.7805 59.964C54.8937 59.6333 54.9491 59.2826 55.0634 58.953C55.6257 57.3283 56.195 55.9308 56.7714 54.7604C57.6603 52.9548 58.9298 51.248 60.1927 49.6078C60.6041 49.0736 61.0398 48.5583 61.5 48.0619C61.5521 48.0056 61.6236 47.9714 61.6998 47.9664C63.1957 47.8766 64.7205 47.9931 66.2464 47.8832C67.7657 47.7745 69.3149 47.2118 70.145 45.8779C70.1495 45.8697 70.1484 45.8623 70.1417 45.8557L70.1162 45.8335C70.1125 45.8305 70.1095 45.8309 70.1073 45.8346C69.1196 47.3716 67.0177 47.7667 65.3054 47.7578C63.7473 47.7489 62.1515 47.7201 60.5967 47.9043C60.0322 47.9716 59.488 48.0057 58.9642 48.0064C56.9297 48.0101 54.8537 47.965 52.7363 47.871C51.5873 47.82 50.4413 47.7619 49.2983 47.6968C49.0896 47.6849 48.8891 47.7071 48.6968 47.7634C46.98 48.2616 45.2366 47.3949 43.6296 48.4847C43.128 48.825 42.6394 49.1321 42.1636 49.4058C41.3025 49.9007 40.3729 50.1771 39.3748 50.2348C38.052 50.3102 36.7699 50.3972 35.5284 50.4956C33.4658 50.6598 31.0457 51.0505 28.2684 51.6675C28.2247 51.6771 28.1981 51.7037 28.1885 51.7474L28.1552 51.8972C28.1456 51.9394 28.1223 51.9712 28.0853 51.9926C27.9677 52.06 27.8489 52.1262 27.7291 52.1913C26.9323 52.6252 26.3197 53.291 25.8647 54.1012C25.5994 54.575 25.0568 54.6527 24.5552 54.5196C24.405 54.4796 24.284 54.3978 24.1923 54.2743C23.5612 53.4235 22.7918 52.5442 21.884 51.6364C21.8458 51.5975 21.7961 51.5714 21.7419 51.5621C21.0206 51.4333 20.55 50.8141 20.2149 50.1959C19.8032 49.438 19.3326 48.6512 19.094 47.82C18.9461 47.3036 18.9727 46.7864 19.1739 46.2685C19.1873 46.2337 19.2124 46.216 19.2494 46.2152C19.5246 46.2093 19.7769 46.2926 20.0063 46.4649C20.3703 46.7379 20.7143 47.0076 21.1371 47.1885C22.75 47.8803 24.4634 48.1954 26.2775 48.134C26.4384 48.1285 26.4795 48.2761 26.4994 48.4026C26.5022 48.4214 26.5118 48.4386 26.5265 48.4509C26.5412 48.4632 26.56 48.4697 26.5793 48.4692C27.4294 48.4403 28.1996 48.3108 28.8899 48.0807C32.6253 46.8367 36.3918 45.5061 40.3059 44.5384C41.0887 44.3446 41.8548 44.1899 42.6042 44.0745C43.0992 43.998 43.5586 43.8648 43.9737 43.5829C44.5063 43.22 45.3176 42.8416 45.8458 42.7595C46.1447 42.7129 46.4617 42.6692 46.7969 42.6285C46.8916 42.6167 46.8927 42.5989 46.8002 42.5753C46.1488 42.4021 45.2277 42.7206 44.6673 43.0192C44.1557 43.2922 43.5741 43.7383 42.9871 43.8348C40.7665 44.2022 38.5292 44.6705 36.4051 45.4362C36.3563 45.4532 36.3101 45.4477 36.2664 45.4196C35.5262 44.9357 34.6872 44.3708 33.795 44.332C33.5235 44.3202 33.2641 44.2821 33.017 44.2177C32.1337 43.9891 31.52 42.8338 31.0605 42.1325C30.8719 41.8439 31.1704 41.2535 31.3358 41.0127C31.4453 40.8529 31.5422 40.6857 31.6265 40.5111C31.8485 40.0546 32.225 39.6847 32.7562 39.4014C33.0448 39.2482 33.3122 39.4546 33.3777 39.7376C33.3873 39.7783 33.4077 39.8123 33.4387 39.8397C34.129 40.4523 34.3843 41.3068 34.4242 42.219C34.4249 42.236 34.4299 42.2526 34.4389 42.2671C34.4478 42.2817 34.4603 42.2938 34.4753 42.3023C35.8525 43.0802 37.6392 43.4342 39.2539 43.4564C40.2615 43.4705 41.2936 43.5074 42.3501 43.5674C42.3863 43.5689 42.4167 43.5559 42.4411 43.5285C42.575 43.3724 42.666 43.2304 42.7141 43.1024C43.0204 42.2937 43.2542 41.7681 43.4154 41.5254C43.9548 40.712 44.503 39.9263 44.9902 39.1062C45.2932 38.5957 45.3631 37.9675 45.383 37.3661C45.4134 36.3961 45.7474 35.5242 46.3852 34.7504C46.903 34.1208 47.4298 33.4778 47.9654 32.8216C47.998 32.7809 48.0109 32.7351 48.0043 32.684C47.9717 32.4443 48.0328 32.2305 48.1874 32.0426C48.22 32.0026 48.2174 31.9653 48.1796 31.9305C47.5589 31.3638 46.7673 30.898 45.8048 30.5333C45.2343 30.3169 44.2533 30.1171 43.7883 30.51C43.3822 30.8529 42.5842 31.1792 42.2469 30.5333C42.1189 30.2891 41.9583 30.0698 41.7652 29.8752C41.6698 29.7798 41.6287 29.6632 41.591 29.5356C41.5854 29.5165 41.5758 29.4987 41.5628 29.4836C41.5498 29.4685 41.5337 29.4563 41.5155 29.448C41.3413 29.3647 41.2559 29.1261 41.186 28.9586C41.1645 28.9082 41.1264 28.8794 41.0716 28.872C40.8541 28.842 40.6588 28.7422 40.6888 28.4825C40.745 27.9927 40.7968 27.4915 40.8441 26.9787C40.8471 26.9455 40.8397 26.914 40.822 26.8844C40.7043 26.6854 40.6355 26.486 40.6155 26.2863C40.5808 25.943 40.5445 25.6067 40.5068 25.2775C40.4838 25.0792 40.5201 24.8687 40.6155 24.646C40.6318 24.6083 40.6366 24.5691 40.63 24.5284C40.5245 23.9314 40.4147 23.4952 40.9584 23.0591C41.6576 22.5005 42.3553 22.0518 43.0514 21.713C43.714 21.39 44.3055 21.3645 45.0113 21.3933C45.2865 21.4044 45.5314 21.3001 45.7459 21.0804C45.7733 21.0523 45.7877 21.019 45.7892 20.9805C45.8414 19.5312 46.6537 17.4027 48.0487 16.6392C48.4315 16.4294 48.6923 16.0188 48.9764 15.6959C49.5912 14.9967 49.963 13.9935 50.1295 13.0713C50.1332 13.0484 50.1435 13.0291 50.1605 13.0136C50.1753 13.0003 50.1924 12.9966 50.2116 13.0025C50.2412 13.0128 50.2586 13.0332 50.2638 13.0635C50.3777 13.7183 50.3899 14.3653 50.3004 15.0045C50.2908 15.0733 50.3041 15.0781 50.3403 15.0189C50.3869 14.9427 50.4247 14.8628 50.4535 14.7792C50.5216 14.5831 50.5841 14.585 50.6411 14.7848C50.7876 15.2982 50.8064 15.7928 50.6977 16.2685C50.6821 16.3358 50.6988 16.3454 50.7476 16.2974L50.863 16.1819C51.0117 16.034 51.0709 16.0639 51.0406 16.2718C50.9995 16.5548 51.0051 16.8311 50.883 17.1208C50.7132 17.5247 50.4424 17.9109 50.2116 18.286C49.8321 18.9042 49.7322 19.5978 49.2772 20.1826C49.2298 20.244 49.2387 20.254 49.3038 20.2126ZM56.1688 39.752C55.7482 39.4924 55.2477 39.3703 54.8448 39.0862C54.81 39.0625 54.7716 39.0529 54.7294 39.0573C54.3055 39.1039 53.9737 38.8154 53.6751 38.7999C52.5632 38.7388 51.5855 38.5934 50.8175 37.7334C50.6252 37.5174 50.4221 37.3065 50.2083 37.1008C50.2029 37.0957 50.1964 37.092 50.1894 37.0898C50.1823 37.0876 50.1748 37.0871 50.1674 37.0883C50.1601 37.0895 50.153 37.0923 50.1468 37.0966C50.1406 37.1009 50.1355 37.1065 50.1317 37.113C49.9926 37.3661 49.8165 37.5754 49.6034 37.7412C49.5535 37.7803 49.5157 37.8327 49.4947 37.8921C48.8932 39.5686 48.0809 41.0749 47.0577 42.411C47.0377 42.4369 47.044 42.4473 47.0765 42.4421C47.9044 42.3045 48.7589 42.2168 49.5957 42.0437C51.0643 41.7403 52.4659 41.3005 53.8005 40.7242C54.8992 40.2492 56.0833 39.9019 57.2119 39.8109C57.8112 39.7635 58.3468 39.6954 58.8189 39.6067C59.3926 39.499 59.9663 39.1383 60.4713 38.882C61.1982 38.5135 61.995 38.8187 62.7063 38.4081C63.4107 38.0012 64.1446 37.7752 64.9081 37.7301C65.2307 37.7116 65.2307 37.6897 64.9081 37.6646C64.2766 37.6146 63.471 37.8765 62.9216 38.1384C62.3545 38.4092 61.9217 38.4814 61.328 38.5091C60.944 38.5276 60.5638 38.6397 60.1872 38.8454C59.5247 39.206 58.83 39.5556 58.072 39.5867C57.4653 39.6118 56.8694 39.6747 56.2842 39.7753C56.2427 39.782 56.2043 39.7742 56.1688 39.752Z" fill="black"/>
<path d="M48.8602 88.8901H45.9926L45.7085 66.5229C45.7085 66.5169 45.7073 66.5109 45.7049 66.5053C45.7025 66.4997 45.6991 66.4946 45.6947 66.4904C45.6904 66.4861 45.6853 66.4828 45.6796 66.4806C45.674 66.4784 45.6679 66.4773 45.6619 66.4774L45.0337 66.483C45.0189 66.4833 45.0045 66.4781 44.9932 66.4683C44.9819 66.4584 44.9746 66.4447 44.9727 66.4297L44.9649 66.3676C44.9575 66.3076 44.9842 66.2766 45.0448 66.2743L45.6408 66.2577C45.6588 66.2571 45.6759 66.2495 45.6884 66.2364C45.7008 66.2233 45.7077 66.2058 45.7074 66.1878L45.6874 64.9415C45.6866 64.8964 45.6637 64.8727 45.6186 64.8705C45.4399 64.8616 45.0937 64.9193 44.9405 64.8394C44.854 64.7936 44.8558 64.7514 44.9461 64.7129C45.1347 64.633 45.421 64.6486 45.6241 64.6352C45.6426 64.6341 45.6598 64.6258 45.6723 64.6121C45.6847 64.5985 45.6913 64.5805 45.6907 64.562L45.6785 64.1836C45.6763 64.1185 45.7077 64.0859 45.7728 64.0859L46.6262 64.0837C46.6987 64.0837 46.7368 64.1199 46.7405 64.1924L46.765 64.7162C46.7672 64.7673 46.7938 64.7913 46.8449 64.7884L46.968 64.7806C47.0095 64.7777 47.0294 64.7555 47.028 64.714C47.0146 64.3345 46.9947 63.9505 46.968 63.5621C46.9558 63.3823 47.0613 63.2037 47.2521 63.1848C47.7944 63.1315 48.3127 63.1434 48.8069 63.2203C48.9711 63.2455 49.1347 63.2455 49.2974 63.2203C49.5127 63.187 49.7347 63.1803 49.9633 63.2003C51.1518 63.3058 51.3027 64.2313 51.3105 65.1968C51.3209 66.3531 51.3153 67.7773 51.2939 69.4693C51.2902 69.7505 51.1955 69.9288 51.0098 70.0042C50.6025 70.1707 49.4916 70.3316 49.3684 69.7601C49.347 69.6587 49.3359 69.5555 49.3351 69.4505C49.3351 69.3765 49.2996 69.3491 49.2286 69.3683C49.1457 69.3898 49.0629 69.3928 48.98 69.3772C48.8986 69.3617 48.858 69.395 48.858 69.4771L48.8602 88.8901Z" fill="black"/>
<path d="M12.952 116V106.116H15.15V116H12.952ZM19.07 116V106.116H21.282V116H19.07ZM14.268 111.87V109.966H19.798V111.87H14.268ZM26.0066 116.154C25.3812 116.154 24.8259 116.028 24.3406 115.776C23.8646 115.515 23.4912 115.16 23.2206 114.712C22.9499 114.255 22.8146 113.732 22.8146 113.144V109.196H24.9566V113.116C24.9566 113.349 24.9939 113.55 25.0686 113.718C25.1526 113.886 25.2739 114.017 25.4326 114.11C25.5912 114.203 25.7826 114.25 26.0066 114.25C26.3239 114.25 26.5759 114.152 26.7626 113.956C26.9492 113.751 27.0426 113.471 27.0426 113.116V109.196H29.1846V113.13C29.1846 113.727 29.0492 114.255 28.7786 114.712C28.5079 115.16 28.1346 115.515 27.6586 115.776C27.1826 116.028 26.6319 116.154 26.0066 116.154ZM30.5294 116V109.196H32.6714V116H30.5294ZM32.6714 112.262L31.7754 111.562C31.9528 110.769 32.2514 110.153 32.6714 109.714C33.0914 109.275 33.6748 109.056 34.4214 109.056C34.7481 109.056 35.0328 109.107 35.2754 109.21C35.5274 109.303 35.7468 109.453 35.9334 109.658L34.6594 111.268C34.5661 111.165 34.4494 111.086 34.3094 111.03C34.1694 110.974 34.0108 110.946 33.8334 110.946C33.4788 110.946 33.1941 111.058 32.9794 111.282C32.7741 111.497 32.6714 111.823 32.6714 112.262ZM39.2106 116.14C38.5666 116.14 37.9926 115.986 37.4886 115.678C36.994 115.37 36.602 114.95 36.3126 114.418C36.0326 113.886 35.8926 113.279 35.8926 112.598C35.8926 111.917 36.0326 111.31 36.3126 110.778C36.602 110.246 36.994 109.826 37.4886 109.518C37.9926 109.21 38.5666 109.056 39.2106 109.056C39.6773 109.056 40.0973 109.145 40.4706 109.322C40.8533 109.499 41.166 109.747 41.4086 110.064C41.6606 110.372 41.8006 110.727 41.8286 111.128V113.998C41.8006 114.399 41.6653 114.763 41.4226 115.09C41.18 115.407 40.8673 115.664 40.4846 115.86C40.102 116.047 39.6773 116.14 39.2106 116.14ZM39.5886 114.208C39.8966 114.208 40.1626 114.143 40.3866 114.012C40.6106 113.872 40.788 113.681 40.9186 113.438C41.0493 113.195 41.1146 112.915 41.1146 112.598C41.1146 112.281 41.0493 112.005 40.9186 111.772C40.7973 111.529 40.62 111.338 40.3866 111.198C40.1626 111.058 39.9013 110.988 39.6026 110.988C39.304 110.988 39.038 111.058 38.8046 111.198C38.5806 111.338 38.3986 111.529 38.2586 111.772C38.128 112.015 38.0626 112.29 38.0626 112.598C38.0626 112.906 38.128 113.181 38.2586 113.424C38.3893 113.667 38.5713 113.858 38.8046 113.998C39.038 114.138 39.2993 114.208 39.5886 114.208ZM43.1306 116H41.0306V114.166L41.3526 112.514L40.9886 110.862V105.836H43.1306V116ZM44.6388 116V105.836H46.7808V116H44.6388ZM51.6492 116.154C50.9119 116.154 50.2539 116.005 49.6752 115.706C49.1059 115.398 48.6579 114.973 48.3312 114.432C48.0045 113.891 47.8412 113.279 47.8412 112.598C47.8412 111.917 47.9999 111.31 48.3172 110.778C48.6439 110.237 49.0825 109.812 49.6332 109.504C50.1839 109.196 50.8045 109.042 51.4952 109.042C52.1672 109.042 52.7599 109.187 53.2732 109.476C53.7865 109.765 54.1879 110.167 54.4772 110.68C54.7759 111.193 54.9252 111.781 54.9252 112.444C54.9252 112.565 54.9159 112.696 54.8972 112.836C54.8879 112.967 54.8645 113.121 54.8272 113.298L48.9612 113.312V111.842L53.9172 111.828L52.9932 112.444C52.9839 112.052 52.9232 111.73 52.8112 111.478C52.6992 111.217 52.5312 111.021 52.3072 110.89C52.0925 110.75 51.8265 110.68 51.5092 110.68C51.1732 110.68 50.8792 110.759 50.6272 110.918C50.3845 111.067 50.1932 111.282 50.0532 111.562C49.9225 111.842 49.8572 112.183 49.8572 112.584C49.8572 112.985 49.9272 113.331 50.0672 113.62C50.2165 113.9 50.4219 114.119 50.6832 114.278C50.9539 114.427 51.2712 114.502 51.6352 114.502C51.9712 114.502 52.2745 114.446 52.5452 114.334C52.8159 114.213 53.0539 114.035 53.2592 113.802L54.4352 114.978C54.0992 115.37 53.6932 115.664 53.2172 115.86C52.7412 116.056 52.2185 116.154 51.6492 116.154ZM60.5011 111.926V110.302H62.5871C63.0258 110.302 63.3618 110.19 63.5951 109.966C63.8378 109.742 63.9591 109.439 63.9591 109.056C63.9591 108.701 63.8425 108.407 63.6091 108.174C63.3758 107.941 63.0398 107.824 62.6011 107.824H60.5011V106.116H62.8531C63.5065 106.116 64.0805 106.242 64.5751 106.494C65.0698 106.737 65.4571 107.077 65.7371 107.516C66.0171 107.955 66.1571 108.459 66.1571 109.028C66.1571 109.607 66.0171 110.115 65.7371 110.554C65.4571 110.983 65.0651 111.319 64.5611 111.562C64.0571 111.805 63.4645 111.926 62.7831 111.926H60.5011ZM58.8211 116V106.116H61.0191V116H58.8211ZM64.1971 116L61.1171 111.744L63.1331 111.198L66.8011 116H64.1971ZM70.2308 116.14C69.6055 116.14 69.0455 115.986 68.5508 115.678C68.0655 115.37 67.6781 114.95 67.3888 114.418C67.1088 113.886 66.9688 113.279 66.9688 112.598C66.9688 111.917 67.1088 111.31 67.3888 110.778C67.6781 110.246 68.0655 109.826 68.5508 109.518C69.0455 109.21 69.6055 109.056 70.2308 109.056C70.6881 109.056 71.0988 109.145 71.4628 109.322C71.8361 109.499 72.1395 109.747 72.3728 110.064C72.6061 110.372 72.7368 110.727 72.7648 111.128V114.068C72.7368 114.469 72.6061 114.829 72.3728 115.146C72.1488 115.454 71.8501 115.697 71.4768 115.874C71.1035 116.051 70.6881 116.14 70.2308 116.14ZM70.6648 114.208C71.1221 114.208 71.4908 114.059 71.7708 113.76C72.0508 113.452 72.1908 113.065 72.1908 112.598C72.1908 112.281 72.1255 112.001 71.9948 111.758C71.8735 111.515 71.6961 111.329 71.4628 111.198C71.2388 111.058 70.9775 110.988 70.6788 110.988C70.3801 110.988 70.1141 111.058 69.8808 111.198C69.6568 111.329 69.4748 111.515 69.3348 111.758C69.2041 112.001 69.1388 112.281 69.1388 112.598C69.1388 112.906 69.2041 113.181 69.3348 113.424C69.4655 113.667 69.6475 113.858 69.8808 113.998C70.1141 114.138 70.3755 114.208 70.6648 114.208ZM72.1068 116V114.166L72.4288 112.514L72.1068 110.862V109.196H74.2068V116H72.1068ZM79.005 116.154C78.305 116.154 77.6703 116 77.101 115.692C76.5317 115.384 76.0837 114.959 75.757 114.418C75.4303 113.877 75.267 113.27 75.267 112.598C75.267 111.917 75.4303 111.31 75.757 110.778C76.093 110.237 76.5457 109.812 77.115 109.504C77.6843 109.196 78.3237 109.042 79.033 109.042C79.565 109.042 80.0503 109.135 80.489 109.322C80.937 109.499 81.3337 109.77 81.679 110.134L80.307 111.506C80.1483 111.329 79.9617 111.198 79.747 111.114C79.5417 111.03 79.3037 110.988 79.033 110.988C78.725 110.988 78.4497 111.058 78.207 111.198C77.9737 111.329 77.787 111.515 77.647 111.758C77.5163 111.991 77.451 112.267 77.451 112.584C77.451 112.901 77.5163 113.181 77.647 113.424C77.787 113.667 77.9783 113.858 78.221 113.998C78.4637 114.138 78.7343 114.208 79.033 114.208C79.313 114.208 79.5603 114.161 79.775 114.068C79.999 113.965 80.1903 113.825 80.349 113.648L81.707 115.02C81.3523 115.393 80.951 115.678 80.503 115.874C80.055 116.061 79.5557 116.154 79.005 116.154ZM85.8562 116.154C85.1189 116.154 84.4609 116.005 83.8822 115.706C83.3129 115.398 82.8649 114.973 82.5382 114.432C82.2116 113.891 82.0482 113.279 82.0482 112.598C82.0482 111.917 82.2069 111.31 82.5242 110.778C82.8509 110.237 83.2896 109.812 83.8402 109.504C84.3909 109.196 85.0116 109.042 85.7022 109.042C86.3742 109.042 86.9669 109.187 87.4802 109.476C87.9936 109.765 88.3949 110.167 88.6842 110.68C88.9829 111.193 89.1322 111.781 89.1322 112.444C89.1322 112.565 89.1229 112.696 89.1042 112.836C89.0949 112.967 89.0716 113.121 89.0342 113.298L83.1682 113.312V111.842L88.1242 111.828L87.2002 112.444C87.1909 112.052 87.1302 111.73 87.0182 111.478C86.9062 111.217 86.7382 111.021 86.5142 110.89C86.2996 110.75 86.0336 110.68 85.7162 110.68C85.3802 110.68 85.0862 110.759 84.8342 110.918C84.5916 111.067 84.4002 111.282 84.2602 111.562C84.1296 111.842 84.0642 112.183 84.0642 112.584C84.0642 112.985 84.1342 113.331 84.2742 113.62C84.4236 113.9 84.6289 114.119 84.8902 114.278C85.1609 114.427 85.4782 114.502 85.8422 114.502C86.1782 114.502 86.4816 114.446 86.7522 114.334C87.0229 114.213 87.2609 114.035 87.4662 113.802L88.6422 114.978C88.3062 115.37 87.9002 115.664 87.4242 115.86C86.9482 116.056 86.4256 116.154 85.8562 116.154Z" fill="white"/>
</svg>
