<svg width="102" height="133" viewBox="0 0 102 133" fill="none" xmlns="http://www.w3.org/2000/svg">
<circle cx="51" cy="51" r="41" fill="#F1F1F0"/>
<g clip-path="url(#clip0_120_9)">
<path fill-rule="evenodd" clip-rule="evenodd" d="M57.2457 17.0242C57.3108 17.0242 57.376 17.0242 57.4412 17.0242C57.4194 17.1642 57.4521 17.2864 57.539 17.3908C57.7296 17.372 57.9251 17.3802 58.1255 17.4152C58.1255 17.2849 58.1255 17.1545 58.1255 17.0242C58.1907 17.0242 58.2559 17.0242 58.3211 17.0242C58.7469 17.098 59.1705 17.1876 59.592 17.293C60.1675 17.4705 60.6481 17.7883 61.034 18.2462C61.1661 18.4373 61.2312 18.6491 61.2295 18.8817C61.4117 19.1128 61.5746 19.3572 61.7183 19.6149C61.8282 19.9976 61.9912 20.3561 62.2071 20.6903C62.2422 21.1011 62.2178 21.5084 62.1338 21.9123C62.1298 22.1035 62.195 22.2665 62.3294 22.4011C62.2948 22.5618 62.2785 22.7247 62.2805 22.89C62.3945 22.89 62.5086 22.89 62.6226 22.89C62.601 23.0427 62.5195 23.1567 62.3782 23.2321C62.2336 23.5073 62.2499 23.768 62.4271 24.0142C62.3357 24.0318 62.2623 24.0807 62.2071 24.1609C62.1966 24.3249 62.1966 24.4878 62.2071 24.6497C62.0164 24.8143 61.8127 24.961 61.5961 25.0896C61.6788 25.1805 61.7522 25.2783 61.8161 25.3829C61.9566 25.6887 61.8751 25.9168 61.5717 26.0673C61.5637 26.296 61.5637 26.524 61.5717 26.7516C61.477 26.879 61.3548 26.9686 61.2051 27.0204C60.9628 27.0932 60.7184 27.1584 60.4719 27.216C60.6964 27.7429 60.9489 28.2561 61.2295 28.7557C61.4124 29.2503 61.5591 29.7554 61.6695 30.2711C61.7346 30.4014 61.7998 30.5317 61.865 30.6621C62.3928 31.2715 62.9387 31.8662 63.5025 32.4463C63.6166 32.4789 63.7306 32.4789 63.8447 32.4463C64.3318 32.3325 64.8207 32.2348 65.3111 32.153C65.7281 31.7358 66.0703 31.2633 66.3376 30.7354C65.9124 29.9908 65.4806 29.2495 65.0423 28.5113C64.8223 28.3565 64.6349 28.1692 64.4801 27.9492C64.1629 27.7987 63.8532 27.6358 63.5514 27.4604C63.3604 27.361 63.2056 27.2225 63.087 27.0449C62.9919 26.6131 63.1141 26.2465 63.4536 25.945C63.6967 25.8503 63.9411 25.8503 64.1869 25.945C64.9084 26.3141 65.6254 26.697 66.3376 27.0938C66.5041 26.7536 66.7648 26.6314 67.1197 26.7272C67.21 26.8524 67.3159 26.9583 67.4375 27.0449C67.8105 26.8546 68.0956 26.9442 68.2929 27.3137C68.7113 27.3002 68.9394 27.5038 68.9772 27.9247C69.1897 27.9166 69.4015 27.9248 69.6127 27.9492C69.6433 27.9859 69.6677 28.0266 69.686 28.0714C69.6933 28.3862 69.734 28.6958 69.8082 29.0001C70.8998 29.6112 71.9918 30.2222 73.0833 30.8332C73.3174 30.9856 73.5374 31.1567 73.7432 31.3465C73.8649 31.7319 73.7755 32.0659 73.4743 32.3485C73.3013 32.422 73.1219 32.4383 72.9366 32.3974C72.5994 32.2776 72.2733 32.131 71.959 31.9575C71.0498 31.4621 70.1372 30.9815 69.2216 30.5155C69.2289 30.5669 69.2208 30.6158 69.1972 30.6621C69.018 30.9228 68.8388 31.1835 68.6595 31.4442C68.6393 31.5778 68.6067 31.7081 68.5617 31.8353C68.1643 32.7501 67.7569 33.6626 67.3397 34.5726C66.9989 35.1484 66.616 35.6943 66.191 36.2102C65.7271 36.5643 65.2546 36.9065 64.7734 37.2367C64.6382 37.4088 64.4916 37.5718 64.3335 37.7255C64.241 37.7731 64.1432 37.8057 64.0402 37.8233C63.4887 37.8434 62.951 37.7619 62.4271 37.5788C62.2058 37.4764 62.0103 37.3379 61.8405 37.1634C61.5497 39.0926 61.0527 40.9664 60.3497 42.7847C59.4348 44.6232 58.7912 46.554 58.4188 48.5772C58.4351 48.6505 58.4514 48.7238 58.4677 48.7972C58.7286 48.9275 58.9731 49.0823 59.2009 49.2615C61.181 50.8175 63.1037 52.4469 64.969 54.1497C65.5488 54.7132 66.111 55.2917 66.6554 55.885C67.1479 56.5276 67.6041 57.1956 68.0241 57.8891C68.4332 58.3145 68.8243 58.7545 69.1972 59.2089C69.5211 59.706 69.6189 60.2437 69.4905 60.822C69.3811 61.0852 69.2914 61.3541 69.2216 61.6286C69.2586 62.1736 69.283 62.7194 69.295 63.2661C69.3539 63.577 69.4191 63.8866 69.4905 64.1948C69.8738 65.1906 70.1426 66.2171 70.297 67.2744C70.3102 67.4958 70.343 67.7075 70.3948 67.9098C70.5146 69.1338 70.6529 70.3559 70.8103 71.576C71.0102 72.6978 71.3851 73.757 71.9346 74.7533C72.1932 75.1907 72.5353 75.5495 72.9611 75.8286C73.0461 75.966 73.1033 76.1126 73.1322 76.2686C73.6796 76.4773 74.2173 76.7134 74.7453 76.9774C75.8255 77.3215 76.9337 77.452 78.0692 77.3684C78.3723 77.2658 78.6817 77.1924 78.998 77.1484C79.3905 77.1817 79.716 77.3445 79.9756 77.6373C79.9756 77.8167 79.9756 77.9956 79.9756 78.175C79.8754 78.349 79.7449 78.5039 79.5845 78.6393C78.5702 79.266 77.4948 79.7709 76.3584 80.1547C76.0998 80.2114 75.8387 80.2519 75.5762 80.2769C75.3807 80.2769 75.1852 80.2769 74.9897 80.2769C74.9897 80.0163 74.9897 79.7553 74.9897 79.4948C74.8592 79.4948 74.7291 79.4948 74.5986 79.4948C74.5986 79.7553 74.5986 80.0163 74.5986 80.2769C74.5336 80.2769 74.4681 80.2769 74.4031 80.2769C74.4031 80.0163 74.4031 79.7553 74.4031 79.4948C74.2726 79.4948 74.1426 79.4948 74.012 79.4948C74.012 79.7553 74.012 80.0163 74.012 80.2769C73.9793 80.2769 73.947 80.2769 73.9143 80.2769C73.9226 80.0642 73.9143 79.8526 73.8898 79.6414C73.8717 79.5964 73.8473 79.5559 73.8165 79.5192C73.6205 79.4654 73.4494 79.5065 73.3033 79.6414C73.1664 79.4615 73.0036 79.4454 72.8144 79.5925C72.6942 79.5036 72.5559 79.4708 72.3989 79.4948C72.3989 79.7392 72.3989 79.9836 72.3989 80.228C72.3501 80.228 72.3012 80.228 72.2523 80.228C72.329 79.5656 72.0519 79.3457 71.4213 79.5681C71.3025 79.7167 71.2537 79.8878 71.2747 80.0813C71.4052 80.0813 71.5352 80.0813 71.6657 80.0813C71.6657 79.9997 71.6657 79.9186 71.6657 79.8369C71.7698 79.8198 71.8353 79.8604 71.8613 79.9591C71.7698 80.1024 71.6559 80.2246 71.5191 80.3257C71.4702 80.3257 71.4213 80.3257 71.3724 80.3257C71.3236 80.3257 71.2747 80.3257 71.2258 80.3257C71.2258 79.9186 71.2258 79.5109 71.2258 79.1037C71.0953 79.1037 70.9653 79.1037 70.8347 79.1037C70.8347 79.5436 70.8347 79.9836 70.8347 80.4235C70.7859 80.4235 70.737 80.4235 70.6881 80.4235C70.6964 80.1947 70.6881 79.9665 70.6637 79.7392C70.6231 79.6331 70.5498 79.5598 70.4437 79.5192C69.9378 79.3799 69.6933 79.5676 69.7105 80.0813C69.8408 80.0813 69.971 80.0813 70.1015 80.0813C70.1015 79.9997 70.1015 79.9186 70.1015 79.8369C70.257 79.8213 70.3142 79.8863 70.2726 80.0325C70.1279 80.1459 69.9813 80.2602 69.8327 80.3746C69.8091 80.4211 69.8009 80.4699 69.8082 80.5213C69.7105 80.5213 69.6127 80.5213 69.5149 80.5213C69.0826 80.3091 68.7486 79.9831 68.5129 79.5436C68.4651 79.4097 68.4407 79.2714 68.4395 79.1281C68.5697 78.6115 68.5534 78.0982 68.3907 77.5884C68.4244 77.4491 68.4896 77.3269 68.5862 77.2218C68.1156 75.1585 67.4883 73.146 66.7043 71.1849C66.3136 70.4033 65.8737 69.6539 65.3844 68.9363C65.0752 68.3341 64.8634 67.6987 64.749 67.03C64.4379 65.4148 64.2668 63.7854 64.2357 62.1418C64.3099 62.1413 64.3669 62.1087 64.4068 62.0441C64.5281 62.1327 64.6666 62.1653 64.8223 62.1418C64.8445 61.6154 64.82 61.0939 64.749 60.5776C64.7083 60.5369 64.6675 60.4961 64.6268 60.4554C64.1037 60.3002 63.843 60.4876 63.8447 61.0175C63.975 61.0175 64.1054 61.0175 64.2357 61.0175C64.1994 60.8489 64.2646 60.7675 64.4313 60.7731C64.4383 60.8593 64.4219 60.9407 64.3824 61.0175C64.2148 61.1331 64.0518 61.2472 63.8936 61.3597C63.8447 61.3434 63.8121 61.3108 63.7958 61.2619C63.7958 60.8546 63.7958 60.4472 63.7958 60.0399C63.6654 60.0399 63.5351 60.0399 63.4047 60.0399C63.4206 60.3749 63.4043 60.7008 63.3559 61.0175C63.307 61.0013 63.2744 60.9687 63.2581 60.9198C63.2768 60.5626 63.1057 60.3833 62.7448 60.3821C62.6137 60.4111 62.4915 60.4599 62.3782 60.5287C60.9922 59.9419 59.6887 59.2168 58.4677 58.3535C58.1923 58.127 57.9316 57.8826 57.6856 57.6203C57.4249 57.4247 57.1642 57.2292 56.9035 57.0337C55.8883 56.4244 54.8862 55.7971 53.8973 55.1518C52.9515 56.5212 51.9575 57.8573 50.9155 59.16C50.4497 59.6422 49.969 60.1066 49.4735 60.5532C48.7314 61.1116 47.9982 61.6819 47.2738 62.264C46.8176 62.7202 46.3614 63.1765 45.9052 63.6327C45.3837 64.0075 44.8624 64.3822 44.341 64.757C43.8582 64.8681 43.3693 64.9007 42.8745 64.8547C41.8067 64.5858 40.7232 64.431 39.6239 64.3904C39.3224 64.3985 39.021 64.4066 38.7196 64.4148C36.7453 64.7676 34.7574 64.8735 32.756 64.7325C31.9484 64.7308 31.1663 64.8693 30.4097 65.148C29.2968 65.6005 28.1726 66.024 27.0369 66.4189C26.8748 66.5974 26.6956 66.7601 26.4992 66.9078C25.9615 67.1194 25.4238 67.3316 24.8861 67.5432C24.2731 68.0096 23.7436 68.5556 23.2975 69.1808C23.0227 69.5048 22.705 69.7737 22.3443 69.9873C21.8169 70.1965 21.4177 70.0582 21.1467 69.5718C21.0792 69.323 21.0222 69.0786 20.9756 68.8386C20.9756 68.3987 20.9756 67.9587 20.9756 67.5188C21.2246 66.3476 21.8275 65.3945 22.7842 64.6592C23.9242 63.9756 24.8774 63.0875 25.6438 61.9952C25.8999 61.7063 26.185 61.4537 26.4992 61.2375C27.1465 60.866 27.7819 60.8823 28.4056 61.2864C28.6486 61.6392 28.9663 61.8918 29.3588 62.0441C29.768 61.9981 30.1672 61.9085 30.5564 61.7752C31.4362 61.3842 32.3161 60.9931 33.196 60.602C33.7401 60.4749 34.2778 60.3283 34.8091 60.1621C35.1594 59.9625 35.5016 59.7507 35.8356 59.5267C36.0868 59.4157 36.3475 59.3343 36.6177 59.2822C38.0507 59.3309 39.4846 59.3798 40.9192 59.4289C41.3227 59.5194 41.73 59.552 42.1413 59.5267C42.4608 59.3521 42.697 59.0996 42.8501 58.769C43.9754 56.5698 45.2952 54.5005 46.8095 52.561C46.9605 52.2988 47.0746 52.0218 47.1516 51.7301C47.35 50.7816 47.5618 49.8365 47.7871 48.8949C47.8607 48.6976 47.934 48.5021 48.0071 48.3083C48.0886 48.3083 48.17 48.3083 48.2515 48.3083C48.2515 48.2269 48.2515 48.1454 48.2515 48.0639C48.3166 48.0639 48.3818 48.0639 48.447 48.0639C48.4547 48.1311 48.4465 48.1963 48.4226 48.2595C48.2759 48.3735 48.1293 48.4876 47.9826 48.6016C47.8156 48.8812 47.8238 49.1501 48.0071 49.4082C48.1882 49.468 48.3348 49.4272 48.447 49.286C48.4903 49.3263 48.5066 49.3752 48.4959 49.4326C48.6099 49.4326 48.724 49.4326 48.8381 49.4326C48.8462 48.9435 48.8381 48.4547 48.8136 47.9662C48.7909 47.8962 48.7501 47.8392 48.6914 47.7951C48.5658 47.7512 48.4518 47.6941 48.3492 47.624C48.7198 47 49.1761 46.4378 49.7179 45.9376C50.313 45.453 50.9322 45.0049 51.5754 44.5933C51.5184 44.4793 51.4614 44.3652 51.4043 44.2512C51.4192 43.9377 51.3541 43.6445 51.2088 43.3713C49.88 41.9776 48.7394 40.446 47.7871 38.7764C47.3176 37.9191 46.9429 37.0229 46.6628 36.088C46.4999 35.7947 46.3369 35.5014 46.174 35.2081C46.1414 35.0615 46.1414 34.9148 46.174 34.7682C46.4964 34.2828 46.9119 33.8999 47.4205 33.6194C48.3188 32.8676 49.2313 32.1344 50.1579 31.4198C50.7993 31.0539 51.4674 30.7442 52.162 30.491C52.6033 30.2617 52.9699 29.944 53.2618 29.5378C53.5647 29.0028 53.8579 28.4651 54.1417 27.9247C54.3514 27.6335 54.5795 27.3566 54.826 27.0938C55.0053 26.4583 55.1845 25.8228 55.3637 25.1874C55.4342 24.8643 55.4505 24.5384 55.4126 24.2098C55.3083 23.8477 55.1942 23.4893 55.0704 23.1344C54.7556 22.5046 54.4949 21.8529 54.2883 21.1791C54.1109 20.4729 54.1272 19.7723 54.3372 19.0772C54.9429 17.8819 55.9123 17.1976 57.2457 17.0242Z" fill="#020202"/>
<path fill-rule="evenodd" clip-rule="evenodd" d="M57.2456 17.0245C57.2456 17.0082 57.2456 16.9919 57.2456 16.9756C57.3923 16.9756 57.5389 16.9756 57.6855 16.9756C57.6855 17.0408 57.6855 17.1059 57.6855 17.1711C57.7344 17.1711 57.7833 17.1711 57.8322 17.1711C57.8322 17.1059 57.8322 17.0408 57.8322 16.9756C57.9951 16.9756 58.1581 16.9756 58.321 16.9756C58.321 16.9919 58.321 17.0082 58.321 17.0245C58.2558 17.0245 58.1906 17.0245 58.1255 17.0245C58.1255 17.1548 58.1255 17.2852 58.1255 17.4155C57.9251 17.3804 57.7295 17.3723 57.5389 17.3911C57.452 17.2867 57.4194 17.1645 57.4411 17.0245C57.376 17.0245 57.3108 17.0245 57.2456 17.0245Z" fill="#020202"/>
<path fill-rule="evenodd" clip-rule="evenodd" d="M57.6853 16.9756C57.7342 16.9756 57.7831 16.9756 57.8319 16.9756C57.8319 17.0408 57.8319 17.1059 57.8319 17.1711C57.7831 17.1711 57.7342 17.1711 57.6853 17.1711C57.6853 17.1059 57.6853 17.0408 57.6853 16.9756Z" fill="#121212"/>
<path fill-rule="evenodd" clip-rule="evenodd" d="M62.3293 22.4014C62.4509 22.5463 62.5487 22.7093 62.6226 22.8902C62.5086 22.8902 62.3945 22.8902 62.2804 22.8902C62.2785 22.7249 62.2948 22.562 62.3293 22.4014Z" fill="#020202"/>
<path fill-rule="evenodd" clip-rule="evenodd" d="M62.6224 22.8901C62.7124 23.005 62.7776 23.1353 62.8179 23.2812C62.6713 23.3703 62.6387 23.4925 62.7202 23.6478C62.7728 23.6708 62.8217 23.6626 62.8668 23.6234C62.8179 23.8532 62.6712 23.9835 62.4269 24.0144C62.2497 23.7681 62.2334 23.5075 62.378 23.2323C62.5193 23.1569 62.6008 23.0428 62.6224 22.8901Z" fill="#020202"/>
<path fill-rule="evenodd" clip-rule="evenodd" d="M62.8179 23.2812C62.8652 23.3842 62.8816 23.4983 62.8668 23.6234C62.8217 23.6627 62.7728 23.6708 62.7202 23.6479C62.6387 23.4925 62.6713 23.3703 62.8179 23.2812Z" fill="#0C0C0C"/>
<path fill-rule="evenodd" clip-rule="evenodd" d="M65.1156 35.9414C65.1626 36.0277 65.1789 36.1254 65.1645 36.2347C65.1156 36.2347 65.0667 36.2347 65.0178 36.2347C65.0234 36.1263 65.0559 36.0285 65.1156 35.9414Z" fill="#101010"/>
<path fill-rule="evenodd" clip-rule="evenodd" d="M50.451 35.9414C50.498 36.0277 50.5143 36.1254 50.4999 36.2347C50.451 36.2347 50.4022 36.2347 50.3533 36.2347C50.3412 36.1194 50.3738 36.0217 50.451 35.9414Z" fill="#101010"/>
<path fill-rule="evenodd" clip-rule="evenodd" d="M52.6507 40.4385C52.7152 40.8219 52.7152 41.2129 52.6507 41.6116C52.621 41.6056 52.6047 41.5893 52.6018 41.5628C52.6503 41.197 52.6666 40.8223 52.6507 40.4385Z" fill="#5A5A5A"/>
<path fill-rule="evenodd" clip-rule="evenodd" d="M57.7833 42.2957C57.8303 42.3819 57.8466 42.4797 57.8322 42.5889C57.7833 42.5889 57.7344 42.5889 57.6856 42.5889C57.6735 42.4737 57.706 42.3759 57.7833 42.2957Z" fill="#151515"/>
<path fill-rule="evenodd" clip-rule="evenodd" d="M49.9623 48.6506C50.0178 48.7712 50.0259 48.9015 49.9868 49.0417C49.8829 49.1077 49.8258 49.0752 49.8157 48.9439C49.8393 48.8314 49.8882 48.7337 49.9623 48.6506Z" fill="#0A0A0A"/>
<path fill-rule="evenodd" clip-rule="evenodd" d="M48.3491 47.6238C48.4516 47.6939 48.5657 47.751 48.6913 47.7949C48.75 47.839 48.7907 47.896 48.8135 47.9659C48.8379 48.4545 48.846 48.9433 48.8379 49.4324C48.7239 49.4324 48.6098 49.4324 48.4957 49.4324C48.5064 49.375 48.4902 49.3261 48.4469 49.2858C48.3347 49.427 48.188 49.4677 48.0069 49.408C47.8236 49.1499 47.8154 48.881 47.9825 48.6014C48.1291 48.4874 48.2758 48.3733 48.4224 48.2592C48.4464 48.196 48.4545 48.1308 48.4469 48.0637C48.3817 48.0637 48.3165 48.0637 48.2513 48.0637C48.2513 48.1452 48.2513 48.2266 48.2513 48.3081C48.1698 48.3081 48.0884 48.3081 48.0069 48.3081C48.0968 48.0632 48.2109 47.835 48.3491 47.6238Z" fill="#020202"/>
<path fill-rule="evenodd" clip-rule="evenodd" d="M48.3979 48.6506C48.4533 48.7712 48.4615 48.9015 48.4223 49.0417C48.3184 49.1077 48.2614 49.0752 48.2512 48.9439C48.2749 48.8314 48.3238 48.7337 48.3979 48.6506Z" fill="#0A0A0A"/>
<path fill-rule="evenodd" clip-rule="evenodd" d="M57.7833 55.0049C57.8303 55.0912 57.8466 55.1889 57.8322 55.2982C57.7833 55.2982 57.7344 55.2982 57.6856 55.2982C57.6735 55.1829 57.706 55.0851 57.7833 55.0049Z" fill="#141414"/>
<path fill-rule="evenodd" clip-rule="evenodd" d="M63.7956 61.2618C63.6379 61.1913 63.4912 61.1098 63.3557 61.0174C63.4042 60.7007 63.4204 60.3748 63.4046 60.0398C63.535 60.0398 63.6653 60.0398 63.7956 60.0398C63.7956 60.4471 63.7956 60.8545 63.7956 61.2618Z" fill="#020202"/>
<path fill-rule="evenodd" clip-rule="evenodd" d="M63.258 60.92C62.9504 60.8149 62.6571 60.6846 62.3782 60.529C62.4914 60.4602 62.6136 60.4113 62.7448 60.3823C63.1057 60.3835 63.2768 60.5628 63.258 60.92Z" fill="#020202"/>
<path fill-rule="evenodd" clip-rule="evenodd" d="M64.2355 62.1418C64.2408 61.9586 64.2164 61.7793 64.1622 61.6041C64.0551 61.5389 63.9655 61.4574 63.8934 61.3597C64.0517 61.2472 64.2146 61.1331 64.3822 61.0175C64.4217 60.9407 64.4381 60.8592 64.4311 60.7731C64.2644 60.7674 64.1992 60.8488 64.2355 61.0175C64.1052 61.0175 63.9749 61.0175 63.8445 61.0175C63.8428 60.4875 64.1035 60.3001 64.6266 60.4553C64.6673 60.4961 64.7081 60.5368 64.7488 60.5775C64.8198 61.0939 64.8443 61.6153 64.8221 62.1418C64.6664 62.1652 64.5279 62.1327 64.4066 62.044C64.3667 62.1087 64.3097 62.1412 64.2355 62.1418Z" fill="#020202"/>
<path fill-rule="evenodd" clip-rule="evenodd" d="M35.7867 61.3599C35.8337 61.4461 35.85 61.5439 35.8356 61.6532C35.7867 61.6532 35.7378 61.6532 35.689 61.6532C35.6945 61.5447 35.7271 61.447 35.7867 61.3599Z" fill="#101010"/>
<path fill-rule="evenodd" clip-rule="evenodd" d="M64.3821 61.3599C64.4375 61.4804 64.4457 61.6108 64.4066 61.7509C64.2895 61.8144 64.2324 61.7736 64.2355 61.6287C64.2532 61.5216 64.3021 61.4319 64.3821 61.3599Z" fill="#121212"/>
<path fill-rule="evenodd" clip-rule="evenodd" d="M70.2969 67.2747C70.3345 67.3118 70.359 67.3607 70.3702 67.4213C70.3946 67.5836 70.4029 67.7464 70.3946 67.9101C70.3428 67.7077 70.3101 67.4961 70.2969 67.2747Z" fill="#AFAFAF"/>
<path fill-rule="evenodd" clip-rule="evenodd" d="M71.3722 80.326C71.2011 80.37 71.0222 80.4028 70.8345 80.4238C70.8345 79.9839 70.8345 79.5439 70.8345 79.104C70.965 79.104 71.095 79.104 71.2255 79.104C71.2255 79.5112 71.2255 79.9189 71.2255 80.326C71.2744 80.326 71.3233 80.326 71.3722 80.326Z" fill="#020202"/>
<path fill-rule="evenodd" clip-rule="evenodd" d="M74.403 80.277C74.2725 80.277 74.1425 80.277 74.012 80.277C74.012 80.0164 74.012 79.7554 74.012 79.4949C74.1425 79.4949 74.2725 79.4949 74.403 79.4949C74.403 79.7554 74.403 80.0164 74.403 80.277Z" fill="#020202"/>
<path fill-rule="evenodd" clip-rule="evenodd" d="M75.5762 80.277C75.1852 80.342 74.7941 80.342 74.4031 80.277C74.4681 80.277 74.5336 80.277 74.5986 80.277C74.5986 80.0164 74.5986 79.7554 74.5986 79.4949C74.7291 79.4949 74.8591 79.4949 74.9897 79.4949C74.9897 79.7554 74.9897 80.0164 74.9897 80.277C75.1852 80.277 75.3807 80.277 75.5762 80.277Z" fill="#020202"/>
<path fill-rule="evenodd" clip-rule="evenodd" d="M70.8346 80.4237C70.6552 80.4564 70.4763 80.4887 70.2969 80.5214C70.1341 80.5214 69.9709 80.5214 69.8081 80.5214C69.8008 80.4701 69.8089 80.4212 69.8325 80.3748C69.9811 80.2604 70.1278 80.146 70.2725 80.0326C70.314 79.8865 70.2568 79.8215 70.1014 79.8371C70.1014 79.9187 70.1014 79.9999 70.1014 80.0815C69.9709 80.0815 69.8407 80.0815 69.7103 80.0815C69.6932 79.5678 69.9376 79.3801 70.4435 79.5194C70.5496 79.5599 70.6229 79.6333 70.6635 79.7393C70.6879 79.9666 70.6963 80.1949 70.6879 80.4237C70.7368 80.4237 70.7857 80.4237 70.8346 80.4237Z" fill="#020202"/>
<path fill-rule="evenodd" clip-rule="evenodd" d="M73.9141 80.2768C73.1144 80.2641 72.3162 80.2807 71.5189 80.3257C71.6558 80.2245 71.7697 80.1023 71.8611 79.959C71.8352 79.8603 71.7697 79.8197 71.6656 79.8368C71.6656 79.9185 71.6656 79.9996 71.6656 80.0813C71.5351 80.0813 71.405 80.0813 71.2745 80.0813C71.2535 79.8877 71.3024 79.7166 71.4212 79.568C72.0517 79.3456 72.3289 79.5656 72.2521 80.2279C72.301 80.2279 72.3499 80.2279 72.3988 80.2279C72.3988 79.9835 72.3988 79.7391 72.3988 79.4947C72.5557 79.4707 72.694 79.5035 72.8143 79.5924C73.0035 79.4453 73.1662 79.4614 73.3031 79.6413C73.4493 79.5064 73.6203 79.4653 73.8164 79.5191C73.8472 79.5558 73.8716 79.5963 73.8897 79.6413C73.9141 79.8525 73.9224 80.0641 73.9141 80.2768Z" fill="#020202"/>
<path fill-rule="evenodd" clip-rule="evenodd" d="M72.79 79.8369C72.8389 79.8369 72.8878 79.8369 72.9367 79.8369C72.9367 79.9674 72.9367 80.0975 72.9367 80.228C72.8878 80.228 72.8389 80.228 72.79 80.228C72.79 80.0975 72.79 79.9674 72.79 79.8369Z" fill="#080808"/>
<path fill-rule="evenodd" clip-rule="evenodd" d="M73.3276 79.8369C73.3926 79.8369 73.4582 79.8369 73.5232 79.8369C73.5232 79.9674 73.5232 80.0975 73.5232 80.228C73.4582 80.228 73.3926 80.228 73.3276 80.228C73.3276 80.0975 73.3276 79.9674 73.3276 79.8369Z" fill="#0B0B0B"/>
</g>
<path d="M18.132 113.926V112.302H20.218C20.6567 112.302 20.9927 112.19 21.226 111.966C21.4687 111.742 21.59 111.439 21.59 111.056C21.59 110.701 21.4733 110.407 21.24 110.174C21.0067 109.941 20.6707 109.824 20.232 109.824H18.132V108.116H20.484C21.1373 108.116 21.7113 108.242 22.206 108.494C22.7007 108.737 23.088 109.077 23.368 109.516C23.648 109.955 23.788 110.459 23.788 111.028C23.788 111.607 23.648 112.115 23.368 112.554C23.088 112.983 22.696 113.319 22.192 113.562C21.688 113.805 21.0953 113.926 20.414 113.926H18.132ZM16.452 118V108.116H18.65V118H16.452ZM21.828 118L18.748 113.744L20.764 113.198L24.432 118H21.828ZM28.3797 118.154C27.6423 118.154 26.9843 118.005 26.4057 117.706C25.8363 117.398 25.3883 116.973 25.0617 116.432C24.735 115.891 24.5717 115.279 24.5717 114.598C24.5717 113.917 24.7303 113.31 25.0477 112.778C25.3743 112.237 25.813 111.812 26.3637 111.504C26.9143 111.196 27.535 111.042 28.2257 111.042C28.8977 111.042 29.4903 111.187 30.0037 111.476C30.517 111.765 30.9183 112.167 31.2077 112.68C31.5063 113.193 31.6557 113.781 31.6557 114.444C31.6557 114.565 31.6463 114.696 31.6277 114.836C31.6183 114.967 31.595 115.121 31.5577 115.298L25.6917 115.312V113.842L30.6477 113.828L29.7237 114.444C29.7143 114.052 29.6537 113.73 29.5417 113.478C29.4297 113.217 29.2617 113.021 29.0377 112.89C28.823 112.75 28.557 112.68 28.2397 112.68C27.9037 112.68 27.6097 112.759 27.3577 112.918C27.115 113.067 26.9237 113.282 26.7837 113.562C26.653 113.842 26.5877 114.183 26.5877 114.584C26.5877 114.985 26.6577 115.331 26.7977 115.62C26.947 115.9 27.1523 116.119 27.4137 116.278C27.6843 116.427 28.0017 116.502 28.3657 116.502C28.7017 116.502 29.005 116.446 29.2757 116.334C29.5463 116.213 29.7843 116.035 29.9897 115.802L31.1657 116.978C30.8297 117.37 30.4237 117.664 29.9477 117.86C29.4717 118.056 28.949 118.154 28.3797 118.154ZM32.6896 118V107.836H34.8316V118H32.6896ZM39.182 118.14C38.5567 118.14 37.9967 117.986 37.502 117.678C37.0167 117.37 36.6293 116.95 36.34 116.418C36.06 115.886 35.92 115.279 35.92 114.598C35.92 113.917 36.06 113.31 36.34 112.778C36.6293 112.246 37.0167 111.826 37.502 111.518C37.9967 111.21 38.5567 111.056 39.182 111.056C39.6393 111.056 40.05 111.145 40.414 111.322C40.7873 111.499 41.0907 111.747 41.324 112.064C41.5573 112.372 41.688 112.727 41.716 113.128V116.068C41.688 116.469 41.5573 116.829 41.324 117.146C41.1 117.454 40.8013 117.697 40.428 117.874C40.0547 118.051 39.6393 118.14 39.182 118.14ZM39.616 116.208C40.0733 116.208 40.442 116.059 40.722 115.76C41.002 115.452 41.142 115.065 41.142 114.598C41.142 114.281 41.0767 114.001 40.946 113.758C40.8247 113.515 40.6473 113.329 40.414 113.198C40.19 113.058 39.9287 112.988 39.63 112.988C39.3313 112.988 39.0653 113.058 38.832 113.198C38.608 113.329 38.426 113.515 38.286 113.758C38.1553 114.001 38.09 114.281 38.09 114.598C38.09 114.906 38.1553 115.181 38.286 115.424C38.4167 115.667 38.5987 115.858 38.832 115.998C39.0653 116.138 39.3267 116.208 39.616 116.208ZM41.058 118V116.166L41.38 114.514L41.058 112.862V111.196H43.158V118H41.058ZM46.7662 118.028L43.9662 111.196H46.2762L48.0542 116.614H47.2002L49.0202 111.196H51.3302L48.4182 118.028H46.7662ZM45.0162 120.87L47.0602 116.46L48.4182 118.028L47.2142 120.87H45.0162ZM56.6867 113.926V112.302H58.7727C59.2114 112.302 59.5474 112.19 59.7807 111.966C60.0234 111.742 60.1447 111.439 60.1447 111.056C60.1447 110.701 60.028 110.407 59.7947 110.174C59.5614 109.941 59.2254 109.824 58.7867 109.824H56.6867V108.116H59.0387C59.692 108.116 60.266 108.242 60.7607 108.494C61.2554 108.737 61.6427 109.077 61.9227 109.516C62.2027 109.955 62.3427 110.459 62.3427 111.028C62.3427 111.607 62.2027 112.115 61.9227 112.554C61.6427 112.983 61.2507 113.319 60.7467 113.562C60.2427 113.805 59.65 113.926 58.9687 113.926H56.6867ZM55.0067 118V108.116H57.2047V118H55.0067ZM60.3827 118L57.3027 113.744L59.3187 113.198L62.9867 118H60.3827ZM66.4164 118.14C65.791 118.14 65.231 117.986 64.7364 117.678C64.251 117.37 63.8637 116.95 63.5744 116.418C63.2944 115.886 63.1544 115.279 63.1544 114.598C63.1544 113.917 63.2944 113.31 63.5744 112.778C63.8637 112.246 64.251 111.826 64.7364 111.518C65.231 111.21 65.791 111.056 66.4164 111.056C66.8737 111.056 67.2844 111.145 67.6484 111.322C68.0217 111.499 68.325 111.747 68.5584 112.064C68.7917 112.372 68.9224 112.727 68.9504 113.128V116.068C68.9224 116.469 68.7917 116.829 68.5584 117.146C68.3344 117.454 68.0357 117.697 67.6624 117.874C67.289 118.051 66.8737 118.14 66.4164 118.14ZM66.8504 116.208C67.3077 116.208 67.6764 116.059 67.9564 115.76C68.2364 115.452 68.3764 115.065 68.3764 114.598C68.3764 114.281 68.311 114.001 68.1804 113.758C68.059 113.515 67.8817 113.329 67.6484 113.198C67.4244 113.058 67.163 112.988 66.8644 112.988C66.5657 112.988 66.2997 113.058 66.0664 113.198C65.8424 113.329 65.6604 113.515 65.5204 113.758C65.3897 114.001 65.3244 114.281 65.3244 114.598C65.3244 114.906 65.3897 115.181 65.5204 115.424C65.651 115.667 65.833 115.858 66.0664 115.998C66.2997 116.138 66.561 116.208 66.8504 116.208ZM68.2924 118V116.166L68.6144 114.514L68.2924 112.862V111.196H70.3924V118H68.2924ZM75.1905 118.154C74.4905 118.154 73.8559 118 73.2865 117.692C72.7172 117.384 72.2692 116.959 71.9425 116.418C71.6159 115.877 71.4525 115.27 71.4525 114.598C71.4525 113.917 71.6159 113.31 71.9425 112.778C72.2785 112.237 72.7312 111.812 73.3005 111.504C73.8699 111.196 74.5092 111.042 75.2185 111.042C75.7505 111.042 76.2359 111.135 76.6745 111.322C77.1225 111.499 77.5192 111.77 77.8645 112.134L76.4925 113.506C76.3339 113.329 76.1472 113.198 75.9325 113.114C75.7272 113.03 75.4892 112.988 75.2185 112.988C74.9105 112.988 74.6352 113.058 74.3925 113.198C74.1592 113.329 73.9725 113.515 73.8325 113.758C73.7019 113.991 73.6365 114.267 73.6365 114.584C73.6365 114.901 73.7019 115.181 73.8325 115.424C73.9725 115.667 74.1639 115.858 74.4065 115.998C74.6492 116.138 74.9199 116.208 75.2185 116.208C75.4985 116.208 75.7459 116.161 75.9605 116.068C76.1845 115.965 76.3759 115.825 76.5345 115.648L77.8925 117.02C77.5379 117.393 77.1365 117.678 76.6885 117.874C76.2405 118.061 75.7412 118.154 75.1905 118.154ZM82.0418 118.154C81.3044 118.154 80.6464 118.005 80.0678 117.706C79.4984 117.398 79.0504 116.973 78.7238 116.432C78.3971 115.891 78.2338 115.279 78.2338 114.598C78.2338 113.917 78.3924 113.31 78.7098 112.778C79.0364 112.237 79.4751 111.812 80.0258 111.504C80.5764 111.196 81.1971 111.042 81.8878 111.042C82.5598 111.042 83.1524 111.187 83.6658 111.476C84.1791 111.765 84.5804 112.167 84.8698 112.68C85.1684 113.193 85.3178 113.781 85.3178 114.444C85.3178 114.565 85.3084 114.696 85.2898 114.836C85.2804 114.967 85.2571 115.121 85.2198 115.298L79.3538 115.312V113.842L84.3098 113.828L83.3858 114.444C83.3764 114.052 83.3158 113.73 83.2038 113.478C83.0918 113.217 82.9238 113.021 82.6998 112.89C82.4851 112.75 82.2191 112.68 81.9018 112.68C81.5658 112.68 81.2718 112.759 81.0198 112.918C80.7771 113.067 80.5858 113.282 80.4458 113.562C80.3151 113.842 80.2498 114.183 80.2498 114.584C80.2498 114.985 80.3198 115.331 80.4598 115.62C80.6091 115.9 80.8144 116.119 81.0758 116.278C81.3464 116.427 81.6638 116.502 82.0278 116.502C82.3638 116.502 82.6671 116.446 82.9378 116.334C83.2084 116.213 83.4464 116.035 83.6518 115.802L84.8278 116.978C84.4918 117.37 84.0858 117.664 83.6098 117.86C83.1338 118.056 82.6111 118.154 82.0418 118.154Z" fill="white"/>
<defs>
<clipPath id="clip0_120_9">
<rect width="59" height="67.9453" fill="white" transform="translate(21 17)"/>
</clipPath>
</defs>
</svg>
