<svg width="82" height="110" viewBox="0 0 82 110" fill="none" xmlns="http://www.w3.org/2000/svg">
<circle cx="41" cy="41" r="41" fill="#F1F1F0"/>
<path d="M44.7892 69.2234C44.8914 69.2167 44.9841 69.2422 45.0674 69.3C45.1239 69.3376 45.185 69.3571 45.2509 69.3584C45.4511 69.3638 45.6063 69.2778 45.7165 69.1004C45.7891 68.9835 45.7568 68.9223 45.6197 68.917C45.3617 68.9076 45.263 68.7839 45.3234 68.5461C45.3516 68.4345 45.3174 68.3472 45.2206 68.284C45.1642 68.2477 45.1017 68.2222 45.0331 68.2074C44.9431 68.1872 44.8793 68.2195 44.8416 68.3042C44.7919 68.4143 44.7933 68.5306 44.8457 68.6529C44.8806 68.7322 44.8598 68.7933 44.7832 68.8363L44.7046 68.8787C44.2114 67.0523 44.2873 65.2529 44.9324 63.4803C45.0157 63.2505 45.0298 62.9582 44.9747 62.6034C44.7368 61.0673 44.499 59.5373 44.8316 58.0456C45.0977 56.8542 45.8314 56.8623 46.7789 56.5579C47.5328 56.314 49.1817 56.949 49.722 56.3301C51.129 54.7134 52.3103 52.9778 53.542 51.222C53.8242 50.8209 54.308 50.5709 54.5156 50.1496C55.0317 49.1094 55.4167 48.0108 56.0174 47.0432C56.8466 45.7074 57.9862 44.6383 59.4362 43.836C59.4569 43.8249 59.4751 43.8097 59.4897 43.7914C59.5043 43.773 59.5151 43.7519 59.5213 43.7293C59.5275 43.7067 59.5291 43.683 59.5259 43.6598C59.5227 43.6366 59.5148 43.6142 59.5028 43.5941C58.5567 42.0029 57.3929 40.6402 56.0114 39.506C55.9428 39.4496 55.8635 39.4213 55.7735 39.4213L52.526 39.4193C52.4494 39.4193 52.3882 39.4509 52.3425 39.5141L47.9803 45.6261C47.9346 45.6892 47.9104 45.7591 47.9077 45.8357C47.897 46.0722 47.8372 46.2832 47.7283 46.4687C47.2647 47.2656 46.8225 48.1364 46.4019 49.0812C46.1089 49.741 45.9302 50.4755 45.8657 51.2845C45.7951 52.1715 45.394 52.9133 45.2206 53.77C44.8134 55.7818 44.4748 57.7331 44.4465 59.7288C44.4358 60.4102 44.2765 61.2454 43.9688 62.2345C43.3882 64.1012 41.2857 63.8048 40.304 62.5409C39.0233 60.8933 38.6772 59.0219 39.2659 56.9268C39.4634 56.2293 40.0984 55.1347 40.2294 54.1087C40.3846 52.8911 40.0036 51.6574 40.3322 50.4782C40.6252 49.4313 41.2877 48.7822 42.3198 48.5309C42.4186 48.5075 42.5095 48.4587 42.5834 48.3894C42.6573 48.32 42.7117 48.2326 42.7411 48.1358C43.0691 47.0701 43.4017 45.9526 43.739 44.7834C43.864 44.3561 44.2127 43.9892 44.2691 43.5719C44.4546 42.2072 44.6985 40.7256 45.3637 39.5221C45.3694 39.512 45.3722 39.5005 45.3721 39.4889C45.3719 39.4773 45.3687 39.466 45.3628 39.456C45.3569 39.446 45.3485 39.4377 45.3384 39.432C45.3283 39.4263 45.3169 39.4233 45.3053 39.4234H36.7219C36.6708 39.4234 36.6473 39.4489 36.6513 39.5C36.7441 40.7363 36.8831 41.9593 37.0686 43.1688C37.1533 43.7211 37.5947 44.0598 37.6895 44.5899C37.7634 44.9958 37.8528 45.405 37.9576 45.8176C38.1934 46.761 38.1813 47.7064 38.1612 48.6659C38.1571 48.8998 38.2028 49.1229 38.2983 49.3352L39.0824 51.0849C39.2934 51.5553 39.241 51.9947 38.9252 52.4033C38.8298 52.5283 38.7384 52.6506 38.651 52.7702C38.3433 53.1881 38.1262 53.1471 37.9999 52.6472C37.8171 51.9202 37.4711 51.2549 36.9618 50.6515C36.8784 50.5534 36.8495 50.5675 36.8751 50.6939C37.0061 51.3651 37.4677 53.0322 36.609 53.3568C36.5623 53.3743 36.5122 53.3807 36.4626 53.3753C36.4131 53.37 36.3655 53.353 36.3239 53.3259C36.2822 53.2988 36.2476 53.2623 36.2229 53.2193C36.1982 53.1763 36.184 53.1281 36.1816 53.0786C36.1467 52.4214 36.0318 51.7549 35.8369 51.0789C35.8328 51.0642 35.8245 51.051 35.8129 51.0411C35.8013 51.0312 35.787 51.025 35.7718 51.0233C35.7566 51.0215 35.7413 51.0244 35.7278 51.0314C35.7142 51.0384 35.7031 51.0494 35.6958 51.0628C35.5977 51.2455 35.4579 51.3887 35.2765 51.4921C35.2217 51.5233 35.1593 51.5387 35.0963 51.5367C35.0332 51.5347 34.972 51.5153 34.9192 51.4807C34.8665 51.4461 34.8244 51.3976 34.7974 51.3406C34.7705 51.2836 34.7598 51.2202 34.7665 51.1575C34.8431 50.4788 34.8895 49.7834 34.9056 49.0711C34.9298 48.0995 35.1898 47.1762 35.2967 46.2066C35.3061 46.1179 35.2671 46.0655 35.1798 46.0494C34.6335 45.9486 34.2243 45.6906 34.4279 45.0939C34.4494 45.0334 34.487 44.9857 34.5407 44.9508C34.7074 44.8446 34.8955 44.7895 35.1052 44.7855C35.1177 44.7852 35.13 44.7818 35.1409 44.7757C35.1518 44.7695 35.1611 44.7608 35.1678 44.7502C35.1746 44.7397 35.1787 44.7277 35.1797 44.7152C35.1807 44.7027 35.1787 44.6901 35.1737 44.6786C34.4137 42.9087 33.3252 41.2074 32.4302 39.508C32.4167 39.4831 32.3967 39.4623 32.3722 39.4477C32.3478 39.4332 32.3197 39.4255 32.2911 39.4254L10.117 39.4193C10.0377 39.4193 9.99869 39.3797 10 39.3004V38.2663C10.0014 38.1722 10.0484 38.1252 10.1411 38.1252L31.7307 38.1231C31.7406 38.1232 31.7503 38.1208 31.759 38.1162C31.7678 38.1116 31.7752 38.1049 31.7808 38.0968C31.7864 38.0886 31.7899 38.0792 31.791 38.0694C31.7921 38.0596 31.7907 38.0497 31.7871 38.0405C31.5452 37.4035 31.3457 36.7 31.1884 35.9299C31.1501 35.7424 31.0715 35.5247 30.9506 35.3776C30.1187 34.3576 29.3184 33.3087 28.5497 32.2309C28.5054 32.1691 28.4455 32.1348 28.3703 32.1281C27.6097 32.0609 26.8692 31.907 26.1488 31.6664C26.1314 31.6606 26.1129 31.6591 26.0947 31.6619C26.0766 31.6648 26.0594 31.6719 26.0446 31.6828C26.0298 31.6937 26.0178 31.7079 26.0096 31.7243C26.0015 31.7408 25.9974 31.759 25.9977 31.7773C26.0098 32.3834 25.9264 33.0379 25.7477 33.7407C25.2619 35.6517 23.5887 36.9983 21.6576 37.1858C20.1538 37.3323 18.8139 37.167 17.638 36.6899C16.8982 36.3895 16.0677 35.6598 16.0395 34.797C16.0274 34.4503 15.9561 34.1009 15.8258 33.7488C15.5919 33.1178 15.6847 32.5212 15.8681 31.8962C15.938 31.6543 15.8836 31.434 15.7048 31.2351C15.4764 30.9824 15.2338 30.7351 14.9771 30.4932C14.703 30.2372 14.8904 29.9248 15.2009 29.832C15.3689 29.781 15.5375 29.7252 15.7068 29.6647C15.723 29.6587 15.7374 29.6487 15.7486 29.6356C15.7599 29.6225 15.7677 29.6068 15.7713 29.59C15.7749 29.5731 15.7742 29.5556 15.7693 29.5391C15.7644 29.5226 15.7554 29.5075 15.7431 29.4954C15.5483 29.3046 15.5651 29.1386 15.7935 28.9975C15.8244 28.9786 15.8474 28.9493 15.8585 28.915C15.8696 28.8806 15.868 28.8433 15.854 28.81C15.7519 28.5748 15.8197 28.386 16.0576 28.2436C16.0976 28.2197 16.1282 28.1829 16.1443 28.1393C16.1605 28.0956 16.1612 28.0478 16.1463 28.0037C15.7895 26.9434 15.9528 26.4515 17.0675 26.1773C17.8376 25.9879 18.6621 25.8992 19.3716 25.5827C20.0543 25.2803 20.694 24.8892 21.2907 24.4095C21.3158 24.3893 21.3352 24.363 21.3469 24.3332C21.3586 24.3035 21.3621 24.2714 21.3572 24.2401C21.1657 22.9601 22.3591 22.1094 23.4033 21.7103C23.4385 21.6968 23.4707 21.6765 23.498 21.6505C23.5253 21.6246 23.5473 21.5935 23.5625 21.5591C23.8044 21.0208 24.0181 20.5512 24.5059 20.1621C25.0475 19.7321 25.5703 19.2892 26.0743 18.8337C27.1816 17.8325 28.3656 17.1491 29.6262 16.7836C30.8236 16.4368 32.1029 16.1976 33.4643 16.0659C36.4255 15.7777 39.6166 16.4832 42.4428 17.6141C43.9789 18.2296 45.4914 18.7866 46.9804 19.2852C47.3151 19.3981 47.6678 19.6743 48.0387 20.1137C48.0893 20.1734 48.1611 20.2122 48.2403 20.2226C49.9215 20.4342 52.0825 20.4403 53.3545 21.7687C54.4605 22.9218 55.5511 24.095 56.6262 25.2884C56.8842 25.5746 57.1227 25.8763 57.3418 26.1935C57.3848 26.2566 57.4009 26.3258 57.3902 26.4011C57.37 26.5301 57.3196 26.6423 57.239 26.7377C57.1812 26.8063 57.1852 26.8701 57.2511 26.9292C58.9343 28.4532 60.674 30.2977 61.8371 32.2913C62.9109 34.1298 63.902 36.0374 64.8105 38.0143C64.8441 38.0855 64.8998 38.1211 64.9778 38.1211L75.3633 38.1272C75.4036 38.1272 75.4423 38.143 75.4709 38.1713C75.4996 38.1996 75.516 38.2381 75.5165 38.2784L75.5327 39.2399C75.534 39.3501 75.4789 39.4052 75.3674 39.4052L65.5019 39.4294C65.4932 39.4292 65.4847 39.4312 65.477 39.4353C65.4694 39.4394 65.463 39.4454 65.4583 39.4527C65.4536 39.4599 65.4509 39.4683 65.4505 39.477C65.45 39.4856 65.4517 39.4942 65.4555 39.502C65.8318 40.2304 66.1718 40.9897 66.4755 41.7799C66.8827 42.8348 66.7725 43.8689 66.1449 44.8822C65.7404 45.534 65.3171 46.0763 64.875 46.509C63.8751 47.4887 62.8632 48.4563 61.8956 49.569C60.7358 50.9035 59.4793 52.1822 58.126 53.4052C57.8095 53.6914 57.7571 54.0603 57.4769 54.3324C57.11 54.6872 56.7471 55.0386 56.3883 55.3867C54.5848 57.1351 52.8848 59.0979 51.2883 61.275C51.2399 61.3408 51.2365 61.4093 51.2782 61.4806C51.5644 61.9724 51.6814 62.5994 50.9778 62.8312C50.9053 62.8554 50.8703 62.9058 50.873 62.9824C50.9187 64.0333 50.8307 65.1568 50.6089 66.3528C50.5968 66.416 50.5666 66.4267 50.5182 66.3851L50.4255 66.3065C50.4166 66.2988 50.4095 66.2893 50.4046 66.2785C50.3997 66.2677 50.3972 66.2559 50.3973 66.244C50.4107 65.7615 50.4416 65.3194 50.49 64.9176C50.4927 64.8947 50.4826 64.8819 50.4598 64.8793V64.8772C50.4302 64.8732 50.4127 64.8853 50.4073 64.9135C50.3086 65.4457 49.9477 66.5826 49.3591 66.7641C48.9559 66.887 48.7927 66.4052 48.8612 66.0968C48.8706 66.0605 48.8592 66.0323 48.8269 66.0122C48.8108 66.0027 48.7927 65.9987 48.7725 66.0001C48.7591 66.0027 48.7497 66.0095 48.7443 66.0202C48.1053 67.1289 47.8795 68.5239 47.7142 69.81C47.6517 70.2998 47.5126 71.1102 47.1236 71.4287C46.4402 71.9871 45.6762 71.3803 45.3375 70.7332C45.0889 70.2575 44.9061 69.7542 44.7892 69.2234ZM34.446 22.7988C34.3882 22.7706 34.3459 22.7289 34.319 22.6738C34.2773 22.5892 34.2135 22.567 34.1275 22.6073C34.0442 22.6463 33.9803 22.7074 33.936 22.7907C33.8997 22.8566 33.9192 22.8956 33.9945 22.9077C34.2619 22.952 34.448 23.1066 34.5528 23.3713C34.5958 23.4802 34.6765 23.5326 34.7947 23.5285C34.917 23.5245 34.9533 23.4667 34.9036 23.3552L34.7484 23.0085C34.7013 22.9036 34.7356 22.8499 34.8512 22.8472C35.0138 22.8445 35.1798 22.8593 35.3491 22.8915C35.384 22.8983 35.419 22.8949 35.4539 22.8815C35.4889 22.8707 35.5225 22.8573 35.5547 22.8411C35.6582 22.7887 35.6602 22.7336 35.5608 22.6758C35.4223 22.5952 35.2705 22.5623 35.1052 22.5771C34.9372 22.5932 34.8572 22.5166 34.8653 22.3473C34.872 22.2156 34.8498 22.0906 34.7988 21.9723C34.7903 21.9534 34.7767 21.9372 34.7596 21.9256C34.7424 21.914 34.7223 21.9075 34.7018 21.9068C34.6812 21.9062 34.661 21.9115 34.6436 21.922C34.6261 21.9325 34.6121 21.9479 34.6032 21.9663C34.5119 22.1544 34.5152 22.3802 34.6133 22.6436C34.6845 22.8344 34.6288 22.8862 34.446 22.7988ZM33.6699 23.0367L33.4845 23.1979C33.4735 23.2073 33.4667 23.2206 33.4656 23.235C33.4645 23.2493 33.4691 23.2636 33.4784 23.2745L33.4945 23.2927C33.622 23.4393 33.7563 23.5693 33.8682 23.6544C33.98 23.7394 34.0602 23.7724 34.0912 23.7462L34.1275 23.714C34.1426 23.7007 34.145 23.6731 34.1348 23.633C34.1245 23.5929 34.1016 23.5409 34.0676 23.4801C34.0335 23.4192 33.9889 23.3507 33.9362 23.2784C33.8835 23.2062 33.8239 23.1316 33.7606 23.0589L33.7465 23.0427C33.7371 23.0318 33.7238 23.025 33.7095 23.0239C33.6951 23.0227 33.6809 23.0273 33.6699 23.0367ZM32.0714 24.7018L32.789 25.4315C32.802 25.4448 32.8176 25.4553 32.8348 25.4624C32.852 25.4696 32.8703 25.4731 32.8888 25.473C32.9073 25.4728 32.9255 25.4688 32.9423 25.4613C32.9591 25.4539 32.9742 25.443 32.9865 25.4295L33.0511 25.3609C33.0846 25.3246 33.086 25.287 33.0551 25.248L32.8475 24.9759C32.7964 24.9074 32.8065 24.8489 32.8777 24.8005C33.2123 24.5727 33.6417 24.1817 33.5268 23.7321C33.5184 23.6994 33.5027 23.6691 33.481 23.6432C33.4593 23.6174 33.432 23.5967 33.4013 23.5828C33.3705 23.5689 33.3371 23.562 33.3033 23.5628C33.2696 23.5635 33.2364 23.5718 33.2063 23.587C32.787 23.7953 32.406 24.1098 32.0633 24.5304C32.0149 24.5895 32.0176 24.6467 32.0714 24.7018ZM31.7206 25.2642C31.8308 25.1634 31.8886 25.0337 31.894 24.8751C31.8967 24.7542 31.8516 24.732 31.7589 24.8086C31.5761 24.9591 31.4061 25.1372 31.2489 25.3428C31.2086 25.3952 31.2113 25.4449 31.257 25.492L31.9685 26.2096C32.0263 26.2674 32.0895 26.2734 32.158 26.2277C32.3475 26.0987 32.5061 25.9354 32.6338 25.7379C32.6929 25.6452 32.6687 25.6116 32.5612 25.6371C32.4483 25.6653 32.3435 25.7171 32.2467 25.7923C32.1997 25.8286 32.152 25.8306 32.1036 25.7984C32.0485 25.7621 32.0223 25.7077 32.025 25.6351C32.029 25.5598 32.0653 25.5074 32.1338 25.4778C32.201 25.4469 32.2367 25.3932 32.2407 25.3166C32.2407 25.2897 32.2286 25.2722 32.2044 25.2642L32.1359 25.238C32.1134 25.23 32.0887 25.231 32.0669 25.2407C32.0451 25.2505 32.0279 25.2683 32.0189 25.2904C31.9733 25.3992 31.9027 25.4738 31.8073 25.5141C31.7361 25.545 31.6998 25.5215 31.6984 25.4436L31.6964 25.3146C31.6964 25.3051 31.6986 25.2957 31.7028 25.287C31.707 25.2783 31.7131 25.2705 31.7206 25.2642ZM31.3315 26.3043C31.3557 26.303 31.3779 26.2943 31.3981 26.2781C31.4451 26.2418 31.4639 26.1941 31.4545 26.135C31.4438 26.0611 31.4048 26.0154 31.3376 25.9979C31.2543 25.9751 31.2019 26.0053 31.1804 26.0886C31.1521 26.1921 31.0883 26.2365 30.9889 26.2217C30.8894 26.2056 30.8578 26.1498 30.8941 26.0544C30.9317 25.9603 30.9774 25.8642 31.0312 25.7661C31.1427 25.5592 31.1017 25.5229 30.9082 25.6573C30.7604 25.7594 30.6314 25.8844 30.5212 26.0322C30.4728 26.0954 30.4533 26.1659 30.4627 26.2439C30.4748 26.3299 30.5266 26.3836 30.6179 26.4051C30.6932 26.4226 30.7543 26.4609 30.8014 26.52L31.2146 27.026C31.2684 27.0919 31.3255 27.0945 31.386 27.0341L31.8375 26.5785C31.8832 26.5328 31.8906 26.4811 31.8597 26.4233C31.8422 26.391 31.816 26.3695 31.7811 26.3588C31.7206 26.3413 31.6675 26.3554 31.6218 26.4011C31.56 26.4616 31.4955 26.518 31.4283 26.5704C31.341 26.6403 31.2832 26.6215 31.2549 26.514C31.2482 26.4884 31.2415 26.4616 31.2348 26.4333C31.2146 26.3514 31.2469 26.3084 31.3315 26.3043ZM30.5696 27.1046C30.5682 27.067 30.5749 27.032 30.5897 26.9998C30.6233 26.9299 30.624 26.8594 30.5917 26.7881C30.2188 25.9697 29.2048 27.3062 29.0033 27.5884C28.9835 27.6158 28.9743 27.6493 28.9772 27.6827C28.9802 27.716 28.9952 27.747 29.0194 27.7698L29.7693 28.4955C29.8006 28.5261 29.8423 28.5438 29.886 28.5449C29.9298 28.546 29.9723 28.5305 30.0051 28.5016L30.0535 28.4552C30.1704 28.3517 30.1684 28.251 30.0475 28.1529C29.9628 28.0816 29.9252 27.9842 29.9346 27.8606C29.9372 27.8279 29.9466 27.7962 29.9621 27.7673C29.9776 27.7385 29.9988 27.7131 30.0246 27.6929C30.0503 27.6726 30.08 27.6579 30.1116 27.6496C30.1433 27.6414 30.1764 27.6398 30.2087 27.6449C30.5138 27.6946 30.753 27.663 30.9264 27.5501C31.093 27.4413 31.0823 27.3532 30.8941 27.286C30.8162 27.2578 30.7389 27.2356 30.6623 27.2195C30.6364 27.2137 30.6132 27.1992 30.5964 27.1784C30.5796 27.1575 30.5702 27.1316 30.5696 27.1046ZM28.7876 28.2718C28.8279 28.1481 28.8534 28.0252 28.8642 27.9029C28.879 27.747 28.8272 27.7208 28.709 27.8243L28.2493 28.2295C28.1418 28.3249 28.1365 28.4263 28.2332 28.5338C28.4818 28.8093 28.7399 29.0573 29.0073 29.2777C29.0866 29.3435 29.1706 29.3523 29.2593 29.3039C29.28 29.2925 29.298 29.2767 29.3121 29.2578C29.3262 29.2388 29.3361 29.217 29.341 29.1939C29.346 29.1708 29.346 29.1468 29.3409 29.1237C29.3358 29.1006 29.3259 29.0789 29.3117 29.06C29.1531 28.8517 29.0993 28.6461 29.1504 28.4431C29.18 28.3289 29.1397 28.2919 29.0295 28.3323L28.8984 28.3786C28.7882 28.4176 28.7513 28.382 28.7876 28.2718ZM44.0434 34.3092C43.3083 33.3335 42.4354 32.3935 41.4248 31.489C40.6695 30.8131 40.2167 30.0276 40.0661 29.1325C40.0626 29.1113 40.0543 29.0912 40.0419 29.0736C40.0296 29.0561 40.0134 29.0415 39.9946 29.031C39.9758 29.0206 39.9549 29.0145 39.9334 29.0132C39.912 29.0119 39.8905 29.0155 39.8706 29.0237C39.4795 29.1829 39.0905 29.1204 38.7438 28.9007C37.3891 28.04 36.2945 28.8382 35.2705 29.705C34.6872 30.1982 34.0422 30.5241 33.3353 30.6827C33.3239 30.6853 33.3132 30.6904 33.3039 30.6976C33.2946 30.7048 33.2869 30.7139 33.2814 30.7244C33.2759 30.7349 33.2726 30.7465 33.2718 30.7584C33.271 30.7703 33.2727 30.7823 33.2768 30.7936C33.7082 31.9077 34.1671 33.0648 34.6536 34.2648C34.8552 34.7621 35.12 35.2613 35.4479 35.7626C35.8833 36.4278 36.1998 37.1717 36.3973 37.9941C36.4175 38.0815 36.4733 38.1252 36.5646 38.1252L46.5531 38.1211C46.5773 38.1212 46.6012 38.1156 46.6228 38.1048C46.6445 38.094 46.6633 38.0782 46.6778 38.0588C46.6923 38.0394 46.7021 38.0169 46.7063 37.9931C46.7106 37.9693 46.7092 37.9448 46.7023 37.9216C46.3979 36.8935 45.7064 35.8957 45.2811 34.9442C45.2542 34.881 45.2361 34.8145 45.2267 34.7446C45.2078 34.6102 45.1239 34.539 44.9747 34.5309C44.7086 34.5162 44.4613 34.4832 44.2329 34.4322C44.1549 34.4147 44.0918 34.3737 44.0434 34.3092ZM43.7208 31.9366L43.6483 31.8862C43.5797 31.8364 43.5058 31.8284 43.4265 31.862C43.3123 31.9104 43.2525 32.0044 43.2471 32.1442C43.2444 32.2074 43.2659 32.2611 43.3116 32.3055C43.5428 32.5366 43.7726 32.7557 44.001 32.9626C44.0494 33.007 44.1072 33.0291 44.1744 33.0291C44.2537 33.0305 44.3169 32.9982 44.3639 32.9324C44.4082 32.8706 44.4116 32.8074 44.374 32.7429C44.3216 32.6515 44.2906 32.5588 44.2812 32.4647C44.2795 32.4467 44.2815 32.4286 44.287 32.4115C44.2925 32.3944 44.3015 32.3787 44.3133 32.3654C44.325 32.3521 44.3394 32.3415 44.3554 32.3343C44.3714 32.3271 44.3887 32.3235 44.4062 32.3236C44.5527 32.3236 44.6978 32.3263 44.8416 32.3317C44.9196 32.3344 44.9888 32.3075 45.0493 32.251C45.0936 32.2094 45.1171 32.159 45.1198 32.0998C45.1213 32.0687 45.1114 32.0381 45.0921 32.0139C45.0728 31.9898 45.0453 31.9737 45.015 31.9688L44.4586 31.87C44.3686 31.8553 44.3209 31.8028 44.3155 31.7128L44.2893 31.3177C44.2839 31.2384 44.2416 31.1954 44.1623 31.1887C44.079 31.1833 44.0151 31.2209 43.9708 31.3016C43.8781 31.4709 43.8404 31.6564 43.8579 31.8579C43.87 31.9843 43.8243 32.0105 43.7208 31.9366ZM53.2739 37.2281C53.2659 37.2217 53.2565 37.2174 53.2465 37.2153C53.2364 37.2133 53.2261 37.2137 53.2162 37.2164C53.2064 37.2192 53.1973 37.2242 53.1898 37.2312C53.1823 37.2381 53.1766 37.2467 53.1731 37.2563L52.8969 38.0405C52.8937 38.0503 52.8928 38.0607 52.8945 38.0709C52.8961 38.081 52.9002 38.0907 52.9063 38.099C52.9124 38.1073 52.9204 38.114 52.9296 38.1185C52.9389 38.1231 52.9491 38.1254 52.9594 38.1252L54.189 38.1191C54.2024 38.1191 54.2155 38.115 54.2264 38.1072C54.2373 38.0995 54.2455 38.0886 54.25 38.076C54.2544 38.0633 54.2548 38.0497 54.2511 38.0368C54.2474 38.0239 54.2398 38.0126 54.2294 38.0042L53.2739 37.2281ZM49.1696 64.4217C49.1266 64.4459 49.0816 64.4586 49.0346 64.46C49.0197 64.4604 49.0051 64.464 48.9917 64.4703C48.9783 64.4766 48.9663 64.4856 48.9565 64.4968C48.9466 64.5079 48.9392 64.521 48.9346 64.5351C48.93 64.5492 48.9284 64.5641 48.9297 64.5789C48.9432 64.716 49.0097 64.8315 49.1293 64.9256C49.2167 64.9942 49.2865 64.9794 49.339 64.8813L49.5869 64.4096C49.6178 64.3504 49.6279 64.2886 49.6171 64.2241L49.5264 63.6577C49.509 63.5515 49.474 63.5461 49.4216 63.6415C49.388 63.7047 49.3779 63.7732 49.3914 63.8472C49.4048 63.9238 49.3813 63.9856 49.3208 64.0326C49.2456 64.0917 49.218 64.169 49.2382 64.2644C49.2529 64.3343 49.2301 64.3867 49.1696 64.4217ZM49.2216 66.3385C49.2479 66.3496 49.2885 66.3261 49.3411 66.2692C49.3936 66.2124 49.457 66.1234 49.5277 66.0074C49.5985 65.8913 49.6751 65.7504 49.7532 65.5928C49.8314 65.4351 49.9095 65.2638 49.9831 65.0886C50.1319 64.7347 50.2534 64.3865 50.3209 64.1204C50.3885 63.8544 50.3965 63.6923 50.3433 63.67C50.317 63.6589 50.2764 63.6824 50.2238 63.7392C50.1713 63.7961 50.1078 63.885 50.0371 64.0011C49.9664 64.1172 49.8898 64.258 49.8117 64.4157C49.7335 64.5733 49.6554 64.7447 49.5817 64.9199C49.433 65.2737 49.3115 65.622 49.2439 65.888C49.1764 66.1541 49.1683 66.3161 49.2216 66.3385ZM48.8336 65.2583C48.8581 65.2337 48.8719 65.2004 48.8718 65.1656C48.8718 65.1309 48.8579 65.0976 48.8333 65.073L48.4506 64.6917C48.4384 64.6795 48.424 64.6699 48.4081 64.6634C48.3922 64.6568 48.3751 64.6534 48.3579 64.6535C48.3407 64.6535 48.3237 64.6569 48.3078 64.6635C48.2919 64.6701 48.2775 64.6798 48.2653 64.692L48.1913 64.7663C48.1668 64.7909 48.1531 64.8242 48.1531 64.859C48.1532 64.8937 48.167 64.927 48.1917 64.9516L48.5743 65.3329C48.5865 65.3451 48.601 65.3547 48.6169 65.3613C48.6328 65.3678 48.6498 65.3712 48.667 65.3711C48.6842 65.3711 48.7013 65.3677 48.7172 65.3611C48.7331 65.3545 48.7475 65.3448 48.7596 65.3326L48.8336 65.2583ZM46.7889 67.2821C46.7903 67.2243 46.8131 67.178 46.8575 67.143C46.8708 67.1324 46.8824 67.1194 46.8917 67.1047C46.9603 66.9945 46.9549 66.9267 46.8756 66.9011C46.8017 66.8769 46.7526 66.9018 46.7285 66.9757C46.7002 67.0644 46.6465 67.1195 46.5672 67.141C46.4503 67.1733 46.4039 67.1296 46.4281 67.01C46.4617 66.8474 46.5343 66.6834 46.6458 66.5181C46.6634 66.4925 46.6867 66.4714 46.7139 66.4565C46.7411 66.4416 46.7715 66.4334 46.8025 66.4324C46.8335 66.4314 46.8643 66.4377 46.8924 66.4509C46.9206 66.464 46.9452 66.4836 46.9643 66.5081L47.438 67.1148C47.473 67.1592 47.5173 67.1726 47.5711 67.1551C47.7216 67.1054 47.8177 67.0046 47.8593 66.8528C47.8795 66.7788 47.8519 66.7365 47.7767 66.7258C47.6907 66.715 47.6436 66.666 47.6356 66.5786C47.6332 66.5537 47.6368 66.5284 47.6463 66.5049C47.6558 66.4814 47.6707 66.4604 47.69 66.4435C47.9823 66.1875 48.4782 65.8045 48.2464 65.3631C48.2243 65.3214 48.1938 65.2847 48.1568 65.2554C48.1199 65.226 48.0772 65.2046 48.0316 65.1925C47.986 65.1804 47.9384 65.1778 47.8918 65.185C47.8451 65.1921 47.8004 65.2088 47.7606 65.234C47.3923 65.4692 47.0738 65.7716 46.8051 66.1412C46.5531 66.4899 46.1943 66.6169 45.9403 66.9697C45.9252 66.9903 45.9145 67.0139 45.9091 67.0389C45.9036 67.0639 45.9035 67.0897 45.9086 67.1148C45.9137 67.1398 45.924 67.1635 45.9388 67.1844C45.9537 67.2052 45.9727 67.2227 45.9947 67.2358C46.2688 67.3984 46.4946 67.6248 46.672 67.9151C46.7123 67.9809 46.7641 67.9924 46.8272 67.9494C47.0745 67.7827 47.26 67.5643 47.3836 67.2942C47.4387 67.1719 47.4091 67.1457 47.2949 67.2156L46.9925 67.4011C46.8514 67.4871 46.7836 67.4474 46.7889 67.2821ZM46.039 68.0985C46.0592 68.0031 46.0968 67.9117 46.1519 67.8244C46.1635 67.8057 46.1687 67.7838 46.1666 67.7619C46.1646 67.74 46.1554 67.7194 46.1406 67.7032C46.1258 67.687 46.1061 67.6761 46.0844 67.6721C46.0628 67.6682 46.0405 67.6714 46.0209 67.6813L45.7709 67.8083C45.7494 67.819 45.7279 67.8177 45.7064 67.8042C45.6836 67.7908 45.6728 67.7632 45.6742 67.7216C45.6742 67.7007 45.6813 67.6801 45.6943 67.6631C45.7521 67.5879 45.785 67.5066 45.7931 67.4192C45.8065 67.2727 45.7467 67.2311 45.6137 67.2942C45.4148 67.3869 45.2535 67.5442 45.1299 67.7659C45.1166 67.7894 45.1082 67.8152 45.1052 67.842C45.1021 67.8688 45.1045 67.8959 45.1123 67.9217C45.12 67.9475 45.1329 67.9714 45.1501 67.9921C45.1673 68.0128 45.1886 68.0298 45.2126 68.0421C45.4558 68.1671 45.646 68.3519 45.783 68.5965C45.7994 68.6256 45.8219 68.6508 45.849 68.6704C45.8761 68.69 45.9071 68.7034 45.9399 68.7097C45.9728 68.716 46.0066 68.7152 46.039 68.7071C46.0714 68.699 46.1017 68.684 46.1277 68.663C46.2809 68.538 46.4227 68.3962 46.5531 68.2376C46.5719 68.2148 46.5826 68.1892 46.5853 68.161C46.588 68.1288 46.5773 68.1012 46.5531 68.0784C46.4939 68.0246 46.4301 68.0192 46.3616 68.0622L46.1681 68.1872C46.0552 68.2598 46.0122 68.2302 46.039 68.0985Z" fill="#010101"/>
<path d="M34.4422 22.7993C34.625 22.8867 34.6808 22.8349 34.6095 22.6441C34.5114 22.3807 34.5081 22.1549 34.5995 21.9668C34.6083 21.9484 34.6223 21.933 34.6398 21.9225C34.6573 21.912 34.6774 21.9067 34.698 21.9074C34.7185 21.908 34.7386 21.9145 34.7558 21.9261C34.773 21.9377 34.7866 21.9539 34.795 21.9728C34.8461 22.0911 34.8682 22.2161 34.8615 22.3478C34.8535 22.5171 34.9334 22.5937 35.1014 22.5776C35.2667 22.5628 35.4186 22.5957 35.557 22.6764C35.6564 22.7341 35.6544 22.7892 35.5509 22.8417C35.5187 22.8578 35.4851 22.8712 35.4501 22.882C35.4152 22.8954 35.3803 22.8988 35.3453 22.8921C35.176 22.8598 35.01 22.845 34.8474 22.8477C34.7318 22.8504 34.6976 22.9042 34.7446 23.009L34.8998 23.3557C34.9495 23.4672 34.9133 23.525 34.791 23.5291C34.6727 23.5331 34.5921 23.4807 34.5491 23.3718C34.4442 23.1071 34.2581 22.9525 33.9907 22.9082C33.9154 22.8961 33.8959 22.8571 33.9322 22.7913C33.9766 22.7079 34.0404 22.6468 34.1237 22.6078C34.2097 22.5675 34.2736 22.5897 34.3152 22.6743C34.3421 22.7294 34.3844 22.7711 34.4422 22.7993Z" fill="#010101"/>
<path d="M33.6722 23.0369C33.6831 23.0275 33.6973 23.0229 33.7117 23.0241C33.7261 23.0252 33.7394 23.032 33.7488 23.0429L33.7629 23.059C33.8261 23.1317 33.8858 23.2064 33.9384 23.2786C33.9911 23.3509 34.0358 23.4194 34.0698 23.4802C34.1039 23.5411 34.1267 23.5931 34.137 23.6332C34.1473 23.6733 34.1448 23.7009 34.1298 23.7142L34.0935 23.7464C34.0625 23.7726 33.9823 23.7396 33.8704 23.6546C33.7586 23.5695 33.6242 23.4395 33.4968 23.2929L33.4807 23.2747C33.4713 23.2638 33.4667 23.2495 33.4679 23.2352C33.469 23.2208 33.4758 23.2075 33.4867 23.1981L33.6722 23.0369Z" fill="#010101"/>
<path d="M32.7845 25.4304L32.0669 24.7007C32.0131 24.6456 32.0104 24.5885 32.0588 24.5293C32.4015 24.1087 32.7825 23.7942 33.2018 23.5859C33.2319 23.5707 33.265 23.5624 33.2988 23.5617C33.3325 23.561 33.366 23.5678 33.3968 23.5817C33.4275 23.5957 33.4548 23.6163 33.4765 23.6421C33.4982 23.668 33.5139 23.6984 33.5223 23.7311C33.6372 24.1806 33.2078 24.5717 32.8732 24.7995C32.802 24.8478 32.7919 24.9063 32.8429 24.9748L33.0506 25.247C33.0815 25.2859 33.0801 25.3236 33.0465 25.3599L32.982 25.4284C32.9697 25.4419 32.9546 25.4528 32.9378 25.4603C32.921 25.4677 32.9028 25.4717 32.8843 25.4719C32.8658 25.4721 32.8475 25.4685 32.8303 25.4614C32.8131 25.4542 32.7975 25.4437 32.7845 25.4304ZM32.4257 24.5717L32.6091 24.741C32.617 24.7484 32.6264 24.7542 32.6365 24.758C32.6467 24.7618 32.6575 24.7636 32.6684 24.7632C32.6793 24.7629 32.6899 24.7603 32.6998 24.7558C32.7097 24.7513 32.7186 24.7449 32.726 24.737L32.5729 24.9707C32.6929 24.8415 33.1533 24.2493 33.2141 24.1353C33.2749 24.0212 33.2901 23.9389 33.2562 23.9064L33.2118 23.8661C33.1951 23.8498 33.1667 23.8464 33.1282 23.856C33.0897 23.8656 33.3327 23.6081 33.2784 23.6421C33.2241 23.6762 33.8442 24.2119 33.7824 24.2652C33.7205 24.3185 32.6327 24.9063 32.5729 24.9707L32.3605 24.5455C32.353 24.5534 32.4084 24.472 32.4046 24.4822C32.4008 24.4924 32.399 24.5032 32.3994 24.514C32.3998 24.5249 32.4023 24.5356 32.4068 24.5455C32.4113 24.5554 32.4177 24.5643 32.4257 24.5717Z" fill="#010101"/>
<path d="M31.7157 25.264C31.7081 25.2704 31.7021 25.2782 31.6979 25.2869C31.6937 25.2956 31.6915 25.305 31.6915 25.3144L31.6935 25.4434C31.6949 25.5214 31.7311 25.5449 31.8024 25.514C31.8978 25.4737 31.9683 25.3991 32.014 25.2902C32.023 25.2681 32.0402 25.2503 32.062 25.2406C32.0838 25.2308 32.1085 25.2298 32.1309 25.2378L32.1995 25.264C32.2237 25.2721 32.2358 25.2895 32.2358 25.3164C32.2317 25.393 32.1961 25.4468 32.1289 25.4777C32.0604 25.5073 32.0241 25.5597 32.0201 25.6349C32.0174 25.7075 32.0436 25.7619 32.0987 25.7982C32.1471 25.8305 32.1948 25.8285 32.2418 25.7922C32.3386 25.7169 32.4434 25.6652 32.5563 25.6369C32.6638 25.6114 32.688 25.645 32.6289 25.7377C32.5012 25.9353 32.3426 26.0986 32.1531 26.2276C32.0846 26.2733 32.0214 26.2672 31.9636 26.2094L31.252 25.4918C31.2064 25.4448 31.2037 25.395 31.244 25.3426C31.4012 25.137 31.5712 24.959 31.754 24.8084C31.8467 24.7318 31.8917 24.754 31.8891 24.875C31.8837 25.0335 31.8259 25.1632 31.7157 25.264Z" fill="#010101"/>
<path d="M31.2349 26.4333C31.2416 26.4615 31.2483 26.4884 31.255 26.5139C31.2832 26.6214 31.341 26.6402 31.4284 26.5704C31.4956 26.5179 31.5601 26.4615 31.6219 26.401C31.6676 26.3553 31.7207 26.3412 31.7812 26.3587C31.8161 26.3695 31.8423 26.391 31.8598 26.4232C31.8907 26.481 31.8833 26.5327 31.8376 26.5784L31.3861 27.034C31.3256 27.0945 31.2685 27.0918 31.2147 27.0259L30.8015 26.52C30.7544 26.4608 30.6933 26.4225 30.618 26.4051C30.5266 26.3836 30.4749 26.3298 30.4628 26.2438C30.4534 26.1659 30.4729 26.0953 30.5213 26.0321C30.6315 25.8843 30.7161 25.6787 30.864 25.5766C31.0575 25.4422 31.2779 25.4704 31.1663 25.6773C31.1126 25.7755 30.9318 25.9602 30.8942 26.0543C30.8579 26.1497 30.8895 26.2055 30.9889 26.2216C31.0884 26.2364 31.1522 26.1921 31.1804 26.0886C31.2019 26.0053 31.2544 25.975 31.3377 25.9979C31.4049 26.0153 31.4438 26.061 31.4546 26.1349C31.464 26.1941 31.4452 26.2418 31.3982 26.2781C31.378 26.2942 31.3558 26.3029 31.3316 26.3043C31.247 26.3083 31.2147 26.3513 31.2349 26.4333Z" fill="#010101"/>
<path d="M30.6626 27.2198C30.7392 27.2359 30.8165 27.2581 30.8945 27.2863C31.0826 27.3535 31.0933 27.4415 30.9267 27.5504C30.7533 27.6633 30.5141 27.6948 30.2091 27.6451C30.1767 27.64 30.1437 27.6416 30.112 27.6499C30.0803 27.6582 30.0507 27.6729 30.0249 27.6931C29.9992 27.7134 29.9779 27.7387 29.9624 27.7676C29.9469 27.7964 29.9376 27.8282 29.9349 27.8608C29.9255 27.9844 29.9631 28.0819 30.0478 28.1531C30.1688 28.2512 30.1708 28.352 30.0539 28.4555L30.0055 28.5018C29.9727 28.5308 29.9301 28.5463 29.8864 28.5451C29.8426 28.544 29.8009 28.5264 29.7696 28.4958L29.0197 27.7701C28.9955 27.7473 28.9805 27.7163 28.9776 27.6829C28.9746 27.6495 28.9839 27.616 29.0036 27.5887C29.2052 27.3065 30.2192 25.97 30.5921 26.7884C30.6243 26.8596 30.6237 26.9302 30.5901 27.0001C30.5753 27.0323 30.5686 27.0672 30.5699 27.1049C30.5705 27.1318 30.58 27.1578 30.5968 27.1786C30.6136 27.1994 30.6368 27.2139 30.6626 27.2198ZM30.222 26.9581C30.1911 26.927 30.7493 27.3484 30.6626 27.391C30.5759 27.4336 30.0848 27.3282 29.9931 27.4195C29.9571 27.5926 29.1507 28.0966 29.5496 27.4631C29.5067 27.5496 29.5 27.6157 29.5309 27.6468C29.5619 27.6778 29.6279 27.6713 29.7146 27.6287C29.8013 27.5861 29.9015 27.5108 29.9931 27.4195C30.0848 27.3282 30.1604 27.2283 30.2033 27.1417C30.2462 27.0552 30.253 26.9891 30.222 26.9581Z" fill="#010101"/>
<path d="M28.9022 28.3787L29.0332 28.3324C29.1434 28.2921 29.1838 28.329 29.1542 28.4432C29.1031 28.6462 29.1569 28.8518 29.3155 29.0601C29.3297 29.079 29.3396 29.1007 29.3447 29.1238C29.3497 29.1469 29.3498 29.1709 29.3448 29.194C29.3399 29.2171 29.33 29.2389 29.3159 29.2579C29.3018 29.2768 29.2838 29.2926 29.2631 29.304C29.1744 29.3524 29.0904 29.3436 29.0111 29.2778C28.7436 29.0574 28.4856 28.8094 28.237 28.534C28.1402 28.4264 28.1456 28.325 28.2531 28.2296L28.7127 27.8244C28.831 27.7209 28.8827 27.7471 28.8679 27.903C28.8572 28.0253 28.8317 28.1483 28.7913 28.2719C28.7551 28.3821 28.792 28.4177 28.9022 28.3787Z" fill="#010101"/>
<path d="M43.8509 31.8568C43.8335 31.6553 43.8711 31.4698 43.9638 31.3005C44.0082 31.2198 44.072 31.1822 44.1553 31.1876C44.2346 31.1943 44.277 31.2373 44.2823 31.3166L44.3085 31.7117C44.3139 31.8017 44.3616 31.8542 44.4517 31.8689L45.008 31.9677C45.0383 31.9726 45.0658 31.9887 45.0851 32.0128C45.1044 32.037 45.1143 32.0676 45.1129 32.0987C45.1102 32.1579 45.0867 32.2083 45.0423 32.2499C44.9818 32.3064 44.9126 32.3333 44.8347 32.3306C44.6909 32.3252 44.5457 32.3225 44.3993 32.3225C44.3818 32.3224 44.3645 32.326 44.3484 32.3332C44.3324 32.3404 44.3181 32.351 44.3063 32.3643C44.2945 32.3776 44.2856 32.3933 44.2801 32.4104C44.2746 32.4275 44.2726 32.4456 44.2743 32.4636C44.2837 32.5577 44.3146 32.6504 44.367 32.7418C44.4046 32.8063 44.4013 32.8695 44.3569 32.9313C44.3099 32.9971 44.2467 33.0294 44.1674 33.028C44.1002 33.028 44.0425 33.0059 43.9941 32.9615C43.7656 32.7546 43.5358 32.5355 43.3047 32.3044C43.259 32.26 43.2375 32.2063 43.2402 32.1431C43.2455 32.0033 43.3053 31.9093 43.4196 31.8609C43.4989 31.8273 43.5728 31.8353 43.6413 31.8851L43.7139 31.9355C43.8174 32.0094 43.863 31.9832 43.8509 31.8568Z" fill="black"/>
<path d="M49.2415 64.2637C49.2213 64.1683 49.2489 64.0911 49.3241 64.0319C49.3846 63.9849 49.4081 63.9231 49.3947 63.8465C49.3812 63.7726 49.3913 63.704 49.4249 63.6408C49.4773 63.5454 49.5123 63.5508 49.5297 63.657L49.6205 64.2234C49.6312 64.2879 49.6211 64.3497 49.5902 64.4089L49.3423 64.8806C49.2899 64.9787 49.22 64.9935 49.1326 64.9249C49.013 64.8309 48.9465 64.7153 48.9331 64.5782C48.9317 64.5634 48.9333 64.5485 48.9379 64.5344C48.9425 64.5203 48.95 64.5072 48.9598 64.4961C48.9696 64.485 48.9816 64.4759 48.995 64.4696C49.0085 64.4633 49.023 64.4598 49.0379 64.4593C49.0849 64.4579 49.1299 64.4452 49.1729 64.421C49.2334 64.386 49.2563 64.3336 49.2415 64.2637Z" fill="black"/>
<path d="M48.8361 65.072L48.4535 64.6907C48.4022 64.6396 48.3192 64.6397 48.2682 64.691L48.1942 64.7652C48.1431 64.8165 48.1432 64.8995 48.1945 64.9505L48.5772 65.3319C48.6284 65.383 48.7114 65.3828 48.7625 65.3316L48.8365 65.2573C48.8875 65.206 48.8874 65.1231 48.8361 65.072Z" fill="black"/>
<path d="M46.7916 67.2814C46.7862 67.4467 46.8541 67.4863 46.9952 67.4003L47.2976 67.2149C47.4118 67.145 47.4414 67.1712 47.3863 67.2935C47.2626 67.5636 47.0772 67.782 46.8299 67.9486C46.7667 67.9916 46.715 67.9802 46.6747 67.9144C46.4973 67.6241 46.2715 67.3977 45.9974 67.235C45.9754 67.222 45.9563 67.2045 45.9415 67.1836C45.9267 67.1628 45.9164 67.1391 45.9113 67.114C45.9061 67.089 45.9063 67.0631 45.9118 67.0381C45.9172 67.0132 45.9278 66.9896 45.9429 66.9689C46.1969 66.6162 46.5557 66.4892 46.8077 66.1404C47.0765 65.7709 47.395 65.4685 47.7632 65.2333C47.8031 65.2081 47.8478 65.1914 47.8944 65.1843C47.9411 65.1771 47.9887 65.1797 48.0343 65.1918C48.0799 65.2039 48.1225 65.2253 48.1595 65.2546C48.1964 65.284 48.2269 65.3207 48.249 65.3623C48.4809 65.8038 47.985 66.1868 47.6927 66.4428C47.6734 66.4597 47.6584 66.4807 47.649 66.5042C47.6395 66.5277 47.6358 66.5529 47.6382 66.5779C47.6463 66.6652 47.6933 66.7143 47.7794 66.725C47.8546 66.7358 47.8822 66.7781 47.862 66.852C47.8203 67.0039 47.7243 67.1047 47.5737 67.1544C47.52 67.1719 47.4756 67.1584 47.4407 67.1141L46.967 66.5073C46.9478 66.4829 46.9232 66.4633 46.8951 66.4502C46.867 66.437 46.8362 66.4307 46.8052 66.4316C46.7742 66.4326 46.7438 66.4409 46.7166 66.4558C46.6894 66.4707 46.666 66.4918 46.6485 66.5174C46.5369 66.6827 46.4644 66.8467 46.4308 67.0093C46.4066 67.1289 46.4529 67.1725 46.5699 67.1403C46.6491 67.1188 46.7029 67.0637 46.7311 66.975C46.7553 66.9011 46.8044 66.8762 46.8783 66.9004C46.9576 66.9259 46.9629 66.9938 46.8944 67.104C46.8851 67.1187 46.8735 67.1317 46.8601 67.1423C46.8158 67.1772 46.7929 67.2236 46.7916 67.2814ZM47.2734 66.3602L47.3238 66.3985C47.3416 66.412 47.3638 66.418 47.3857 66.4154C47.4076 66.4128 47.4274 66.4016 47.4407 66.3844L47.1948 66.598L47.1333 65.7507L47.4972 65.5901C47.641 65.4073 47.9856 65.5787 47.7612 65.6405C47.5663 65.6929 47.3883 65.8528 47.227 66.1203C47.1706 66.2144 47.186 66.2943 47.2734 66.3602Z" fill="black"/>
<path d="M46.1719 68.1872L46.3654 68.0622C46.4339 68.0192 46.4978 68.0245 46.5569 68.0783C46.5811 68.1011 46.5918 68.1287 46.5891 68.1609C46.5864 68.1892 46.5757 68.2147 46.5569 68.2375C46.4265 68.3961 46.2847 68.5379 46.1315 68.6629C46.1055 68.6839 46.0752 68.6989 46.0428 68.707C46.0104 68.7151 45.9766 68.716 45.9437 68.7096C45.9109 68.7033 45.8799 68.6899 45.8528 68.6703C45.8257 68.6508 45.8032 68.6255 45.7868 68.5964C45.6498 68.3518 45.4596 68.167 45.2164 68.042C45.1924 68.0297 45.1711 68.0128 45.1539 67.9921C45.1367 67.9714 45.1238 67.9474 45.1161 67.9216C45.1084 67.8958 45.1059 67.8687 45.109 67.8419C45.112 67.8151 45.1204 67.7893 45.1337 67.7658C45.2573 67.5441 45.4186 67.3869 45.6175 67.2941C45.7505 67.231 45.8104 67.2726 45.7969 67.4191C45.7888 67.5065 45.7559 67.5878 45.6981 67.663C45.6851 67.6801 45.678 67.7006 45.678 67.7215C45.6766 67.7632 45.6874 67.7907 45.7102 67.8042C45.7317 67.8176 45.7532 67.8189 45.7747 67.8082L46.0247 67.6812C46.0443 67.6713 46.0666 67.6681 46.0882 67.672C46.1099 67.676 46.1296 67.6869 46.1444 67.7031C46.1593 67.7193 46.1684 67.7399 46.1704 67.7618C46.1725 67.7837 46.1673 67.8056 46.1557 67.8243C46.1006 67.9117 46.063 68.003 46.0428 68.0985C46.016 68.2302 46.059 68.2597 46.1719 68.1872Z" fill="black"/>
<path d="M44.7858 69.2228C44.728 69.1193 44.6998 69.0044 44.7011 68.8781L44.7797 68.8357C44.8563 68.7927 44.8772 68.7316 44.8422 68.6523C44.7898 68.53 44.7885 68.4138 44.8382 68.3036C44.8758 68.2189 44.9397 68.1866 45.0297 68.2068C45.0982 68.2216 45.1607 68.2471 45.2172 68.2834C45.3139 68.3466 45.3482 68.4339 45.32 68.5455C45.2595 68.7833 45.3583 68.907 45.6163 68.9164C45.7534 68.9217 45.7856 68.9829 45.7131 69.0998C45.6029 69.2772 45.4477 69.3632 45.2474 69.3578C45.1816 69.3565 45.1204 69.337 45.064 69.2994C44.9807 69.2416 44.8879 69.2161 44.7858 69.2228Z" fill="black"/>
<path d="M7.452 106V96.116H9.65V106H7.452ZM13.57 106V96.116H15.782V106H13.57ZM8.768 101.87V99.966H14.298V101.87H8.768ZM17.4826 106V99.196H19.6246V106H17.4826ZM18.5606 98.258C18.2246 98.258 17.9446 98.146 17.7206 97.922C17.5059 97.6887 17.3986 97.4087 17.3986 97.082C17.3986 96.746 17.5059 96.466 17.7206 96.242C17.9446 96.018 18.2246 95.906 18.5606 95.906C18.8966 95.906 19.1719 96.018 19.3866 96.242C19.6012 96.466 19.7086 96.746 19.7086 97.082C19.7086 97.4087 19.6012 97.6887 19.3866 97.922C19.1719 98.146 18.8966 98.258 18.5606 98.258ZM24.017 109.052C23.2703 109.052 22.6123 108.921 22.043 108.66C21.483 108.408 21.0396 108.049 20.713 107.582L22.029 106.266C22.2716 106.555 22.5423 106.775 22.841 106.924C23.149 107.073 23.5176 107.148 23.947 107.148C24.479 107.148 24.8943 107.017 25.193 106.756C25.501 106.495 25.655 106.126 25.655 105.65V103.914L26.019 102.43L25.697 100.946V99.196H27.797V105.594C27.797 106.294 27.6336 106.901 27.307 107.414C26.9803 107.927 26.5323 108.329 25.963 108.618C25.3936 108.907 24.745 109.052 24.017 109.052ZM23.919 105.79C23.2936 105.79 22.7383 105.641 22.253 105.342C21.7676 105.043 21.385 104.637 21.105 104.124C20.825 103.611 20.685 103.041 20.685 102.416C20.685 101.781 20.825 101.212 21.105 100.708C21.385 100.195 21.7676 99.7933 22.253 99.504C22.7383 99.2053 23.2936 99.056 23.919 99.056C24.3856 99.056 24.801 99.1447 25.165 99.322C25.5383 99.49 25.837 99.7327 26.061 100.05C26.2943 100.358 26.425 100.717 26.453 101.128V103.718C26.425 104.119 26.2943 104.479 26.061 104.796C25.837 105.104 25.5383 105.347 25.165 105.524C24.7916 105.701 24.3763 105.79 23.919 105.79ZM24.325 103.886C24.6236 103.886 24.8803 103.821 25.095 103.69C25.319 103.559 25.487 103.387 25.599 103.172C25.7203 102.948 25.781 102.696 25.781 102.416C25.781 102.136 25.7203 101.884 25.599 101.66C25.487 101.436 25.319 101.259 25.095 101.128C24.8803 100.997 24.6236 100.932 24.325 100.932C24.0356 100.932 23.779 100.997 23.555 101.128C23.331 101.259 23.1583 101.436 23.037 101.66C22.9156 101.884 22.855 102.136 22.855 102.416C22.855 102.677 22.9156 102.925 23.037 103.158C23.1583 103.382 23.3263 103.559 23.541 103.69C23.765 103.821 24.0263 103.886 24.325 103.886ZM33.8027 106V102.122C33.8027 101.767 33.6907 101.483 33.4667 101.268C33.2521 101.044 32.9767 100.932 32.6407 100.932C32.4074 100.932 32.2021 100.983 32.0247 101.086C31.8474 101.179 31.7074 101.319 31.6047 101.506C31.5021 101.683 31.4507 101.889 31.4507 102.122L30.6247 101.716C30.6247 101.184 30.7367 100.717 30.9607 100.316C31.1847 99.9147 31.4974 99.6067 31.8987 99.392C32.3001 99.168 32.7621 99.056 33.2847 99.056C33.8167 99.056 34.2834 99.168 34.6847 99.392C35.0861 99.6067 35.3941 99.91 35.6087 100.302C35.8327 100.685 35.9447 101.133 35.9447 101.646V106H33.8027ZM29.3087 106V95.836H31.4507V106H29.3087ZM41.844 106.154C41.2187 106.154 40.6727 106.042 40.206 105.818C39.7487 105.585 39.3567 105.263 39.03 104.852L40.5 103.438C40.668 103.671 40.864 103.849 41.088 103.97C41.3213 104.091 41.5827 104.152 41.872 104.152C42.152 104.152 42.3947 104.096 42.6 103.984C42.8053 103.863 42.9687 103.695 43.09 103.48C43.2113 103.256 43.272 102.981 43.272 102.654V96.116H45.484V102.528C45.484 103.265 45.3347 103.905 45.036 104.446C44.7373 104.987 44.3173 105.407 43.776 105.706C43.2347 106.005 42.5907 106.154 41.844 106.154ZM50.0652 106.154C49.4398 106.154 48.8845 106.028 48.3992 105.776C47.9232 105.515 47.5498 105.16 47.2792 104.712C47.0085 104.255 46.8732 103.732 46.8732 103.144V99.196H49.0152V103.116C49.0152 103.349 49.0525 103.55 49.1272 103.718C49.2112 103.886 49.3325 104.017 49.4912 104.11C49.6498 104.203 49.8412 104.25 50.0652 104.25C50.3825 104.25 50.6345 104.152 50.8212 103.956C51.0078 103.751 51.1012 103.471 51.1012 103.116V99.196H53.2432V103.13C53.2432 103.727 53.1078 104.255 52.8372 104.712C52.5665 105.16 52.1932 105.515 51.7172 105.776C51.2412 106.028 50.6905 106.154 50.0652 106.154ZM54.588 106V99.196H56.73V106H54.588ZM58.942 106V102.024C58.942 101.679 58.8347 101.413 58.62 101.226C58.4147 101.03 58.158 100.932 57.85 100.932C57.6354 100.932 57.444 100.979 57.276 101.072C57.108 101.156 56.9727 101.277 56.87 101.436C56.7767 101.595 56.73 101.791 56.73 102.024L55.904 101.66C55.904 101.119 56.0207 100.657 56.254 100.274C56.4874 99.882 56.8047 99.5833 57.206 99.378C57.6074 99.1633 58.06 99.056 58.564 99.056C59.04 99.056 59.4647 99.1633 59.838 99.378C60.2207 99.5927 60.524 99.8913 60.748 100.274C60.972 100.657 61.084 101.114 61.084 101.646V106H58.942ZM63.296 106V102.024C63.296 101.679 63.1887 101.413 62.974 101.226C62.7687 101.03 62.512 100.932 62.204 100.932C61.9894 100.932 61.798 100.979 61.63 101.072C61.462 101.156 61.3267 101.277 61.224 101.436C61.1307 101.595 61.084 101.791 61.084 102.024L59.852 101.856C59.8707 101.277 60.006 100.783 60.258 100.372C60.5194 99.952 60.86 99.63 61.28 99.406C61.7094 99.1727 62.19 99.056 62.722 99.056C63.2447 99.056 63.7067 99.168 64.108 99.392C64.5187 99.6067 64.8407 99.9193 65.074 100.33C65.3167 100.731 65.438 101.217 65.438 101.786V106H63.296ZM70.7307 106.14C70.2734 106.14 69.8534 106.051 69.4707 105.874C69.088 105.697 68.7754 105.454 68.5327 105.146C68.29 104.829 68.15 104.469 68.1127 104.068V101.198C68.15 100.797 68.29 100.433 68.5327 100.106C68.7754 99.7793 69.088 99.5227 69.4707 99.336C69.8534 99.1493 70.2734 99.056 70.7307 99.056C71.3747 99.056 71.944 99.21 72.4387 99.518C72.9427 99.826 73.3347 100.246 73.6147 100.778C73.904 101.31 74.0487 101.917 74.0487 102.598C74.0487 103.279 73.904 103.886 73.6147 104.418C73.3347 104.95 72.9427 105.37 72.4387 105.678C71.944 105.986 71.3747 106.14 70.7307 106.14ZM70.3387 104.208C70.6467 104.208 70.9127 104.138 71.1367 103.998C71.37 103.858 71.552 103.667 71.6827 103.424C71.8134 103.181 71.8787 102.906 71.8787 102.598C71.8787 102.281 71.8134 102.001 71.6827 101.758C71.552 101.515 71.37 101.329 71.1367 101.198C70.9127 101.058 70.6514 100.988 70.3527 100.988C70.054 100.988 69.788 101.058 69.5547 101.198C69.3307 101.329 69.1534 101.515 69.0227 101.758C68.892 102.001 68.8267 102.281 68.8267 102.598C68.8267 102.906 68.8874 103.181 69.0087 103.424C69.1394 103.667 69.3214 103.858 69.5547 103.998C69.788 104.138 70.0494 104.208 70.3387 104.208ZM66.8107 108.87V99.196H68.9527V100.946L68.6027 102.598L68.9247 104.25V108.87H66.8107Z" fill="white"/>
</svg>
