<svg width="103" height="110" viewBox="0 0 103 110" fill="none" xmlns="http://www.w3.org/2000/svg">
<circle cx="51.5" cy="41" r="41" fill="#F1F1F0"/>
<path fill-rule="evenodd" clip-rule="evenodd" d="M53.6507 30.946C53.4808 31.1158 53.311 31.2856 53.1411 31.4555C51.758 30.6219 50.3425 29.8293 48.8951 29.0777C48.9865 30.9083 48.5619 32.6067 47.6213 34.1729C46.7123 34.9815 45.6649 35.5476 44.4793 35.8713C44.3482 38.343 44.1218 40.8057 43.7999 43.2594C43.8565 43.4009 43.9132 43.5425 43.9698 43.684C45.2149 44.3162 46.517 44.7973 47.8761 45.1277C48.7657 45.8415 49.6998 46.4925 50.6785 47.0808C50.7967 47.829 50.7401 48.5651 50.5086 49.2887C49.4602 50.9319 48.4977 52.6304 47.6213 54.384C47.2743 55.7564 47.7555 56.6906 49.065 57.1863C49.5745 57.2429 50.084 57.2996 50.5935 57.3562C51.339 57.488 51.4521 57.8276 50.9332 58.3752C49.6397 58.6797 48.3377 58.7081 47.0269 58.4601C46.3263 58.8508 45.5904 58.9075 44.819 58.63C44.6332 57.3854 44.9163 56.2814 45.6682 55.3181C46.0153 53.6543 46.3266 51.9841 46.6023 50.3078C46.782 49.6653 47.0933 49.099 47.5364 48.6094C47.0201 48.4608 46.5106 48.2909 46.0078 48.0999C45.821 48.6503 45.453 48.99 44.9039 49.1189C43.999 48.9773 43.1214 48.7509 42.2714 48.4395C41.4254 50.844 40.0667 52.9104 38.1952 54.6387C36.5671 55.4256 35.1518 56.5012 33.9492 57.8657C31.4649 59.104 29.8514 61.0572 29.1087 63.7252C29.0522 64.4046 28.9954 65.0839 28.9389 65.7633C28.7018 66.1075 28.4188 66.1641 28.0897 65.9331C27.2422 63.9845 26.9025 61.9464 27.0706 59.8189C27.9609 59.6966 28.8385 59.4984 29.7032 59.2244C30.6721 57.6852 31.8044 56.2697 33.1 54.9784C34.0713 54.592 34.9487 54.0541 35.7325 53.3649C35.9701 52.8335 36.2531 52.324 36.5817 51.8364C36.74 50.6256 37.1364 49.4934 37.7706 48.4395C37.3212 46.3221 37.7174 44.3972 38.9595 42.665C39.1996 41.4277 39.2562 40.1822 39.1293 38.9285C38.0583 35.5532 37.7186 32.0997 38.1103 28.5682C37.4097 27.5422 37.0134 26.4099 36.9214 25.1714C36.527 23.928 35.876 22.8524 34.9682 21.9444C31.4727 20.3099 28.0193 18.5831 24.6079 16.7643C24.4205 16.479 24.4771 16.2242 24.7778 16C28.1325 17.7906 31.5293 19.489 34.9682 21.0952C35.3782 20.521 35.8877 20.4361 36.4968 20.8405C37.176 21.126 37.5157 21.6355 37.5158 22.369C40.8313 23.9983 44.1148 25.6683 47.3666 27.3793C47.4799 27.2095 47.593 27.0396 47.7063 26.8698C48.5077 27.105 49.0173 27.6145 49.2348 28.3984C50.7729 29.1664 52.2449 30.0156 53.6507 30.946Z" fill="#1B1B1B"/>
<path fill-rule="evenodd" clip-rule="evenodd" d="M38.025 23.4729C41.104 24.9841 44.1612 26.5411 47.1964 28.1435C47.415 28.383 47.6132 28.6378 47.7908 28.9078C47.7309 29.6004 47.561 30.2798 47.2813 30.9459C46.7728 31.5098 46.3482 32.1326 46.0075 32.8141C45.2091 33.0234 44.4732 33.3631 43.7996 33.8332C43.3945 33.8836 42.9983 33.7987 42.6107 33.5784C42.7663 33.5149 42.9079 33.43 43.0353 33.3237C43.0757 32.6915 43.1606 32.0687 43.2901 31.4554C42.7466 30.8192 42.3785 30.0833 42.1861 29.2475C41.5775 28.9435 40.9265 28.8302 40.2329 28.9078C40.1546 27.9222 39.9566 26.9597 39.6385 26.0205C39.097 25.1618 38.5591 24.3126 38.025 23.4729Z" fill="#F1F1F0"/>
<path fill-rule="evenodd" clip-rule="evenodd" d="M53.6502 30.9458C66.3738 38.678 77.4134 48.3871 86.7691 60.0735C86.605 60.3585 86.3786 60.4718 86.0897 60.4132C76.7412 48.8239 65.7583 39.1714 53.1407 31.4554C53.3105 31.2855 53.4804 31.1157 53.6502 30.9458Z" fill="#202020"/>
<path d="M2.632 102.402V100.694H4.76C5.03067 100.694 5.278 100.638 5.502 100.526C5.726 100.414 5.90333 100.251 6.034 100.036C6.16467 99.8213 6.23 99.56 6.23 99.252C6.23 98.9533 6.16467 98.6967 6.034 98.482C5.90333 98.2673 5.726 98.104 5.502 97.992C5.278 97.88 5.03067 97.824 4.76 97.824H2.632V96.116H5.082C5.70733 96.116 6.272 96.242 6.776 96.494C7.28 96.746 7.67667 97.11 7.966 97.586C8.26467 98.0527 8.414 98.608 8.414 99.252C8.414 99.896 8.26467 100.456 7.966 100.932C7.67667 101.399 7.28 101.763 6.776 102.024C6.272 102.276 5.70733 102.402 5.082 102.402H2.632ZM0.952 106V96.116H3.15V106H0.952ZM12.5359 106.154C11.8359 106.154 11.2012 106 10.6319 105.692C10.0719 105.375 9.62857 104.945 9.30191 104.404C8.97524 103.863 8.81191 103.256 8.81191 102.584C8.81191 101.912 8.97524 101.31 9.30191 100.778C9.62857 100.246 10.0719 99.826 10.6319 99.518C11.1919 99.2007 11.8266 99.042 12.5359 99.042C13.2452 99.042 13.8799 99.196 14.4399 99.504C14.9999 99.812 15.4432 100.237 15.7699 100.778C16.0966 101.31 16.2599 101.912 16.2599 102.584C16.2599 103.256 16.0966 103.863 15.7699 104.404C15.4432 104.945 14.9999 105.375 14.4399 105.692C13.8799 106 13.2452 106.154 12.5359 106.154ZM12.5359 104.208C12.8439 104.208 13.1146 104.143 13.3479 104.012C13.5812 103.872 13.7586 103.681 13.8799 103.438C14.0106 103.186 14.0759 102.901 14.0759 102.584C14.0759 102.267 14.0106 101.991 13.8799 101.758C13.7492 101.515 13.5672 101.329 13.3339 101.198C13.1099 101.058 12.8439 100.988 12.5359 100.988C12.2372 100.988 11.9712 101.058 11.7379 101.198C11.5046 101.329 11.3226 101.515 11.1919 101.758C11.0612 102.001 10.9959 102.281 10.9959 102.598C10.9959 102.906 11.0612 103.186 11.1919 103.438C11.3226 103.681 11.5046 103.872 11.7379 104.012C11.9712 104.143 12.2372 104.208 12.5359 104.208ZM17.3263 106V95.836H19.4683V106H17.3263ZM24.3367 106.154C23.5994 106.154 22.9414 106.005 22.3627 105.706C21.7934 105.398 21.3454 104.973 21.0187 104.432C20.692 103.891 20.5287 103.279 20.5287 102.598C20.5287 101.917 20.6874 101.31 21.0047 100.778C21.3314 100.237 21.77 99.812 22.3207 99.504C22.8714 99.196 23.492 99.042 24.1827 99.042C24.8547 99.042 25.4474 99.1867 25.9607 99.476C26.474 99.7653 26.8754 100.167 27.1647 100.68C27.4634 101.193 27.6127 101.781 27.6127 102.444C27.6127 102.565 27.6034 102.696 27.5847 102.836C27.5754 102.967 27.552 103.121 27.5147 103.298L21.6487 103.312V101.842L26.6047 101.828L25.6807 102.444C25.6714 102.052 25.6107 101.73 25.4987 101.478C25.3867 101.217 25.2187 101.021 24.9947 100.89C24.78 100.75 24.514 100.68 24.1967 100.68C23.8607 100.68 23.5667 100.759 23.3147 100.918C23.072 101.067 22.8807 101.282 22.7407 101.562C22.61 101.842 22.5447 102.183 22.5447 102.584C22.5447 102.985 22.6147 103.331 22.7547 103.62C22.904 103.9 23.1094 104.119 23.3707 104.278C23.6414 104.427 23.9587 104.502 24.3227 104.502C24.6587 104.502 24.962 104.446 25.2327 104.334C25.5034 104.213 25.7414 104.035 25.9467 103.802L27.1227 104.978C26.7867 105.37 26.3807 105.664 25.9047 105.86C25.4287 106.056 24.906 106.154 24.3367 106.154ZM34.5886 106L30.7806 96.116H33.1326L36.0306 104.11H35.0646L38.0046 96.116H40.3286L36.4786 106H34.5886ZM42.85 106.14C42.2246 106.14 41.6646 105.986 41.17 105.678C40.6846 105.37 40.2973 104.95 40.008 104.418C39.728 103.886 39.588 103.279 39.588 102.598C39.588 101.917 39.728 101.31 40.008 100.778C40.2973 100.246 40.6846 99.826 41.17 99.518C41.6646 99.21 42.2246 99.056 42.85 99.056C43.3073 99.056 43.718 99.1447 44.082 99.322C44.4553 99.4993 44.7586 99.7467 44.992 100.064C45.2253 100.372 45.356 100.727 45.384 101.128V104.068C45.356 104.469 45.2253 104.829 44.992 105.146C44.768 105.454 44.4693 105.697 44.096 105.874C43.7226 106.051 43.3073 106.14 42.85 106.14ZM43.284 104.208C43.7413 104.208 44.11 104.059 44.39 103.76C44.67 103.452 44.81 103.065 44.81 102.598C44.81 102.281 44.7446 102.001 44.614 101.758C44.4926 101.515 44.3153 101.329 44.082 101.198C43.858 101.058 43.5966 100.988 43.298 100.988C42.9993 100.988 42.7333 101.058 42.5 101.198C42.276 101.329 42.094 101.515 41.954 101.758C41.8233 102.001 41.758 102.281 41.758 102.598C41.758 102.906 41.8233 103.181 41.954 103.424C42.0846 103.667 42.2666 103.858 42.5 103.998C42.7333 104.138 42.9946 104.208 43.284 104.208ZM44.726 106V104.166L45.048 102.514L44.726 100.862V99.196H46.826V106H44.726ZM51.3581 106.154C50.7328 106.154 50.1775 106.028 49.6921 105.776C49.2161 105.515 48.8428 105.16 48.5721 104.712C48.3015 104.255 48.1661 103.732 48.1661 103.144V99.196H50.3081V103.116C50.3081 103.349 50.3455 103.55 50.4201 103.718C50.5041 103.886 50.6255 104.017 50.7841 104.11C50.9428 104.203 51.1341 104.25 51.3581 104.25C51.6755 104.25 51.9275 104.152 52.1141 103.956C52.3008 103.751 52.3941 103.471 52.3941 103.116V99.196H54.5361V103.13C54.5361 103.727 54.4008 104.255 54.1301 104.712C53.8595 105.16 53.4861 105.515 53.0101 105.776C52.5341 106.028 51.9835 106.154 51.3581 106.154ZM55.881 106V95.836H58.023V106H55.881ZM60.4974 106V96.382H62.6394V106H60.4974ZM58.9574 101.016V99.196H64.1794V101.016H58.9574ZM69.6467 106.154C69.0214 106.154 68.4754 106.042 68.0087 105.818C67.5514 105.585 67.1594 105.263 66.8327 104.852L68.3027 103.438C68.4707 103.671 68.6667 103.849 68.8907 103.97C69.1241 104.091 69.3854 104.152 69.6747 104.152C69.9547 104.152 70.1974 104.096 70.4027 103.984C70.6081 103.863 70.7714 103.695 70.8927 103.48C71.0141 103.256 71.0747 102.981 71.0747 102.654V96.116H73.2867V102.528C73.2867 103.265 73.1374 103.905 72.8387 104.446C72.5401 104.987 72.1201 105.407 71.5787 105.706C71.0374 106.005 70.3934 106.154 69.6467 106.154ZM77.8679 106.154C77.2426 106.154 76.6872 106.028 76.2019 105.776C75.7259 105.515 75.3526 105.16 75.0819 104.712C74.8112 104.255 74.6759 103.732 74.6759 103.144V99.196H76.8179V103.116C76.8179 103.349 76.8552 103.55 76.9299 103.718C77.0139 103.886 77.1352 104.017 77.2939 104.11C77.4526 104.203 77.6439 104.25 77.8679 104.25C78.1852 104.25 78.4372 104.152 78.6239 103.956C78.8106 103.751 78.9039 103.471 78.9039 103.116V99.196H81.0459V103.13C81.0459 103.727 80.9106 104.255 80.6399 104.712C80.3692 105.16 79.9959 105.515 79.5199 105.776C79.0439 106.028 78.4932 106.154 77.8679 106.154ZM82.3908 106V99.196H84.5328V106H82.3908ZM86.7448 106V102.024C86.7448 101.679 86.6374 101.413 86.4228 101.226C86.2174 101.03 85.9608 100.932 85.6528 100.932C85.4381 100.932 85.2468 100.979 85.0788 101.072C84.9108 101.156 84.7754 101.277 84.6728 101.436C84.5794 101.595 84.5328 101.791 84.5328 102.024L83.7068 101.66C83.7068 101.119 83.8234 100.657 84.0568 100.274C84.2901 99.882 84.6074 99.5833 85.0088 99.378C85.4101 99.1633 85.8628 99.056 86.3668 99.056C86.8428 99.056 87.2674 99.1633 87.6408 99.378C88.0234 99.5927 88.3268 99.8913 88.5508 100.274C88.7748 100.657 88.8868 101.114 88.8868 101.646V106H86.7448ZM91.0988 106V102.024C91.0988 101.679 90.9914 101.413 90.7768 101.226C90.5714 101.03 90.3148 100.932 90.0068 100.932C89.7921 100.932 89.6008 100.979 89.4328 101.072C89.2648 101.156 89.1294 101.277 89.0268 101.436C88.9334 101.595 88.8868 101.791 88.8868 102.024L87.6548 101.856C87.6734 101.277 87.8088 100.783 88.0608 100.372C88.3221 99.952 88.6628 99.63 89.0828 99.406C89.5121 99.1727 89.9928 99.056 90.5248 99.056C91.0474 99.056 91.5094 99.168 91.9108 99.392C92.3214 99.6067 92.6434 99.9193 92.8768 100.33C93.1194 100.731 93.2408 101.217 93.2408 101.786V106H91.0988ZM98.5334 106.14C98.0761 106.14 97.6561 106.051 97.2734 105.874C96.8908 105.697 96.5781 105.454 96.3354 105.146C96.0928 104.829 95.9528 104.469 95.9154 104.068V101.198C95.9528 100.797 96.0928 100.433 96.3354 100.106C96.5781 99.7793 96.8908 99.5227 97.2734 99.336C97.6561 99.1493 98.0761 99.056 98.5334 99.056C99.1774 99.056 99.7468 99.21 100.241 99.518C100.745 99.826 101.137 100.246 101.417 100.778C101.707 101.31 101.851 101.917 101.851 102.598C101.851 103.279 101.707 103.886 101.417 104.418C101.137 104.95 100.745 105.37 100.241 105.678C99.7468 105.986 99.1774 106.14 98.5334 106.14ZM98.1414 104.208C98.4494 104.208 98.7154 104.138 98.9394 103.998C99.1728 103.858 99.3548 103.667 99.4854 103.424C99.6161 103.181 99.6814 102.906 99.6814 102.598C99.6814 102.281 99.6161 102.001 99.4854 101.758C99.3548 101.515 99.1728 101.329 98.9394 101.198C98.7154 101.058 98.4541 100.988 98.1554 100.988C97.8568 100.988 97.5908 101.058 97.3574 101.198C97.1334 101.329 96.9561 101.515 96.8254 101.758C96.6948 102.001 96.6294 102.281 96.6294 102.598C96.6294 102.906 96.6901 103.181 96.8114 103.424C96.9421 103.667 97.1241 103.858 97.3574 103.998C97.5908 104.138 97.8521 104.208 98.1414 104.208ZM94.6134 108.87V99.196H96.7554V100.946L96.4054 102.598L96.7274 104.25V108.87H94.6134Z" fill="white"/>
</svg>
