<svg width="82" height="109" viewBox="0 0 82 109" fill="none" xmlns="http://www.w3.org/2000/svg">
<circle cx="41" cy="41" r="41" fill="#F1F1F0"/>
<path fill-rule="evenodd" clip-rule="evenodd" d="M49.0619 18.9355C49.0129 20.3914 48.8908 21.8557 48.6959 23.3285C47.5671 21.0341 45.8064 19.4826 43.4138 18.6741C44.8345 19.4319 46.1071 20.3906 47.2315 21.5504C47.8316 22.2625 48.2674 23.0644 48.539 23.9561C48.4063 24.3713 48.2843 24.7897 48.1729 25.2112C46.8953 27.9059 45.675 30.6253 44.5121 33.3696C44.0114 34.6263 43.6627 35.9164 43.4661 37.2396C44.5144 33.7106 45.9089 30.3287 47.6499 27.0939C48.4879 25.4004 48.9935 23.6223 49.1665 21.7596C49.2363 20.9926 49.306 20.2255 49.3757 19.4585C49.7138 19.8504 49.9927 20.2862 50.2125 20.766C51.0492 21.1495 51.886 21.5329 52.7227 21.9165C52.8099 22.0036 52.8971 22.0909 52.9842 22.178C53.0708 22.696 53.2451 23.1841 53.5072 23.6423C54.9755 25.2318 55.3241 27.0448 54.5531 29.0812C54.3567 29.562 54.0952 29.9979 53.7687 30.3886C53.9192 30.9644 54.0934 31.5397 54.2917 32.1144C54.373 32.2867 54.495 32.4261 54.6577 32.5328C54.7099 32.9527 54.6926 33.371 54.6054 33.788C54.7397 34.5658 54.8443 35.3328 54.9192 36.089C54.8449 36.2491 54.7403 36.3885 54.6054 36.5074C55.3428 36.1992 55.7264 36.4433 55.756 37.2396C55.6927 36.2128 56.0065 36.1256 56.6973 36.9781C56.7671 37.0479 56.8368 37.0479 56.9065 36.9781C56.6517 36.3714 56.2159 36.1448 55.5991 36.2982C55.4465 36.266 55.3244 36.1962 55.233 36.089C55.3144 35.7638 55.5236 35.5895 55.8606 35.5661C56.2085 35.6233 56.5572 35.6756 56.9065 35.723C57.4233 36.1702 57.4582 36.6582 57.0111 37.1873C57.2382 37.6917 57.2556 38.1973 57.0634 38.7039C55.9701 39.0953 54.8718 39.1651 53.7687 38.9131C53.7938 37.6518 53.724 36.3967 53.5595 35.1477C53.8116 35.2066 54.0556 35.2589 54.2917 35.3046C54.1012 35.0811 53.8572 34.9939 53.5595 35.0431C53.4449 33.5815 53.4275 32.1172 53.5072 30.6501C53.8744 29.2192 54.2405 27.7898 54.6054 26.3618C54.6025 25.9016 54.5502 25.8668 54.4485 26.2572C54.2202 27.4304 53.9064 28.5809 53.5072 29.7088C53.1846 31.1214 53.08 32.5509 53.1934 33.9971C53.3649 35.6318 53.487 37.2704 53.5595 38.9131C53.5641 39.5657 53.3201 40.0886 52.8273 40.482C50.8469 41.1854 48.8248 41.3075 46.7609 40.8481C44.7345 40.4749 42.817 39.8125 41.0082 38.8608C40.7106 38.5044 40.3968 38.243 40.0668 38.0763C40.2496 38.5555 40.5634 38.9216 41.0082 39.1746C44.3262 40.9652 47.8476 41.5928 51.5722 41.0573C52.1473 40.9757 52.6702 40.784 53.1411 40.482C53.2735 40.7115 53.2735 40.9556 53.1411 41.2142C53.7556 41.3212 54.3309 41.5304 54.8669 41.8417C55.3224 41.6517 55.7931 41.5994 56.2789 41.6848C57.2337 41.953 58.1402 42.3366 58.9984 42.8354C60.5958 43.8403 62.1647 44.8863 63.7052 45.9732C64.5517 46.3833 65.4234 46.7319 66.32 47.0192C66.9763 47.5822 67.3424 48.2969 67.4183 49.1633C67.501 50.1735 67.5708 51.1846 67.6274 52.1966C67.6926 56.3457 67.7274 60.4947 67.732 64.6433C66.782 64.7463 65.8233 64.7812 64.8557 64.7479C64.9354 65.1863 65.1272 65.5698 65.431 65.8985C66.3624 66.9352 67.4431 67.7719 68.6734 68.4087C68.7882 68.8276 68.7011 69.1937 68.4119 69.507C67.6211 69.6741 66.8191 69.7089 66.0062 69.6116C65.6452 69.5183 65.3314 69.344 65.0649 69.0886C63.9492 69.0538 62.8336 69.0188 61.7179 68.984C61.3773 68.818 61.1506 68.5565 61.038 68.1995C60.9495 67.1114 61.0018 66.0306 61.1949 64.9571C61.0106 64.7889 60.8886 64.5797 60.8288 64.3295C60.3745 61.6962 60.2526 59.0465 60.4627 56.3804C60.5165 55.9384 60.3944 55.555 60.0966 55.2298C60.0269 54.3931 60.0269 53.5563 60.0966 52.7196C60.8832 52.0849 61.7722 51.649 62.7638 51.4121C61.4727 51.2905 60.4267 51.7437 59.626 52.7719C58.5933 53.278 57.5125 53.3826 56.3835 53.0856C56.0574 52.9749 55.7436 52.8354 55.4422 52.6673C54.9217 52.1979 54.3639 51.7796 53.7687 51.4121C52.3508 51.172 51.0259 50.6838 49.7941 49.9478C49.6946 49.8727 49.6773 49.7856 49.7418 49.6863C50.278 49.2518 50.5745 48.7289 50.6308 48.1174C50.196 48.5699 49.7777 49.0406 49.3757 49.5294C48.9629 49.7679 48.5794 50.0469 48.2252 50.3662C47.0092 50.7486 45.7889 51.1147 44.5644 51.4644C44.2922 49.4158 44.2051 47.3589 44.3029 45.2934C44.4088 44.6955 44.5309 44.1028 44.669 43.5152C44.7542 43.4181 44.8413 43.3135 44.9305 43.2015C45.2791 43.3409 45.6278 43.3409 45.9764 43.2015C46.6587 43.5103 47.3734 43.6672 48.1206 43.6721C48.4106 43.4229 48.6372 43.1265 48.8004 42.7831C49.4474 42.9614 50.0923 43.1532 50.7354 43.3584C51.2601 43.7443 51.6262 44.2499 51.8337 44.875C52.3906 46.9284 52.931 48.9853 53.4549 51.046C53.6293 51.0809 53.8035 51.1158 53.9779 51.1506C54.5455 51.0783 55.1034 50.9737 55.6514 50.8369C54.9729 48.5731 53.9095 46.5162 52.4613 44.6658C53.2111 46.0603 53.9432 47.4897 54.6577 48.9542C54.9235 49.4901 55.1152 50.048 55.233 50.6277C54.7614 50.6496 54.3082 50.7542 53.8733 50.9414C53.2309 48.8602 52.6208 46.7683 52.0429 44.6658C51.5398 43.3586 50.581 42.7136 49.1665 42.7308C48.9402 42.6352 48.731 42.5131 48.539 42.3647C48.4992 42.5238 48.4818 42.698 48.4867 42.8877C48.3646 43.0097 48.2426 43.1317 48.1206 43.2538C47.5184 43.3128 46.9257 43.2605 46.3425 43.0969C46.2662 42.5755 46.3708 42.1048 46.6563 41.6848C46.6214 41.6674 46.5865 41.65 46.5517 41.6325C46.1791 42.0462 45.9002 42.5169 45.7149 43.0446C45.4637 43.1297 45.2197 43.1122 44.9827 42.9923C45.0678 42.8548 45.1724 42.7328 45.2965 42.6262C44.9115 42.7489 44.6327 43.0104 44.4598 43.4107C44.2653 43.7675 44.1433 44.151 44.0937 44.5612C44.022 47.2467 44.0395 49.9312 44.146 52.615C43.6617 52.6912 43.1736 52.7261 42.6817 52.7196C42.5342 49.8949 42.5516 47.0708 42.734 44.2474C42.9637 43.6686 43.3472 43.2154 43.8845 42.8877C43.9872 42.756 44.022 42.6166 43.9891 42.4693C43.718 42.8105 43.3867 43.072 42.9955 43.2538C42.774 43.4348 42.6171 43.6615 42.5248 43.9336C42.3935 46.5804 42.3239 49.2301 42.3156 51.8828C41.6922 52.0674 41.0821 52.2941 40.4852 52.5627C40.0668 53.1205 39.5787 53.6086 39.0209 54.027C37.7162 54.6268 36.461 55.3067 35.2555 56.0666C35.2097 56.0734 35.1747 56.056 35.1509 56.0143C36.1731 54.7829 37.1144 53.4929 37.9749 52.1443C37.9401 52.1268 37.9052 52.1095 37.8703 52.092C36.7403 53.2915 35.7292 54.5814 34.8371 55.962C34.3431 56.5637 33.8724 57.1913 33.4251 57.8447C30.4005 60.7806 27.6288 63.9185 25.1098 67.2582C24.3829 67.3416 23.6507 67.3939 22.9133 67.4151C22.5195 67.5248 22.136 67.6642 21.7628 67.8335C20.3345 68.1656 19.2189 67.7298 18.4158 66.526C18.2414 66.6131 18.0671 66.7004 17.8928 66.7875C17.4152 67.2557 16.962 67.7438 16.5331 68.2518C15.2777 69.128 14.1446 69.0061 13.1337 67.8857C13.003 67.6162 12.9681 67.3374 13.0291 67.049C14.001 65.908 15.2039 65.0886 16.6377 64.591C17.0096 64.1493 17.4454 63.7832 17.9451 63.4928C20.072 60.3878 22.5126 57.5289 25.2667 54.916C25.4358 54.4561 25.6973 54.0551 26.0512 53.7132C26.8925 53.3721 27.7641 53.1455 28.666 53.0333C29.31 52.3037 29.8504 51.5018 30.2872 50.6277C32.3976 49.0742 33.9665 47.0869 34.994 44.6658C35.3466 44.5098 35.7126 44.3703 36.0922 44.2474C36.2718 43.8306 36.481 43.4297 36.7198 43.0446C37.0757 43.0341 37.407 42.9469 37.7134 42.7831C37.7108 42.53 37.6412 42.2859 37.5042 42.0509C37.4002 40.9159 37.7313 39.9222 38.4979 39.07C38.6935 38.9271 38.9027 38.805 39.1255 38.7039C39.2226 38.8283 39.2575 38.9677 39.2301 39.1223C39.257 39.5344 39.379 39.9179 39.5961 40.2728C40.7162 41.5041 42.0934 42.184 43.7276 42.3124C42.621 41.944 41.5751 41.456 40.5898 40.8481C39.7998 40.2966 39.4163 39.5469 39.4392 38.5993C39.6249 38.235 39.712 37.8515 39.7007 37.4488C38.5494 36.3653 38.0613 35.0404 38.2364 33.4742C37.4447 32.6908 37.1658 31.7494 37.3997 30.6501C37.634 29.9269 37.6863 29.1947 37.5565 28.4536C37.9818 27.8612 38.2781 27.1987 38.4456 26.4664C38.5293 25.6213 38.5118 24.7846 38.3933 23.9561C38.387 23.8993 38.3522 23.8645 38.2887 23.8515C38.1846 24.4401 38.1497 25.0328 38.1841 25.6296C38.0533 26.4232 37.8267 27.1901 37.5042 27.9307C37.4093 28.1335 37.2524 28.2381 37.0336 28.2445C35.6845 27.9338 34.3073 27.864 32.9021 28.0353C31.6646 27.8935 30.4269 27.7366 29.189 27.5646C28.1089 27.2771 27.063 26.8935 26.0512 26.4141C25.6979 26.3668 25.3492 26.2971 25.0052 26.2049C24.8266 25.9912 24.6174 25.8168 24.3776 25.6819C23.9593 25.6471 23.5409 25.6121 23.1225 25.5773C22.8262 25.4204 22.5995 25.1937 22.4426 24.8974C22.3098 24.5165 22.1879 24.1331 22.0766 23.7469C20.8948 22.9988 19.7617 22.1969 18.6772 21.3412C18.4172 20.5454 18.1732 19.7434 17.9451 18.9355C17.9152 17.7625 17.828 16.5946 17.6836 15.4316C17.695 15.1142 17.7648 14.8178 17.8928 14.5426C17.8183 14.2133 17.7486 13.8822 17.6836 13.5489C18.0789 13.373 18.4449 13.1465 18.7818 12.8691C19.0769 13.0246 19.3035 13.2513 19.4617 13.5489C19.8865 13.5171 20.2176 13.674 20.4554 14.0196C20.999 15.2501 21.4697 16.5052 21.8674 17.785C22.2706 17.7165 22.5669 17.856 22.7564 18.2034C22.8816 18.7922 22.9165 19.3849 22.861 19.9815C22.7594 20.1703 22.6373 20.3446 22.4949 20.5045C24.1309 20.8393 25.7869 21.0485 27.4632 21.132C28.1418 21.128 28.8043 21.0234 29.4505 20.8182C30.1571 21.0247 30.8718 21.1991 31.5947 21.3412C32.7992 21.4184 33.9149 21.1569 34.9417 20.5568C35.7774 20.5875 36.5792 20.448 37.3474 20.1384C37.9941 20.0737 38.639 20.0912 39.2824 20.1907C39.7405 20.1275 40.1763 19.9881 40.5898 19.7723C41.0818 19.9705 41.5176 19.9009 41.8972 19.5631C42.0068 19.0878 42.1637 18.6345 42.3679 18.2034C42.742 18.3446 43.1256 18.3969 43.5184 18.3603C43.2673 17.9918 43.0756 17.5909 42.9432 17.1574C42.6416 15.9227 42.4151 14.6849 42.2633 13.4443C42.4159 13.0425 42.4856 12.6241 42.4725 12.1892C42.3295 11.4812 42.2772 10.7664 42.3156 10.045C42.4952 9.51697 42.8264 9.11602 43.3092 8.84219C44.6185 8.07779 46.0131 7.83374 47.493 8.11003C47.976 8.43871 48.499 8.68276 49.0619 8.84219C49.7326 9.57322 50.1683 10.4274 50.3694 11.4048C50.4821 12.5683 50.4125 13.7188 50.1602 14.8564C50.0282 15.197 49.819 15.4759 49.5326 15.6931C49.4029 16.7832 49.246 17.864 49.0619 18.9355Z" fill="#030303"/>
<path fill-rule="evenodd" clip-rule="evenodd" d="M49.1656 19.354C49.2694 19.336 49.3391 19.3709 49.3748 19.4585C49.3051 20.2255 49.2354 20.9926 49.1656 21.7596C49.1656 20.9577 49.1656 20.1559 49.1656 19.354Z" fill="#7F7F7F"/>
<path fill-rule="evenodd" clip-rule="evenodd" d="M49.0597 18.9356C49.0317 19.1028 49.0666 19.2422 49.1643 19.3539C49.1643 20.1559 49.1643 20.9577 49.1643 21.7596C48.9913 23.6223 48.4857 25.4004 47.6477 27.0939C45.9067 30.3287 44.5122 33.7106 43.4639 37.2396C43.6605 35.9164 44.0092 34.6263 44.5099 33.3696C45.6727 30.6253 46.893 27.9059 48.1707 25.2112C48.2821 24.7897 48.4041 24.3713 48.5367 23.9561C48.2652 23.0644 47.8294 22.2625 47.2293 21.5504C46.1049 20.3906 44.8323 19.4319 43.4116 18.6741C45.8042 19.4826 47.5649 21.0341 48.6936 23.3285C48.8886 21.8557 49.0107 20.3914 49.0597 18.9356Z" fill="#E3E3E3"/>
<path fill-rule="evenodd" clip-rule="evenodd" d="M38.3876 23.9561C38.3178 24.5139 38.2482 25.0718 38.1784 25.6296C38.144 25.0328 38.1789 24.4402 38.283 23.8515C38.3465 23.8645 38.3813 23.8993 38.3876 23.9561Z" fill="#383838"/>
<path fill-rule="evenodd" clip-rule="evenodd" d="M38.3948 23.9561C38.5133 24.7846 38.5308 25.6213 38.4471 26.4664C38.2797 27.1987 37.9833 27.8612 37.5581 28.4536C37.3692 28.3988 37.1949 28.3291 37.0351 28.2445C37.2539 28.2381 37.4108 28.1335 37.5058 27.9307C37.8282 27.1901 38.0548 26.4232 38.1856 25.6296C38.2554 25.0718 38.3251 24.5139 38.3948 23.9561Z" fill="#E6E6E6"/>
<path fill-rule="evenodd" clip-rule="evenodd" d="M53.7677 38.9131C53.698 38.9131 53.6283 38.9131 53.5585 38.9131C53.4861 37.2704 53.364 35.6318 53.1925 33.9972C53.0791 32.5509 53.1837 31.1214 53.5062 29.7088C53.9055 28.5809 54.2193 27.4304 54.4476 26.2572C54.5493 25.8668 54.6016 25.9017 54.6045 26.3618C54.2396 27.7898 53.8735 29.2192 53.5062 30.6501C53.4265 32.1172 53.4439 33.5815 53.5585 35.0431C53.8562 34.9939 54.1002 35.0811 54.2907 35.3046C54.0546 35.2589 53.8106 35.2066 53.5585 35.1477C53.7231 36.3967 53.7928 37.6518 53.7677 38.9131Z" fill="#D0D0D0"/>
<path fill-rule="evenodd" clip-rule="evenodd" d="M54.9226 36.089C55.0272 36.089 55.1318 36.089 55.2364 36.089C55.3278 36.1962 55.4499 36.266 55.6025 36.2982C56.2193 36.1448 56.6551 36.3714 56.9099 36.9781C56.8402 37.0478 56.7705 37.0478 56.7007 36.9781C56.0099 36.1256 55.6961 36.2128 55.7594 37.2396C55.7298 36.4433 55.3462 36.1992 54.6089 36.5074C54.7437 36.3885 54.8483 36.249 54.9226 36.089Z" fill="#D3D3D3"/>
<path fill-rule="evenodd" clip-rule="evenodd" d="M54.6007 36.5074C54.8028 36.7874 54.8551 37.1012 54.7576 37.4488C54.6704 37.1693 54.5832 36.8903 54.4962 36.612C54.5091 36.5485 54.544 36.5137 54.6007 36.5074Z" fill="#D4D4D4"/>
<path fill-rule="evenodd" clip-rule="evenodd" d="M52.8279 40.482C52.9325 40.482 53.0371 40.482 53.1417 40.482C52.6708 40.7839 52.1478 40.9757 51.5728 41.0572C47.8482 41.5928 44.3268 40.9652 41.0087 39.1745C40.564 38.9215 40.2502 38.5554 40.0674 38.0763C40.3974 38.2429 40.7112 38.5044 41.0087 38.8608C42.8176 39.8125 44.7351 40.4749 46.7614 40.848C48.8254 41.3074 50.8475 41.1854 52.8279 40.482Z" fill="#E1E1E1"/>
<path fill-rule="evenodd" clip-rule="evenodd" d="M39.4364 38.5993C39.4135 39.5469 39.797 40.2966 40.587 40.8481C41.5722 41.456 42.6182 41.944 43.7248 42.3124C42.0906 42.184 40.7134 41.5041 39.5933 40.2728C39.3762 39.9179 39.2542 39.5344 39.2272 39.1223C39.297 38.9479 39.3667 38.7737 39.4364 38.5993Z" fill="#E0E0E0"/>
<path fill-rule="evenodd" clip-rule="evenodd" d="M44.6669 43.5152C44.6311 43.4276 44.5615 43.3927 44.4577 43.4106C44.6306 43.0104 44.9094 42.7489 45.2945 42.6262C45.1703 42.7328 45.0657 42.8548 44.9807 42.9923C45.2176 43.1122 45.4616 43.1297 45.7128 43.0446C45.8982 42.5169 46.177 42.0462 46.5496 41.6325C46.5844 41.65 46.6194 41.6674 46.6542 41.6848C46.3687 42.1048 46.2642 42.5755 46.3404 43.0969C46.9236 43.2604 47.5164 43.3127 48.1185 43.2538C48.2406 43.1317 48.3625 43.0097 48.4846 42.8877C48.4798 42.698 48.4971 42.5238 48.5369 42.3647C48.7289 42.5131 48.9381 42.6352 49.1645 42.7308C50.5789 42.7136 51.5377 43.3586 52.0408 44.6658C52.6187 46.7683 53.2288 48.8602 53.8712 50.9414C54.3061 50.7542 54.7593 50.6496 55.2309 50.6277C55.1132 50.048 54.9214 49.4901 54.6557 48.9541C53.9412 47.4897 53.209 46.0603 52.4592 44.6658C53.9074 46.5162 54.9708 48.5731 55.6493 50.8368C55.1013 50.9737 54.5434 51.0783 53.9758 51.1506C53.8014 51.1158 53.6272 51.0809 53.4528 51.046C52.9289 48.9853 52.3886 46.9284 51.8316 44.875C51.6241 44.2499 51.258 43.7443 50.7334 43.3583C50.0902 43.1532 49.4453 42.9614 48.7984 42.7831C48.6351 43.1265 48.4085 43.4229 48.1185 43.6721C47.3713 43.6672 46.6566 43.5103 45.9743 43.2015C45.6257 43.3409 45.277 43.3409 44.9284 43.2015C44.8393 43.3135 44.7521 43.4181 44.6669 43.5152Z" fill="#DFDFDF"/>
<path fill-rule="evenodd" clip-rule="evenodd" d="M35.2553 56.0665C35.2228 56.1688 35.153 56.2386 35.0461 56.2757C34.9409 56.2299 34.9409 56.1602 35.0461 56.0665C34.9983 55.983 34.9285 55.9482 34.8369 55.9619C35.729 54.5814 36.7401 53.2914 37.8702 52.0919C37.905 52.1094 37.9399 52.1267 37.9747 52.1442C37.1142 53.4929 36.1729 54.7828 35.1507 56.0142C35.1745 56.0559 35.2095 56.0733 35.2553 56.0665Z" fill="#E5E5E5"/>
<path d="M25.43 106L21.426 100.848L25.304 96.116H28.02L23.652 101.254V100.358L28.16 106H25.43ZM19.452 106V96.116H21.65V106H19.452ZM31.3812 106.14C30.7559 106.14 30.1959 105.986 29.7012 105.678C29.2159 105.37 28.8285 104.95 28.5392 104.418C28.2592 103.886 28.1192 103.279 28.1192 102.598C28.1192 101.917 28.2592 101.31 28.5392 100.778C28.8285 100.246 29.2159 99.826 29.7012 99.518C30.1959 99.21 30.7559 99.056 31.3812 99.056C31.8385 99.056 32.2492 99.1447 32.6132 99.322C32.9865 99.4993 33.2899 99.7467 33.5232 100.064C33.7565 100.372 33.8872 100.727 33.9152 101.128V104.068C33.8872 104.469 33.7565 104.829 33.5232 105.146C33.2992 105.454 33.0005 105.697 32.6272 105.874C32.2539 106.051 31.8385 106.14 31.3812 106.14ZM31.8152 104.208C32.2725 104.208 32.6412 104.059 32.9212 103.76C33.2012 103.452 33.3412 103.065 33.3412 102.598C33.3412 102.281 33.2759 102.001 33.1452 101.758C33.0239 101.515 32.8465 101.329 32.6132 101.198C32.3892 101.058 32.1279 100.988 31.8292 100.988C31.5305 100.988 31.2645 101.058 31.0312 101.198C30.8072 101.329 30.6252 101.515 30.4852 101.758C30.3545 102.001 30.2892 102.281 30.2892 102.598C30.2892 102.906 30.3545 103.181 30.4852 103.424C30.6159 103.667 30.7979 103.858 31.0312 103.998C31.2645 104.138 31.5259 104.208 31.8152 104.208ZM33.2572 106V104.166L33.5792 102.514L33.2572 100.862V99.196H35.3572V106H33.2572ZM36.8654 106V99.196H39.0074V106H36.8654ZM39.0074 102.262L38.1114 101.562C38.2887 100.769 38.5874 100.153 39.0074 99.714C39.4274 99.2753 40.0107 99.056 40.7574 99.056C41.084 99.056 41.3687 99.1073 41.6114 99.21C41.8634 99.3033 42.0827 99.4527 42.2694 99.658L40.9954 101.268C40.902 101.165 40.7854 101.086 40.6454 101.03C40.5054 100.974 40.3467 100.946 40.1694 100.946C39.8147 100.946 39.53 101.058 39.3154 101.282C39.11 101.497 39.0074 101.823 39.0074 102.262ZM45.4906 106.14C44.8652 106.14 44.3052 105.986 43.8106 105.678C43.3252 105.37 42.9379 104.95 42.6486 104.418C42.3686 103.886 42.2286 103.279 42.2286 102.598C42.2286 101.917 42.3686 101.31 42.6486 100.778C42.9379 100.246 43.3252 99.826 43.8106 99.518C44.3052 99.21 44.8652 99.056 45.4906 99.056C45.9479 99.056 46.3586 99.1447 46.7226 99.322C47.0959 99.4993 47.3992 99.7467 47.6326 100.064C47.8659 100.372 47.9966 100.727 48.0246 101.128V104.068C47.9966 104.469 47.8659 104.829 47.6326 105.146C47.4086 105.454 47.1099 105.697 46.7366 105.874C46.3632 106.051 45.9479 106.14 45.4906 106.14ZM45.9246 104.208C46.3819 104.208 46.7506 104.059 47.0306 103.76C47.3106 103.452 47.4506 103.065 47.4506 102.598C47.4506 102.281 47.3852 102.001 47.2546 101.758C47.1332 101.515 46.9559 101.329 46.7226 101.198C46.4986 101.058 46.2372 100.988 45.9386 100.988C45.6399 100.988 45.3739 101.058 45.1406 101.198C44.9166 101.329 44.7346 101.515 44.5946 101.758C44.4639 102.001 44.3986 102.281 44.3986 102.598C44.3986 102.906 44.4639 103.181 44.5946 103.424C44.7252 103.667 44.9072 103.858 45.1406 103.998C45.3739 104.138 45.6352 104.208 45.9246 104.208ZM47.3666 106V104.166L47.6886 102.514L47.3666 100.862V99.196H49.4666V106H47.3666ZM51.9408 106V96.382H54.0828V106H51.9408ZM50.4008 101.016V99.196H55.6228V101.016H50.4008ZM59.7898 106.154C59.0525 106.154 58.3945 106.005 57.8158 105.706C57.2465 105.398 56.7985 104.973 56.4718 104.432C56.1452 103.891 55.9818 103.279 55.9818 102.598C55.9818 101.917 56.1405 101.31 56.4578 100.778C56.7845 100.237 57.2232 99.812 57.7738 99.504C58.3245 99.196 58.9452 99.042 59.6358 99.042C60.3078 99.042 60.9005 99.1867 61.4138 99.476C61.9272 99.7653 62.3285 100.167 62.6178 100.68C62.9165 101.193 63.0658 101.781 63.0658 102.444C63.0658 102.565 63.0565 102.696 63.0378 102.836C63.0285 102.967 63.0052 103.121 62.9678 103.298L57.1018 103.312V101.842L62.0578 101.828L61.1338 102.444C61.1245 102.052 61.0638 101.73 60.9518 101.478C60.8398 101.217 60.6718 101.021 60.4478 100.89C60.2332 100.75 59.9672 100.68 59.6498 100.68C59.3138 100.68 59.0198 100.759 58.7678 100.918C58.5252 101.067 58.3338 101.282 58.1938 101.562C58.0632 101.842 57.9978 102.183 57.9978 102.584C57.9978 102.985 58.0678 103.331 58.2078 103.62C58.3572 103.9 58.5625 104.119 58.8238 104.278C59.0945 104.427 59.4118 104.502 59.7758 104.502C60.1118 104.502 60.4152 104.446 60.6858 104.334C60.9565 104.213 61.1945 104.035 61.3998 103.802L62.5758 104.978C62.2398 105.37 61.8338 105.664 61.3578 105.86C60.8818 106.056 60.3592 106.154 59.7898 106.154Z" fill="white"/>
</svg>
