<svg width="82" height="109" viewBox="0 0 82 109" fill="none" xmlns="http://www.w3.org/2000/svg">
<circle cx="41" cy="41" r="41" fill="#F1F1F0"/>
<path fill-rule="evenodd" clip-rule="evenodd" d="M49.8446 22.2484C48.0181 24.4973 46.0176 26.5895 43.8432 28.525C43.2644 29.7925 42.4936 30.9304 41.5307 31.9387C41.3379 32.1578 41.2278 32.4147 41.2004 32.7095C40.8659 33.0072 40.5722 33.3375 40.3195 33.7006C40.1917 35.3932 40.0449 37.0816 39.879 38.766C40.2828 39.4633 40.8334 40.0139 41.5307 40.4177C41.7502 40.673 41.8786 40.9665 41.9162 41.2987C42.45 41.4625 43.0006 41.5542 43.5679 41.574C43.8724 41.9038 43.9641 42.2892 43.8432 42.7302C43.5551 43.0858 43.39 43.4896 43.3477 43.9415C41.9615 44.0913 40.6401 44.4768 39.3835 45.0977C40.5891 44.758 41.8187 44.4827 43.0724 44.2718C43.3707 44.3128 43.5726 44.478 43.678 44.7674C44.0451 45.0243 44.4122 45.2813 44.7792 45.5382C44.9492 45.6689 45.1328 45.7056 45.3298 45.6483C44.7011 45.3142 44.1323 44.8921 43.623 44.3819C43.5495 44.0883 43.5495 43.7947 43.623 43.501C43.8504 43.12 44.0155 42.7163 44.1185 42.2897C43.9772 41.8741 43.812 41.4704 43.623 41.0784C43.2245 41.3458 42.8024 41.3642 42.3566 41.1335C42.6135 40.9499 42.8705 40.7665 43.1274 40.5829C42.793 40.6299 42.4811 40.7584 42.1914 40.9683C41.7119 40.3053 41.1246 39.7547 40.4296 39.3165C40.2549 39.0776 40.108 38.8206 39.9891 38.5457C40.1773 37.0529 40.3242 35.5479 40.4296 34.0309C40.5922 33.537 40.8858 33.1333 41.3105 32.8196C41.6565 32.069 42.1337 31.4082 42.742 30.8375C43.1546 30.0487 43.5951 29.2779 44.0634 28.525C46.2347 26.5924 48.2352 24.5001 50.0648 22.2484C51.1676 21.202 52.489 20.5964 54.0291 20.4314C54.7622 20.3764 55.4964 20.3581 56.2314 20.3764C55.5971 21.2783 55.1383 22.2694 54.8549 23.3495C54.7324 23.4829 54.6039 23.4829 54.4695 23.3495C54.1583 23.7781 54.0666 24.2552 54.1942 24.7811C54.6157 25.4947 54.8359 26.2655 54.8549 27.0935C55.4495 28.0194 56.0001 28.9738 56.5067 29.9566C56.9911 30.6628 57.5968 30.7913 58.3236 30.342C59.2988 29.4767 60.2348 28.5775 61.1316 27.6441C62.0018 25.8323 62.222 23.9603 61.7923 22.0281C62.0286 23.898 61.7716 25.6967 61.0215 27.4239C60.185 28.384 59.2856 29.2833 58.3236 30.1217C57.6143 30.5759 57.0454 30.4474 56.6168 29.7363C56.1397 28.8921 55.6624 28.0479 55.1853 27.2036C54.9795 26.6744 54.8694 26.1238 54.8549 25.5519C54.3927 25.0552 54.2459 24.468 54.4145 23.79C54.598 23.7165 54.7815 23.6432 54.9651 23.5698C55.2851 22.4162 55.7806 21.3517 56.4516 20.3764C56.7049 20.0654 57.0353 19.8635 57.4427 19.7707C57.9566 19.6973 58.4704 19.6973 58.9843 19.7707C60.052 20.3052 61.1532 20.764 62.2879 21.1472C62.6502 20.95 62.9621 20.6931 63.2239 20.3764C63.7066 20.4761 64.1655 20.6413 64.6003 20.8719C64.7673 21.0808 64.8407 21.3194 64.8206 21.5876C64.9307 21.5876 65.0408 21.5876 65.1509 21.5876C65.2718 21.6864 65.2718 21.7782 65.1509 21.8629C65.8851 22.1198 66.6191 22.3769 67.3533 22.6338C67.6169 22.8487 67.7821 23.124 67.8488 23.4596C68.0479 24.4269 67.8644 25.3079 67.2982 26.1025C67.2526 26.9919 66.9773 27.7995 66.4723 28.525C66.4907 28.5617 66.509 28.5985 66.5274 28.6352C66.8547 28.0365 67.0933 28.0732 67.2431 28.7453C67.1225 29.2519 66.8472 29.6557 66.4173 29.9566C66.403 30.4467 66.3296 30.9238 66.197 31.3881C65.6923 31.6863 65.1967 31.9984 64.7104 32.3241C64.5057 32.4957 64.3406 32.6975 64.2149 32.9297C63.9481 33.648 63.7279 34.3821 63.5542 35.1321C62.5103 35.6554 62.0698 36.4996 62.2328 37.6648C62.3537 36.665 62.8309 35.8942 63.6643 35.3523C63.7378 35.2055 63.8111 35.0586 63.8846 34.9118C63.9386 34.0147 64.2506 33.2256 64.8206 32.5443C65.3622 32.2094 65.8944 31.8606 66.4173 31.4982C66.5499 31.034 66.6232 30.5568 66.6375 30.0667C66.9028 29.8332 67.1781 29.613 67.4634 29.406C67.6508 28.9369 67.5591 28.5331 67.1881 28.1947C67.1337 28.0148 67.1154 27.8312 67.133 27.6441C67.6188 27.6768 68.0592 27.5484 68.4544 27.2587C69.289 26.7181 70.0598 26.0942 70.7669 25.3867C70.6935 25.3132 70.6201 25.3132 70.5467 25.3867C69.949 25.9847 69.2882 26.4987 68.5646 26.9283C68.1579 27.2065 67.7174 27.3534 67.2431 27.3688C67.387 26.497 67.6623 25.6711 68.069 24.8912C68.2749 23.9755 68.0731 23.1681 67.4634 22.4686C66.9436 22.4444 66.5032 22.2608 66.142 21.918C66.4235 21.8422 66.6806 21.7138 66.9128 21.5326C67.515 20.6811 68.3226 20.3875 69.3354 20.6517C70.668 21.0775 71.9894 21.5363 73.2996 22.0281C73.3758 22.0859 73.4309 22.1594 73.4648 22.2484C73.5892 23.3511 73.4424 24.4155 73.0243 25.4418C72.951 26.8193 72.9693 28.1958 73.0794 29.5712C73.0729 30.0361 73.0178 30.4949 72.9142 30.9476C72.4501 31.2002 71.9545 31.3654 71.4276 31.4432C70.3553 31.5079 69.2909 31.4712 68.2342 31.333C67.0589 32.109 66.3248 33.1735 66.0319 34.5264C65.5942 34.7868 65.2088 34.7317 64.8756 34.3613C63.2588 35.6929 63.112 37.1611 64.4352 38.766C64.515 39.0828 64.4599 39.3763 64.27 39.6469C64.1965 39.7937 64.1232 39.7937 64.0497 39.6469C63.685 39.0628 63.2812 38.5122 62.8385 37.9951C62.7377 38.0863 62.6644 38.1964 62.6182 38.3255C62.9302 38.8026 63.2423 39.2799 63.5542 39.757C63.5846 40.3733 63.6763 40.979 63.8295 41.574C63.5253 42.8819 63.5435 44.1849 63.8846 45.4831C64.0314 45.7034 64.1783 45.9236 64.325 46.1438C64.2858 46.8389 64.2858 47.5363 64.325 48.2361C64.6555 49.6678 64.9859 51.0993 65.3161 52.5306C65.2864 54.402 65.2864 56.274 65.3161 58.1466C65.4662 59.0621 65.5947 59.9797 65.7015 60.8995C65.1155 60.9524 64.5282 60.9891 63.9396 61.0097C63.9533 62.0555 64.1919 63.0465 64.6554 63.9828C65.4312 64.9239 66.2937 65.7681 67.2431 66.5155C67.148 66.7024 67.0012 66.8308 66.8027 66.9009C65.9217 66.9744 65.0408 66.9744 64.1599 66.9009C63.7384 66.7087 63.3348 66.4884 62.9486 66.2402C62.5539 66.1221 62.1502 66.0486 61.7373 66.02C61.4849 65.7216 61.3748 65.3728 61.4069 64.9739C61.6098 64.2547 61.7199 63.5206 61.7373 62.7715C61.7409 62.1357 61.6675 61.5117 61.517 60.8995C60.6325 60.7704 59.7515 60.6052 58.8742 60.404C58.6269 60.2896 58.3883 60.1611 58.1585 60.0186C58.2405 58.8841 58.3322 57.7461 58.4338 56.605C58.2513 53.9672 58.1595 51.3244 58.1585 48.6765C58.1893 46.8108 57.7305 45.0856 56.782 43.501C57.8649 42.3718 59.0762 41.3991 60.4159 40.5829C60.5627 40.4361 60.7096 40.2892 60.8563 40.1424C59.1674 41.0277 57.6625 42.1839 56.3415 43.6111C55.2519 44.4982 54.114 45.3241 52.9279 46.0888C51.2924 46.7374 49.6773 47.4164 48.0827 48.1259C45.9931 49.1704 43.8275 50.0329 41.5858 50.7137C43.9011 50.2905 46.0668 49.4646 48.0827 48.2361C47.9059 49.101 47.4838 49.8718 46.8164 50.5485C45.8454 53.9922 44.9094 57.4425 44.0084 60.8995C42.4717 60.9894 40.93 61.0445 39.3835 61.0647C39.115 61.5897 38.803 62.0852 38.4475 62.5513C38.4679 62.99 38.4679 63.4305 38.4475 63.8727C38.157 64.1829 37.8266 64.4398 37.4564 64.6435C37.3246 64.9286 37.2145 65.2223 37.126 65.5245C37.0266 65.6567 36.8982 65.7486 36.7406 65.7998C36.2635 65.8732 35.7862 65.8732 35.3091 65.7998C34.6917 65.6541 34.0676 65.544 33.4371 65.4694C33.3796 65.4076 33.343 65.3342 33.327 65.2492C33.7353 64.5105 34.3227 63.9599 35.0889 63.5974C35.5163 63.1368 35.9752 62.7147 36.4653 62.3311C36.3842 61.5948 36.6228 60.9892 37.1811 60.5141C36.9057 60.3299 36.6488 60.128 36.4103 59.9085C37.5208 57.0174 38.4752 54.081 39.2733 51.0991C37.9473 51.118 36.6259 51.2098 35.3091 51.3744C33.5934 51.6903 31.8683 51.9288 30.1336 52.0902C29.4245 52.0873 28.7272 51.9955 28.0414 51.8149C26.9197 51.4531 25.7819 51.1594 24.6277 50.9339C24.4508 50.8184 24.3774 50.6532 24.4075 50.4384C23.958 50.4556 23.5175 50.4005 23.0861 50.2732C22.3821 49.973 21.6663 49.6978 20.9388 49.4473C20.6089 48.7145 20.1684 48.0538 19.6174 47.4652C19.5024 47.2213 19.4291 46.9644 19.3971 46.6944C18.7793 46.1337 18.3204 45.473 18.0207 44.7123C18.0191 44.4818 18.0925 44.28 18.2409 44.1067C18.351 44.0332 18.4612 44.0332 18.5713 44.1067C18.9494 44.568 19.3531 45.0085 19.7826 45.4281C19.9293 45.4647 20.0762 45.5015 20.223 45.5382C20.8129 46.238 21.4369 46.8987 22.095 47.5203C22.6761 47.8685 23.3 47.9786 23.967 47.8506C24.1326 47.4824 24.3529 47.1521 24.6277 46.8596C27.5111 46.415 30.4109 46.1214 33.327 45.9786C35.1069 45.6025 36.9055 45.3822 38.7227 45.3179C38.2773 44.4328 37.7451 43.6069 37.126 42.8403C36.9707 42.6035 36.8788 42.3465 36.8508 42.0695C36.8829 41.0042 36.938 39.9397 37.0159 38.8761C37.4175 38.3825 37.8397 37.9054 38.2823 37.4445C37.6386 37.667 37.1248 38.1075 36.7406 38.766C36.6672 39.0596 36.5938 39.3532 36.5204 39.6469C36.0351 38.6997 36.0902 37.7819 36.6856 36.894C37.5807 35.815 38.5167 34.7689 39.4936 33.7556C38.8061 34.109 38.2005 34.6045 37.6766 35.2422C37.0991 35.9936 36.5485 36.7645 36.0249 37.5547C35.6579 38.5814 35.8781 39.4623 36.6856 40.1975C36.7468 40.4601 36.7285 40.717 36.6305 40.9683C35.804 40.3075 34.9597 39.6652 34.0978 39.0413C33.8225 38.766 33.5472 38.4907 33.2719 38.2154C32.8203 37.4704 32.2881 36.7914 31.6752 36.1782C31.3839 36.1235 31.0902 36.1051 30.7943 36.1231C30.7943 35.9029 30.7943 35.6827 30.7943 35.4624C30.9411 35.4624 31.088 35.4624 31.2348 35.4624C32.4402 35.7513 33.6515 35.9899 34.8686 36.1782C33.7484 35.6766 32.5739 35.3645 31.3449 35.2422C31.1251 34.4543 30.8498 33.6835 30.519 32.9297C30.2336 32.5705 29.8848 32.2952 29.4729 32.1039C28.4149 30.8507 27.4789 29.5109 26.6649 28.0846C26.5105 26.5762 26.3269 25.0712 26.1143 23.5698C26.0958 24.7094 26.0408 25.8473 25.9491 26.9834C25.1868 26.585 24.3793 26.4198 23.5266 26.4879C20.5887 27.7853 17.6156 28.9966 14.607 30.1217C14.427 30.1812 14.2802 30.1261 14.1666 29.9566C13.5639 30.3574 12.9766 30.7795 12.4047 31.2229C11.8251 31.5181 11.3296 31.4263 10.9181 30.9476C10.5374 30.1726 10.2437 29.365 10.0372 28.525C9.54075 27.7528 9.10028 26.9452 8.71576 26.1025C8.46531 25.2223 8.22672 24.3414 8 23.4596C8.01836 23.3495 8.0367 23.2394 8.05506 23.1293C8.29466 22.8678 8.53325 22.6109 8.77082 22.3585C9.11249 22.9317 9.42449 23.5191 9.70682 24.1203C10.5661 24.8694 11.3919 25.6586 12.1845 26.4879C12.6498 26.6951 13.1087 26.6767 13.5609 26.4328C13.6063 24.5026 13.8265 22.5939 14.2216 20.7067C14.2834 20.6492 14.3569 20.6126 14.4419 20.5966C15.3006 20.6833 16.1631 20.7383 17.0296 20.7618C20.0461 21.6076 23.0192 21.4975 25.9491 20.4314C26.2795 20.358 26.6098 20.358 26.9402 20.4314C28.2028 21.0811 29.4141 21.8152 30.5741 22.6338C32.3726 23.9918 34.1713 25.35 35.9698 26.7081C37.0461 26.8782 38.0738 26.7315 39.0531 26.2676C39.8696 25.8968 40.6404 25.4747 41.3656 25.0013C43.41 24.3279 45.282 23.3369 46.9816 22.0281C46.9632 21.9914 46.9449 21.9547 46.9265 21.918C45.1494 23.1089 43.2957 24.0632 41.3656 24.7811C41.9624 23.8444 42.5314 22.89 43.0724 21.918C43.3632 20.556 43.6752 19.1979 44.0084 17.8437C44.6422 17.5564 45.3029 17.4646 45.9905 17.5684C46.5656 17.8499 47.0796 18.2171 47.5321 18.6695C47.9359 18.8714 48.3396 19.0733 48.7434 19.2752C48.8751 19.2371 48.8751 19.182 48.7434 19.11C48.2295 18.7797 47.7157 18.4493 47.2018 18.119C48.3659 17.7574 49.3938 17.1702 50.2851 16.3571C50.6521 16.1735 51.0192 15.9901 51.3862 15.8065C52.6864 14.5039 53.292 14.7792 53.2032 16.6324C52.793 17.2637 52.2975 17.8325 51.7166 18.3392C50.9757 18.8963 50.2049 19.4102 49.4041 19.8808C50.0547 20.59 50.2016 21.3791 49.8446 22.2484Z" fill="#030303"/>
<path fill-rule="evenodd" clip-rule="evenodd" d="M41.3672 25.0013C41.2204 24.9278 41.2204 24.8545 41.3672 24.7811C43.2973 24.0632 45.1511 23.1089 46.9281 21.918C46.9465 21.9547 46.9648 21.9914 46.9832 22.0281C45.2836 23.3369 43.4116 24.3279 41.3672 25.0013Z" fill="#D9D9D9"/>
<path fill-rule="evenodd" clip-rule="evenodd" d="M56.4506 20.3764C55.7796 21.3517 55.2841 22.4162 54.9641 23.5698C54.7805 23.6432 54.597 23.7166 54.4135 23.79C54.2449 24.468 54.3917 25.0553 54.8539 25.5519C54.8684 26.1239 54.9785 26.6744 55.1843 27.2037C55.6614 28.0479 56.1387 28.8921 56.6158 29.7364C57.0444 30.4474 57.6133 30.5759 58.3226 30.1218C59.2846 29.2833 60.1839 28.384 61.0205 27.4239C61.7706 25.6967 62.0276 23.8981 61.7913 22.0281C62.221 23.9604 62.0008 25.8324 61.1306 27.6441C60.2338 28.5775 59.2978 29.4767 58.3226 30.342C57.5957 30.7913 56.9901 30.6628 56.5057 29.9566C55.999 28.9738 55.4485 28.0194 54.8539 27.0935C54.8349 26.2656 54.6147 25.4948 54.1932 24.7811C54.0656 24.2553 54.1573 23.7781 54.4685 23.3496C54.6029 23.4829 54.7314 23.4829 54.8539 23.3496C55.1373 22.2694 55.5961 21.2784 56.2304 20.3764C56.2786 20.2656 56.352 20.2656 56.4506 20.3764Z" fill="#D9D9D9"/>
<path fill-rule="evenodd" clip-rule="evenodd" d="M35.0913 34.9118C35.1226 35.1227 35.0859 35.3062 34.9812 35.4624C34.4501 33.8145 33.9546 32.1628 33.4946 30.5072C34.5756 29.885 35.7319 29.4261 36.9633 29.1307C37.6715 29.0566 38.3688 29.1116 39.0555 29.2959C39.6225 29.2372 40.1731 29.1454 40.7073 29.0206C40.1879 29.3378 39.619 29.503 39.0005 29.5161C38.3665 29.3477 37.7242 29.2927 37.0734 29.3509C35.9137 29.6825 34.7758 30.0679 33.6598 30.5072C34.1356 31.9714 34.6127 33.4396 35.0913 34.9118Z" fill="#DDDDDD"/>
<path fill-rule="evenodd" clip-rule="evenodd" d="M65.1504 21.5876C65.3174 21.5889 65.4459 21.6622 65.5358 21.8079C65.7819 21.6449 65.9837 21.6816 66.1414 21.918C66.5026 22.2608 66.9431 22.4444 67.4628 22.4686C68.0726 23.1681 68.2744 23.9755 68.0685 24.8912C67.6617 25.6711 67.3864 26.497 67.2426 27.3688C67.7169 27.3534 68.1573 27.2065 68.564 26.9283C69.2877 26.4987 69.9484 25.9847 70.5461 25.3867C70.6196 25.3132 70.6929 25.3132 70.7664 25.3867C70.0593 26.0942 69.2885 26.7181 68.4539 27.2587C68.0587 27.5484 67.6182 27.6768 67.1325 27.6441C67.1149 27.8312 67.1331 28.0148 67.1875 28.1947C67.5585 28.5331 67.6503 28.9369 67.4628 29.406C67.1775 29.613 66.9022 29.8332 66.637 30.0667C66.6226 30.5568 66.5493 31.034 66.4167 31.4982C65.8939 31.8606 65.3617 32.2093 64.82 32.5443C64.2501 33.2256 63.9381 34.0147 63.884 34.9118C63.8106 35.0586 63.7372 35.2055 63.6638 35.3523C62.8303 35.8942 62.3532 36.665 62.2323 37.6648C62.0693 36.4996 62.5098 35.6554 63.5537 35.1321C63.7273 34.3821 63.9476 33.648 64.2144 32.9297C64.34 32.6975 64.5052 32.4957 64.7099 32.3241C65.1962 31.9984 65.6917 31.6863 66.1965 31.3881C66.3291 30.9238 66.4024 30.4467 66.4167 29.9566C66.8466 29.6557 67.1219 29.2519 67.2426 28.7453C67.0927 28.0732 66.8541 28.0364 66.5268 28.6352C66.5084 28.5985 66.4902 28.5617 66.4718 28.525C66.9768 27.7995 67.2521 26.9919 67.2977 26.1025C67.8639 25.3079 68.0473 24.4269 67.8482 23.4596C67.7815 23.124 67.6163 22.8487 67.3527 22.6338C66.6186 22.3769 65.8845 22.1198 65.1504 21.8629C65.2713 21.7781 65.2713 21.6864 65.1504 21.5876Z" fill="#DADADA"/>
<path fill-rule="evenodd" clip-rule="evenodd" d="M45.9894 39.9772C45.908 39.9916 45.8345 39.9733 45.7691 39.9222C45.9124 39.7442 45.9124 39.579 45.7691 39.4266C45.6804 39.12 45.607 38.8079 45.5489 38.4906C45.6263 38.1791 45.6447 37.8672 45.6039 37.5546C45.2964 37.2295 45.0578 36.8623 44.8882 36.4535C45.0717 36.1598 45.2552 35.8662 45.4388 35.5725C45.2766 35.2521 45.1848 34.9217 45.1635 34.5815C45.6172 34.4259 46.076 34.2607 46.5399 34.0859C46.9491 33.6402 47.3163 33.1629 47.6411 32.6544C48.1253 32.4764 48.5475 32.2011 48.9075 31.8285C49.3623 31.084 49.8578 30.3683 50.3941 29.6812C50.5152 29.6337 50.5886 29.6887 50.6143 29.8464C50.5134 30.2932 50.2748 30.5501 49.8985 30.6172C49.1608 31.4892 48.9773 32.4802 49.3479 33.5904C49.7117 34.5946 50.2806 35.4572 51.0548 36.1782C51.7515 36.4104 52.4306 36.6857 53.0919 37.0041C53.8398 36.7677 54.5556 36.4558 55.2392 36.0681C55.6797 36.0314 56.1202 35.9946 56.5606 35.9579C56.8543 35.5909 57.1479 35.2238 57.4416 34.8568C57.7568 34.7027 58.0872 34.5926 58.4326 34.5264C58.853 34.0889 59.2201 33.6118 59.5338 33.0949C59.8041 32.9504 60.0794 32.822 60.3597 32.7095C60.4449 32.3187 60.5917 31.9516 60.8001 31.6083C61.6963 30.7496 62.4671 29.7952 63.1126 28.7452C63.3472 28.4446 63.6408 28.2244 63.9935 28.0845C64.2814 27.5697 64.4466 27.0192 64.4891 26.4328C64.4707 26.2492 64.4524 26.0658 64.434 25.8822C64.0104 25.3283 63.6434 24.741 63.3328 24.1203C63.1934 23.4452 63.3036 22.8212 63.6632 22.2483C63.2345 23.4794 63.4914 24.5439 64.434 25.4417C64.8639 26.4628 64.7354 27.4171 64.0486 28.3048C63.755 28.3641 63.5164 28.5109 63.3328 28.7452C62.6847 29.8929 61.8771 30.9207 60.9103 31.8285C60.5044 32.6235 60.3208 33.4677 60.3597 34.3612C60.259 33.9602 60.1672 33.5565 60.0844 33.1499C59.9743 33.205 59.8641 33.2601 59.754 33.3151C59.4504 33.7753 59.1201 34.2158 58.763 34.6365C58.4213 34.8376 58.0541 34.9845 57.6618 35.077C57.3441 35.5316 56.977 35.9353 56.5606 36.2883C56.0835 36.325 55.6062 36.3617 55.1291 36.3984C54.1172 37.0543 53.0161 37.3479 51.8256 37.2793C51.7889 37.2427 51.7521 37.2059 51.7155 37.1692C51.9724 37.1326 52.2294 37.0958 52.4863 37.0591C50.718 36.2614 48.9194 35.5273 47.0905 34.8568C46.9377 34.7589 46.956 34.7038 47.1456 34.6916C48.1888 35.0882 49.235 35.437 50.2839 35.7377C49.4708 34.6799 48.9753 33.487 48.7974 32.1589C48.4773 32.4383 48.1286 32.6769 47.7512 32.8746C47.3889 33.45 46.9485 33.9639 46.4298 34.4163C46.1646 34.6043 45.871 34.696 45.5489 34.6916C45.6283 35.0568 45.6467 35.424 45.6039 35.7928C45.0586 36.4099 45.132 36.9604 45.8242 37.4445C45.9173 37.8392 45.8623 38.2062 45.659 38.5457C45.9213 38.9868 46.0314 39.464 45.9894 39.9772Z" fill="#D9D9D9"/>
<path fill-rule="evenodd" clip-rule="evenodd" d="M35.0877 34.9119C35.212 35.1462 35.2304 35.4031 35.1427 35.6827C35.0638 35.6228 35.0087 35.5493 34.9776 35.4625C35.0823 35.3062 35.119 35.1227 35.0877 34.9119Z" fill="#818181"/>
<path fill-rule="evenodd" clip-rule="evenodd" d="M49.8447 22.2483C49.9181 22.2483 49.9915 22.2483 50.0649 22.2483C48.2353 24.5001 46.2348 26.5923 44.0635 28.525C43.5952 29.2779 43.1547 30.0487 42.7421 30.8375C42.1338 31.4082 41.6566 32.0689 41.3106 32.8196C40.8858 33.1333 40.5923 33.537 40.4296 34.0309C40.3242 35.5479 40.1774 37.0528 39.9892 38.5457C40.1081 38.8205 40.255 39.0776 40.4296 39.3165C41.1247 39.7547 41.7119 40.3053 42.1915 40.9683C42.4811 40.7584 42.7931 40.6299 43.1275 40.5829C42.8706 40.7664 42.6136 40.9499 42.3567 41.1334C42.8024 41.3641 43.2245 41.3458 43.623 41.0784C43.8121 41.4704 43.9773 41.8741 44.1186 42.2897C44.0156 42.7163 43.8504 43.12 43.623 43.501C43.5496 43.7947 43.5496 44.0882 43.623 44.3819C44.1323 44.8921 44.7012 45.3142 45.3299 45.6483C45.1329 45.7055 44.9493 45.6689 44.7793 45.5381C44.4122 45.2812 44.0451 45.0242 43.6781 44.7673C43.5727 44.4779 43.3708 44.3128 43.0724 44.2718C41.8188 44.4827 40.5892 44.758 39.3835 45.0977C40.6402 44.4767 41.9616 44.0913 43.3477 43.9414C43.39 43.4895 43.5552 43.0857 43.8433 42.7302C43.9642 42.2891 43.8724 41.9037 43.568 41.5739C43.0006 41.5542 42.4501 41.4625 41.9162 41.2986C41.8787 40.9665 41.7503 40.6729 41.5308 40.4177C40.8334 40.0139 40.2828 39.4633 39.879 38.7659C40.045 37.0816 40.1918 35.3931 40.3195 33.7005C40.5722 33.3375 40.8659 33.0071 41.2005 32.7095C41.2279 32.4147 41.338 32.1578 41.5308 31.9387C42.4937 30.9304 43.2645 29.7925 43.8433 28.525C46.0176 26.5895 48.0181 24.4972 49.8447 22.2483Z" fill="#D5D5D5"/>
<path fill-rule="evenodd" clip-rule="evenodd" d="M31.3469 35.2422C32.5759 35.3646 33.7504 35.6766 34.8706 36.1782C33.6535 35.9899 32.4422 35.7513 31.2368 35.4625C31.2734 35.389 31.3102 35.3157 31.3469 35.2422Z" fill="#D8D8D8"/>
<path fill-rule="evenodd" clip-rule="evenodd" d="M36.5215 39.6469C36.5172 39.7852 36.5723 39.8953 36.6867 39.9772C36.7416 39.5751 36.7599 39.1714 36.7417 38.766C37.1259 38.1075 37.6397 37.667 38.2834 37.4445C37.8408 37.9054 37.4186 38.3825 37.017 38.8761C36.9391 39.9397 36.884 41.0042 36.8519 42.0695C36.7784 41.7025 36.7051 41.3353 36.6316 40.9683C36.7296 40.717 36.7479 40.4601 36.6867 40.1975C35.8792 39.4623 35.659 38.5814 36.026 37.5547C36.5496 36.7645 37.1002 35.9936 37.6777 35.2422C38.2016 34.6045 38.8072 34.109 39.4947 33.7556C38.5178 34.7689 37.5818 35.815 36.6867 36.894C36.0913 37.7819 36.0362 38.6997 36.5215 39.6469Z" fill="#D6D6D6"/>
<path fill-rule="evenodd" clip-rule="evenodd" d="M52.8162 45.5932C54.4673 44.5439 55.1096 43.039 54.7432 41.0784C54.0723 38.5846 52.4389 37.465 49.843 37.7199C49.0634 37.8802 48.3843 38.2289 47.8058 38.766C47.8725 38.44 48.0744 38.2014 48.4115 38.0502C50.1214 37.1877 51.7731 37.2978 53.3667 38.3806C55.1521 40.1686 55.5007 42.2058 54.4129 44.4921C54.0096 45.0627 53.4774 45.4298 52.8162 45.5932Z" fill="#D2D2D2"/>
<path fill-rule="evenodd" clip-rule="evenodd" d="M36.7371 38.766C36.7553 39.1714 36.737 39.5751 36.682 39.9773C36.5676 39.8954 36.5126 39.7852 36.5169 39.6469C36.5903 39.3532 36.6637 39.0597 36.7371 38.766Z" fill="#5D5D5D"/>
<path fill-rule="evenodd" clip-rule="evenodd" d="M45.7686 39.4267C45.9119 39.5791 45.9119 39.7442 45.7686 39.9222C45.834 39.9733 45.9075 39.9917 45.9888 39.9773C45.9522 40.0507 45.9154 40.124 45.8787 40.1975C45.7319 40.0874 45.585 39.9773 45.4383 39.8671C45.5163 39.7676 45.6265 39.7309 45.7686 39.757C45.7686 39.6469 45.7686 39.5368 45.7686 39.4267Z" fill="#7B7B7B"/>
<path fill-rule="evenodd" clip-rule="evenodd" d="M45.4383 39.8671C45.585 39.9772 45.7319 40.0873 45.8787 40.1974C46.2313 40.9024 46.6167 41.5998 47.035 42.2897C47.1084 42.5099 47.1084 42.7301 47.035 42.9504C46.9536 42.5226 46.8067 42.1188 46.5945 41.7391C46.1515 41.1458 45.7661 40.5219 45.4383 39.8671Z" fill="#CDCDCD"/>
<path fill-rule="evenodd" clip-rule="evenodd" d="M56.7837 43.501C56.6369 43.5376 56.49 43.5744 56.3432 43.6111C57.6642 42.1839 59.169 41.0276 60.858 40.1424C60.7112 40.2892 60.5643 40.4361 60.4175 40.5829C59.0779 41.3991 57.8666 42.3717 56.7837 43.501Z" fill="#DCDCDC"/>
<path fill-rule="evenodd" clip-rule="evenodd" d="M46.8734 44.0516C47.0808 44.5256 46.9523 44.8926 46.488 45.1528C46.433 45.1161 46.3779 45.0794 46.3228 45.0427C46.7311 44.8521 46.9146 44.5217 46.8734 44.0516Z" fill="#CBCBCB"/>
<path fill-rule="evenodd" clip-rule="evenodd" d="M52.8185 45.5932C52.7257 45.7774 52.5789 45.9059 52.378 45.9786C51.8542 46.0678 51.3403 46.031 50.8364 45.8685C49.3732 45.3033 48.1253 44.4407 47.0924 43.2807C47.1108 43.2441 47.129 43.2073 47.1474 43.1706C48.5317 44.3951 50.11 45.2761 51.8825 45.8134C52.2041 45.7734 52.5161 45.6999 52.8185 45.5932Z" fill="#E8E8E8"/>
<path fill-rule="evenodd" clip-rule="evenodd" d="M48.0846 48.1259C48.0846 48.1626 48.0846 48.1994 48.0846 48.236C46.0687 49.4646 43.903 50.2905 41.5877 50.7137C43.8294 50.0329 45.995 49.1704 48.0846 48.1259Z" fill="#D7D7D7"/>
<path d="M28.01 106.154C27.3847 106.154 26.8387 106.042 26.372 105.818C25.9147 105.585 25.5227 105.263 25.196 104.852L26.666 103.438C26.834 103.671 27.03 103.849 27.254 103.97C27.4873 104.091 27.7487 104.152 28.038 104.152C28.318 104.152 28.5607 104.096 28.766 103.984C28.9713 103.863 29.1347 103.695 29.256 103.48C29.3773 103.256 29.438 102.981 29.438 102.654V96.116H31.65V102.528C31.65 103.265 31.5007 103.905 31.202 104.446C30.9033 104.987 30.4833 105.407 29.942 105.706C29.4007 106.005 28.7567 106.154 28.01 106.154ZM36.2312 106.154C35.6058 106.154 35.0505 106.028 34.5652 105.776C34.0892 105.515 33.7158 105.16 33.4452 104.712C33.1745 104.255 33.0392 103.732 33.0392 103.144V99.196H35.1812V103.116C35.1812 103.349 35.2185 103.55 35.2932 103.718C35.3772 103.886 35.4985 104.017 35.6572 104.11C35.8158 104.203 36.0072 104.25 36.2312 104.25C36.5485 104.25 36.8005 104.152 36.9872 103.956C37.1738 103.751 37.2672 103.471 37.2672 103.116V99.196H39.4092V103.13C39.4092 103.727 39.2738 104.255 39.0032 104.712C38.7325 105.16 38.3592 105.515 37.8832 105.776C37.4072 106.028 36.8565 106.154 36.2312 106.154ZM43.652 106.14C43.008 106.14 42.434 105.986 41.93 105.678C41.4354 105.37 41.0434 104.95 40.754 104.418C40.474 103.886 40.334 103.279 40.334 102.598C40.334 101.917 40.474 101.31 40.754 100.778C41.0434 100.246 41.4354 99.826 41.93 99.518C42.434 99.21 43.008 99.056 43.652 99.056C44.1187 99.056 44.5387 99.1447 44.912 99.322C45.2947 99.4993 45.6074 99.7467 45.85 100.064C46.102 100.372 46.242 100.727 46.27 101.128V103.998C46.242 104.399 46.1067 104.763 45.864 105.09C45.6214 105.407 45.3087 105.664 44.926 105.86C44.5434 106.047 44.1187 106.14 43.652 106.14ZM44.03 104.208C44.338 104.208 44.604 104.143 44.828 104.012C45.052 103.872 45.2294 103.681 45.36 103.438C45.4907 103.195 45.556 102.915 45.556 102.598C45.556 102.281 45.4907 102.005 45.36 101.772C45.2387 101.529 45.0614 101.338 44.828 101.198C44.604 101.058 44.3427 100.988 44.044 100.988C43.7454 100.988 43.4794 101.058 43.246 101.198C43.022 101.338 42.84 101.529 42.7 101.772C42.5694 102.015 42.504 102.29 42.504 102.598C42.504 102.906 42.5694 103.181 42.7 103.424C42.8307 103.667 43.0127 103.858 43.246 103.998C43.4794 104.138 43.7407 104.208 44.03 104.208ZM47.572 106H45.472V104.166L45.794 102.514L45.43 100.862V95.836H47.572V106ZM52.3562 106.154C51.6562 106.154 51.0216 106 50.4522 105.692C49.8922 105.375 49.4489 104.945 49.1222 104.404C48.7956 103.863 48.6322 103.256 48.6322 102.584C48.6322 101.912 48.7956 101.31 49.1222 100.778C49.4489 100.246 49.8922 99.826 50.4522 99.518C51.0122 99.2007 51.6469 99.042 52.3562 99.042C53.0656 99.042 53.7002 99.196 54.2602 99.504C54.8202 99.812 55.2636 100.237 55.5902 100.778C55.9169 101.31 56.0802 101.912 56.0802 102.584C56.0802 103.256 55.9169 103.863 55.5902 104.404C55.2636 104.945 54.8202 105.375 54.2602 105.692C53.7002 106 53.0656 106.154 52.3562 106.154ZM52.3562 104.208C52.6642 104.208 52.9349 104.143 53.1682 104.012C53.4016 103.872 53.5789 103.681 53.7002 103.438C53.8309 103.186 53.8962 102.901 53.8962 102.584C53.8962 102.267 53.8309 101.991 53.7002 101.758C53.5696 101.515 53.3876 101.329 53.1542 101.198C52.9302 101.058 52.6642 100.988 52.3562 100.988C52.0576 100.988 51.7916 101.058 51.5582 101.198C51.3249 101.329 51.1429 101.515 51.0122 101.758C50.8816 102.001 50.8162 102.281 50.8162 102.598C50.8162 102.906 50.8816 103.186 51.0122 103.438C51.1429 103.681 51.3249 103.872 51.5582 104.012C51.7916 104.143 52.0576 104.208 52.3562 104.208Z" fill="white"/>
</svg>
