<svg width="82" height="110" viewBox="0 0 82 110" fill="none" xmlns="http://www.w3.org/2000/svg">
<circle cx="41" cy="41" r="41" fill="#F1F1F0"/>
<path d="M41.5897 16.4405C41.2913 16.3155 41.0107 16.2777 40.7478 16.3269C40.2809 16.414 39.8673 16.6378 39.5068 16.9984C39.4754 17.0297 39.4782 17.0344 39.5153 17.0126C39.7636 16.8688 40.0402 16.7836 40.345 16.7571C40.416 16.7514 40.4208 16.7694 40.3595 16.811C40.2789 16.8678 40.1946 16.9142 40.1067 16.9502C39.6769 17.1271 39.3721 17.386 39.1923 17.7268C38.8113 18.448 38.6698 19.2984 38.4097 20.0637C38.3009 20.3874 37.8376 21.2151 37.436 21.0902C37.1473 21.0002 36.847 20.9245 36.5349 20.863C36.3535 20.827 36.3345 20.8772 36.478 21.0135C37.7638 22.2345 36.9957 24.0688 36.5506 25.5652C36.4442 25.923 36.3393 26.2841 36.2361 26.6485C35.77 28.2878 34.7951 29.2807 33.3114 29.6271C33.2267 29.647 33.1461 29.6432 33.0695 29.6158C32.9921 29.5874 32.9929 29.5623 33.0719 29.5405C34.1823 29.2376 35.033 28.5424 35.6241 27.4549C35.8241 27.0877 35.9991 26.5756 36.149 25.9187C36.3256 25.1464 36.5663 24.384 36.6909 23.6074C36.8385 22.686 36.7562 21.8739 36.0849 21.2705C35.5301 20.7717 34.877 20.5724 34.1254 20.6727C34.0529 20.6822 34.0508 20.7016 34.1194 20.731C35.9833 21.5274 36.4514 23.8033 35.7753 25.8222C35.2777 27.3054 34.4621 28.3531 33.3283 28.9655C33.3222 28.9689 33.3153 28.9702 33.3087 28.9692C33.302 28.9682 33.2958 28.965 33.2908 28.9598L33.2521 28.9229C33.2408 28.9125 33.2416 28.9035 33.2545 28.896C34.7871 27.9518 35.7813 25.9017 35.5963 23.8927C35.4076 21.8511 33.8811 20.8076 32.253 20.8545C31.0422 20.8885 30.0564 21.959 29.5242 23.1403C29.4146 23.3845 29.3053 23.6315 29.1964 23.8814C29.1424 24.0054 29.1235 23.9983 29.1396 23.8601C29.1702 23.5951 29.2251 23.3405 29.3041 23.0963C29.338 22.9912 29.3162 22.9723 29.2388 23.0395L28.5203 23.6613C28.4792 23.6963 28.4796 23.7309 28.5215 23.765C28.8715 24.0508 29.1706 24.4001 29.419 24.8127C29.4319 24.8345 29.4299 24.8539 29.413 24.871L29.3888 24.8951C29.3847 24.8989 29.3811 24.8989 29.3779 24.8951C27.4619 22.5766 24.3364 24.3598 24.2554 27.4379C24.236 28.135 24.2687 28.7994 24.4029 29.5022C24.4723 29.8666 24.5876 30.1681 24.7489 30.4066C24.9121 30.6465 25.119 30.8126 25.102 31.1633C25.09 31.399 25.0787 31.6337 25.0682 31.8675C25.0488 32.3176 25.3839 32.3034 25.6512 32.2906C25.8992 32.2792 26.0286 32.5376 26.0588 32.8003C26.0655 32.8598 26.0886 32.9151 26.1247 32.9577C26.1608 33.0003 26.2077 33.0278 26.2584 33.036L26.3818 33.0544C26.4455 33.0648 26.4866 33.106 26.5051 33.1779C26.5971 33.5258 26.8898 33.5939 27.1087 33.7998C27.1628 33.8509 27.1551 33.8712 27.0857 33.8608C26.7616 33.8116 26.5156 33.6469 26.3479 33.3668C26.3148 33.3119 26.2709 33.2768 26.2161 33.2617C25.8762 33.1623 25.8907 32.999 25.7782 32.664C25.7588 32.6072 25.723 32.5778 25.6705 32.576C25.1601 32.5561 24.7706 32.4752 24.8021 31.734C24.8154 31.3933 24.7755 30.9929 24.5505 30.7402C23.8514 29.9565 23.6699 28.4459 23.7195 27.3484C23.7227 27.2926 23.701 27.2713 23.6542 27.2845C23.0792 27.4587 22.5362 27.6863 22.0249 27.9674C21.9628 28.0015 21.9656 28.0228 22.0334 28.0313C22.2003 28.055 22.368 28.0252 22.5366 27.9419C22.5414 27.94 22.545 27.9414 22.5474 27.9461L22.5607 27.9788C22.5688 27.9987 22.5652 28.0148 22.5499 28.0271C22.3067 28.2088 22.0418 28.24 21.7757 28.3692C20.1017 29.1785 19.5284 30.7516 19.4389 32.7875C19.4034 33.6015 19.6598 34.2366 20.2081 34.6928C20.952 35.3118 21.956 35.6185 22.8873 35.8087C22.9059 35.8125 22.9139 35.8253 22.9115 35.8471V35.8485C22.9107 35.8665 22.9027 35.8755 22.8873 35.8755C21.6737 35.8745 20.5839 35.5465 19.6179 34.8916C19.5808 34.866 19.5598 34.8783 19.555 34.9285C19.5211 35.2777 19.4634 35.6393 19.382 36.0132C19.2804 36.486 19.128 37.3236 19.6771 37.5394C21.1464 38.1139 22.6414 38.4282 24.1622 38.4821C24.1671 38.4821 24.1695 38.4854 24.1695 38.4921L24.1707 38.5318C24.1707 38.5593 24.159 38.5739 24.1356 38.5758C22.4688 38.7273 20.8399 38.5739 19.2489 38.1158C19.2348 38.1118 19.2201 38.111 19.2057 38.1136C19.1913 38.1162 19.1776 38.1221 19.1652 38.131C19.1528 38.1398 19.1421 38.1514 19.1336 38.1652C19.1252 38.1789 19.1191 38.1945 19.1159 38.211C18.88 39.3737 18.7288 40.5067 18.8958 41.7305C18.949 42.1224 18.9054 42.138 18.7651 41.7774C18.6821 41.5644 18.6224 41.3245 18.5861 41.0576C18.5845 41.0449 18.5797 41.0331 18.5723 41.0236C18.565 41.0141 18.5555 41.0073 18.5449 41.0042C18.5343 41.001 18.5232 41.0015 18.5129 41.0057C18.5026 41.0099 18.4936 41.0176 18.4869 41.0277C18.345 41.2435 18.2353 41.4873 18.1579 41.7589C17.9886 42.3524 17.7019 43.0509 17.9196 43.6841C18.0261 43.9946 18.0761 44.2795 18.0696 44.5388C18.0599 44.9193 18.297 45.2359 18.62 45.2217C18.6821 45.2189 18.693 45.2449 18.6526 45.2998C18.4849 45.5269 18.2765 45.6656 18.0273 45.7158C17.6039 45.8019 17.1919 45.9055 16.7911 46.0267C15.6372 46.3774 14.6901 46.9623 13.7539 47.8042C13.0677 48.4223 12.3689 48.9959 11.6577 49.525C11.6219 49.5514 11.5956 49.5929 11.5839 49.6414C11.3795 50.4961 11.5416 51.2571 11.954 51.9712C12.0468 52.1302 12.0286 52.1501 11.8996 52.0308C11.4908 51.6503 11.1775 51.0569 11.1098 50.4308C11.092 50.2699 11.0739 50.1094 11.0553 49.9495C11.0522 49.9224 11.0435 49.8966 11.0298 49.8745C11.0161 49.8524 10.9979 49.8345 10.9769 49.8226C10.9558 49.8107 10.9325 49.805 10.9091 49.8061C10.8856 49.8071 10.8627 49.815 10.8424 49.8288C10.5884 50.0039 10.3622 50.1956 10.1639 50.4038C10.1332 50.435 10.0982 50.4464 10.0586 50.4379C9.88931 50.401 9.75021 50.3868 9.59175 50.4904C9.35629 50.6447 9.11679 50.7819 8.87327 50.9021C8.83352 50.9214 8.78895 50.9234 8.74747 50.9078C8.52894 50.8264 8.31888 50.8051 8.11729 50.8439C7.75684 50.914 7.37864 50.9741 6.98271 51.0242C5.59171 51.2031 6.02352 53.161 6.22431 54.1832C6.30414 54.5892 6.35978 55.001 6.39123 55.4184C6.46018 56.3213 6.42268 57.2456 6.61742 58.0946C6.82305 58.9947 7.18834 59.7737 7.71329 60.4315C8.02052 60.8148 8.62894 61.0321 9.01479 60.6558C9.36556 60.3151 9.35951 59.7685 9.30387 59.273C9.12002 57.6034 9.32686 55.6867 10.3139 54.4771C10.4772 54.2755 10.7058 54.1917 10.8691 53.9844C10.8835 53.9661 10.8912 53.9418 10.8905 53.9168C10.8899 53.8918 10.8808 53.8682 10.8654 53.851C10.1897 53.0975 9.86471 52.1851 9.89051 51.1137C9.89455 50.9707 9.91874 50.9655 9.96309 51.0981C10.0187 51.2618 10.0647 51.426 10.101 51.5907C10.2498 52.2552 10.69 52.8628 11.1727 53.2958C11.204 53.3238 11.2416 53.3406 11.2808 53.3441C11.3201 53.3476 11.3594 53.3378 11.394 53.3157C11.8694 53.009 12.2528 52.6016 12.7826 52.3858C14.9562 51.497 17.0572 50.4861 19.255 49.8657C19.4526 49.8108 19.6449 49.7663 19.832 49.7322C21.2641 49.4753 22.3491 47.6253 22.8123 46.1232C22.8188 46.1015 22.8317 46.0939 22.851 46.1005L22.8825 46.1119C22.8954 46.1166 22.9002 46.1266 22.897 46.1417C22.5789 47.7162 21.5 49.7535 20.0448 50.1298C18.7925 50.4544 17.4773 50.9968 16.0992 51.7568C15.8186 51.9116 15.6989 52.2878 15.5235 52.5703C15.4977 52.612 15.4973 52.6536 15.5223 52.6953C15.8908 53.3247 16.3657 53.8121 16.9471 54.1576C16.952 54.1605 16.9532 54.1647 16.9508 54.1704L16.935 54.2116C16.9306 54.2226 16.9229 54.2314 16.9133 54.2364C16.9038 54.2414 16.893 54.2421 16.883 54.2385C16.2379 54.0067 15.6884 53.5978 15.2344 53.0119C15.0884 52.8226 14.9546 52.8358 14.8328 53.0516C14.5691 53.5173 14.326 53.8893 13.8869 54.169C13.4168 54.47 13.0132 54.9039 12.6762 55.4709C12.377 55.9735 12.3504 56.4306 12.5963 56.8424C13.2289 57.9015 14.4167 57.9739 15.3191 58.6298C15.8234 58.9961 16.323 59.503 16.86 59.7486C17.4673 60.0269 18.1039 60.0685 18.77 59.8735C18.9014 59.8357 19.0026 59.7661 19.0736 59.6648C19.359 59.2645 18.7639 58.7818 18.5039 58.6199C17.2278 57.8234 16.5831 56.4193 17.31 54.7809C17.4205 54.5329 17.5773 54.3024 17.7805 54.0895C18.0418 53.8183 18.4228 53.4932 18.568 53.1269C18.5758 53.1073 18.58 53.086 18.5803 53.0644C18.5805 53.0427 18.5768 53.0212 18.5694 53.0014C18.5619 52.9815 18.5509 52.9636 18.5371 52.949C18.5233 52.9345 18.507 52.9234 18.4893 52.9168C18.0333 52.745 17.3802 52.4383 17.0354 52.0223C16.9169 51.8784 16.9318 51.8557 17.0802 51.9542C17.6019 52.2977 18.141 52.5008 18.6974 52.5632C18.7305 52.5668 18.7639 52.5621 18.7954 52.5494C18.8268 52.5367 18.8557 52.5162 18.88 52.4894C20.1348 51.1094 21.4217 49.851 22.741 48.7143C23.3627 48.179 24.0763 47.6481 24.7948 47.3045C26.1774 46.6415 26.7979 45.2089 27.047 43.5379C27.0624 43.4328 27.0269 43.3964 26.9406 43.4285C26.2761 43.6775 25.7008 43.9955 25.2145 44.3826C24.2989 45.111 23.5296 45.5852 22.5281 45.5894C22.0064 45.5923 21.4685 45.499 20.9145 45.3097C20.4025 45.1346 19.8594 44.9969 19.2852 44.8966C19.0869 44.8616 19.0873 44.8317 19.2864 44.8071C19.5042 44.7797 19.7332 44.7849 19.9735 44.8227C20.7972 44.9534 21.5858 45.1422 22.4567 45.1181C23.2925 45.0968 24.0884 44.6865 24.7573 44.1228C25.4661 43.5265 26.2636 42.9794 27.1498 42.4816C27.8651 42.0784 28.4316 41.5602 28.8493 40.9269C29.096 40.5521 29.346 40.1532 29.5992 39.7301C29.921 39.1934 30.4024 39.1366 30.856 39.4447C31.1624 39.653 31.4797 39.7968 31.8079 39.8763C32.611 40.0723 33.2715 40.4854 33.9404 40.9951C34.6794 41.5559 35.618 41.5133 36.4284 41.1101C37.8195 40.4173 39.0121 38.8626 38.8488 37.0127C38.6601 34.8831 36.4478 33.7217 34.8996 33.1439C33.6529 32.6782 32.3953 32.4056 31.1269 32.3261C31.1156 32.3251 31.11 32.318 31.11 32.3048L31.1112 32.2537C31.1112 32.2404 31.1168 32.2338 31.1281 32.2338C33.0933 32.1212 34.9427 32.54 36.6764 33.4903C37.3235 33.8452 37.9694 34.3819 38.4351 35.0179C40.5652 37.9227 38.2706 41.404 35.6918 42.1011C35.5684 42.1342 35.566 42.1763 35.6846 42.2274C36.0402 42.3808 36.397 42.4764 36.755 42.5142C38.167 42.6657 39.5761 42.4376 40.9825 41.8299C40.9897 41.8271 40.9946 41.8299 40.997 41.8384L41.0091 41.8725C41.0121 41.881 41.0123 41.8906 41.0096 41.8992C41.0069 41.9079 41.0015 41.9151 40.9946 41.9193C39.6632 42.6945 38.2718 43.0807 36.8203 43.0779C36.8163 43.0779 36.8124 43.0793 36.8089 43.0819C36.8055 43.0844 36.8028 43.088 36.801 43.0923C36.7993 43.0966 36.7986 43.1014 36.799 43.1061C36.7994 43.1108 36.8009 43.1153 36.8034 43.119C37.1647 43.6481 37.6106 43.8938 38.1412 43.8559C38.771 43.8105 39.4592 43.6841 40.2059 43.4768C41.4905 43.119 42.7666 42.7244 44.0753 42.5554C44.5946 42.4891 45.1107 42.5081 45.6236 42.6122C45.63 42.6141 45.6333 42.6188 45.6333 42.6264C45.6341 42.6302 45.6345 42.634 45.6345 42.6377C45.6345 42.6548 45.6272 42.6633 45.6127 42.6633C44.5878 42.6709 43.5762 42.8573 42.5779 43.2227C41.5659 43.5937 40.5406 43.96 39.502 44.3216C39.4181 44.3509 39.4165 44.3859 39.4971 44.4266C40.6059 44.9907 41.2506 45.9377 41.4312 47.2676C41.4328 47.2808 41.4292 47.2922 41.4203 47.3016L41.3828 47.3428C41.3707 47.3551 41.3623 47.3523 41.3574 47.3343C41.1018 46.4503 40.641 45.791 39.9749 45.3566C39.941 45.3339 39.9096 45.3376 39.8806 45.3679C39.6145 45.6377 39.2984 45.809 38.9323 45.8819C38.8911 45.8904 38.8706 45.9193 38.8706 45.9685C38.869 46.2032 38.879 46.4309 38.9008 46.6514C39.0641 48.3295 39.5564 49.9949 40.3474 51.4203C40.3595 51.4421 40.3563 51.4601 40.3378 51.4743L40.3063 51.4984C40.3015 51.5013 40.2975 51.5003 40.2942 51.4956C39.1621 49.9613 38.4654 48.2226 38.2041 46.2794C38.2028 46.2699 38.1998 46.2609 38.1952 46.253C38.1906 46.2451 38.1845 46.2385 38.1774 46.2337C38.1703 46.229 38.1624 46.2261 38.1542 46.2254C38.1461 46.2247 38.1379 46.2262 38.1303 46.2297C37.4804 46.5373 36.8453 46.898 36.2252 47.3116C34.4528 48.4938 32.8659 49.7687 31.4644 51.1364C30.8136 51.771 30.3334 52.8727 30.9672 53.7487C31.341 54.2655 31.7595 54.8334 32.2554 55.1742C32.8062 55.5537 33.4267 55.7227 34.117 55.681C34.5802 55.6526 35.0278 55.6981 35.4826 55.7733C36.1466 55.884 36.7647 55.8698 37.4191 55.8613C37.7191 55.8575 38.0186 55.8358 38.3178 55.796C39.0919 55.6957 39.8584 55.5987 40.6172 55.505C40.664 55.4993 40.6845 55.4685 40.6789 55.4127C40.6079 54.7038 40.7611 54.0284 41.1385 53.3867C41.1546 53.3611 41.1744 53.3559 41.1978 53.3711L41.2292 53.391C41.2373 53.3957 41.2393 53.4033 41.2353 53.4137C41.0284 53.9759 40.8543 55.0237 41.2171 55.5334C41.4663 55.884 41.7699 55.8216 42.105 55.894C43.323 56.1609 43.6072 57.5253 43.04 58.6724C42.744 59.2716 42.3094 59.6483 41.736 59.8026C41.5651 59.8489 41.4155 59.945 41.2873 60.0908C41.1155 60.2853 41.2038 60.5834 41.4143 60.6686C41.5409 60.7197 41.6643 60.7448 41.7844 60.7439C42.3932 60.741 43.1202 60.7315 43.9653 60.7155C44.4572 60.706 44.8136 60.6364 45.0345 60.5068C45.7506 60.0879 45.828 59.104 46.1933 58.3516C46.44 57.8405 46.8622 57.4813 47.2021 57.0482C47.4738 56.7028 47.6682 56.3322 47.7851 55.9366C48.148 54.7113 47.3206 53.7274 46.4207 53.31C44.9644 52.6328 43.4234 53.6635 42.8041 55.2409C42.7081 55.4832 42.6735 55.4714 42.7001 55.2054C42.769 54.4998 43.2383 53.7161 43.6689 53.2745C43.76 53.1818 43.7455 53.1345 43.6254 53.1326C43.3093 53.1269 43.0206 53.1032 42.7593 53.0616C40.749 52.7364 38.85 52.4979 36.9099 52.6811C36.2438 52.7445 35.51 52.9149 34.7084 53.1922C34.7004 53.1941 34.6951 53.1908 34.6927 53.1823L34.6794 53.1397C34.6769 53.1304 34.6774 53.1204 34.6807 53.1117C34.6841 53.103 34.6901 53.0962 34.6976 53.0928C36.5337 52.188 38.4327 51.8784 40.3946 52.1643C41.1558 52.276 41.8977 52.1534 42.6202 51.7966C43.2073 51.5079 43.7947 51.1875 44.3826 50.8354C44.3899 50.831 44.3964 50.8248 44.4016 50.8173C44.4068 50.8098 44.4107 50.8011 44.413 50.7918C44.4152 50.7825 44.4158 50.7728 44.4148 50.7632C44.4137 50.7536 44.411 50.7443 44.4068 50.736C43.8153 49.5619 43.1537 48.5283 42.417 47.4181C42.4122 47.4105 42.4126 47.4034 42.4182 47.3968L42.4412 47.3726C42.4525 47.3613 42.4634 47.3617 42.4739 47.374C43.3956 48.436 44.291 49.6012 45.1603 50.8695C45.3309 51.1194 45.6575 51.2968 45.8643 50.9632C46.6424 49.7053 47.6742 48.8231 48.9596 48.3168C48.9709 48.312 48.9793 48.3158 48.985 48.3281L49.0007 48.3679C49.0096 48.3896 49.0047 48.4062 48.9862 48.4176C48.8289 48.516 48.6745 48.6102 48.5229 48.7001C47.5053 49.3068 46.7557 50.2509 46.2743 51.5325C46.2691 51.5464 46.2679 51.562 46.2709 51.5771C46.274 51.5922 46.2811 51.6059 46.2913 51.6163C47.1218 52.453 47.9818 53.3001 48.8713 54.1576C49.6051 54.8656 50.2083 55.3824 50.6808 55.708C51.2412 56.0951 51.7972 56.5064 52.3488 56.9418C53.4906 57.8433 54.7389 57.751 56.0864 57.5338C56.6911 57.4358 57.3104 57.3691 57.9056 57.3506C58.3354 57.3364 58.8486 57.3956 59.4453 57.5281C60.3344 57.724 61.2427 57.8419 62.1548 57.893C62.9757 57.9384 63.6595 58.0406 64.2062 58.1997C65.2464 58.5006 66.2746 58.8196 67.2906 59.1566C67.3025 59.1604 67.3149 59.1612 67.327 59.1588C67.3391 59.1564 67.3506 59.1509 67.3607 59.1428C67.3707 59.1347 67.3791 59.124 67.3852 59.1117C67.3913 59.0993 67.3949 59.0856 67.3958 59.0714C67.4523 58.3587 67.5966 57.6512 67.8288 56.9489C67.8401 56.9157 67.8575 56.9105 67.8809 56.9332C67.8938 56.9455 67.8986 56.9631 67.8954 56.9858C67.7938 57.8499 67.77 58.7112 67.824 59.5697C67.8353 59.7505 67.8853 59.9114 67.974 60.0524C68.0063 60.1035 68.0494 60.1343 68.1034 60.1447C68.455 60.2081 68.8231 60.2507 69.2078 60.2725C69.6698 60.299 70.2101 60.4452 70.8286 60.7112C71.7091 61.0917 72.497 61.4055 73.1921 61.6525C73.5711 61.7879 73.9731 61.856 74.398 61.8569C74.6182 61.8579 74.7899 61.7694 74.9133 61.5915C75.0959 61.3302 74.9496 60.8546 74.8431 60.5877C74.4029 59.4931 73.8719 58.4311 73.0627 57.5934C72.6675 57.1855 72.1688 56.9356 71.5664 56.8438C71.4801 56.8305 71.4777 56.8059 71.5592 56.77C71.6793 56.716 71.8027 56.7018 71.9293 56.7274C71.9882 56.7387 72.0071 56.7118 71.9861 56.6464C71.5991 55.4113 70.8721 54.8789 69.769 55.424C69.3537 55.6294 68.9868 55.8381 68.6683 56.0502C68.4385 56.2021 68.1833 56.2404 67.9268 56.1737C67.4696 56.0544 67.0059 55.9072 66.5358 55.7321C66.2866 55.6384 66.0121 55.5987 65.7544 55.5887C65.5093 55.5793 65.3214 55.7151 65.1908 55.9962C64.9295 56.5575 64.7307 57.088 64.5945 57.5877C64.592 57.5972 64.5864 57.6034 64.5775 57.6062C64.563 57.6109 64.5517 57.609 64.5437 57.6005C64.5227 57.5788 64.5142 57.5523 64.5183 57.521C64.5989 56.8651 64.7525 56.2101 64.9791 55.5561C64.9833 55.5441 64.9854 55.5312 64.9853 55.5182C64.9851 55.5053 64.9827 55.4925 64.9782 55.4806C64.9736 55.4688 64.9671 55.4582 64.9589 55.4494C64.9508 55.4407 64.9412 55.434 64.9307 55.4297C63.0571 54.6602 61.2004 53.7644 59.2869 53.5429C58.616 53.4643 57.9475 53.4903 57.2814 53.621C56.2642 53.8211 55.207 53.0019 54.3228 52.2722C53.0415 51.2121 51.8375 50.0796 50.711 48.8747C50.2054 48.3343 49.7313 47.9131 49.2886 47.6111C48.2157 46.8785 47.1331 46.5719 45.9054 46.4242C45.8998 46.4242 45.897 46.4204 45.897 46.4129V46.3745C45.8978 46.3547 45.9066 46.3442 45.9236 46.3433C47.0872 46.2486 48.1701 46.4375 49.1725 46.9098C49.2225 46.9334 49.2479 46.9131 49.2487 46.8487C49.2527 45.8417 49.0813 44.9789 48.7346 44.2605C47.8637 42.4555 46.5163 41.5923 44.6922 41.6709C44.6842 41.6709 44.6785 41.6671 44.6753 41.6595C44.668 41.6453 44.668 41.633 44.6753 41.6226C44.6825 41.6122 44.6918 41.6056 44.7031 41.6027C45.2385 41.4712 45.7627 41.4688 46.2755 41.5956C46.3659 41.6184 46.3747 41.5961 46.3022 41.5289C45.1603 40.4774 43.8661 40.1574 42.4194 40.5692C42.4146 40.5701 42.4114 40.5677 42.4098 40.5621L42.4001 40.528C42.3944 40.5053 42.4009 40.4897 42.4194 40.4811C43.4863 39.9445 44.5358 39.9591 45.5679 40.5252C45.5738 40.5287 45.5805 40.5298 45.587 40.5283C45.5935 40.5267 45.5993 40.5226 45.6036 40.5167C45.6078 40.5107 45.6102 40.5033 45.6103 40.4955C45.6104 40.4877 45.6083 40.4802 45.6042 40.474C45.3406 40.0311 45.0861 39.6066 44.841 39.2005C43.3363 36.6989 41.3381 35.0269 38.8464 34.1845C38.7819 34.1637 38.7815 34.1415 38.8452 34.1178C38.8758 34.1074 38.9064 34.105 38.9371 34.1107C40.0124 34.3237 41.0792 34.7737 42.0348 35.4226C42.1743 35.5182 42.1852 35.5011 42.0675 35.3714C40.7531 33.9356 39.3012 32.5977 37.7118 31.3578C36.8635 30.6962 35.9938 30.0426 35.1028 29.3971C35.0987 29.3943 35.0979 29.3905 35.1003 29.3858L35.1185 29.3474C35.1217 29.3403 35.1273 29.3349 35.1341 29.3325C35.1409 29.3302 35.1483 29.3309 35.1548 29.3347C37.2667 30.5329 39.2927 31.8774 41.0526 33.6763C41.172 33.7974 41.1909 33.7794 41.1095 33.6223C40.5079 32.4581 39.8713 31.3185 39.1996 30.2035C39.1907 30.1875 39.1927 30.1742 39.2056 30.1638L39.2359 30.1382C39.2391 30.1354 39.2419 30.1359 39.2443 30.1397C39.841 30.8685 40.4019 31.6167 40.9268 32.3843C40.9437 32.4085 40.9657 32.427 40.9906 32.4379C41.0154 32.4489 41.0423 32.452 41.0684 32.4468C41.6598 32.3261 43.1416 32.089 43.1065 31.0739C43.096 30.7795 43.0863 30.4681 43.0774 30.1397C43.0545 29.3531 42.4255 29.3063 42.0058 28.94C41.7824 28.745 41.5578 28.6054 41.332 28.5211C40.9361 28.3735 40.5386 28.2817 40.1394 28.2457C40.1147 28.2437 40.0901 28.2512 40.0694 28.2671C40.0486 28.283 40.0329 28.3064 40.0245 28.3337C39.8237 29.0024 39.3411 28.9826 38.8621 28.7483C38.009 28.3318 37.1433 28.1137 36.2652 28.0938C36.1716 28.0919 36.1684 28.0716 36.2555 28.0327C36.4192 27.9608 36.568 27.9338 36.7018 27.9518C37.0236 27.9944 37.3425 28.0285 37.6586 28.054C37.9844 28.0805 38.4658 28.2367 39.1028 28.5226C39.3431 28.6305 39.5181 28.5443 39.6278 28.2642C39.756 27.9338 39.8499 27.5562 39.9096 27.1312C39.9127 27.1093 39.9119 27.0868 39.9073 27.0651C39.9027 27.0433 39.8945 27.0229 39.883 27.0048C39.3834 26.2268 38.2488 26.1416 37.4747 26.3731C37.461 26.3778 37.4489 26.3735 37.4384 26.3603C37.4352 26.3565 37.4332 26.3522 37.4324 26.3475C37.4259 26.3153 37.4356 26.2917 37.4614 26.2765C38.2057 25.8449 38.9314 25.8534 39.6386 26.3021C39.9943 26.5273 40.347 26.7673 40.697 27.0219C41.3151 27.4719 41.4857 26.7748 41.8401 26.4029C41.8723 26.3688 41.9094 26.3466 41.9513 26.3361C42.0997 26.2992 42.1618 26.1828 42.1376 25.9869C42.1207 25.8468 42.1723 25.7749 42.2924 25.7711L42.5295 25.764C42.5908 25.7621 42.6372 25.7299 42.6686 25.6674L42.7738 25.4587C42.7874 25.4312 42.807 25.4085 42.8306 25.393C42.8543 25.3775 42.881 25.3698 42.9081 25.3707C43.0355 25.3754 43.1617 25.4124 43.2867 25.4814C43.3166 25.498 43.3496 25.5054 43.3826 25.5029C43.4156 25.5004 43.4475 25.4882 43.4754 25.4674C43.5032 25.4466 43.5262 25.4178 43.5421 25.3838C43.5579 25.3497 43.5662 25.3115 43.5661 25.2727C43.5637 24.9647 43.5189 24.3102 43.8733 24.2023C44.1136 24.1294 44.3435 24.0257 44.5628 23.8913C44.603 23.8673 44.6359 23.8291 44.6571 23.782C44.6846 23.7205 44.7003 23.6575 44.7043 23.5932C44.7083 23.5212 44.737 23.5037 44.7902 23.5406C45.0458 23.7148 45.1402 23.9704 45.0732 24.3073C45.0603 24.3745 45.0801 24.3925 45.1325 24.3613C45.218 24.3092 45.2841 24.2288 45.3309 24.1199C45.3349 24.1114 45.3414 24.1071 45.3502 24.1071H45.3901C45.4047 24.1071 45.4103 24.1156 45.4071 24.1327C45.3676 24.3144 45.2825 24.4597 45.1519 24.5685C45.0519 24.6518 45.0632 24.6892 45.1857 24.6807C45.4889 24.6589 45.7337 24.4853 45.9199 24.1597C46.3989 23.3248 46.5368 22.3693 46.5344 21.3585C46.5296 19.0202 45.4252 16.9629 43.4899 16.2715C43.4278 16.2497 43.4246 16.2195 43.4802 16.1806C43.5117 16.1589 43.5456 16.147 43.5818 16.1452C43.6697 16.1414 43.758 16.1485 43.8467 16.1664C43.8653 16.1702 43.8762 16.1612 43.8794 16.1395V16.1381C43.881 16.1257 43.877 16.1182 43.8673 16.1153C43.2222 15.8863 42.6561 15.9994 42.1691 16.4547C42.1287 16.4925 42.088 16.493 42.0469 16.4561C41.8211 16.2535 41.5582 16.139 41.2583 16.1125C41.2478 16.1116 41.2417 16.1172 41.2401 16.1295V16.131C41.2361 16.1546 41.2437 16.1683 41.2631 16.1721C41.397 16.2005 41.5131 16.2772 41.6115 16.4021C41.6469 16.4476 41.6397 16.4603 41.5897 16.4405Z" stroke="#808080" stroke-width="0.283951"/>
<path d="M27.4041 34.2051C27.3928 34.4171 27.3485 34.6263 27.271 34.8327C27.0686 35.3674 26.8497 35.8984 26.6143 36.4256C26.428 36.843 26.2973 37.2917 26.1582 37.7318C26.0905 37.949 25.955 38.2074 25.7821 38.3309C25.3547 38.6329 25.0124 38.9357 24.7551 39.2396C24.2895 39.7904 23.9605 40.3243 23.2795 40.5855C22.998 40.6934 22.7142 40.7724 22.4279 40.8226C21.4821 40.9901 20.5531 41.6716 19.6883 42.0081C19.3689 42.1321 19.3766 42.1742 19.7112 42.1344C19.9653 42.1051 20.2233 42.0247 20.4854 41.8931C21.3442 41.4643 22.1159 41.196 22.8005 41.0881C23.5226 40.9745 24.1383 40.5997 24.6245 39.9793C25.0704 39.4132 25.5587 38.9641 26.0893 38.6319C26.3203 38.4871 26.5235 38.1975 26.6046 37.8993C26.8876 36.8572 27.2009 35.9486 27.8601 35.1336C27.9746 34.9917 28.1089 34.9036 28.2629 34.8696C29.5676 34.579 30.328 33.6699 30.5441 32.1422C30.5925 31.7977 30.574 31.2449 30.4885 30.484C30.4869 30.4688 30.4796 30.4608 30.4667 30.4598H30.4329C30.4191 30.4598 30.4119 30.4674 30.4111 30.4825C30.3982 30.721 30.3877 30.9577 30.3796 31.1924C30.3252 32.7612 29.5208 34.2917 28.0101 34.1597C27.9795 34.1569 27.9557 34.1398 27.9387 34.1086C27.2372 32.7896 26.2961 30.8985 26.7787 29.334C26.9384 28.8143 27.3049 28.4594 27.6339 28.0789C27.8331 27.847 28.0319 27.5806 28.2302 27.2796C28.7612 26.4731 29.3527 25.8655 30.1268 25.4481C30.7594 25.1088 31.2505 24.7013 31.6352 24.0227C31.6432 24.0085 31.642 23.9961 31.6315 23.9857L31.6073 23.9616C31.6041 23.9588 31.6013 23.9592 31.5989 23.963C31.011 24.6914 30.3337 24.9625 29.5874 25.3757C28.5883 25.9308 27.8625 27.0851 27.1186 28.0193C26.6743 28.5777 26.3981 29.0415 26.2901 29.4106C25.7845 31.1285 26.5344 32.6973 27.3654 34.0489C27.3936 34.0953 27.4065 34.1474 27.4041 34.2051Z" stroke="#808080" stroke-width="0.283951"/>
<path d="M38.1604 26.5215L38.1193 26.4959C38.1032 26.4855 38.0903 26.4893 38.0806 26.5073C37.8855 26.8812 37.7153 27.1296 37.5702 27.2527C37.3823 27.4126 37.196 27.573 37.0113 27.734C36.8476 27.8759 36.861 27.9053 37.0513 27.822C37.5585 27.5996 37.9326 27.1831 38.1737 26.5726C38.1826 26.5508 38.1782 26.5338 38.1604 26.5215Z" stroke="#808080" stroke-width="0.283951"/>
<path d="M36.0331 27.9201C36.5907 27.7568 37.0552 27.2784 37.3189 26.6835C37.3342 26.6485 37.3261 26.6248 37.2947 26.6125C37.2778 26.6059 37.2637 26.6111 37.2524 26.6281C37.0104 27.0115 36.6718 27.4218 36.3029 27.6347C36.1932 27.6982 36.0948 27.7734 36.0077 27.8605C35.944 27.9239 35.9525 27.9438 36.0331 27.9201Z" stroke="#808080" stroke-width="0.283951"/>
<path d="M31.6208 30.2645C31.4091 30.4108 31.1889 30.4846 30.9761 30.6095C30.7567 30.7383 30.7672 30.7756 31.0075 30.7217C32.0324 30.4926 32.6763 29.7671 32.9392 28.5452C32.9432 28.5282 32.938 28.5173 32.9235 28.5126L32.8896 28.5026C32.8811 28.5003 32.8722 28.5015 32.8645 28.5059C32.8567 28.5103 32.8507 28.5177 32.8473 28.5268C32.5739 29.3057 32.1651 29.885 31.6208 30.2645Z" stroke="#808080" stroke-width="0.283951"/>
<path d="M34.7926 31.5878C34.5918 31.6147 34.3753 31.5935 34.1817 31.5296C33.1391 31.1784 32.0823 31.1448 31.0115 31.4288C31.0002 31.4316 30.9953 31.4396 30.9969 31.4529L31.0018 31.4941C31.0027 31.5036 31.0068 31.5124 31.0134 31.5185C31.0199 31.5246 31.0284 31.5276 31.0369 31.5267C31.8545 31.4538 32.5218 31.4614 33.0387 31.5494C33.5137 31.6318 33.9914 31.7368 34.472 31.8646C34.7389 31.9347 34.9543 31.866 35.1179 31.6588C35.1454 31.6247 35.1595 31.5845 35.1603 31.5381C35.17 30.9404 34.593 30.1694 34.1793 29.8997C34.089 29.8401 34.0777 29.8566 34.1455 29.9494C34.4527 30.3668 34.8518 30.8012 34.9317 31.372C34.9351 31.3969 34.9342 31.4224 34.9289 31.447C34.9237 31.4715 34.9143 31.4945 34.9013 31.5147C34.8884 31.5349 34.872 31.5517 34.8533 31.5643C34.8346 31.5768 34.814 31.5848 34.7926 31.5878Z" stroke="#808080" stroke-width="0.283951"/>
<path d="M24.434 35.2181C22.7539 34.6928 21.2988 33.7387 20.0166 32.346C20.0037 32.3318 19.9912 32.3322 19.9791 32.3474L19.9562 32.3744C19.9513 32.38 19.9509 32.3862 19.955 32.3928C21.0629 33.9678 22.4652 34.9403 24.1618 35.3104C24.2465 35.3284 24.3328 35.3379 24.4207 35.3388C24.6957 35.3416 24.7001 35.3014 24.434 35.2181Z" stroke="#808080" stroke-width="0.283951"/>
<path d="M24.926 38.7023C24.926 37.3919 25.1764 36.161 25.6578 35.001C25.7014 34.8941 25.6861 34.8808 25.6119 34.9613C25.4941 35.0881 25.3849 35.2585 25.2841 35.4724C24.814 36.471 24.6656 37.5462 24.839 38.6981C24.8422 38.718 24.8527 38.7269 24.8704 38.7251L24.9103 38.7208C24.9208 38.7198 24.926 38.7137 24.926 38.7023Z" stroke="#808080" stroke-width="0.283951"/>
<path d="M41.6115 16.402C41.5131 16.2771 41.397 16.2004 41.2631 16.172C41.2437 16.1682 41.2361 16.1545 41.2401 16.1309V16.1294C41.2417 16.1171 41.2478 16.1115 41.2583 16.1124C41.5582 16.1389 41.8211 16.2534 42.0469 16.456C42.088 16.4929 42.1287 16.4924 42.1691 16.4546C42.6561 15.9993 43.2222 15.8862 43.8673 16.1152C43.877 16.1181 43.881 16.1257 43.8794 16.138V16.1394C43.8762 16.1612 43.8653 16.1701 43.8467 16.1664C43.758 16.1484 43.6697 16.1413 43.5818 16.1451C43.5456 16.147 43.5117 16.1588 43.4802 16.1806C43.4246 16.2194 43.4278 16.2496 43.4899 16.2714C45.4252 16.9628 46.5296 19.0201 46.5344 21.3584C46.5368 22.3693 46.3989 23.3248 45.9199 24.1596C45.7337 24.4852 45.4889 24.6588 45.1857 24.6806C45.0632 24.6891 45.0519 24.6517 45.1519 24.5685C45.2825 24.4596 45.3676 24.3143 45.4071 24.1326C45.4103 24.1156 45.4047 24.107 45.3901 24.107H45.3502C45.3414 24.107 45.3349 24.1113 45.3309 24.1198C45.2841 24.2287 45.218 24.3091 45.1325 24.3612C45.0801 24.3924 45.0603 24.3744 45.0732 24.3072C45.1402 23.9703 45.0458 23.7147 44.7902 23.5406C44.737 23.5036 44.7084 23.5212 44.7043 23.5931C44.7003 23.6574 44.6846 23.7204 44.6571 23.7819C44.6359 23.829 44.603 23.8672 44.5628 23.8912C44.3435 24.0256 44.1136 24.1293 43.8733 24.2022C43.5189 24.3101 43.5637 24.9646 43.5661 25.2727C43.5662 25.3114 43.5579 25.3496 43.5421 25.3837C43.5262 25.4177 43.5032 25.4465 43.4754 25.4673C43.4475 25.4881 43.4156 25.5003 43.3826 25.5028C43.3496 25.5053 43.3166 25.4979 43.2867 25.4814C43.1617 25.4123 43.0355 25.3753 42.9081 25.3706C42.881 25.3697 42.8543 25.3774 42.8306 25.3929C42.807 25.4084 42.7874 25.4311 42.7738 25.4586L42.6686 25.6673C42.6372 25.7298 42.5908 25.762 42.5295 25.7639L42.2924 25.771C42.1723 25.7748 42.1207 25.8467 42.1376 25.9868C42.1618 26.1827 42.0997 26.2991 41.9513 26.3361C41.9094 26.3465 41.8723 26.3687 41.8401 26.4028C41.4857 26.7748 41.3151 27.4719 40.697 27.0218C40.347 26.7672 39.9943 26.5272 39.6386 26.302C38.9314 25.8533 38.2057 25.8448 37.4614 26.2764C37.4356 26.2916 37.4259 26.3152 37.4324 26.3474C37.4332 26.3521 37.4352 26.3564 37.4384 26.3602C37.4489 26.3734 37.461 26.3777 37.4747 26.373C38.2488 26.1415 39.3834 26.2267 39.883 27.0048C39.8945 27.0228 39.9027 27.0433 39.9073 27.065C39.9119 27.0867 39.9127 27.1092 39.9096 27.1311C39.8499 27.5561 39.756 27.9337 39.6278 28.2641C39.5181 28.5442 39.3431 28.6304 39.1028 28.5225C38.4658 28.2366 37.9844 28.0804 37.6586 28.0539C37.3425 28.0284 37.0236 27.9943 36.7018 27.9517C36.568 27.9337 36.4192 27.9607 36.2555 28.0327C36.1684 28.0715 36.1716 28.0918 36.2652 28.0937C37.1433 28.1136 38.0089 28.3317 38.8621 28.7482C39.3411 28.9825 39.8237 29.0023 40.0245 28.3336C40.0329 28.3063 40.0486 28.2829 40.0694 28.267C40.0901 28.2511 40.1147 28.2436 40.1394 28.2456C40.5386 28.2816 40.9361 28.3734 41.332 28.521C41.5578 28.6053 41.7824 28.7449 42.0058 28.9399C42.4255 29.3062 43.0545 29.353 43.0774 30.1396C43.0863 30.468 43.096 30.7794 43.1065 31.0738C43.1416 32.0889 41.6598 32.326 41.0684 32.4467C41.0423 32.4519 41.0154 32.4488 40.9906 32.4379C40.9657 32.4269 40.9437 32.4084 40.9268 32.3842C40.4019 31.6166 39.841 30.8684 39.2443 30.1396C39.2419 30.1358 39.2391 30.1353 39.2359 30.1381L39.2056 30.1637C39.1927 30.1741 39.1907 30.1874 39.1996 30.2035C39.8713 31.3184 40.5079 32.458 41.1095 33.6222C41.1909 33.7793 41.172 33.7973 41.0526 33.6762C39.2927 31.8773 37.2667 30.5328 35.1548 29.3346C35.1483 29.3308 35.1409 29.3301 35.1341 29.3325C35.1273 29.3348 35.1217 29.3402 35.1185 29.3473L35.1003 29.3857C35.0979 29.3904 35.0987 29.3942 35.1028 29.397C35.9938 30.0426 36.8635 30.6961 37.7118 31.3577C39.3012 32.5976 40.7531 33.9355 42.0675 35.3714C42.1852 35.501 42.1743 35.5181 42.0348 35.4225C41.0792 34.7736 40.0124 34.3236 38.9371 34.1106C38.9064 34.1049 38.8758 34.1073 38.8452 34.1177C38.7815 34.1414 38.7819 34.1636 38.8464 34.1844C41.3381 35.0268 43.3363 36.6988 44.841 39.2004C45.0861 39.6065 45.3405 40.031 45.6042 40.4739C45.6083 40.4801 45.6104 40.4877 45.6103 40.4954C45.6102 40.5032 45.6078 40.5106 45.6036 40.5166C45.5993 40.5226 45.5935 40.5266 45.587 40.5282C45.5805 40.5297 45.5738 40.5286 45.5679 40.5251C44.5358 39.9591 43.4863 39.9444 42.4194 40.4811C42.4009 40.4896 42.3944 40.5052 42.4001 40.5279L42.4098 40.562C42.4114 40.5677 42.4146 40.57 42.4194 40.5691C43.8661 40.1573 45.1603 40.4773 46.3022 41.5288C46.3747 41.596 46.3659 41.6183 46.2755 41.5956C45.7627 41.4687 45.2385 41.4711 44.7031 41.6027C44.6918 41.6055 44.6825 41.6121 44.6753 41.6225C44.668 41.6329 44.668 41.6452 44.6753 41.6594C44.6785 41.667 44.6842 41.6708 44.6922 41.6708C46.5163 41.5922 47.8637 42.4555 48.7346 44.2604C49.0813 44.9788 49.2527 45.8416 49.2487 46.8486C49.2479 46.913 49.2225 46.9334 49.1725 46.9097C48.1701 46.4374 47.0872 46.2486 45.9236 46.3432C45.9066 46.3442 45.8978 46.3546 45.8969 46.3744V46.4128C45.8969 46.4204 45.8998 46.4241 45.9054 46.4241C47.1331 46.5718 48.2157 46.8785 49.2886 47.611C49.7313 47.913 50.2054 48.3342 50.711 48.8746C51.8375 50.0795 53.0415 51.212 54.3228 52.2721C55.207 53.0019 56.2642 53.821 57.2814 53.6209C57.9475 53.4902 58.616 53.4642 59.2869 53.5428C61.2004 53.7643 63.0571 54.6601 64.9307 55.4296C64.9412 55.4339 64.9508 55.4406 64.9589 55.4493C64.9671 55.4581 64.9736 55.4687 64.9782 55.4805C64.9827 55.4924 64.9851 55.5052 64.9853 55.5182C64.9854 55.5311 64.9833 55.544 64.9791 55.556C64.7525 56.21 64.5989 56.865 64.5183 57.5209C64.5142 57.5522 64.5227 57.5787 64.5437 57.6004C64.5517 57.609 64.563 57.6108 64.5775 57.6061C64.5864 57.6033 64.592 57.5971 64.5945 57.5877C64.7307 57.0879 64.9295 56.5574 65.1908 55.9961C65.3214 55.715 65.5093 55.5792 65.7544 55.5886C66.0121 55.5986 66.2866 55.6383 66.5358 55.732C67.0059 55.9071 67.4696 56.0543 67.9268 56.1736C68.1833 56.2403 68.4385 56.202 68.6683 56.0501C68.9868 55.838 69.3537 55.6293 69.769 55.424C70.8721 54.8788 71.5991 55.4112 71.9861 56.6464C72.0071 56.7117 71.9882 56.7386 71.9293 56.7273C71.8027 56.7017 71.6793 56.7159 71.5592 56.7699C71.4777 56.8058 71.4801 56.8305 71.5664 56.8437C72.1688 56.9355 72.6675 57.1854 73.0627 57.5933C73.8719 58.431 74.4029 59.493 74.8431 60.5876C74.9496 60.8545 75.0959 61.3301 74.9133 61.5914C74.7899 61.7693 74.6182 61.8578 74.398 61.8569C73.9731 61.8559 73.5711 61.7878 73.1921 61.6524C72.497 61.4054 71.7091 61.0916 70.8286 60.7111C70.2101 60.4451 69.6698 60.2989 69.2078 60.2724C68.8231 60.2506 68.455 60.208 68.1034 60.1446C68.0494 60.1342 68.0063 60.1035 67.974 60.0523C67.8853 59.9113 67.8353 59.7504 67.824 59.5696C67.77 58.7112 67.7938 57.8498 67.8954 56.9857C67.8986 56.963 67.8938 56.9454 67.8809 56.9331C67.8575 56.9104 67.8401 56.9156 67.8288 56.9488C67.5966 57.6511 67.4523 58.3586 67.3958 59.0713C67.3949 59.0855 67.3913 59.0993 67.3852 59.1116C67.3791 59.1239 67.3707 59.1346 67.3607 59.1427C67.3506 59.1509 67.3391 59.1563 67.327 59.1587C67.3149 59.1611 67.3025 59.1603 67.2906 59.1565C66.2746 58.8195 65.2464 58.5006 64.2062 58.1996C63.6595 58.0406 62.9757 57.9383 62.1548 57.8929C61.2427 57.8418 60.3344 57.7239 59.4453 57.528C58.8486 57.3955 58.3354 57.3364 57.9056 57.3506C57.3104 57.369 56.6911 57.4357 56.0864 57.5337C54.7389 57.7509 53.4906 57.8432 52.3488 56.9417C51.7972 56.5063 51.2412 56.095 50.6808 55.7079C50.2083 55.3823 49.6051 54.8655 48.8713 54.1575C47.9818 53.3 47.1218 52.4529 46.2913 51.6162C46.2811 51.6058 46.274 51.5921 46.2709 51.577C46.2679 51.5619 46.2691 51.5463 46.2743 51.5324C46.7557 50.2508 47.5053 49.3067 48.5229 48.7C48.6745 48.6101 48.8289 48.5159 48.9862 48.4175C49.0047 48.4061 49.0096 48.3895 49.0007 48.3678L48.985 48.328C48.9793 48.3157 48.9709 48.3119 48.9596 48.3167C47.6742 48.823 46.6424 49.7052 45.8643 50.9631C45.6575 51.2967 45.3309 51.1193 45.1603 50.8694C44.291 49.6011 43.3956 48.4359 42.4739 47.374C42.4634 47.3616 42.4525 47.3612 42.4412 47.3725L42.4182 47.3967C42.4126 47.4033 42.4122 47.4104 42.417 47.418C43.1537 48.5282 43.8153 49.5618 44.4068 50.7359C44.411 50.7442 44.4137 50.7535 44.4148 50.7631C44.4158 50.7727 44.4152 50.7824 44.413 50.7917C44.4107 50.8011 44.4068 50.8097 44.4016 50.8172C44.3964 50.8247 44.3899 50.8309 44.3826 50.8353C43.7947 51.1874 43.2073 51.5078 42.6202 51.7965C41.8977 52.1533 41.1558 52.2759 40.3946 52.1642C38.4327 51.8784 36.5337 52.1879 34.6976 53.0927C34.6901 53.0961 34.6841 53.1029 34.6807 53.1116C34.6774 53.1203 34.6769 53.1303 34.6794 53.1396L34.6927 53.1822C34.6951 53.1907 34.7004 53.194 34.7084 53.1921C35.51 52.9148 36.2438 52.7444 36.9099 52.681C38.85 52.4978 40.749 52.7364 42.7593 53.0615C43.0206 53.1031 43.3093 53.1268 43.6254 53.1325C43.7455 53.1344 43.76 53.1817 43.6689 53.2744C43.2383 53.716 42.769 54.4997 42.7001 55.2053C42.6735 55.4713 42.7081 55.4831 42.8041 55.2408C43.4234 53.6635 44.9644 52.6327 46.4207 53.3099C47.3206 53.7273 48.148 54.7112 47.7851 55.9365C47.6682 56.3321 47.4738 56.7027 47.2021 57.0481C46.8622 57.4812 46.44 57.8404 46.1933 58.3515C45.828 59.104 45.7506 60.0878 45.0345 60.5067C44.8136 60.6363 44.4572 60.7059 43.9653 60.7154C43.1202 60.7315 42.3932 60.7409 41.7844 60.7438C41.6643 60.7447 41.5409 60.7196 41.4143 60.6685C41.2038 60.5833 41.1155 60.2852 41.2873 60.0907C41.4155 59.9449 41.5651 59.8488 41.736 59.8025C42.3094 59.6482 42.744 59.2715 43.04 58.6723C43.6072 57.5252 43.323 56.1608 42.105 55.8939C41.7699 55.8215 41.4663 55.8839 41.2171 55.5333C40.8543 55.0236 41.0284 53.9758 41.2353 53.4136C41.2393 53.4032 41.2373 53.3956 41.2292 53.3909L41.1978 53.371C41.1744 53.3558 41.1546 53.361 41.1385 53.3866C40.7611 54.0283 40.6079 54.7037 40.6789 55.4126C40.6845 55.4684 40.664 55.4992 40.6172 55.5049C39.8584 55.5986 39.0919 55.6956 38.3178 55.7959C38.0186 55.8357 37.7191 55.8574 37.4191 55.8612C36.7647 55.8698 36.1466 55.884 35.4826 55.7732C35.0278 55.698 34.5802 55.6525 34.117 55.6809C33.4267 55.7226 32.8062 55.5536 32.2554 55.1741C31.7595 54.8333 31.341 54.2654 30.9672 53.7486C30.3334 52.8727 30.8136 51.7709 31.4644 51.1363C32.8659 49.7686 34.4528 48.4937 36.2252 47.3115C36.8453 46.8979 37.4804 46.5372 38.1303 46.2296C38.1379 46.2261 38.1461 46.2246 38.1542 46.2253C38.1624 46.226 38.1703 46.2289 38.1774 46.2336C38.1845 46.2384 38.1906 46.245 38.1952 46.2529C38.1998 46.2608 38.2029 46.2698 38.2041 46.2793C38.4654 48.2225 39.1621 49.9612 40.2942 51.4955C40.2975 51.5002 40.3015 51.5012 40.3063 51.4983L40.3378 51.4742C40.3563 51.46 40.3595 51.442 40.3475 51.4202C39.5564 49.9948 39.0641 48.3294 38.9008 46.6513C38.879 46.4308 38.869 46.2031 38.8706 45.9684C38.8706 45.9192 38.8911 45.8903 38.9323 45.8818C39.2984 45.8089 39.6145 45.6376 39.8806 45.3678C39.9096 45.3376 39.941 45.3338 39.9749 45.3565C40.641 45.7909 41.1018 46.4502 41.3574 47.3342C41.3623 47.3522 41.3707 47.355 41.3828 47.3427L41.4203 47.3015C41.4292 47.2921 41.4328 47.2807 41.4312 47.2675C41.2506 45.9376 40.6059 44.9907 39.4971 44.4265C39.4165 44.3858 39.4181 44.3508 39.502 44.3215C40.5406 43.9599 41.5659 43.5936 42.5779 43.2226C43.5762 42.8572 44.5878 42.6708 45.6127 42.6632C45.6272 42.6632 45.6345 42.6547 45.6345 42.6377C45.6345 42.6339 45.6341 42.6301 45.6333 42.6263C45.6333 42.6187 45.63 42.614 45.6236 42.6121C45.1107 42.508 44.5947 42.4891 44.0753 42.5553C42.7666 42.7243 41.4905 43.1189 40.2059 43.4767C39.4592 43.684 38.771 43.8104 38.1412 43.8558C37.6106 43.8937 37.1647 43.648 36.8034 43.1189C36.8009 43.1152 36.7994 43.1107 36.799 43.106C36.7986 43.1013 36.7993 43.0965 36.801 43.0922C36.8028 43.0879 36.8055 43.0843 36.8089 43.0818C36.8124 43.0792 36.8163 43.0778 36.8203 43.0778C38.2718 43.0806 39.6632 42.6944 40.9946 41.9193C41.0015 41.915 41.0069 41.9078 41.0096 41.8991C41.0123 41.8905 41.0121 41.8809 41.0091 41.8724L40.997 41.8383C40.9946 41.8298 40.9897 41.827 40.9825 41.8298C39.5761 42.4375 38.167 42.6656 36.755 42.5141C36.397 42.4763 36.0402 42.3807 35.6846 42.2273C35.566 42.1762 35.5684 42.1341 35.6918 42.101C38.2706 41.4039 40.5652 37.9227 38.4351 35.0178C37.9694 34.3818 37.3235 33.8451 36.6764 33.4902C34.9427 32.5399 33.0933 32.1211 31.1281 32.2337C31.1168 32.2337 31.1112 32.2403 31.1112 32.2536L31.11 32.3047C31.11 32.3179 31.1156 32.325 31.1269 32.326C32.3953 32.4055 33.6529 32.6781 34.8996 33.1438C36.4478 33.7216 38.6601 34.883 38.8488 37.0126C39.0121 38.8625 37.8195 40.4172 36.4284 41.11C35.618 41.5132 34.6794 41.5558 33.9404 40.995C33.2715 40.4853 32.611 40.0722 31.8079 39.8762C31.4797 39.7967 31.1624 39.6529 30.856 39.4446C30.4024 39.1365 29.921 39.1933 29.5992 39.73C29.346 40.1531 29.096 40.552 28.8493 40.9269C28.4316 41.5601 27.8651 42.0783 27.1498 42.4815C26.2636 42.9793 25.4661 43.5264 24.7573 44.1227C24.0884 44.6864 23.2925 45.0967 22.4567 45.118C21.5858 45.1421 20.7972 44.9533 19.9735 44.8227C19.7332 44.7848 19.5042 44.7796 19.2864 44.807C19.0873 44.8316 19.0869 44.8615 19.2852 44.8965C19.8594 44.9968 20.4025 45.1345 20.9145 45.3096C21.4685 45.4989 22.0064 45.5922 22.5281 45.5893C23.5296 45.5851 24.2989 45.1109 25.2145 44.3825C25.7008 43.9954 26.2761 43.6774 26.9406 43.4285C27.0269 43.3963 27.0624 43.4327 27.047 43.5378C26.7979 45.2088 26.1774 46.6414 24.7948 47.3044C24.0763 47.648 23.3627 48.179 22.741 48.7142C21.4217 49.8509 20.1348 51.1093 18.88 52.4893C18.8557 52.5161 18.8268 52.5366 18.7954 52.5493C18.7639 52.562 18.7305 52.5667 18.6974 52.5631C18.141 52.5007 17.6019 52.2977 17.0802 51.9541C16.9318 51.8556 16.9169 51.8784 17.0354 52.0222C17.3802 52.4382 18.0333 52.7449 18.4893 52.9167C18.507 52.9234 18.5233 52.9344 18.5371 52.949C18.5509 52.9635 18.5619 52.9814 18.5694 53.0013C18.5768 53.0212 18.5805 53.0426 18.5803 53.0643C18.58 53.0859 18.5758 53.1072 18.568 53.1268C18.4228 53.4931 18.0418 53.8182 17.7805 54.0894C17.5773 54.3023 17.4205 54.5328 17.31 54.7808C16.5831 56.4192 17.2278 57.8233 18.5039 58.6198C18.7639 58.7817 19.359 59.2644 19.0736 59.6648C19.0026 59.766 18.9014 59.8356 18.77 59.8735C18.1039 60.0684 17.4673 60.0268 16.86 59.7485C16.323 59.5029 15.8234 58.996 15.3191 58.6298C14.4167 57.9738 13.2289 57.9014 12.5963 56.8423C12.3504 56.4306 12.377 55.9734 12.6762 55.4708C13.0132 54.9038 13.4168 54.4699 13.8869 54.1689C14.326 53.8892 14.5691 53.5172 14.8328 53.0515C14.9546 52.8357 15.0884 52.8225 15.2344 53.0118C15.6884 53.5977 16.2379 54.0066 16.883 54.2385C16.893 54.242 16.9038 54.2413 16.9133 54.2363C16.9229 54.2314 16.9306 54.2225 16.935 54.2115L16.9508 54.1703C16.9532 54.1646 16.952 54.1604 16.9471 54.1575C16.3657 53.8121 15.8908 53.3246 15.5223 52.6952C15.4973 52.6535 15.4977 52.6119 15.5235 52.5702C15.6989 52.2877 15.8186 51.9115 16.0992 51.7567C17.4773 50.9967 18.7925 50.4543 20.0448 50.1297C21.5 49.7535 22.5789 47.7161 22.897 46.1416C22.9002 46.1265 22.8954 46.1165 22.8825 46.1118L22.851 46.1004C22.8317 46.0938 22.8188 46.1014 22.8123 46.1231C22.3491 47.6252 21.2641 49.4752 19.832 49.7322C19.6449 49.7662 19.4526 49.8107 19.255 49.8656C17.0572 50.486 14.9562 51.4969 12.7826 52.3857C12.2528 52.6015 11.8694 53.009 11.394 53.3156C11.3594 53.3377 11.3201 53.3475 11.2808 53.344C11.2416 53.3405 11.204 53.3237 11.1727 53.2957C10.69 52.8627 10.2498 52.2551 10.101 51.5906C10.0647 51.4259 10.0187 51.2617 9.96309 51.098C9.91874 50.9655 9.89455 50.9707 9.89052 51.1136C9.86471 52.185 10.1897 53.0974 10.8654 53.8509C10.8808 53.8681 10.8899 53.8918 10.8905 53.9167C10.8912 53.9417 10.8835 53.966 10.8691 53.9843C10.7058 54.1916 10.4772 54.2754 10.3139 54.477C9.32686 55.6866 9.12002 57.6033 9.30387 59.2729C9.35951 59.7684 9.36556 60.315 9.01479 60.6557C8.62894 61.032 8.02052 60.8148 7.71329 60.4314C7.18834 59.7736 6.82305 58.9946 6.61742 58.0945C6.42268 57.2455 6.46018 56.3212 6.39123 55.4183C6.35978 55.0009 6.30414 54.5891 6.22431 54.1831C6.02352 53.1609 5.59171 51.203 6.98271 51.0241C7.37864 50.974 7.75684 50.9139 8.11729 50.8438C8.31888 50.805 8.52894 50.8263 8.74747 50.9077C8.78895 50.9233 8.83352 50.9213 8.87327 50.902C9.11679 50.7818 9.35629 50.6446 9.59175 50.4903C9.75021 50.3867 9.88931 50.4009 10.0586 50.4378C10.0982 50.4463 10.1332 50.4349 10.1639 50.4037C10.3622 50.1955 10.5884 50.0038 10.8424 49.8287C10.8627 49.8149 10.8856 49.807 10.9091 49.806C10.9325 49.8049 10.9558 49.8106 10.9769 49.8225C10.9979 49.8344 11.0161 49.8523 11.0298 49.8744C11.0435 49.8965 11.0522 49.9223 11.0553 49.9494C11.0739 50.1093 11.092 50.2698 11.1098 50.4307C11.1775 51.0568 11.4908 51.6502 11.8996 52.0307C12.0286 52.15 12.0468 52.1301 11.954 51.9711C11.5416 51.257 11.3795 50.496 11.5839 49.6413C11.5956 49.5928 11.6219 49.5513 11.6577 49.5249C12.3689 48.9958 13.0676 48.4222 13.7539 47.8041C14.6901 46.9622 15.6372 46.3773 16.7911 46.0266C17.1919 45.9055 17.6039 45.8018 18.0273 45.7157C18.2765 45.6655 18.4849 45.5268 18.6526 45.2997C18.693 45.2448 18.6821 45.2188 18.62 45.2216C18.297 45.2358 18.0599 44.9192 18.0696 44.5387C18.0761 44.2794 18.0261 43.9945 17.9196 43.684C17.7019 43.0508 17.9886 42.3523 18.1579 41.7588C18.2353 41.4872 18.345 41.2435 18.4869 41.0277C18.4936 41.0175 18.5026 41.0098 18.5129 41.0056C18.5232 41.0014 18.5343 41.0009 18.5449 41.0041C18.5555 41.0073 18.565 41.014 18.5723 41.0235C18.5797 41.033 18.5845 41.0448 18.5861 41.0575C18.6224 41.3244 18.6821 41.5643 18.7651 41.7773C18.9054 42.1379 18.949 42.1223 18.8958 41.7304C18.7288 40.5066 18.88 39.3736 19.1159 38.2109C19.1191 38.1944 19.1252 38.1788 19.1336 38.1651C19.1421 38.1514 19.1528 38.1397 19.1652 38.1309C19.1776 38.122 19.1913 38.1161 19.2057 38.1135C19.2201 38.1109 19.2348 38.1117 19.2489 38.1157C20.8399 38.5738 22.4688 38.7272 24.1356 38.5757C24.159 38.5738 24.1707 38.5592 24.1707 38.5317L24.1695 38.492C24.1695 38.4853 24.1671 38.482 24.1622 38.482C22.6414 38.4281 21.1464 38.1138 19.6771 37.5393C19.128 37.3235 19.2804 36.4859 19.382 36.0131C19.4634 35.6392 19.5211 35.2777 19.555 34.9284C19.5598 34.8782 19.5808 34.8659 19.6179 34.8915C20.5839 35.5465 21.6737 35.8744 22.8873 35.8754C22.9027 35.8754 22.9107 35.8664 22.9115 35.8484V35.847C22.9139 35.8252 22.9059 35.8124 22.8873 35.8086C21.956 35.6184 20.952 35.3117 20.2081 34.6927C19.6598 34.2365 19.4034 33.6014 19.4389 32.7874C19.5284 30.7515 20.1017 29.1784 21.7757 28.3691C22.0418 28.2399 22.3067 28.2087 22.5499 28.027C22.5652 28.0147 22.5688 27.9986 22.5607 27.9787L22.5474 27.946C22.545 27.9413 22.5414 27.9399 22.5366 27.9418C22.368 28.0251 22.2003 28.0549 22.0334 28.0312C21.9656 28.0227 21.9628 28.0014 22.0249 27.9673C22.5361 27.6862 23.0792 27.4586 23.6542 27.2844C23.701 27.2712 23.7227 27.2925 23.7195 27.3483C23.6699 28.4458 23.8514 29.9564 24.5505 30.7401C24.7755 30.9928 24.8154 31.3932 24.8021 31.7339C24.7706 32.4751 25.1601 32.556 25.6705 32.5759C25.723 32.5778 25.7588 32.6071 25.7782 32.6639C25.8907 32.9989 25.8762 33.1622 26.2161 33.2616C26.2709 33.2767 26.3148 33.3118 26.3479 33.3667C26.5156 33.6468 26.7616 33.8115 27.0857 33.8607C27.1551 33.8712 27.1628 33.8508 27.1087 33.7997C26.8898 33.5938 26.5971 33.5257 26.5051 33.1778C26.4866 33.1059 26.4455 33.0647 26.3818 33.0543L26.2584 33.0359C26.2077 33.0277 26.1608 33.0002 26.1247 32.9576C26.0886 32.915 26.0655 32.8597 26.0588 32.8002C26.0286 32.5375 25.8992 32.2791 25.6512 32.2905C25.3839 32.3033 25.0488 32.3175 25.0682 31.8674C25.0787 31.6336 25.09 31.3989 25.102 31.1632C25.119 30.8125 24.9121 30.6464 24.7489 30.4065C24.5876 30.168 24.4723 29.8665 24.4029 29.5021C24.2687 28.7993 24.236 28.1349 24.2554 27.4378C24.3364 24.3597 27.4619 22.5765 29.3779 24.895C29.3811 24.8988 29.3847 24.8988 29.3888 24.895L29.413 24.8709C29.4299 24.8538 29.4319 24.8344 29.419 24.8127C29.1706 24.4 28.8715 24.0507 28.5215 23.7649C28.4796 23.7308 28.4792 23.6963 28.5203 23.6612L29.2388 23.0394C29.3162 22.9722 29.338 22.9911 29.3041 23.0962C29.2251 23.3404 29.1702 23.595 29.1396 23.86C29.1235 23.9982 29.1424 24.0053 29.1964 23.8813C29.3053 23.6314 29.4146 23.3844 29.5242 23.1402C30.0564 21.9589 31.0422 20.8885 32.253 20.8544C33.8811 20.8075 35.4076 21.851 35.5963 23.8927C35.7813 25.9016 34.7871 27.9517 33.2545 28.8959C33.2416 28.9034 33.2408 28.9124 33.2521 28.9228L33.2908 28.9598C33.2958 28.9649 33.302 28.9681 33.3087 28.9691C33.3153 28.9701 33.3222 28.9689 33.3283 28.9654C34.4621 28.353 35.2777 27.3053 35.7753 25.8221C36.4514 23.8032 35.9833 21.5273 34.1194 20.7309C34.0508 20.7015 34.0529 20.6821 34.1254 20.6727C34.877 20.5723 35.5301 20.7716 36.0849 21.2704C36.7562 21.8738 36.8385 22.6859 36.6909 23.6073C36.5663 24.3839 36.3256 25.1463 36.149 25.9186C35.9991 26.5755 35.8241 27.0876 35.6241 27.4548C35.033 28.5423 34.1823 29.2375 33.0719 29.5404C32.9929 29.5622 32.9921 29.5873 33.0695 29.6157C33.1461 29.6431 33.2267 29.6469 33.3114 29.627C34.7951 29.2806 35.77 28.2877 36.2361 26.6484C36.3393 26.284 36.4442 25.9229 36.5506 25.5651C36.9957 24.0687 37.7638 22.2344 36.478 21.0134C36.3345 20.8771 36.3535 20.8269 36.5349 20.8629C36.847 20.9244 37.1473 21.0001 37.436 21.0901C37.8376 21.215 38.3009 20.3873 38.4097 20.0636C38.6698 19.2983 38.8113 18.4479 39.1923 17.7267C39.3721 17.3859 39.6769 17.1271 40.1067 16.9501C40.1946 16.9141 40.2789 16.8677 40.3595 16.8109C40.4208 16.7693 40.416 16.7513 40.345 16.757C40.0402 16.7835 39.7636 16.8687 39.5153 17.0125C39.4782 17.0343 39.4754 17.0296 39.5068 16.9983C39.8673 16.6377 40.2809 16.4139 40.7478 16.3268C41.0107 16.2776 41.2913 16.3154 41.5897 16.4404C41.6397 16.4602 41.6469 16.4475 41.6115 16.402ZM27.4099 34.2057C27.3986 34.4178 27.3543 34.6269 27.2769 34.8333C27.0745 35.368 26.8555 35.899 26.6201 36.4262C26.4338 36.8436 26.3032 37.2923 26.164 37.7324C26.0963 37.9496 25.9608 38.208 25.7879 38.3315C25.3605 38.6335 25.0182 38.9364 24.761 39.2402C24.2953 39.791 23.9663 40.3249 23.2853 40.5861C23.0038 40.694 22.72 40.773 22.4337 40.8232C21.4879 40.9907 20.5589 41.6722 19.6941 42.0087C19.3747 42.1327 19.3824 42.1748 19.717 42.1351C19.9711 42.1057 20.2291 42.0253 20.4912 41.8937C21.35 41.4649 22.1217 41.1966 22.8063 41.0887C23.5284 40.9751 24.1441 40.6003 24.6303 39.9799C25.0762 39.4139 25.5645 38.9648 26.0951 38.6325C26.3261 38.4877 26.5293 38.1981 26.6104 37.8999C26.8934 36.8578 27.2067 35.9492 27.8659 35.1343C27.9804 34.9923 28.1147 34.9043 28.2687 34.8702C29.5734 34.5796 30.3338 33.6705 30.5499 32.1428C30.5983 31.7983 30.5798 31.2456 30.4943 30.4846C30.4927 30.4694 30.4854 30.4614 30.4725 30.4604H30.4387C30.425 30.4604 30.4177 30.468 30.4169 30.4831C30.404 30.7217 30.3935 30.9583 30.3854 31.193C30.331 32.7619 29.5267 34.2923 28.0159 34.1603C27.9853 34.1575 27.9615 34.1404 27.9445 34.1092C27.243 32.7902 26.3019 30.8991 26.7846 29.3346C26.9442 28.8149 27.3107 28.46 27.6397 28.0795C27.8389 27.8476 28.0377 27.5812 28.236 27.2802C28.767 26.4738 29.3585 25.8661 30.1326 25.4487C30.7652 25.1094 31.2563 24.7019 31.641 24.0233C31.649 24.0091 31.6478 23.9968 31.6373 23.9864L31.6132 23.9622C31.6099 23.9594 31.6071 23.9599 31.6047 23.9636C31.0168 24.692 30.3395 24.9631 29.5932 25.3763C28.5941 25.9314 27.8683 27.0857 27.1244 28.0199C26.6801 28.5783 26.4039 29.0421 26.2959 29.4112C25.7903 31.1291 26.5402 32.698 27.3712 34.0496C27.3994 34.0959 27.4123 34.148 27.4099 34.2057ZM38.163 26.522L38.1218 26.4965C38.1057 26.4861 38.0928 26.4899 38.0831 26.5078C37.888 26.8817 37.7178 27.1302 37.5727 27.2532C37.3848 27.4132 37.1985 27.5736 37.0139 27.7345C36.8502 27.8765 36.8635 27.9058 37.0538 27.8225C37.561 27.6001 37.9352 27.1836 38.1763 26.5731C38.1851 26.5514 38.1807 26.5343 38.163 26.522ZM36.0317 27.9219C36.5893 27.7586 37.0538 27.2802 37.3175 26.6853C37.3328 26.6503 37.3247 26.6266 37.2933 26.6143C37.2764 26.6077 37.2622 26.6129 37.251 26.6299C37.009 27.0133 36.6704 27.4236 36.3014 27.6365C36.1918 27.7 36.0934 27.7752 36.0063 27.8623C35.9426 27.9257 35.9511 27.9456 36.0317 27.9219ZM31.6228 30.2645C31.4112 30.4107 31.191 30.4846 30.9781 30.6095C30.7588 30.7382 30.7693 30.7756 31.0096 30.7217C32.0345 30.4926 32.6784 29.7671 32.9413 28.5452C32.9453 28.5281 32.9401 28.5173 32.9255 28.5125L32.8917 28.5026C32.8832 28.5003 32.8743 28.5014 32.8665 28.5059C32.8588 28.5103 32.8527 28.5176 32.8493 28.5267C32.576 29.3057 32.1671 29.885 31.6228 30.2645ZM34.7967 31.5849C34.596 31.6119 34.3794 31.5906 34.1859 31.5267C33.1433 31.1755 32.0865 31.1419 31.0156 31.4259C31.0043 31.4287 30.9995 31.4367 31.0011 31.45L31.006 31.4912C31.0068 31.5007 31.011 31.5095 31.0176 31.5156C31.0241 31.5217 31.0325 31.5247 31.041 31.5238C31.8587 31.4509 32.526 31.4585 33.0429 31.5465C33.5178 31.6289 33.9956 31.7339 34.4762 31.8617C34.7431 31.9318 34.9584 31.8631 35.1221 31.6559C35.1495 31.6218 35.1636 31.5816 35.1644 31.5352C35.1741 30.9375 34.5972 30.1665 34.1835 29.8968C34.0932 29.8372 34.0819 29.8537 34.1496 29.9465C34.4569 30.3639 34.856 30.7983 34.9358 31.3691C34.9393 31.394 34.9383 31.4195 34.9331 31.4441C34.9279 31.4686 34.9185 31.4916 34.9055 31.5118C34.8925 31.532 34.8762 31.5488 34.8575 31.5614C34.8388 31.574 34.8181 31.5819 34.7967 31.5849ZM24.4344 35.2194C22.7543 34.6941 21.2992 33.7401 20.017 32.3473C20.0041 32.3331 19.9916 32.3336 19.9795 32.3487L19.9565 32.3757C19.9517 32.3814 19.9513 32.3875 19.9553 32.3941C21.0633 33.9691 22.4656 34.9416 24.1622 35.3117C24.2469 35.3297 24.3332 35.3392 24.4211 35.3401C24.696 35.343 24.7005 35.3027 24.4344 35.2194ZM24.9315 38.7021C24.9315 37.3917 25.1819 36.1607 25.6633 35.0008C25.7068 34.8938 25.6915 34.8806 25.6173 34.9611C25.4996 35.0879 25.3903 35.2582 25.2895 35.4722C24.8194 36.4707 24.671 37.5459 24.8444 38.6978C24.8476 38.7177 24.8581 38.7267 24.8759 38.7248L24.9158 38.7206C24.9263 38.7196 24.9315 38.7135 24.9315 38.7021Z" fill="black"/>
<path d="M12.916 106L9.738 96.116H11.922L14.246 103.718H13.392L15.66 96.116H17.382L19.65 103.718H18.81L21.12 96.116H23.29L20.112 106H18.39L16.108 98.398H16.92L14.638 106H12.916ZM23.381 106V99.196H25.523V106H23.381ZM25.523 102.262L24.627 101.562C24.8043 100.769 25.103 100.153 25.523 99.714C25.943 99.2753 26.5263 99.056 27.273 99.056C27.5997 99.056 27.8843 99.1073 28.127 99.21C28.379 99.3033 28.5983 99.4527 28.785 99.658L27.511 101.268C27.4177 101.165 27.301 101.086 27.161 101.03C27.021 100.974 26.8623 100.946 26.685 100.946C26.3303 100.946 26.0457 101.058 25.831 101.282C25.6257 101.497 25.523 101.823 25.523 102.262ZM32.5242 106.154C31.7869 106.154 31.1289 106.005 30.5502 105.706C29.9809 105.398 29.5329 104.973 29.2062 104.432C28.8795 103.891 28.7162 103.279 28.7162 102.598C28.7162 101.917 28.8749 101.31 29.1922 100.778C29.5189 100.237 29.9575 99.812 30.5082 99.504C31.0589 99.196 31.6795 99.042 32.3702 99.042C33.0422 99.042 33.6349 99.1867 34.1482 99.476C34.6615 99.7653 35.0629 100.167 35.3522 100.68C35.6509 101.193 35.8002 101.781 35.8002 102.444C35.8002 102.565 35.7909 102.696 35.7722 102.836C35.7629 102.967 35.7395 103.121 35.7022 103.298L29.8362 103.312V101.842L34.7922 101.828L33.8682 102.444C33.8589 102.052 33.7982 101.73 33.6862 101.478C33.5742 101.217 33.4062 101.021 33.1822 100.89C32.9675 100.75 32.7015 100.68 32.3842 100.68C32.0482 100.68 31.7542 100.759 31.5022 100.918C31.2595 101.067 31.0682 101.282 30.9282 101.562C30.7975 101.842 30.7322 102.183 30.7322 102.584C30.7322 102.985 30.8022 103.331 30.9422 103.62C31.0915 103.9 31.2969 104.119 31.5582 104.278C31.8289 104.427 32.1462 104.502 32.5102 104.502C32.8462 104.502 33.1495 104.446 33.4202 104.334C33.6909 104.213 33.9289 104.035 34.1342 103.802L35.3102 104.978C34.9742 105.37 34.5682 105.664 34.0922 105.86C33.6162 106.056 33.0935 106.154 32.5242 106.154ZM39.3121 106.168C38.9108 106.168 38.5141 106.117 38.1221 106.014C37.7395 105.911 37.3801 105.767 37.0441 105.58C36.7175 105.384 36.4375 105.16 36.2041 104.908L37.4221 103.676C37.6461 103.919 37.9121 104.11 38.2201 104.25C38.5281 104.381 38.8641 104.446 39.2281 104.446C39.4801 104.446 39.6715 104.409 39.8021 104.334C39.9421 104.259 40.0121 104.157 40.0121 104.026C40.0121 103.858 39.9281 103.732 39.7601 103.648C39.6015 103.555 39.3961 103.475 39.1441 103.41C38.8921 103.335 38.6261 103.256 38.3461 103.172C38.0661 103.088 37.8001 102.971 37.5481 102.822C37.2961 102.673 37.0908 102.467 36.9321 102.206C36.7735 101.935 36.6941 101.595 36.6941 101.184C36.6941 100.745 36.8061 100.367 37.0301 100.05C37.2541 99.7233 37.5715 99.4667 37.9821 99.28C38.3928 99.0933 38.8735 99 39.4241 99C40.0028 99 40.5348 99.1027 41.0201 99.308C41.5148 99.504 41.9161 99.798 42.2241 100.19L41.0061 101.422C40.7915 101.17 40.5488 100.993 40.2781 100.89C40.0168 100.787 39.7601 100.736 39.5081 100.736C39.2655 100.736 39.0835 100.773 38.9621 100.848C38.8408 100.913 38.7801 101.011 38.7801 101.142C38.7801 101.282 38.8595 101.394 39.0181 101.478C39.1768 101.562 39.3821 101.637 39.6341 101.702C39.8861 101.767 40.1521 101.847 40.4321 101.94C40.7121 102.033 40.9781 102.159 41.2301 102.318C41.4821 102.477 41.6875 102.691 41.8461 102.962C42.0048 103.223 42.0841 103.569 42.0841 103.998C42.0841 104.661 41.8321 105.188 41.3281 105.58C40.8335 105.972 40.1615 106.168 39.3121 106.168ZM44.2122 106V96.382H46.3542V106H44.2122ZM42.6722 101.016V99.196H47.8942V101.016H42.6722ZM48.838 106V95.836H50.98V106H48.838ZM52.4884 106V99.196H54.6304V106H52.4884ZM53.5664 98.258C53.2304 98.258 52.9504 98.146 52.7264 97.922C52.5118 97.6887 52.4044 97.4087 52.4044 97.082C52.4044 96.746 52.5118 96.466 52.7264 96.242C52.9504 96.018 53.2304 95.906 53.5664 95.906C53.9024 95.906 54.1778 96.018 54.3924 96.242C54.6071 96.466 54.7144 96.746 54.7144 97.082C54.7144 97.4087 54.6071 97.6887 54.3924 97.922C54.1778 98.146 53.9024 98.258 53.5664 98.258ZM60.6328 106V102.122C60.6328 101.767 60.5208 101.483 60.2968 101.268C60.0821 101.044 59.8068 100.932 59.4708 100.932C59.2375 100.932 59.0321 100.983 58.8548 101.086C58.6775 101.179 58.5375 101.319 58.4348 101.506C58.3321 101.683 58.2808 101.889 58.2808 102.122L57.4548 101.716C57.4548 101.184 57.5715 100.717 57.8048 100.316C58.0381 99.9147 58.3601 99.6067 58.7708 99.392C59.1908 99.168 59.6621 99.056 60.1848 99.056C60.6888 99.056 61.1321 99.1773 61.5148 99.42C61.9068 99.6533 62.2148 99.966 62.4388 100.358C62.6628 100.75 62.7748 101.179 62.7748 101.646V106H60.6328ZM56.1388 106V99.196H58.2808V106H56.1388ZM67.0345 109.052C66.2879 109.052 65.6299 108.921 65.0605 108.66C64.5005 108.408 64.0572 108.049 63.7305 107.582L65.0465 106.266C65.2892 106.555 65.5599 106.775 65.8585 106.924C66.1665 107.073 66.5352 107.148 66.9645 107.148C67.4965 107.148 67.9119 107.017 68.2105 106.756C68.5185 106.495 68.6725 106.126 68.6725 105.65V103.914L69.0365 102.43L68.7145 100.946V99.196H70.8145V105.594C70.8145 106.294 70.6512 106.901 70.3245 107.414C69.9979 107.927 69.5499 108.329 68.9805 108.618C68.4112 108.907 67.7625 109.052 67.0345 109.052ZM66.9365 105.79C66.3112 105.79 65.7559 105.641 65.2705 105.342C64.7852 105.043 64.4025 104.637 64.1225 104.124C63.8425 103.611 63.7025 103.041 63.7025 102.416C63.7025 101.781 63.8425 101.212 64.1225 100.708C64.4025 100.195 64.7852 99.7933 65.2705 99.504C65.7559 99.2053 66.3112 99.056 66.9365 99.056C67.4032 99.056 67.8185 99.1447 68.1825 99.322C68.5559 99.49 68.8545 99.7327 69.0785 100.05C69.3119 100.358 69.4425 100.717 69.4705 101.128V103.718C69.4425 104.119 69.3119 104.479 69.0785 104.796C68.8545 105.104 68.5559 105.347 68.1825 105.524C67.8092 105.701 67.3939 105.79 66.9365 105.79ZM67.3425 103.886C67.6412 103.886 67.8979 103.821 68.1125 103.69C68.3365 103.559 68.5045 103.387 68.6165 103.172C68.7379 102.948 68.7985 102.696 68.7985 102.416C68.7985 102.136 68.7379 101.884 68.6165 101.66C68.5045 101.436 68.3365 101.259 68.1125 101.128C67.8979 100.997 67.6412 100.932 67.3425 100.932C67.0532 100.932 66.7965 100.997 66.5725 101.128C66.3485 101.259 66.1759 101.436 66.0545 101.66C65.9332 101.884 65.8725 102.136 65.8725 102.416C65.8725 102.677 65.9332 102.925 66.0545 103.158C66.1759 103.382 66.3439 103.559 66.5585 103.69C66.7825 103.821 67.0439 103.886 67.3425 103.886Z" fill="white"/>
</svg>
