<svg width="82" height="109" viewBox="0 0 82 109" fill="none" xmlns="http://www.w3.org/2000/svg">
<circle cx="41" cy="41" r="41" fill="#F1F1F0"/>
<path d="M69.6348 68.8252C69.352 68.8773 69.0677 68.9287 68.7822 68.9795C68.071 69.106 67.3699 69.0688 66.679 68.8678C66.2696 68.7494 65.8657 68.6286 65.4671 68.5054C64.6801 68.2625 63.8806 68.1996 63.0686 68.3166C62.2362 68.4364 61.3684 68.5978 60.5269 68.5085C60.1933 68.4726 59.9927 68.3048 59.925 68.005C59.8083 67.4843 59.9037 66.9027 59.923 66.3404C59.9555 65.9966 59.9223 65.666 59.8235 65.3487C59.7558 65.1308 59.6523 64.896 59.5129 64.6442C58.9932 63.7084 58.4441 62.802 57.7965 61.9564C57.7735 61.926 57.744 61.9175 57.7082 61.9311C56.842 62.2579 56.0543 62.5137 55.3452 62.6984C54.8431 62.829 54.4756 62.6626 54.2428 62.199C53.9113 61.5393 53.6095 60.8835 53.3374 60.2319C53.1131 59.6939 52.9659 59.1194 52.7497 58.5774C52.4381 57.7978 51.8991 57.4883 51.2251 57.0863C50.9464 56.9205 50.7109 56.6891 50.5187 56.392C50.0802 55.715 49.7483 54.9781 49.3626 54.2716C49.2083 53.9894 49.0103 53.6778 48.7779 53.4687C48.5065 53.2251 48.2267 52.9731 47.9385 52.7125C46.9945 51.8609 46.222 50.8307 45.4202 49.8237C44.5797 48.7681 43.4963 47.6563 42.17 46.4883C41.9427 46.2874 41.6571 46.1097 41.3133 45.9555C41.2511 45.927 41.2233 45.9467 41.2301 46.0143C41.379 47.5599 41.5715 49.1264 41.8077 50.7139C41.8095 50.7272 41.8064 50.7407 41.7989 50.7516C41.7913 50.7626 41.7799 50.7701 41.7671 50.7728C41.1506 50.9095 40.5176 50.969 39.8679 50.9514C39.8525 50.9508 39.8378 50.945 39.826 50.9349C39.8142 50.9247 39.8061 50.9109 39.803 50.8956C39.332 48.558 39.0935 46.2173 38.8864 43.8533C38.8837 43.8168 38.8647 43.7938 38.8296 43.7843C38.5744 43.7173 38.32 43.6814 38.0663 43.6767C38.0455 43.6761 38.0249 43.6799 38.0058 43.688C37.9867 43.696 37.9696 43.7081 37.9556 43.7234C37.1328 44.6105 36.2767 45.521 35.3876 46.4548C33.1268 48.8314 31.1579 51.4688 29.4811 54.367C28.8163 55.5171 28.2367 56.793 27.4947 57.9521C27.1577 58.4779 26.8312 58.8992 26.5152 59.2158C26.101 59.6313 25.8023 60.0113 25.6189 60.3557C25.3455 60.8693 25.065 61.4408 24.7774 62.0701C24.6685 62.309 24.5379 62.5252 24.3856 62.7187C24.3542 62.7591 24.3109 62.7886 24.2618 62.8031C24.2126 62.8177 24.1601 62.8166 24.1116 62.7999C22.7778 62.3459 21.4728 61.7842 20.1966 61.115C20.1648 61.0987 20.1377 61.1045 20.1154 61.1322C19.6505 61.7277 19.1054 62.3574 18.4802 63.0212C18.2217 63.2959 18.0511 63.6255 17.9686 64.0098C17.9124 64.2717 17.8045 64.4764 17.6448 64.6239C17.0845 65.1436 16.7353 65.775 16.5973 66.518C16.4511 67.1906 16.2948 67.8839 16.1283 68.5978C16.037 68.9869 15.8242 69.2363 15.4899 69.3459C15.3166 69.3175 15.1718 69.2407 15.0554 69.1155C15.023 69.081 14.9854 69.0725 14.9428 69.0901C14.7533 69.1672 14.5753 69.1381 14.4089 69.0028C14.3629 68.9649 14.3101 68.9476 14.2505 68.951C14.0516 68.9632 13.8993 68.8793 13.7938 68.6993C13.7834 68.682 13.7691 68.6673 13.752 68.6564C13.7349 68.6454 13.7155 68.6386 13.6953 68.6364C13.4327 68.6066 13.2879 68.4618 13.2609 68.2019C13.2561 68.16 13.2382 68.1245 13.2071 68.0954C12.9993 67.9039 12.9479 67.6447 13.0528 67.3178C13.5217 65.8531 14.5885 64.7315 15.1803 63.3186C15.2412 63.1735 15.3549 63.0182 15.4757 62.9167C16.0278 62.4538 16.4014 62.0194 16.7485 61.3312C16.9772 60.8778 17.2171 60.3639 17.4682 59.7893C17.4858 59.7494 17.4753 59.719 17.4367 59.698L16.9789 59.4473C16.9534 59.4335 16.9333 59.4114 16.9222 59.3845C16.9111 59.3577 16.9097 59.3279 16.918 59.3001C17.2418 58.2089 17.8194 57.266 18.3868 56.2875C18.8029 55.5688 19.1338 54.8248 19.479 54.0767C19.636 53.737 19.8126 53.4132 20.0088 53.1053C20.7691 51.9167 21.642 50.7738 22.6773 49.8095C23.0336 49.4776 23.2265 49.0513 23.4427 48.6219C23.8284 47.8546 24.5186 47.4364 25.2951 47.14C25.329 47.127 25.3597 47.1066 25.3848 47.0805C25.4098 47.0543 25.4288 47.023 25.4403 46.9888C25.8084 45.8742 26.2205 44.8386 26.6766 43.8817C26.9892 43.226 27.3932 42.8078 27.8926 42.3247C28.3828 41.8486 27.9758 40.9442 28.6356 40.5494C28.9056 40.387 29.1421 40.3149 29.1421 39.9312C29.1421 39.6115 29.0893 39.1852 29.4791 39.0664C29.5183 39.0549 29.5362 39.0289 29.5329 38.9883C29.5024 38.5829 29.724 38.2862 30.1977 38.0981C30.2062 38.0947 30.2138 38.0893 30.2197 38.0823C30.2255 38.0754 30.2296 38.067 30.2315 38.058C30.2334 38.0489 30.2331 38.0396 30.2306 38.0306C30.228 38.0217 30.2234 38.0135 30.217 38.0067C29.721 37.5033 29.182 37.0746 28.6001 36.7207C28.5927 36.7164 28.5864 36.7106 28.5814 36.7037C28.5764 36.6968 28.5728 36.689 28.5709 36.6807C28.569 36.6723 28.5688 36.6636 28.5703 36.6552C28.5719 36.6467 28.5751 36.6386 28.5797 36.6314C29.0751 35.8863 29.7176 35.3991 30.4911 34.8956C30.9796 34.5776 31.3227 34.3381 31.5203 34.177C32.5171 33.365 33.4265 32.2535 34.8527 32.3317C34.8946 32.3337 34.9146 32.3137 34.9125 32.2718C34.9031 31.9896 34.9586 31.6952 35.079 31.3887C35.2326 30.9969 35.3148 30.5615 35.3257 30.0824C35.327 30.0431 35.3081 30.0232 35.2688 30.0225C32.8571 29.9463 32.4968 27.4646 32.3293 25.6101C32.2704 24.9524 32.3963 24.389 32.6663 23.782C33.122 22.7589 33.2174 21.7063 33.3666 20.6446C33.4343 20.1628 33.5788 19.6905 33.8001 19.2276C34.0853 18.6297 34.7309 18.2055 34.7126 17.4848C34.7051 17.206 34.6967 16.9096 34.6872 16.5956C34.675 16.193 34.8672 16.0022 35.2637 16.0231C35.6251 16.0428 36.0007 16.0695 36.3904 16.1033C36.4364 16.1074 36.4649 16.0867 36.4757 16.0414C36.5745 15.6259 36.611 15.2399 36.5853 14.8833C36.584 14.866 36.5792 14.8492 36.5712 14.834C36.5632 14.8188 36.5521 14.8055 36.5386 14.7949C35.7885 14.193 34.8709 13.4226 34.7654 12.4512C34.6564 11.4524 34.8293 10.6045 35.284 9.90756C35.3111 9.8656 35.3101 9.82466 35.281 9.78474L35.0303 9.43658C35.0253 9.42961 35.0189 9.4237 35.0116 9.4192C35.0042 9.41471 34.9961 9.41171 34.9876 9.41039C34.9791 9.40907 34.9704 9.40945 34.9621 9.4115C34.9537 9.41356 34.9458 9.41726 34.9389 9.42237C34.761 9.55433 34.67 9.73094 34.6659 9.95222C34.6591 10.2818 34.6469 10.5974 34.6293 10.8992C34.6172 11.1138 34.5356 11.4003 34.3847 11.759C34.2 12.1965 34.4243 12.7009 34.6557 13.0937C35.2505 14.1068 35.2698 15.4537 34.1127 16.0922C34.0829 16.1084 34.0721 16.1331 34.0802 16.1663C34.3553 17.2523 34.0416 18.2542 33.5971 19.2855C33.3332 19.8975 32.7992 20.1898 32.1791 19.9138C32.1432 19.8975 32.1067 19.8962 32.0694 19.9097C31.9446 19.9564 31.8065 20.0092 31.6726 20.0082C31.1772 20.0054 30.893 19.7534 30.8199 19.252C30.8138 19.2066 30.7878 19.1856 30.7418 19.189C30.2068 19.2296 29.7237 19.0327 29.4608 18.58C29.4114 18.4954 29.43 18.4761 29.5166 18.5221C30.2068 18.8855 30.7448 18.1253 30.0993 17.6462C29.3948 17.1224 29.5329 16.2566 29.9064 15.5704C30.1554 15.1137 30.4159 14.6684 30.688 14.2346C30.7083 14.2015 30.7134 14.166 30.7032 14.1281C30.6768 14.0327 30.6504 13.9359 30.624 13.8378C30.418 13.0684 30.6697 12.1995 31.1407 11.5763C31.1589 11.5533 31.1684 11.5269 31.1691 11.4971C31.1989 10.0923 31.7162 9.01839 32.7211 8.27539C33.5142 7.6887 34.3773 7.62035 35.3104 8.07035C35.3477 8.08794 35.3852 8.08862 35.4231 8.07238C35.5842 8.00268 35.7371 8.02941 35.8819 8.15257C35.9243 8.18838 35.978 8.20786 36.0335 8.20749C36.089 8.20711 36.1425 8.18691 36.1844 8.15054C36.9538 7.48468 37.8572 7.09389 38.8864 7.01167C39.9776 6.92539 40.7825 7.32531 41.6148 7.95362C41.7941 8.08896 41.9877 8.20264 42.1954 8.29467C42.8883 8.60324 43.4219 9.08437 43.7961 9.73805C44.0753 10.2263 44.2691 10.9277 44.0143 11.4311C43.859 11.7366 43.925 12.1985 43.9057 12.5345C43.9037 12.5717 43.8922 12.6052 43.8712 12.635L43.6631 12.9354C43.6347 12.976 43.6385 13.0132 43.6743 13.0471L43.7555 13.1242C43.8151 13.1817 43.8036 13.2064 43.721 13.1983L43.5728 13.1841C43.5329 13.1807 43.5092 13.1986 43.5018 13.2379C43.3952 13.786 43.5911 14.1321 43.7647 14.6092C43.7823 14.6573 43.7874 14.7091 43.7794 14.7598C43.7715 14.8104 43.7506 14.8582 43.719 14.8985C43.629 15.0122 43.5116 15.1154 43.3668 15.2081C43.3431 15.2232 43.3264 15.2471 43.3203 15.2747C43.3142 15.3022 43.3192 15.3312 43.3343 15.3552C43.4662 15.5643 43.3728 15.7399 43.2186 15.8993C43.1854 15.9338 43.1759 15.9741 43.1901 16.0201C43.2906 16.3429 43.043 16.4302 42.8105 16.552C42.7774 16.5696 42.7564 16.597 42.7476 16.6342C42.6542 17.0361 42.3974 17.4959 41.9965 17.5772C41.4565 17.6858 40.7165 17.363 40.2161 17.1234C40.1796 17.1065 40.1494 17.114 40.1258 17.1458C39.9126 17.4273 39.7719 17.7379 39.7035 18.0776C39.6967 18.1141 39.7116 18.1354 39.7482 18.1415C40.4688 18.2664 40.8972 18.6947 41.3022 19.2966C41.3232 19.3284 41.3526 19.3484 41.3905 19.3565C41.4595 19.3727 41.5289 19.3863 41.5986 19.3971C42.2238 19.4925 42.6177 19.8924 42.9719 20.3918C43.4172 21.0212 43.9308 21.1815 44.5127 20.873C45.0456 20.5908 45.4831 21.1714 45.8028 21.4931C45.8346 21.5256 45.8648 21.5239 45.8932 21.4881C46.1544 21.1565 46.4602 20.945 46.8108 20.8537C47.3609 20.7106 47.9831 20.7786 48.5384 20.4893C48.9193 20.291 49.2847 20.1093 49.6346 19.9442C50.0257 19.7595 50.3735 19.7717 50.678 19.9808C50.7092 20.0024 50.7423 20.0068 50.7775 19.9939C51.2444 19.8268 51.6829 19.6603 52.093 19.4945C52.4598 19.3457 52.7396 19.0764 52.9324 18.6866C53.1104 18.3266 53.2918 17.9774 53.4765 17.6391C53.6572 17.3112 54.05 17.2432 54.2916 17.5376C54.3139 17.5646 54.3396 17.5687 54.3687 17.5497C54.6116 17.3988 54.814 17.4618 54.9757 17.7385C55.0055 17.7893 55.0481 17.8059 55.1036 17.7883C55.4487 17.6817 55.5817 17.9314 55.7045 18.1801C55.7144 18.1995 55.7283 18.2167 55.7453 18.2303C55.7623 18.2439 55.7819 18.2538 55.8029 18.2593C56.0344 18.3181 56.1399 18.4338 56.1826 18.6805C56.2252 18.92 56.2848 19.1481 56.3612 19.3646C56.3907 19.4468 56.3673 19.5991 56.3206 19.6762C55.8973 20.3685 55.3553 20.5126 54.6133 20.4842C54.5646 20.4829 54.5203 20.4957 54.4804 20.5228C53.5831 21.1328 52.7203 21.821 51.7032 22.2372C51.6855 22.2444 51.6706 22.2572 51.6609 22.2737C51.6511 22.2903 51.6471 22.3095 51.6494 22.3285C51.7712 23.2827 51.9397 24.1383 52.2473 25.1097C52.4652 25.7999 52.6242 26.5365 52.7244 27.3194C52.7781 27.7407 52.7101 28.1822 52.1904 28.1995C51.5774 28.2188 50.9633 28.4076 50.3776 28.6085C49.6661 28.8542 48.9697 28.8958 48.2095 28.8917C47.4695 28.8877 46.8006 28.8592 46.1439 28.5294C46.0613 28.4881 46.042 28.5084 46.086 28.5903C46.2342 28.8684 46.4525 29.2013 46.3134 29.521C46.2336 29.7031 46.174 29.901 46.1348 30.1148C46.0576 30.5259 45.7785 30.8193 45.4577 31.0609C45.43 31.0818 45.4222 31.1086 45.4344 31.141C45.592 31.5633 45.5985 31.9893 45.4537 32.419C45.4415 32.4535 45.4493 32.4829 45.477 32.5073C45.7084 32.7143 45.9866 32.9143 46.0201 33.2503C46.0451 33.5067 46.0725 33.7534 46.1023 33.9902C46.1578 34.4247 46.0346 34.8036 45.7328 35.1271C45.7024 35.1589 45.7054 35.187 45.7419 35.2113C46.5776 35.7669 47.2875 36.4108 47.8715 37.1429C48.6175 38.0798 49.4529 38.9456 50.2629 39.8175C50.4442 40.0124 50.4493 40.2232 50.2781 40.4499C50.2375 40.5034 50.2429 40.5514 50.2944 40.594C51.7519 41.7958 53.13 43.0569 54.4286 44.3771C54.7439 44.6985 55.2027 45.2466 55.805 46.0214C55.9329 46.1879 56.0486 46.3767 56.1318 46.5695C56.4038 47.1979 56.5987 47.8424 56.9043 48.4707C57.2122 49.1034 57.5153 49.7358 57.8137 50.3678C58.1372 51.0533 58.3646 51.6582 58.4958 52.1827C58.7526 53.2079 58.91 54.3427 59.3373 55.3658C59.6716 56.1643 59.9903 56.9009 60.2935 57.5756C60.6233 58.3094 60.8588 59.0829 61.1654 59.8249C61.2493 60.0279 61.2165 60.2289 61.0669 60.4278C61.0439 60.4582 61.0388 60.4914 61.0517 60.5273C61.9175 62.8405 62.9315 65.2218 65.3798 66.1861C65.9238 66.4003 66.4659 66.6043 66.9754 66.8895C67.7905 67.3463 68.5203 67.7695 69.4328 67.9512C69.8632 68.0365 70.2641 68.6222 69.6348 68.8252ZM31.3262 11.3453C31.3333 11.3486 31.3438 11.3444 31.3569 11.3331C31.37 11.3218 31.3855 11.3036 31.4026 11.2795C31.4196 11.2553 31.4379 11.2257 31.4563 11.1924C31.4747 11.1591 31.4929 11.1228 31.5099 11.0854C31.5441 11.0099 31.5712 10.9349 31.5852 10.8768C31.5992 10.8188 31.599 10.7825 31.5845 10.7759C31.5773 10.7727 31.5669 10.7768 31.5538 10.7881C31.5407 10.7994 31.5252 10.8177 31.5081 10.8418C31.491 10.866 31.4728 10.8955 31.4544 10.9288C31.436 10.9621 31.4178 10.9985 31.4008 11.0359C31.3666 11.1114 31.3394 11.1864 31.3255 11.2445C31.3115 11.3025 31.3117 11.3388 31.3262 11.3453ZM30.7986 13.8581L31.1813 12.0594C31.1813 12.0592 31.1812 12.0589 31.181 12.0587C31.1808 12.0585 31.1805 12.0584 31.1803 12.0584L31.1732 12.0564C31.1068 12.0426 31.0235 12.1221 30.9414 12.2776C30.8594 12.4331 30.7854 12.6518 30.7357 12.8857L30.7276 12.9222C30.7029 13.0382 30.685 13.1545 30.6748 13.2643C30.6646 13.3741 30.6624 13.4754 30.6682 13.5623C30.6741 13.6493 30.6879 13.7201 30.7089 13.7709C30.7298 13.8216 30.7576 13.8512 30.7905 13.8581L30.7976 13.8591C30.7977 13.8591 30.7979 13.8591 30.798 13.859C30.7981 13.859 30.7982 13.8589 30.7983 13.8588C30.7984 13.8587 30.7985 13.8586 30.7985 13.8585C30.7986 13.8583 30.7986 13.8582 30.7986 13.8581ZM33.6742 15.9683C33.6783 15.967 33.6796 15.9643 33.6783 15.9602C33.6126 15.6801 33.6343 15.426 33.7432 15.1979C33.9087 14.8508 34.1898 14.5564 34.1584 14.1321C34.1516 14.0421 34.131 14.0391 34.0965 14.123C34.0498 14.2367 34.0173 14.3514 33.999 14.4671C33.9625 14.6914 33.796 14.8975 33.6783 15.0863C33.5044 15.363 33.4817 15.6547 33.6103 15.9612C33.6132 15.9675 33.6182 15.9724 33.6244 15.9752C33.6305 15.978 33.6374 15.9785 33.6438 15.9764L33.6742 15.9683ZM34.0051 15.1634C33.8887 15.3387 33.8471 15.5197 33.8803 15.7064C33.889 15.7572 33.9121 15.7653 33.9493 15.7308C34.3989 15.3157 34.6517 14.7127 34.3705 14.1463C34.361 14.1274 34.3455 14.1172 34.3238 14.1159C34.2731 14.1112 34.2531 14.1338 34.2639 14.1839C34.3401 14.5493 34.2061 14.8619 34.0051 15.1634ZM30.0769 17.3132C29.9105 16.96 29.8739 16.6484 29.8861 16.2657C29.8908 16.1033 29.8668 16.0989 29.814 16.2525C29.6631 16.6924 29.7244 17.0635 29.9978 17.366C30.1426 17.5257 30.169 17.5081 30.0769 17.3132ZM32.5181 18.1496C32.6044 17.8614 32.6125 17.4584 32.4156 17.2219C32.3844 17.184 32.3719 17.1894 32.378 17.2381L32.4937 18.1476C32.4985 18.1862 32.5066 18.1868 32.5181 18.1496ZM30.5763 17.9558C30.5936 18.2237 30.5235 18.5018 30.3256 18.6917C30.2877 18.7282 30.2945 18.7407 30.3459 18.7292C30.688 18.65 30.758 18.2136 30.6271 17.9426C30.5871 17.8587 30.5702 17.8631 30.5763 17.9558ZM33.325 18.0786C33.2489 18.4694 33.0956 18.8561 32.8591 19.1647C32.803 19.2384 32.8131 19.2492 32.8896 19.1971C33.3078 18.9109 33.4868 18.5391 33.4265 18.0816C33.3995 17.8746 33.3656 17.8735 33.325 18.0786ZM31.3295 19.7879L30.9783 19.2682C30.9776 19.267 30.9766 19.2661 30.9755 19.2653C30.9744 19.2645 30.9731 19.264 30.9718 19.2637C30.9705 19.2634 30.9691 19.2634 30.9678 19.2636C30.9665 19.2639 30.9652 19.2644 30.9641 19.2652L30.962 19.2672C30.9399 19.2832 30.9369 19.3252 30.9536 19.3841C30.9704 19.443 31.0055 19.5141 31.0514 19.5818L31.0656 19.6042C31.0884 19.638 31.1133 19.6699 31.1388 19.6982C31.1642 19.7265 31.1897 19.7505 31.2138 19.769C31.238 19.7875 31.2603 19.8 31.2794 19.8058C31.2985 19.8117 31.3142 19.8108 31.3254 19.8031L31.3274 19.8021C31.3296 19.8005 31.331 19.7981 31.3314 19.7954C31.3318 19.7928 31.3311 19.79 31.3295 19.7879ZM33.2142 19.5923C33.2097 19.5751 33.1933 19.5612 33.166 19.5515C33.1386 19.5417 33.1007 19.5361 33.0546 19.5352C33.0085 19.5342 32.955 19.5379 32.8971 19.546C32.8393 19.554 32.7783 19.5663 32.7175 19.5821C32.5948 19.6141 32.4807 19.6585 32.4003 19.7056C32.32 19.7527 32.2799 19.7986 32.2889 19.8333C32.2934 19.8504 32.3097 19.8643 32.3371 19.8741C32.3645 19.8839 32.4023 19.8894 32.4485 19.8904C32.4946 19.8913 32.5481 19.8877 32.6059 19.8796C32.6638 19.8715 32.7248 19.8593 32.7856 19.8434C32.9083 19.8115 33.0224 19.767 33.1027 19.7199C33.1831 19.6728 33.2232 19.6269 33.2142 19.5923Z" fill="black"/>
<path d="M3.374 106V96.256H5.572V106H3.374ZM0.28 98.034V96.116H8.666V98.034H0.28ZM10.9125 106.14C10.2871 106.14 9.72712 105.986 9.23245 105.678C8.74712 105.37 8.35979 104.95 8.07045 104.418C7.79045 103.886 7.65045 103.279 7.65045 102.598C7.65045 101.917 7.79045 101.31 8.07045 100.778C8.35979 100.246 8.74712 99.826 9.23245 99.518C9.72712 99.21 10.2871 99.056 10.9125 99.056C11.3698 99.056 11.7805 99.1447 12.1445 99.322C12.5178 99.4993 12.8211 99.7467 13.0545 100.064C13.2878 100.372 13.4185 100.727 13.4465 101.128V104.068C13.4185 104.469 13.2878 104.829 13.0545 105.146C12.8305 105.454 12.5318 105.697 12.1585 105.874C11.7851 106.051 11.3698 106.14 10.9125 106.14ZM11.3465 104.208C11.8038 104.208 12.1725 104.059 12.4525 103.76C12.7325 103.452 12.8725 103.065 12.8725 102.598C12.8725 102.281 12.8071 102.001 12.6765 101.758C12.5551 101.515 12.3778 101.329 12.1445 101.198C11.9205 101.058 11.6591 100.988 11.3605 100.988C11.0618 100.988 10.7958 101.058 10.5625 101.198C10.3385 101.329 10.1565 101.515 10.0165 101.758C9.88579 102.001 9.82045 102.281 9.82045 102.598C9.82045 102.906 9.88579 103.181 10.0165 103.424C10.1471 103.667 10.3291 103.858 10.5625 103.998C10.7958 104.138 11.0571 104.208 11.3465 104.208ZM12.7885 106V104.166L13.1105 102.514L12.7885 100.862V99.196H14.8885V106H12.7885ZM19.7566 106.154C19.0193 106.154 18.3613 106.005 17.7826 105.706C17.2133 105.398 16.7653 104.973 16.4386 104.432C16.112 103.891 15.9486 103.279 15.9486 102.598C15.9486 101.917 16.1073 101.31 16.4246 100.778C16.7513 100.237 17.19 99.812 17.7406 99.504C18.2913 99.196 18.912 99.042 19.6026 99.042C20.2746 99.042 20.8673 99.1867 21.3806 99.476C21.894 99.7653 22.2953 100.167 22.5846 100.68C22.8833 101.193 23.0326 101.781 23.0326 102.444C23.0326 102.565 23.0233 102.696 23.0046 102.836C22.9953 102.967 22.972 103.121 22.9346 103.298L17.0686 103.312V101.842L22.0246 101.828L21.1006 102.444C21.0913 102.052 21.0306 101.73 20.9186 101.478C20.8066 101.217 20.6386 101.021 20.4146 100.89C20.2 100.75 19.934 100.68 19.6166 100.68C19.2806 100.68 18.9866 100.759 18.7346 100.918C18.492 101.067 18.3006 101.282 18.1606 101.562C18.03 101.842 17.9646 102.183 17.9646 102.584C17.9646 102.985 18.0346 103.331 18.1746 103.62C18.324 103.9 18.5293 104.119 18.7906 104.278C19.0613 104.427 19.3786 104.502 19.7426 104.502C20.0786 104.502 20.382 104.446 20.6526 104.334C20.9233 104.213 21.1613 104.035 21.3666 103.802L22.5426 104.978C22.2066 105.37 21.8006 105.664 21.3246 105.86C20.8486 106.056 20.326 106.154 19.7566 106.154ZM28.4205 106L26.0405 102.472L28.4065 99.196H30.8005L27.9445 102.878L28.0145 101.996L30.9405 106H28.4205ZM24.0665 106V95.836H26.2085V106H24.0665ZM33.088 106L30.736 99.196H32.836L34.292 104.138L33.676 104.152L35.286 99.196H37.022L38.646 104.152L38.016 104.138L39.486 99.196H41.586L39.234 106H37.484L35.902 101.296H36.434L34.824 106H33.088ZM45.5535 106.154C44.8535 106.154 44.2188 106 43.6495 105.692C43.0895 105.375 42.6462 104.945 42.3195 104.404C41.9928 103.863 41.8295 103.256 41.8295 102.584C41.8295 101.912 41.9928 101.31 42.3195 100.778C42.6462 100.246 43.0895 99.826 43.6495 99.518C44.2095 99.2007 44.8442 99.042 45.5535 99.042C46.2628 99.042 46.8975 99.196 47.4575 99.504C48.0175 99.812 48.4608 100.237 48.7875 100.778C49.1142 101.31 49.2775 101.912 49.2775 102.584C49.2775 103.256 49.1142 103.863 48.7875 104.404C48.4608 104.945 48.0175 105.375 47.4575 105.692C46.8975 106 46.2628 106.154 45.5535 106.154ZM45.5535 104.208C45.8615 104.208 46.1322 104.143 46.3655 104.012C46.5988 103.872 46.7762 103.681 46.8975 103.438C47.0282 103.186 47.0935 102.901 47.0935 102.584C47.0935 102.267 47.0282 101.991 46.8975 101.758C46.7668 101.515 46.5848 101.329 46.3515 101.198C46.1275 101.058 45.8615 100.988 45.5535 100.988C45.2548 100.988 44.9888 101.058 44.7555 101.198C44.5222 101.329 44.3402 101.515 44.2095 101.758C44.0788 102.001 44.0135 102.281 44.0135 102.598C44.0135 102.906 44.0788 103.186 44.2095 103.438C44.3402 103.681 44.5222 103.872 44.7555 104.012C44.9888 104.143 45.2548 104.208 45.5535 104.208ZM54.8379 106V102.122C54.8379 101.767 54.7259 101.483 54.5019 101.268C54.2872 101.044 54.0119 100.932 53.6759 100.932C53.4426 100.932 53.2372 100.983 53.0599 101.086C52.8826 101.179 52.7426 101.319 52.6399 101.506C52.5372 101.683 52.4859 101.889 52.4859 102.122L51.6599 101.716C51.6599 101.184 51.7766 100.717 52.0099 100.316C52.2432 99.9147 52.5652 99.6067 52.9759 99.392C53.3959 99.168 53.8672 99.056 54.3899 99.056C54.8939 99.056 55.3372 99.1773 55.7199 99.42C56.1119 99.6533 56.4199 99.966 56.6439 100.358C56.8679 100.75 56.9799 101.179 56.9799 101.646V106H54.8379ZM50.3439 106V99.196H52.4859V106H50.3439ZM61.2536 106.14C60.6096 106.14 60.0356 105.986 59.5316 105.678C59.0369 105.37 58.6449 104.95 58.3556 104.418C58.0756 103.886 57.9356 103.279 57.9356 102.598C57.9356 101.917 58.0756 101.31 58.3556 100.778C58.6449 100.246 59.0369 99.826 59.5316 99.518C60.0356 99.21 60.6096 99.056 61.2536 99.056C61.7203 99.056 62.1403 99.1447 62.5136 99.322C62.8963 99.4993 63.2089 99.7467 63.4516 100.064C63.7036 100.372 63.8436 100.727 63.8716 101.128V103.998C63.8436 104.399 63.7083 104.763 63.4656 105.09C63.2229 105.407 62.9103 105.664 62.5276 105.86C62.1449 106.047 61.7203 106.14 61.2536 106.14ZM61.6316 104.208C61.9396 104.208 62.2056 104.143 62.4296 104.012C62.6536 103.872 62.8309 103.681 62.9616 103.438C63.0923 103.195 63.1576 102.915 63.1576 102.598C63.1576 102.281 63.0923 102.005 62.9616 101.772C62.8403 101.529 62.6629 101.338 62.4296 101.198C62.2056 101.058 61.9443 100.988 61.6456 100.988C61.3469 100.988 61.0809 101.058 60.8476 101.198C60.6236 101.338 60.4416 101.529 60.3016 101.772C60.1709 102.015 60.1056 102.29 60.1056 102.598C60.1056 102.906 60.1709 103.181 60.3016 103.424C60.4323 103.667 60.6143 103.858 60.8476 103.998C61.0809 104.138 61.3423 104.208 61.6316 104.208ZM65.1736 106H63.0736V104.166L63.3956 102.514L63.0316 100.862V95.836H65.1736V106ZM69.9578 106.154C69.2578 106.154 68.6231 106 68.0538 105.692C67.4938 105.375 67.0504 104.945 66.7238 104.404C66.3971 103.863 66.2338 103.256 66.2338 102.584C66.2338 101.912 66.3971 101.31 66.7238 100.778C67.0504 100.246 67.4938 99.826 68.0538 99.518C68.6138 99.2007 69.2484 99.042 69.9578 99.042C70.6671 99.042 71.3018 99.196 71.8618 99.504C72.4218 99.812 72.8651 100.237 73.1918 100.778C73.5184 101.31 73.6818 101.912 73.6818 102.584C73.6818 103.256 73.5184 103.863 73.1918 104.404C72.8651 104.945 72.4218 105.375 71.8618 105.692C71.3018 106 70.6671 106.154 69.9578 106.154ZM69.9578 104.208C70.2658 104.208 70.5364 104.143 70.7698 104.012C71.0031 103.872 71.1804 103.681 71.3018 103.438C71.4324 103.186 71.4978 102.901 71.4978 102.584C71.4978 102.267 71.4324 101.991 71.3018 101.758C71.1711 101.515 70.9891 101.329 70.7558 101.198C70.5318 101.058 70.2658 100.988 69.9578 100.988C69.6591 100.988 69.3931 101.058 69.1598 101.198C68.9264 101.329 68.7444 101.515 68.6138 101.758C68.4831 102.001 68.4178 102.281 68.4178 102.598C68.4178 102.906 68.4831 103.186 68.6138 103.438C68.7444 103.681 68.9264 103.872 69.1598 104.012C69.3931 104.143 69.6591 104.208 69.9578 104.208Z" fill="white"/>
</svg>
