<svg width="82" height="110" viewBox="0 0 82 110" fill="none" xmlns="http://www.w3.org/2000/svg">
<circle cx="41" cy="41" r="41" fill="#F1F1F0"/>
<path d="M37.1799 28.9878C37.1972 29.3347 37.0966 29.7504 36.8779 30.235C36.4332 31.2257 35.8283 32.0541 35.0634 32.7203C34.6711 33.0624 34.827 33.6589 34.8382 34.1108C34.8638 35.0446 34.9112 36.0788 34.9805 37.2132C35.0003 37.5411 34.9681 37.8961 34.7602 38.1724C34.1797 38.9406 33.4841 39.5306 32.8504 40.1904C31.3343 41.768 30.8281 43.6685 30.7501 45.8555C30.7369 46.2299 30.6185 46.6026 30.3949 46.9736C29.8577 47.8657 29.3812 48.8185 28.8527 49.6422C28.2017 50.6544 27.7759 51.3808 27.5754 51.8215C27.1042 52.8526 26.6401 53.8644 26.183 54.8568C25.9293 55.4068 25.4614 55.9064 24.8723 55.8328C24.2815 55.7605 23.6742 55.7636 23.0504 55.8419C21.835 55.9955 20.5329 56.8334 19.518 57.5642C18.7465 58.1185 18.0827 58.501 17.5265 58.7119C16.8483 58.9688 16.1304 58.8823 15.446 58.7687C15.0784 58.708 14.1922 58.5286 13.9979 58.9908C13.9046 59.2128 13.8229 59.4461 13.7528 59.6905C13.4607 60.7062 13.2701 61.569 13.181 62.2791C13.1042 62.8833 13.0448 63.4729 13.0027 64.0479C12.9508 64.7515 13.1785 65.5507 13.832 65.8437C14.2578 66.0348 14.7318 66.2504 15.186 66.2143C15.8915 66.1587 15.7071 65.326 15.3531 65.011C14.9521 64.6547 14.4249 63.8426 14.9905 63.3559C15.3395 63.0555 15.6263 62.731 15.8507 62.3824C16.2492 61.7614 16.8743 61.2708 17.5451 61.0694C18.2085 60.8706 18.9214 60.7944 19.6059 60.7092C20.4698 60.6007 21.2916 60.4402 22.0714 60.2276C23.0244 59.9668 23.991 59.9952 24.9391 59.6918C25.1833 59.6135 25.4466 59.5464 25.7287 59.4904C26.511 59.3368 27.3019 59.0321 27.9962 58.6641C28.797 58.2381 29.6114 57.8224 30.2946 57.1885C30.5108 56.9879 30.7942 56.6578 31.1449 56.1982C31.9164 55.1869 32.7056 54.1631 33.5126 53.1268C34.0683 52.4128 34.7169 51.7131 35.3258 51.0482C35.7194 50.617 36.1621 50.1707 36.6539 49.7094C36.9745 49.4072 37.2888 49.4602 37.6762 49.517C38.281 49.6065 38.9024 49.7111 39.5402 49.8307C40.1871 49.9521 40.813 50.0536 41.4178 50.1354C43.0293 50.3523 44.6894 50.7779 46.3983 51.4123C46.6268 51.4966 46.7564 51.6709 46.7869 51.9351C46.8438 52.4318 46.8942 52.9891 46.9379 53.6071C47.0444 55.1034 48.0803 56.1866 48.7227 57.4712C48.8547 57.7354 48.99 57.9949 49.1286 58.2497C49.5507 59.0269 49.8032 59.9333 49.9542 60.7854C49.974 60.8955 49.9579 61.0905 49.9059 61.3702C49.7813 62.0467 49.6522 62.7004 49.5185 63.3313C49.4673 63.5706 49.4661 63.8331 49.5148 64.1189C49.5767 64.4817 49.9913 64.5333 50.2822 64.5114C50.7438 64.4765 51.2092 64.4494 51.6548 64.3203C51.9258 64.2402 52.1907 64.1796 52.4741 64.2415C53.1301 64.3848 53.7576 64.4868 54.4161 64.4158C55.0807 64.3448 55.7416 64.421 56.4261 64.3603C56.6943 64.3362 56.934 64.2768 57.1452 64.1821C57.54 64.0053 57.5115 63.383 57.118 63.2267C56.3951 62.9419 55.7495 62.7314 55.181 62.5954C54.8451 62.5154 54.5419 62.3828 54.2713 62.1978C53.6029 61.7425 53.0888 61.2303 52.7291 60.6614C52.6103 60.4729 52.5278 60.2384 52.4816 59.9578C52.187 58.1701 51.9035 56.4586 51.6313 54.8232C51.5199 54.1493 51.4109 53.487 51.3045 52.8363C51.2195 52.3182 51.099 51.7832 50.9431 51.2315C50.7277 50.4681 50.4983 49.6723 50.2549 48.8443C50.0998 48.3176 49.7945 47.938 49.339 47.7056C47.3505 46.69 45.2835 45.6602 43.1382 44.6161C42.9352 44.5171 42.7586 44.4216 42.6084 44.3295C42.3791 44.1909 42.1588 44.1156 41.9475 44.1036C41.6294 44.0855 41.294 43.6685 41.1269 43.4258C41.098 43.3853 41.0848 43.3397 41.0873 43.2889C41.1451 42.0727 41.3357 40.9383 41.6591 39.8857C41.846 39.2737 42.1084 38.7185 42.5367 38.2305C42.8279 37.8992 43.1035 37.6379 43.3634 37.4469C43.705 37.1964 43.9947 36.9597 44.2323 36.7368C44.6878 36.3099 45.0562 35.7379 45.3376 35.021C45.7155 34.0613 46.0406 33.1098 46.3129 32.1664C46.3236 32.1294 46.3475 32.11 46.3847 32.1083C46.4597 32.1057 46.5006 32.1449 46.5072 32.2258C46.522 32.4057 46.5076 32.5796 46.4639 32.7474C46.265 33.522 46.0505 34.2924 45.8203 35.0584C45.746 35.3071 45.8335 35.4268 46.0827 35.4173C46.3673 35.4061 46.6504 35.3829 46.9317 35.3476C48.3167 35.1759 49.7574 35.1217 51.1399 34.9499C51.9456 34.8492 52.7551 34.7886 53.5571 34.6569C53.7568 34.6242 53.9437 34.5829 54.1178 34.5329C56.1064 33.9614 57.9687 33.2995 59.7047 32.5473C59.9053 32.4604 60.001 32.2998 59.9919 32.0657C59.9783 31.69 59.7221 30.2892 59.1763 30.4157C58.8124 30.5001 58.4646 30.5801 58.1329 30.6559C57.0132 30.9115 55.825 31.1757 54.5683 31.4486C53.6054 31.6577 52.6053 31.7352 51.6214 31.8901C51.2129 31.9534 50.672 31.7417 50.2327 31.659C49.2788 31.4809 48.3567 31.3031 47.4664 31.1258C46.9763 31.0277 46.5876 30.8009 46.3005 30.4454C46.2816 30.422 46.2686 30.3939 46.263 30.3638C46.2573 30.3337 46.2591 30.3026 46.2681 30.2734C46.2772 30.2442 46.2932 30.2179 46.3146 30.197C46.3361 30.176 46.3623 30.1611 46.3908 30.1537C46.5171 30.1209 46.6351 30.0689 46.7448 29.9974C48.391 28.9284 49.1311 27.3813 48.9653 25.3561C48.8563 24.025 48.0023 23.0438 46.9156 22.437C46.8034 22.3742 46.6838 22.3354 46.5567 22.3208C46.508 22.3156 46.4738 22.3363 46.454 22.3828C46.2101 22.956 46.0975 23.5525 45.9725 24.1657C45.9048 24.4954 45.8566 24.8315 45.8277 25.174C45.713 26.5314 45.734 27.9046 45.8908 29.2938C45.8991 29.3687 45.8698 29.4208 45.8029 29.45L45.7633 29.4681C45.7565 29.4711 45.7491 29.4725 45.7417 29.4723C45.7342 29.4721 45.7269 29.4702 45.7201 29.4668C45.7134 29.4634 45.7073 29.4585 45.7024 29.4525C45.6975 29.4465 45.6938 29.4395 45.6915 29.432C45.5686 29.0205 45.4968 28.554 45.4762 28.0324C45.3929 25.885 45.4535 23.948 45.6581 22.2214C45.6614 22.1945 45.6559 22.1672 45.6427 22.1438C45.6295 22.1205 45.6093 22.1023 45.5851 22.0923C45.2522 21.9554 44.9217 22.0058 44.5776 22.0342C43.3164 22.1375 42.1938 22.7288 41.8968 24.1205C41.7623 24.7488 41.6934 25.3173 41.6901 25.826C41.6864 26.3657 41.8237 26.8899 41.8559 27.4256C41.8634 27.5522 41.8403 27.6735 41.7866 27.7897C41.7771 27.81 41.7628 27.8274 41.7451 27.8405C41.7274 27.8536 41.7068 27.8618 41.6851 27.8646C41.5374 27.8844 41.4264 27.8896 41.3522 27.8801C40.0142 27.7123 38.8446 27.7445 37.5178 27.8646C37.0574 27.9059 36.571 27.9679 36.1217 28.0828C34.4153 28.5226 32.6314 28.8527 30.7699 29.073C30.2905 29.1298 29.7727 29.126 29.2166 29.0614C29.0532 29.0425 28.9055 28.9934 28.7735 28.9142C28.0296 28.4662 27.261 28.0918 26.4169 27.8117C25.6842 27.569 25.1181 27.3525 24.7188 27.1623C24.0174 26.8283 23.2884 26.3825 22.5318 25.8247C22.3024 25.6569 22.1687 25.4314 22.1308 25.1482C22.106 24.97 22.0033 24.7299 21.8783 24.6034C21.5886 24.3099 21.3494 23.9901 21.1604 23.6441C21.0243 23.3924 21.0527 23.0928 21.0218 22.8166C21.0152 22.758 20.9842 22.7245 20.929 22.7159C20.5279 22.6526 20.5515 23.4763 20.6022 23.7216C20.669 24.0478 20.5725 24.1136 20.3126 23.9191C19.7292 23.4819 19.1178 22.9663 18.4783 22.3724C18.3385 22.242 18.0909 22.304 17.9152 22.313C17.8574 22.3165 17.8207 22.347 17.805 22.4047C17.7101 22.7499 17.6911 23.0644 17.7481 23.3485C17.7963 23.5912 17.9671 23.7552 18.0736 23.9708C18.0922 24.0079 18.1008 24.0499 18.0983 24.0921C18.0711 24.5397 18.18 24.9227 18.4251 25.2412C18.4597 25.2868 18.4812 25.3389 18.4895 25.3974C18.5167 25.591 18.565 25.7757 18.7469 25.8764C19.4631 26.2732 20.1653 26.5929 20.8535 26.8356C21.4649 27.0512 21.8449 27.5109 22.304 27.9989C23.0112 28.7511 23.6882 29.5279 24.3351 30.3292C24.9185 31.0514 25.5233 31.502 26.1496 31.681C26.7453 31.8514 27.4298 31.9444 28.2029 31.9599C30.0677 31.996 31.9383 32.1466 33.8146 32.4117C34.0721 32.4479 34.3588 32.4449 34.6748 32.4027C34.8398 32.3803 34.9921 32.2981 35.1315 32.1561C35.6266 31.6491 35.9488 31.2433 36.0982 30.9386C36.3606 30.4024 36.6564 29.7401 36.9856 28.9517C37.1011 28.6754 37.1659 28.6874 37.1799 28.9878ZM43.3238 25.2825C43.2091 25.1241 43.1394 25.1435 43.1147 25.3406C43.0965 25.4817 43.1031 25.6212 43.1345 25.7589C43.4455 27.1326 43.9394 28.4357 44.616 29.6682C44.6196 29.6745 44.6215 29.6817 44.6214 29.689C44.6213 29.6963 44.6192 29.7034 44.6154 29.7097C44.6115 29.7159 44.6061 29.721 44.5997 29.7244C44.5933 29.7278 44.5861 29.7293 44.5789 29.7289C44.5409 29.7263 44.5091 29.7104 44.4836 29.6811C44.0615 29.2112 43.8078 28.6108 43.5206 28.0544C43.0441 27.13 42.8473 26.2443 42.6951 25.1869C42.5985 24.5091 42.5602 23.8223 42.9241 23.2426C42.9868 23.1428 43.0722 23.098 43.1803 23.1083C43.2595 23.1161 43.302 23.1613 43.3077 23.2439C43.3952 24.4437 43.849 25.4843 44.6692 26.3657C44.6778 26.3746 44.6837 26.3858 44.6863 26.3981C44.6889 26.4104 44.6881 26.4233 44.6839 26.4351C44.6798 26.4469 44.6724 26.4572 44.6628 26.4649C44.6532 26.4725 44.6416 26.477 44.6296 26.478C44.5826 26.4823 44.5388 26.4694 44.4984 26.4393C44.0124 26.0778 43.6209 25.6922 43.3238 25.2825ZM48.4318 24.85C47.8773 24.5156 47.3303 24.1076 46.7176 23.9049C46.6161 23.8714 46.5517 23.7629 46.6173 23.6596C46.6429 23.6183 46.6792 23.6002 46.7263 23.6054C46.869 23.6218 47.006 23.6635 47.1372 23.7306C47.6026 23.9708 48.0296 24.241 48.4182 24.5414C48.4759 24.5866 48.5173 24.6507 48.5358 24.7235C48.5465 24.7656 48.5382 24.8031 48.511 24.8358C48.5011 24.8474 48.4878 24.8552 48.4733 24.8578C48.4588 24.8604 48.4442 24.8576 48.4318 24.85ZM48.4912 25.9422L46.5344 24.9107C46.5333 24.9101 46.5324 24.9091 46.532 24.9079C46.5315 24.9067 46.5315 24.9054 46.5319 24.9042L46.5369 24.8926C46.574 24.8162 46.656 24.7675 46.7648 24.7571C46.8737 24.7466 47.0005 24.7754 47.1174 24.8371L48.2028 25.409C48.3197 25.4707 48.417 25.5601 48.4734 25.6577C48.5298 25.7553 48.5407 25.853 48.5036 25.9293L48.4986 25.9409C48.4983 25.9416 48.4978 25.9421 48.4972 25.9425C48.4966 25.943 48.4959 25.9432 48.4952 25.9434C48.4945 25.9435 48.4938 25.9434 48.4931 25.9432C48.4924 25.943 48.4918 25.9427 48.4912 25.9422ZM48.4269 26.9531L46.4849 26.0507C46.4802 26.0484 46.4765 26.0443 46.4746 26.0392C46.4728 26.0342 46.4729 26.0285 46.475 26.0236L46.4973 25.9719C46.5253 25.9071 46.6057 25.8698 46.721 25.8684C46.8363 25.8669 46.9771 25.9014 47.1124 25.9642L48.0692 26.4083C48.2043 26.4711 48.3228 26.5571 48.3989 26.6473C48.475 26.7376 48.5024 26.8248 48.4751 26.8899L48.4528 26.9428C48.4507 26.9477 48.4467 26.9516 48.4419 26.9535C48.437 26.9554 48.4316 26.9553 48.4269 26.9531ZM46.3748 26.8303C46.3886 26.7963 46.4148 26.7693 46.4477 26.7554C46.4805 26.7415 46.5173 26.7418 46.55 26.7562L48.2214 27.4927C48.2541 27.507 48.2799 27.5344 48.2933 27.5686C48.3066 27.6029 48.3064 27.6413 48.2926 27.6753L48.2906 27.6801C48.2768 27.7142 48.2506 27.7411 48.2178 27.755C48.1849 27.769 48.1481 27.7687 48.1155 27.7543L46.444 27.0178C46.4114 27.0034 46.3855 26.9761 46.3722 26.9418C46.3589 26.9076 46.3591 26.8692 46.3729 26.8351L46.3748 26.8303ZM46.3347 27.9638C46.3463 27.9329 46.3693 27.9081 46.3985 27.8948C46.4277 27.8816 46.4607 27.881 46.4904 27.8932L47.7156 28.3966C47.7453 28.4088 47.769 28.4327 47.7817 28.4632C47.7944 28.4937 47.795 28.5281 47.7833 28.559L47.7788 28.571C47.7671 28.602 47.7442 28.6268 47.715 28.64C47.6858 28.6532 47.6527 28.6538 47.6231 28.6417L46.3978 28.1382C46.3682 28.126 46.3444 28.1021 46.3317 28.0716C46.319 28.0412 46.3184 28.0067 46.3301 27.9758L46.3347 27.9638ZM39.3558 33.3594C39.0785 34.0824 38.7823 34.7305 38.4671 35.3037C37.3466 37.3401 36.0829 39.2733 34.6761 41.1031C34.6026 41.1987 34.5081 41.2529 34.3926 41.2658C34.3514 41.271 34.3192 41.2551 34.2961 41.218C34.2793 41.1912 34.2708 41.1596 34.2716 41.1275C34.2725 41.0954 34.2828 41.0644 34.301 41.0386C35.0197 40.0092 35.7281 38.9806 36.4262 37.953C36.8255 37.366 37.1679 36.8177 37.4534 36.3081C37.8668 35.5688 38.1713 34.99 38.3669 34.5717C38.7349 33.785 39.0575 32.9742 39.3347 32.1393C39.6689 31.131 39.6429 29.951 39.6392 28.9401C39.6392 28.9145 39.6438 28.8891 39.6528 28.8652C39.6982 28.7464 39.7589 28.693 39.8348 28.7051C39.8601 28.7095 39.8833 28.7224 39.901 28.742C39.9186 28.7616 39.9297 28.7867 39.9325 28.8135C40.0959 30.417 39.9037 31.9323 39.3558 33.3594ZM34.3901 42.42C35.6563 43.356 36.316 44.7207 36.6663 46.2532C36.6679 46.2605 36.6682 46.268 36.667 46.2754C36.6658 46.2828 36.6633 46.2899 36.6595 46.2963C36.6557 46.3026 36.6507 46.3081 36.6449 46.3125C36.639 46.3168 36.6324 46.3199 36.6254 46.3216L36.5772 46.3332C36.526 46.3444 36.493 46.3242 36.4781 46.2725C36.1662 45.2242 35.5684 44.1642 34.7379 43.4103C34.1847 42.9068 33.6203 42.3994 32.9767 42.1579C32.6623 42.04 32.6623 41.9346 32.9767 41.8416C33.4247 41.7086 34.0436 42.1644 34.3901 42.42ZM40.4152 43.9319L40.638 44.1423C40.6439 44.1482 40.6473 44.1562 40.6475 44.1646C40.6477 44.1731 40.6448 44.1813 40.6393 44.1875L38.6144 46.5178C37.6343 47.6453 36.6814 48.7144 35.9652 49.4901C35.2489 50.2659 34.828 50.6846 34.7949 50.6544L34.7726 50.6337C34.755 50.6201 34.8335 50.4962 35.0037 50.2691C35.1738 50.042 35.4323 49.7162 35.7642 49.3103C36.0962 48.9045 36.4951 48.4265 36.9381 47.9039C37.3811 47.3813 37.8595 46.8243 38.3458 46.2648L40.3719 43.9344C40.3774 43.9282 40.385 43.9244 40.3931 43.9239C40.4012 43.9234 40.4091 43.9263 40.4152 43.9319ZM48.9554 50.4724C49.3168 50.2796 49.6662 50.1109 50.0037 49.9663C50.0887 49.9301 50.1605 49.9486 50.219 50.0218C50.2661 50.0803 50.236 50.181 50.1287 50.3239C50.114 50.3435 50.0959 50.3602 50.0755 50.373C49.3213 50.8489 48.3951 51.2535 47.2968 51.5865C47.2399 51.6038 47.2032 51.5827 47.1867 51.5233L47.1607 51.4355C47.1384 51.3598 47.1628 51.3077 47.2337 51.2793C47.7791 51.0641 48.353 50.7951 48.9554 50.4724ZM23.1988 56.408C23.1738 56.3634 23.1668 56.3102 23.1794 56.2602C23.192 56.2102 23.2231 56.1674 23.2659 56.1414L23.2723 56.1374C23.3151 56.1114 23.3661 56.1041 23.414 56.1172C23.462 56.1303 23.5029 56.1628 23.5279 56.2074L24.9342 58.7177C24.9592 58.7623 24.9662 58.8155 24.9536 58.8655C24.941 58.9155 24.9099 58.9583 24.8671 58.9844L24.8607 58.9883C24.8179 59.0144 24.767 59.0217 24.719 59.0085C24.6711 58.9954 24.6301 58.963 24.6051 58.9183L23.1988 56.408Z" fill="#151513"/>
<path d="M64.1904 28.7709C64.0831 28.6771 63.9956 28.5648 63.928 28.434C63.9016 28.3832 63.8611 28.3535 63.8067 28.3449C63.7011 28.3285 63.5987 28.3311 63.4997 28.3526C63.4502 28.3629 63.4069 28.3862 63.3698 28.4223C63.3137 28.4757 63.2509 28.4882 63.1816 28.4598C62.9985 28.384 62.8128 28.3096 62.6247 28.2364C62.142 28.0492 61.6246 28.829 61.356 29.1479C61.2298 29.2977 61.0528 29.3571 60.8671 29.37C60.3052 29.407 59.7458 29.4698 59.1888 29.5585C59.167 29.562 59.1464 29.5715 59.1292 29.586C59.1121 29.6005 59.0989 29.6195 59.091 29.6411C58.9475 30.0452 59.4797 30.0968 59.7037 30.1833C59.7466 30.1997 59.7817 30.2272 59.8089 30.266C60.2248 30.8521 60.3287 31.8359 60.2718 32.5408C60.2699 32.5647 60.2728 32.5887 60.2803 32.6114C60.2878 32.634 60.2997 32.6548 60.3153 32.6724C60.3309 32.69 60.3498 32.7041 60.3709 32.7136C60.3919 32.7232 60.4147 32.7281 60.4377 32.728C60.6196 32.7293 60.8077 32.7087 60.9377 32.5563C61.2174 32.2275 61.6122 31.9332 62.1222 31.6732C62.5578 31.4499 62.9737 31.4834 63.4378 31.4976C63.8302 31.5106 64.0913 31.2717 64.3005 30.958C64.454 30.7269 64.7164 30.7785 64.8278 31.0096C65.039 31.4512 65.3695 31.6792 65.8192 31.6939C66.6558 31.721 66.8984 30.2815 66.8786 29.6385C66.8773 29.6003 66.8876 29.5626 66.9081 29.531C66.9286 29.4994 66.9581 29.4756 66.9925 29.4629L77.8718 25.4426C77.9354 25.4193 77.9766 25.3737 77.9956 25.3057C78.0088 25.2558 77.9911 25.2046 77.9424 25.1521C77.9226 25.1314 77.8979 25.1168 77.8708 25.1097C77.8438 25.1026 77.8155 25.1035 77.7889 25.1121L66.8081 28.6186C66.7969 28.6222 66.785 28.6231 66.7735 28.6212C66.7619 28.6193 66.7509 28.6147 66.7415 28.6076C66.732 28.6006 66.7242 28.5914 66.7188 28.5808C66.7134 28.5701 66.7105 28.5583 66.7103 28.5463C66.7016 28.1732 66.516 27.8336 66.3081 27.5431C66.0448 27.1747 65.6917 26.9703 65.2486 26.9299C64.2572 26.8395 64.3339 28.0815 64.2869 28.7283C64.2811 28.8075 64.2489 28.8217 64.1904 28.7709Z" fill="#151513"/>
<path d="M15.952 106V96.116H18.15V106H15.952ZM17.632 102.122V100.232H22.574V102.122H17.632ZM17.632 98.006V96.116H22.798V98.006H17.632ZM27.1551 106.154C26.4177 106.154 25.7597 106.005 25.1811 105.706C24.6117 105.398 24.1637 104.973 23.8371 104.432C23.5104 103.891 23.3471 103.279 23.3471 102.598C23.3471 101.917 23.5057 101.31 23.8231 100.778C24.1497 100.237 24.5884 99.812 25.1391 99.504C25.6897 99.196 26.3104 99.042 27.0011 99.042C27.6731 99.042 28.2657 99.1867 28.7791 99.476C29.2924 99.7653 29.6937 100.167 29.9831 100.68C30.2817 101.193 30.4311 101.781 30.4311 102.444C30.4311 102.565 30.4217 102.696 30.4031 102.836C30.3937 102.967 30.3704 103.121 30.3331 103.298L24.4671 103.312V101.842L29.4231 101.828L28.4991 102.444C28.4897 102.052 28.4291 101.73 28.3171 101.478C28.2051 101.217 28.0371 101.021 27.8131 100.89C27.5984 100.75 27.3324 100.68 27.0151 100.68C26.6791 100.68 26.3851 100.759 26.1331 100.918C25.8904 101.067 25.6991 101.282 25.5591 101.562C25.4284 101.842 25.3631 102.183 25.3631 102.584C25.3631 102.985 25.4331 103.331 25.5731 103.62C25.7224 103.9 25.9277 104.119 26.1891 104.278C26.4597 104.427 26.7771 104.502 27.1411 104.502C27.4771 104.502 27.7804 104.446 28.0511 104.334C28.3217 104.213 28.5597 104.035 28.7651 103.802L29.9411 104.978C29.6051 105.37 29.1991 105.664 28.7231 105.86C28.2471 106.056 27.7244 106.154 27.1551 106.154ZM35.959 106V102.122C35.959 101.767 35.847 101.483 35.623 101.268C35.4083 101.044 35.133 100.932 34.797 100.932C34.5637 100.932 34.3583 100.983 34.181 101.086C34.0037 101.179 33.8637 101.319 33.761 101.506C33.6583 101.683 33.607 101.889 33.607 102.122L32.781 101.716C32.781 101.184 32.8977 100.717 33.131 100.316C33.3643 99.9147 33.6863 99.6067 34.097 99.392C34.517 99.168 34.9883 99.056 35.511 99.056C36.015 99.056 36.4583 99.1773 36.841 99.42C37.233 99.6533 37.541 99.966 37.765 100.358C37.989 100.75 38.101 101.179 38.101 101.646V106H35.959ZM31.465 106V99.196H33.607V106H31.465ZM42.7667 106.154C42.0667 106.154 41.432 106 40.8627 105.692C40.2934 105.384 39.8454 104.959 39.5187 104.418C39.192 103.877 39.0287 103.27 39.0287 102.598C39.0287 101.917 39.192 101.31 39.5187 100.778C39.8547 100.237 40.3074 99.812 40.8767 99.504C41.446 99.196 42.0854 99.042 42.7947 99.042C43.3267 99.042 43.812 99.1353 44.2507 99.322C44.6987 99.4993 45.0954 99.77 45.4407 100.134L44.0687 101.506C43.91 101.329 43.7234 101.198 43.5087 101.114C43.3034 101.03 43.0654 100.988 42.7947 100.988C42.4867 100.988 42.2114 101.058 41.9687 101.198C41.7354 101.329 41.5487 101.515 41.4087 101.758C41.278 101.991 41.2127 102.267 41.2127 102.584C41.2127 102.901 41.278 103.181 41.4087 103.424C41.5487 103.667 41.74 103.858 41.9827 103.998C42.2254 104.138 42.496 104.208 42.7947 104.208C43.0747 104.208 43.322 104.161 43.5367 104.068C43.7607 103.965 43.952 103.825 44.1107 103.648L45.4687 105.02C45.114 105.393 44.7127 105.678 44.2647 105.874C43.8167 106.061 43.3174 106.154 42.7667 106.154ZM46.422 106V99.196H48.564V106H46.422ZM47.5 98.258C47.164 98.258 46.884 98.146 46.66 97.922C46.4453 97.6887 46.338 97.4087 46.338 97.082C46.338 96.746 46.4453 96.466 46.66 96.242C46.884 96.018 47.164 95.906 47.5 95.906C47.836 95.906 48.1113 96.018 48.326 96.242C48.5407 96.466 48.648 96.746 48.648 97.082C48.648 97.4087 48.5407 97.6887 48.326 97.922C48.1113 98.146 47.836 98.258 47.5 98.258ZM54.5664 106V102.122C54.5664 101.767 54.4544 101.483 54.2304 101.268C54.0157 101.044 53.7404 100.932 53.4044 100.932C53.1711 100.932 52.9657 100.983 52.7884 101.086C52.6111 101.179 52.4711 101.319 52.3684 101.506C52.2657 101.683 52.2144 101.889 52.2144 102.122L51.3884 101.716C51.3884 101.184 51.5051 100.717 51.7384 100.316C51.9717 99.9147 52.2937 99.6067 52.7044 99.392C53.1244 99.168 53.5957 99.056 54.1184 99.056C54.6224 99.056 55.0657 99.1773 55.4484 99.42C55.8404 99.6533 56.1484 99.966 56.3724 100.358C56.5964 100.75 56.7084 101.179 56.7084 101.646V106H54.5664ZM50.0724 106V99.196H52.2144V106H50.0724ZM60.9681 109.052C60.2215 109.052 59.5635 108.921 58.9941 108.66C58.4341 108.408 57.9908 108.049 57.6641 107.582L58.9801 106.266C59.2228 106.555 59.4935 106.775 59.7921 106.924C60.1001 107.073 60.4688 107.148 60.8981 107.148C61.4301 107.148 61.8455 107.017 62.1441 106.756C62.4521 106.495 62.6061 106.126 62.6061 105.65V103.914L62.9701 102.43L62.6481 100.946V99.196H64.7481V105.594C64.7481 106.294 64.5848 106.901 64.2581 107.414C63.9315 107.927 63.4835 108.329 62.9141 108.618C62.3448 108.907 61.6961 109.052 60.9681 109.052ZM60.8701 105.79C60.2448 105.79 59.6895 105.641 59.2041 105.342C58.7188 105.043 58.3361 104.637 58.0561 104.124C57.7761 103.611 57.6361 103.041 57.6361 102.416C57.6361 101.781 57.7761 101.212 58.0561 100.708C58.3361 100.195 58.7188 99.7933 59.2041 99.504C59.6895 99.2053 60.2448 99.056 60.8701 99.056C61.3368 99.056 61.7521 99.1447 62.1161 99.322C62.4895 99.49 62.7881 99.7327 63.0121 100.05C63.2455 100.358 63.3761 100.717 63.4041 101.128V103.718C63.3761 104.119 63.2455 104.479 63.0121 104.796C62.7881 105.104 62.4895 105.347 62.1161 105.524C61.7428 105.701 61.3275 105.79 60.8701 105.79ZM61.2761 103.886C61.5748 103.886 61.8315 103.821 62.0461 103.69C62.2701 103.559 62.4381 103.387 62.5501 103.172C62.6715 102.948 62.7321 102.696 62.7321 102.416C62.7321 102.136 62.6715 101.884 62.5501 101.66C62.4381 101.436 62.2701 101.259 62.0461 101.128C61.8315 100.997 61.5748 100.932 61.2761 100.932C60.9868 100.932 60.7301 100.997 60.5061 101.128C60.2821 101.259 60.1095 101.436 59.9881 101.66C59.8668 101.884 59.8061 102.136 59.8061 102.416C59.8061 102.677 59.8668 102.925 59.9881 103.158C60.1095 103.382 60.2775 103.559 60.4921 103.69C60.7161 103.821 60.9775 103.886 61.2761 103.886Z" fill="white"/>
</svg>
