<svg width="634" height="695" viewBox="0 0 634 695" fill="none" xmlns="http://www.w3.org/2000/svg">
<path fill-rule="evenodd" clip-rule="evenodd" d="M585.853 68.9961C587.01 77.1521 587.176 85.4861 586.353 93.9961C580.212 127.62 560.378 147.287 526.853 152.996C501.821 152.998 477.155 155.998 452.853 161.996C452.767 161 453.101 160.167 453.853 159.496C457.186 158.163 460.52 156.829 463.853 155.496C488.186 152.258 512.519 148.925 536.853 145.496C540.137 144.371 543.47 143.371 546.853 142.496C552.268 138.727 557.935 135.393 563.853 132.496C565.939 128.241 568.939 124.741 572.853 121.996C582.978 105.83 587.311 88.1631 585.853 68.9961Z" fill="#D4D5DE"/>
<path fill-rule="evenodd" clip-rule="evenodd" d="M580.853 49.9961C583.945 55.8785 585.611 62.2119 585.853 68.9961C587.311 88.1631 582.978 105.83 572.853 121.996C568.939 124.741 565.939 128.241 563.853 132.496C557.935 135.393 552.268 138.727 546.853 142.496C543.47 143.371 540.137 144.371 536.853 145.496C512.519 148.925 488.186 152.258 463.853 155.496C460.52 156.829 457.186 158.163 453.853 159.496C453.101 160.167 452.767 161 452.853 161.996C449.922 164.293 446.589 165.793 442.853 166.496C439.729 170.321 436.229 173.821 432.353 176.996C431.569 180.256 431.736 183.423 432.853 186.496C438.822 190.958 444.822 195.124 450.853 198.996C442.492 196.28 435.158 191.947 428.853 185.996C426.839 179.763 427.839 174.096 431.853 168.996C434.278 167.351 436.945 166.185 439.853 165.496C442.686 162.632 446.019 160.298 449.853 158.496C457.468 155.343 465.134 152.343 472.853 149.496C481.17 148.376 489.503 147.376 497.853 146.496C500.294 144.533 503.127 143.366 506.353 142.996C519.289 140.805 532.123 138.639 544.853 136.496C552.035 132.074 559.035 127.407 565.853 122.496C564.836 121.447 564.669 120.28 565.353 118.996C568.17 114.854 571.337 111.021 574.853 107.496C583.49 88.9541 585.49 69.7879 580.853 49.9961Z" fill="#C1C2CA"/>
<path fill-rule="evenodd" clip-rule="evenodd" d="M574.852 39.9961C577.828 42.5923 579.828 45.9256 580.852 49.9961C585.489 69.7879 583.489 88.9541 574.852 107.496C571.336 111.021 568.169 114.854 565.352 118.996C564.668 120.28 564.835 121.447 565.852 122.496C559.034 127.407 552.034 132.074 544.852 136.496C532.122 138.639 519.288 140.805 506.352 142.996C503.126 143.366 500.293 144.533 497.852 146.496C489.502 147.376 481.169 148.376 472.852 149.496C465.133 152.343 457.467 155.343 449.852 158.496C446.018 160.298 442.685 162.632 439.852 165.496C436.944 166.185 434.277 167.351 431.852 168.996C427.838 174.096 426.838 179.763 428.852 185.996C425.181 183.247 424.015 179.58 425.352 174.996C428.949 167.61 434.449 162.11 441.852 158.496C452.377 152.987 463.377 148.654 474.852 145.496C494.343 140.398 514.01 136.064 533.852 132.496C566.886 119.292 582.386 94.7921 580.352 58.9961C579.081 52.4541 577.247 46.1208 574.852 39.9961Z" fill="#AAACB5"/>
<path fill-rule="evenodd" clip-rule="evenodd" d="M270.852 147.996C258.311 184.997 266.644 216.497 295.852 242.496C303.728 247.704 312.061 252.037 320.852 255.496C344.606 259.455 367.94 265.121 390.852 272.496C415.214 281.693 432.548 298.193 442.852 321.996C442.087 322.419 441.254 322.753 440.352 322.996C438.709 322.181 437.209 321.181 435.852 319.996C434.027 316.118 432.194 312.118 430.352 307.996C425.519 304.496 421.352 300.329 417.852 295.496C413.981 293.199 409.981 291.199 405.852 289.496C404.519 288.829 404.519 288.163 405.852 287.496C402.813 286.465 400.313 284.631 398.352 281.996C397.055 283.28 395.888 283.113 394.852 281.496C395.852 281.163 396.852 280.829 397.852 280.496C395.464 280.193 393.297 279.359 391.352 277.996C389.626 279.072 387.793 279.239 385.852 278.496C364.507 273.489 343.174 268.489 321.852 263.496C310.464 258.774 299.797 252.774 289.852 245.496C283.931 237.396 277.931 229.562 271.852 221.996C268.698 215.416 266.031 207.916 263.852 199.496C262.492 193.063 261.825 186.563 261.852 179.996C261.733 172.469 262.899 165.136 265.352 157.996C266.016 153.917 267.849 150.584 270.852 147.996Z" fill="#AEB0B7"/>
<path fill-rule="evenodd" clip-rule="evenodd" d="M271.852 221.996C277.931 229.562 283.931 237.396 289.852 245.496C299.797 252.774 310.464 258.774 321.852 263.496C343.174 268.489 364.507 273.489 385.852 278.496C387.793 279.239 389.626 279.072 391.352 277.996C393.297 279.359 395.464 280.193 397.852 280.496C396.852 280.829 395.852 281.163 394.852 281.496C395.888 283.113 397.055 283.28 398.352 281.996C400.313 284.631 402.813 286.465 405.852 287.496C404.519 288.163 404.519 288.829 405.852 289.496C409.981 291.199 413.981 293.199 417.852 295.496C421.352 300.329 425.519 304.496 430.352 307.996C432.194 312.118 434.027 316.118 435.852 319.996C428.408 307.392 418.075 297.558 404.852 290.496C401.037 288.587 397.037 287.254 392.852 286.496C392.185 285.496 391.519 284.496 390.852 283.496C366.715 278.786 342.881 273.286 319.352 266.996C318.938 267.453 318.438 267.787 317.852 267.996C313.14 264.725 307.974 262.391 302.352 260.996C292.932 252.909 284.265 244.243 276.352 234.996C275.302 230.439 273.802 226.105 271.852 221.996Z" fill="#C1C3C9"/>
<path fill-rule="evenodd" clip-rule="evenodd" d="M261.852 179.996C261.825 186.563 262.492 193.063 263.852 199.496C266.031 207.916 268.698 215.416 271.852 221.996C273.802 226.105 275.302 230.439 276.352 234.996C284.265 244.243 292.932 252.909 302.352 260.996C307.974 262.391 313.14 264.725 317.852 267.996C318.438 267.787 318.938 267.453 319.352 266.996C342.881 273.286 366.715 278.786 390.852 283.496C391.519 284.496 392.185 285.496 392.852 286.496C397.037 287.254 401.037 288.587 404.852 290.496C418.075 297.558 428.408 307.392 435.852 319.996C437.209 321.181 438.709 322.181 440.352 322.996C441.254 322.753 442.087 322.419 442.852 321.996C442.689 324.353 442.855 326.686 443.352 328.996C446.169 333.777 448.002 338.944 448.852 344.496C448.161 355.035 446.995 365.535 445.352 375.996C444.5 379.76 443 383.093 440.852 385.996C444.912 372.284 445.912 358.284 443.852 343.996C441.143 338.57 438.976 332.904 437.352 326.996C434.27 322.762 431.436 318.429 428.852 313.996C426.206 310.684 423.206 307.684 419.852 304.996C414.571 301.776 409.404 298.443 404.352 294.996C393.062 290.014 381.229 286.847 368.852 285.496C350.974 285.125 333.64 282.125 316.852 276.496C310.655 271.227 303.655 267.227 295.852 264.496C288.859 258.036 282.192 251.203 275.852 243.996C272.867 234.703 268.867 226.036 263.852 217.996C263.213 207.299 262.213 196.632 260.852 185.996C260.857 183.8 261.19 181.8 261.852 179.996Z" fill="#CED0D7"/>
<path fill-rule="evenodd" clip-rule="evenodd" d="M12.8516 353.996C10.4784 362.102 8.14496 370.102 5.85156 377.996C6.33876 369.367 8.67206 361.367 12.8516 353.996Z" fill="#A2A7B2"/>
<path fill-rule="evenodd" clip-rule="evenodd" d="M28.8515 326.996C23.2381 335.899 17.9047 344.899 12.8515 353.996C8.67196 361.367 6.33866 369.367 5.85146 377.996C1.74226 399.384 2.07556 420.717 6.85146 441.996C5.85426 442.026 5.18756 441.526 4.85146 440.496C3.16446 435.8 1.99776 430.967 1.35146 425.996C0.851664 415.668 0.684964 405.335 0.851464 394.996C1.97976 383.847 3.97976 372.847 6.85146 361.996C11.0911 354.052 15.4244 346.052 19.8515 337.996C20.8171 336.1 21.1504 334.1 20.8515 331.996C23.8216 331.75 25.1549 330.084 24.8515 326.996C26.1848 326.996 27.5182 326.996 28.8515 326.996Z" fill="#BBBFC9"/>
<path fill-rule="evenodd" clip-rule="evenodd" d="M574.851 39.996C577.246 46.1207 579.08 52.454 580.351 58.996C582.385 94.792 566.885 119.292 533.851 132.496C514.009 136.064 494.342 140.398 474.851 145.496C463.376 148.654 452.376 152.987 441.851 158.496C434.448 162.11 428.948 167.61 425.351 174.996C424.014 179.58 425.18 183.247 428.851 185.996C435.156 191.947 442.49 196.28 450.851 198.996C456.708 201.449 462.708 203.616 468.851 205.496C499.749 213.535 531.083 219.201 562.851 222.496C568.733 223.901 574.4 225.901 579.851 228.496C618.243 249.465 635.909 281.965 632.851 325.996C628.877 351.614 616.877 372.614 596.851 388.996C578.756 400.909 562.256 414.909 547.351 430.996C531.63 451.154 523.63 474.154 523.351 499.996C523.018 520.663 522.684 541.329 522.351 561.996C512.929 617.084 480.429 647.917 424.851 654.496C386.392 658.673 354.225 646.506 328.351 617.996C320.684 607.663 313.018 597.329 305.351 586.996C301.014 581.493 296.181 576.493 290.851 571.996C272.468 553.967 250.468 542.467 224.851 537.496C208.509 534.224 192.009 532.724 175.351 532.996C156.183 534.039 137.017 534.872 117.851 535.496C74.7247 529.994 41.8918 508.827 19.3507 471.996C14.2975 462.241 10.1308 452.241 6.85067 441.996C2.07477 420.717 1.74147 399.384 5.85067 377.996C8.14407 370.102 10.4775 362.102 12.8507 353.996C17.9039 344.899 23.2373 335.899 28.8507 326.996C51.1172 297.345 80.7837 279.679 117.851 273.996C163.178 270.487 201.345 285.154 232.351 317.996C248.37 341.378 264.87 364.378 281.851 386.996C280.947 387.705 280.614 388.705 280.851 389.996C279.676 389.777 278.676 390.11 277.851 390.996C274.189 394.302 270.522 397.636 266.851 400.996C265.615 401.742 264.281 402.075 262.851 401.996C263.113 403.474 262.78 404.807 261.851 405.996C258.181 408.833 255.015 412.166 252.351 415.996C251.887 415.402 251.72 414.735 251.851 413.996C252.516 410.847 252.849 407.514 252.851 403.996C252.837 400.257 252.171 396.924 250.851 393.996C250.468 384.456 248.801 375.123 245.851 365.996C241.568 356.488 236.901 347.154 231.851 337.996C221.436 324.247 209.103 312.58 194.851 302.996C193.662 302.067 192.329 301.734 190.851 301.996C189.27 300.193 187.27 298.86 184.851 297.996C173.566 292.236 161.566 288.903 148.851 287.996C144.568 286.669 139.902 286.003 134.851 285.996C129.8 286.003 125.134 286.669 120.851 287.996C109.794 288.426 99.1267 290.76 88.8507 294.996C54.5748 310.603 31.5748 336.27 19.8507 371.996C18.6302 378.651 17.6302 385.317 16.8507 391.996C15.531 394.924 14.8643 398.257 14.8507 401.996C14.8643 405.735 15.531 409.068 16.8507 411.996C16.8507 415.996 16.8507 419.996 16.8507 423.996C16.5075 425.979 17.1742 427.313 18.8507 427.996C23.6347 452.566 34.968 473.566 52.8507 490.996C91.0587 523.301 133.726 530.634 180.851 512.996C219.568 494.599 242.902 464.266 250.851 421.996C251.934 422.035 252.934 422.369 253.851 422.996C254.519 420.86 254.686 418.526 254.351 415.996C257.212 420.219 258.712 419.886 258.851 414.996C260.639 415.281 262.306 414.948 263.851 413.996C261.23 411.624 261.563 410.958 264.851 411.996C266.956 410.598 268.956 409.098 270.851 407.496C272.019 406.09 271.686 404.924 269.851 403.996C270.742 402.906 271.742 402.906 272.851 403.996C274.123 400.9 275.957 398.233 278.351 395.996C279.04 396.853 279.873 397.519 280.851 397.996C282.039 395.52 283.372 393.186 284.851 390.996C298.287 406.103 312.954 419.77 328.851 431.996C324.371 436.844 319.705 441.677 314.851 446.496C317.686 447.936 318.186 449.769 316.351 451.996C315.851 450.829 315.018 449.996 313.851 449.496C314.998 448.215 314.664 447.882 312.851 448.496C307.272 454.075 301.606 459.741 295.851 465.496C297.368 467.181 299.035 468.681 300.851 469.996C301.447 468.78 301.614 467.447 301.351 465.996C302.464 464.785 303.631 464.785 304.851 465.996C305.941 465.105 305.941 464.105 304.851 462.996C310.976 460.551 315.976 456.551 319.851 450.996C320.32 447.461 321.82 444.461 324.351 441.996C325.914 444.54 327.414 444.54 328.851 441.996C329.78 440.807 330.113 439.474 329.851 437.996C332.208 438.159 334.541 437.993 336.851 437.496C335.409 437.119 334.409 436.286 333.851 434.996C339.05 437.426 344.383 439.593 349.851 441.496C385.524 447.322 413.191 435.156 432.851 404.996C447.829 385.205 453.662 362.872 450.351 337.996C448.622 332.21 446.122 326.876 442.851 321.996C432.547 298.193 415.213 281.693 390.851 272.496C367.939 265.121 344.605 259.455 320.851 255.496C312.06 252.037 303.727 247.704 295.851 242.496C266.643 216.497 258.31 184.997 270.851 147.996C274.926 138.843 280.259 130.51 286.851 122.996C299.125 111.523 313.459 103.69 329.851 99.496C346.269 98.554 362.603 96.888 378.851 94.496C394.415 91.98 408.415 85.98 420.851 76.496C435.423 61.1784 447.923 44.3451 458.351 25.996C465.89 17.1701 474.723 10.1701 484.851 4.99597C490.154 3.50267 495.487 2.00267 500.851 0.495974C534.598 -2.80393 559.264 10.3628 574.851 39.996Z" fill="#122634"/>
<path fill-rule="evenodd" clip-rule="evenodd" d="M281.852 386.996C283.614 387.758 284.614 389.092 284.852 390.996C283.373 393.186 282.04 395.52 280.852 397.996C279.874 397.519 279.041 396.853 278.352 395.996C275.958 398.233 274.124 400.9 272.852 403.996C271.743 402.906 270.743 402.906 269.852 403.996C271.687 404.924 272.02 406.09 270.852 407.496C268.957 409.098 266.957 410.598 264.852 411.996C261.564 410.958 261.231 411.624 263.852 413.996C262.307 414.948 260.64 415.281 258.852 414.996C258.713 419.886 257.213 420.219 254.352 415.996C254.687 418.526 254.52 420.86 253.852 422.996C252.935 422.369 251.935 422.035 250.852 421.996C250.852 419.329 250.852 416.663 250.852 413.996C251.185 413.996 251.519 413.996 251.852 413.996C251.721 414.735 251.888 415.402 252.352 415.996C255.016 412.166 258.182 408.833 261.852 405.996C262.781 404.807 263.114 403.474 262.852 401.996C264.282 402.075 265.616 401.742 266.852 400.996C270.523 397.636 274.19 394.302 277.852 390.996C278.677 390.11 279.677 389.777 280.852 389.996C280.615 388.705 280.948 387.705 281.852 386.996Z" fill="#122634"/>
<path fill-rule="evenodd" clip-rule="evenodd" d="M16.8516 391.996C16.8516 398.663 16.8516 405.329 16.8516 411.996C15.5319 409.068 14.8652 405.735 14.8516 401.996C14.8652 398.257 15.5319 394.924 16.8516 391.996Z" fill="#662426"/>
<path fill-rule="evenodd" clip-rule="evenodd" d="M250.852 393.996C252.172 396.924 252.838 400.257 252.852 403.996C252.85 407.514 252.517 410.847 251.852 413.996C251.519 413.996 251.185 413.996 250.852 413.996C250.852 407.329 250.852 400.663 250.852 393.996Z" fill="#41202E"/>
<path fill-rule="evenodd" clip-rule="evenodd" d="M516.852 395.996C519.25 395.755 521.25 396.422 522.852 397.996C520.454 398.237 518.454 397.57 516.852 395.996Z" fill="#224C31"/>
<path fill-rule="evenodd" clip-rule="evenodd" d="M442.85 321.996C446.121 326.876 448.621 332.21 450.35 337.996C453.661 362.872 447.828 385.205 432.85 404.996C432.693 403.623 432.86 402.289 433.35 400.996C437.456 396.744 439.956 391.744 440.85 385.996C442.998 383.093 444.498 379.76 445.35 375.996C446.993 365.535 448.159 355.035 448.85 344.496C448 338.944 446.167 333.777 443.35 328.996C442.853 326.686 442.687 324.353 442.85 321.996Z" fill="#ABB1B9"/>
<path fill-rule="evenodd" clip-rule="evenodd" d="M184.85 297.996C187.269 298.86 189.269 300.193 190.85 301.996C189.615 302.217 188.615 302.884 187.85 303.996C187.183 303.329 186.517 302.663 185.85 301.996C182.582 304.591 180.582 307.925 179.85 311.996C177.501 314.513 175.001 316.846 172.35 318.996C171.167 317.765 170.001 317.765 168.85 318.996C169.517 319.663 170.183 320.329 170.85 320.996C169.305 321.948 167.638 322.281 165.85 321.996C165.842 325.676 164.175 328.343 160.85 329.996C157.848 328.986 156.682 326.986 157.35 323.996C159.918 321.807 162.085 319.307 163.85 316.496C166.103 314.747 168.436 313.247 170.85 311.996C170.701 310.944 170.867 309.944 171.35 308.996C175.866 305.223 180.366 301.556 184.85 297.996Z" fill="#B43628"/>
<path fill-rule="evenodd" clip-rule="evenodd" d="M454.852 301.996C454.852 308.663 454.852 315.329 454.852 321.996C453.54 319.753 452.874 317.086 452.852 313.996C452.689 309.719 453.355 305.719 454.852 301.996Z" fill="#2D5536"/>
<path fill-rule="evenodd" clip-rule="evenodd" d="M622.852 299.996C624.385 304.392 625.052 309.059 624.852 313.996C624.685 317.329 624.519 320.663 624.352 323.996C624.074 324.912 623.574 325.578 622.852 325.996C622.852 317.329 622.852 308.663 622.852 299.996Z" fill="#457049"/>
<path fill-rule="evenodd" clip-rule="evenodd" d="M120.852 287.996C130.185 287.996 139.519 287.996 148.852 287.996C161.567 288.903 173.567 292.236 184.852 297.996C180.368 301.556 175.868 305.223 171.352 308.996C170.869 309.944 170.703 310.944 170.852 311.996C168.438 313.247 166.105 314.747 163.852 316.496C162.087 319.307 159.92 321.807 157.352 323.996C156.684 326.986 157.85 328.986 160.852 329.996C164.177 328.343 165.844 325.676 165.852 321.996C167.64 322.281 169.307 321.948 170.852 320.996C170.185 320.329 169.519 319.663 168.852 318.996C170.003 317.765 171.169 317.765 172.352 318.996C175.003 316.846 177.503 314.513 179.852 311.996C180.584 307.925 182.584 304.591 185.852 301.996C186.519 302.663 187.185 303.329 187.852 303.996C188.617 302.884 189.617 302.217 190.852 301.996C192.33 301.734 193.663 302.067 194.852 302.996C209.104 312.58 221.437 324.247 231.852 337.996C236.902 347.154 241.569 356.488 245.852 365.996C248.802 375.123 250.469 384.456 250.852 393.996C250.852 400.663 250.852 407.329 250.852 413.996C250.852 416.663 250.852 419.329 250.852 421.996C242.903 464.266 219.569 494.599 180.852 512.996C133.727 530.634 91.0596 523.301 52.8516 490.996C34.9689 473.566 23.6356 452.566 18.8516 427.996C19.1948 426.013 18.5281 424.679 16.8516 423.996C16.8516 419.996 16.8516 415.996 16.8516 411.996C16.8516 405.329 16.8516 398.663 16.8516 391.996C17.6311 385.317 18.6311 378.651 19.8516 371.996C31.5757 336.27 54.5757 310.603 88.8516 294.996C99.1276 290.76 109.795 288.426 120.852 287.996Z" fill="#B43628"/>
<path fill-rule="evenodd" clip-rule="evenodd" d="M148.852 287.996C139.519 287.996 130.185 287.996 120.852 287.996C125.135 286.669 129.801 286.003 134.852 285.996C139.903 286.003 144.569 286.669 148.852 287.996Z" fill="#8C2C28"/>
<path fill-rule="evenodd" clip-rule="evenodd" d="M520.852 229.996C521.852 229.996 522.852 229.996 523.852 229.996C533.519 229.996 543.185 229.996 552.852 229.996C558.924 230.898 564.924 232.231 570.852 233.996C595.227 244.867 611.727 262.867 620.352 287.996C621.506 291.95 622.339 295.95 622.852 299.996C622.852 308.663 622.852 317.329 622.852 325.996C622.198 335.58 619.531 344.58 614.852 352.996C610.766 359.503 606.432 365.836 601.852 371.996C596.962 374.95 592.629 378.617 588.852 382.996C579.278 390.063 568.611 394.729 556.852 396.996C545.538 397.995 534.205 398.328 522.852 397.996C521.25 396.422 519.25 395.755 516.852 395.996C484.275 386.417 463.942 365.084 455.852 331.996C454.865 328.728 454.532 325.394 454.852 321.996C454.852 315.329 454.852 308.663 454.852 301.996C454.688 299.309 454.855 296.642 455.352 293.996C460.426 276.517 469.593 261.517 482.852 248.996C487.519 245.663 492.185 242.329 496.852 238.996C502.672 236.082 508.672 233.748 514.852 231.996C517.25 232.237 519.25 231.57 520.852 229.996Z" fill="#4E9245"/>
<path fill-rule="evenodd" clip-rule="evenodd" d="M520.852 229.996C519.25 231.57 517.25 232.237 514.852 231.996C516.454 230.422 518.454 229.755 520.852 229.996Z" fill="#3B624A"/>
<path fill-rule="evenodd" clip-rule="evenodd" d="M526.852 227.996C534.185 227.996 541.519 227.996 548.852 227.996C550.185 228.663 551.519 229.329 552.852 229.996C543.185 229.996 533.519 229.996 523.852 229.996C524.852 229.329 525.852 228.663 526.852 227.996Z" fill="#47784A"/>
<path fill-rule="evenodd" clip-rule="evenodd" d="M548.852 227.996C541.519 227.996 534.185 227.996 526.852 227.996C525.976 228.127 525.309 227.794 524.852 226.996C534.185 225.663 543.519 225.663 552.852 226.996C551.663 227.925 550.33 228.258 548.852 227.996Z" fill="#0E203F"/>
<path fill-rule="evenodd" clip-rule="evenodd" d="M334.852 105.996C370.369 103.995 396.203 118.662 412.352 149.996C421.78 176.077 418.613 200.41 402.852 222.996C380.81 248.395 353.476 256.562 320.852 247.496C285.585 231.81 269.751 204.643 273.352 165.996C281.56 133.287 302.06 113.287 334.852 105.996Z" fill="#188CB7"/>
<path fill-rule="evenodd" clip-rule="evenodd" d="M502.85 5.99604C537.393 4.40444 560.56 19.7377 572.35 51.996C578.204 91.112 562.371 116.612 524.85 128.496C496.494 132.478 474.494 122.645 458.85 98.996C443.847 66.5035 450.18 39.0035 477.85 16.496C485.706 11.6291 494.04 8.12914 502.85 5.99604Z" fill="#028A95"/>
<path fill-rule="evenodd" clip-rule="evenodd" d="M596.852 388.996C597.206 391.037 597.206 392.87 596.852 394.496C587.374 401.806 578.041 409.306 568.852 416.996C566.696 418.505 564.362 419.505 561.852 419.996C561.844 425.174 559.344 428.507 554.352 429.996C551.64 433.432 549.473 437.099 547.852 440.996C546.374 440.734 545.041 441.067 543.852 441.996C544.837 443.594 545.003 445.261 544.352 446.996C542.859 449.158 541.192 451.158 539.352 452.996C531.116 477.401 527.783 502.401 529.352 527.996C532.588 558.949 526.921 587.949 512.352 614.996C508.189 617.815 505.189 621.481 503.352 625.996C499.964 628.111 497.63 631.111 496.352 634.996C495.685 636.329 495.019 636.329 494.352 634.996C491.072 639.231 486.905 642.398 481.852 644.496C482.185 644.829 482.519 645.163 482.852 645.496C480.33 646.453 478.163 647.953 476.352 649.996C476.019 649.663 475.685 649.329 475.352 648.996C471.493 650.876 467.659 652.709 463.852 654.496C462.609 655.65 461.609 656.984 460.852 658.496C456.445 658.704 452.445 660.038 448.852 662.496C438.564 664.121 428.23 665.288 417.852 665.996C409.968 665.891 402.135 665.224 394.352 663.996C391.923 663.234 390.09 661.734 388.852 659.496C383.882 658.889 379.049 659.389 374.352 660.996C372.667 659.479 371.167 657.812 369.852 655.996C355.861 650.587 343.028 643.254 331.352 633.996C330.352 631.663 329.352 629.329 328.352 626.996C319.444 616.178 310.778 605.178 302.352 593.996C295.152 588.341 291.319 581.007 290.852 571.996C296.182 576.493 301.015 581.493 305.352 586.996C313.019 597.329 320.685 607.663 328.352 617.996C354.226 646.506 386.393 658.673 424.852 654.496C480.43 647.917 512.93 617.084 522.352 561.996C522.685 541.329 523.019 520.663 523.352 499.996C523.631 474.154 531.631 451.154 547.352 430.996C562.257 414.909 578.757 400.909 596.852 388.996Z" fill="#ABADB3"/>
<path fill-rule="evenodd" clip-rule="evenodd" d="M0.853312 394.996C0.686812 405.335 0.853513 415.668 1.35331 425.996C1.99961 430.967 3.16631 435.8 4.85331 440.496C5.18941 441.526 5.85611 442.026 6.85331 441.996C7.38411 450.182 8.88411 458.182 11.3533 465.996C15.6637 470.402 18.1637 475.736 18.8533 481.996C20.9357 481.968 22.769 482.635 24.3533 483.996C25.2336 488.95 27.5669 492.95 31.3533 495.996C34.1045 499.898 36.6045 503.898 38.8533 507.996C38.7038 509.048 38.8705 510.048 39.3533 510.996C42.7736 512.747 45.1069 515.414 46.3533 518.996C49.5545 522.532 53.0545 525.699 56.8533 528.496C64.4895 532.796 72.4893 536.463 80.8533 539.496C81.5203 540.829 82.5203 541.829 83.8533 542.496C89.6053 543.747 95.1053 545.58 100.353 547.996C110.932 549.89 121.432 551.723 131.853 553.496C141.91 554.215 151.91 553.715 161.853 551.996C177.529 552.611 193.196 553.444 208.853 554.496C223.932 557.305 238.598 561.305 252.853 566.496C260.327 570.642 267.494 575.142 274.353 579.996C276.128 577.452 277.961 577.452 279.853 579.996C280.661 581.919 281.161 583.919 281.353 585.996C284.686 588.996 288.02 591.996 291.353 594.996C291.58 597.556 292.913 599.222 295.353 599.996C295.836 600.944 296.002 601.944 295.853 602.996C298.263 603.417 300.096 604.75 301.353 606.996C309.791 622.402 319.957 636.569 331.853 649.496C342.887 658.265 355.054 665.099 368.353 669.996C371.426 669.12 374.593 669.286 377.853 670.496C378.69 671.507 379.023 672.674 378.853 673.996C393.69 677.052 408.69 678.719 423.853 678.996C448.157 679.508 469.491 672.008 487.853 656.496C487.045 656.188 486.378 655.688 485.853 654.996C487.144 653.671 488.477 652.338 489.853 650.996C491.395 649.749 492.895 649.749 494.353 650.996C496.109 650.075 496.276 648.908 494.853 647.496C499.17 643.835 502.503 639.502 504.853 634.496C506.466 634.407 507.633 635.241 508.353 636.996C510.859 632.701 512.525 628.034 513.353 622.996C515.106 621.869 516.94 620.869 518.853 619.996C523.133 613.771 526.633 607.105 529.353 599.996C532.431 589.43 535.097 578.763 537.353 567.996C537.686 540.996 538.02 513.996 538.353 486.996C540.215 479.796 541.382 472.463 541.853 464.996C544.67 456.38 548.17 448.047 552.353 439.996C558.99 433.371 565.157 426.371 570.853 418.996C576.663 415.37 582.663 412.037 588.853 408.996C591.109 405.066 594.442 402.733 598.853 401.996C597.202 403.466 595.368 404.799 593.353 405.996C589.851 411.67 585.018 415.837 578.853 418.496C576.284 422.917 572.784 426.084 568.353 427.996C564.843 434.519 560.51 440.519 555.353 445.996C553.056 449.857 551.056 453.857 549.353 457.996C546.036 464.949 543.703 472.283 542.353 479.996C541.725 506.536 542.225 533.036 543.853 559.496C542.395 567.278 541.229 575.111 540.353 582.996C536.137 600.153 529.304 616.153 519.853 630.996C519.045 632.919 518.545 634.919 518.353 636.996C511.192 640.659 506.359 646.325 503.853 653.996C499.31 656.597 495.644 660.097 492.853 664.496C488.783 666.23 484.95 668.396 481.353 670.996C480.939 670.539 480.439 670.205 479.853 669.996C478.46 671.359 476.794 672.192 474.853 672.496C475.186 672.829 475.52 673.163 475.853 673.496C472.012 674.435 468.512 675.935 465.353 677.996C465.045 677.188 464.545 676.521 463.853 675.996C457.565 680.032 450.899 683.199 443.853 685.496C435.53 685.429 427.364 686.262 419.353 687.996C410.948 686.395 402.448 685.562 393.853 685.496C380.737 683.38 368.07 679.713 355.853 674.496C345.195 667.831 334.862 660.664 324.853 652.996C321.517 648.331 317.85 643.998 313.853 639.996C306.258 625.796 297.425 612.463 287.353 599.996C280.444 594.839 273.944 589.339 267.853 583.496C248.716 571.113 227.716 563.446 204.853 560.496C183.532 558.754 162.199 558.587 140.853 559.996C104.65 560.102 73.6503 547.602 47.8533 522.496C45.542 522.26 43.542 521.427 41.8533 519.996C37.7288 515.684 34.5622 510.684 32.3533 504.996C24.1309 498.274 18.7976 489.608 16.3533 478.996C15.0335 476.679 13.3669 474.679 11.3533 472.996C10.4785 466.589 8.47851 460.589 5.35331 454.996C3.40731 449.823 2.07401 444.49 1.35331 438.996C-0.265288 424.184 -0.431988 409.517 0.853312 394.996Z" fill="#CCCED4"/>
<path fill-rule="evenodd" clip-rule="evenodd" d="M6.85156 441.996C10.1317 452.241 14.2984 462.241 19.3516 471.996C41.8927 508.827 74.7256 529.994 117.852 535.496C137.018 534.872 156.184 534.039 175.352 532.996C192.01 532.724 208.51 534.224 224.852 537.496C250.469 542.467 272.469 553.967 290.852 571.996C290.235 572.107 289.735 572.44 289.352 572.996C288.501 569.884 287.335 569.55 285.852 571.996C283.643 571.39 281.476 570.723 279.352 569.996C279.019 570.329 278.685 570.663 278.352 570.996C272.302 564.28 265.136 559.113 256.852 555.496C233.235 544.059 208.235 538.892 181.852 539.996C170.012 540.544 158.179 541.211 146.352 541.996C119.043 544.001 93.2086 538.834 68.8516 526.496C64.9246 521.729 59.9246 518.895 53.8516 517.996C51.5612 512.016 47.2278 508.683 40.8516 507.996C40.1849 507.996 39.5183 507.996 38.8516 507.996C36.6028 503.898 34.1028 499.898 31.3516 495.996C27.5652 492.95 25.2319 488.95 24.3516 483.996C22.7673 482.635 20.934 481.968 18.8516 481.996C18.162 475.736 15.662 470.402 11.3516 465.996C8.88236 458.182 7.38236 450.182 6.85156 441.996Z" fill="#AEAFB5"/>
<path fill-rule="evenodd" clip-rule="evenodd" d="M328.852 431.996C330.786 432.606 332.453 433.606 333.852 434.996C334.41 436.286 335.41 437.119 336.852 437.496C334.542 437.993 332.209 438.159 329.852 437.996C330.114 439.474 329.781 440.807 328.852 441.996C327.415 444.54 325.915 444.54 324.352 441.996C321.821 444.461 320.321 447.461 319.852 450.996C315.977 456.551 310.977 460.551 304.852 462.996C305.942 464.105 305.942 465.105 304.852 465.996C303.632 464.785 302.465 464.785 301.352 465.996C301.615 467.447 301.448 468.78 300.852 469.996C299.036 468.681 297.369 467.181 295.852 465.496C301.607 459.741 307.273 454.075 312.852 448.496C314.665 447.882 314.999 448.215 313.852 449.496C315.019 449.996 315.852 450.829 316.352 451.996C318.187 449.769 317.687 447.936 314.852 446.496C319.706 441.677 324.372 436.844 328.852 431.996Z" fill="#122634"/>
<path fill-rule="evenodd" clip-rule="evenodd" d="M541.85 464.996C541.379 472.463 540.212 479.796 538.35 486.996C538.017 513.996 537.683 540.996 537.35 567.996C535.094 578.763 532.428 589.43 529.35 599.996C526.63 607.105 523.13 613.771 518.85 619.996C516.937 620.869 515.103 621.869 513.35 622.996C512.522 628.034 510.856 632.701 508.35 636.996C507.63 635.241 506.463 634.407 504.85 634.496C502.5 639.502 499.167 643.835 494.85 647.496C496.273 648.908 496.106 650.075 494.35 650.996C492.892 649.749 491.392 649.749 489.85 650.996C488.474 652.338 487.141 653.671 485.85 654.996C486.375 655.688 487.042 656.188 487.85 656.496C469.488 672.008 448.154 679.508 423.85 678.996C408.687 678.719 393.687 677.052 378.85 673.996C379.02 672.674 378.687 671.507 377.85 670.496C374.59 669.286 371.423 669.12 368.35 669.996C355.051 665.099 342.884 658.265 331.85 649.496C319.954 636.569 309.788 622.402 301.35 606.996C300.093 604.75 298.26 603.417 295.85 602.996C295.999 601.944 295.833 600.944 295.35 599.996C292.91 599.222 291.577 597.556 291.35 594.996C288.017 591.996 284.683 588.996 281.35 585.996C281.158 583.919 280.658 581.919 279.85 579.996C277.958 577.452 276.125 577.452 274.35 579.996C267.491 575.142 260.324 570.642 252.85 566.496C238.595 561.305 223.929 557.305 208.85 554.496C193.193 553.444 177.526 552.611 161.85 551.996C151.907 553.715 141.907 554.215 131.85 553.496C121.429 551.723 110.929 549.89 100.35 547.996C95.1019 545.58 89.6019 543.747 83.8499 542.496C82.5169 541.829 81.5169 540.829 80.8499 539.496C72.4859 536.463 64.4861 532.796 56.8499 528.496C53.0511 525.699 49.5511 522.532 46.3499 518.996C45.1035 515.414 42.7702 512.747 39.3499 510.996C38.8671 510.048 38.7004 509.048 38.8499 507.996C39.5166 507.996 40.1832 507.996 40.8499 507.996C45.5734 515.191 51.9067 520.691 59.8499 524.496C61.0932 525.65 62.0932 526.984 62.8499 528.496C70.4619 531.635 77.7959 535.302 84.8499 539.496C94.8939 542.173 104.894 544.84 114.85 547.496C123.502 547.215 132.168 547.715 140.85 548.996C160.732 548.032 180.566 547.698 200.35 547.996C228.183 550.547 253.35 559.88 275.85 575.996C276.436 575.787 276.936 575.453 277.35 574.996C281.053 577.392 283.553 580.726 284.85 584.996C287.206 587.186 289.706 589.186 292.35 590.996C292.833 591.944 292.999 592.944 292.85 593.996C295.394 594.964 297.561 596.631 299.35 598.996C309.405 615.049 320.238 630.549 331.85 645.496C343.632 653.227 355.965 660.227 368.85 666.496C372.352 667.19 375.686 666.69 378.85 664.996C381.013 666.328 382.68 668.162 383.85 670.496C411.704 676.564 439.037 674.897 465.85 665.496C469.357 663.242 473.023 661.242 476.85 659.496C482.599 652.412 489.432 645.579 497.35 638.996C500.016 633.724 504.016 629.724 509.35 626.996C510.506 622.671 513.006 619.338 516.85 616.996C526.67 601.068 532.503 583.735 534.35 564.996C535.017 549.329 535.017 533.663 534.35 517.996C533.692 515.696 533.192 513.363 532.85 510.996C535.07 499.092 536.57 487.092 537.35 474.996C538.625 471.454 540.125 468.121 541.85 464.996Z" fill="#C4C4CA"/>
<path fill-rule="evenodd" clip-rule="evenodd" d="M434.852 445.996C436.835 445.653 438.169 446.32 438.852 447.996C436.869 448.339 435.535 447.672 434.852 445.996Z" fill="#664335"/>
<path fill-rule="evenodd" clip-rule="evenodd" d="M408.852 443.996C412.185 443.996 415.519 443.996 418.852 443.996C420.185 443.996 421.519 443.996 422.852 443.996C424.454 445.57 426.454 446.237 428.852 445.996C430.852 445.996 432.852 445.996 434.852 445.996C435.535 447.672 436.869 448.339 438.852 447.996C479.919 460.393 503.919 487.727 510.852 529.996C510.852 537.996 510.852 545.996 510.852 553.996C505.519 598.338 481.519 627.338 438.852 640.996C397.306 650.859 362.306 639.859 333.852 607.996C326.294 597.55 320.294 586.216 315.852 573.996C314.46 568.04 313.46 562.04 312.852 555.996C312.852 548.663 312.852 541.329 312.852 533.996C312.852 531.329 312.852 528.663 312.852 525.996C314.528 525.313 315.195 523.979 314.852 521.996C318.868 500.966 328.868 483.299 344.852 468.996C357.521 459.16 371.521 451.66 386.852 446.496C394.132 445.116 401.465 444.282 408.852 443.996Z" fill="#C95929"/>
<path fill-rule="evenodd" clip-rule="evenodd" d="M422.852 443.996C425.434 443.521 427.434 444.188 428.852 445.996C426.454 446.237 424.454 445.57 422.852 443.996Z" fill="#763E37"/>
<path fill-rule="evenodd" clip-rule="evenodd" d="M418.852 443.996C415.519 443.996 412.185 443.996 408.852 443.996C412.353 442.178 415.353 439.511 417.852 435.996C418.677 435.11 419.677 434.777 420.852 434.996C420.852 433.329 420.852 431.663 420.852 429.996C426.012 428.906 430.012 426.073 432.852 421.496C434.136 420.812 435.303 420.979 436.352 421.996C436.844 420.947 436.678 419.947 435.852 418.996C436.852 417.996 437.852 416.996 438.852 415.996C439.438 416.205 439.938 416.539 440.352 416.996C441.381 411.379 442.214 411.046 442.852 415.996C448.149 416.528 448.149 417.362 442.852 418.496C444.083 419.679 444.083 420.845 442.852 421.996C441.417 423.897 439.75 424.23 437.852 422.996C435.113 424.913 433.613 427.58 433.352 430.996C431.465 433.382 428.965 434.549 425.852 434.496C426.852 434.829 427.852 435.163 428.852 435.496C426.16 439.376 422.827 442.209 418.852 443.996Z" fill="#122634"/>
<path fill-rule="evenodd" clip-rule="evenodd" d="M16.8531 423.996C18.5296 424.679 19.1963 426.013 18.8531 427.996C17.1766 427.313 16.5099 425.979 16.8531 423.996Z" fill="#6E3631"/>
<path fill-rule="evenodd" clip-rule="evenodd" d="M632.852 325.996C633.02 335.147 632.02 344.147 629.852 352.996C627.092 358.402 624.592 364.069 622.352 369.996C617.909 375.908 613.743 381.908 609.852 387.996C607.002 392.048 603.502 395.381 599.352 397.996C598.862 399.289 598.695 400.623 598.852 401.996C594.441 402.733 591.108 405.066 588.852 408.996C582.662 412.037 576.662 415.37 570.852 418.996C565.156 426.371 558.989 433.371 552.352 439.996C548.169 448.047 544.669 456.38 541.852 464.996C540.127 468.121 538.627 471.454 537.352 474.996C536.572 487.092 535.072 499.092 532.852 510.996C533.194 513.363 533.694 515.696 534.352 517.996C535.019 533.663 535.019 549.329 534.352 564.996C532.505 583.735 526.672 601.068 516.852 616.996C513.008 619.338 510.508 622.671 509.352 626.996C504.018 629.724 500.018 633.724 497.352 638.996C489.434 645.579 482.601 652.412 476.852 659.496C473.025 661.242 469.359 663.242 465.852 665.496C439.039 674.897 411.706 676.564 383.852 670.496C382.682 668.162 381.015 666.328 378.852 664.996C375.688 666.69 372.354 667.19 368.852 666.496C355.967 660.227 343.634 653.227 331.852 645.496C320.24 630.549 309.407 615.049 299.352 598.996C297.563 596.631 295.396 594.964 292.852 593.996C293.001 592.944 292.835 591.944 292.352 590.996C289.708 589.186 287.208 587.186 284.852 584.996C283.555 580.726 281.055 577.392 277.352 574.996C276.938 575.453 276.438 575.787 275.852 575.996C253.352 559.88 228.185 550.547 200.352 547.996C180.568 547.698 160.734 548.032 140.852 548.996C132.17 547.715 123.504 547.215 114.852 547.496C104.896 544.84 94.8956 542.173 84.8516 539.496C77.7976 535.302 70.4636 531.635 62.8516 528.496C62.0949 526.984 61.0949 525.65 59.8516 524.496C51.9084 520.691 45.5751 515.191 40.8516 507.996C47.2278 508.683 51.5612 512.016 53.8516 517.996C59.9246 518.895 64.9246 521.729 68.8516 526.496C93.2086 538.834 119.043 544.001 146.352 541.996C158.179 541.211 170.012 540.544 181.852 539.996C208.235 538.892 233.235 544.059 256.852 555.496C265.136 559.113 272.302 564.28 278.352 570.996C278.685 570.663 279.019 570.329 279.352 569.996C281.476 570.723 283.643 571.39 285.852 571.996C287.335 569.55 288.501 569.884 289.352 572.996C289.735 572.44 290.235 572.107 290.852 571.996C291.319 581.007 295.152 588.341 302.352 593.996C310.778 605.178 319.444 616.178 328.352 626.996C329.352 629.329 330.352 631.663 331.352 633.996C343.028 643.254 355.861 650.587 369.852 655.996C371.167 657.812 372.667 659.479 374.352 660.996C379.049 659.389 383.882 658.889 388.852 659.496C390.09 661.734 391.923 663.234 394.352 663.996C402.135 665.224 409.968 665.891 417.852 665.996C428.23 665.288 438.564 664.121 448.852 662.496C452.445 660.038 456.445 658.704 460.852 658.496C461.609 656.984 462.609 655.65 463.852 654.496C467.659 652.709 471.493 650.876 475.352 648.996C475.685 649.329 476.019 649.663 476.352 649.996C478.163 647.953 480.33 646.453 482.852 645.496C482.519 645.163 482.185 644.829 481.852 644.496C486.905 642.398 491.072 639.231 494.352 634.996C495.019 636.329 495.685 636.329 496.352 634.996C497.63 631.111 499.964 628.111 503.352 625.996C505.189 621.481 508.189 617.815 512.352 614.996C526.921 587.949 532.588 558.949 529.352 527.996C527.783 502.401 531.116 477.401 539.352 452.996C541.192 451.158 542.859 449.158 544.352 446.996C545.003 445.261 544.837 443.594 543.852 441.996C545.041 441.067 546.374 440.734 547.852 440.996C549.473 437.099 551.64 433.432 554.352 429.996C559.344 428.507 561.844 425.174 561.852 419.996C564.362 419.505 566.696 418.505 568.852 416.996C578.041 409.306 587.374 401.806 596.852 394.496C597.206 392.87 597.206 391.037 596.852 388.996C616.878 372.614 628.878 351.614 632.852 325.996Z" fill="#BABBC0"/>
<path fill-rule="evenodd" clip-rule="evenodd" d="M510.852 529.996C511.574 530.414 512.074 531.08 512.352 531.996C512.519 535.663 512.685 539.329 512.852 542.996C512.841 547.061 512.174 550.728 510.852 553.996C510.852 545.996 510.852 537.996 510.852 529.996Z" fill="#8A4028"/>
<path fill-rule="evenodd" clip-rule="evenodd" d="M312.851 533.996C312.851 541.329 312.851 548.663 312.851 555.996C311.318 551.6 310.651 546.933 310.851 541.996C311.018 538.663 311.184 535.329 311.351 531.996C311.629 532.912 312.129 533.578 312.851 533.996Z" fill="#6E3323"/>
<path fill-rule="evenodd" clip-rule="evenodd" d="M314.853 521.996C315.196 523.979 314.529 525.313 312.853 525.996C312.51 524.013 313.177 522.679 314.853 521.996Z" fill="#8A4938"/>
<path d="M289.904 171V151.232H294.3V171H289.904ZM293.264 171V167.192H304.1V171H293.264ZM293.264 162.74V159.072H303.12V162.74H293.264ZM293.264 155.012V151.232H303.96V155.012H293.264ZM306.739 171V150.672H311.023V171H306.739ZM314.039 171V157.392H318.323V171H314.039ZM316.195 155.516C315.523 155.516 314.963 155.292 314.515 154.844C314.086 154.377 313.871 153.817 313.871 153.164C313.871 152.492 314.086 151.932 314.515 151.484C314.963 151.036 315.523 150.812 316.195 150.812C316.867 150.812 317.418 151.036 317.847 151.484C318.277 151.932 318.491 152.492 318.491 153.164C318.491 153.817 318.277 154.377 317.847 154.844C317.418 155.292 316.867 155.516 316.195 155.516ZM327.108 177.104C325.615 177.104 324.299 176.843 323.16 176.32C322.04 175.816 321.153 175.097 320.5 174.164L323.132 171.532C323.617 172.111 324.159 172.549 324.756 172.848C325.372 173.147 326.109 173.296 326.968 173.296C328.032 173.296 328.863 173.035 329.46 172.512C330.076 171.989 330.384 171.252 330.384 170.3V166.828L331.112 163.86L330.468 160.892V157.392H334.668V170.188C334.668 171.588 334.341 172.801 333.688 173.828C333.035 174.855 332.139 175.657 331 176.236C329.861 176.815 328.564 177.104 327.108 177.104ZM326.912 170.58C325.661 170.58 324.551 170.281 323.58 169.684C322.609 169.087 321.844 168.275 321.284 167.248C320.724 166.221 320.444 165.083 320.444 163.832C320.444 162.563 320.724 161.424 321.284 160.416C321.844 159.389 322.609 158.587 323.58 158.008C324.551 157.411 325.661 157.112 326.912 157.112C327.845 157.112 328.676 157.289 329.404 157.644C330.151 157.98 330.748 158.465 331.196 159.1C331.663 159.716 331.924 160.435 331.98 161.256V166.436C331.924 167.239 331.663 167.957 331.196 168.592C330.748 169.208 330.151 169.693 329.404 170.048C328.657 170.403 327.827 170.58 326.912 170.58ZM327.724 166.772C328.321 166.772 328.835 166.641 329.264 166.38C329.712 166.119 330.048 165.773 330.272 165.344C330.515 164.896 330.636 164.392 330.636 163.832C330.636 163.272 330.515 162.768 330.272 162.32C330.048 161.872 329.712 161.517 329.264 161.256C328.835 160.995 328.321 160.864 327.724 160.864C327.145 160.864 326.632 160.995 326.184 161.256C325.736 161.517 325.391 161.872 325.148 162.32C324.905 162.768 324.784 163.272 324.784 163.832C324.784 164.355 324.905 164.849 325.148 165.316C325.391 165.764 325.727 166.119 326.156 166.38C326.604 166.641 327.127 166.772 327.724 166.772ZM337.692 171V157.392H341.976V171H337.692ZM339.848 155.516C339.176 155.516 338.616 155.292 338.168 154.844C337.738 154.377 337.524 153.817 337.524 153.164C337.524 152.492 337.738 151.932 338.168 151.484C338.616 151.036 339.176 150.812 339.848 150.812C340.52 150.812 341.07 151.036 341.5 151.484C341.929 151.932 342.144 152.492 342.144 153.164C342.144 153.817 341.929 154.377 341.5 154.844C341.07 155.292 340.52 155.516 339.848 155.516ZM352.832 171.28C351.918 171.28 351.078 171.093 350.312 170.72C349.547 170.328 348.922 169.815 348.436 169.18C347.951 168.527 347.671 167.799 347.596 166.996V161.256C347.671 160.453 347.951 159.744 348.436 159.128C348.922 158.493 349.547 157.999 350.312 157.644C351.078 157.289 351.918 157.112 352.832 157.112C354.12 157.112 355.259 157.42 356.248 158.036C357.256 158.652 358.04 159.492 358.6 160.556C359.179 161.62 359.468 162.833 359.468 164.196C359.468 165.559 359.179 166.772 358.6 167.836C358.04 168.9 357.256 169.74 356.248 170.356C355.259 170.972 354.12 171.28 352.832 171.28ZM352.076 167.416C352.674 167.416 353.196 167.276 353.644 166.996C354.111 166.716 354.475 166.333 354.736 165.848C354.998 165.363 355.128 164.812 355.128 164.196C355.128 163.561 354.998 163.001 354.736 162.516C354.475 162.031 354.111 161.657 353.644 161.396C353.196 161.116 352.674 160.976 352.076 160.976C351.479 160.976 350.947 161.116 350.48 161.396C350.014 161.657 349.65 162.031 349.388 162.516C349.146 163.001 349.024 163.561 349.024 164.196C349.024 164.831 349.155 165.391 349.416 165.876C349.678 166.361 350.032 166.744 350.48 167.024C350.947 167.285 351.479 167.416 352.076 167.416ZM344.992 171V150.672H349.276V160.724L348.576 164.028L349.22 167.332V171H344.992ZM361.645 171V150.672H365.929V171H361.645ZM368.946 171V157.392H373.23V171H368.946ZM371.102 155.516C370.43 155.516 369.87 155.292 369.422 154.844C368.992 154.377 368.778 153.817 368.778 153.164C368.778 152.492 368.992 151.932 369.422 151.484C369.87 151.036 370.43 150.812 371.102 150.812C371.774 150.812 372.324 151.036 372.754 151.484C373.183 151.932 373.398 152.492 373.398 153.164C373.398 153.817 373.183 154.377 372.754 154.844C372.324 155.292 371.774 155.516 371.102 155.516ZM378.178 171V151.764H382.462V171H378.178ZM375.098 161.032V157.392H385.542V161.032H375.098ZM391.63 171.056L386.03 157.392H390.65L394.206 168.228H392.498L396.138 157.392H400.758L394.934 171.056H391.63ZM388.13 176.74L392.218 167.92L394.934 171.056L392.526 176.74H388.13ZM299.284 205.308C297.809 205.308 296.437 205.056 295.168 204.552C293.917 204.029 292.816 203.301 291.864 202.368C290.931 201.435 290.203 200.352 289.68 199.12C289.157 197.869 288.896 196.525 288.896 195.088C288.896 193.651 289.157 192.316 289.68 191.084C290.203 189.833 290.931 188.751 291.864 187.836C292.797 186.921 293.889 186.212 295.14 185.708C296.409 185.185 297.781 184.924 299.256 184.924C300.824 184.924 302.215 185.176 303.428 185.68C304.66 186.184 305.733 186.875 306.648 187.752L303.708 190.72C303.185 190.16 302.551 189.721 301.804 189.404C301.076 189.087 300.227 188.928 299.256 188.928C298.397 188.928 297.604 189.077 296.876 189.376C296.167 189.656 295.551 190.067 295.028 190.608C294.524 191.149 294.123 191.803 293.824 192.568C293.544 193.333 293.404 194.173 293.404 195.088C293.404 196.021 293.544 196.871 293.824 197.636C294.123 198.401 294.524 199.055 295.028 199.596C295.551 200.137 296.167 200.557 296.876 200.856C297.604 201.155 298.397 201.304 299.256 201.304C300.264 201.304 301.141 201.145 301.888 200.828C302.635 200.511 303.279 200.072 303.82 199.512L306.788 202.48C305.836 203.357 304.744 204.048 303.512 204.552C302.299 205.056 300.889 205.308 299.284 205.308ZM308.817 205V191.392H313.101V205H308.817ZM313.101 197.524L311.309 196.124C311.663 194.537 312.261 193.305 313.101 192.428C313.941 191.551 315.107 191.112 316.601 191.112C317.254 191.112 317.823 191.215 318.309 191.42C318.813 191.607 319.251 191.905 319.625 192.316L317.077 195.536C316.89 195.331 316.657 195.172 316.377 195.06C316.097 194.948 315.779 194.892 315.425 194.892C314.715 194.892 314.146 195.116 313.717 195.564C313.306 195.993 313.101 196.647 313.101 197.524ZM320.766 205V191.392H325.05V205H320.766ZM322.922 189.516C322.25 189.516 321.69 189.292 321.242 188.844C320.813 188.377 320.598 187.817 320.598 187.164C320.598 186.492 320.813 185.932 321.242 185.484C321.69 185.036 322.25 184.812 322.922 184.812C323.594 184.812 324.145 185.036 324.574 185.484C325.003 185.932 325.218 186.492 325.218 187.164C325.218 187.817 325.003 188.377 324.574 188.844C324.145 189.292 323.594 189.516 322.922 189.516ZM329.999 205V185.764H334.283V205H329.999ZM326.919 195.032V191.392H337.363V195.032H326.919ZM345.697 205.308C344.222 205.308 342.906 205.009 341.749 204.412C340.61 203.796 339.714 202.947 339.061 201.864C338.408 200.781 338.081 199.559 338.081 198.196C338.081 196.833 338.398 195.62 339.033 194.556C339.686 193.473 340.564 192.624 341.665 192.008C342.766 191.392 344.008 191.084 345.389 191.084C346.733 191.084 347.918 191.373 348.945 191.952C349.972 192.531 350.774 193.333 351.353 194.36C351.95 195.387 352.249 196.563 352.249 197.888C352.249 198.131 352.23 198.392 352.193 198.672C352.174 198.933 352.128 199.241 352.053 199.596L340.321 199.624V196.684L350.233 196.656L348.385 197.888C348.366 197.104 348.245 196.46 348.021 195.956C347.797 195.433 347.461 195.041 347.013 194.78C346.584 194.5 346.052 194.36 345.417 194.36C344.745 194.36 344.157 194.519 343.653 194.836C343.168 195.135 342.785 195.564 342.505 196.124C342.244 196.684 342.113 197.365 342.113 198.168C342.113 198.971 342.253 199.661 342.533 200.24C342.832 200.8 343.242 201.239 343.765 201.556C344.306 201.855 344.941 202.004 345.669 202.004C346.341 202.004 346.948 201.892 347.489 201.668C348.03 201.425 348.506 201.071 348.917 200.604L351.269 202.956C350.597 203.74 349.785 204.328 348.833 204.72C347.881 205.112 346.836 205.308 345.697 205.308ZM354.317 205V191.392H358.601V205H354.317ZM358.601 197.524L356.809 196.124C357.163 194.537 357.761 193.305 358.601 192.428C359.441 191.551 360.607 191.112 362.101 191.112C362.754 191.112 363.323 191.215 363.809 191.42C364.313 191.607 364.751 191.905 365.125 192.316L362.577 195.536C362.39 195.331 362.157 195.172 361.877 195.06C361.597 194.948 361.279 194.892 360.925 194.892C360.215 194.892 359.646 195.116 359.217 195.564C358.806 195.993 358.601 196.647 358.601 197.524ZM366.266 205V191.392H370.55V205H366.266ZM368.422 189.516C367.75 189.516 367.19 189.292 366.742 188.844C366.313 188.377 366.098 187.817 366.098 187.164C366.098 186.492 366.313 185.932 366.742 185.484C367.19 185.036 367.75 184.812 368.422 184.812C369.094 184.812 369.645 185.036 370.074 185.484C370.503 185.932 370.718 186.492 370.718 187.164C370.718 187.817 370.503 188.377 370.074 188.844C369.645 189.292 369.094 189.516 368.422 189.516ZM379.251 205.28C378 205.28 376.88 204.972 375.891 204.356C374.92 203.74 374.145 202.9 373.567 201.836C373.007 200.772 372.727 199.559 372.727 198.196C372.727 196.833 373.007 195.62 373.567 194.556C374.145 193.492 374.92 192.652 375.891 192.036C376.88 191.42 378 191.112 379.251 191.112C380.165 191.112 380.987 191.289 381.715 191.644C382.461 191.999 383.068 192.493 383.535 193.128C384.001 193.744 384.263 194.453 384.319 195.256V201.136C384.263 201.939 384.001 202.657 383.535 203.292C383.087 203.908 382.489 204.393 381.743 204.748C380.996 205.103 380.165 205.28 379.251 205.28ZM380.119 201.416C381.033 201.416 381.771 201.117 382.331 200.52C382.891 199.904 383.171 199.129 383.171 198.196C383.171 197.561 383.04 197.001 382.779 196.516C382.536 196.031 382.181 195.657 381.715 195.396C381.267 195.116 380.744 194.976 380.147 194.976C379.549 194.976 379.017 195.116 378.551 195.396C378.103 195.657 377.739 196.031 377.459 196.516C377.197 197.001 377.067 197.561 377.067 198.196C377.067 198.812 377.197 199.363 377.459 199.848C377.72 200.333 378.084 200.716 378.551 200.996C379.017 201.276 379.54 201.416 380.119 201.416ZM383.003 205V201.332L383.647 198.028L383.003 194.724V191.392H387.203V205H383.003Z" fill="white"/>
<path d="M43.225 419.54C40.825 419.54 38.605 419.12 36.565 418.28C34.555 417.44 32.785 416.27 31.255 414.77C29.725 413.27 28.54 411.53 27.7 409.55C26.86 407.54 26.44 405.38 26.44 403.07C26.44 400.73 26.86 398.57 27.7 396.59C28.54 394.61 29.71 392.885 31.21 391.415C32.71 389.915 34.465 388.76 36.475 387.95C38.515 387.11 40.735 386.69 43.135 386.69C45.505 386.69 47.695 387.11 49.705 387.95C51.745 388.76 53.515 389.915 55.015 391.415C56.545 392.885 57.73 394.625 58.57 396.635C59.41 398.615 59.83 400.775 59.83 403.115C59.83 405.425 59.41 407.585 58.57 409.595C57.73 411.575 56.56 413.315 55.06 414.815C53.56 416.285 51.79 417.44 49.75 418.28C47.74 419.12 45.565 419.54 43.225 419.54ZM43.135 413.105C45.025 413.105 46.675 412.685 48.085 411.845C49.525 411.005 50.635 409.835 51.415 408.335C52.195 406.805 52.585 405.05 52.585 403.07C52.585 401.57 52.36 400.22 51.91 399.02C51.46 397.79 50.815 396.74 49.975 395.87C49.135 394.97 48.13 394.295 46.96 393.845C45.82 393.365 44.545 393.125 43.135 393.125C41.245 393.125 39.58 393.545 38.14 394.385C36.73 395.195 35.635 396.35 34.855 397.85C34.075 399.32 33.685 401.06 33.685 403.07C33.685 404.57 33.91 405.935 34.36 407.165C34.81 408.395 35.44 409.46 36.25 410.36C37.09 411.23 38.095 411.905 39.265 412.385C40.435 412.865 41.725 413.105 43.135 413.105ZM73.4049 419.495C71.3949 419.495 69.6099 419.09 68.0499 418.28C66.5199 417.44 65.3199 416.3 64.4499 414.86C63.5799 413.39 63.1449 411.71 63.1449 409.82V397.13H70.0299V409.73C70.0299 410.48 70.1499 411.125 70.3899 411.665C70.6599 412.205 71.0499 412.625 71.5599 412.925C72.0699 413.225 72.6849 413.375 73.4049 413.375C74.4249 413.375 75.2349 413.06 75.8349 412.43C76.4349 411.77 76.7349 410.87 76.7349 409.73V397.13H83.6199V409.775C83.6199 411.695 83.1849 413.39 82.3149 414.86C81.4449 416.3 80.2449 417.44 78.7149 418.28C77.1849 419.09 75.4149 419.495 73.4049 419.495ZM87.9427 419V397.13H94.8277V419H87.9427ZM94.8277 406.985L91.9477 404.735C92.5177 402.185 93.4777 400.205 94.8277 398.795C96.1777 397.385 98.0527 396.68 100.453 396.68C101.503 396.68 102.418 396.845 103.198 397.175C104.008 397.475 104.713 397.955 105.313 398.615L101.218 403.79C100.918 403.46 100.543 403.205 100.093 403.025C99.6427 402.845 99.1327 402.755 98.5627 402.755C97.4227 402.755 96.5077 403.115 95.8177 403.835C95.1577 404.525 94.8277 405.575 94.8277 406.985ZM127.037 419L114.797 387.23H122.357L131.672 412.925H128.567L138.017 387.23H145.487L133.112 419H127.037ZM148.587 419V397.13H155.472V419H148.587ZM152.052 394.115C150.972 394.115 150.072 393.755 149.352 393.035C148.662 392.285 148.317 391.385 148.317 390.335C148.317 389.255 148.662 388.355 149.352 387.635C150.072 386.915 150.972 386.555 152.052 386.555C153.132 386.555 154.017 386.915 154.707 387.635C155.397 388.355 155.742 389.255 155.742 390.335C155.742 391.385 155.397 392.285 154.707 393.035C154.017 393.755 153.132 394.115 152.052 394.115ZM168.286 419.54C166.996 419.54 165.721 419.375 164.461 419.045C163.231 418.715 162.076 418.25 160.996 417.65C159.946 417.02 159.046 416.3 158.296 415.49L162.211 411.53C162.931 412.31 163.786 412.925 164.776 413.375C165.766 413.795 166.846 414.005 168.016 414.005C168.826 414.005 169.441 413.885 169.861 413.645C170.311 413.405 170.536 413.075 170.536 412.655C170.536 412.115 170.266 411.71 169.726 411.44C169.216 411.14 168.556 410.885 167.746 410.675C166.936 410.435 166.081 410.18 165.181 409.91C164.281 409.64 163.426 409.265 162.616 408.785C161.806 408.305 161.146 407.645 160.636 406.805C160.126 405.935 159.871 404.84 159.871 403.52C159.871 402.11 160.231 400.895 160.951 399.875C161.671 398.825 162.691 398 164.011 397.4C165.331 396.8 166.876 396.5 168.646 396.5C170.506 396.5 172.216 396.83 173.776 397.49C175.366 398.12 176.656 399.065 177.646 400.325L173.731 404.285C173.041 403.475 172.261 402.905 171.391 402.575C170.551 402.245 169.726 402.08 168.916 402.08C168.136 402.08 167.551 402.2 167.161 402.44C166.771 402.65 166.576 402.965 166.576 403.385C166.576 403.835 166.831 404.195 167.341 404.465C167.851 404.735 168.511 404.975 169.321 405.185C170.131 405.395 170.986 405.65 171.886 405.95C172.786 406.25 173.641 406.655 174.451 407.165C175.261 407.675 175.921 408.365 176.431 409.235C176.941 410.075 177.196 411.185 177.196 412.565C177.196 414.695 176.386 416.39 174.766 417.65C173.176 418.91 171.016 419.54 168.286 419.54ZM180.931 419V397.13H187.816V419H180.931ZM184.396 394.115C183.316 394.115 182.416 393.755 181.696 393.035C181.006 392.285 180.661 391.385 180.661 390.335C180.661 389.255 181.006 388.355 181.696 387.635C182.416 386.915 183.316 386.555 184.396 386.555C185.476 386.555 186.361 386.915 187.051 387.635C187.741 388.355 188.086 389.255 188.086 390.335C188.086 391.385 187.741 392.285 187.051 393.035C186.361 393.755 185.476 394.115 184.396 394.115ZM203.194 419.495C200.944 419.495 198.904 419 197.074 418.01C195.274 416.99 193.849 415.61 192.799 413.87C191.749 412.13 191.224 410.18 191.224 408.02C191.224 405.86 191.749 403.925 192.799 402.215C193.849 400.505 195.274 399.155 197.074 398.165C198.874 397.145 200.914 396.635 203.194 396.635C205.474 396.635 207.514 397.13 209.314 398.12C211.114 399.11 212.539 400.475 213.589 402.215C214.639 403.925 215.164 405.86 215.164 408.02C215.164 410.18 214.639 412.13 213.589 413.87C212.539 415.61 211.114 416.99 209.314 418.01C207.514 419 205.474 419.495 203.194 419.495ZM203.194 413.24C204.184 413.24 205.054 413.03 205.804 412.61C206.554 412.16 207.124 411.545 207.514 410.765C207.934 409.955 208.144 409.04 208.144 408.02C208.144 407 207.934 406.115 207.514 405.365C207.094 404.585 206.509 403.985 205.759 403.565C205.039 403.115 204.184 402.89 203.194 402.89C202.234 402.89 201.379 403.115 200.629 403.565C199.879 403.985 199.294 404.585 198.874 405.365C198.454 406.145 198.244 407.045 198.244 408.065C198.244 409.055 198.454 409.955 198.874 410.765C199.294 411.545 199.879 412.16 200.629 412.61C201.379 413.03 202.234 413.24 203.194 413.24ZM233.037 419V406.535C233.037 405.395 232.677 404.48 231.957 403.79C231.267 403.07 230.382 402.71 229.302 402.71C228.552 402.71 227.892 402.875 227.322 403.205C226.752 403.505 226.302 403.955 225.972 404.555C225.642 405.125 225.477 405.785 225.477 406.535L222.822 405.23C222.822 403.52 223.197 402.02 223.947 400.73C224.697 399.44 225.732 398.45 227.052 397.76C228.402 397.04 229.917 396.68 231.597 396.68C233.217 396.68 234.642 397.07 235.872 397.85C237.132 398.6 238.122 399.605 238.842 400.865C239.562 402.125 239.922 403.505 239.922 405.005V419H233.037ZM218.592 419V397.13H225.477V419H218.592Z" fill="white"/>
<path d="M330.175 559.42C328.308 559.42 326.582 559.093 324.995 558.44C323.432 557.787 322.055 556.877 320.865 555.71C319.675 554.543 318.753 553.19 318.1 551.65C317.447 550.087 317.12 548.407 317.12 546.61C317.12 544.79 317.447 543.11 318.1 541.57C318.753 540.03 319.663 538.688 320.83 537.545C321.997 536.378 323.362 535.48 324.925 534.85C326.512 534.197 328.238 533.87 330.105 533.87C331.948 533.87 333.652 534.197 335.215 534.85C336.802 535.48 338.178 536.378 339.345 537.545C340.535 538.688 341.457 540.042 342.11 541.605C342.763 543.145 343.09 544.825 343.09 546.645C343.09 548.442 342.763 550.122 342.11 551.685C341.457 553.225 340.547 554.578 339.38 555.745C338.213 556.888 336.837 557.787 335.25 558.44C333.687 559.093 331.995 559.42 330.175 559.42ZM330.105 554.415C331.575 554.415 332.858 554.088 333.955 553.435C335.075 552.782 335.938 551.872 336.545 550.705C337.152 549.515 337.455 548.15 337.455 546.61C337.455 545.443 337.28 544.393 336.93 543.46C336.58 542.503 336.078 541.687 335.425 541.01C334.772 540.31 333.99 539.785 333.08 539.435C332.193 539.062 331.202 538.875 330.105 538.875C328.635 538.875 327.34 539.202 326.22 539.855C325.123 540.485 324.272 541.383 323.665 542.55C323.058 543.693 322.755 545.047 322.755 546.61C322.755 547.777 322.93 548.838 323.28 549.795C323.63 550.752 324.12 551.58 324.75 552.28C325.403 552.957 326.185 553.482 327.095 553.855C328.005 554.228 329.008 554.415 330.105 554.415ZM353.648 559.385C352.085 559.385 350.697 559.07 349.483 558.44C348.293 557.787 347.36 556.9 346.683 555.78C346.007 554.637 345.668 553.33 345.668 551.86V541.99H351.023V551.79C351.023 552.373 351.117 552.875 351.303 553.295C351.513 553.715 351.817 554.042 352.213 554.275C352.61 554.508 353.088 554.625 353.648 554.625C354.442 554.625 355.072 554.38 355.538 553.89C356.005 553.377 356.238 552.677 356.238 551.79V541.99H361.593V551.825C361.593 553.318 361.255 554.637 360.578 555.78C359.902 556.9 358.968 557.787 357.778 558.44C356.588 559.07 355.212 559.385 353.648 559.385ZM364.955 559V541.99H370.31V559H364.955ZM370.31 549.655L368.07 547.905C368.514 545.922 369.26 544.382 370.31 543.285C371.36 542.188 372.819 541.64 374.685 541.64C375.502 541.64 376.214 541.768 376.82 542.025C377.45 542.258 377.999 542.632 378.465 543.145L375.28 547.17C375.047 546.913 374.755 546.715 374.405 546.575C374.055 546.435 373.659 546.365 373.215 546.365C372.329 546.365 371.617 546.645 371.08 547.205C370.567 547.742 370.31 548.558 370.31 549.655ZM387.662 559V534.29H391.582L401.312 549.445H399.317L409.012 534.29H412.967V559H407.472V543.565L408.452 543.81L402.117 553.68H398.477L392.177 543.81L393.122 543.565V559H387.662ZM417.216 559V541.99H422.571V559H417.216ZM419.911 539.645C419.071 539.645 418.371 539.365 417.811 538.805C417.275 538.222 417.006 537.522 417.006 536.705C417.006 535.865 417.275 535.165 417.811 534.605C418.371 534.045 419.071 533.765 419.911 533.765C420.751 533.765 421.44 534.045 421.976 534.605C422.513 535.165 422.781 535.865 422.781 536.705C422.781 537.522 422.513 538.222 421.976 538.805C421.44 539.365 420.751 539.645 419.911 539.645ZM432.537 559.42C431.534 559.42 430.542 559.292 429.562 559.035C428.605 558.778 427.707 558.417 426.867 557.95C426.05 557.46 425.35 556.9 424.767 556.27L427.812 553.19C428.372 553.797 429.037 554.275 429.807 554.625C430.577 554.952 431.417 555.115 432.327 555.115C432.957 555.115 433.435 555.022 433.762 554.835C434.112 554.648 434.287 554.392 434.287 554.065C434.287 553.645 434.077 553.33 433.657 553.12C433.26 552.887 432.747 552.688 432.117 552.525C431.487 552.338 430.822 552.14 430.122 551.93C429.422 551.72 428.757 551.428 428.127 551.055C427.497 550.682 426.984 550.168 426.587 549.515C426.19 548.838 425.992 547.987 425.992 546.96C425.992 545.863 426.272 544.918 426.832 544.125C427.392 543.308 428.185 542.667 429.212 542.2C430.239 541.733 431.44 541.5 432.817 541.5C434.264 541.5 435.594 541.757 436.807 542.27C438.044 542.76 439.047 543.495 439.817 544.475L436.772 547.555C436.235 546.925 435.629 546.482 434.952 546.225C434.299 545.968 433.657 545.84 433.027 545.84C432.42 545.84 431.965 545.933 431.662 546.12C431.359 546.283 431.207 546.528 431.207 546.855C431.207 547.205 431.405 547.485 431.802 547.695C432.199 547.905 432.712 548.092 433.342 548.255C433.972 548.418 434.637 548.617 435.337 548.85C436.037 549.083 436.702 549.398 437.332 549.795C437.962 550.192 438.475 550.728 438.872 551.405C439.269 552.058 439.467 552.922 439.467 553.995C439.467 555.652 438.837 556.97 437.577 557.95C436.34 558.93 434.66 559.42 432.537 559.42ZM448.567 559.42C447.564 559.42 446.572 559.292 445.592 559.035C444.636 558.778 443.737 558.417 442.897 557.95C442.081 557.46 441.381 556.9 440.797 556.27L443.842 553.19C444.402 553.797 445.067 554.275 445.837 554.625C446.607 554.952 447.447 555.115 448.357 555.115C448.987 555.115 449.466 555.022 449.792 554.835C450.142 554.648 450.317 554.392 450.317 554.065C450.317 553.645 450.107 553.33 449.687 553.12C449.291 552.887 448.777 552.688 448.147 552.525C447.517 552.338 446.852 552.14 446.152 551.93C445.452 551.72 444.787 551.428 444.157 551.055C443.527 550.682 443.014 550.168 442.617 549.515C442.221 548.838 442.022 547.987 442.022 546.96C442.022 545.863 442.302 544.918 442.862 544.125C443.422 543.308 444.216 542.667 445.242 542.2C446.269 541.733 447.471 541.5 448.847 541.5C450.294 541.5 451.624 541.757 452.837 542.27C454.074 542.76 455.077 543.495 455.847 544.475L452.802 547.555C452.266 546.925 451.659 546.482 450.982 546.225C450.329 545.968 449.687 545.84 449.057 545.84C448.451 545.84 447.996 545.933 447.692 546.12C447.389 546.283 447.237 546.528 447.237 546.855C447.237 547.205 447.436 547.485 447.832 547.695C448.229 547.905 448.742 548.092 449.372 548.255C450.002 548.418 450.667 548.617 451.367 548.85C452.067 549.083 452.732 549.398 453.362 549.795C453.992 550.192 454.506 550.728 454.902 551.405C455.299 552.058 455.497 552.922 455.497 553.995C455.497 555.652 454.867 556.97 453.607 557.95C452.371 558.93 450.691 559.42 448.567 559.42ZM458.403 559V541.99H463.758V559H458.403ZM461.098 539.645C460.258 539.645 459.558 539.365 458.998 538.805C458.461 538.222 458.193 537.522 458.193 536.705C458.193 535.865 458.461 535.165 458.998 534.605C459.558 534.045 460.258 533.765 461.098 533.765C461.938 533.765 462.626 534.045 463.163 534.605C463.699 535.165 463.968 535.865 463.968 536.705C463.968 537.522 463.699 538.222 463.163 538.805C462.626 539.365 461.938 539.645 461.098 539.645ZM475.719 559.385C473.969 559.385 472.382 559 470.959 558.23C469.559 557.437 468.45 556.363 467.634 555.01C466.817 553.657 466.409 552.14 466.409 550.46C466.409 548.78 466.817 547.275 467.634 545.945C468.45 544.615 469.559 543.565 470.959 542.795C472.359 542.002 473.945 541.605 475.719 541.605C477.492 541.605 479.079 541.99 480.479 542.76C481.879 543.53 482.987 544.592 483.804 545.945C484.62 547.275 485.029 548.78 485.029 550.46C485.029 552.14 484.62 553.657 483.804 555.01C482.987 556.363 481.879 557.437 480.479 558.23C479.079 559 477.492 559.385 475.719 559.385ZM475.719 554.52C476.489 554.52 477.165 554.357 477.749 554.03C478.332 553.68 478.775 553.202 479.079 552.595C479.405 551.965 479.569 551.253 479.569 550.46C479.569 549.667 479.405 548.978 479.079 548.395C478.752 547.788 478.297 547.322 477.714 546.995C477.154 546.645 476.489 546.47 475.719 546.47C474.972 546.47 474.307 546.645 473.724 546.995C473.14 547.322 472.685 547.788 472.359 548.395C472.032 549.002 471.869 549.702 471.869 550.495C471.869 551.265 472.032 551.965 472.359 552.595C472.685 553.202 473.14 553.68 473.724 554.03C474.307 554.357 474.972 554.52 475.719 554.52ZM498.93 559V549.305C498.93 548.418 498.65 547.707 498.09 547.17C497.553 546.61 496.865 546.33 496.025 546.33C495.441 546.33 494.928 546.458 494.485 546.715C494.041 546.948 493.691 547.298 493.435 547.765C493.178 548.208 493.05 548.722 493.05 549.305L490.985 548.29C490.985 546.96 491.276 545.793 491.86 544.79C492.443 543.787 493.248 543.017 494.275 542.48C495.325 541.92 496.503 541.64 497.81 541.64C499.07 541.64 500.178 541.943 501.135 542.55C502.115 543.133 502.885 543.915 503.445 544.895C504.005 545.875 504.285 546.948 504.285 548.115V559H498.93ZM487.695 559V541.99H493.05V559H487.695Z" fill="white"/>
<path d="M486.96 324.352C485.104 324.352 483.504 324.053 482.16 323.456C480.837 322.837 479.621 321.909 478.512 320.672L481.776 317.44C482.501 318.272 483.301 318.923 484.176 319.392C485.072 319.84 486.107 320.064 487.28 320.064C488.347 320.064 489.168 319.872 489.744 319.488C490.341 319.104 490.64 318.571 490.64 317.888C490.64 317.269 490.448 316.768 490.064 316.384C489.68 316 489.168 315.669 488.528 315.392C487.909 315.115 487.216 314.848 486.448 314.592C485.701 314.336 484.955 314.048 484.208 313.728C483.461 313.387 482.768 312.971 482.128 312.48C481.509 311.968 481.008 311.339 480.624 310.592C480.24 309.824 480.048 308.864 480.048 307.712C480.048 306.325 480.379 305.131 481.04 304.128C481.723 303.125 482.661 302.368 483.856 301.856C485.051 301.323 486.427 301.056 487.984 301.056C489.563 301.056 491.003 301.333 492.304 301.888C493.627 302.443 494.715 303.2 495.568 304.16L492.304 307.392C491.621 306.688 490.928 306.165 490.224 305.824C489.541 305.483 488.763 305.312 487.888 305.312C487.013 305.312 486.32 305.483 485.808 305.824C485.296 306.144 485.04 306.613 485.04 307.232C485.04 307.808 485.232 308.277 485.616 308.64C486 308.981 486.501 309.28 487.12 309.536C487.76 309.792 488.453 310.048 489.2 310.304C489.968 310.56 490.725 310.859 491.472 311.2C492.219 311.541 492.901 311.979 493.52 312.512C494.16 313.024 494.672 313.685 495.056 314.496C495.44 315.285 495.632 316.267 495.632 317.44C495.632 319.595 494.864 321.291 493.328 322.528C491.792 323.744 489.669 324.352 486.96 324.352ZM505.811 324.352C504.211 324.352 502.76 324 501.459 323.296C500.157 322.592 499.133 321.621 498.387 320.384C497.64 319.147 497.267 317.76 497.267 316.224C497.267 314.667 497.64 313.28 498.387 312.064C499.155 310.827 500.189 309.856 501.491 309.152C502.792 308.448 504.253 308.096 505.875 308.096C507.091 308.096 508.2 308.309 509.203 308.736C510.227 309.141 511.133 309.76 511.923 310.592L508.787 313.728C508.424 313.323 507.997 313.024 507.507 312.832C507.037 312.64 506.493 312.544 505.875 312.544C505.171 312.544 504.541 312.704 503.987 313.024C503.453 313.323 503.027 313.749 502.707 314.304C502.408 314.837 502.259 315.467 502.259 316.192C502.259 316.917 502.408 317.557 502.707 318.112C503.027 318.667 503.464 319.104 504.019 319.424C504.573 319.744 505.192 319.904 505.875 319.904C506.515 319.904 507.08 319.797 507.571 319.584C508.083 319.349 508.52 319.029 508.883 318.624L511.987 321.76C511.176 322.613 510.259 323.264 509.235 323.712C508.211 324.139 507.069 324.352 505.811 324.352ZM521.279 324.352C519.679 324.352 518.228 324 516.927 323.296C515.647 322.571 514.633 321.589 513.887 320.352C513.14 319.115 512.767 317.728 512.767 316.192C512.767 314.656 513.14 313.28 513.887 312.064C514.633 310.848 515.647 309.888 516.927 309.184C518.207 308.459 519.657 308.096 521.279 308.096C522.9 308.096 524.351 308.448 525.631 309.152C526.911 309.856 527.924 310.827 528.671 312.064C529.417 313.28 529.791 314.656 529.791 316.192C529.791 317.728 529.417 319.115 528.671 320.352C527.924 321.589 526.911 322.571 525.631 323.296C524.351 324 522.9 324.352 521.279 324.352ZM521.279 319.904C521.983 319.904 522.601 319.755 523.135 319.456C523.668 319.136 524.073 318.699 524.351 318.144C524.649 317.568 524.799 316.917 524.799 316.192C524.799 315.467 524.649 314.837 524.351 314.304C524.052 313.749 523.636 313.323 523.103 313.024C522.591 312.704 521.983 312.544 521.279 312.544C520.596 312.544 519.988 312.704 519.455 313.024C518.921 313.323 518.505 313.749 518.207 314.304C517.908 314.859 517.759 315.499 517.759 316.224C517.759 316.928 517.908 317.568 518.207 318.144C518.505 318.699 518.921 319.136 519.455 319.456C519.988 319.755 520.596 319.904 521.279 319.904ZM539.14 324.352C537.711 324.352 536.441 324.064 535.332 323.488C534.244 322.891 533.391 322.08 532.772 321.056C532.153 320.011 531.844 318.816 531.844 317.472V308.448H536.74V317.408C536.74 317.941 536.825 318.4 536.996 318.784C537.188 319.168 537.465 319.467 537.828 319.68C538.191 319.893 538.628 320 539.14 320C539.865 320 540.441 319.776 540.868 319.328C541.295 318.859 541.508 318.219 541.508 317.408V308.448H546.404V317.44C546.404 318.805 546.095 320.011 545.476 321.056C544.857 322.08 544.004 322.891 542.916 323.488C541.828 324.064 540.569 324.352 539.14 324.352ZM551.686 324V302.016H556.582V324H551.686ZM548.166 312.608V308.448H560.102V312.608H548.166ZM562.259 324V308.448H567.155V324H562.259ZM564.723 306.304C563.955 306.304 563.315 306.048 562.803 305.536C562.313 305.003 562.067 304.363 562.067 303.616C562.067 302.848 562.313 302.208 562.803 301.696C563.315 301.184 563.955 300.928 564.723 300.928C565.491 300.928 566.121 301.184 566.611 301.696C567.102 302.208 567.347 302.848 567.347 303.616C567.347 304.363 567.102 305.003 566.611 305.536C566.121 306.048 565.491 306.304 564.723 306.304ZM580.875 324V315.136C580.875 314.325 580.619 313.675 580.107 313.184C579.616 312.672 578.987 312.416 578.219 312.416C577.686 312.416 577.216 312.533 576.811 312.768C576.406 312.981 576.086 313.301 575.851 313.728C575.616 314.133 575.499 314.603 575.499 315.136L573.611 314.208C573.611 312.992 573.878 311.925 574.411 311.008C574.944 310.091 575.68 309.387 576.619 308.896C577.579 308.384 578.656 308.128 579.851 308.128C581.003 308.128 582.016 308.405 582.891 308.96C583.787 309.493 584.491 310.208 585.003 311.104C585.515 312 585.771 312.981 585.771 314.048V324H580.875ZM570.603 324V308.448H575.499V324H570.603ZM595.508 330.976C593.801 330.976 592.297 330.677 590.996 330.08C589.716 329.504 588.702 328.683 587.956 327.616L590.964 324.608C591.518 325.269 592.137 325.771 592.82 326.112C593.524 326.453 594.366 326.624 595.348 326.624C596.564 326.624 597.513 326.325 598.196 325.728C598.9 325.131 599.252 324.288 599.252 323.2V319.232L600.084 315.84L599.348 312.448V308.448H604.148V323.072C604.148 324.672 603.774 326.059 603.028 327.232C602.281 328.405 601.257 329.323 599.956 329.984C598.654 330.645 597.172 330.976 595.508 330.976ZM595.284 323.52C593.854 323.52 592.585 323.179 591.476 322.496C590.366 321.813 589.492 320.885 588.852 319.712C588.212 318.539 587.892 317.237 587.892 315.808C587.892 314.357 588.212 313.056 588.852 311.904C589.492 310.731 590.366 309.813 591.476 309.152C592.585 308.469 593.854 308.128 595.284 308.128C596.35 308.128 597.3 308.331 598.132 308.736C598.985 309.12 599.668 309.675 600.18 310.4C600.713 311.104 601.012 311.925 601.076 312.864V318.784C601.012 319.701 600.713 320.523 600.18 321.248C599.668 321.952 598.985 322.507 598.132 322.912C597.278 323.317 596.329 323.52 595.284 323.52ZM596.212 319.168C596.894 319.168 597.481 319.019 597.972 318.72C598.484 318.421 598.868 318.027 599.124 317.536C599.401 317.024 599.54 316.448 599.54 315.808C599.54 315.168 599.401 314.592 599.124 314.08C598.868 313.568 598.484 313.163 597.972 312.864C597.481 312.565 596.894 312.416 596.212 312.416C595.55 312.416 594.964 312.565 594.452 312.864C593.94 313.163 593.545 313.568 593.268 314.08C592.99 314.592 592.852 315.168 592.852 315.808C592.852 316.405 592.99 316.971 593.268 317.504C593.545 318.016 593.929 318.421 594.42 318.72C594.932 319.019 595.529 319.168 596.212 319.168Z" fill="white"/>
<path d="M473.632 77V60.056H476.32L482.992 70.448H481.624L488.272 60.056H490.984V77H487.216V66.416L487.888 66.584L483.544 73.352H481.048L476.728 66.584L477.376 66.416V77H473.632ZM499.514 77.264C498.314 77.264 497.226 77 496.25 76.472C495.29 75.928 494.53 75.192 493.97 74.264C493.41 73.336 493.13 72.296 493.13 71.144C493.13 69.992 493.41 68.96 493.97 68.048C494.53 67.136 495.29 66.416 496.25 65.888C497.21 65.344 498.298 65.072 499.514 65.072C500.73 65.072 501.818 65.336 502.778 65.864C503.738 66.392 504.498 67.12 505.058 68.048C505.618 68.96 505.898 69.992 505.898 71.144C505.898 72.296 505.618 73.336 505.058 74.264C504.498 75.192 503.738 75.928 502.778 76.472C501.818 77 500.73 77.264 499.514 77.264ZM499.514 73.928C500.042 73.928 500.506 73.816 500.906 73.592C501.306 73.352 501.61 73.024 501.818 72.608C502.042 72.176 502.154 71.688 502.154 71.144C502.154 70.6 502.042 70.128 501.818 69.728C501.594 69.312 501.282 68.992 500.882 68.768C500.498 68.528 500.042 68.408 499.514 68.408C499.002 68.408 498.546 68.528 498.146 68.768C497.746 68.992 497.434 69.312 497.21 69.728C496.986 70.144 496.874 70.624 496.874 71.168C496.874 71.696 496.986 72.176 497.21 72.608C497.434 73.024 497.746 73.352 498.146 73.592C498.546 73.816 499.002 73.928 499.514 73.928ZM507.726 77V65.336H511.398V77H507.726ZM511.398 70.592L509.862 69.392C510.166 68.032 510.678 66.976 511.398 66.224C512.118 65.472 513.118 65.096 514.398 65.096C514.958 65.096 515.446 65.184 515.862 65.36C516.294 65.52 516.67 65.776 516.99 66.128L514.806 68.888C514.646 68.712 514.446 68.576 514.206 68.48C513.966 68.384 513.694 68.336 513.39 68.336C512.782 68.336 512.294 68.528 511.926 68.912C511.574 69.28 511.398 69.84 511.398 70.592ZM523.4 77.264C522.136 77.264 521.008 77.008 520.016 76.496C519.04 75.968 518.272 75.24 517.712 74.312C517.152 73.384 516.872 72.336 516.872 71.168C516.872 70 517.144 68.96 517.688 68.048C518.248 67.12 519 66.392 519.944 65.864C520.888 65.336 521.952 65.072 523.136 65.072C524.288 65.072 525.304 65.32 526.184 65.816C527.064 66.312 527.752 67 528.248 67.88C528.76 68.76 529.016 69.768 529.016 70.904C529.016 71.112 529 71.336 528.968 71.576C528.952 71.8 528.912 72.064 528.848 72.368L518.792 72.392V69.872L527.288 69.848L525.704 70.904C525.688 70.232 525.584 69.68 525.392 69.248C525.2 68.8 524.912 68.464 524.528 68.24C524.16 68 523.704 67.88 523.16 67.88C522.584 67.88 522.08 68.016 521.648 68.288C521.232 68.544 520.904 68.912 520.664 69.392C520.44 69.872 520.328 70.456 520.328 71.144C520.328 71.832 520.448 72.424 520.688 72.92C520.944 73.4 521.296 73.776 521.744 74.048C522.208 74.304 522.752 74.432 523.376 74.432C523.952 74.432 524.472 74.336 524.936 74.144C525.4 73.936 525.808 73.632 526.16 73.232L528.176 75.248C527.6 75.92 526.904 76.424 526.088 76.76C525.272 77.096 524.376 77.264 523.4 77.264ZM533.092 77.264C532.468 77.264 531.948 77.048 531.532 76.616C531.116 76.184 530.908 75.664 530.908 75.056C530.908 74.416 531.116 73.888 531.532 73.472C531.948 73.04 532.468 72.824 533.092 72.824C533.732 72.824 534.252 73.04 534.652 73.472C535.068 73.888 535.276 74.416 535.276 75.056C535.276 75.664 535.068 76.184 534.652 76.616C534.252 77.048 533.732 77.264 533.092 77.264ZM540.288 77.264C539.664 77.264 539.144 77.048 538.728 76.616C538.312 76.184 538.104 75.664 538.104 75.056C538.104 74.416 538.312 73.888 538.728 73.472C539.144 73.04 539.664 72.824 540.288 72.824C540.928 72.824 541.448 73.04 541.848 73.472C542.264 73.888 542.472 74.416 542.472 75.056C542.472 75.664 542.264 76.184 541.848 76.616C541.448 77.048 540.928 77.264 540.288 77.264ZM547.483 77.264C546.859 77.264 546.339 77.048 545.923 76.616C545.507 76.184 545.299 75.664 545.299 75.056C545.299 74.416 545.507 73.888 545.923 73.472C546.339 73.04 546.859 72.824 547.483 72.824C548.123 72.824 548.643 73.04 549.043 73.472C549.459 73.888 549.667 74.416 549.667 75.056C549.667 75.664 549.459 76.184 549.043 76.616C548.643 77.048 548.123 77.264 547.483 77.264Z" fill="white"/>
</svg>
