<svg width="100" height="100" viewBox="0 0 127 109" fill="none" xmlns="http://www.w3.org/2000/svg">
<rect width="126.288" height="108.247" rx="5.63786" fill="#DADADA"/>
<path d="M99.027 83.7528C99.027 85.1882 98.4452 86.4872 97.5036 87.4275C96.5632 88.3668 95.2632 88.9498 93.8289 88.9498H32.8238C29.953 88.9498 27.6257 86.6236 27.6257 83.7528C27.6257 83.0954 27.7475 82.4674 27.9697 81.8889C28.2335 81.2034 28.6372 80.5877 29.1468 80.078C30.0872 79.1376 31.3873 78.5547 32.8227 78.5547H93.8277C96.0412 78.5547 97.9321 79.9393 98.6797 81.8889C98.9052 82.4674 99.027 83.0954 99.027 83.7528Z" fill="#49151A"/>
<path d="M98.6847 81.8888C98.422 82.5744 98.0172 83.19 97.5075 83.6997C96.5672 84.6389 95.2671 85.2219 93.8328 85.2219H32.8278C30.6144 85.2219 28.7234 83.8384 27.9736 81.8888C28.2374 81.2032 28.6411 80.5876 29.1508 80.0779C30.0912 79.1375 31.3912 78.5546 32.8266 78.5546H93.8317C96.0451 78.5546 97.936 79.9392 98.6847 81.8888Z" fill="#672122"/>
<path d="M56.0486 21.7047V28.9347C56.0486 32.0795 55.2435 33.94 53.71 36.6856L49.6485 42.9741C49.0599 44.0284 48.751 45.2146 48.751 46.4211V76.0075C48.751 77.9536 50.3296 79.5322 52.2758 79.5322H61.1092V21.7047H56.0486Z" fill="#AEEAFF"/>
<path d="M66.1708 21.7047V28.9347C66.1708 32.0795 66.9759 33.94 68.5094 36.6856L72.5709 42.9741C73.1595 44.0284 73.4684 45.2146 73.4684 46.4211V76.0075C73.4684 77.9536 71.8898 79.5322 69.9436 79.5322H61.1102V21.7047H66.1708Z" fill="#83D2E5"/>
<path d="M61.1111 19.7325H54.817L56.0494 21.7047H61.1111V19.7325Z" fill="#BD1E2C"/>
<path d="M67.4037 19.7325H61.1107V21.7047H66.1713L67.4037 19.7325Z" fill="#8C231F"/>
<path d="M61.1128 21.7047V76.6051H52.9368C52.0189 76.6051 51.2714 75.8575 51.2714 74.9396V47.5543C51.2714 46.7278 51.48 45.908 51.8758 45.1841L55.6328 39.3659L55.6576 39.3219C57.261 36.45 58.0244 34.5275 58.0244 31.3691V21.7047H61.1128Z" fill="#CFF5FF"/>
<path d="M70.9519 47.5542V74.9395C70.9519 75.8574 70.2032 76.6049 69.2853 76.6049H61.1093V21.7046H64.1966V31.369C64.1966 34.5273 64.96 36.4498 66.5634 39.3218L66.5882 39.3658L70.3453 45.184C70.7422 45.9079 70.9519 46.7277 70.9519 47.5542Z" fill="#BDE8F2"/>
<path d="M70.9533 48.2883V74.9396C70.9533 75.8574 70.2046 76.605 69.2867 76.605H52.9358C52.018 76.605 51.2704 75.8574 51.2704 74.9396V48.5161C51.2704 48.5161 55.1244 44.4906 61.1118 49.5421C64.7618 52.6227 70.9533 48.2883 70.9533 48.2883Z" fill="#E3F7FC"/>
<path d="M61.1118 49.5421C55.1244 44.4906 51.2704 48.5161 51.2704 48.5161V74.9396C51.2704 75.8574 52.018 76.605 52.9358 76.605H61.1118V49.5421Z" fill="white"/>
<path d="M93.5757 66.5324C93.5757 67.6701 87.2207 68.5924 79.3807 68.5924C71.5407 68.5924 65.1857 67.6701 65.1857 66.5324C65.1857 65.3946 71.5407 64.4723 79.3807 64.4723C87.2207 64.4723 93.5757 65.3946 93.5757 66.5324Z" fill="#49151A"/>
<path d="M73.2226 58.2077C74.225 52.9927 76.7158 51.0138 77.7476 50.4004C78.0272 50.2347 78.3858 50.238 78.662 50.4094C79.6825 51.0431 82.1327 53.0705 83.0336 58.3036C84.1826 64.9855 78.0644 64.7341 78.0644 64.7341C78.0644 64.7341 71.9428 64.8649 73.2226 58.2077Z" fill="#F66654"/>
<path d="M78.2055 50.2772C78.3645 50.2783 78.5235 50.3223 78.6611 50.408C79.6815 51.0417 82.1317 53.0691 83.0327 58.3022C84.1817 64.9841 78.0634 64.7327 78.0634 64.7327L78.2055 50.2772Z" fill="#D4583F"/>
<path d="M82.0273 62.7256C83.66 57.6718 86.373 56.012 87.4724 55.5294C87.7712 55.3986 88.1252 55.446 88.3789 55.6501C89.3137 56.4033 91.4989 58.7148 91.7526 64.02C92.0774 70.7922 86.0358 69.7955 86.0358 69.7955C86.0358 69.7955 79.9424 69.1776 82.0273 62.7256Z" fill="#F66654"/>
<path d="M87.9404 55.464C88.0983 55.4854 88.2505 55.5474 88.3768 55.65C89.3116 56.4033 91.4968 58.7148 91.7505 64.02C92.0752 70.7922 86.0337 69.7954 86.0337 69.7954L87.9404 55.464Z" fill="#D4583F"/>
<path d="M67.935 66.9395C66.7015 61.7741 68.156 58.945 68.845 57.9617C69.0321 57.6945 69.3591 57.5502 69.6816 57.593C70.8723 57.7498 73.9405 58.5898 76.915 62.9885C80.7127 68.6049 75.0331 70.8939 75.0331 70.8939C75.0331 70.8939 69.5091 73.5346 67.935 66.9395Z" fill="#F66654"/>
<path d="M69.2131 57.6617C69.3585 57.5975 69.5209 57.5727 69.6821 57.5941C70.8728 57.7508 73.941 58.5909 76.9155 62.9895C80.7132 68.6059 75.0347 70.8949 75.0347 70.8949L69.2131 57.6617Z" fill="#D4583F"/>
<path d="M76.3579 61.1774C80.398 57.7315 83.58 57.7417 84.7685 57.9074C85.091 57.9525 85.3683 58.1792 85.4766 58.4859C85.878 59.618 86.5252 62.7323 83.9589 67.3813C80.6821 73.3168 76.0614 69.2982 76.0614 69.2982C76.0614 69.2982 71.1993 65.5772 76.3579 61.1774Z" fill="#F66654"/>
<path d="M85.2027 58.098C85.3256 58.1984 85.4226 58.3314 85.4768 58.4859C85.8782 59.618 86.5254 62.7323 83.959 67.3813C80.6823 73.3169 76.0627 69.2993 76.0627 69.2993L85.2027 58.098Z" fill="#D4583F"/>
<path d="M79.3807 68.5924C71.5407 68.5924 65.1857 67.6701 65.1857 66.5323V69.8034C65.1857 76.0739 70.2688 81.1581 76.5404 81.1581H79.3818L79.3807 68.5924Z" fill="#889C29"/>
<path d="M79.3822 68.5925C87.2222 68.5925 93.5772 67.6702 93.5772 66.5325V69.8036C93.5772 76.074 88.4941 81.1582 82.2225 81.1582H79.3822V68.5925Z" fill="#6F811B"/>
<path d="M35.97 65.8579V68.6171C37.623 68.6171 38.9626 69.9566 38.9626 71.6097C38.9626 73.2627 37.623 74.6022 35.97 74.6022V83.2067H59.1709C60.4789 83.2067 61.5388 82.1468 61.5388 80.8377V65.8579H35.97Z" fill="#FFC239"/>
<path d="M41.964 80.2627C42.7997 80.2627 43.4772 79.5852 43.4772 78.7495C43.4772 77.9138 42.7997 77.2363 41.964 77.2363C41.1283 77.2363 40.4508 77.9138 40.4508 78.7495C40.4508 79.5852 41.1283 80.2627 41.964 80.2627Z" fill="#FCAB16"/>
<path d="M46.7696 70.5171C46.7696 71.568 45.9183 72.4193 44.8674 72.4193C43.8165 72.4193 42.9652 71.568 42.9652 70.5171C42.9652 69.4662 43.8165 68.6149 44.8674 68.6149C45.9172 68.6149 46.7696 69.4662 46.7696 70.5171Z" fill="#FCAB16"/>
<path d="M56.8 71.8645C56.8 72.6087 56.1968 73.213 55.4515 73.213C54.7061 73.213 54.1029 72.6098 54.1029 71.8645C54.1029 71.1203 54.7061 70.5159 55.4515 70.5159C56.1968 70.5159 56.8 71.1203 56.8 71.8645Z" fill="#FCAB16"/>
<path d="M50.9562 75.7028C50.9562 76.447 50.353 77.0514 49.6076 77.0514C48.8623 77.0514 48.259 76.4481 48.259 75.7028C48.259 74.9586 48.8623 74.3542 49.6076 74.3542C50.353 74.3542 50.9562 74.9586 50.9562 75.7028Z" fill="#FCAB16"/>
<path d="M57.9403 78.7495C57.9403 79.7023 57.1679 80.4747 56.2151 80.4747C55.2623 80.4747 54.4911 79.7023 54.4911 78.7495C54.4911 77.7967 55.2635 77.0243 56.2151 77.0243C57.1668 77.0243 57.9403 77.7967 57.9403 78.7495Z" fill="#FCAB16"/>
<path d="M35.97 65.8579L47.0822 61.9655C47.0822 61.9655 57.2292 60.6384 61.5399 65.8579C50.1142 65.8579 35.97 65.8579 35.97 65.8579Z" fill="#FCAB16"/>
</svg>
