<svg width="128" height="109" viewBox="0 0 128 109" fill="none" xmlns="http://www.w3.org/2000/svg">
<rect x="0.382721" width="126.852" height="108.247" rx="5.63786" fill="#DADADA"/>
<path d="M28.5723 82.3467H99.6091V25.9344H28.5723V82.3467Z" fill="#D4F1F3"/>
<path d="M99.6094 25.9341H28.5723V82.3467H99.6094V25.9341ZM95.9203 29.6232V78.6564H32.2613V29.6232H95.9203Z" fill="#348A97"/>
<path d="M37.3427 40.4739H90.8407V36.7849H37.3427V40.4739Z" fill="#48BBC6"/>
<path d="M41.9254 47.9208H86.2577V46.6911H41.9254V47.9208Z" fill="#48BBC6"/>
<path d="M41.9254 55.3689H86.2577V54.1392H41.9254V55.3689Z" fill="#48BBC6"/>
<path d="M86.2577 62.817H41.9254V61.5873H86.2577V62.817Z" fill="#48BBC6"/>
<path d="M76.6219 70.2639H41.9254V69.0342H76.6219V70.2639Z" fill="#48BBC6"/>
<path d="M87.3546 78.6565H85.2174L85.0871 78.5827L84.9567 78.6565H82.8208L85.0871 77.3518L87.3546 78.6565Z" fill="#8DA7A6"/>
<path d="M88.8367 80.7407L85.2153 78.6564H87.3525L88.8367 79.511V80.7407ZM81.3333 80.7407V78.6564V79.511L82.8187 78.6564H84.9546L81.3333 80.7407Z" fill="#245C67"/>
<path d="M81.3333 79.5111L85.085 77.3518L88.8367 79.5111V70.2578H81.3333V79.5111Z" fill="#F14E20"/>
<path d="M32.2614 73.3616V29.6233H83.9274C77.7482 31.5982 72.2196 34.0415 67.2764 36.7849H37.3424V40.4739H61.2264C58.2493 42.4611 55.5256 44.5503 53.0318 46.6912H41.9254V47.9209H51.6324C49.3514 49.9695 47.2745 52.0587 45.3918 54.1393H41.9254V55.369H44.2999C38.5585 61.9637 34.7134 68.4183 32.2614 73.3616Z" fill="#E3F6F7"/>
<path d="M28.5723 82.3467V25.9341H99.6094C93.9688 26.8244 88.7489 28.0812 83.9273 29.6232H32.2613V73.3614C29.5868 78.7548 28.5723 82.3467 28.5723 82.3467Z" fill="#5FB1B3"/>
<path d="M88.526 73.369V68.9151H81.0226V73.369L80.345 73.3641L80.7078 72.2168L79.5654 71.8381L80.2675 70.8593L79.2973 70.1448L80.2675 69.4316L79.5654 68.4528L80.7078 68.0728L80.345 66.9268L81.5464 66.9182L81.5562 65.7143L82.7023 66.0795L83.0823 64.9371L84.0599 65.6368L84.7743 64.6691L85.4887 65.6368L86.4663 64.9371L86.8475 66.0795L87.9924 65.7143L88.0022 66.9182L89.2048 66.9268L88.8408 68.0728L89.9844 68.4528L89.2811 69.4316L90.2513 70.1448L89.2811 70.8593L89.9844 71.8381L88.8408 72.2168L89.2048 73.3641L88.526 73.369Z" fill="#8DA7A6"/>
<path d="M84.7741 75.6216L84.0596 74.6526L83.082 75.3535L82.7021 74.2124L81.556 74.5751L81.5462 73.3725L81.0223 73.3688V70.1446V68.9149H88.5258V73.3688L88.002 73.3725L87.9921 74.5751L86.8473 74.2124L86.4661 75.3535L85.4885 74.6526L84.7741 75.6216Z" fill="#AE3920"/>
<path d="M84.7743 63.7467L85.4887 64.7145L86.4663 64.0148L86.8475 65.1572L87.9924 64.792L88.0022 65.9958L89.2048 66.0044L88.8408 67.1505L89.9844 67.5305L89.2811 68.5093L90.2513 69.2225L89.2811 69.9369L89.9844 70.9158L88.8408 71.2945L89.2048 72.4418L88.0022 72.4504L87.9924 73.653L86.8475 73.2903L86.4663 74.4314L85.4887 73.7305L84.7743 74.6995L84.0599 73.7305L83.0823 74.4314L82.7023 73.2903L81.5562 73.653L81.5464 72.4504L80.345 72.4418L80.7078 71.2945L79.5654 70.9158L80.2675 69.9369L79.2973 69.2225L80.2675 68.5093L79.5654 67.5305L80.7078 67.1505L80.345 66.0044L81.5464 65.9958L81.5562 64.792L82.7023 65.1572L83.0823 64.0148L84.0599 64.7145L84.7743 63.7467Z" fill="#F14E20"/>
</svg>
