<svg width="100" height="100" viewBox="0 0 127 109" fill="none" xmlns="http://www.w3.org/2000/svg">
<rect x="0.329224" width="126.288" height="108.247" rx="5.63786" fill="#DADADA"/>
<path d="M30.2754 61.6455V82.6476C30.2754 86.4651 33.3692 89.559 37.1859 89.559H89.7541C93.5707 89.559 96.6646 86.4651 96.6646 82.6476V61.6455H30.2754Z" fill="#254B7A"/>
<path d="M91.678 32.1457H35.2631C31.2249 32.1457 27.952 35.4192 27.952 39.4574V60.2633C27.952 61.0268 28.5707 61.6455 29.3336 61.6455H97.6069C98.3703 61.6455 98.989 61.0268 98.989 60.2633V39.4574C98.989 35.4192 95.7156 32.1457 91.678 32.1457Z" fill="#254B7A"/>
<path d="M96.6646 64.2441H87.7158V61.6455H96.6646V64.2441ZM77.5437 64.2441H49.3962V61.6455H77.5437V64.2441ZM39.2247 64.2441H30.2754V61.6455H39.2247V64.2441Z" fill="#1E3C5E"/>
<path d="M39.2237 57.9421C39.2237 57.1772 39.8429 56.5608 40.6064 56.5608H48.0135C48.7775 56.5608 49.3957 57.1772 49.3957 57.9421V65.3492C49.3957 66.1136 48.7775 66.7328 48.0135 66.7328H40.6064C39.8429 66.7328 39.2237 66.1136 39.2237 65.3492V57.9421Z" fill="#F8BA0B"/>
<path d="M77.544 57.9421C77.544 57.1772 78.1632 56.5608 78.9262 56.5608H86.3339C87.0973 56.5608 87.716 57.1772 87.716 57.9421V65.3492C87.716 66.1136 87.0973 66.7328 86.3339 66.7328H78.9262C78.1632 66.7328 77.544 66.1136 77.544 65.3492V57.9421Z" fill="#F8BA0B"/>
<path d="M82.6307 32.1458H77.102V25.5164C77.102 24.7529 76.4818 24.1332 75.7193 24.1332H51.2221C50.4601 24.1332 49.8394 24.7529 49.8394 25.5164V32.1458H44.3112V25.5164C44.3112 21.7055 47.4118 18.6049 51.2221 18.6049H75.7193C79.5297 18.6049 82.6307 21.7055 82.6307 25.5164V32.1458Z" fill="#F8BA0B"/>
</svg>
