<svg width="127" height="109" viewBox="0 0 127 109" fill="none" xmlns="http://www.w3.org/2000/svg">
<rect x="0.711914" width="126.288" height="108.247" rx="5.63786" fill="#DADADA"/>
<path d="M66.1367 21.1743C65.984 19.9225 66.1367 19.5564 66.1367 19.5564H63.4529H62.0038C62.0038 19.5564 62.1565 19.9225 62.0038 21.1743C61.8511 22.4261 61.2551 23.8581 61.2551 23.8581L64.0698 24.5504L66.8845 23.8581C66.8845 23.8581 66.2894 22.4261 66.1367 21.1743Z" fill="#D3846E"/>
<path d="M67.7922 24.0089C67.207 23.9387 66.8557 23.5523 66.757 23.5323C66.6584 23.512 66.1416 23.7514 65.4042 23.9387C64.6759 24.1236 64.0851 24.2057 64.0699 24.2076C64.0552 24.2057 63.4639 24.1236 62.7356 23.9387C61.9982 23.7514 61.4814 23.512 61.3828 23.5323C61.2841 23.5527 60.9328 23.9387 60.3476 24.0089C59.7625 24.0791 60.6753 26.3148 61.5767 27.1697C62.461 28.0081 64.0097 28.5984 64.0685 28.6202V28.6212L64.0699 28.6207L64.0713 28.6212V28.6202C64.1301 28.5979 65.6788 28.0081 66.5631 27.1697C67.464 26.3148 68.3773 24.0791 67.7922 24.0089Z" fill="#70A9B2"/>
<path d="M64.0727 7.69617H64.0717C57.5409 7.76729 59.8051 18.0293 59.9052 18.2162C60.2565 18.8719 62.0166 20.2295 63.148 20.7563C63.3567 20.8535 64.0674 20.8383 64.0722 20.8383C64.0774 20.8383 64.7877 20.8535 64.9963 20.7563C66.1272 20.2295 67.8879 18.8715 68.2392 18.2162C68.3393 18.0293 70.6034 7.76729 64.0727 7.69617Z" fill="#F2A891"/>
<path d="M63.9006 16.0396C63.8726 16.0396 63.8546 16.0387 63.8508 16.0382C63.8252 16.0368 63.8053 16.0145 63.8067 15.9889C63.8081 15.9633 63.8285 15.9429 63.856 15.9448C63.8622 15.9448 64.472 15.977 64.7119 15.5825C64.8044 15.4303 64.8304 15.299 64.7892 15.1923C64.7361 15.0557 64.5701 14.9448 64.2946 14.8637C63.9134 14.7508 64.1116 13.4829 64.1353 13.3387C64.1396 13.3131 64.1638 13.2956 64.1889 13.3003C64.2145 13.3046 64.2316 13.3288 64.2273 13.3539C64.1424 13.8674 64.0931 14.7067 64.3207 14.7741C64.6299 14.8656 64.8115 14.9912 64.8765 15.1586C64.9286 15.2938 64.9006 15.4531 64.792 15.6314C64.563 16.0083 64.0613 16.0396 63.9006 16.0396Z" fill="#BC6B55"/>
<path d="M59.8955 16.6634C59.8955 16.6634 59.5963 16.6321 59.4118 16.4761C59.1344 16.2418 58.6313 14.5329 59.0059 14.3925C59.3487 14.264 59.591 14.521 59.591 14.521L59.8955 16.6634Z" fill="#F2A891"/>
<path d="M59.5955 15.7813C59.5741 15.7813 59.5552 15.767 59.5499 15.7452C59.5485 15.7386 59.3892 15.0828 59.2493 14.9135C59.1246 14.7623 59.062 14.7509 59.0611 14.7509C59.035 14.7509 59.016 14.73 59.016 14.7044C59.016 14.6783 59.0388 14.6575 59.0649 14.6575C59.0871 14.6575 59.1711 14.6717 59.3214 14.8538C59.475 15.0397 59.6343 15.6954 59.641 15.7234C59.6471 15.7485 59.6315 15.7737 59.6064 15.7798C59.6026 15.7808 59.5988 15.7813 59.5955 15.7813Z" fill="#BC6B55"/>
<path d="M59.5361 15.5568C59.5213 15.5568 59.5071 15.5502 59.4981 15.5374C59.4449 15.4638 59.302 15.4462 59.2516 15.4457C59.2255 15.4452 59.2051 15.4243 59.2051 15.3982C59.2056 15.3726 59.2264 15.3517 59.2521 15.3517H59.2526C59.2621 15.3517 59.4819 15.355 59.5741 15.4818C59.5892 15.5027 59.5845 15.5321 59.5636 15.5473C59.5555 15.554 59.5456 15.5568 59.5361 15.5568Z" fill="#BC6B55"/>
<path d="M68.2529 16.6634C68.2529 16.6634 68.5521 16.6321 68.7366 16.4761C69.014 16.2418 69.5171 14.5329 69.1425 14.3925C68.7997 14.264 68.5573 14.521 68.5573 14.521L68.2529 16.6634Z" fill="#F2A891"/>
<path d="M68.5543 15.7814C68.5506 15.7814 68.5468 15.7809 68.5434 15.78C68.5183 15.7738 68.5027 15.7487 68.5088 15.7235C68.5155 15.6956 68.6748 15.0398 68.8284 14.8539C68.9792 14.6713 69.0631 14.6576 69.0849 14.6576C69.111 14.6576 69.1319 14.6785 69.1319 14.7045C69.1319 14.7306 69.111 14.7515 69.0849 14.7515C69.0868 14.7515 69.0243 14.7643 68.9005 14.9141C68.7606 15.0834 68.6013 15.7392 68.5999 15.7458C68.5947 15.7672 68.5757 15.7814 68.5543 15.7814Z" fill="#BC6B55"/>
<path d="M68.6138 15.557C68.6043 15.557 68.5948 15.5541 68.5863 15.5479C68.5654 15.5328 68.5606 15.5033 68.5758 15.4824C68.668 15.3556 68.8878 15.3523 68.8973 15.3523H68.8978C68.9234 15.3523 68.9443 15.3732 68.9448 15.3988C68.9448 15.4245 68.9244 15.4458 68.8983 15.4463C68.8479 15.4468 68.705 15.4644 68.6518 15.538C68.6428 15.5503 68.6285 15.557 68.6138 15.557Z" fill="#BC6B55"/>
<path d="M62.0534 14.3181C62.2092 14.3181 62.3356 14.0901 62.3356 13.8088C62.3356 13.5276 62.2092 13.2996 62.0534 13.2996C61.8976 13.2996 61.7713 13.5276 61.7713 13.8088C61.7713 14.0901 61.8976 14.3181 62.0534 14.3181Z" fill="#0F0F0F"/>
<path d="M61.0995 12.6421C61.357 12.478 62.2186 12.11 62.3551 12.2115C62.496 12.3163 62.4998 12.5079 62.2888 12.5548C62.0782 12.6018 61.3319 12.7644 61.1142 12.8592C60.9625 12.9247 60.842 12.8056 61.0995 12.6421Z" fill="#C6590E"/>
<path d="M66.0581 14.3181C66.2139 14.3181 66.3402 14.0901 66.3402 13.8088C66.3402 13.5276 66.2139 13.2996 66.0581 13.2996C65.9023 13.2996 65.776 13.5276 65.776 13.8088C65.776 14.0901 65.9023 14.3181 66.0581 14.3181Z" fill="#0F0F0F"/>
<path d="M67.0231 12.6357C66.7656 12.4717 65.8936 12.1094 65.757 12.2109C65.6162 12.3157 65.6124 12.5072 65.8234 12.5542C66.0339 12.6011 66.8429 12.8012 66.9979 12.8586C67.2341 12.9458 67.281 12.7998 67.0231 12.6357Z" fill="#C6590E"/>
<path d="M60.4386 14.7747C60.1005 14.8415 60.3039 15.8401 60.5965 16.0388C60.8891 16.238 61.6482 16.1559 61.6961 15.8046C61.744 15.4537 61.0882 14.6457 60.4386 14.7747Z" fill="#F9737D"/>
<path d="M67.7072 14.7747C68.0453 14.8415 67.8419 15.8401 67.5493 16.0388C67.2568 16.238 66.4976 16.1559 66.4497 15.8046C66.4018 15.4537 67.0571 14.6457 67.7072 14.7747Z" fill="#F9737D"/>
<path d="M65.6277 16.7797C65.6277 16.7797 65.4309 17.7555 64.9188 18.0751C64.3195 18.4478 63.8429 18.4217 63.2274 18.0751C62.731 17.7949 62.5186 16.7797 62.5186 16.7797C62.5186 16.7797 62.5982 16.8171 62.7547 16.8826C62.8448 16.92 62.9586 16.967 63.0994 17.021C63.2896 17.094 63.6642 17.2254 64.0563 17.2254C64.448 17.2254 64.8562 17.0945 65.0473 17.021C65.1877 16.9665 65.3019 16.92 65.392 16.8826C65.5485 16.8171 65.6277 16.7797 65.6277 16.7797Z" fill="#BC6B55"/>
<path d="M65.3918 16.8831C65.3795 17.0338 65.3534 17.2728 65.3065 17.3193C65.2738 17.352 64.682 17.5564 64.0864 17.5564C63.4823 17.5564 62.8735 17.352 62.8398 17.3193C62.7929 17.2724 62.7668 17.0338 62.7545 16.8831C62.8446 16.9205 62.9584 16.9675 63.0992 17.0215C63.2893 17.0945 63.6639 17.2259 64.0561 17.2259C64.4478 17.2259 64.856 17.095 65.0471 17.0215C65.1875 16.967 65.3017 16.9205 65.3918 16.8831Z" fill="white"/>
<path d="M73.5275 96.4567C73.5275 96.4567 73.4075 98.975 73.4621 99.82C73.5166 100.665 73.9633 100.983 73.9633 100.983C73.9633 100.983 74.3654 102.252 74.9386 102.515C75.5119 102.778 76.143 102.734 77.2777 102.648C78.6339 102.544 79.1441 102.449 79.2086 102.088C79.2731 101.727 79.4347 100.25 78.8686 99.6365C78.0431 98.7408 77.3252 97.2642 77.3252 97.2642C77.3252 97.2642 77.1644 95.5382 76.0857 95.4979C74.8704 95.4524 74.0121 96.3894 74.0121 96.3894L73.5275 96.4567Z" fill="#8A5082"/>
<path d="M54.6161 96.4567C54.6161 96.4567 54.7356 98.975 54.6815 99.82C54.627 100.665 54.1803 100.983 54.1803 100.983C54.1803 100.983 53.7782 102.252 53.205 102.515C52.6317 102.778 52.0006 102.734 50.8659 102.648C49.5097 102.544 48.9995 102.449 48.935 102.088C48.8706 101.727 48.7089 100.25 49.275 99.6365C50.101 98.7408 50.8185 97.2642 50.8185 97.2642C50.8185 97.2642 50.9792 95.5382 52.0584 95.4979C53.2737 95.4524 54.132 96.3894 54.132 96.3894L54.6161 96.4567Z" fill="#8A5082"/>
<path d="M75.5211 64.103C74.8966 57.797 73.5855 48.2448 73.5855 48.2448L64.0727 49.6805L54.5598 48.2448C54.5598 48.2448 53.2488 57.797 52.6243 64.103C51.9998 70.4085 49.8774 95.6009 50.1268 96.2875C50.3767 96.9741 55.1839 97.5985 55.4337 96.7246C55.6836 95.8507 59.5543 75.8094 59.5543 75.8094L62.57 57.9221L65.3876 57.3602L68.4972 75.8094C68.4972 75.8094 72.4618 95.8507 72.7116 96.7246C72.9615 97.5985 77.7687 96.9745 78.0186 96.2875C78.268 95.6009 76.1451 70.4085 75.5211 64.103Z" fill="#54739E"/>
<path d="M81.8307 15.4022L78.823 10.7619C78.823 10.7619 77.9045 7.73194 77.5148 6.98322C77.125 6.2345 75.7712 5.51328 75.3928 5.656C75.1007 5.76601 73.7702 6.44503 73.1789 6.85993C73.0049 6.98274 72.8954 7.08279 72.8963 7.13779C72.9029 7.37867 73.6374 8.3863 73.6374 8.3863L75.0249 9.57742L75.188 9.78652L76.2857 11.1977C76.2857 11.1977 77.4768 13.1588 77.7139 13.9711C77.951 14.7834 77.9652 16.0001 77.9652 16.0001L81.8307 15.4022Z" fill="#F2A891"/>
<path d="M73.6363 8.38578L75.0238 9.57689L75.1869 9.78601C75.6976 10.0686 76.1992 10.3266 76.3794 10.3787C76.7099 10.4731 76.919 9.21795 76.9408 9.07712C76.9133 9.19804 76.2604 9.26014 75.9541 9.72341C75.8232 9.92161 75.2561 9.53185 75.2234 9.39481C75.1494 9.08375 75.8749 8.35922 75.8749 8.35922C75.8398 8.43556 75.4069 8.54177 74.9384 9.03729C74.8014 9.18238 74.3661 8.76038 74.3661 8.76038C74.3661 8.76038 74.1959 8.35258 74.3149 8.15485C74.4296 7.96471 75.1101 7.20129 75.157 7.14865C75.0996 7.19892 74.13 8.05859 74.0247 7.91017C73.9156 7.75701 73.6449 7.66977 73.6435 7.50428C73.6416 7.27289 74.1973 6.68396 74.1973 6.68396C74.1447 6.73043 73.4728 7.37721 73.2646 7.25914C73.1698 7.20556 73.1332 7.0377 73.1773 6.86083C73.0033 6.98364 72.8938 7.08369 72.8947 7.1387C72.9023 7.37863 73.6363 8.38578 73.6363 8.38578Z" fill="#D3846E"/>
<path d="M77.7501 9.17065L76.8378 9.58697L76.7994 9.73492C76.7994 9.73492 77.5875 9.60737 77.7501 9.17065Z" fill="#D3846E"/>
<path d="M73.4222 7.887C73.3131 7.76467 72.9177 7.81682 72.7716 8.12124C72.6256 8.42566 73.647 9.5504 73.647 9.5504C73.647 9.5504 74.4218 10.3973 75.0951 10.7055C75.7679 11.0137 76.6513 11.0341 76.6513 11.0341C76.6513 11.0341 74.8082 9.44229 73.4222 7.887Z" fill="#F2A891"/>
<path d="M46.3172 15.4022L49.3249 10.7619C49.3249 10.7619 50.2433 7.73194 50.6331 6.98322C51.0229 6.2345 52.3766 5.51328 52.755 5.656C53.0471 5.76601 54.3776 6.44503 54.9689 6.85993C55.143 6.98274 55.2525 7.08279 55.2515 7.13779C55.2449 7.37867 54.5104 8.3863 54.5104 8.3863L53.123 9.57742L52.9599 9.78652L51.8622 11.1977C51.8622 11.1977 50.671 13.1588 50.4339 13.9711C50.1969 14.7834 50.1826 16.0001 50.1826 16.0001L46.3172 15.4022Z" fill="#F2A891"/>
<path d="M54.5123 8.38578L53.1249 9.57689L52.9618 9.78601C52.4511 10.0686 51.9494 10.3266 51.7692 10.3787C51.4387 10.4731 51.2296 9.21795 51.2078 9.07712C51.2353 9.19804 51.8882 9.26014 52.1946 9.72341C52.3254 9.92161 52.8925 9.53185 52.9253 9.39481C52.9992 9.08375 52.2737 8.35922 52.2737 8.35922C52.3088 8.43556 52.7417 8.54177 53.2102 9.03729C53.3468 9.18238 53.7826 8.76038 53.7826 8.76038C53.7826 8.76038 53.9528 8.35258 53.8338 8.15485C53.719 7.96471 53.0386 7.20129 52.9912 7.14865C53.0485 7.19892 54.0182 8.05859 54.1235 7.91017C54.2326 7.75701 54.5033 7.66977 54.5047 7.50428C54.5066 7.27289 53.9509 6.68396 53.9509 6.68396C54.0035 6.73043 54.6754 7.37721 54.8841 7.25914C54.9789 7.20556 55.0154 7.0377 54.9713 6.86083C55.1453 6.98364 55.2549 7.08369 55.2539 7.1387C55.2463 7.37863 54.5123 8.38578 54.5123 8.38578Z" fill="#D3846E"/>
<path d="M50.3984 9.17065L51.3107 9.58697L51.3491 9.73492C51.3491 9.73492 50.5611 9.60737 50.3984 9.17065Z" fill="#D3846E"/>
<path d="M54.7249 7.88688C54.834 7.76454 55.2294 7.8167 55.3755 8.12112C55.5215 8.42553 54.4997 9.55028 54.4997 9.55028C54.4997 9.55028 53.7249 10.3972 53.0515 10.7054C52.3782 11.0136 51.4953 11.034 51.4953 11.034C51.4953 11.034 53.3389 9.44217 54.7249 7.88688Z" fill="#F2A891"/>
<path d="M82.3606 14.356C81.252 12.2948 80.3548 11.7832 80.1832 11.7832C80.0115 11.7832 79.8712 11.7832 79.8712 11.7832L79.4653 11.2369L77.0062 13.0009L77.3808 13.5941C77.3808 13.5941 77.0688 13.8904 77.2561 14.4366C77.4434 14.9829 79.0822 20.8361 78.6142 21.4919C78.1457 22.1476 74.1811 23.4587 73.4324 23.7082C72.6832 23.958 72.0445 23.877 71.2474 23.7551C69.7177 23.5209 67.353 23.9267 67.353 23.9267C67.353 23.9267 66.206 25.7997 65.316 26.5257C64.443 27.2379 64.0443 27.3863 64.0296 27.3915C64.0149 27.3863 63.6165 27.2379 62.7431 26.5257C61.8536 25.7997 60.7061 23.9267 60.7061 23.9267C60.7061 23.9267 58.3414 23.5209 56.8117 23.7551C56.0146 23.877 55.3759 23.958 54.6267 23.7082C53.8775 23.4583 50.0068 22.1472 49.5384 21.4919C49.0699 20.8366 50.6152 14.9834 50.8025 14.4366C50.9898 13.8904 50.6778 13.5941 50.6778 13.5941L51.0524 13.0009L48.5929 11.2369L48.187 11.7832C48.187 11.7832 48.0466 11.7832 47.875 11.7832C47.7033 11.7832 46.8062 12.2953 45.6976 14.356C44.4567 16.6629 42.9824 21.554 43.7942 23.9267C44.606 26.3 53.8149 32.1987 53.8149 32.1987C53.8149 32.1987 52.8628 46.7302 52.9562 47.4794C53.0496 48.2286 53.9396 48.7587 53.9396 48.7587L53.6589 50.0551C53.6589 50.0551 55.5319 50.8043 58.5287 51.2258C61.5074 51.6445 66.5512 51.6445 69.53 51.2258C72.5267 50.8043 74.3997 50.0551 74.3997 50.0551L74.119 48.7587C74.119 48.7587 75.0085 48.2286 75.1024 47.4794C75.1963 46.7302 74.2442 32.1987 74.2442 32.1987C74.2442 32.1987 83.547 26.3 84.3583 23.9267C85.1691 21.554 83.6015 16.6634 82.3606 14.356Z" fill="#8A5082"/>
<path d="M70.6694 11.8843C70.5148 11.5078 70.2037 11.3129 69.8709 11.2451C70.2981 10.963 70.5286 10.365 70.5286 9.76805C70.5286 8.93587 70.0293 8.36117 69.3555 8.35216C69.5755 7.94816 69.7267 7.43653 69.4465 7.01926C69.1596 6.59203 68.6556 6.43792 68.2189 6.35542C67.703 6.25774 67.1321 6.24067 66.6275 6.41943C66.2515 6.55268 65.9518 6.8443 65.7048 7.19044C65.316 6.00359 63.6407 5.98224 62.7621 6.03867C62.0736 6.08324 61.3794 6.21933 60.7236 6.47206C60.3703 6.60815 59.8127 6.82012 59.6544 7.26631C59.6344 7.32179 59.6268 7.37868 59.6278 7.43605C59.0787 7.65038 58.5547 8.11839 58.2375 8.68076C58.0976 8.9278 58.0194 9.22179 58.072 9.51672C58.1256 9.8183 58.3513 10.0227 58.5756 10.1597C58.1104 10.6277 57.7202 11.301 57.4883 11.9521C57.3783 12.2603 57.31 12.6178 57.4267 12.936C57.5395 13.2442 57.8454 13.3419 58.1109 13.3717C58.0502 13.6278 58.073 13.8881 58.0147 14.1489C58.0042 14.1954 58.0275 14.2442 58.0673 14.2575C58.4561 14.386 58.7857 14.3116 59.0986 14.0124C59.2527 13.8649 59.3846 13.6852 59.5292 13.5249C59.6985 13.3371 59.8962 13.1845 60.0882 13.0303C60.4126 12.77 60.7468 12.5168 60.9934 12.1508C61.2405 11.7847 61.3301 11.3338 61.3438 10.8762C62.0793 10.7766 62.6544 10.3432 62.9783 9.55846C63.3349 9.97004 63.8143 10.0834 64.3012 9.91409C64.5587 9.82447 64.7882 9.64808 64.9897 9.44418C65.0713 9.36168 65.1889 9.11985 65.2984 9.14261C65.3767 9.15874 65.4544 9.17627 65.5331 9.18812C65.4042 9.55988 65.3259 9.97194 65.4663 10.3541C65.627 10.7904 66.086 10.851 66.4445 10.8212C66.5099 11.8079 67.2681 12.495 68.0799 12.1664C68.1847 12.8412 68.5195 13.4946 69.06 13.7933C69.5826 14.0821 70.1952 13.799 70.5271 13.2774C70.7865 12.8696 70.8614 12.3513 70.6694 11.8843Z" fill="#C6590E"/>
<path d="M59.0613 13.1218C59.0613 13.1218 59.4615 14.899 59.5322 14.761C59.6024 14.623 59.7783 12.7472 59.7783 12.7472L59.0613 13.1218Z" fill="#C6590E"/>
<path d="M68.5502 13.0436C68.5502 13.0436 68.564 14.7108 68.6977 14.7041C68.8314 14.698 69.362 13.0436 69.362 13.0436H68.5502Z" fill="#C6590E"/>
</svg>
