<svg width="72" height="58" viewBox="0 0 72 58" fill="none" xmlns="http://www.w3.org/2000/svg">
<path d="M0.572327 57.3467H71.6091V0.934387H0.572327V57.3467Z" fill="#D4F1F3"/>
<path d="M71.6094 0.934143H0.572327V57.3467H71.6094V0.934143ZM67.9203 4.62317V53.6564H4.26135V4.62317H67.9203Z" fill="#348A97"/>
<path d="M9.34265 15.4739H62.8407V11.7849H9.34265V15.4739Z" fill="#48BBC6"/>
<path d="M13.9254 22.9208H58.2577V21.6911H13.9254V22.9208Z" fill="#48BBC6"/>
<path d="M13.9254 30.3689H58.2577V29.1392H13.9254V30.3689Z" fill="#48BBC6"/>
<path d="M58.2577 37.817H13.9254V36.5873H58.2577V37.817Z" fill="#48BBC6"/>
<path d="M48.6219 45.2639H13.9254V44.0342H48.6219V45.2639Z" fill="#48BBC6"/>
<path d="M59.3546 53.6565H57.2174L57.0871 53.5827L56.9567 53.6565H54.8208L57.0871 52.3518L59.3546 53.6565Z" fill="#8DA7A6"/>
<path d="M60.8367 55.7407L57.2153 53.6564H59.3525L60.8367 54.511V55.7407ZM53.3333 55.7407V53.6564V54.511L54.8187 53.6564H56.9546L53.3333 55.7407Z" fill="#245C67"/>
<path d="M53.3333 54.5111L57.085 52.3518L60.8367 54.5111V45.2578H53.3333V54.5111Z" fill="#F14E20"/>
<path d="M4.26138 48.3616V4.6233H55.9274C49.7482 6.59816 44.2196 9.04152 39.2764 11.7849H9.3424V15.4739H33.2264C30.2493 17.4611 27.5256 19.5503 25.0318 21.6912H13.9254V22.9209H23.6324C21.3514 24.9695 19.2745 27.0587 17.3918 29.1393H13.9254V30.369H16.2999C10.5585 36.9637 6.71335 43.4183 4.26138 48.3616Z" fill="#E3F6F7"/>
<path d="M0.572327 57.3467V0.934143H71.6094C65.9688 1.82443 60.7489 3.08115 55.9273 4.62317H4.26135V48.3614C1.58681 53.7548 0.572327 57.3467 0.572327 57.3467Z" fill="#5FB1B3"/>
<path d="M60.526 48.369V43.9151H53.0226V48.369L52.345 48.3641L52.7078 47.2168L51.5654 46.8381L52.2675 45.8593L51.2973 45.1448L52.2675 44.4316L51.5654 43.4528L52.7078 43.0728L52.345 41.9268L53.5464 41.9182L53.5562 40.7143L54.7023 41.0795L55.0823 39.9371L56.0599 40.6368L56.7743 39.6691L57.4887 40.6368L58.4663 39.9371L58.8475 41.0795L59.9924 40.7143L60.0022 41.9182L61.2048 41.9268L60.8408 43.0728L61.9844 43.4528L61.2811 44.4316L62.2513 45.1448L61.2811 45.8593L61.9844 46.8381L60.8408 47.2168L61.2048 48.3641L60.526 48.369Z" fill="#8DA7A6"/>
<path d="M56.7741 50.6216L56.0596 49.6526L55.082 50.3535L54.7021 49.2124L53.556 49.5751L53.5462 48.3725L53.0223 48.3688V45.1446V43.9149H60.5258V48.3688L60.002 48.3725L59.9921 49.5751L58.8473 49.2124L58.4661 50.3535L57.4885 49.6526L56.7741 50.6216Z" fill="#AE3920"/>
<path d="M56.7743 38.7467L57.4887 39.7145L58.4663 39.0148L58.8475 40.1572L59.9924 39.792L60.0022 40.9958L61.2048 41.0044L60.8408 42.1505L61.9844 42.5305L61.2811 43.5093L62.2513 44.2225L61.2811 44.9369L61.9844 45.9158L60.8408 46.2945L61.2048 47.4418L60.0022 47.4504L59.9924 48.653L58.8475 48.2903L58.4663 49.4314L57.4887 48.7305L56.7743 49.6995L56.0599 48.7305L55.0823 49.4314L54.7023 48.2903L53.5562 48.653L53.5464 47.4504L52.345 47.4418L52.7078 46.2945L51.5654 45.9158L52.2675 44.9369L51.2973 44.2225L52.2675 43.5093L51.5654 42.5305L52.7078 42.1505L52.345 41.0044L53.5464 40.9958L53.5562 39.792L54.7023 40.1572L55.0823 39.0148L56.0599 39.7145L56.7743 38.7467Z" fill="#F14E20"/>
</svg>
