<svg width="42" height="98" viewBox="0 0 42 98" fill="none" xmlns="http://www.w3.org/2000/svg">
<path d="M23.1367 16.1743C22.984 14.9225 23.1367 14.5564 23.1367 14.5564H20.4529H19.0038C19.0038 14.5564 19.1565 14.9225 19.0038 16.1743C18.8511 17.4261 18.2551 18.8581 18.2551 18.8581L21.0698 19.5504L23.8845 18.8581C23.8845 18.8581 23.2894 17.4261 23.1367 16.1743Z" fill="#D3846E"/>
<path d="M24.7922 19.0089C24.207 18.9387 23.8557 18.5523 23.757 18.5323C23.6584 18.512 23.1416 18.7514 22.4042 18.9387C21.6759 19.1236 21.0851 19.2057 21.0699 19.2076C21.0552 19.2057 20.4639 19.1236 19.7356 18.9387C18.9982 18.7514 18.4814 18.512 18.3828 18.5323C18.2841 18.5527 17.9328 18.9387 17.3476 19.0089C16.7625 19.0791 17.6753 21.3148 18.5767 22.1697C19.461 23.0081 21.0097 23.5984 21.0685 23.6202V23.6212L21.0699 23.6207L21.0713 23.6212V23.6202C21.1301 23.5979 22.6788 23.0081 23.5631 22.1697C24.464 21.3148 25.3773 19.0791 24.7922 19.0089Z" fill="#70A9B2"/>
<path d="M21.0727 2.69617H21.0717C14.5409 2.76729 16.8051 13.0293 16.9052 13.2162C17.2565 13.8719 19.0166 15.2295 20.148 15.7563C20.3567 15.8535 21.0674 15.8383 21.0722 15.8383C21.0774 15.8383 21.7877 15.8535 21.9963 15.7563C23.1272 15.2295 24.8879 13.8715 25.2392 13.2162C25.3393 13.0293 27.6034 2.76729 21.0727 2.69617Z" fill="#F2A891"/>
<path d="M20.9006 11.0396C20.8726 11.0396 20.8546 11.0387 20.8508 11.0382C20.8252 11.0368 20.8053 11.0145 20.8067 10.9889C20.8081 10.9633 20.8285 10.9429 20.856 10.9448C20.8622 10.9448 21.472 10.977 21.7119 10.5825C21.8044 10.4303 21.8304 10.299 21.7892 10.1923C21.7361 10.0557 21.5701 9.94476 21.2946 9.86368C20.9134 9.75083 21.1116 8.48289 21.1353 8.33874C21.1396 8.31314 21.1638 8.29559 21.1889 8.30034C21.2145 8.3046 21.2316 8.32879 21.2273 8.35392C21.1424 8.86745 21.0931 9.70673 21.3207 9.77407C21.6299 9.86558 21.8115 9.99124 21.8765 10.1586C21.9286 10.2938 21.9006 10.4531 21.792 10.6314C21.563 11.0083 21.0613 11.0396 20.9006 11.0396Z" fill="#BC6B55"/>
<path d="M16.8955 11.6634C16.8955 11.6634 16.5963 11.6321 16.4118 11.4761C16.1344 11.2418 15.6313 9.5329 16.0059 9.39255C16.3487 9.26405 16.591 9.52105 16.591 9.52105L16.8955 11.6634Z" fill="#F2A891"/>
<path d="M16.5955 10.7813C16.5741 10.7813 16.5552 10.767 16.5499 10.7452C16.5485 10.7386 16.3892 10.0828 16.2493 9.91353C16.1246 9.76227 16.062 9.75088 16.0611 9.75088C16.035 9.75088 16.016 9.73002 16.016 9.70441C16.016 9.67833 16.0388 9.65747 16.0649 9.65747C16.0871 9.65747 16.1711 9.6717 16.3214 9.85378C16.475 10.0397 16.6343 10.6954 16.641 10.7234C16.6471 10.7485 16.6315 10.7737 16.6064 10.7798C16.6026 10.7808 16.5988 10.7813 16.5955 10.7813Z" fill="#BC6B55"/>
<path d="M16.5361 10.5568C16.5213 10.5568 16.5071 10.5502 16.4981 10.5374C16.4449 10.4638 16.302 10.4462 16.2516 10.4457C16.2255 10.4452 16.2051 10.4243 16.2051 10.3982C16.2056 10.3726 16.2264 10.3517 16.2521 10.3517H16.2526C16.2621 10.3517 16.4819 10.355 16.5741 10.4818C16.5892 10.5027 16.5845 10.5321 16.5636 10.5473C16.5555 10.554 16.5456 10.5568 16.5361 10.5568Z" fill="#BC6B55"/>
<path d="M25.2529 11.6634C25.2529 11.6634 25.5521 11.6321 25.7366 11.4761C26.014 11.2418 26.5171 9.5329 26.1425 9.39255C25.7997 9.26405 25.5573 9.52105 25.5573 9.52105L25.2529 11.6634Z" fill="#F2A891"/>
<path d="M25.5543 10.7814C25.5506 10.7814 25.5468 10.7809 25.5434 10.78C25.5183 10.7738 25.5027 10.7487 25.5088 10.7235C25.5155 10.6956 25.6748 10.0398 25.8284 9.8539C25.9792 9.67134 26.0631 9.65759 26.0849 9.65759C26.111 9.65759 26.1319 9.67846 26.1319 9.70454C26.1319 9.73061 26.111 9.75148 26.0849 9.75148C26.0868 9.75148 26.0243 9.76429 25.9005 9.91413C25.7606 10.0834 25.6013 10.7392 25.5999 10.7458C25.5947 10.7672 25.5757 10.7814 25.5543 10.7814Z" fill="#BC6B55"/>
<path d="M25.6138 10.557C25.6043 10.557 25.5948 10.5541 25.5863 10.5479C25.5654 10.5328 25.5606 10.5033 25.5758 10.4824C25.668 10.3556 25.8878 10.3523 25.8973 10.3523H25.8978C25.9234 10.3523 25.9443 10.3732 25.9448 10.3988C25.9448 10.4245 25.9244 10.4458 25.8983 10.4463C25.8479 10.4468 25.705 10.4644 25.6518 10.538C25.6428 10.5503 25.6285 10.557 25.6138 10.557Z" fill="#BC6B55"/>
<path d="M19.0534 9.31807C19.2092 9.31807 19.3356 9.09007 19.3356 8.80881C19.3356 8.52755 19.2092 8.29956 19.0534 8.29956C18.8976 8.29956 18.7713 8.52755 18.7713 8.80881C18.7713 9.09007 18.8976 9.31807 19.0534 9.31807Z" fill="#0F0F0F"/>
<path d="M18.0995 7.64205C18.357 7.47799 19.2186 7.11004 19.3551 7.21151C19.496 7.3163 19.4998 7.50787 19.2888 7.55481C19.0782 7.60175 18.3319 7.76439 18.1142 7.85923C17.9625 7.92467 17.842 7.80564 18.0995 7.64205Z" fill="#C6590E"/>
<path d="M23.0581 9.31807C23.2139 9.31807 23.3402 9.09007 23.3402 8.80881C23.3402 8.52755 23.2139 8.29956 23.0581 8.29956C22.9023 8.29956 22.776 8.52755 22.776 8.80881C22.776 9.09007 22.9023 9.31807 23.0581 9.31807Z" fill="#0F0F0F"/>
<path d="M24.0231 7.63573C23.7656 7.47167 22.8936 7.10941 22.757 7.21088C22.6162 7.31567 22.6124 7.50724 22.8234 7.55418C23.0339 7.60112 23.8429 7.80122 23.9979 7.8586C24.2341 7.94584 24.281 7.7998 24.0231 7.63573Z" fill="#C6590E"/>
<path d="M17.4386 9.77467C17.1005 9.84153 17.3039 10.8401 17.5965 11.0388C17.8891 11.238 18.6482 11.1559 18.6961 10.8046C18.744 10.4537 18.0882 9.6457 17.4386 9.77467Z" fill="#F9737D"/>
<path d="M24.7072 9.77467C25.0453 9.84153 24.8419 10.8401 24.5493 11.0388C24.2568 11.238 23.4976 11.1559 23.4497 10.8046C23.4018 10.4537 24.0571 9.6457 24.7072 9.77467Z" fill="#F9737D"/>
<path d="M22.6277 11.7797C22.6277 11.7797 22.4309 12.7555 21.9188 13.0751C21.3195 13.4478 20.8429 13.4217 20.2274 13.0751C19.731 12.7949 19.5186 11.7797 19.5186 11.7797C19.5186 11.7797 19.5982 11.8171 19.7547 11.8826C19.8448 11.92 19.9586 11.967 20.0994 12.021C20.2896 12.094 20.6642 12.2254 21.0563 12.2254C21.448 12.2254 21.8562 12.0945 22.0473 12.021C22.1877 11.9665 22.3019 11.92 22.392 11.8826C22.5485 11.8171 22.6277 11.7797 22.6277 11.7797Z" fill="#BC6B55"/>
<path d="M22.3918 11.8831C22.3795 12.0338 22.3534 12.2728 22.3065 12.3193C22.2738 12.352 21.682 12.5564 21.0864 12.5564C20.4823 12.5564 19.8735 12.352 19.8398 12.3193C19.7929 12.2724 19.7668 12.0338 19.7545 11.8831C19.8446 11.9205 19.9584 11.9675 20.0992 12.0215C20.2893 12.0945 20.6639 12.2259 21.0561 12.2259C21.4478 12.2259 21.856 12.095 22.0471 12.0215C22.1875 11.967 22.3017 11.9205 22.3918 11.8831Z" fill="white"/>
<path d="M30.5275 91.4567C30.5275 91.4567 30.4075 93.975 30.4621 94.82C30.5166 95.665 30.9633 95.9832 30.9633 95.9832C30.9633 95.9832 31.3654 97.2521 31.9386 97.5152C32.5119 97.7779 33.143 97.7343 34.2777 97.6475C35.6339 97.5437 36.1441 97.4493 36.2086 97.088C36.2731 96.7267 36.4347 95.2501 35.8686 94.6365C35.0431 93.7408 34.3252 92.2642 34.3252 92.2642C34.3252 92.2642 34.1644 90.5382 33.0857 90.4979C31.8704 90.4524 31.0121 91.3894 31.0121 91.3894L30.5275 91.4567Z" fill="#8A5082"/>
<path d="M11.6161 91.4567C11.6161 91.4567 11.7356 93.975 11.6815 94.82C11.627 95.665 11.1803 95.9832 11.1803 95.9832C11.1803 95.9832 10.7782 97.2521 10.205 97.5152C9.6317 97.7779 9.00056 97.7343 7.86587 97.6475C6.50974 97.5437 5.99953 97.4493 5.93504 97.088C5.87055 96.7267 5.70886 95.2501 6.27502 94.6365C7.10103 93.7408 7.81846 92.2642 7.81846 92.2642C7.81846 92.2642 7.9792 90.5382 9.05842 90.4979C10.2737 90.4524 11.132 91.3894 11.132 91.3894L11.6161 91.4567Z" fill="#8A5082"/>
<path d="M32.5211 59.103C31.8966 52.797 30.5855 43.2448 30.5855 43.2448L21.0727 44.6805L11.5598 43.2448C11.5598 43.2448 10.2488 52.797 9.62427 59.103C8.99978 65.4085 6.87739 90.6009 7.1268 91.2875C7.37669 91.9741 12.1839 92.5985 12.4337 91.7246C12.6836 90.8507 16.5543 70.8094 16.5543 70.8094L19.57 52.9221L22.3876 52.3602L25.4972 70.8094C25.4972 70.8094 29.4618 90.8507 29.7116 91.7246C29.9615 92.5985 34.7687 91.9745 35.0186 91.2875C35.268 90.6009 33.1451 65.4085 32.5211 59.103Z" fill="#54739E"/>
<path d="M38.8307 10.4022L35.823 5.7619C35.823 5.7619 34.9045 2.73194 34.5148 1.98322C34.125 1.2345 32.7712 0.513278 32.3928 0.656004C32.1007 0.766012 30.7702 1.44503 30.1789 1.85993C30.0049 1.98274 29.8954 2.08279 29.8963 2.13779C29.9029 2.37867 30.6374 3.3863 30.6374 3.3863L32.0249 4.57742L32.188 4.78652L33.2857 6.19767C33.2857 6.19767 34.4768 8.15884 34.7139 8.9711C34.951 9.78336 34.9652 11.0001 34.9652 11.0001L38.8307 10.4022Z" fill="#F2A891"/>
<path d="M30.6363 3.38578L32.0238 4.57689L32.1869 4.78601C32.6976 5.06862 33.1992 5.32657 33.3794 5.37872C33.7099 5.47309 33.919 4.21795 33.9408 4.07712C33.9133 4.19804 33.2604 4.26014 32.9541 4.72341C32.8232 4.92161 32.2561 4.53185 32.2234 4.39481C32.1494 4.08375 32.8749 3.35922 32.8749 3.35922C32.8398 3.43556 32.4069 3.54177 31.9384 4.03729C31.8014 4.18238 31.3661 3.76038 31.3661 3.76038C31.3661 3.76038 31.1959 3.35258 31.3149 3.15485C31.4296 2.96471 32.1101 2.20129 32.157 2.14865C32.0996 2.19892 31.13 3.05859 31.0247 2.91017C30.9156 2.75701 30.6449 2.66977 30.6435 2.50428C30.6416 2.27289 31.1973 1.68396 31.1973 1.68396C31.1447 1.73043 30.4728 2.37721 30.2646 2.25914C30.1698 2.20556 30.1332 2.0377 30.1773 1.86083C30.0033 1.98364 29.8938 2.08369 29.8947 2.1387C29.9023 2.37863 30.6363 3.38578 30.6363 3.38578Z" fill="#D3846E"/>
<path d="M34.7501 4.17065L33.8378 4.58697L33.7994 4.73492C33.7994 4.73492 34.5875 4.60737 34.7501 4.17065Z" fill="#D3846E"/>
<path d="M30.4222 2.887C30.3131 2.76467 29.9177 2.81682 29.7716 3.12124C29.6256 3.42566 30.647 4.5504 30.647 4.5504C30.647 4.5504 31.4218 5.39727 32.0951 5.70548C32.7679 6.0137 33.6513 6.03408 33.6513 6.03408C33.6513 6.03408 31.8082 4.44229 30.4222 2.887Z" fill="#F2A891"/>
<path d="M3.31718 10.4022L6.32486 5.7619C6.32486 5.7619 7.24333 2.73194 7.6331 1.98322C8.02287 1.2345 9.37664 0.513278 9.75503 0.656004C10.0471 0.766012 11.3776 1.44503 11.9689 1.85993C12.143 1.98274 12.2525 2.08279 12.2515 2.13779C12.2449 2.37867 11.5104 3.3863 11.5104 3.3863L10.123 4.57742L9.95986 4.78652L8.86215 6.19767C8.86215 6.19767 7.67103 8.15884 7.43395 8.9711C7.19686 9.78336 7.18264 11.0001 7.18264 11.0001L3.31718 10.4022Z" fill="#F2A891"/>
<path d="M11.5123 3.38578L10.1249 4.57689L9.96176 4.78601C9.45108 5.06862 8.9494 5.32657 8.76922 5.37872C8.43872 5.47309 8.22961 4.21795 8.2078 4.07712C8.2353 4.19804 8.88824 4.26014 9.19455 4.72341C9.32542 4.92161 9.89253 4.53185 9.92525 4.39481C9.99922 4.08375 9.27374 3.35922 9.27374 3.35922C9.30883 3.43556 9.74175 3.54177 10.2102 4.03729C10.3468 4.18238 10.7826 3.76038 10.7826 3.76038C10.7826 3.76038 10.9528 3.35258 10.8338 3.15485C10.719 2.96471 10.0386 2.20129 9.99117 2.14865C10.0485 2.19892 11.0182 3.05859 11.1235 2.91017C11.2326 2.75701 11.5033 2.66977 11.5047 2.50428C11.5066 2.27289 10.9509 1.68396 10.9509 1.68396C11.0035 1.73043 11.6754 2.37721 11.8841 2.25914C11.9789 2.20556 12.0154 2.0377 11.9713 1.86083C12.1453 1.98364 12.2549 2.08369 12.2539 2.1387C12.2463 2.37863 11.5123 3.38578 11.5123 3.38578Z" fill="#D3846E"/>
<path d="M7.39843 4.17065L8.31074 4.58697L8.34914 4.73492C8.34914 4.73492 7.56107 4.60737 7.39843 4.17065Z" fill="#D3846E"/>
<path d="M11.7249 2.88688C11.834 2.76454 12.2294 2.8167 12.3755 3.12112C12.5215 3.42553 11.4997 4.55028 11.4997 4.55028C11.4997 4.55028 10.7249 5.39715 10.0515 5.70536C9.37822 6.01357 8.49531 6.03396 8.49531 6.03396C8.49531 6.03396 10.3389 4.44217 11.7249 2.88688Z" fill="#F2A891"/>
<path d="M39.3606 9.35605C38.252 7.29482 37.3548 6.78319 37.1832 6.78319C37.0115 6.78319 36.8712 6.78319 36.8712 6.78319L36.4653 6.23694L34.0062 8.00086L34.3808 8.59405C34.3808 8.59405 34.0688 8.8904 34.2561 9.43665C34.4434 9.9829 36.0822 15.8361 35.6142 16.4919C35.1457 17.1476 31.1811 18.4587 30.4324 18.7082C29.6832 18.958 29.0445 18.877 28.2474 18.7551C26.7177 18.5209 24.353 18.9267 24.353 18.9267C24.353 18.9267 23.206 20.7997 22.316 21.5257C21.443 22.2379 21.0443 22.3863 21.0296 22.3915C21.0149 22.3863 20.6165 22.2379 19.7431 21.5257C18.8536 20.7997 17.7061 18.9267 17.7061 18.9267C17.7061 18.9267 15.3414 18.5209 13.8117 18.7551C13.0146 18.877 12.3759 18.958 11.6267 18.7082C10.8775 18.4583 7.00684 17.1472 6.53836 16.4919C6.06988 15.8366 7.61521 9.98337 7.8025 9.43665C7.9898 8.8904 7.6778 8.59405 7.6778 8.59405L8.0524 8.00086L5.59286 6.23694L5.18697 6.78319C5.18697 6.78319 5.04661 6.78319 4.87496 6.78319C4.70331 6.78319 3.80618 7.29529 2.69757 9.35605C1.45665 11.6629 -0.0175515 16.554 0.794232 18.9267C1.60602 21.3 10.8149 27.1987 10.8149 27.1987C10.8149 27.1987 9.86279 41.7302 9.9562 42.4794C10.0496 43.2286 10.9396 43.7587 10.9396 43.7587L10.6589 45.0551C10.6589 45.0551 12.5319 45.8043 15.5287 46.2258C18.5074 46.6445 23.5512 46.6445 26.53 46.2258C29.5267 45.8043 31.3997 45.0551 31.3997 45.0551L31.119 43.7587C31.119 43.7587 32.0085 43.2286 32.1024 42.4794C32.1963 41.7302 31.2442 27.1987 31.2442 27.1987C31.2442 27.1987 40.547 21.3 41.3583 18.9267C42.1691 16.554 40.6015 11.6634 39.3606 9.35605Z" fill="#8A5082"/>
<path d="M27.6694 6.88427C27.5148 6.50778 27.2037 6.3129 26.8709 6.24509C27.2981 5.96296 27.5286 5.36503 27.5286 4.76805C27.5286 3.93587 27.0293 3.36117 26.3555 3.35216C26.5755 2.94816 26.7267 2.43653 26.4465 2.01926C26.1596 1.59203 25.6556 1.43792 25.2189 1.35542C24.703 1.25774 24.1321 1.24067 23.6275 1.41943C23.2515 1.55268 22.9518 1.8443 22.7048 2.19044C22.316 1.00359 20.6407 0.982243 19.7621 1.03867C19.0736 1.08324 18.3794 1.21933 17.7236 1.47206C17.3703 1.60815 16.8127 1.82012 16.6544 2.26631C16.6344 2.32179 16.6268 2.37868 16.6278 2.43605C16.0787 2.65038 15.5547 3.11839 15.2375 3.68076C15.0976 3.9278 15.0194 4.22179 15.072 4.51672C15.1256 4.8183 15.3513 5.02267 15.5756 5.15971C15.1104 5.62772 14.7202 6.30104 14.4883 6.95208C14.3783 7.26029 14.31 7.61783 14.4267 7.936C14.5395 8.24421 14.8454 8.34188 15.1109 8.37175C15.0502 8.6278 15.073 8.88813 15.0147 9.14892C15.0042 9.19539 15.0275 9.24423 15.0673 9.25751C15.4561 9.38601 15.7857 9.31157 16.0986 9.01236C16.2527 8.86489 16.3846 8.68518 16.5292 8.52491C16.6985 8.33713 16.8962 8.18445 17.0882 8.03034C17.4126 7.77002 17.7468 7.51682 17.9934 7.15076C18.2405 6.7847 18.3301 6.33375 18.3438 5.87618C19.0793 5.7766 19.6544 5.34321 19.9783 4.55846C20.3349 4.97004 20.8143 5.08336 21.3012 4.91409C21.5587 4.82447 21.7882 4.64808 21.9897 4.44418C22.0713 4.36168 22.1889 4.11985 22.2984 4.14261C22.3767 4.15874 22.4544 4.17627 22.5331 4.18812C22.4042 4.55988 22.3259 4.97194 22.4663 5.35412C22.627 5.79036 23.086 5.85105 23.4445 5.82118C23.5099 6.80793 24.2681 7.49501 25.0799 7.16641C25.1847 7.84115 25.5195 8.49456 26.06 8.79329C26.5826 9.08206 27.1952 8.79898 27.5271 8.27739C27.7865 7.8696 27.8614 7.35133 27.6694 6.88427Z" fill="#C6590E"/>
<path d="M16.0613 8.12179C16.0613 8.12179 16.4615 9.89899 16.5322 9.76101C16.6024 9.62302 16.7783 7.74719 16.7783 7.74719L16.0613 8.12179Z" fill="#C6590E"/>
<path d="M25.5502 8.04358C25.5502 8.04358 25.564 9.71076 25.6977 9.70412C25.8314 9.69796 26.362 8.04358 26.362 8.04358H25.5502Z" fill="#C6590E"/>
</svg>
