<svg width="1035" height="242" viewBox="0 0 1035 242" fill="none" xmlns="http://www.w3.org/2000/svg">
<g opacity="0.4">
<path d="M658.663 119.634C645.043 119.048 631.694 118.009 618.69 116.544C605.357 125.732 592.644 134.588 579.597 143.219C581.276 142.715 582.97 142.199 584.642 141.702C610.393 134.01 635.203 126.735 658.663 119.634Z" fill="url(#paint0_radial_1_257)"/>
<path d="M441.329 183.467C392.518 196.065 333.058 207.091 269.11 201.576C204.626 195.972 143.272 171.01 84.4496 146.223C53.1366 133.025 25.783 121.135 0.220798 110.761C-0.117396 111.006 0.563625 110.516 0.220798 110.761C9.47249 115.262 17.129 120.503 27.0292 125.545C84.2118 154.682 143.037 188.545 210.645 214.135C239.781 225.171 269.028 233.603 297.844 237.03C323.542 240.058 350.273 238.579 373.782 233.133C444.055 216.843 487.232 195.735 523.103 176.897C544.114 165.891 562.163 154.753 579.595 143.22C536.553 156.129 491.292 170.592 441.329 183.467Z" fill="url(#paint1_radial_1_257)"/>
<path d="M562.392 138.603C459.604 159.488 361.212 196.516 270.305 191.471C219.162 188.614 168.725 173.373 118.228 153.882C73.7745 136.714 35.486 120.207 0.221201 110.76C-0.425846 111.241 0.885235 110.284 0.221201 110.76C14.2323 117.004 27.7462 124.064 43.7726 131.668C73.4533 145.765 104.938 161.082 139.481 175.735C172.184 189.608 205.607 202.098 240.906 209.809C299.838 222.646 353.442 218.653 392.03 209.808C432.62 200.501 465.675 187.57 497.615 175.894C531.065 163.645 562.809 152.257 593.315 140.832C606.76 135.815 620.104 130.64 633.405 125.166C611.867 129.118 588.021 133.392 562.392 138.603Z" fill="url(#paint2_radial_1_257)"/>
<path d="M652.809 116.935C646.351 119.772 639.882 122.501 633.405 125.166C643.449 123.322 653.012 121.546 661.978 119.783C658.871 118.862 655.828 117.906 652.809 116.935Z" fill="url(#paint3_radial_1_257)"/>
<path d="M611.436 128.799C574.449 133.077 522.886 135.894 457.514 144.722C394.488 153.225 341.475 163.745 292.042 169.174C243.316 174.515 194.097 173.057 147.386 162.289C96.9843 150.665 51.8285 131.24 0.220668 110.761C-0.54992 111.32 1.00824 110.207 0.220668 110.761C31.3546 127.398 64.6984 148.653 109.203 169.925C141.19 185.193 172.369 197.97 203.931 206.66C231.921 214.368 260.313 218.516 286.901 218.663C336.799 218.951 385.478 205.486 431.075 191.879C479.835 177.316 529.69 162.526 574.567 147.367C593.479 140.965 611.808 134.082 628.92 126.445C623.474 127.283 617.676 128.076 611.436 128.799Z" fill="url(#paint4_radial_1_257)"/>
<path d="M642.55 120.068C638.108 122.256 633.556 124.374 628.92 126.442C637.381 125.134 644.922 123.696 651.596 122.161C648.557 121.482 645.527 120.794 642.55 120.068Z" fill="url(#paint5_radial_1_257)"/>
<path d="M545.701 163.923C509.543 182.192 451.187 206.06 357.438 220.321C312.839 227.078 264.374 221.954 222.024 210.106C171.598 195.996 127.648 175.377 83.621 153.724C53.0971 138.695 27.155 123.792 0.221461 110.76C-0.203212 111.061 0.652311 110.46 0.221461 110.76C7.1444 114.58 11.2336 119.996 18.7465 124.294C60.8879 148.406 106.705 177.2 161.135 202.051C185.615 213.226 210.365 222.882 235.677 229.975C258.282 236.3 281.361 240.446 303.574 241.658C343.769 243.84 384.827 235.337 418.396 223.692C454.93 211.016 487.948 195.011 518.041 179.336C530.119 173.039 541.778 166.653 552.884 160.214C550.571 161.431 548.191 162.663 545.701 163.923Z" fill="url(#paint6_radial_1_257)"/>
<path d="M552.883 160.213C590.49 140.418 604.596 126.562 604.596 126.562C589.555 137.83 572.05 149.101 552.883 160.213Z" fill="url(#paint7_radial_1_257)"/>
<path d="M1035 138.083C1027.34 134.477 1018.99 130.63 1009.85 126.592C984.079 115.195 953.517 102.974 917.639 91.1751C845.403 67.4142 759.189 48.1169 667.687 41.4086C585.595 35.4084 503.014 40.7889 429.798 54.1035C361.972 66.4399 301.335 85.3341 237.291 100.338C161.014 118.18 77.3563 114.298 8.05893 110.495C20.4872 112.054 33.3293 113.756 46.5806 115.531C95.8905 122.136 148.82 128.804 202.817 128.289C256.142 127.761 310.806 119.133 367.34 105.512C544.01 62.9806 695.406 89.6794 831.215 106.323C893.378 113.949 980.646 124.771 1034.44 138.256C1034.63 138.198 1034.82 138.143 1035 138.083Z" fill="url(#paint8_radial_1_257)"/>
<path d="M1005.83 123.971C984.139 110.027 939.546 84.5776 863.095 58.3642C786.623 32.0998 687.199 10.6248 589.428 12.0172C503.323 13.269 431.645 29.1842 374.302 46.5404C320.645 62.7928 276.296 80.3692 232.049 92.2005C190.42 103.322 147.1 108.79 103.075 109.687C72.3515 110.309 40.7929 109.151 10.6227 110.759C24.7727 112.075 39.5761 113.501 55.1747 114.942C105.786 119.611 163.176 122.941 220.178 115.055C279.566 106.815 328.67 93.3353 376.958 82.1623C427.928 70.3846 477.997 60.6824 530.708 56.153C586.916 51.3486 646.142 52.4063 707.535 60.3315C772.513 68.7458 835.728 84.2976 898.513 103.385C1007.05 136.428 1038.2 144.804 1005.83 123.971Z" fill="url(#paint9_radial_1_257)"/>
<path d="M929.808 114.47C920.66 108.511 903.037 96.5006 866.41 78.3356C824.812 57.7193 763.777 31.5768 675.905 14.0277C594.44 -2.22095 497.102 -6.03737 409.698 11.6025C330.081 27.7093 280.365 51.3159 237.321 69.8106C197.743 86.8158 163.523 100.563 125.574 107.161C90.6796 113.213 51.375 112.588 5.76666 110.283C38.9962 116.074 76.5666 123.186 119.564 125.973C170.172 129.243 218.321 122.072 263.009 109.371C311.233 95.6569 359.796 76.5512 421.585 63.0451C487.858 48.5721 572.924 41.9584 666.761 53.6639C716.802 59.928 766.804 70.704 815.057 83.9613C861.388 96.7084 901.244 110.735 938.214 120.197C938.214 120.197 936.958 119.137 929.808 114.47Z" fill="url(#paint10_radial_1_257)"/>
<path d="M650.973 79.6646C607.411 74.6163 555.005 70.7065 498.751 72.7784C445.228 74.7507 390.295 82.666 338.199 95.7453C242.975 119.652 166.168 127.241 93.8458 120.676C61.7236 117.753 30.5341 114.501 0.221682 110.76C0.0487238 110.887 0.394639 110.631 0.221682 110.76C47.6986 120.077 105.048 133.219 168.523 135.592C247.497 138.491 331.749 113.521 429.628 96.4919C482.27 87.3472 541.344 81.6195 602.355 82.5415C666.566 83.532 728.739 91.7285 783.488 100.15C783.487 100.15 738.879 89.9118 650.973 79.6646Z" fill="url(#paint11_radial_1_257)"/>
<path d="M689.236 93.2493C632.136 84.0734 555.787 74.1124 465.452 81.1467C383.453 87.5601 323.896 103.737 271.599 115.435C222.559 126.404 176.245 133.031 129.425 130.053C82.8097 122.357 39.1394 111.912 0.222412 110.76C14.1208 115.313 29.8538 119.871 46.0732 125.811C84.8095 139.987 126.412 156.547 173.512 167.772C233.884 182.134 302.135 183.514 363.156 174.655C426.228 165.474 490.204 150.63 552.64 139.707C620.436 129.431 671.763 118.66 724.759 103.587C730.61 101.919 736.926 100.187 743.53 98.4307C726.87 96.5866 708.801 94.7686 689.236 93.2493Z" fill="white"/>
<path d="M647.344 105.737C585.949 107.286 521.541 113.071 457.017 122.147C395.55 130.794 333.526 142.653 265.843 146.543C207.635 149.874 148.633 140.236 94.8834 129.139C60.2548 121.984 28.3302 116.263 0.219924 110.759C0.176685 110.786 0.255442 110.732 0.219924 110.759C15.1545 114.72 31.3569 118.053 47.8744 123.037C100.464 138.91 155.528 157.488 215.982 168.474C270.361 178.345 328.744 178.745 382.444 168.59C460.976 153.735 523.568 144.353 577.363 135.891C630.887 127.456 674.126 117.75 718.394 105.375C695.72 105.112 671.995 105.116 647.344 105.737Z" fill="url(#paint12_radial_1_257)"/>
<path d="M793.103 104.284C745.814 98.8761 682.808 89.5522 608.14 90.2217C537.816 90.86 472.581 99.9438 415.62 110.904C361.609 121.308 312.838 132.724 264.933 136.831C217.64 140.878 169.671 137.003 122.543 128.901C79.4888 121.488 36.4717 112.214 0.221649 110.761C17.8896 114.895 40.1316 119.164 60.7877 124.609C115.319 138.988 175.437 155.732 241.267 158.679C362.588 164.064 449.229 135.197 533.705 123.566C623.854 111.164 709.915 114.109 791.22 104.559C791.94 104.476 792.622 104.395 793.336 104.311C793.256 104.3 793.181 104.293 793.103 104.284Z" fill="url(#paint13_radial_1_257)"/>
<path d="M766.552 105.478C745.723 102.908 716.266 97.2744 674.58 90.9444C619.174 82.5388 547.742 74.7355 465.448 81.1464C388.762 87.1491 331.641 101.742 281.855 113.117C235.014 123.828 191.88 131.551 148.486 130.833C103.415 130.069 58.6023 120.571 7.34354 110.603C5.23098 110.192 2.35711 111.158 0.2183 110.759C0.0407095 110.89 0.398979 110.629 0.2183 110.759C34.5813 121.744 74.5886 135.21 124.209 147.977C179.762 162.26 235.848 166.433 286.448 160.442C338.176 154.31 389.055 140.374 445.828 130.105C505.486 119.311 571.476 113.802 637.638 112.345C670.857 111.607 703.123 111.532 732.743 109.394C744.291 108.562 755.612 107.288 766.586 105.547C766.577 105.523 766.563 105.502 766.552 105.478Z" fill="url(#paint14_radial_1_257)"/>
<path d="M607.075 128.252C550.507 134.804 464.842 140.124 361.43 156.447C264.682 171.698 177.366 159.167 99.2186 137.645C63.963 127.93 31.0115 119.028 0.220408 110.758C0.03664 110.891 0.404175 110.625 0.220408 110.758C13.9551 115.244 28.8804 119.518 44.896 125.38C83.9288 139.658 125.907 156.427 173.51 167.77C216.546 178.009 262.948 182.696 306.964 180.403C350.132 178.145 393.531 170.058 436.573 161.656C519.055 145.524 608.512 133.144 672.085 117.817C658.405 120.837 637.086 124.783 607.075 128.252Z" fill="url(#paint15_radial_1_257)"/>
<path d="M672.082 117.819C684.954 114.98 691.069 112.962 691.069 112.962C685.074 114.622 678.673 116.23 672.082 117.819Z" fill="url(#paint16_radial_1_257)"/>
</g>
<defs>
<radialGradient id="paint0_radial_1_257" cx="0" cy="0" r="1" gradientUnits="userSpaceOnUse" gradientTransform="translate(-581.069 348.041) rotate(31.3445) scale(843.545 789.492)">
<stop stop-color="#1D5500"/>
<stop offset="0.5269" stop-color="#51B800"/>
<stop offset="1" stop-color="#D5E305"/>
</radialGradient>
<radialGradient id="paint1_radial_1_257" cx="0" cy="0" r="1" gradientUnits="userSpaceOnUse" gradientTransform="translate(-576.026 346.811) rotate(31.3445) scale(839.952 786.129)">
<stop stop-color="#1D5500"/>
<stop offset="0.5269" stop-color="#51B800"/>
<stop offset="1" stop-color="#D5E305"/>
</radialGradient>
<radialGradient id="paint2_radial_1_257" cx="0" cy="0" r="1" gradientUnits="userSpaceOnUse" gradientTransform="translate(1013.44 -120.442) rotate(31.3445) scale(1205.1 1127.88)">
<stop stop-color="#1D5500"/>
<stop offset="0.5269" stop-color="#51B800"/>
<stop offset="1" stop-color="#D5E305"/>
</radialGradient>
<radialGradient id="paint3_radial_1_257" cx="0" cy="0" r="1" gradientUnits="userSpaceOnUse" gradientTransform="translate(1013.82 -121.201) rotate(31.3445) scale(1207.78 1130.39)">
<stop stop-color="#1D5500"/>
<stop offset="0.5269" stop-color="#51B800"/>
<stop offset="1" stop-color="#D5E305"/>
</radialGradient>
<radialGradient id="paint4_radial_1_257" cx="0" cy="0" r="1" gradientUnits="userSpaceOnUse" gradientTransform="translate(726.063 -24.2773) rotate(31.3445) scale(960.182 898.654)">
<stop stop-color="#1D5500"/>
<stop offset="0.5269" stop-color="#51B800"/>
<stop offset="1" stop-color="#D5E305"/>
</radialGradient>
<radialGradient id="paint5_radial_1_257" cx="0" cy="0" r="1" gradientUnits="userSpaceOnUse" gradientTransform="translate(727.457 -24.9865) rotate(31.3445) scale(966.856 904.901)">
<stop stop-color="#1D5500"/>
<stop offset="0.5269" stop-color="#51B800"/>
<stop offset="1" stop-color="#D5E305"/>
</radialGradient>
<radialGradient id="paint6_radial_1_257" cx="0" cy="0" r="1" gradientUnits="userSpaceOnUse" gradientTransform="translate(1818.36 -431.339) rotate(31.3445) scale(1846.52 1728.2)">
<stop stop-color="#1D5500"/>
<stop offset="0.5269" stop-color="#51B800"/>
<stop offset="1" stop-color="#D5E305"/>
</radialGradient>
<radialGradient id="paint7_radial_1_257" cx="0" cy="0" r="1" gradientUnits="userSpaceOnUse" gradientTransform="translate(1823.35 -432.999) rotate(31.3445) scale(1852.72 1734)">
<stop stop-color="#1D5500"/>
<stop offset="0.5269" stop-color="#51B800"/>
<stop offset="1" stop-color="#D5E305"/>
</radialGradient>
<radialGradient id="paint8_radial_1_257" cx="0" cy="0" r="1" gradientUnits="userSpaceOnUse" gradientTransform="translate(-141.589 426.099) rotate(18.8344) scale(1071.96 676.424)">
<stop offset="0.043" stop-color="#FFC800"/>
<stop offset="0.3124" stop-color="#FFC500"/>
<stop offset="0.4978" stop-color="#FFBC00"/>
<stop offset="0.658" stop-color="#FFAD00"/>
<stop offset="0.8038" stop-color="#FF9700"/>
<stop offset="0.9387" stop-color="#FF7B00"/>
<stop offset="1" stop-color="#FF6C00"/>
</radialGradient>
<radialGradient id="paint9_radial_1_257" cx="0" cy="0" r="1" gradientUnits="userSpaceOnUse" gradientTransform="translate(984.74 -147.564) rotate(18.8344) scale(1513.25 954.882)">
<stop offset="0.043" stop-color="#FFC800"/>
<stop offset="0.3124" stop-color="#FFC500"/>
<stop offset="0.4978" stop-color="#FFBC00"/>
<stop offset="0.658" stop-color="#FFAD00"/>
<stop offset="0.8038" stop-color="#FF9700"/>
<stop offset="0.9387" stop-color="#FF7B00"/>
<stop offset="1" stop-color="#FF6C00"/>
</radialGradient>
<radialGradient id="paint10_radial_1_257" cx="0" cy="0" r="1" gradientUnits="userSpaceOnUse" gradientTransform="translate(782.189 -43.5711) rotate(18.8344) scale(1246.39 786.488)">
<stop offset="0.043" stop-color="#FFC800"/>
<stop offset="0.3124" stop-color="#FFC500"/>
<stop offset="0.4978" stop-color="#FFBC00"/>
<stop offset="0.658" stop-color="#FFAD00"/>
<stop offset="0.8038" stop-color="#FF9700"/>
<stop offset="0.9387" stop-color="#FF7B00"/>
<stop offset="1" stop-color="#FF6C00"/>
</radialGradient>
<radialGradient id="paint11_radial_1_257" cx="0" cy="0" r="1" gradientUnits="userSpaceOnUse" gradientTransform="translate(1575.41 -670.476) rotate(18.8344) scale(2439.48 1539.35)">
<stop offset="0.043" stop-color="#FFC800"/>
<stop offset="0.3124" stop-color="#FFC500"/>
<stop offset="0.4978" stop-color="#FFBC00"/>
<stop offset="0.658" stop-color="#FFAD00"/>
<stop offset="0.8038" stop-color="#FF9700"/>
<stop offset="0.9387" stop-color="#FF7B00"/>
<stop offset="1" stop-color="#FF6C00"/>
</radialGradient>
<radialGradient id="paint12_radial_1_257" cx="0" cy="0" r="1" gradientUnits="userSpaceOnUse" gradientTransform="translate(-463.761 404.521) rotate(26.3618) scale(932.166 747.017)">
<stop stop-color="white"/>
<stop offset="1" stop-color="#E1E1E1"/>
</radialGradient>
<radialGradient id="paint13_radial_1_257" cx="0" cy="0" r="1" gradientUnits="userSpaceOnUse" gradientTransform="translate(1039.92 -131.475) rotate(26.3618) scale(1358.64 1088.78)">
<stop stop-color="white"/>
<stop offset="1" stop-color="#E1E1E1"/>
</radialGradient>
<radialGradient id="paint14_radial_1_257" cx="0" cy="0" r="1" gradientUnits="userSpaceOnUse" gradientTransform="translate(774.798 -33.4545) rotate(26.3618) scale(1102.39 883.43)">
<stop stop-color="white"/>
<stop offset="1" stop-color="#E1E1E1"/>
</radialGradient>
<radialGradient id="paint15_radial_1_257" cx="0" cy="0" r="1" gradientUnits="userSpaceOnUse" gradientTransform="translate(1880.19 -562.55) rotate(26.3618) scale(2196.01 1759.84)">
<stop stop-color="white"/>
<stop offset="1" stop-color="#E1E1E1"/>
</radialGradient>
<radialGradient id="paint16_radial_1_257" cx="0" cy="0" r="1" gradientUnits="userSpaceOnUse" gradientTransform="translate(1874.59 -561.305) rotate(26.3618) scale(2189.49 1754.61)">
<stop stop-color="white"/>
<stop offset="1" stop-color="#E1E1E1"/>
</radialGradient>
</defs>
</svg>
