<svg width="50" height="50" viewBox="0 0 50 50" fill="none" xmlns="http://www.w3.org/2000/svg">
<rect width="50" height="50" rx="25" fill="white" fill-opacity="0.2"/>
<path d="M21.875 16.25C20.9245 16.25 20.0326 16.4323 19.1992 16.7969C18.3659 17.1484 17.6367 17.6367 17.0117 18.2617C16.3867 18.8867 15.8984 19.6159 15.5469 20.4492C15.1823 21.2826 15 22.1745 15 23.125C15 23.125 15 23.1315 15 23.1445C15 23.9128 15.1237 24.6484 15.3711 25.3516C15.6185 26.0547 15.9635 26.6927 16.4062 27.2656L16.3867 27.2461C16.3867 27.2461 16.4193 27.2884 16.4844 27.373C16.5495 27.4577 16.5885 27.513 16.6016 27.5391L21.875 33.75L27.1484 27.5391C27.1615 27.513 27.2005 27.4577 27.2656 27.373C27.3307 27.2884 27.3633 27.2461 27.3633 27.2461C27.793 26.6862 28.1315 26.0547 28.3789 25.3516C28.6263 24.6484 28.75 23.9128 28.75 23.1445C28.75 23.1315 28.75 23.125 28.75 23.125C28.75 22.1745 28.5677 21.2826 28.2031 20.4492C27.8516 19.6159 27.3633 18.8867 26.7383 18.2617C26.1133 17.6367 25.3841 17.1484 24.5508 16.7969C23.7174 16.4323 22.8255 16.25 21.875 16.25ZM21.875 25.625C21.1849 25.625 20.5957 25.3809 20.1074 24.8926C19.6191 24.4043 19.375 23.8151 19.375 23.125C19.375 22.4349 19.6191 21.8457 20.1074 21.3574C20.5957 20.8691 21.1849 20.625 21.875 20.625C22.5651 20.625 23.1543 20.8691 23.6426 21.3574C24.1309 21.8457 24.375 22.4349 24.375 23.125C24.375 23.8151 24.1309 24.4043 23.6426 24.8926C23.1543 25.3809 22.5651 25.625 21.875 25.625Z" fill="white"/>
</svg>
