<svg width="30" height="30" viewBox="0 0 50 50" fill="none" xmlns="http://www.w3.org/2000/svg">
<rect width="50" height="50" rx="25" fill="white" fill-opacity="0.2"/>
<path d="M20.6055 15.0193C20.4492 14.9803 20.3027 14.9998 20.166 15.0779C20.0293 15.1561 19.9349 15.2667 19.8828 15.41L19.2383 17.6756C19.1992 17.8318 19.2188 17.9783 19.2969 18.115C19.375 18.2518 19.4922 18.3462 19.6484 18.3982C19.6745 18.3982 19.7005 18.4015 19.7266 18.408C19.7526 18.4145 19.7786 18.4178 19.8047 18.4178C19.8307 18.4178 19.86 18.4145 19.8926 18.408C19.9251 18.4015 19.9544 18.3917 19.9805 18.3787C20.0716 18.3527 20.1497 18.3038 20.2148 18.2322C20.2799 18.1606 20.3255 18.0792 20.3516 17.9881L20.9961 15.742C21.0352 15.5857 21.0156 15.436 20.9375 15.2928C20.8594 15.1496 20.7487 15.0584 20.6055 15.0193ZM20.6445 19.6287C20.6966 19.7068 20.765 19.7654 20.8496 19.8045C20.9342 19.8436 21.0156 19.8631 21.0938 19.8631C21.1328 19.8631 21.1654 19.8598 21.1914 19.8533C21.2174 19.8468 21.25 19.8371 21.2891 19.824C21.3151 19.811 21.3444 19.798 21.377 19.785C21.4095 19.7719 21.4388 19.7524 21.4648 19.7264L25.0391 16.9334C25.1693 16.8292 25.2441 16.699 25.2637 16.5428C25.2832 16.3865 25.2474 16.2433 25.1562 16.1131C25.0521 15.9959 24.9186 15.9275 24.7559 15.908C24.5931 15.8885 24.4531 15.9243 24.3359 16.0154L20.7422 18.8279C20.625 18.9191 20.5566 19.046 20.5371 19.2088C20.5176 19.3716 20.5534 19.5115 20.6445 19.6287ZM24.5508 19.8826L22.1094 20.5272C21.9661 20.5662 21.8587 20.6541 21.7871 20.7908C21.7155 20.9275 21.6992 21.0675 21.7383 21.2107C21.7643 21.341 21.8294 21.4451 21.9336 21.5232C22.0378 21.6014 22.1549 21.6404 22.2852 21.6404C22.3112 21.6404 22.3372 21.6404 22.3633 21.6404C22.3893 21.6404 22.4154 21.6339 22.4414 21.6209L24.8828 20.9959C25.026 20.9568 25.1335 20.869 25.2051 20.7322C25.2767 20.5955 25.293 20.4555 25.2539 20.3123C25.2148 20.1561 25.127 20.0389 24.9902 19.9607C24.8535 19.8826 24.707 19.8566 24.5508 19.8826ZM17.9688 18.1053C17.6823 18.1574 17.4056 18.242 17.1387 18.3592C16.8717 18.4764 16.6211 18.6326 16.3867 18.8279C15.8529 19.2446 15.472 19.7654 15.2441 20.3904C15.0163 21.0154 14.9479 21.6404 15.0391 22.2654C15.0911 22.7212 15.2409 23.2746 15.4883 23.9256C15.7487 24.5636 16.071 25.244 16.4551 25.9666C16.8392 26.6893 17.2656 27.4087 17.7344 28.1248C18.2031 28.841 18.6654 29.492 19.1211 30.0779C19.1211 30.0779 19.1243 30.0812 19.1309 30.0877C19.1374 30.0942 19.1406 30.104 19.1406 30.117C19.1536 30.117 19.1602 30.1203 19.1602 30.1268C19.1602 30.1333 19.1667 30.1365 19.1797 30.1365C19.7135 30.8266 20.2702 31.4516 20.8496 32.0115C21.429 32.5714 22.0052 33.0597 22.5781 33.4764L23.75 34.2186C23.9453 34.3227 24.1374 34.4171 24.3262 34.5018C24.515 34.5864 24.694 34.6548 24.8633 34.7068C25.4622 34.9542 26.0872 35.0421 26.7383 34.9705C27.3893 34.8989 27.9883 34.6482 28.5352 34.2186C28.7695 34.0363 28.9746 33.8279 29.1504 33.5936C29.3262 33.3592 29.4727 33.1118 29.5898 32.8514C29.6549 32.7342 29.6842 32.6072 29.6777 32.4705C29.6712 32.3338 29.6224 32.2068 29.5312 32.0897L26.3477 28.0272C26.2565 27.923 26.1491 27.8514 26.0254 27.8123C25.9017 27.7732 25.7812 27.7667 25.6641 27.7928V27.7732C25.3776 27.8253 25.0944 27.9132 24.8145 28.0369C24.5345 28.1606 24.2773 28.3201 24.043 28.5154C23.8737 28.6456 23.7207 28.7856 23.584 28.9354C23.4473 29.0851 23.3268 29.2446 23.2227 29.4139C23.0013 29.1795 22.7832 28.9386 22.5684 28.6912C22.3535 28.4438 22.1354 28.1899 21.9141 27.9295C21.7057 27.6691 21.3477 27.2036 20.8398 26.533C20.332 25.8624 19.987 25.3904 19.8047 25.117C20 25.0519 20.1888 24.9705 20.3711 24.8729C20.5534 24.7752 20.7227 24.6613 20.8789 24.5311C21.1263 24.3488 21.3411 24.1372 21.5234 23.8963C21.7057 23.6554 21.8555 23.3982 21.9727 23.1248C22.0247 23.0076 22.0443 22.8839 22.0312 22.7537C22.0182 22.6235 21.9727 22.5063 21.8945 22.4022L18.6914 18.3397C18.6003 18.2355 18.4896 18.1606 18.3594 18.115C18.2292 18.0695 18.099 18.0662 17.9688 18.1053Z" fill="white"/>
</svg>
