<svg width="56" height="55" viewBox="0 0 56 55" fill="none" xmlns="http://www.w3.org/2000/svg">
<rect x="0.699951" width="55" height="55" rx="27.5" fill="#F7F7F7"/>
<g clip-path="url(#clip0_7_12)">
<path d="M24.9187 15.7812C23.2976 15.7812 21.7742 16.084 20.3484 16.6895C18.9226 17.3145 17.6824 18.1592 16.6277 19.2236C15.573 20.2881 14.7332 21.5234 14.1082 22.9297C13.5027 24.3555 13.2 25.8789 13.2 27.5C13.2 28.5742 13.3367 29.6045 13.6101 30.5908C13.8835 31.5771 14.2644 32.5 14.7527 33.3594L14.7234 33.3008L13.6687 36.9922C13.6687 37.0508 13.6638 37.1143 13.6541 37.1826C13.6443 37.251 13.6394 37.3145 13.6394 37.373C13.6394 37.7637 13.7761 38.0957 14.0496 38.3691C14.323 38.6426 14.655 38.7793 15.0457 38.7793C15.1042 38.7793 15.1677 38.7744 15.2361 38.7646C15.3044 38.7549 15.3679 38.7402 15.4265 38.7207V38.75L19.1179 37.6953C19.9578 38.1641 20.866 38.5352 21.8425 38.8086C22.8191 39.082 23.8445 39.2188 24.9187 39.2188C26.5398 39.2188 28.0632 38.916 29.489 38.3105C30.9148 37.6855 32.155 36.8457 33.2097 35.791C34.2644 34.7363 35.1042 33.4961 35.7292 32.0703C36.3347 30.6445 36.6375 29.1211 36.6375 27.5C36.6375 25.8789 36.3347 24.3555 35.7292 22.9297C35.1042 21.5039 34.2644 20.2637 33.2097 19.209C32.155 18.1543 30.9148 17.3145 29.489 16.6895C28.0632 16.084 26.5398 15.7812 24.9187 15.7812ZM24.9187 38.2812C23.9031 38.2812 22.9265 38.1494 21.989 37.8857C21.0515 37.6221 20.1824 37.2461 19.3816 36.7578L19.4109 36.7871C19.3718 36.748 19.3328 36.7236 19.2937 36.7139C19.2546 36.7041 19.2156 36.6992 19.1765 36.6992C19.157 36.6992 19.1375 36.7041 19.1179 36.7139C19.0984 36.7236 19.0789 36.7285 19.0593 36.7285L15.1628 37.8418C15.1433 37.8418 15.1238 37.8418 15.1042 37.8418C15.0847 37.8418 15.0652 37.8418 15.0457 37.8418C14.9089 37.8418 14.7966 37.7979 14.7087 37.71C14.6208 37.6221 14.5769 37.5098 14.5769 37.373C14.5769 37.3535 14.5769 37.334 14.5769 37.3145C14.5769 37.2949 14.5769 37.2754 14.5769 37.2559L15.6902 33.3594C15.6902 33.3398 15.6951 33.3203 15.7048 33.3008C15.7146 33.2812 15.7195 33.2617 15.7195 33.2422C15.7195 33.2031 15.7146 33.1641 15.7048 33.125C15.6951 33.0859 15.6707 33.0469 15.6316 33.0078C15.1628 32.2266 14.7966 31.3672 14.533 30.4297C14.2693 29.4922 14.1375 28.5156 14.1375 27.5C14.1375 26.0156 14.4207 24.6191 14.9871 23.3105C15.5535 22.002 16.325 20.8594 17.3015 19.8828C18.2781 18.9062 19.4207 18.1348 20.7292 17.5684C22.0378 17.002 23.4343 16.7188 24.9187 16.7188C26.4031 16.7188 27.7996 17.002 29.1082 17.5684C30.4167 18.1348 31.5593 18.9062 32.5359 19.8828C33.5125 20.8594 34.2839 22.002 34.8503 23.3105C35.4167 24.6191 35.7 26.0156 35.7 27.5C35.7 28.9844 35.4167 30.3809 34.8503 31.6895C34.2839 32.998 33.5125 34.1406 32.5359 35.1172C31.5593 36.0938 30.4167 36.8652 29.1082 37.4316C27.7996 37.998 26.4031 38.2812 24.9187 38.2812ZM29.1375 25.625C29.1375 25.7617 29.0935 25.874 29.0056 25.9619C28.9177 26.0498 28.8054 26.0938 28.6687 26.0938H21.1687C21.032 26.0938 20.9197 26.0498 20.8318 25.9619C20.7439 25.874 20.7 25.7617 20.7 25.625C20.7 25.4883 20.7439 25.376 20.8318 25.2881C20.9197 25.2002 21.032 25.1562 21.1687 25.1562H28.6687C28.8054 25.1562 28.9177 25.2002 29.0056 25.2881C29.0935 25.376 29.1375 25.4883 29.1375 25.625ZM29.1375 29.375C29.1375 29.5117 29.0935 29.624 29.0056 29.7119C28.9177 29.7998 28.8054 29.8438 28.6687 29.8438H21.1687C21.032 29.8438 20.9197 29.7998 20.8318 29.7119C20.7439 29.624 20.7 29.5117 20.7 29.375C20.7 29.2383 20.7439 29.126 20.8318 29.0381C20.9197 28.9502 21.032 28.9062 21.1687 28.9062H28.6687C28.8054 28.9062 28.9177 28.9502 29.0056 29.0381C29.0935 29.126 29.1375 29.2383 29.1375 29.375Z" fill="#141212"/>
</g>
<defs>
<clipPath id="clip0_7_12">
<rect width="30" height="30" fill="white" transform="matrix(1 0 0 -1 13.2 42.5)"/>
</clipPath>
</defs>
</svg>
