<svg width="56" height="55" viewBox="0 0 56 55" fill="none" xmlns="http://www.w3.org/2000/svg">
<rect x="0.840088" width="55" height="55" rx="27.5" fill="#F7F7F7"/>
<g clip-path="url(#clip0_7_17)">
<path d="M27.344 17.0703C27.3831 16.9727 27.4417 16.8896 27.5198 16.8213C27.5979 16.7529 27.6956 16.7188 27.8127 16.7188C27.8323 16.7188 27.8518 16.7188 27.8713 16.7188C27.8909 16.7188 27.9104 16.7285 27.9299 16.748C28.7698 16.9824 29.5608 17.3145 30.303 17.7441C31.0452 18.1738 31.719 18.6865 32.3245 19.2822C32.9299 19.8779 33.4475 20.5469 33.8772 21.2891C34.3069 22.0117 34.6389 22.793 34.8733 23.6328V23.6914C34.8928 23.7109 34.9026 23.7305 34.9026 23.75C34.9026 23.7695 34.9026 23.7891 34.9026 23.8086C34.9026 23.9453 34.8586 24.0576 34.7708 24.1455C34.6829 24.2334 34.5706 24.2773 34.4338 24.2773C34.3167 24.2773 34.219 24.248 34.1409 24.1895C34.0627 24.1309 34.0139 24.0527 33.9944 23.9551V23.9258C33.7795 23.1641 33.4768 22.4512 33.0862 21.7871C32.676 21.1035 32.2024 20.4932 31.6653 19.9561C31.1282 19.4189 30.5276 18.9551 29.8635 18.5645C29.1995 18.1738 28.4963 17.8711 27.7542 17.6562L27.6956 17.627C27.5784 17.6074 27.4905 17.5586 27.4319 17.4805C27.3733 17.4023 27.344 17.3047 27.344 17.1875C27.344 17.168 27.344 17.1484 27.344 17.1289C27.344 17.1094 27.344 17.0898 27.344 17.0703ZM26.6995 21.2598C27.5979 21.5137 28.3694 21.9629 29.0139 22.6074C29.6584 23.252 30.1077 24.0039 30.3616 24.8633V24.9219C30.3811 25.0195 30.4348 25.0977 30.5227 25.1562C30.6106 25.2148 30.7034 25.2441 30.801 25.2441C30.9377 25.2441 31.05 25.2002 31.1379 25.1123C31.2258 25.0244 31.2698 24.9121 31.2698 24.7754C31.2698 24.7559 31.2698 24.7363 31.2698 24.7168C31.2698 24.6973 31.2698 24.6777 31.2698 24.6582C30.9768 23.6035 30.4495 22.6953 29.6877 21.9336C28.926 21.1719 28.0276 20.6543 26.9924 20.3809L26.9631 20.3516C26.9436 20.3516 26.9241 20.3516 26.9045 20.3516C26.885 20.3516 26.8655 20.3516 26.8459 20.3516C26.7092 20.3516 26.5969 20.3955 26.509 20.4834C26.4211 20.5713 26.3772 20.6836 26.3772 20.8203C26.3772 20.918 26.4065 21.0107 26.4651 21.0986C26.5237 21.1865 26.6018 21.2402 26.6995 21.2598ZM35.7815 32.9492C35.5862 34.4727 34.9172 35.7422 33.7747 36.7578C32.6321 37.7734 31.2893 38.2812 29.7463 38.2812C27.4807 38.2812 25.3518 37.8516 23.3596 36.9922C21.3674 36.1328 19.6292 34.9609 18.1448 33.4766C16.6604 31.9922 15.4885 30.2539 14.6292 28.2617C13.7698 26.2695 13.3401 24.1406 13.3401 21.875C13.3401 20.332 13.8479 18.9893 14.8635 17.8467C15.8792 16.7041 17.1389 16.0352 18.6428 15.8398H18.6721C18.6917 15.8203 18.7161 15.8105 18.7454 15.8105C18.7747 15.8105 18.7991 15.8105 18.8186 15.8105C19.1116 15.8105 19.3752 15.8887 19.6096 16.0449C19.844 16.2012 20.01 16.4062 20.1077 16.6602H20.137L22.4807 22.168C22.5198 22.2461 22.5491 22.334 22.5686 22.4316C22.5881 22.5293 22.5979 22.627 22.5979 22.7246C22.5979 22.8613 22.5784 22.998 22.5393 23.1348C22.5002 23.2715 22.4417 23.3887 22.3635 23.4863L20.4006 26.4746C20.3811 26.5137 20.3665 26.5527 20.3567 26.5918C20.3469 26.6309 20.342 26.6797 20.342 26.7383C20.342 26.7578 20.3469 26.7871 20.3567 26.8262C20.3665 26.8652 20.3713 26.8945 20.3713 26.9141C20.8401 27.8711 21.4456 28.7158 22.1877 29.4482C22.9299 30.1807 23.76 30.7812 24.678 31.25H24.7366C24.7756 31.2695 24.8098 31.2842 24.8391 31.2939C24.8684 31.3037 24.9026 31.3086 24.9417 31.3086C24.9807 31.3086 25.0247 31.2988 25.0735 31.2793C25.1223 31.2598 25.1663 31.2402 25.2053 31.2207L28.135 29.2578C28.2327 29.1992 28.3499 29.1455 28.4866 29.0967C28.6233 29.0479 28.76 29.0234 28.8967 29.0234C28.9944 29.0234 29.092 29.0332 29.1897 29.0527C29.2874 29.0723 29.385 29.1016 29.4827 29.1406H29.4534L34.9612 31.4844C35.2151 31.6016 35.4202 31.7773 35.5764 32.0117C35.7327 32.2461 35.8108 32.5098 35.8108 32.8027C35.8108 32.8223 35.8108 32.8467 35.8108 32.876C35.8108 32.9053 35.801 32.9395 35.7815 32.9785V32.9492ZM34.5803 32.3633L29.1018 30.0195C29.0627 30 29.0286 29.9854 28.9993 29.9756C28.97 29.9658 28.9358 29.9609 28.8967 29.9609C28.8577 29.9609 28.8137 29.9707 28.7649 29.9902C28.7161 30.0098 28.6721 30.0293 28.6331 30.0488L25.7034 32.0117C25.6057 32.0898 25.4885 32.1484 25.3518 32.1875C25.2151 32.2266 25.0784 32.2461 24.9417 32.2461C24.8245 32.2461 24.717 32.2314 24.6194 32.2021C24.5217 32.1729 24.4241 32.1387 24.3264 32.0996C23.2913 31.5918 22.3635 30.9326 21.5432 30.1221C20.7229 29.3115 20.0588 28.3984 19.551 27.3828V27.3242C19.4924 27.2461 19.4534 27.1533 19.4338 27.0459C19.4143 26.9385 19.4045 26.8359 19.4045 26.7383C19.4045 26.582 19.4241 26.4404 19.4631 26.3135C19.5022 26.1865 19.5608 26.0645 19.6389 25.9473L21.5725 22.9883C21.592 22.9492 21.6116 22.9053 21.6311 22.8564C21.6506 22.8076 21.6604 22.7637 21.6604 22.7246C21.6604 22.6855 21.6555 22.6514 21.6458 22.6221C21.636 22.5928 21.6213 22.5586 21.6018 22.5195L21.6311 22.5488L19.2581 17.041C19.219 16.9629 19.1604 16.8945 19.0823 16.8359C19.0042 16.7773 18.926 16.748 18.8479 16.748C18.8284 16.748 18.8137 16.748 18.804 16.748C18.7942 16.748 18.7893 16.748 18.7893 16.748C17.5002 16.9238 16.426 17.4951 15.5667 18.4619C14.7073 19.4287 14.2776 20.5664 14.2776 21.875C14.2776 24.0039 14.6877 26.0059 15.5081 27.8809C16.3088 29.7559 17.4124 31.3965 18.8186 32.8027C20.2249 34.209 21.8655 35.3125 23.7405 36.1133C25.6155 36.9336 27.6174 37.3438 29.7463 37.3438C31.0549 37.3438 32.1926 36.9141 33.1594 36.0547C34.1262 35.1953 34.6975 34.1309 34.8733 32.8613V32.832C34.8733 32.832 34.8733 32.8271 34.8733 32.8174C34.8733 32.8076 34.8733 32.793 34.8733 32.7734C34.8733 32.6953 34.844 32.6172 34.7854 32.5391C34.7268 32.4609 34.6584 32.4023 34.5803 32.3633Z" fill="#141212"/>
</g>
<defs>
<clipPath id="clip0_7_17">
<rect width="30" height="30" fill="white" transform="matrix(1 0 0 -1 13.3401 42.5)"/>
</clipPath>
</defs>
</svg>
