<svg width="55" height="55" viewBox="0 0 55 55" fill="none" xmlns="http://www.w3.org/2000/svg">
<rect width="55" height="55" rx="27.5" fill="#F7F7F7"/>
<path d="M37.5 31.5996C37.5 31.5996 37.5049 31.5947 37.5146 31.585C37.5244 31.5752 37.5293 31.5605 37.5293 31.541C37.8223 30.877 38.0469 30.1592 38.2031 29.3877C38.3594 28.6162 38.4375 27.8203 38.4375 27C38.4375 26.0039 38.3203 25.0469 38.0859 24.1289C37.8516 23.2109 37.5195 22.3467 37.0898 21.5361C36.6602 20.7256 36.1328 19.9688 35.5078 19.2656C34.9023 18.582 34.2285 17.9766 33.4863 17.4492L33.457 17.4199C33.4375 17.4004 33.418 17.3857 33.3984 17.376C33.3789 17.3662 33.3594 17.3516 33.3398 17.332C32.4023 16.6875 31.3721 16.1846 30.249 15.8232C29.126 15.4619 27.9492 15.2812 26.7188 15.2812C25.0977 15.2812 23.5742 15.584 22.1484 16.1895C20.7227 16.8145 19.4824 17.6543 18.4277 18.709C17.373 19.7637 16.5332 21.0039 15.9082 22.4297C15.3027 23.8555 15 25.3789 15 27C15 28.25 15.1904 29.4463 15.5713 30.5889C15.9521 31.7314 16.4746 32.7812 17.1387 33.7383L17.1094 33.709C17.1094 33.709 17.1143 33.7139 17.124 33.7236C17.1338 33.7334 17.1387 33.7383 17.1387 33.7383C17.1387 33.7578 17.1436 33.7725 17.1533 33.7822C17.1631 33.792 17.1777 33.8066 17.1973 33.8262V33.7969C17.7246 34.5586 18.3398 35.2422 19.043 35.8477C19.7266 36.4531 20.4736 36.9658 21.2842 37.3857C22.0947 37.8057 22.959 38.1328 23.877 38.3672C24.7949 38.6016 25.7422 38.7188 26.7188 38.7188C28.0664 38.7188 29.3506 38.499 30.5713 38.0596C31.792 37.6201 32.9004 37.0195 33.8965 36.2578L33.8672 36.2871C33.8867 36.2676 33.9062 36.2529 33.9258 36.2432C33.9453 36.2334 33.9648 36.2188 33.9844 36.1992C34.7266 35.5938 35.3955 34.9102 35.9912 34.1484C36.5869 33.3867 37.0801 32.5664 37.4707 31.6875L37.5 31.6289V31.5996ZM26.7188 16.2188C27.832 16.2188 28.8965 16.3799 29.9121 16.7021C30.9277 17.0244 31.8555 17.4688 32.6953 18.0352L32.666 18.0059L32.7832 20.6133C32.7832 20.6328 32.7832 20.6426 32.7832 20.6426C32.7832 20.7012 32.7734 20.7598 32.7539 20.8184C32.7344 20.877 32.7051 20.9258 32.666 20.9648H32.6953L30.0879 23.9531C30.0488 23.9922 30.0049 24.0264 29.9561 24.0557C29.9072 24.085 29.8535 24.0996 29.7949 24.0996L26.1035 24.5977C26.1035 24.5977 26.0938 24.6025 26.0742 24.6123C26.0547 24.6221 26.0449 24.627 26.0449 24.627C25.9863 24.627 25.9326 24.6172 25.8838 24.5977C25.835 24.5781 25.791 24.5488 25.752 24.5098V24.5391L23.4668 22.8691C23.3496 22.7715 23.2227 22.6982 23.0859 22.6494C22.9492 22.6006 22.8027 22.5762 22.6465 22.5762C22.3926 22.5762 22.1631 22.6396 21.958 22.7666C21.7529 22.8936 21.582 23.0449 21.4453 23.2207V23.25L19.1309 26.8828C19.0527 26.9805 18.9941 27.0928 18.9551 27.2197C18.916 27.3467 18.8965 27.4883 18.8965 27.6445V31.8633C18.877 31.9414 18.8477 32.0195 18.8086 32.0977C18.7695 32.1758 18.7207 32.2344 18.6621 32.2734L17.666 32.8594C17.1191 32.0391 16.6943 31.1309 16.3916 30.1348C16.0889 29.1387 15.9375 28.0938 15.9375 27C15.9375 25.5156 16.2207 24.1191 16.7871 22.8105C17.3535 21.502 18.125 20.3594 19.1016 19.3828C20.0781 18.4062 21.2207 17.6348 22.5293 17.0684C23.8379 16.502 25.2344 16.2188 26.7188 16.2188ZM18.2227 33.6211L19.1309 33.0645C19.3457 32.9473 19.5117 32.7812 19.6289 32.5664C19.7461 32.3516 19.8145 32.1172 19.834 31.8633V27.6445C19.834 27.5859 19.8438 27.5371 19.8633 27.498C19.8828 27.459 19.9023 27.4199 19.9219 27.3809L22.2363 23.748C22.2754 23.6699 22.3291 23.6113 22.3975 23.5723C22.4658 23.5332 22.5488 23.5137 22.6465 23.5137C22.6855 23.5137 22.7295 23.5234 22.7783 23.543C22.8271 23.5625 22.8711 23.5918 22.9102 23.6309V23.6016L25.2246 25.2715C25.3418 25.3691 25.4688 25.4424 25.6055 25.4912C25.7422 25.54 25.8887 25.5645 26.0449 25.5645C26.084 25.5645 26.1182 25.5596 26.1475 25.5498C26.1768 25.54 26.2109 25.5352 26.25 25.5352H26.2207L29.9121 25.0371C30.0879 25.0176 30.249 24.9639 30.3955 24.876C30.542 24.7881 30.6738 24.6855 30.791 24.5684L33.3984 21.5801C33.4961 21.4434 33.5742 21.2969 33.6328 21.1406C33.6914 20.9844 33.7207 20.8184 33.7207 20.6426C33.7207 20.6426 33.7207 20.6328 33.7207 20.6133C33.7207 20.5938 33.7207 20.584 33.7207 20.584L33.6328 18.7383C34.2383 19.2461 34.7754 19.8027 35.2441 20.4082C35.7129 21.0137 36.1182 21.668 36.46 22.3711C36.8018 23.0742 37.0605 23.8164 37.2363 24.5977C37.4121 25.3789 37.5 26.1797 37.5 27C37.5 27.6445 37.4463 28.2744 37.3389 28.8896C37.2314 29.5049 37.0703 30.0957 36.8555 30.6621L36.8848 30.5742L34.4824 28.377C34.3457 28.2598 34.1992 28.1719 34.043 28.1133C33.8867 28.0547 33.7109 28.0254 33.5156 28.0254C33.418 28.0254 33.3252 28.0303 33.2373 28.04C33.1494 28.0498 33.0664 28.0742 32.9883 28.1133L29.4141 29.6074C29.1992 29.7051 29.0137 29.8467 28.8574 30.0322C28.7012 30.2178 28.6035 30.4375 28.5645 30.6914L28.3008 32.5957C28.2812 32.6152 28.2715 32.6445 28.2715 32.6836C28.2715 32.7227 28.2715 32.7617 28.2715 32.8008C28.2715 33.1328 28.3691 33.4209 28.5645 33.665C28.7598 33.9092 29.0137 34.0703 29.3262 34.1484L31.8457 34.8223C31.8848 34.8223 31.9238 34.8369 31.9629 34.8662C32.002 34.8955 32.0312 34.9199 32.0508 34.9395L32.9297 35.8184C32.0703 36.4238 31.1084 36.9023 30.0439 37.2539C28.9795 37.6055 27.8711 37.7812 26.7188 37.7812C25.8594 37.7812 25.0293 37.6836 24.2285 37.4883C23.4082 37.293 22.6367 37.0146 21.9141 36.6533C21.1914 36.292 20.5273 35.8574 19.9219 35.3496C19.2969 34.8418 18.7305 34.2754 18.2227 33.6504V33.6211ZM33.6621 35.2324L32.7246 34.2656C32.627 34.1875 32.5244 34.1191 32.417 34.0605C32.3096 34.002 32.1973 33.9531 32.0801 33.9141L29.5605 33.2402C29.4629 33.2207 29.3799 33.167 29.3115 33.0791C29.2432 32.9912 29.209 32.8984 29.209 32.8008C29.209 32.7812 29.209 32.7666 29.209 32.7568C29.209 32.7471 29.209 32.7324 29.209 32.7129V32.7422L29.502 30.8379C29.502 30.7598 29.5312 30.6865 29.5898 30.6182C29.6484 30.5498 29.707 30.4961 29.7656 30.457L33.3398 28.9922C33.3789 28.9727 33.4131 28.958 33.4424 28.9482C33.4717 28.9385 33.4961 28.9336 33.5156 28.9336C33.5938 28.9336 33.6572 28.9482 33.7061 28.9775C33.7549 29.0068 33.7988 29.041 33.8379 29.0801L36.5039 31.5117C36.1523 32.2539 35.7422 32.9326 35.2734 33.5479C34.8047 34.1631 34.2773 34.7246 33.6914 35.2324H33.6621Z" fill="#141212"/>
</svg>
