<svg width="72" height="72" viewBox="0 0 72 72" fill="none" xmlns="http://www.w3.org/2000/svg">
<path d="M3.27536 43.6455V64.6476C3.27536 68.4651 6.36924 71.559 10.1859 71.559H62.7541C66.5707 71.559 69.6646 68.4651 69.6646 64.6476V43.6455H3.27536Z" fill="#254B7A"/>
<path d="M64.678 14.1457H8.26311C4.22488 14.1457 0.95195 17.4192 0.95195 21.4574V42.2633C0.95195 43.0268 1.57065 43.6455 2.33364 43.6455H70.6069C71.3703 43.6455 71.989 43.0268 71.989 42.2633V21.4574C71.989 17.4192 68.7156 14.1457 64.678 14.1457Z" fill="#254B7A"/>
<path d="M69.6646 46.2441H60.7158V43.6455H69.6646V46.2441ZM50.5437 46.2441H22.3962V43.6455H50.5437V46.2441ZM12.2247 46.2441H3.27536V43.6455H12.2247V46.2441Z" fill="#1E3C5E"/>
<path d="M12.2237 39.9421C12.2237 39.1772 12.8429 38.5608 13.6064 38.5608H21.0135C21.7775 38.5608 22.3957 39.1772 22.3957 39.9421V47.3492C22.3957 48.1136 21.7775 48.7328 21.0135 48.7328H13.6064C12.8429 48.7328 12.2237 48.1136 12.2237 47.3492V39.9421Z" fill="#F8BA0B"/>
<path d="M50.544 39.9421C50.544 39.1772 51.1632 38.5608 51.9262 38.5608H59.3339C60.0973 38.5608 60.716 39.1772 60.716 39.9421V47.3492C60.716 48.1136 60.0973 48.7328 59.3339 48.7328H51.9262C51.1632 48.7328 50.544 48.1136 50.544 47.3492V39.9421Z" fill="#F8BA0B"/>
<path d="M55.6307 14.1458H50.102V7.51638C50.102 6.75291 49.4818 6.13323 48.7193 6.13323H24.2221C23.4601 6.13323 22.8394 6.75291 22.8394 7.51638V14.1458H17.3112V7.51638C17.3112 3.70546 20.4118 0.604884 24.2221 0.604884H48.7193C52.5297 0.604884 55.6307 3.70546 55.6307 7.51638V14.1458Z" fill="#F8BA0B"/>
</svg>
