<svg width="57" height="56" viewBox="0 0 57 56" fill="none" xmlns="http://www.w3.org/2000/svg">
<path d="M28.5001 55.804C43.9099 55.804 56.4021 43.3119 56.4021 27.902C56.4021 12.4922 43.9099 0 28.5001 0C13.0903 0 0.598145 12.4922 0.598145 27.902C0.598145 43.3119 13.0903 55.804 28.5001 55.804Z" fill="#04071E"/>
<path d="M46.0829 27.9019C46.0829 28.4199 45.9429 28.8959 45.6649 29.3339C43.9549 32.2379 41.6269 34.5459 38.6829 36.2559C35.6989 38.0059 32.4369 38.8819 28.8969 38.8819C25.3549 38.8819 22.0929 38.0079 19.1109 36.2559C16.1669 34.5459 13.8389 32.2379 12.1289 29.3339C11.8509 28.8959 11.7109 28.4199 11.7109 27.9019C11.7109 27.3859 11.8489 26.9079 12.1289 26.4699C13.8389 23.5659 16.1669 21.2599 19.1109 19.5479C22.0949 17.7979 25.3549 16.9219 28.8969 16.9219C32.4369 16.9219 35.6989 17.7979 38.6829 19.5479C41.6269 21.2599 43.9529 23.5659 45.6649 26.4699C45.9429 26.9079 46.0829 27.3859 46.0829 27.9019ZM37.2209 33.8099C39.7469 32.3379 41.7449 30.3699 43.2189 27.9019C42.3029 26.3899 41.1809 25.0479 39.8469 23.8739C38.5129 22.6999 37.0129 21.7559 35.3409 21.0399C36.4549 22.5119 37.0109 24.1639 37.0109 25.9939C37.0109 27.4659 36.6429 28.8179 35.9069 30.0519C35.1709 31.2859 34.1869 32.2699 32.9529 33.0059C31.7189 33.7419 30.3669 34.1099 28.8949 34.1099C27.4229 34.1099 26.0689 33.7419 24.8369 33.0059C23.6029 32.2699 22.6189 31.2859 21.8829 30.0519C21.1469 28.8199 20.7789 27.4659 20.7789 25.9939C20.7789 24.6419 21.0969 23.3679 21.7329 22.1739C21.7329 23.0899 22.0609 23.8739 22.7169 24.5319C23.3729 25.1879 24.1589 25.5159 25.0729 25.5159C25.9889 25.5159 26.7729 25.1879 27.4309 24.5319C28.0869 23.8759 28.4149 23.0899 28.4149 22.1739C28.4149 21.2599 28.0969 20.4839 27.4609 19.8459C24.7549 20.0839 22.2689 20.9199 20.0009 22.3519C17.7329 23.7839 15.9229 25.6339 14.5709 27.9019C16.0429 30.3699 18.0409 32.3379 20.5689 33.8099C23.0949 35.2819 25.8689 36.0179 28.8929 36.0179C31.9189 36.0159 34.6929 35.2819 37.2209 33.8099Z" fill="#EDF1F6"/>
</svg>
