<svg width="73" height="70" viewBox="0 0 73 70" fill="none" xmlns="http://www.w3.org/2000/svg">
<path d="M72.027 64.7528C72.027 66.1882 71.4452 67.4872 70.5036 68.4275C69.5632 69.3668 68.2632 69.9498 66.8289 69.9498H5.82384C2.95304 69.9498 0.625732 67.6236 0.625732 64.7528C0.625732 64.0954 0.747519 63.4674 0.969651 62.8889C1.2335 62.2034 1.63716 61.5877 2.14683 61.078C3.08722 60.1376 4.38732 59.5547 5.82272 59.5547H66.8277C69.0412 59.5547 70.9321 60.9393 71.6797 62.8889C71.9052 63.4674 72.027 64.0954 72.027 64.7528Z" fill="#49151A"/>
<path d="M71.6847 62.8888C71.422 63.5744 71.0172 64.19 70.5075 64.6997C69.5672 65.6389 68.2671 66.2219 66.8328 66.2219H5.82778C3.61435 66.2219 1.72341 64.8384 0.973572 62.8888C1.23742 62.2032 1.6411 61.5876 2.15076 61.0779C3.09116 60.1375 4.39124 59.5546 5.82664 59.5546H66.8317C69.0451 59.5546 70.936 60.9392 71.6847 62.8888Z" fill="#672122"/>
<path d="M29.0486 2.70471V9.9347C29.0486 13.0795 28.2435 14.94 26.71 17.6856L22.6485 23.9741C22.0599 25.0284 21.751 26.2146 21.751 27.4211V57.0075C21.751 58.9536 23.3296 60.5322 25.2758 60.5322H34.1092V2.70471H29.0486Z" fill="#AEEAFF"/>
<path d="M39.1708 2.70471V9.9347C39.1708 13.0795 39.9759 14.94 41.5094 17.6856L45.5709 23.9741C46.1595 25.0284 46.4684 26.2146 46.4684 27.4211V57.0075C46.4684 58.9536 44.8898 60.5322 42.9436 60.5322H34.1102V2.70471H39.1708Z" fill="#83D2E5"/>
<path d="M34.1111 0.732544H27.817L29.0494 2.70467H34.1111V0.732544Z" fill="#BD1E2C"/>
<path d="M40.4037 0.732544H34.1107V2.70467H39.1713L40.4037 0.732544Z" fill="#8C231F"/>
<path d="M34.1128 2.70471V57.6051H25.9368C25.0189 57.6051 24.2714 56.8575 24.2714 55.9396V28.5543C24.2714 27.7278 24.48 26.908 24.8758 26.1841L28.6328 20.3659L28.6576 20.3219C30.261 17.45 31.0244 15.5275 31.0244 12.3691V2.70471H34.1128Z" fill="#CFF5FF"/>
<path d="M43.9519 28.5542V55.9395C43.9519 56.8574 43.2032 57.6049 42.2853 57.6049H34.1093V2.70459H37.1966V12.369C37.1966 15.5273 37.96 17.4498 39.5634 20.3218L39.5882 20.3658L43.3453 26.184C43.7422 26.9079 43.9519 27.7277 43.9519 28.5542Z" fill="#BDE8F2"/>
<path d="M43.9533 29.2883V55.9396C43.9533 56.8574 43.2046 57.605 42.2867 57.605H25.9358C25.018 57.605 24.2704 56.8574 24.2704 55.9396V29.5161C24.2704 29.5161 28.1244 25.4906 34.1118 30.5421C37.7618 33.6227 43.9533 29.2883 43.9533 29.2883Z" fill="#E3F7FC"/>
<path d="M34.1118 30.5421C28.1244 25.4906 24.2704 29.5161 24.2704 29.5161V55.9396C24.2704 56.8574 25.018 57.605 25.9358 57.605H34.1118V30.5421Z" fill="white"/>
<path d="M66.5757 47.5324C66.5757 48.6701 60.2207 49.5924 52.3807 49.5924C44.5407 49.5924 38.1857 48.6701 38.1857 47.5324C38.1857 46.3946 44.5407 45.4723 52.3807 45.4723C60.2207 45.4723 66.5757 46.3946 66.5757 47.5324Z" fill="#49151A"/>
<path d="M46.2226 39.2077C47.225 33.9927 49.7158 32.0138 50.7476 31.4004C51.0272 31.2347 51.3858 31.238 51.662 31.4094C52.6825 32.0431 55.1327 34.0705 56.0336 39.3036C57.1826 45.9855 51.0644 45.7341 51.0644 45.7341C51.0644 45.7341 44.9428 45.8649 46.2226 39.2077Z" fill="#F66654"/>
<path d="M51.2055 31.2772C51.3645 31.2783 51.5235 31.3223 51.6611 31.408C52.6815 32.0417 55.1317 34.0691 56.0327 39.3022C57.1817 45.9841 51.0634 45.7327 51.0634 45.7327L51.2055 31.2772Z" fill="#D4583F"/>
<path d="M55.0273 43.7256C56.66 38.6718 59.373 37.012 60.4724 36.5294C60.7712 36.3986 61.1252 36.446 61.3789 36.6501C62.3137 37.4033 64.4989 39.7148 64.7526 45.02C65.0774 51.7922 59.0358 50.7955 59.0358 50.7955C59.0358 50.7955 52.9424 50.1776 55.0273 43.7256Z" fill="#F66654"/>
<path d="M60.9404 36.464C61.0983 36.4854 61.2505 36.5474 61.3768 36.65C62.3116 37.4033 64.4968 39.7148 64.7505 45.02C65.0752 51.7922 59.0337 50.7954 59.0337 50.7954L60.9404 36.464Z" fill="#D4583F"/>
<path d="M40.935 47.9395C39.7015 42.7741 41.156 39.945 41.845 38.9617C42.0321 38.6945 42.3591 38.5502 42.6816 38.593C43.8723 38.7498 46.9405 39.5898 49.915 43.9885C53.7127 49.6049 48.0331 51.8939 48.0331 51.8939C48.0331 51.8939 42.5091 54.5346 40.935 47.9395Z" fill="#F66654"/>
<path d="M42.2131 38.6617C42.3585 38.5975 42.5209 38.5727 42.6821 38.5941C43.8728 38.7508 46.941 39.5909 49.9155 43.9895C53.7132 49.6059 48.0347 51.8949 48.0347 51.8949L42.2131 38.6617Z" fill="#D4583F"/>
<path d="M49.3579 42.1774C53.398 38.7315 56.58 38.7417 57.7685 38.9074C58.091 38.9525 58.3683 39.1792 58.4766 39.4859C58.878 40.618 59.5252 43.7323 56.9589 48.3813C53.6821 54.3168 49.0614 50.2982 49.0614 50.2982C49.0614 50.2982 44.1993 46.5772 49.3579 42.1774Z" fill="#F66654"/>
<path d="M58.2027 39.098C58.3256 39.1984 58.4226 39.3314 58.4768 39.4859C58.8782 40.618 59.5254 43.7323 56.959 48.3813C53.6823 54.3169 49.0627 50.2993 49.0627 50.2993L58.2027 39.098Z" fill="#D4583F"/>
<path d="M52.3807 49.5924C44.5407 49.5924 38.1857 48.6701 38.1857 47.5323V50.8034C38.1857 57.0739 43.2688 62.1581 49.5404 62.1581H52.3818L52.3807 49.5924Z" fill="#889C29"/>
<path d="M52.3822 49.5925C60.2222 49.5925 66.5772 48.6702 66.5772 47.5325V50.8036C66.5772 57.074 61.4941 62.1582 55.2225 62.1582H52.3822V49.5925Z" fill="#6F811B"/>
<path d="M8.96997 46.8579V49.6171C10.623 49.6171 11.9626 50.9566 11.9626 52.6097C11.9626 54.2627 10.623 55.6022 8.96997 55.6022V64.2067H32.1709C33.4789 64.2067 34.5388 63.1468 34.5388 61.8377V46.8579H8.96997Z" fill="#FFC239"/>
<path d="M14.964 61.2627C15.7997 61.2627 16.4772 60.5852 16.4772 59.7495C16.4772 58.9138 15.7997 58.2363 14.964 58.2363C14.1283 58.2363 13.4508 58.9138 13.4508 59.7495C13.4508 60.5852 14.1283 61.2627 14.964 61.2627Z" fill="#FCAB16"/>
<path d="M19.7696 51.5171C19.7696 52.568 18.9183 53.4193 17.8674 53.4193C16.8165 53.4193 15.9652 52.568 15.9652 51.5171C15.9652 50.4662 16.8165 49.6149 17.8674 49.6149C18.9172 49.6149 19.7696 50.4662 19.7696 51.5171Z" fill="#FCAB16"/>
<path d="M29.8 52.8645C29.8 53.6087 29.1968 54.213 28.4515 54.213C27.7061 54.213 27.1029 53.6098 27.1029 52.8645C27.1029 52.1203 27.7061 51.5159 28.4515 51.5159C29.1968 51.5159 29.8 52.1203 29.8 52.8645Z" fill="#FCAB16"/>
<path d="M23.9562 56.7028C23.9562 57.447 23.353 58.0514 22.6076 58.0514C21.8623 58.0514 21.259 57.4481 21.259 56.7028C21.259 55.9586 21.8623 55.3542 22.6076 55.3542C23.353 55.3542 23.9562 55.9586 23.9562 56.7028Z" fill="#FCAB16"/>
<path d="M30.9403 59.7495C30.9403 60.7023 30.1679 61.4747 29.2151 61.4747C28.2623 61.4747 27.4911 60.7023 27.4911 59.7495C27.4911 58.7967 28.2635 58.0243 29.2151 58.0243C30.1668 58.0243 30.9403 58.7967 30.9403 59.7495Z" fill="#FCAB16"/>
<path d="M8.96997 46.8579L20.0822 42.9655C20.0822 42.9655 30.2292 41.6384 34.5399 46.8579C23.1142 46.8579 8.96997 46.8579 8.96997 46.8579Z" fill="#FCAB16"/>
</svg>
