<svg width="973" height="659" viewBox="0 0 973 809" fill="none" xmlns="http://www.w3.org/2000/svg">
<path d="M770.203 606.751C881.903 495.051 881.903 313.95 770.203 202.25C658.504 90.5506 477.403 90.5506 365.703 202.25C254.004 313.95 254.004 495.051 365.703 606.751C477.403 718.45 658.504 718.45 770.203 606.751Z" fill="#04071E"/>
<path d="M567.963 631.379C693.265 631.379 794.842 529.802 794.842 404.5C794.842 279.198 693.265 177.62 567.963 177.62C442.661 177.62 341.084 279.198 341.084 404.5C341.084 529.802 442.661 631.379 567.963 631.379Z" fill="white"/>
<path d="M567.965 558.989C653.287 558.989 722.455 489.822 722.455 404.499C722.455 319.177 653.287 250.01 567.965 250.01C482.643 250.01 413.476 319.177 413.476 404.499C413.476 489.822 482.643 558.989 567.965 558.989Z" fill="#04071E"/>
<path d="M662.188 424.106C673.03 372.078 639.641 321.113 587.614 310.271C535.586 299.43 484.62 332.818 473.779 384.846C462.938 436.874 496.326 487.84 548.354 498.681C600.381 509.522 651.347 476.134 662.188 424.106Z" fill="white"/>
<path d="M610.41 411.444C614.241 387.987 598.331 365.865 574.874 362.034C551.417 358.203 529.296 374.112 525.464 397.569C521.633 421.026 537.543 443.148 561 446.979C584.457 450.811 606.578 434.901 610.41 411.444Z" fill="#04071E"/>
<path d="M733.36 540.537C733.729 540.906 734.094 541.271 734.463 541.64C728.819 534.787 721.959 528.411 716.923 521.682C716.676 521.193 716.182 520.217 715.935 519.727C713.358 516.426 709.56 512.869 706.378 510.17C704.786 508.82 702.354 509.046 702.354 509.046C701.744 508.919 700.894 509.035 701.019 509.644C701.634 510.5 703.471 512.337 702.988 512.821C702.868 512.941 702.501 512.575 702.133 512.207C701.65 512.69 699.581 512.554 699.213 512.187C698.603 512.061 695.672 510.58 695.063 510.453C693.597 509.713 695.094 514.834 696.202 516.666C696.696 517.643 695.598 517.27 695.236 517.632C696.092 518.247 696.098 518.977 696.955 519.592C696.834 519.713 698.918 522.038 700.021 523.142C700.021 523.142 700.51 523.389 701.612 524.491C701.98 524.859 702.101 524.738 702.221 524.617C702.1 524.737 702.1 524.737 701.98 524.859C702.59 524.986 703.084 525.963 703.573 526.21C703.452 526.331 703.452 526.331 703.331 526.452C704.307 526.945 704.801 527.922 705.656 528.536C705.535 528.657 705.535 528.657 705.414 528.778C705.782 529.146 706.149 529.513 706.029 529.633C705.908 529.754 705.908 529.754 705.787 529.875C706.034 530.364 707.012 530.857 706.77 531.099C706.891 530.978 706.891 530.978 707.012 530.857C708.483 532.328 709.465 533.552 710.447 534.775C712.904 538.199 716.823 541.634 720.373 544.701C720.74 545.068 721.35 545.194 721.224 544.585C721.591 544.953 721.96 545.321 722.327 545.688C723.062 546.423 723.057 545.693 723.792 546.427C730.279 551.707 735.558 558.193 741.802 563.713C740.451 562.122 739.59 560.777 737.999 559.428C738.12 559.307 738.361 559.066 737.993 558.698C735.908 556.371 733.093 554.039 732.473 552.453C732.226 551.965 732.221 551.235 731.118 550.131C731.486 550.499 731.854 550.867 732.222 551.235C732.343 551.114 732.584 550.873 732.584 550.873C731.233 549.281 729.516 547.321 728.166 545.73C728.166 545.73 728.408 545.488 728.528 545.368L727.793 544.633C727.904 543.051 731.828 547.217 733.787 548.934C733.907 548.814 734.149 548.572 734.27 548.451L733.534 547.715L733.776 547.473C735.982 549.679 737.819 551.517 740.027 553.724C739.659 553.356 738.923 552.62 738.555 552.252C738.676 552.131 738.797 552.01 738.43 551.643C739.901 553.114 741.618 555.074 743.33 556.302C743.818 556.549 743.813 555.819 742.831 554.596C741.727 553.492 740.993 552.758 739.889 551.654L740.13 551.412C740.866 552.148 741.848 553.371 742.704 553.986C743.193 554.233 742.331 552.888 742.819 553.134C743.187 553.502 743.555 553.87 744.044 554.118C742.939 553.013 741.349 551.664 740.366 550.44C740.119 549.952 739.873 549.463 740.114 549.222C738.156 547.506 737.048 545.673 736.549 543.965C736.423 543.358 734.462 541.64 733.36 540.537Z" fill="#C11212"/>
<path d="M726.429 522.156C726.798 521.787 727.163 521.422 727.532 521.053C720.679 526.697 714.303 533.557 707.574 538.594C707.085 538.841 706.109 539.335 705.619 539.582C702.318 542.159 698.761 545.957 696.062 549.139C694.712 550.731 694.938 553.163 694.938 553.163C694.812 553.773 694.927 554.623 695.536 554.498C696.392 553.883 698.229 552.046 698.713 552.529C698.833 552.649 698.467 553.016 698.099 553.384C698.582 553.867 698.446 555.936 698.079 556.304C697.953 556.914 696.472 559.845 696.345 560.454C695.605 561.92 700.726 560.423 702.558 559.315C703.535 558.821 703.162 559.919 703.524 560.281C704.139 559.425 704.869 559.419 705.484 558.562C705.605 558.683 707.93 556.599 709.034 555.496C709.034 555.496 709.281 555.007 710.383 553.905C710.751 553.537 710.63 553.416 710.509 553.296C710.629 553.417 710.629 553.417 710.75 553.538C710.877 552.928 711.854 552.434 712.101 551.945C712.222 552.066 712.222 552.066 712.343 552.187C712.836 551.211 713.813 550.717 714.427 549.862C714.548 549.983 714.548 549.983 714.669 550.104C715.037 549.736 715.404 549.369 715.524 549.49C715.645 549.611 715.645 549.611 715.766 549.732C716.255 549.485 716.749 548.507 716.99 548.749C716.869 548.628 716.869 548.628 716.748 548.507C718.219 547.036 719.443 546.054 720.666 545.072C724.09 542.615 727.525 538.696 730.592 535.146C730.959 534.779 731.085 534.169 730.476 534.295C730.843 533.927 731.212 533.559 731.579 533.192C732.314 532.457 731.583 532.462 732.318 531.727C737.598 525.239 744.084 519.961 749.604 513.717C748.013 515.068 746.668 515.929 745.319 517.52C745.198 517.399 744.957 517.158 744.589 517.526C742.262 519.611 739.93 522.426 738.344 523.046C737.856 523.293 737.126 523.298 736.022 524.401C736.39 524.033 736.758 523.665 737.126 523.297C737.005 523.176 736.764 522.935 736.764 522.935C735.172 524.286 733.212 526.003 731.621 527.353C731.621 527.353 731.38 527.111 731.259 526.991L730.524 527.726C728.942 527.615 733.108 523.691 734.825 521.732C734.705 521.612 734.463 521.37 734.342 521.249L733.606 521.985L733.364 521.743C735.57 519.537 737.408 517.699 739.615 515.492C739.247 515.86 738.511 516.596 738.143 516.964C738.022 516.844 737.901 516.722 737.534 517.09C739.005 515.619 740.965 513.902 742.193 512.19C742.439 511.702 741.71 511.707 740.487 512.689C739.383 513.793 738.649 514.527 737.545 515.631L737.304 515.389C738.04 514.653 739.263 513.671 739.878 512.815C740.125 512.326 738.78 513.188 739.026 512.7C739.394 512.332 739.762 511.964 740.01 511.475C738.905 512.58 737.556 514.17 736.332 515.153C735.844 515.4 735.355 515.646 735.114 515.405C733.398 517.363 731.565 518.471 729.857 518.97C729.25 519.093 727.532 521.054 726.429 522.156Z" fill="#C11212"/>
<path d="M452.36 471.537C452.729 471.906 453.094 472.271 453.463 472.64C447.819 465.787 440.959 459.411 435.923 452.682C435.676 452.193 435.182 451.217 434.935 450.727C432.358 447.426 428.56 443.869 425.378 441.17C423.786 439.82 421.354 440.046 421.354 440.046C420.744 439.919 419.894 440.035 420.019 440.644C420.634 441.5 422.471 443.337 421.988 443.821C421.868 443.941 421.501 443.575 421.133 443.207C420.65 443.69 418.581 443.554 418.213 443.187C417.603 443.061 414.672 441.58 414.063 441.453C412.597 440.713 414.094 445.834 415.202 447.666C415.696 448.643 414.598 448.27 414.236 448.632C415.092 449.247 415.098 449.977 415.955 450.592C415.834 450.713 417.918 453.038 419.021 454.142C419.021 454.142 419.51 454.389 420.612 455.491C420.98 455.859 421.101 455.738 421.221 455.617C421.1 455.737 421.1 455.737 420.98 455.859C421.59 455.986 422.084 456.963 422.573 457.21C422.452 457.331 422.452 457.331 422.331 457.452C423.307 457.945 423.801 458.922 424.656 459.536C424.535 459.657 424.535 459.657 424.414 459.778C424.782 460.146 425.149 460.513 425.029 460.633C424.908 460.754 424.908 460.754 424.787 460.875C425.034 461.364 426.012 461.857 425.77 462.099C425.891 461.978 425.891 461.978 426.012 461.857C427.483 463.328 428.465 464.552 429.447 465.775C431.904 469.199 435.823 472.634 439.373 475.701C439.74 476.068 440.35 476.194 440.224 475.585C440.591 475.953 440.96 476.321 441.327 476.688C442.062 477.423 442.057 476.693 442.792 477.427C449.279 482.707 454.558 489.193 460.802 494.713C459.451 493.122 458.59 491.777 456.999 490.428C457.12 490.307 457.361 490.066 456.993 489.698C454.908 487.371 452.093 485.039 451.473 483.453C451.226 482.965 451.221 482.235 450.118 481.131C450.486 481.499 450.854 481.867 451.222 482.235C451.343 482.114 451.584 481.873 451.584 481.873C450.233 480.281 448.516 478.321 447.166 476.73C447.166 476.73 447.408 476.488 447.528 476.368L446.793 475.633C446.904 474.051 450.828 478.217 452.787 479.934C452.907 479.814 453.149 479.572 453.27 479.451L452.534 478.715L452.776 478.473C454.982 480.679 456.819 482.517 459.027 484.724C458.659 484.356 457.923 483.62 457.555 483.252C457.676 483.131 457.797 483.01 457.43 482.643C458.901 484.114 460.618 486.074 462.33 487.302C462.818 487.549 462.813 486.819 461.831 485.596C460.727 484.492 459.993 483.758 458.889 482.654L459.13 482.412C459.866 483.148 460.848 484.371 461.704 484.986C462.193 485.233 461.331 483.888 461.819 484.134C462.187 484.502 462.555 484.87 463.044 485.118C461.939 484.013 460.349 482.664 459.366 481.44C459.119 480.952 458.873 480.463 459.114 480.222C457.156 478.506 456.048 476.673 455.549 474.965C455.423 474.358 453.462 472.64 452.36 471.537Z" fill="#C11212"/>
<path d="M445.429 453.156C445.798 452.787 446.163 452.422 446.532 452.053C439.679 457.697 433.303 464.557 426.574 469.594C426.085 469.841 425.109 470.335 424.619 470.582C421.318 473.159 417.761 476.957 415.062 480.139C413.712 481.731 413.938 484.163 413.938 484.163C413.812 484.773 413.927 485.623 414.536 485.498C415.392 484.883 417.229 483.046 417.713 483.529C417.833 483.649 417.467 484.016 417.099 484.384C417.582 484.867 417.446 486.936 417.079 487.304C416.953 487.914 415.472 490.845 415.345 491.454C414.605 492.92 419.726 491.423 421.558 490.315C422.535 489.821 422.162 490.919 422.524 491.281C423.139 490.425 423.869 490.419 424.484 489.562C424.605 489.683 426.93 487.599 428.034 486.496C428.034 486.496 428.281 486.007 429.383 484.905C429.751 484.537 429.63 484.416 429.509 484.296C429.629 484.417 429.629 484.417 429.75 484.538C429.877 483.928 430.854 483.434 431.101 482.945C431.222 483.066 431.222 483.066 431.343 483.187C431.836 482.211 432.813 481.717 433.427 480.862C433.548 480.983 433.548 480.983 433.669 481.104C434.037 480.736 434.404 480.369 434.524 480.49C434.645 480.611 434.645 480.611 434.766 480.732C435.255 480.485 435.749 479.507 435.99 479.749C435.869 479.628 435.869 479.628 435.748 479.507C437.219 478.036 438.443 477.054 439.666 476.072C443.09 473.615 446.525 469.696 449.592 466.146C449.959 465.779 450.085 465.169 449.476 465.295C449.843 464.927 450.212 464.559 450.579 464.192C451.314 463.457 450.583 463.462 451.318 462.727C456.598 456.239 463.084 450.961 468.604 444.717C467.013 446.068 465.668 446.929 464.319 448.52C464.198 448.399 463.957 448.158 463.589 448.526C461.262 450.611 458.93 453.426 457.344 454.046C456.856 454.293 456.126 454.298 455.022 455.401C455.39 455.033 455.758 454.665 456.126 454.297C456.005 454.176 455.764 453.935 455.764 453.935C454.172 455.286 452.212 457.003 450.621 458.353C450.621 458.353 450.38 458.111 450.259 457.991L449.524 458.726C447.942 458.615 452.108 454.691 453.825 452.732C453.705 452.612 453.463 452.37 453.342 452.249L452.606 452.985L452.364 452.743C454.57 450.537 456.408 448.699 458.615 446.492C458.247 446.86 457.511 447.596 457.143 447.964C457.022 447.844 456.901 447.722 456.534 448.09C458.005 446.619 459.965 444.902 461.193 443.19C461.439 442.702 460.71 442.707 459.487 443.689C458.383 444.793 457.649 445.527 456.545 446.631L456.304 446.389C457.04 445.653 458.263 444.671 458.878 443.815C459.125 443.326 457.78 444.188 458.026 443.7C458.394 443.332 458.762 442.964 459.01 442.475C457.905 443.58 456.556 445.17 455.332 446.153C454.844 446.4 454.355 446.646 454.114 446.405C452.398 448.363 450.565 449.471 448.857 449.97C448.25 450.093 446.532 452.054 445.429 453.156Z" fill="#C11212"/>
<path d="M706.36 322.537C706.729 322.906 707.094 323.271 707.463 323.64C701.819 316.787 694.959 310.411 689.923 303.682C689.676 303.193 689.182 302.217 688.935 301.727C686.358 298.426 682.56 294.869 679.378 292.17C677.786 290.82 675.354 291.046 675.354 291.046C674.744 290.919 673.894 291.035 674.019 291.644C674.634 292.5 676.471 294.337 675.988 294.821C675.868 294.941 675.501 294.575 675.133 294.207C674.65 294.69 672.581 294.554 672.213 294.187C671.603 294.061 668.672 292.58 668.063 292.453C666.597 291.713 668.094 296.834 669.202 298.666C669.696 299.643 668.598 299.27 668.236 299.632C669.092 300.247 669.098 300.977 669.955 301.592C669.834 301.713 671.918 304.038 673.021 305.142C673.021 305.142 673.51 305.389 674.612 306.491C674.98 306.859 675.101 306.738 675.221 306.617C675.1 306.737 675.1 306.737 674.98 306.859C675.59 306.986 676.084 307.963 676.573 308.21C676.452 308.331 676.452 308.331 676.331 308.452C677.307 308.945 677.801 309.922 678.656 310.536C678.535 310.657 678.535 310.657 678.414 310.778C678.782 311.146 679.149 311.513 679.029 311.633C678.908 311.754 678.908 311.754 678.787 311.875C679.034 312.364 680.012 312.857 679.77 313.099C679.891 312.978 679.891 312.978 680.012 312.857C681.483 314.328 682.465 315.552 683.447 316.775C685.904 320.199 689.823 323.634 693.373 326.701C693.74 327.068 694.35 327.194 694.224 326.585C694.591 326.953 694.96 327.321 695.327 327.688C696.062 328.423 696.057 327.693 696.792 328.427C703.279 333.707 708.558 340.193 714.802 345.713C713.451 344.122 712.59 342.777 710.999 341.428C711.12 341.307 711.361 341.066 710.993 340.698C708.908 338.371 706.093 336.039 705.473 334.453C705.226 333.965 705.221 333.235 704.118 332.131C704.486 332.499 704.854 332.867 705.222 333.235C705.343 333.114 705.584 332.873 705.584 332.873C704.233 331.281 702.516 329.321 701.166 327.73C701.166 327.73 701.408 327.488 701.528 327.368L700.793 326.633C700.904 325.051 704.828 329.217 706.787 330.934C706.907 330.814 707.149 330.572 707.27 330.451L706.534 329.715L706.776 329.473C708.982 331.679 710.819 333.517 713.027 335.724C712.659 335.356 711.923 334.62 711.555 334.252C711.676 334.131 711.797 334.01 711.43 333.643C712.901 335.114 714.618 337.074 716.33 338.302C716.818 338.549 716.813 337.819 715.831 336.596C714.727 335.492 713.993 334.758 712.889 333.654L713.13 333.412C713.866 334.148 714.848 335.371 715.704 335.986C716.193 336.233 715.331 334.888 715.819 335.134C716.187 335.502 716.555 335.87 717.044 336.118C715.939 335.013 714.349 333.664 713.366 332.44C713.119 331.952 712.873 331.463 713.114 331.222C711.156 329.506 710.048 327.673 709.549 325.965C709.423 325.358 707.462 323.64 706.36 322.537Z" fill="#C11212"/>
<path d="M699.429 304.156C699.798 303.787 700.163 303.422 700.532 303.053C693.679 308.697 687.303 315.557 680.574 320.594C680.085 320.841 679.109 321.335 678.619 321.582C675.318 324.159 671.761 327.957 669.062 331.139C667.712 332.731 667.938 335.163 667.938 335.163C667.812 335.773 667.927 336.623 668.536 336.498C669.392 335.883 671.229 334.046 671.713 334.529C671.833 334.649 671.467 335.016 671.099 335.384C671.582 335.867 671.446 337.936 671.079 338.304C670.953 338.914 669.472 341.845 669.345 342.454C668.605 343.92 673.726 342.423 675.558 341.315C676.535 340.821 676.162 341.919 676.524 342.281C677.139 341.425 677.869 341.419 678.484 340.562C678.605 340.683 680.93 338.599 682.034 337.496C682.034 337.496 682.281 337.007 683.383 335.905C683.751 335.537 683.63 335.416 683.509 335.296C683.629 335.417 683.629 335.417 683.75 335.538C683.877 334.928 684.854 334.434 685.101 333.945C685.222 334.066 685.222 334.066 685.343 334.187C685.836 333.211 686.813 332.717 687.427 331.862C687.548 331.983 687.548 331.983 687.669 332.104C688.037 331.736 688.404 331.369 688.524 331.49C688.645 331.611 688.645 331.611 688.766 331.732C689.255 331.485 689.749 330.507 689.99 330.749C689.869 330.628 689.869 330.628 689.748 330.507C691.219 329.036 692.443 328.054 693.666 327.072C697.09 324.615 700.525 320.696 703.592 317.146C703.959 316.779 704.085 316.169 703.476 316.295C703.843 315.927 704.212 315.559 704.579 315.192C705.314 314.457 704.583 314.462 705.318 313.727C710.598 307.239 717.084 301.961 722.604 295.717C721.013 297.068 719.668 297.929 718.319 299.52C718.198 299.399 717.957 299.158 717.589 299.526C715.262 301.611 712.93 304.426 711.344 305.046C710.856 305.293 710.126 305.298 709.022 306.401C709.39 306.033 709.758 305.665 710.126 305.297C710.005 305.176 709.764 304.935 709.764 304.935C708.172 306.286 706.212 308.003 704.621 309.353C704.621 309.353 704.38 309.111 704.259 308.991L703.524 309.726C701.942 309.615 706.108 305.691 707.825 303.732C707.705 303.612 707.463 303.37 707.342 303.249L706.606 303.985L706.364 303.743C708.57 301.537 710.408 299.699 712.615 297.492C712.247 297.86 711.511 298.596 711.143 298.964C711.022 298.844 710.901 298.722 710.534 299.09C712.005 297.619 713.965 295.902 715.193 294.19C715.439 293.702 714.71 293.707 713.487 294.689C712.383 295.793 711.649 296.527 710.545 297.631L710.304 297.389C711.04 296.653 712.263 295.671 712.878 294.815C713.125 294.326 711.78 295.188 712.026 294.7C712.394 294.332 712.762 293.964 713.01 293.475C711.905 294.58 710.556 296.17 709.332 297.153C708.844 297.4 708.355 297.646 708.114 297.405C706.398 299.363 704.565 300.471 702.857 300.97C702.25 301.093 700.532 303.054 699.429 304.156Z" fill="#C11212"/>
<path d="M601.36 389.537C601.729 389.906 602.094 390.271 602.463 390.64C596.819 383.787 589.959 377.411 584.923 370.682C584.676 370.193 584.182 369.217 583.935 368.727C581.358 365.426 577.56 361.869 574.378 359.17C572.786 357.82 570.354 358.046 570.354 358.046C569.744 357.919 568.894 358.035 569.019 358.644C569.634 359.5 571.471 361.337 570.988 361.821C570.868 361.941 570.501 361.575 570.133 361.207C569.65 361.69 567.581 361.554 567.213 361.187C566.603 361.061 563.672 359.58 563.063 359.453C561.597 358.713 563.094 363.834 564.202 365.666C564.696 366.643 563.598 366.27 563.236 366.632C564.092 367.247 564.098 367.977 564.955 368.592C564.834 368.713 566.918 371.038 568.021 372.142C568.021 372.142 568.51 372.389 569.612 373.491C569.98 373.859 570.101 373.738 570.221 373.617C570.1 373.737 570.1 373.737 569.98 373.859C570.59 373.986 571.084 374.963 571.573 375.21C571.452 375.331 571.452 375.331 571.331 375.452C572.307 375.945 572.801 376.922 573.656 377.536C573.535 377.657 573.535 377.657 573.414 377.778C573.782 378.146 574.149 378.513 574.029 378.633C573.908 378.754 573.908 378.754 573.787 378.875C574.034 379.364 575.012 379.857 574.77 380.099C574.891 379.978 574.891 379.978 575.012 379.857C576.483 381.328 577.465 382.552 578.447 383.775C580.904 387.199 584.823 390.634 588.373 393.701C588.74 394.068 589.35 394.194 589.224 393.585C589.591 393.953 589.96 394.321 590.327 394.688C591.062 395.423 591.057 394.693 591.792 395.427C598.279 400.707 603.558 407.193 609.802 412.713C608.451 411.122 607.59 409.777 605.999 408.428C606.12 408.307 606.361 408.066 605.993 407.698C603.908 405.371 601.093 403.039 600.473 401.453C600.226 400.965 600.221 400.235 599.118 399.131C599.486 399.499 599.854 399.867 600.222 400.235C600.343 400.114 600.584 399.873 600.584 399.873C599.233 398.281 597.516 396.321 596.166 394.73C596.166 394.73 596.408 394.488 596.528 394.368L595.793 393.633C595.904 392.051 599.828 396.217 601.787 397.934C601.907 397.814 602.149 397.572 602.27 397.451L601.534 396.715L601.776 396.473C603.982 398.679 605.819 400.517 608.027 402.724C607.659 402.356 606.923 401.62 606.555 401.252C606.676 401.131 606.797 401.01 606.43 400.643C607.901 402.114 609.618 404.074 611.33 405.302C611.818 405.549 611.813 404.819 610.831 403.596C609.727 402.492 608.993 401.758 607.889 400.654L608.13 400.412C608.866 401.148 609.848 402.371 610.704 402.986C611.193 403.233 610.331 401.888 610.819 402.134C611.187 402.502 611.555 402.87 612.044 403.118C610.939 402.013 609.349 400.664 608.366 399.44C608.119 398.952 607.873 398.463 608.114 398.222C606.156 396.506 605.048 394.673 604.549 392.965C604.423 392.358 602.462 390.64 601.36 389.537Z" fill="#C11212"/>
<path d="M594.429 371.156C594.798 370.787 595.163 370.422 595.532 370.053C588.679 375.697 582.303 382.557 575.574 387.594C575.085 387.841 574.109 388.335 573.619 388.582C570.318 391.159 566.761 394.957 564.062 398.139C562.712 399.731 562.938 402.163 562.938 402.163C562.812 402.773 562.927 403.623 563.536 403.498C564.392 402.883 566.229 401.046 566.713 401.529C566.833 401.649 566.467 402.016 566.099 402.384C566.582 402.867 566.446 404.936 566.079 405.304C565.953 405.914 564.472 408.845 564.345 409.454C563.605 410.92 568.726 409.423 570.558 408.315C571.535 407.821 571.162 408.919 571.524 409.281C572.139 408.425 572.869 408.419 573.484 407.562C573.605 407.683 575.93 405.599 577.034 404.496C577.034 404.496 577.281 404.007 578.383 402.905C578.751 402.537 578.63 402.416 578.509 402.296C578.629 402.417 578.629 402.417 578.75 402.538C578.877 401.928 579.854 401.434 580.101 400.945C580.222 401.066 580.222 401.066 580.343 401.187C580.836 400.211 581.813 399.717 582.427 398.862C582.548 398.983 582.548 398.983 582.669 399.104C583.037 398.736 583.404 398.369 583.524 398.49C583.645 398.611 583.645 398.611 583.766 398.732C584.255 398.485 584.749 397.507 584.99 397.749C584.869 397.628 584.869 397.628 584.748 397.507C586.219 396.036 587.443 395.054 588.666 394.072C592.09 391.615 595.525 387.696 598.592 384.146C598.959 383.779 599.085 383.169 598.476 383.295C598.843 382.927 599.212 382.559 599.579 382.192C600.314 381.457 599.583 381.462 600.318 380.727C605.598 374.239 612.084 368.961 617.604 362.717C616.013 364.068 614.668 364.929 613.319 366.52C613.198 366.399 612.957 366.158 612.589 366.526C610.262 368.611 607.93 371.426 606.344 372.046C605.856 372.293 605.126 372.298 604.022 373.401C604.39 373.033 604.758 372.665 605.126 372.297C605.005 372.176 604.764 371.935 604.764 371.935C603.172 373.286 601.212 375.003 599.621 376.353C599.621 376.353 599.38 376.111 599.259 375.991L598.524 376.726C596.942 376.615 601.108 372.691 602.825 370.732C602.705 370.612 602.463 370.37 602.342 370.249L601.606 370.985L601.364 370.743C603.57 368.537 605.408 366.699 607.615 364.492C607.247 364.86 606.511 365.596 606.143 365.964C606.022 365.844 605.901 365.722 605.534 366.09C607.005 364.619 608.965 362.902 610.193 361.19C610.439 360.702 609.71 360.707 608.487 361.689C607.383 362.793 606.649 363.527 605.545 364.631L605.304 364.389C606.04 363.653 607.263 362.671 607.878 361.815C608.125 361.326 606.78 362.188 607.026 361.7C607.394 361.332 607.762 360.964 608.01 360.475C606.905 361.58 605.556 363.17 604.332 364.153C603.844 364.4 603.355 364.646 603.114 364.405C601.398 366.363 599.565 367.471 597.857 367.97C597.25 368.093 595.532 370.054 594.429 371.156Z" fill="#C11212"/>
<path d="M438.36 190.537C438.729 190.906 439.094 191.271 439.463 191.64C433.819 184.787 426.959 178.411 421.923 171.682C421.676 171.193 421.182 170.217 420.935 169.727C418.358 166.426 414.56 162.869 411.378 160.17C409.786 158.82 407.354 159.046 407.354 159.046C406.744 158.919 405.894 159.035 406.019 159.644C406.634 160.5 408.471 162.337 407.988 162.821C407.868 162.941 407.501 162.575 407.133 162.207C406.65 162.69 404.581 162.554 404.213 162.187C403.603 162.061 400.672 160.58 400.063 160.453C398.597 159.713 400.094 164.834 401.202 166.666C401.696 167.643 400.598 167.27 400.236 167.632C401.092 168.247 401.098 168.977 401.955 169.592C401.834 169.713 403.918 172.038 405.021 173.142C405.021 173.142 405.51 173.389 406.612 174.491C406.98 174.859 407.101 174.738 407.221 174.617C407.1 174.737 407.1 174.737 406.98 174.859C407.59 174.986 408.084 175.963 408.573 176.21C408.452 176.331 408.452 176.331 408.331 176.452C409.307 176.945 409.801 177.922 410.656 178.536C410.535 178.657 410.535 178.657 410.414 178.778C410.782 179.146 411.149 179.513 411.029 179.633C410.908 179.754 410.908 179.754 410.787 179.875C411.034 180.364 412.012 180.857 411.77 181.099C411.891 180.978 411.891 180.978 412.012 180.857C413.483 182.328 414.465 183.552 415.447 184.775C417.904 188.199 421.823 191.634 425.373 194.701C425.74 195.068 426.35 195.194 426.224 194.585C426.591 194.953 426.96 195.321 427.327 195.688C428.062 196.423 428.057 195.693 428.792 196.427C435.279 201.707 440.558 208.193 446.802 213.713C445.451 212.122 444.59 210.777 442.999 209.428C443.12 209.307 443.361 209.066 442.993 208.698C440.908 206.371 438.093 204.039 437.473 202.453C437.226 201.965 437.221 201.235 436.118 200.131C436.486 200.499 436.854 200.867 437.222 201.235C437.343 201.114 437.584 200.873 437.584 200.873C436.233 199.281 434.516 197.321 433.166 195.73C433.166 195.73 433.408 195.488 433.528 195.368L432.793 194.633C432.904 193.051 436.828 197.217 438.787 198.934C438.907 198.814 439.149 198.572 439.27 198.451L438.534 197.715L438.776 197.473C440.982 199.679 442.819 201.517 445.027 203.724C444.659 203.356 443.923 202.62 443.555 202.252C443.676 202.131 443.797 202.01 443.43 201.643C444.901 203.114 446.618 205.074 448.33 206.302C448.818 206.549 448.813 205.819 447.831 204.596C446.727 203.492 445.993 202.758 444.889 201.654L445.13 201.412C445.866 202.148 446.848 203.371 447.704 203.986C448.193 204.233 447.331 202.888 447.819 203.134C448.187 203.502 448.555 203.87 449.044 204.118C447.939 203.013 446.349 201.664 445.366 200.44C445.119 199.952 444.873 199.463 445.114 199.222C443.156 197.506 442.048 195.673 441.549 193.965C441.423 193.358 439.462 191.64 438.36 190.537Z" fill="#C11212"/>
<path d="M431.429 172.156C431.798 171.787 432.163 171.422 432.532 171.053C425.679 176.697 419.303 183.557 412.574 188.594C412.085 188.841 411.109 189.335 410.619 189.582C407.318 192.159 403.761 195.957 401.062 199.139C399.712 200.731 399.938 203.163 399.938 203.163C399.812 203.773 399.927 204.623 400.536 204.498C401.392 203.883 403.229 202.046 403.713 202.529C403.833 202.649 403.467 203.016 403.099 203.384C403.582 203.867 403.446 205.936 403.079 206.304C402.953 206.914 401.472 209.845 401.345 210.454C400.605 211.92 405.726 210.423 407.558 209.315C408.535 208.821 408.162 209.919 408.524 210.281C409.139 209.425 409.869 209.419 410.484 208.562C410.605 208.683 412.93 206.599 414.034 205.496C414.034 205.496 414.281 205.007 415.383 203.905C415.751 203.537 415.63 203.416 415.509 203.296C415.629 203.417 415.629 203.417 415.75 203.538C415.877 202.928 416.854 202.434 417.101 201.945C417.222 202.066 417.222 202.066 417.343 202.187C417.836 201.211 418.813 200.717 419.427 199.862C419.548 199.983 419.548 199.983 419.669 200.104C420.037 199.736 420.404 199.369 420.524 199.49C420.645 199.611 420.645 199.611 420.766 199.732C421.255 199.485 421.749 198.507 421.99 198.749C421.869 198.628 421.869 198.628 421.748 198.507C423.219 197.036 424.443 196.054 425.666 195.072C429.09 192.615 432.525 188.696 435.592 185.146C435.959 184.779 436.085 184.169 435.476 184.295C435.843 183.927 436.212 183.559 436.579 183.192C437.314 182.457 436.583 182.462 437.318 181.727C442.598 175.239 449.084 169.961 454.604 163.717C453.013 165.068 451.668 165.929 450.319 167.52C450.198 167.399 449.957 167.158 449.589 167.526C447.262 169.611 444.93 172.426 443.344 173.046C442.856 173.293 442.126 173.298 441.022 174.401C441.39 174.033 441.758 173.665 442.126 173.297C442.005 173.176 441.764 172.935 441.764 172.935C440.172 174.286 438.212 176.003 436.621 177.353C436.621 177.353 436.38 177.111 436.259 176.991L435.524 177.726C433.942 177.615 438.108 173.691 439.825 171.732C439.705 171.612 439.463 171.37 439.342 171.249L438.606 171.985L438.364 171.743C440.57 169.537 442.408 167.699 444.615 165.492C444.247 165.86 443.511 166.596 443.143 166.964C443.022 166.844 442.901 166.722 442.534 167.09C444.005 165.619 445.965 163.902 447.193 162.19C447.439 161.702 446.71 161.707 445.487 162.689C444.383 163.793 443.649 164.527 442.545 165.631L442.304 165.389C443.04 164.653 444.263 163.671 444.878 162.815C445.125 162.326 443.78 163.188 444.026 162.7C444.394 162.332 444.762 161.964 445.01 161.475C443.905 162.58 442.556 164.17 441.332 165.153C440.844 165.4 440.355 165.646 440.114 165.405C438.398 167.363 436.565 168.471 434.857 168.97C434.25 169.093 432.532 171.054 431.429 172.156Z" fill="#C11212"/>
</svg>
