<svg width="810" height="809" viewBox="0 0 810 809" fill="none" xmlns="http://www.w3.org/2000/svg">
<path d="M607.203 606.751C718.903 495.051 718.903 313.95 607.203 202.251C495.504 90.551 314.403 90.551 202.703 202.251C91.0038 313.95 91.0038 495.051 202.703 606.751C314.403 718.451 495.504 718.451 607.203 606.751Z" fill="#04071E"/>
<path d="M404.963 631.379C530.265 631.379 631.842 529.801 631.842 404.499C631.842 279.197 530.265 177.62 404.963 177.62C279.661 177.62 178.084 279.197 178.084 404.499C178.084 529.801 279.661 631.379 404.963 631.379Z" fill="#F5F8FA"/>
<path d="M404.965 558.989C490.287 558.989 559.455 489.822 559.455 404.499C559.455 319.177 490.287 250.01 404.965 250.01C319.643 250.01 250.476 319.177 250.476 404.499C250.476 489.822 319.643 558.989 404.965 558.989Z" fill="#04071E"/>
<path d="M499.188 424.106C510.03 372.078 476.641 321.113 424.614 310.271C372.586 299.43 321.62 332.818 310.779 384.846C299.938 436.874 333.326 487.839 385.354 498.681C437.381 509.522 488.347 476.134 499.188 424.106Z" fill="#F5F8FA"/>
<path d="M447.41 411.444C451.241 387.987 435.331 365.866 411.874 362.034C388.417 358.203 366.296 374.112 362.464 397.569C358.633 421.026 374.543 443.148 398 446.979C421.457 450.811 443.578 434.901 447.41 411.444Z" fill="#04071E"/>
<path d="M570.36 540.537C570.729 540.906 571.094 541.271 571.463 541.64C565.819 534.787 558.959 528.411 553.923 521.682C553.676 521.193 553.182 520.217 552.935 519.727C550.358 516.426 546.56 512.869 543.378 510.17C541.786 508.82 539.354 509.046 539.354 509.046C538.744 508.919 537.894 509.035 538.019 509.644C538.634 510.5 540.471 512.337 539.988 512.821C539.868 512.941 539.501 512.575 539.133 512.207C538.65 512.69 536.581 512.554 536.213 512.187C535.603 512.061 532.672 510.58 532.063 510.453C530.597 509.713 532.094 514.834 533.202 516.666C533.696 517.643 532.598 517.27 532.236 517.632C533.092 518.247 533.098 518.977 533.955 519.592C533.834 519.713 535.918 522.038 537.021 523.142C537.021 523.142 537.51 523.389 538.612 524.491C538.98 524.859 539.101 524.738 539.221 524.617C539.1 524.737 539.1 524.737 538.98 524.859C539.59 524.986 540.084 525.963 540.573 526.21C540.452 526.331 540.452 526.331 540.331 526.452C541.307 526.945 541.801 527.922 542.656 528.536C542.535 528.657 542.535 528.657 542.414 528.778C542.782 529.146 543.149 529.513 543.029 529.633C542.908 529.754 542.908 529.754 542.787 529.875C543.034 530.364 544.012 530.857 543.77 531.099C543.891 530.978 543.891 530.978 544.012 530.857C545.483 532.328 546.465 533.552 547.447 534.775C549.904 538.199 553.823 541.634 557.373 544.701C557.74 545.068 558.35 545.194 558.224 544.585C558.591 544.953 558.96 545.321 559.327 545.688C560.062 546.423 560.057 545.693 560.792 546.427C567.279 551.707 572.558 558.193 578.802 563.713C577.451 562.122 576.59 560.777 574.999 559.428C575.12 559.307 575.361 559.066 574.993 558.698C572.908 556.371 570.093 554.039 569.473 552.453C569.226 551.965 569.221 551.235 568.118 550.131C568.486 550.499 568.854 550.867 569.222 551.235C569.343 551.114 569.584 550.873 569.584 550.873C568.233 549.281 566.516 547.321 565.166 545.73C565.166 545.73 565.408 545.488 565.528 545.368L564.793 544.633C564.904 543.051 568.828 547.217 570.787 548.934C570.907 548.814 571.149 548.572 571.27 548.451L570.534 547.715L570.776 547.473C572.982 549.679 574.819 551.517 577.027 553.724C576.659 553.356 575.923 552.62 575.555 552.252C575.676 552.131 575.797 552.01 575.43 551.643C576.901 553.114 578.618 555.074 580.33 556.302C580.818 556.549 580.813 555.819 579.831 554.596C578.727 553.492 577.993 552.758 576.889 551.654L577.13 551.412C577.866 552.148 578.848 553.371 579.704 553.986C580.193 554.233 579.331 552.888 579.819 553.134C580.187 553.502 580.555 553.87 581.044 554.118C579.939 553.013 578.349 551.664 577.366 550.44C577.119 549.952 576.873 549.463 577.114 549.222C575.156 547.506 574.048 545.673 573.549 543.965C573.423 543.358 571.462 541.64 570.36 540.537Z" fill="#C11212"/>
<path d="M563.429 522.156C563.798 521.787 564.163 521.422 564.532 521.053C557.679 526.697 551.303 533.557 544.574 538.594C544.085 538.841 543.109 539.335 542.619 539.582C539.318 542.159 535.761 545.957 533.062 549.139C531.712 550.731 531.938 553.163 531.938 553.163C531.812 553.773 531.927 554.623 532.536 554.498C533.392 553.883 535.229 552.046 535.713 552.529C535.833 552.649 535.467 553.016 535.099 553.384C535.582 553.867 535.446 555.936 535.079 556.304C534.953 556.914 533.472 559.845 533.345 560.454C532.605 561.92 537.726 560.423 539.558 559.315C540.535 558.821 540.162 559.919 540.524 560.281C541.139 559.425 541.869 559.419 542.484 558.562C542.605 558.683 544.93 556.599 546.034 555.496C546.034 555.496 546.281 555.007 547.383 553.905C547.751 553.537 547.63 553.416 547.509 553.296C547.629 553.417 547.629 553.417 547.75 553.538C547.877 552.928 548.854 552.434 549.101 551.945C549.222 552.066 549.222 552.066 549.343 552.187C549.836 551.211 550.813 550.717 551.427 549.862C551.548 549.983 551.548 549.983 551.669 550.104C552.037 549.736 552.404 549.369 552.524 549.49C552.645 549.611 552.645 549.611 552.766 549.732C553.255 549.485 553.749 548.507 553.99 548.749C553.869 548.628 553.869 548.628 553.748 548.507C555.219 547.036 556.443 546.054 557.666 545.072C561.09 542.615 564.525 538.696 567.592 535.146C567.959 534.779 568.085 534.169 567.476 534.295C567.843 533.927 568.212 533.559 568.579 533.192C569.314 532.457 568.583 532.462 569.318 531.727C574.598 525.239 581.084 519.961 586.604 513.717C585.013 515.068 583.668 515.929 582.319 517.52C582.198 517.399 581.957 517.158 581.589 517.526C579.262 519.611 576.93 522.426 575.344 523.046C574.856 523.293 574.126 523.298 573.022 524.401C573.39 524.033 573.758 523.665 574.126 523.297C574.005 523.176 573.764 522.935 573.764 522.935C572.172 524.286 570.212 526.003 568.621 527.353C568.621 527.353 568.38 527.111 568.259 526.991L567.524 527.726C565.942 527.615 570.108 523.691 571.825 521.732C571.705 521.612 571.463 521.37 571.342 521.249L570.606 521.985L570.364 521.743C572.57 519.537 574.408 517.699 576.615 515.492C576.247 515.86 575.511 516.596 575.143 516.964C575.022 516.844 574.901 516.722 574.534 517.09C576.005 515.619 577.965 513.902 579.193 512.19C579.439 511.702 578.71 511.707 577.487 512.689C576.383 513.793 575.649 514.527 574.545 515.631L574.304 515.389C575.04 514.653 576.263 513.671 576.878 512.815C577.125 512.326 575.78 513.188 576.026 512.7C576.394 512.332 576.762 511.964 577.01 511.475C575.905 512.58 574.556 514.17 573.332 515.153C572.844 515.4 572.355 515.646 572.114 515.405C570.398 517.363 568.565 518.471 566.857 518.97C566.25 519.093 564.532 521.054 563.429 522.156Z" fill="#C11212"/>
<path d="M289.36 471.537C289.729 471.906 290.094 472.271 290.463 472.64C284.819 465.787 277.959 459.411 272.923 452.682C272.676 452.193 272.182 451.217 271.935 450.727C269.358 447.426 265.56 443.869 262.378 441.17C260.786 439.82 258.354 440.046 258.354 440.046C257.744 439.919 256.894 440.035 257.019 440.644C257.634 441.5 259.471 443.337 258.988 443.821C258.868 443.941 258.501 443.575 258.133 443.207C257.65 443.69 255.581 443.554 255.213 443.187C254.603 443.061 251.672 441.58 251.063 441.453C249.597 440.713 251.094 445.834 252.202 447.666C252.696 448.643 251.598 448.27 251.236 448.632C252.092 449.247 252.098 449.977 252.955 450.592C252.834 450.713 254.918 453.038 256.021 454.142C256.021 454.142 256.51 454.389 257.612 455.491C257.98 455.859 258.101 455.738 258.221 455.617C258.1 455.737 258.1 455.737 257.98 455.859C258.59 455.986 259.084 456.963 259.573 457.21C259.452 457.331 259.452 457.331 259.331 457.452C260.307 457.945 260.801 458.922 261.656 459.536C261.535 459.657 261.535 459.657 261.414 459.778C261.782 460.146 262.149 460.513 262.029 460.633C261.908 460.754 261.908 460.754 261.787 460.875C262.034 461.364 263.012 461.857 262.77 462.099C262.891 461.978 262.891 461.978 263.012 461.857C264.483 463.328 265.465 464.552 266.447 465.775C268.904 469.199 272.823 472.634 276.373 475.701C276.74 476.068 277.35 476.194 277.224 475.585C277.591 475.953 277.96 476.321 278.327 476.688C279.062 477.423 279.057 476.693 279.792 477.427C286.279 482.707 291.558 489.193 297.802 494.713C296.451 493.122 295.59 491.777 293.999 490.428C294.12 490.307 294.361 490.066 293.993 489.698C291.908 487.371 289.093 485.039 288.473 483.453C288.226 482.965 288.221 482.235 287.118 481.131C287.486 481.499 287.854 481.867 288.222 482.235C288.343 482.114 288.584 481.873 288.584 481.873C287.233 480.281 285.516 478.321 284.166 476.73C284.166 476.73 284.408 476.488 284.528 476.368L283.793 475.633C283.904 474.051 287.828 478.217 289.787 479.934C289.907 479.814 290.149 479.572 290.27 479.451L289.534 478.715L289.776 478.473C291.982 480.679 293.819 482.517 296.027 484.724C295.659 484.356 294.923 483.62 294.555 483.252C294.676 483.131 294.797 483.01 294.43 482.643C295.901 484.114 297.618 486.074 299.33 487.302C299.818 487.549 299.813 486.819 298.831 485.596C297.727 484.492 296.993 483.758 295.889 482.654L296.13 482.412C296.866 483.148 297.848 484.371 298.704 484.986C299.193 485.233 298.331 483.888 298.819 484.134C299.187 484.502 299.555 484.87 300.044 485.118C298.939 484.013 297.349 482.664 296.366 481.44C296.119 480.952 295.873 480.463 296.114 480.222C294.156 478.506 293.048 476.673 292.549 474.965C292.423 474.358 290.462 472.64 289.36 471.537Z" fill="#C11212"/>
<path d="M282.429 453.156C282.798 452.787 283.163 452.422 283.532 452.053C276.679 457.697 270.303 464.557 263.574 469.594C263.085 469.841 262.109 470.335 261.619 470.582C258.318 473.159 254.761 476.957 252.062 480.139C250.712 481.731 250.938 484.163 250.938 484.163C250.812 484.773 250.927 485.623 251.536 485.498C252.392 484.883 254.229 483.046 254.713 483.529C254.833 483.649 254.467 484.016 254.099 484.384C254.582 484.867 254.446 486.936 254.079 487.304C253.953 487.914 252.472 490.845 252.345 491.454C251.605 492.92 256.726 491.423 258.558 490.315C259.535 489.821 259.162 490.919 259.524 491.281C260.139 490.425 260.869 490.419 261.484 489.562C261.605 489.683 263.93 487.599 265.034 486.496C265.034 486.496 265.281 486.007 266.383 484.905C266.751 484.537 266.63 484.416 266.509 484.296C266.629 484.417 266.629 484.417 266.75 484.538C266.877 483.928 267.854 483.434 268.101 482.945C268.222 483.066 268.222 483.066 268.343 483.187C268.836 482.211 269.813 481.717 270.427 480.862C270.548 480.983 270.548 480.983 270.669 481.104C271.037 480.736 271.404 480.369 271.524 480.49C271.645 480.611 271.645 480.611 271.766 480.732C272.255 480.485 272.749 479.507 272.99 479.749C272.869 479.628 272.869 479.628 272.748 479.507C274.219 478.036 275.443 477.054 276.666 476.072C280.09 473.615 283.525 469.696 286.592 466.146C286.959 465.779 287.085 465.169 286.476 465.295C286.843 464.927 287.212 464.559 287.579 464.192C288.314 463.457 287.583 463.462 288.318 462.727C293.598 456.239 300.084 450.961 305.604 444.717C304.013 446.068 302.668 446.929 301.319 448.52C301.198 448.399 300.957 448.158 300.589 448.526C298.262 450.611 295.93 453.426 294.344 454.046C293.856 454.293 293.126 454.298 292.022 455.401C292.39 455.033 292.758 454.665 293.126 454.297C293.005 454.176 292.764 453.935 292.764 453.935C291.172 455.286 289.212 457.003 287.621 458.353C287.621 458.353 287.38 458.111 287.259 457.991L286.524 458.726C284.942 458.615 289.108 454.691 290.825 452.732C290.705 452.612 290.463 452.37 290.342 452.249L289.606 452.985L289.364 452.743C291.57 450.537 293.408 448.699 295.615 446.492C295.247 446.86 294.511 447.596 294.143 447.964C294.022 447.844 293.901 447.722 293.534 448.09C295.005 446.619 296.965 444.902 298.193 443.19C298.439 442.702 297.71 442.707 296.487 443.689C295.383 444.793 294.649 445.527 293.545 446.631L293.304 446.389C294.04 445.653 295.263 444.671 295.878 443.815C296.125 443.326 294.78 444.188 295.026 443.7C295.394 443.332 295.762 442.964 296.01 442.475C294.905 443.58 293.556 445.17 292.332 446.153C291.844 446.4 291.355 446.646 291.114 446.405C289.398 448.363 287.565 449.471 285.857 449.97C285.25 450.093 283.532 452.054 282.429 453.156Z" fill="#C11212"/>
<path d="M543.36 322.537C543.729 322.906 544.094 323.271 544.463 323.64C538.819 316.787 531.959 310.411 526.923 303.682C526.676 303.193 526.182 302.217 525.935 301.727C523.358 298.426 519.56 294.869 516.378 292.17C514.786 290.82 512.354 291.046 512.354 291.046C511.744 290.919 510.894 291.035 511.019 291.644C511.634 292.5 513.471 294.337 512.988 294.821C512.868 294.941 512.501 294.575 512.133 294.207C511.65 294.69 509.581 294.554 509.213 294.187C508.603 294.061 505.672 292.58 505.063 292.453C503.597 291.713 505.094 296.834 506.202 298.666C506.696 299.643 505.598 299.27 505.236 299.632C506.092 300.247 506.098 300.977 506.955 301.592C506.834 301.713 508.918 304.038 510.021 305.142C510.021 305.142 510.51 305.389 511.612 306.491C511.98 306.859 512.101 306.738 512.221 306.617C512.1 306.737 512.1 306.737 511.98 306.859C512.59 306.986 513.084 307.963 513.573 308.21C513.452 308.331 513.452 308.331 513.331 308.452C514.307 308.945 514.801 309.922 515.656 310.536C515.535 310.657 515.535 310.657 515.414 310.778C515.782 311.146 516.149 311.513 516.029 311.633C515.908 311.754 515.908 311.754 515.787 311.875C516.034 312.364 517.012 312.857 516.77 313.099C516.891 312.978 516.891 312.978 517.012 312.857C518.483 314.328 519.465 315.552 520.447 316.775C522.904 320.199 526.823 323.634 530.373 326.701C530.74 327.068 531.35 327.194 531.224 326.585C531.591 326.953 531.96 327.321 532.327 327.688C533.062 328.423 533.057 327.693 533.792 328.427C540.279 333.707 545.558 340.193 551.802 345.713C550.451 344.122 549.59 342.777 547.999 341.428C548.12 341.307 548.361 341.066 547.993 340.698C545.908 338.371 543.093 336.039 542.473 334.453C542.226 333.965 542.221 333.235 541.118 332.131C541.486 332.499 541.854 332.867 542.222 333.235C542.343 333.114 542.584 332.873 542.584 332.873C541.233 331.281 539.516 329.321 538.166 327.73C538.166 327.73 538.408 327.488 538.528 327.368L537.793 326.633C537.904 325.051 541.828 329.217 543.787 330.934C543.907 330.814 544.149 330.572 544.27 330.451L543.534 329.715L543.776 329.473C545.982 331.679 547.819 333.517 550.027 335.724C549.659 335.356 548.923 334.62 548.555 334.252C548.676 334.131 548.797 334.01 548.43 333.643C549.901 335.114 551.618 337.074 553.33 338.302C553.818 338.549 553.813 337.819 552.831 336.596C551.727 335.492 550.993 334.758 549.889 333.654L550.13 333.412C550.866 334.148 551.848 335.371 552.704 335.986C553.193 336.233 552.331 334.888 552.819 335.134C553.187 335.502 553.555 335.87 554.044 336.118C552.939 335.013 551.349 333.664 550.366 332.44C550.119 331.952 549.873 331.463 550.114 331.222C548.156 329.506 547.048 327.673 546.549 325.965C546.423 325.358 544.462 323.64 543.36 322.537Z" fill="#C11212"/>
<path d="M536.429 304.156C536.798 303.787 537.163 303.422 537.532 303.053C530.679 308.697 524.303 315.557 517.574 320.594C517.085 320.841 516.109 321.335 515.619 321.582C512.318 324.159 508.761 327.957 506.062 331.139C504.712 332.731 504.938 335.163 504.938 335.163C504.812 335.773 504.927 336.623 505.536 336.498C506.392 335.883 508.229 334.046 508.713 334.529C508.833 334.649 508.467 335.016 508.099 335.384C508.582 335.867 508.446 337.936 508.079 338.304C507.953 338.914 506.472 341.845 506.345 342.454C505.605 343.92 510.726 342.423 512.558 341.315C513.535 340.821 513.162 341.919 513.524 342.281C514.139 341.425 514.869 341.419 515.484 340.562C515.605 340.683 517.93 338.599 519.034 337.496C519.034 337.496 519.281 337.007 520.383 335.905C520.751 335.537 520.63 335.416 520.509 335.296C520.629 335.417 520.629 335.417 520.75 335.538C520.877 334.928 521.854 334.434 522.101 333.945C522.222 334.066 522.222 334.066 522.343 334.187C522.836 333.211 523.813 332.717 524.427 331.862C524.548 331.983 524.548 331.983 524.669 332.104C525.037 331.736 525.404 331.369 525.524 331.49C525.645 331.611 525.645 331.611 525.766 331.732C526.255 331.485 526.749 330.507 526.99 330.749C526.869 330.628 526.869 330.628 526.748 330.507C528.219 329.036 529.443 328.054 530.666 327.072C534.09 324.615 537.525 320.696 540.592 317.146C540.959 316.779 541.085 316.169 540.476 316.295C540.843 315.927 541.212 315.559 541.579 315.192C542.314 314.457 541.583 314.462 542.318 313.727C547.598 307.239 554.084 301.961 559.604 295.717C558.013 297.068 556.668 297.929 555.319 299.52C555.198 299.399 554.957 299.158 554.589 299.526C552.262 301.611 549.93 304.426 548.344 305.046C547.856 305.293 547.126 305.298 546.022 306.401C546.39 306.033 546.758 305.665 547.126 305.297C547.005 305.176 546.764 304.935 546.764 304.935C545.172 306.286 543.212 308.003 541.621 309.353C541.621 309.353 541.38 309.111 541.259 308.991L540.524 309.726C538.942 309.615 543.108 305.691 544.825 303.732C544.705 303.612 544.463 303.37 544.342 303.249L543.606 303.985L543.364 303.743C545.57 301.537 547.408 299.699 549.615 297.492C549.247 297.86 548.511 298.596 548.143 298.964C548.022 298.844 547.901 298.722 547.534 299.09C549.005 297.619 550.965 295.902 552.193 294.19C552.439 293.702 551.71 293.707 550.487 294.689C549.383 295.793 548.649 296.527 547.545 297.631L547.304 297.389C548.04 296.653 549.263 295.671 549.878 294.815C550.125 294.326 548.78 295.188 549.026 294.7C549.394 294.332 549.762 293.964 550.01 293.475C548.905 294.58 547.556 296.17 546.332 297.153C545.844 297.4 545.355 297.646 545.114 297.405C543.398 299.363 541.565 300.471 539.857 300.97C539.25 301.093 537.532 303.054 536.429 304.156Z" fill="#C11212"/>
<path d="M438.36 389.537C438.729 389.906 439.094 390.271 439.463 390.64C433.819 383.787 426.959 377.411 421.923 370.682C421.676 370.193 421.182 369.217 420.935 368.727C418.358 365.426 414.56 361.869 411.378 359.17C409.786 357.82 407.354 358.046 407.354 358.046C406.744 357.919 405.894 358.035 406.019 358.644C406.634 359.5 408.471 361.337 407.988 361.821C407.868 361.941 407.501 361.575 407.133 361.207C406.65 361.69 404.581 361.554 404.213 361.187C403.603 361.061 400.672 359.58 400.063 359.453C398.597 358.713 400.094 363.834 401.202 365.666C401.696 366.643 400.598 366.27 400.236 366.632C401.092 367.247 401.098 367.977 401.955 368.592C401.834 368.713 403.918 371.038 405.021 372.142C405.021 372.142 405.51 372.389 406.612 373.491C406.98 373.859 407.101 373.738 407.221 373.617C407.1 373.737 407.1 373.737 406.98 373.859C407.59 373.986 408.084 374.963 408.573 375.21C408.452 375.331 408.452 375.331 408.331 375.452C409.307 375.945 409.801 376.922 410.656 377.536C410.535 377.657 410.535 377.657 410.414 377.778C410.782 378.146 411.149 378.513 411.029 378.633C410.908 378.754 410.908 378.754 410.787 378.875C411.034 379.364 412.012 379.857 411.77 380.099C411.891 379.978 411.891 379.978 412.012 379.857C413.483 381.328 414.465 382.552 415.447 383.775C417.904 387.199 421.823 390.634 425.373 393.701C425.74 394.068 426.35 394.194 426.224 393.585C426.591 393.953 426.96 394.321 427.327 394.688C428.062 395.423 428.057 394.693 428.792 395.427C435.279 400.707 440.558 407.193 446.802 412.713C445.451 411.122 444.59 409.777 442.999 408.428C443.12 408.307 443.361 408.066 442.993 407.698C440.908 405.371 438.093 403.039 437.473 401.453C437.226 400.965 437.221 400.235 436.118 399.131C436.486 399.499 436.854 399.867 437.222 400.235C437.343 400.114 437.584 399.873 437.584 399.873C436.233 398.281 434.516 396.321 433.166 394.73C433.166 394.73 433.408 394.488 433.528 394.368L432.793 393.633C432.904 392.051 436.828 396.217 438.787 397.934C438.907 397.814 439.149 397.572 439.27 397.451L438.534 396.715L438.776 396.473C440.982 398.679 442.819 400.517 445.027 402.724C444.659 402.356 443.923 401.62 443.555 401.252C443.676 401.131 443.797 401.01 443.43 400.643C444.901 402.114 446.618 404.074 448.33 405.302C448.818 405.549 448.813 404.819 447.831 403.596C446.727 402.492 445.993 401.758 444.889 400.654L445.13 400.412C445.866 401.148 446.848 402.371 447.704 402.986C448.193 403.233 447.331 401.888 447.819 402.134C448.187 402.502 448.555 402.87 449.044 403.118C447.939 402.013 446.349 400.664 445.366 399.44C445.119 398.952 444.873 398.463 445.114 398.222C443.156 396.506 442.048 394.673 441.549 392.965C441.423 392.358 439.462 390.64 438.36 389.537Z" fill="#C11212"/>
<path d="M431.429 371.156C431.798 370.787 432.163 370.422 432.532 370.053C425.679 375.697 419.303 382.557 412.574 387.594C412.085 387.841 411.109 388.335 410.619 388.582C407.318 391.159 403.761 394.957 401.062 398.139C399.712 399.731 399.938 402.163 399.938 402.163C399.812 402.773 399.927 403.623 400.536 403.498C401.392 402.883 403.229 401.046 403.713 401.529C403.833 401.649 403.467 402.016 403.099 402.384C403.582 402.867 403.446 404.936 403.079 405.304C402.953 405.914 401.472 408.845 401.345 409.454C400.605 410.92 405.726 409.423 407.558 408.315C408.535 407.821 408.162 408.919 408.524 409.281C409.139 408.425 409.869 408.419 410.484 407.562C410.605 407.683 412.93 405.599 414.034 404.496C414.034 404.496 414.281 404.007 415.383 402.905C415.751 402.537 415.63 402.416 415.509 402.296C415.629 402.417 415.629 402.417 415.75 402.538C415.877 401.928 416.854 401.434 417.101 400.945C417.222 401.066 417.222 401.066 417.343 401.187C417.836 400.211 418.813 399.717 419.427 398.862C419.548 398.983 419.548 398.983 419.669 399.104C420.037 398.736 420.404 398.369 420.524 398.49C420.645 398.611 420.645 398.611 420.766 398.732C421.255 398.485 421.749 397.507 421.99 397.749C421.869 397.628 421.869 397.628 421.748 397.507C423.219 396.036 424.443 395.054 425.666 394.072C429.09 391.615 432.525 387.696 435.592 384.146C435.959 383.779 436.085 383.169 435.476 383.295C435.843 382.927 436.212 382.559 436.579 382.192C437.314 381.457 436.583 381.462 437.318 380.727C442.598 374.239 449.084 368.961 454.604 362.717C453.013 364.068 451.668 364.929 450.319 366.52C450.198 366.399 449.957 366.158 449.589 366.526C447.262 368.611 444.93 371.426 443.344 372.046C442.856 372.293 442.126 372.298 441.022 373.401C441.39 373.033 441.758 372.665 442.126 372.297C442.005 372.176 441.764 371.935 441.764 371.935C440.172 373.286 438.212 375.003 436.621 376.353C436.621 376.353 436.38 376.111 436.259 375.991L435.524 376.726C433.942 376.615 438.108 372.691 439.825 370.732C439.705 370.612 439.463 370.37 439.342 370.249L438.606 370.985L438.364 370.743C440.57 368.537 442.408 366.699 444.615 364.492C444.247 364.86 443.511 365.596 443.143 365.964C443.022 365.844 442.901 365.722 442.534 366.09C444.005 364.619 445.965 362.902 447.193 361.19C447.439 360.702 446.71 360.707 445.487 361.689C444.383 362.793 443.649 363.527 442.545 364.631L442.304 364.389C443.04 363.653 444.263 362.671 444.878 361.815C445.125 361.326 443.78 362.188 444.026 361.7C444.394 361.332 444.762 360.964 445.01 360.475C443.905 361.58 442.556 363.17 441.332 364.153C440.844 364.4 440.355 364.646 440.114 364.405C438.398 366.363 436.565 367.471 434.857 367.97C434.25 368.093 432.532 370.054 431.429 371.156Z" fill="#C11212"/>
<path d="M275.36 190.537C275.729 190.906 276.094 191.271 276.463 191.64C270.819 184.787 263.959 178.411 258.923 171.682C258.676 171.193 258.182 170.217 257.935 169.727C255.358 166.426 251.56 162.869 248.378 160.17C246.786 158.82 244.354 159.046 244.354 159.046C243.744 158.919 242.894 159.035 243.019 159.644C243.634 160.5 245.471 162.337 244.988 162.821C244.868 162.941 244.501 162.575 244.133 162.207C243.65 162.69 241.581 162.554 241.213 162.187C240.603 162.061 237.672 160.58 237.063 160.453C235.597 159.713 237.094 164.834 238.202 166.666C238.696 167.643 237.598 167.27 237.236 167.632C238.092 168.247 238.098 168.977 238.955 169.592C238.834 169.713 240.918 172.038 242.021 173.142C242.021 173.142 242.51 173.389 243.612 174.491C243.98 174.859 244.101 174.738 244.221 174.617C244.1 174.737 244.1 174.737 243.98 174.859C244.59 174.986 245.084 175.963 245.573 176.21C245.452 176.331 245.452 176.331 245.331 176.452C246.307 176.945 246.801 177.922 247.656 178.536C247.535 178.657 247.535 178.657 247.414 178.778C247.782 179.146 248.149 179.513 248.029 179.633C247.908 179.754 247.908 179.754 247.787 179.875C248.034 180.364 249.012 180.857 248.77 181.099C248.891 180.978 248.891 180.978 249.012 180.857C250.483 182.328 251.465 183.552 252.447 184.775C254.904 188.199 258.823 191.634 262.373 194.701C262.74 195.068 263.35 195.194 263.224 194.585C263.591 194.953 263.96 195.321 264.327 195.688C265.062 196.423 265.057 195.693 265.792 196.427C272.279 201.707 277.558 208.193 283.802 213.713C282.451 212.122 281.59 210.777 279.999 209.428C280.12 209.307 280.361 209.066 279.993 208.698C277.908 206.371 275.093 204.039 274.473 202.453C274.226 201.965 274.221 201.235 273.118 200.131C273.486 200.499 273.854 200.867 274.222 201.235C274.343 201.114 274.584 200.873 274.584 200.873C273.233 199.281 271.516 197.321 270.166 195.73C270.166 195.73 270.408 195.488 270.528 195.368L269.793 194.633C269.904 193.051 273.828 197.217 275.787 198.934C275.907 198.814 276.149 198.572 276.27 198.451L275.534 197.715L275.776 197.473C277.982 199.679 279.819 201.517 282.027 203.724C281.659 203.356 280.923 202.62 280.555 202.252C280.676 202.131 280.797 202.01 280.43 201.643C281.901 203.114 283.618 205.074 285.33 206.302C285.818 206.549 285.813 205.819 284.831 204.596C283.727 203.492 282.993 202.758 281.889 201.654L282.13 201.412C282.866 202.148 283.848 203.371 284.704 203.986C285.193 204.233 284.331 202.888 284.819 203.134C285.187 203.502 285.555 203.87 286.044 204.118C284.939 203.013 283.349 201.664 282.366 200.44C282.119 199.952 281.873 199.463 282.114 199.222C280.156 197.506 279.048 195.673 278.549 193.965C278.423 193.358 276.462 191.64 275.36 190.537Z" fill="#C11212"/>
<path d="M268.429 172.156C268.798 171.787 269.163 171.422 269.532 171.053C262.679 176.697 256.303 183.557 249.574 188.594C249.085 188.841 248.109 189.335 247.619 189.582C244.318 192.159 240.761 195.957 238.062 199.139C236.712 200.731 236.938 203.163 236.938 203.163C236.812 203.773 236.927 204.623 237.536 204.498C238.392 203.883 240.229 202.046 240.713 202.529C240.833 202.649 240.467 203.016 240.099 203.384C240.582 203.867 240.446 205.936 240.079 206.304C239.953 206.914 238.472 209.845 238.345 210.454C237.605 211.92 242.726 210.423 244.558 209.315C245.535 208.821 245.162 209.919 245.524 210.281C246.139 209.425 246.869 209.419 247.484 208.562C247.605 208.683 249.93 206.599 251.034 205.496C251.034 205.496 251.281 205.007 252.383 203.905C252.751 203.537 252.63 203.416 252.509 203.296C252.629 203.417 252.629 203.417 252.75 203.538C252.877 202.928 253.854 202.434 254.101 201.945C254.222 202.066 254.222 202.066 254.343 202.187C254.836 201.211 255.813 200.717 256.427 199.862C256.548 199.983 256.548 199.983 256.669 200.104C257.037 199.736 257.404 199.369 257.524 199.49C257.645 199.611 257.645 199.611 257.766 199.732C258.255 199.485 258.749 198.507 258.99 198.749C258.869 198.628 258.869 198.628 258.748 198.507C260.219 197.036 261.443 196.054 262.666 195.072C266.09 192.615 269.525 188.696 272.592 185.146C272.959 184.779 273.085 184.169 272.476 184.295C272.843 183.927 273.212 183.559 273.579 183.192C274.314 182.457 273.583 182.462 274.318 181.727C279.598 175.239 286.084 169.961 291.604 163.717C290.013 165.068 288.668 165.929 287.319 167.52C287.198 167.399 286.957 167.158 286.589 167.526C284.262 169.611 281.93 172.426 280.344 173.046C279.856 173.293 279.126 173.298 278.022 174.401C278.39 174.033 278.758 173.665 279.126 173.297C279.005 173.176 278.764 172.935 278.764 172.935C277.172 174.286 275.212 176.003 273.621 177.353C273.621 177.353 273.38 177.111 273.259 176.991L272.524 177.726C270.942 177.615 275.108 173.691 276.825 171.732C276.705 171.612 276.463 171.37 276.342 171.249L275.606 171.985L275.364 171.743C277.57 169.537 279.408 167.699 281.615 165.492C281.247 165.86 280.511 166.596 280.143 166.964C280.022 166.844 279.901 166.722 279.534 167.09C281.005 165.619 282.965 163.902 284.193 162.19C284.439 161.702 283.71 161.707 282.487 162.689C281.383 163.793 280.649 164.527 279.545 165.631L279.304 165.389C280.04 164.653 281.263 163.671 281.878 162.815C282.125 162.326 280.78 163.188 281.026 162.7C281.394 162.332 281.762 161.964 282.01 161.475C280.905 162.58 279.556 164.17 278.332 165.153C277.844 165.4 277.355 165.646 277.114 165.405C275.398 167.363 273.565 168.471 271.857 168.97C271.25 169.093 269.532 171.054 268.429 172.156Z" fill="#C11212"/>
</svg>
