<svg width="282" height="574" viewBox="0 0 282 574" fill="none" xmlns="http://www.w3.org/2000/svg">
<g filter="url(#filter0_d_7_1024)">
<path d="M144.152 140.669C146.795 140.079 145.432 136.306 146.048 134.356C148.567 131.842 130.925 130.642 129.11 129.957C113.148 127.589 97.155 125.437 81.116 123.628C81.1407 123.631 81.1654 123.633 81.1904 123.636C80.5874 123.569 79.9847 123.502 79.3803 123.434C79.4493 123.442 79.5183 123.45 79.586 123.457C73.533 122.797 67.467 122.23 61.405 121.653C61.5154 120.785 61.3813 119.448 60.2293 119.507C44.7457 116.868 28.8443 116.947 13.215 115.399C12.9493 113.307 10.0114 113.342 8.37935 113.151C7.50336 113.254 6.30267 112.941 5.79834 113.867C4.52167 117.573 4.60403 121.614 4.3737 125.49C4.57236 128.268 3.06137 132.256 5.00337 134.474C6.59505 135.618 10.2194 137.55 10.3424 134.185C10.4764 134.128 10.606 134.043 10.7097 133.943C22.7717 133.86 34.823 134.242 46.8817 134.582C49.308 134.017 61.7944 136.576 60.9677 133.341C77.8484 133.689 94.621 135.612 111.419 137.141C111.356 137.133 111.292 137.126 111.229 137.119C116.923 137.74 122.581 138.66 128.289 139.158C128.226 139.151 128.16 139.143 128.095 139.137C133.428 139.766 138.781 140.583 144.152 140.669ZM57.832 133.183C57.832 133.186 57.832 133.188 57.832 133.191C57.685 133.183 57.539 133.172 57.3933 133.159C57.539 133.167 57.686 133.175 57.832 133.183ZM9.56238 116.369C9.52237 116.529 9.48204 116.688 9.4427 116.846C9.4467 116.675 9.45303 116.506 9.4637 116.336C9.49603 116.347 9.5287 116.359 9.56238 116.369Z" fill="#F7941D"/>
<path d="M142.231 562.123C143.521 542.043 143.759 521.775 145.39 501.645C155.467 503.269 165.023 505.187 175.354 505.987C184.059 506.022 193.063 507.314 201.636 507.297C201.284 516.382 201.211 525.389 200.461 534.558C200.048 539.697 199.877 546.141 199.573 551.872C199.312 555.847 198.144 562.396 203.671 562.837C208.172 562.621 207.372 557.405 207.717 554.191C208.133 548.28 208.215 543.034 208.73 537.324C210.433 511.368 210.881 484.998 212.895 458.524C213.495 445.085 215.146 431.684 215.91 418.284C216.746 402.641 218.329 387.002 219.129 371.377C220.631 351.943 220.052 332.445 220.708 312.935C221.413 296.485 223.043 279.99 223.482 263.746C224.375 250.671 224.012 235.727 224.679 222.175C226.467 198.652 228.695 175.679 229.665 151.943C228.533 151.476 227.436 150.928 226.345 150.374C226.403 150.404 226.461 150.434 226.519 150.464C224.944 149.644 223.341 148.871 221.701 148.193C220.878 168.789 219.405 189.357 217.656 209.886C216.074 225.163 216.497 242.222 215.763 257.936C215.056 274.588 213.743 290.765 212.696 307.516C212.092 325.641 212.219 343.82 211.079 361.974C197.092 359.952 182.864 363.018 168.986 360.665C168.736 363.517 168.681 366.379 168.505 369.235C180.988 369.686 193.493 370.219 205.959 370.715C207.132 371.701 208.784 372.07 210.262 372.443C208.637 393.614 207.339 414.35 205.818 435.331C187.426 430.726 167.933 432.263 149.294 429.193C150.097 409.983 148.375 388.758 148.463 369.717C148.314 355.645 149.492 338.726 149.417 325.323C150.395 295.478 149.361 265.28 151.108 235.553C151.905 226.174 151.949 216.608 151.96 207.19C152.079 194.07 153.718 178.703 154.328 165.15C151.564 164.302 148.761 163.608 146.015 162.704C144.764 182.717 143.255 202.795 143.37 222.664C141.123 250.584 141.606 278.778 141.001 307.151C140.176 340.578 138.838 372.573 140.379 405.958C140.943 444.947 137.089 482.743 134.748 521.814C134.371 533.918 133.66 545.819 133.403 557.941C132.328 563.246 139.314 568.749 142.231 562.123ZM204.952 444.875C203.847 463.536 202.646 482.27 201.918 500.965C183.496 497.022 164.305 498.45 146.068 493.283C148.066 474.331 148.682 455.677 149.192 436.624C156.439 437.474 163.734 437.808 171.013 438.159L170.972 438.155C182.517 438.354 193.943 439.822 205.444 439.27C205.262 441.155 205.087 443.004 204.952 444.875Z" fill="#F7941D"/>
<path d="M162.194 363.863C162.3 362.51 162.384 361.156 162.479 359.803C154.704 357.86 155.54 367.915 161.782 368.848C161.933 367.188 162.065 365.526 162.194 363.863Z" fill="#F7941D"/>
<path d="M158.034 104.137C159.59 83.8664 160.338 64.3741 162.042 44.6564C162.742 30.3508 165.363 15.5964 162.733 1.46511C156.256 -6.04156 156.514 17.5921 155.698 20.5668C152.102 49.4854 151.388 77.4044 149.179 106.465C151.948 107.676 155.115 107.987 157.636 109.765C157.757 107.999 157.889 106.133 158.034 104.137Z" fill="#F7941D"/>
<path d="M230.638 130.487C230.733 111.813 232.66 93.7764 233.769 75.2698C234.111 54.1161 235.166 32.9804 236.653 11.8974C237.308 3.2571 224.303 3.28543 228.149 12.2568C225.375 32.0781 226.608 51.9648 226.262 71.8128C225.099 90.8784 222.736 110.232 222.731 129.274C225.63 129.638 228.176 131.147 230.626 132.643C230.632 131.919 230.635 131.198 230.638 130.487Z" fill="#F7941D"/>
<path d="M212.639 311.209C215.746 311.436 218.597 308.291 215.66 305.853C212.129 303.91 207.7 304.059 203.801 303.203C194.632 301.601 185.346 300.938 176.157 299.525C175.875 302.489 175.396 305.465 174.357 308.266C187.012 310.064 199.871 310.814 212.639 311.209Z" fill="#F7941D"/>
<path d="M168.419 306.974C168.46 306.721 168.502 306.468 168.544 306.217C168.528 306.315 168.512 306.411 168.497 306.509C168.523 306.349 168.549 306.187 168.575 306.027C168.559 306.124 168.543 306.221 168.528 306.319C168.947 303.654 169.634 301.009 170.855 298.593C166.831 298.186 162.759 297.661 158.74 297.507C154.178 298.353 155.071 305.045 158.928 306.303C161.919 307.291 165.136 307.148 168.241 307.454C168.3 307.293 168.358 307.134 168.419 306.974Z" fill="#F7941D"/>
<path d="M218.06 243.715C219.815 243.914 221.196 242.302 220.668 240.599C218.987 236.658 213.063 237.156 209.486 236.164C209.364 236.973 209.39 237.79 209.337 238.604C209.337 238.603 209.339 238.602 209.339 238.602C209.225 240.107 209.007 241.602 208.668 243.073C211.8 243.264 214.93 243.525 218.06 243.715Z" fill="#F7941D"/>
<path d="M204.76 235.299C200.616 235.283 200.879 241.223 204.277 242.348C204.442 239.999 204.605 237.649 204.76 235.299Z" fill="#F7941D"/>
<path d="M206.41 235.542C206.387 235.538 206.365 235.533 206.342 235.529C206.337 235.637 206.327 235.741 206.328 235.849C206.354 235.746 206.382 235.644 206.41 235.542Z" fill="#F7941D"/>
<path d="M222.602 169.492C227.417 161.035 199.083 160.843 194.263 159.682C194.075 162.286 193.53 164.852 193.4 167.461C198.878 168.207 204.393 168.582 209.893 169.099C213.858 169.162 219.126 171.94 222.602 169.492Z" fill="#F7941D"/>
<path d="M188.29 165.653C188.287 165.373 188.355 165.103 188.411 164.83C188.399 164.888 188.388 164.945 188.376 165.002C188.777 163.006 189.22 161.016 189.595 159.013C184.18 157.944 184.159 165.812 188.806 166.753C188.494 166.489 188.293 166.095 188.29 165.653Z" fill="#F7941D"/>
<path d="M189.333 160.367C189.324 160.414 189.313 160.459 189.306 160.506C189.315 160.461 189.324 160.414 189.333 160.367Z" fill="#F7941D"/>
<path d="M212.17 106.78C216.901 106.135 222.12 106.274 226.541 104.539C228.276 103.054 226.712 100.342 224.657 100.254C219.726 99.4271 214.733 100.172 209.772 99.9998C199.252 99.0334 188.681 98.6711 178.178 97.5674C172.143 96.5071 166.088 95.7618 159.988 95.2561C156.589 93.4428 152.666 96.0254 154.366 99.9018C156.647 104.425 162.953 102.788 167.118 103.574C181.996 106.01 197.115 106.551 212.17 106.78Z" fill="#F7941D"/>
<path d="M224.703 106.686C226.425 106.701 227.504 104.751 226.363 103.375C224.39 101.718 221.216 102.099 218.782 101.383C206.312 99.3724 193.74 97.5681 181.084 97.6208C173.39 97.3358 165.927 95.0148 158.197 94.9468C154.19 95.1641 155.248 101.176 158.766 101.394C161.868 101.635 164.999 101.579 168.085 102.051C177.148 104.08 186.376 103.363 195.56 104.025C205.317 104.403 214.965 106.269 224.703 106.686Z" fill="#F7941D"/>
<path d="M223.784 42.8315C226.267 43.1875 229.902 41.0061 227.519 38.4415C227.52 38.4411 227.521 38.4411 227.521 38.4408C225.841 36.8801 223.307 37.0065 221.18 36.5851C215.917 35.8525 210.615 35.4818 205.334 34.9055C191.036 33.2445 176.786 31.4945 162.391 31.0401C155.976 28.7018 154.997 37.9851 160.954 38.8858C163.107 38.9541 165.26 38.9608 167.416 39.0991C167.344 39.0958 167.273 39.0925 167.201 39.0891C186.109 39.5091 204.861 42.4838 223.784 42.8315Z" fill="#F7941D"/>
<path d="M157.17 143.467C164.107 142.957 160.716 136.896 155.522 138.154C152.744 138.916 153.487 144.037 157.17 143.467ZM156.62 141.991C156.356 141.969 156.098 141.897 155.85 141.805C156.98 141.583 157.496 140.162 157 139.178C157.239 139.254 157.471 139.349 157.704 139.44C157.7 139.438 157.695 139.436 157.691 139.434C158.465 139.735 159.303 140.061 159.799 140.765C159.176 141.876 157.775 142.026 156.62 141.991Z" fill="#231F20"/>
<path d="M156.533 144.824C156.749 144.411 156.128 144.549 155.918 144.406C155.927 144.408 155.938 144.412 155.947 144.416C155.52 144.241 155.14 143.969 154.813 143.646C154.818 143.651 154.822 143.656 154.827 143.661C154.796 143.629 154.766 143.599 154.736 143.57C154.745 143.579 154.756 143.589 154.766 143.6C154.525 143.358 154.291 143.106 154.13 142.803C153.759 142.278 153.17 142.992 153.622 143.356C154.448 143.956 155.403 145.206 156.533 144.824Z" fill="#231F20"/>
<path d="M160.077 150.652C160.984 150.268 160.068 149.075 159.952 148.42C160.022 147.883 159.425 147.275 158.899 147.577H158.897C158.452 147.86 158.459 148.502 158.826 148.859C159.238 149.405 159.263 150.616 160.077 150.652Z" fill="#231F20"/>
<path d="M157.321 149.742C158.179 149.38 157.11 148.2 156.946 147.623C157.004 147.431 156.734 147.278 156.614 147.453C156.486 147.762 156.693 148.112 156.762 148.418L156.761 148.417C156.954 148.831 156.73 149.654 157.321 149.742Z" fill="#231F20"/>
<path d="M154.892 148.996C155.661 149.043 154.886 147.015 154.593 146.845C154.063 146.761 154.349 149.143 154.892 148.996Z" fill="#231F20"/>
<path d="M170.323 442.131C175.133 439.529 162.03 432.563 160.303 430.326C163.374 416.644 161.861 402.45 162.849 388.539C163.973 355.207 164.719 321.362 174.598 289.252C189.158 293.939 204.545 296.046 218.634 302.208C218.571 302.183 218.51 302.157 218.448 302.132C223.316 304.559 228.44 306.757 232.974 309.733C234.774 315.155 233.324 321.212 231.659 326.511C231.674 326.463 231.69 326.416 231.707 326.368C228.551 335.066 223.907 343.085 219.829 351.363C216.446 358.423 213.263 365.604 208.839 372.08C208.239 373.982 210.48 375.378 211.318 376.882C213.772 379.773 215.893 374.71 217.811 373.473C220.289 379.619 225.338 384.875 231.682 386.99C231.627 386.968 231.572 386.946 231.518 386.924C237.846 390.275 239.606 388.354 235.155 382.648C233.353 379.999 232.006 377.096 230.437 374.316C236.133 363.297 241.689 352.216 247.29 341.151C251.174 334.764 253.954 327.827 256.986 321.014C258.915 316.56 261.04 312.169 261.91 307.355C269.284 284.532 226.89 277.569 212.107 270.786C212.082 270.796 212.056 270.805 212.03 270.814C212.049 270.807 212.067 270.8 212.085 270.793C212.063 270.801 212.041 270.809 212.018 270.817C212.042 271.349 211.568 271.784 211.072 271.895C201.136 276.277 189.755 276.904 178.998 277.515C176.306 277.761 173.082 277.956 170.616 276.903C167.851 273.824 165.206 270.651 162.665 267.382C161.953 271.107 161.939 275.28 160.263 278.675C154.238 280.431 147.41 280.15 141.168 279.562C139.926 297.015 141.714 314.608 142.038 332.092C142.649 347.65 142.527 363.258 142.698 378.829C142.313 388.005 142.409 397.188 141.938 406.362C141.621 416.555 140.413 426.734 141.072 436.937C141.351 439.954 145.47 439.028 147.581 439.491C149.675 438.846 149.352 435.84 149.886 434.099C155.005 439.544 163.075 441.677 170.323 442.131ZM212.554 374.69C212.547 374.683 212.541 374.675 212.535 374.668C212.677 374.527 212.811 374.377 212.94 374.224C212.814 374.381 212.685 374.537 212.554 374.69Z" fill="#231F20"/>
<path d="M189.661 178.462C189.696 178.372 189.711 178.278 189.712 178.18C189.294 178.116 188.878 178.034 188.461 177.973C188.678 178.382 189.324 179.149 189.661 178.462Z" fill="#231F20"/>
<path d="M156.935 175.91C157.144 175.722 157.358 175.537 157.575 175.358C156.506 175.205 155.43 175.128 154.35 175.121C154.24 175.3 154.137 175.483 154.035 175.668C154.39 175.75 154.748 175.82 155.107 175.877H155.106C155.656 175.954 156.212 175.994 156.762 176.078C156.819 176.02 156.877 175.966 156.935 175.91Z" fill="#231F20"/>
<path d="M155.134 175.882C155.132 175.882 155.131 175.881 155.129 175.881C155.132 175.881 155.134 175.882 155.136 175.882C155.135 175.882 155.135 175.882 155.134 175.882Z" fill="#231F20"/>
<path d="M155.121 175.88C155.12 175.88 155.119 175.88 155.119 175.88C155.122 175.88 155.126 175.881 155.13 175.881C155.127 175.881 155.124 175.88 155.121 175.88Z" fill="#231F20"/>
<path d="M233.7 150.768C234.075 150.128 234.623 149.616 235.114 149.067C233.008 147.963 230.849 146.971 228.624 146.128C228.682 146.152 228.739 146.175 228.795 146.199C226.112 145.09 223.097 144.846 220.514 143.489C220.562 143.481 220.611 143.475 220.661 143.467C220.622 143.474 220.584 143.479 220.546 143.485C221.674 143.208 222.78 143.473 223.891 143.62C226.395 142.307 222.165 140.881 221.171 140.131C222.629 139.854 223.98 140.875 225.368 140.727C227.063 139.329 224.253 138.453 223.171 138.091C223.177 138.094 223.183 138.096 223.188 138.099C223.159 138.085 223.129 138.075 223.099 138.062C223.108 138.066 223.119 138.07 223.129 138.074C222.522 137.781 221.761 137.582 221.364 137.006C221.467 136.884 221.604 136.801 221.741 136.722C221.71 136.738 221.68 136.752 221.65 136.767C223.217 136.375 224.853 137.451 226.422 137.56C229.348 135.827 223.435 134.702 222.708 133.417C228.883 133.401 233.459 138.549 238.338 141.686C238.337 141.686 238.337 141.686 238.337 141.686C238.337 141.686 238.337 141.688 238.338 141.688C239.008 142.182 239.657 142.694 240.282 143.243C240.666 142.805 241.045 142.355 241.487 141.974C237.454 138.336 232.905 135.09 228.039 132.677C225.771 131.418 218.316 130.524 222.079 134.927C220.278 134.8 219.128 137.023 220.567 138.271C218.463 138.295 218.887 140.792 220.343 141.535C216.489 142.311 219.587 145.913 221.951 146.417C225.839 148.016 229.742 149.56 233.518 151.433C233.519 151.197 233.579 150.962 233.7 150.768Z" fill="#231F20"/>
<path d="M82.0225 132.778C82.4045 129.44 84.1665 125.017 81.5032 122.267C80.4642 121.507 78.9791 121.632 78.3765 122.861C77.9865 121.148 75.4135 120.513 74.9078 122.479C73.9745 120.899 72.1958 119.698 71.6852 122.289C69.7585 119.224 67.5378 121.628 67.9808 124.382C68.7015 128.398 68.3645 132.575 68.0545 136.621C68.7335 136.486 69.4318 136.494 70.1202 136.523C70.9538 131.913 70.2365 127.208 69.5798 122.725C69.5708 122.76 69.5628 122.795 69.5538 122.83C69.5962 122.612 69.6728 122.375 69.8925 122.28C71.0932 122.933 71.3022 124.363 71.4602 125.593C73.2295 127.968 72.4932 122.892 73.0538 122.145C74.0078 123.033 74.6972 124.306 74.4028 125.634C74.1545 126.403 75.0115 127.482 75.6842 126.677C76.2772 125.563 75.4368 123.5 76.5472 122.755C76.5355 122.753 76.5225 122.752 76.5095 122.752C76.5108 122.751 76.5135 122.751 76.5148 122.751C76.4942 122.751 76.4721 122.748 76.4511 122.747C78.4071 122.949 76.4632 129.829 79.0318 127.888C79.4641 126.946 78.7915 123.326 80.4682 123.912C81.6495 128.417 79.3762 133.185 79.2502 137.781C79.8512 137.836 80.4775 137.816 81.0615 137.972C81.4582 136.255 81.7422 134.517 82.0225 132.778Z" fill="#231F20"/>
<path d="M148.941 148.455C148.949 148.457 148.957 148.46 148.963 148.462C148.957 148.46 148.949 148.457 148.941 148.455Z" fill="#231F20"/>
<path d="M150.429 279.946C163.627 279.265 160.255 279.786 162.666 267.382C165.207 270.652 167.852 273.824 170.618 276.903C173.082 277.957 176.31 277.761 178.999 277.516C189.755 276.905 201.139 276.278 211.074 271.895C212.462 271.549 212.095 270.027 211.174 269.36C209.945 267.735 209.041 265.959 208.402 264.019C205.188 256.295 205.129 249.29 205.881 241.13C206.724 231.222 209.118 221.418 211.252 211.71C229.056 211.06 256.497 213.384 270.78 201.245C282.482 188.819 277.685 173.11 267.206 161.709C260.22 153.731 252.34 146.104 242.62 141.66C242.622 141.66 242.622 141.66 242.623 141.66C240.482 141.628 239.198 145.318 237.511 146.541C236.33 148.351 231.545 150.906 234.563 152.986C237.991 156.769 242.544 159.633 246.2 163.271L246.157 163.223C281.394 193.436 225.923 182.921 209.168 181.429C199.372 180.528 189.756 179.186 179.938 177.973C174.05 178.019 168.498 177.285 162.687 177.211L162.726 177.223C159.667 176.88 156.435 177.205 153.481 176.334C142.822 174.261 131.679 174.103 120.943 175.377L121.075 175.373C111.084 176.128 101.116 177.149 91.0966 177.389C86.4493 177.173 81.5489 178.655 77.0329 177.383L77.0159 177.337L77.0199 177.336C76.5599 172.159 77.3426 167.919 77.9756 163.025C78.9362 155.833 80.1446 148.717 82.9603 141.978C84.4373 138.493 80.3633 137.565 77.7296 137.659C74.5653 137.48 68.5033 135.069 66.1516 137.531C65.0546 137.466 64.9069 141.341 64.1409 142.372C59.7676 153.233 58.3412 164.501 56.3729 176.014L56.3846 175.957C55.1653 184.667 55.2863 196.945 65.2349 200.292C73.5553 203.538 82.6329 204.508 91.4656 205.238L91.4579 205.237C91.4866 205.239 92.0089 205.278 92.0543 205.281L91.9943 205.277C99.4686 206.377 106.831 206.159 114.364 206.048C119.957 205.954 125.677 206.357 131.346 205.987C131.709 217.299 136.63 228.393 134.201 239.664C132.563 247.412 130.274 254.727 127.649 262.177C126.156 265.657 125.987 269.812 124.694 273.29C121.688 277.806 136.944 279.14 139.562 279.383C140.006 279.685 140.609 279.777 141.106 279.552C144.173 280.079 147.325 279.949 150.429 279.946ZM158.631 276.377C158.622 276.377 158.614 276.377 158.607 276.377C158.638 276.314 158.662 276.251 158.684 276.189C158.666 276.252 158.648 276.314 158.631 276.377ZM236.769 208.146L236.751 208.143C237.134 208.14 237.507 208.135 237.873 208.128C237.512 208.136 237.145 208.142 236.769 208.146ZM145.088 177.196C144.86 177.178 144.632 177.16 144.403 177.142C144.631 177.163 144.861 177.169 145.088 177.196Z" fill="#F7941D"/>
<path d="M197.823 181.539C199.485 178.911 191.231 178.822 189.714 178.181C189.296 178.116 188.88 178.034 188.462 177.974L188.462 177.973C187.638 177.856 186.804 177.824 185.978 177.72C185.983 177.721 185.988 177.721 185.994 177.722C176.507 176.668 166.988 176.92 157.577 175.358C152.444 174.745 147.274 175 142.125 175.16C141.033 175.303 139.486 174.715 138.717 175.707C138.344 176.407 138.721 177.226 139.434 177.51C146.684 177.882 154.014 177.432 161.254 178.324C161.208 178.319 161.162 178.312 161.116 178.306C171.777 179.611 182.611 179.044 193.251 180.81C193.25 180.81 193.25 180.809 193.249 180.809C193.716 180.874 194.184 180.937 194.652 180.996C194.65 180.996 194.648 180.996 194.647 180.996C195.713 181.018 196.846 181.863 197.823 181.539Z" fill="#F7941D"/>
<path d="M189.57 177.454C189.416 175.421 188.427 173.667 186.363 173.07C186.533 171.334 186.501 169.587 186.51 167.846C189.963 169.481 192.573 165.999 189.8 163.316C192.529 163.814 193.17 160.545 190.823 159.454C192.974 159.015 193.328 156.128 191.236 155.309C190.051 154.702 188.684 154.733 187.442 154.302C188.985 145.171 187.666 135.052 182.266 127.347C182.269 127.351 182.273 127.355 182.275 127.36C178.176 121.534 170.962 119.044 164.044 120.019C164.046 120.019 164.048 120.019 164.05 120.019C158.099 121.08 156.917 117.488 156.178 112.486C155.331 108.856 149.638 107.697 149.54 112.321C146.395 110.004 143.075 112.388 144.995 115.991C143.278 115.406 141.239 116.058 141.2 118.117C141.204 118.082 141.207 118.047 141.211 118.013C141.201 118.097 141.192 118.182 141.183 118.268C141.187 118.233 141.19 118.198 141.194 118.163C141.021 120.336 142.427 122.259 143.934 123.68C143.924 123.671 143.914 123.66 143.904 123.651C146.127 125.875 148.916 127.489 151.927 128.384C150.562 132.161 150.935 136.329 149.753 140.141C149.02 142.726 146.305 143.348 144.293 144.611C143.359 145.994 145.372 147.138 146.498 147.503C146.496 147.503 146.496 147.503 146.495 147.503C147.309 147.871 148.152 148.17 148.99 148.471C148.992 148.471 148.994 148.471 148.995 148.471C148.994 148.471 148.994 148.471 148.992 148.471C149.145 148.533 149.298 148.594 149.449 148.656C149.196 161.07 144.109 161.577 158.339 164.639C158.294 164.629 158.249 164.618 158.203 164.608C158.518 164.682 158.83 164.759 159.137 164.857C159.032 167.012 159.046 169.173 158.822 171.322C157.057 172.151 155.463 173.525 154.349 175.121C155.43 175.128 156.506 175.205 157.576 175.358C161.836 171.964 167.976 174.256 172.973 174.234C177.307 175.339 186.403 173.606 188.461 177.974C188.879 178.034 189.295 178.116 189.713 178.181C189.717 177.936 189.636 177.677 189.57 177.454ZM176.757 145.733C180.053 146.277 180.375 151.483 178.284 153.53C176.768 154.182 177.958 156.609 178.042 157.868C178.911 161.593 181.14 165.023 184.537 166.892C184.752 168.753 184.819 170.655 184.744 172.531C176.798 171.569 168.681 170.719 160.662 170.881C160.612 168.488 161.18 165.888 160.707 163.591C157.633 161.413 153.316 161.808 149.933 160.191C149.709 158.222 152.251 147.375 149.836 147.505C148.309 146.95 146.264 146.858 145.162 145.594C149.74 144.241 152.754 140.989 152.83 136.064C152.831 136.064 152.831 136.064 152.831 136.064C152.841 135.958 152.855 135.85 152.865 135.743C152.86 135.784 152.856 135.825 152.851 135.866C152.876 135.638 152.899 135.409 152.92 135.179C154.464 135.953 156.077 136.651 157.759 137.069C157.717 137.06 157.674 137.049 157.632 137.04C159.199 137.533 164.176 137.83 162.277 135.04C159.474 133.65 156.3 132.402 153.113 132.88C153.248 131.553 153.25 130.208 153.548 128.902C158.749 130.908 163.856 133.309 169.132 135.192C169.115 139.522 168.204 143.793 167.701 148.081C167.701 148.08 167.701 148.08 167.701 148.08C166.764 153.091 167.525 152.626 172.199 153.712C174.712 152.383 173.155 145.584 176.757 145.733Z" fill="#241F20"/>
<path d="M211.675 206.405C213.014 204.13 211.19 203.13 211.007 204.549C210.862 204.918 210.65 205.255 210.419 205.576C209.919 206.323 211.216 207.293 211.675 206.405Z" fill="white"/>
<path d="M130.747 200.592C131.377 199.469 130.357 197.335 129.857 196.23C128.212 195.319 128.934 198.105 128.806 198.945C128.808 198.897 128.811 198.849 128.813 198.8C128.439 199.966 129.579 201.602 130.747 200.592Z" fill="white"/>
<path d="M162.721 263.563C163.775 260.552 162.486 256.841 162.868 253.604C162.805 252.435 163.852 249.344 161.758 249.771C160.279 252.533 160.959 256.193 160.779 259.282C160.808 260.735 160.174 264.6 162.721 263.563Z" fill="white"/>
<path d="M150.106 176.52C151.139 176.589 153.469 175.725 151.622 174.825C151.622 174.823 151.623 174.822 151.623 174.821C150.388 174.95 149.145 174.974 147.909 174.786C147.448 174.735 147.076 175.09 147.085 175.551C147.227 176.987 149.105 176.49 150.106 176.52Z" fill="white"/>
<path d="M61.9042 128.532C62.6605 127.789 62.0998 126.414 62.2378 125.44C62.3545 125.273 62.3008 125.051 62.2048 124.88L62.2035 124.881C61.5222 123.534 60.9472 125.378 60.9588 126.08C60.7958 126.976 60.3332 128.969 61.9042 128.532Z" fill="white"/>
<path d="M11.8652 131.212C12.2465 128.325 11.8792 125.458 11.9638 122.571C11.6872 121.28 13.1128 116.552 10.9555 116.956C10.9555 116.955 10.9552 116.954 10.9552 116.953C9.38283 120.516 10.3225 124.906 9.94983 128.751C9.9505 128.737 9.9508 128.723 9.95114 128.709C9.9488 128.758 9.94717 128.806 9.9445 128.855C9.94484 128.849 9.94515 128.842 9.94548 128.836C10.0045 129.853 9.64015 131.638 10.9782 131.911C11.4038 131.963 11.8338 131.66 11.8652 131.212Z" fill="white"/>
<path d="M175.839 127.261C177.142 126.432 174.42 125.025 173.738 124.618C172.815 124.238 172.46 125.617 173.257 125.995C174.12 126.362 174.885 127.22 175.839 127.261Z" fill="white"/>
<path d="M173.614 129.828C173.766 129.708 173.827 129.529 173.82 129.347C173.82 129.349 173.821 129.351 173.821 129.354C173.815 129.261 173.797 129.168 173.76 129.082C173.761 129.083 173.761 129.084 173.761 129.086C173.106 128.085 172.062 127.255 171.124 126.514C170.256 126.044 169.809 127.324 170.589 127.733C170.583 127.729 170.577 127.725 170.572 127.721C171.076 128.075 171.525 128.5 172.002 128.891C171.994 128.884 171.987 128.877 171.979 128.871C172.004 128.893 172.029 128.914 172.055 128.936C172.049 128.931 172.043 128.926 172.036 128.92C172.556 129.234 172.88 130.301 173.614 129.828Z" fill="white"/>
<path d="M170.743 130.943C172.131 129.862 169.469 128.614 168.711 127.979C168.431 127.807 168.038 127.86 167.855 128.145C167.41 129.198 169.006 129.66 169.553 130.32C169.552 130.318 169.55 130.317 169.548 130.315C169.66 130.417 169.78 130.514 169.876 130.632C169.871 130.624 169.866 130.617 169.861 130.61C169.874 130.623 169.886 130.636 169.898 130.65C169.865 130.614 169.837 130.576 169.81 130.535C169.814 130.541 169.817 130.546 169.821 130.551C169.804 130.519 169.787 130.486 169.771 130.454C169.947 130.809 170.349 131.086 170.743 130.943Z" fill="white"/>
<path d="M247.89 309.287C249.497 308.631 251.626 308.071 252.43 306.395C252.765 305.398 251.006 304.63 250.821 305.847C249.985 307.173 246.423 306.992 246.801 308.739C246.974 309.139 247.458 309.446 247.89 309.287Z" fill="white"/>
<path d="M244.674 305.662C245.405 304.726 248.321 302.417 247.643 301.296C246.69 300.971 246.103 303.172 245.261 303.646C244.895 304.27 243.393 304.83 244.006 305.637C244.192 305.819 244.482 305.852 244.674 305.662Z" fill="white"/>
<path d="M168.041 288.425C168.835 288.366 168.552 287.158 167.853 287.214C166.905 287.499 165.013 286.187 164.635 287.4C165.025 288.562 167.013 288.243 168.041 288.425Z" fill="white"/>
<path d="M164.419 293.899C165.286 293.625 167.479 294.191 167.345 292.833C166.804 291.643 165.128 292.69 164.125 292.58C163.335 292.734 163.706 293.966 164.419 293.899Z" fill="white"/>
</g>
<defs>
<filter id="filter0_d_7_1024" x="0" y="0" width="281.599" height="573.163" filterUnits="userSpaceOnUse" color-interpolation-filters="sRGB">
<feFlood flood-opacity="0" result="BackgroundImageFix"/>
<feColorMatrix in="SourceAlpha" type="matrix" values="0 0 0 0 0 0 0 0 0 0 0 0 0 0 0 0 0 0 127 0" result="hardAlpha"/>
<feOffset dy="4"/>
<feGaussianBlur stdDeviation="2"/>
<feComposite in2="hardAlpha" operator="out"/>
<feColorMatrix type="matrix" values="0 0 0 0 0 0 0 0 0 0 0 0 0 0 0 0 0 0 0.25 0"/>
<feBlend mode="normal" in2="BackgroundImageFix" result="effect1_dropShadow_7_1024"/>
<feBlend mode="normal" in="SourceGraphic" in2="effect1_dropShadow_7_1024" result="shape"/>
</filter>
</defs>
</svg>
